<svg width="82" height="68" viewBox="0 0 82 68" fill="none" xmlns="http://www.w3.org/2000/svg">
<g>
<g class="fault inactive" reference="STATUS-UFO">
	<g class="animation-display">
<rect id="Rectangle" x="16" y="13.9609" width="40" height="8" fill="#00BFFF"/>
<rect id="Rectangle_2" x="16" y="13.9609" width="40" height="8" fill="url(#ufo-paint0_linear)"/>
</g>
</g>
<g class="click fault inactive" reference="CONTROL-UFO">
<g id="flags">
<path id="Subtract" fill-rule="evenodd" clip-rule="evenodd" d="M56 48C56 59.0457 47.0457 68 36 68C24.9543 68 16 59.0457 16 48C16 36.9543 24.9543 28 36 28C47.0457 28 56 36.9543 56 48ZM53.3406 47.9946C53.3406 57.5751 45.5741 65.3416 35.9937 65.3416C26.4132 65.3416 18.6467 57.5751 18.6467 47.9946C18.6467 38.4142 26.4132 30.6477 35.9937 30.6477C45.5741 30.6477 53.3406 38.4142 53.3406 47.9946Z"/>
</g>
<g class="animation-display">
<path id="ON_2" d="M28.4854 44.7324C28.4854 42.9746 28.8018 41.7676 29.4346 41.1113C29.9326 40.5957 30.6562 40.3379 31.6055 40.3379C32.9883 40.3379 33.873 40.9062 34.2598 42.043C34.4883 42.7168 34.6025 43.6133 34.6025 44.7324V51.5527C34.6025 53.1641 34.377 54.3389 33.9258 55.0771C33.4746 55.8096 32.6836 56.1758 31.5527 56.1758C30.4277 56.1758 29.6338 55.8066 29.1709 55.0684C28.7139 54.3301 28.4854 53.1582 28.4854 51.5527V44.7324ZM32.7832 44.627C32.7832 43.6367 32.7041 42.9365 32.5459 42.5264C32.3877 42.1104 32.0684 41.9023 31.5879 41.9023C31.1074 41.9023 30.7734 42.1133 30.5859 42.5352C30.3984 42.957 30.3047 43.6514 30.3047 44.6182V51.5703C30.3047 52.748 30.3867 53.5508 30.5508 53.9785C30.7148 54.4004 31.0459 54.6113 31.5439 54.6113C32.042 54.6113 32.373 54.3975 32.5371 53.9697C32.7012 53.5361 32.7832 52.7363 32.7832 51.5703V44.627ZM41.7305 40.5312H43.3389V56H42.0029L38.5312 45.3828L38.6367 49.2852V56H36.958V40.5312H38.3291L41.915 51.0605L41.7305 46.5869V40.5312Z"/>
</g>
<g class="animation-hide">
<path id="OFF_2" d="M26.3848 44.7324C26.3848 42.9746 26.7012 41.7676 27.334 41.1113C27.832 40.5957 28.5557 40.3379 29.5049 40.3379C30.8877 40.3379 31.7725 40.9062 32.1592 42.043C32.3877 42.7168 32.502 43.6133 32.502 44.7324V51.5527C32.502 53.1641 32.2764 54.3389 31.8252 55.0771C31.374 55.8096 30.583 56.1758 29.4521 56.1758C28.3271 56.1758 27.5332 55.8066 27.0703 55.0684C26.6133 54.3301 26.3848 53.1582 26.3848 51.5527V44.7324ZM30.6826 44.627C30.6826 43.6367 30.6035 42.9365 30.4453 42.5264C30.2871 42.1104 29.9678 41.9023 29.4873 41.9023C29.0068 41.9023 28.6729 42.1133 28.4854 42.5352C28.2979 42.957 28.2041 43.6514 28.2041 44.6182V51.5703C28.2041 52.748 28.2861 53.5508 28.4502 53.9785C28.6143 54.4004 28.9453 54.6113 29.4434 54.6113C29.9414 54.6113 30.2725 54.3975 30.4365 53.9697C30.6006 53.5361 30.6826 52.7363 30.6826 51.5703V44.627ZM34.8486 40.5312H39.5068V42.0518H36.6592V46.9385H39.3311V48.4766H36.6592V56H34.8486V40.5312ZM41.4053 40.5312H46.0635V42.0518H43.2158V46.9385H45.8877V48.4766H43.2158V56H41.4053V40.5312Z"/>
</g>
</g>
<g id="Group 2">
<path id="Subtract_2" fill-rule="evenodd" clip-rule="evenodd" d="M0 11H70.9633V24.9844H0L0 11ZM56 13.96H21L16 21.96H51L56 13.96Z" fill="url(#ufo-paint1_linear)"/>
</g>
<g class="fault inactive" reference="ALARM-UFO">
<g  class="animation-fail">
<g>
<path id="path19629" d="M63.8838 0.371068C62.5601 -0.392811 60.8675 0.0605111 60.1032 1.3836L43.3712 30.3506C42.607 31.6737 43.0605 33.3655 44.3842 34.1294C44.805 34.3722 45.2822 34.5 45.768 34.5H79.232C79.7178 34.5 80.195 34.3722 80.6158 34.1294C81.9395 33.3655 82.393 31.6737 81.6288 30.3506L64.8968 1.3836C64.6539 0.963074 64.3045 0.613862 63.8838 0.371068V0.371068Z" fill="black"/>
<path id="path19629_2" d="M63.6709 3.41009C62.5508 2.74882 61.1186 3.14125 60.4719 4.28661L46.3141 29.3625C45.6675 30.5079 46.0512 31.9724 47.1713 32.6337C47.5273 32.8439 47.9311 32.9545 48.3422 32.9545H76.6578C77.0689 32.9545 77.4727 32.8439 77.8287 32.6337C78.9488 31.9724 79.3325 30.5079 78.6859 29.3625L64.528 4.28661C64.3225 3.92257 64.0269 3.62027 63.6709 3.41009V3.41009Z" fill="white"/>
<path id="path19631" d="M64.9334 26.5474C64.9335 26.8767 64.8706 27.2029 64.7484 27.5072C64.6261 27.8115 64.4469 28.088 64.2209 28.3209C63.9949 28.5539 63.7266 28.7386 63.4313 28.8647C63.136 28.9908 62.8195 29.0557 62.4999 29.0557C62.1803 29.0557 61.8638 28.9908 61.5685 28.8647C61.2732 28.7386 61.0049 28.5539 60.7789 28.3209C60.5529 28.088 60.3737 27.8115 60.2514 27.5072C60.1292 27.2029 60.0663 26.8767 60.0664 26.5474C60.0663 26.218 60.1292 25.8918 60.2514 25.5875C60.3737 25.2832 60.5529 25.0067 60.7789 24.7738C61.0049 24.5408 61.2732 24.3561 61.5685 24.23C61.8638 24.1039 62.1803 24.0391 62.4999 24.0391C62.8195 24.0391 63.136 24.1039 63.4313 24.23C63.7266 24.3561 63.9949 24.5408 64.2209 24.7738C64.4469 25.0067 64.6261 25.2832 64.7484 25.5875C64.8706 25.8918 64.9335 26.218 64.9334 26.5474V26.5474Z" fill="black"/>
<path id="path19633" d="M60.0875 13.8352C59.9121 12.4621 60.8501 11.2025 62.1825 11.0217C63.515 10.841 64.7374 11.8075 64.9129 13.1806C64.9406 13.3978 64.9406 13.6179 64.9129 13.8352L63.7372 23.0367H61.2631L60.0875 13.8352Z" fill="black"/>
</g>
<g id="flags_2">
<path id="path4410" d="M62.4573 2.06007C61.7837 2.07519 61.134 2.43193 60.7725 3.05904L45.2675 29.9582C44.7167 30.9138 45.0437 32.1358 45.9977 32.6875C46.301 32.8629 46.6449 32.9551 46.9951 32.9551H78.0049C78.3551 32.9551 78.699 32.8629 79.0023 32.6875C79.9563 32.1358 80.2833 30.9138 79.7325 29.9582L64.2275 3.05904C64.0525 2.75532 63.8006 2.50301 63.4973 2.32765C63.1694 2.138 62.8101 2.05215 62.4573 2.06007ZM62.4608 5.49939C62.5703 5.49164 62.6827 5.51698 62.785 5.5761C62.8716 5.6262 62.9433 5.69795 62.9933 5.78481L76.7601 29.6674C76.9174 29.9403 76.8243 30.2893 76.5517 30.447C76.465 30.4971 76.3668 30.5237 76.2667 30.5237H48.7351C48.4203 30.5237 48.1651 30.2681 48.1651 29.9528C48.1651 29.8526 48.19 29.754 48.2399 29.6674L62.0067 5.78481C62.105 5.6142 62.2783 5.51231 62.4608 5.49939Z"/>
</g>
</g>
</g>
</g>
<defs>
<linearGradient id="ufo-paint0_linear" x1="36" y1="13.9609" x2="36" y2="18.4609" gradientUnits="userSpaceOnUse">
<stop stop-color="#0000FF"/>
<stop offset="1" stop-color="#0000FF" stop-opacity="0"/>
</linearGradient>
<linearGradient id="ufo-paint1_linear" x1="35.4816" y1="11" x2="35.4816" y2="24.9844" gradientUnits="userSpaceOnUse">
<stop stop-color="#848484"/>
<stop offset="0.519337" stop-color="white"/>
<stop offset="1" stop-color="#848484"/>
</linearGradient>
</defs>
</svg>
