<svg width="200" height="140" viewBox="0 0 200 140" fill="none" xmlns="http://www.w3.org/2000/svg">
<g filter="url(#filter0_i)">
<rect width="200" height="140" rx="20" fill="#D6EAC2"/>
<rect x="14.0435" y="18.9324" width="169.976" height="103.132" rx="11" fill="black"/>


<g transform="translate(121,38)">
<text fill="#FF9500" xml:space="preserve" style="white-space: pre" font-family="Antonio" font-size="14" font-weight="bold" letter-spacing="0em">% НКПР</text>
</g>

<g transform="translate(121,63)">
<text fill="#FF9500" xml:space="preserve" style="white-space: pre" font-family="Antonio" font-size="14" font-weight="bold" letter-spacing="0em">% НКПР</text>
</g>

<g transform="translate(121,88)">
<text fill="#FF9500" xml:space="preserve" style="white-space: pre" font-family="Antonio" font-size="14" font-weight="bold" letter-spacing="0em">% НКПР</text>
</g>

<g transform="translate(140,113)">
<text fill="#FF9500" xml:space="preserve" style="white-space: pre" font-family="Antonio" font-size="14" font-weight="bold" letter-spacing="0em">мг/м3</text>
</g>








<path d="M23.7266 30.6641C23.7266 29.8828 23.791 29.3086 23.9199 28.9414C24.0488 28.5742 24.1895 28.3047 24.3418 28.1328C24.6738 27.7578 25.1582 27.5684 25.7949 27.5645C26.6855 27.5684 27.2598 27.9609 27.5176 28.7422C27.666 29.1914 27.7402 29.7891 27.7402 30.5352V31.6777H26.5508V30.5293C26.5508 29.8691 26.5137 29.4238 26.4395 29.1934C26.3691 28.959 26.2832 28.8047 26.1816 28.7305C26.0801 28.6523 25.9512 28.6133 25.7949 28.6133C25.4707 28.6133 25.2461 28.7676 25.1211 29.0762C25 29.3809 24.9395 29.8633 24.9395 30.5234V34.9883C24.9395 35.7695 24.9941 36.3164 25.1035 36.6289C25.2168 36.9375 25.4316 37.0918 25.748 37.0918C26.0684 37.0918 26.2812 36.9355 26.3867 36.623C26.4961 36.3105 26.5508 35.7637 26.5508 34.9824V33.8398H27.752V34.9707C27.752 36.0527 27.6035 36.8496 27.3066 37.3613C27.0137 37.8691 26.5 38.123 25.7656 38.123C25.0312 38.123 24.5078 37.8613 24.1953 37.3379C23.8828 36.8105 23.7266 36.0176 23.7266 34.959V30.6641ZM32.0879 27.6875H33.3008V38H32.0879V33.002H30.4355V38H29.2227V27.6875H30.4355V32.0117H32.0879V27.6875ZM36.2847 30.2612H37.2207V35.8203H37.8579V36.541H37.2207V38.0044H36.3945V36.541H34.5664V35.9038L36.2847 30.2612ZM36.3945 35.8203V31.7949L35.3135 35.8203H36.3945Z" fill="#BEBEBE"/>
<g class="fault" reference="CH4" transform="translate(100,39)">
<text fill="#4CD964" xml:space="preserve" style="white-space: pre" font-family="Antonio" font-size="12" font-weight="bold" letter-spacing="0em">...</text>
</g>
<g class="fault" reference="C3H8" transform="translate(100,64)">
<text fill="#4CD964" xml:space="preserve" style="white-space: pre" font-family="Antonio" font-size="12" font-weight="bold" letter-spacing="0em">...</text>
</g>
<g class="fault" reference="H2" transform="translate(100,89)">
<text fill="#4CD964" xml:space="preserve" style="white-space: pre" font-family="Antonio" font-size="12" font-weight="bold" letter-spacing="0em">...</text>
</g>
<g class="fault" reference="CO" transform="translate(100,114)">
<text fill="#4CD964" xml:space="preserve" style="white-space: pre" font-family="Antonio" font-size="12" font-weight="bold" letter-spacing="0em">...</text>
</g>
<path d="M23.7266 55.6641C23.7266 54.8828 23.791 54.3086 23.9199 53.9414C24.0488 53.5742 24.1895 53.3047 24.3418 53.1328C24.6738 52.7578 25.1582 52.5684 25.7949 52.5645C26.6855 52.5684 27.2598 52.9609 27.5176 53.7422C27.666 54.1914 27.7402 54.7891 27.7402 55.5352V56.6777H26.5508V55.5293C26.5508 54.8691 26.5137 54.4238 26.4395 54.1934C26.3691 53.959 26.2832 53.8047 26.1816 53.7305C26.0801 53.6523 25.9512 53.6133 25.7949 53.6133C25.4707 53.6133 25.2461 53.7676 25.1211 54.0762C25 54.3809 24.9395 54.8633 24.9395 55.5234V59.9883C24.9395 60.7695 24.9941 61.3164 25.1035 61.6289C25.2168 61.9375 25.4316 62.0918 25.748 62.0918C26.0684 62.0918 26.2812 61.9355 26.3867 61.623C26.4961 61.3105 26.5508 60.7637 26.5508 59.9824V58.8398H27.752V59.9707C27.752 61.0527 27.6035 61.8496 27.3066 62.3613C27.0137 62.8691 26.5 63.123 25.7656 63.123C25.0312 63.123 24.5078 62.8613 24.1953 62.3379C23.8828 61.8105 23.7266 61.0176 23.7266 59.959V55.6641ZM31.1211 58.9263C31.6543 59.1694 31.9209 59.8169 31.9209 60.8687C31.9209 61.6216 31.7964 62.1797 31.5474 62.543C31.2983 62.9062 30.9028 63.0879 30.3608 63.0879C29.8188 63.0879 29.4365 62.9136 29.2139 62.5649C28.9912 62.2163 28.8799 61.667 28.8799 60.917V60.5742H29.7588V60.9302C29.7588 61.478 29.7954 61.8472 29.8687 62.0376C29.9448 62.2251 30.1104 62.3188 30.3652 62.3188C30.623 62.3188 30.7959 62.2104 30.8838 61.9937C30.9746 61.7769 31.02 61.3887 31.02 60.8291C31.02 60.2666 30.9585 59.8726 30.8354 59.647C30.7153 59.4185 30.5 59.3042 30.1895 59.3042H29.939V58.5791H30.1807C30.3975 58.5791 30.5615 58.5439 30.6729 58.4736C30.8984 58.333 31.0112 57.9185 31.0112 57.23C31.0112 57.2212 31.0112 57.2124 31.0112 57.2036C31.0112 56.6909 30.9541 56.354 30.8398 56.1929C30.7256 56.0317 30.5674 55.9512 30.3652 55.9512C30.166 55.9512 30.0195 56.0435 29.9258 56.228C29.835 56.4097 29.7896 56.7393 29.7896 57.2168V57.4014H28.8975V57.2036C28.8975 56.5093 29.0103 55.998 29.2358 55.6699C29.4614 55.3418 29.8394 55.1777 30.3696 55.1777C30.8999 55.1777 31.2881 55.3462 31.5342 55.6831C31.7803 56.0171 31.9033 56.5239 31.9033 57.2036C31.9033 58.1587 31.6426 58.7329 31.1211 58.9263ZM36.0781 52.6875H37.291V63H36.0781V58.002H34.4258V63H33.2129V52.6875H34.4258V57.0117H36.0781V52.6875ZM38.6445 57.0938C38.6445 56.4141 38.7573 55.9248 38.9829 55.626C39.2085 55.3271 39.5879 55.1777 40.1211 55.1777C40.6572 55.1777 41.0352 55.3271 41.2549 55.626C41.4775 55.9219 41.5889 56.4111 41.5889 57.0938C41.5889 57.9727 41.3794 58.5557 40.9604 58.8428C41.1538 58.9863 41.3091 59.2471 41.4263 59.625C41.5435 60 41.6021 60.4014 41.6021 60.8291V61.1367C41.5903 61.8193 41.4688 62.3159 41.2373 62.6265C41.0059 62.9341 40.6323 63.0879 40.1167 63.0879C39.6011 63.0879 39.2217 62.9341 38.9785 62.6265C38.7354 62.3188 38.6064 61.8325 38.5918 61.1675C38.5889 61.1323 38.5874 60.9595 38.5874 60.6489C38.5874 60.3354 38.6475 59.9927 38.7676 59.6206C38.8877 59.2485 39.0503 58.9937 39.2554 58.856C38.8481 58.5659 38.6445 57.9785 38.6445 57.0938ZM40.6968 60.772C40.6968 60.2505 40.6455 59.8594 40.543 59.5986C40.4434 59.3379 40.3027 59.2075 40.1211 59.2075C39.9424 59.2075 39.793 59.3423 39.6729 59.6118C39.5557 59.8784 39.4971 60.2695 39.4971 60.7852V61.0884C39.5 61.5601 39.5425 61.8838 39.6245 62.0596C39.7065 62.2354 39.8574 62.3232 40.0771 62.3232C40.2969 62.3232 40.4478 62.272 40.5298 62.1694C40.6118 62.064 40.6602 61.9058 40.6748 61.6948C40.6895 61.481 40.6968 61.2715 40.6968 61.0664V60.772ZM40.4067 58.4648C40.4858 58.3916 40.5518 58.2451 40.6045 58.0254C40.6572 57.8027 40.6836 57.5303 40.6836 57.208C40.6836 56.8828 40.6719 56.6382 40.6484 56.4741C40.6279 56.3071 40.5913 56.1826 40.5386 56.1006C40.4858 56.0186 40.4287 55.9658 40.3672 55.9424C40.3057 55.9189 40.2134 55.9072 40.0903 55.9072C39.9702 55.9072 39.8721 55.9336 39.7959 55.9863C39.6318 56.1064 39.5498 56.5093 39.5498 57.1948C39.5498 57.8774 39.6377 58.3008 39.8135 58.4648C39.8896 58.5381 39.9878 58.5747 40.1079 58.5747C40.228 58.5747 40.3276 58.5381 40.4067 58.4648Z" fill="#BEBEBE"/>
<path d="M26.709 77.6875H27.9219V88H26.709V83.002H25.0566V88H23.8438V77.6875H25.0566V82.0117H26.709V77.6875ZM29.4775 82.8452C29.4775 81.6382 29.6035 80.8955 29.8555 80.6172C29.9521 80.5117 30.0503 80.4268 30.1499 80.3623C30.3403 80.2393 30.6069 80.1777 30.9497 80.1777C31.7964 80.1777 32.2197 80.8911 32.2197 82.3179C32.2197 83.0269 32.0366 83.7271 31.6704 84.4185C31.5093 84.7173 31.3467 85.0103 31.1826 85.2974C30.7695 86.0122 30.5117 86.686 30.4092 87.3188H32.1011V88H29.5303V87.5693C29.5303 86.9863 29.8232 86.1265 30.4092 84.9897C30.4121 84.9868 30.5073 84.8037 30.6948 84.4404C30.8823 84.0771 30.9951 83.8691 31.0332 83.8164C31.1299 83.6377 31.2075 83.3989 31.2661 83.1001C31.3276 82.8013 31.3584 82.498 31.3584 82.1904C31.3584 81.8828 31.3364 81.6309 31.2925 81.4346C31.2485 81.2383 31.1943 81.1094 31.1299 81.0479C31.0654 80.9834 30.9878 80.9512 30.897 80.9512C30.8091 80.9512 30.7373 80.9688 30.6816 81.0039C30.4707 81.1328 30.3652 81.5693 30.3652 82.3135V83.3198H29.4775V82.8452Z" fill="#BEBEBE"/>
<path d="M23.7266 105.664C23.7266 104.883 23.791 104.309 23.9199 103.941C24.0488 103.574 24.1895 103.305 24.3418 103.133C24.6738 102.758 25.1582 102.568 25.7949 102.564C26.6855 102.568 27.2598 102.961 27.5176 103.742C27.666 104.191 27.7402 104.789 27.7402 105.535V106.678H26.5508V105.529C26.5508 104.869 26.5137 104.424 26.4395 104.193C26.3691 103.959 26.2832 103.805 26.1816 103.73C26.0801 103.652 25.9512 103.613 25.7949 103.613C25.4707 103.613 25.2461 103.768 25.1211 104.076C25 104.381 24.9395 104.863 24.9395 105.523V109.988C24.9395 110.77 24.9941 111.316 25.1035 111.629C25.2168 111.938 25.4316 112.092 25.748 112.092C26.0684 112.092 26.2812 111.936 26.3867 111.623C26.4961 111.311 26.5508 110.764 26.5508 109.982V108.84H27.752V109.971C27.752 111.053 27.6035 111.85 27.3066 112.361C27.0137 112.869 26.5 113.123 25.7656 113.123C25.0312 113.123 24.5078 112.861 24.1953 112.338C23.8828 111.811 23.7266 111.018 23.7266 109.959V105.664ZM29.1055 105.488C29.1055 104.316 29.3164 103.512 29.7383 103.074C30.0703 102.73 30.5527 102.559 31.1855 102.559C32.1074 102.559 32.6973 102.938 32.9551 103.695C33.1074 104.145 33.1836 104.742 33.1836 105.488V110.035C33.1836 111.109 33.0332 111.893 32.7324 112.385C32.4316 112.873 31.9043 113.117 31.1504 113.117C30.4004 113.117 29.8711 112.871 29.5625 112.379C29.2578 111.887 29.1055 111.105 29.1055 110.035V105.488ZM31.9707 105.418C31.9707 104.758 31.918 104.291 31.8125 104.018C31.707 103.74 31.4941 103.602 31.1738 103.602C30.8535 103.602 30.6309 103.742 30.5059 104.023C30.3809 104.305 30.3184 104.768 30.3184 105.412V110.047C30.3184 110.832 30.373 111.367 30.4824 111.652C30.5918 111.934 30.8125 112.074 31.1445 112.074C31.4766 112.074 31.6973 111.932 31.8066 111.646C31.916 111.357 31.9707 110.824 31.9707 110.047V105.418Z" fill="#BEBEBE"/>
<path d="M51.373 38H50.7988V34.1992H50.7749L49.2026 37.9658H48.6831L47.1108 34.1992H47.0869V38H46.5127V33.0679H47.2271L48.9292 37.1831H48.9565L50.6587 33.0679H51.373V38ZM53.7314 34.8999C53.4557 34.8999 53.2267 34.9956 53.0444 35.187C52.8644 35.3761 52.7653 35.62 52.7471 35.9185H54.6782C54.6714 35.6177 54.5814 35.3727 54.4082 35.1836C54.235 34.9945 54.0094 34.8999 53.7314 34.8999ZM54.6646 36.9814H55.249C55.1966 37.2959 55.0326 37.5545 54.7568 37.7573C54.4834 37.9601 54.1541 38.0615 53.769 38.0615C53.2609 38.0615 52.861 37.8975 52.5693 37.5693C52.2777 37.2412 52.1318 36.7969 52.1318 36.2363C52.1318 35.6803 52.2777 35.2326 52.5693 34.8931C52.8633 34.5535 53.2541 34.3838 53.7417 34.3838C54.2202 34.3838 54.5985 34.5444 54.8765 34.8657C55.1545 35.187 55.2935 35.6177 55.2935 36.1577V36.3833H52.7437V36.4175C52.7437 36.7593 52.8371 37.0327 53.0239 37.2378C53.2108 37.4429 53.4637 37.5454 53.7827 37.5454C54.006 37.5454 54.1963 37.4941 54.3535 37.3916C54.5107 37.2891 54.6144 37.1523 54.6646 36.9814ZM58.4175 34.4453V34.9341H57.269V38H56.6812V34.9341H55.5327V34.4453H58.4175ZM60.0068 37.5557C60.2871 37.5557 60.5218 37.4691 60.7109 37.2959C60.9023 37.1204 60.998 36.9051 60.998 36.6499V36.3594L60.0479 36.4175C59.8086 36.4334 59.6229 36.4915 59.4907 36.5918C59.3608 36.6921 59.2959 36.8265 59.2959 36.9951C59.2959 37.1637 59.3608 37.2993 59.4907 37.4019C59.6206 37.5044 59.7926 37.5557 60.0068 37.5557ZM59.8735 38.0615C59.5203 38.0615 59.2344 37.9635 59.0156 37.7676C58.7992 37.5716 58.6909 37.3141 58.6909 36.9951C58.6909 36.6898 58.8026 36.446 59.0259 36.2637C59.2515 36.0814 59.5693 35.9788 59.9795 35.9561L60.998 35.8979V35.6006C60.998 35.3841 60.9297 35.2144 60.793 35.0913C60.6562 34.9683 60.4648 34.9067 60.2188 34.9067C59.9932 34.9067 59.8097 34.9569 59.6685 35.0571C59.5272 35.1551 59.4372 35.293 59.3984 35.4707H58.8242C58.8447 35.154 58.9814 34.8942 59.2344 34.6914C59.4896 34.4863 59.8223 34.3838 60.2324 34.3838C60.6494 34.3838 60.9798 34.4886 61.2236 34.6982C61.4697 34.9079 61.5928 35.1893 61.5928 35.5425V38H61.0288V37.3882H61.0151C60.908 37.591 60.7508 37.7539 60.5435 37.877C60.3361 38 60.1128 38.0615 59.8735 38.0615ZM64.7544 38V36.4004H63.001V38H62.4131V34.4453H63.001V35.9116H64.7544V34.4453H65.3423V38H64.7544Z" fill="#BEBEBE"/>
<path d="M50.3784 63H49.77V58.6284H47.1313V63H46.5127V58.0679H50.3784V63ZM53.041 59.3838C53.4967 59.3838 53.8636 59.5513 54.1416 59.8862C54.4219 60.2212 54.562 60.6667 54.562 61.2227C54.562 61.7764 54.423 62.2218 54.145 62.5591C53.867 62.894 53.5036 63.0615 53.0547 63.0615C52.804 63.0615 52.5796 63.0046 52.3813 62.8906C52.1831 62.7767 52.0304 62.6206 51.9233 62.4224H51.9097V64.186H51.3149V59.4453H51.8789V60.0469H51.8926C52.0042 59.8418 52.1603 59.68 52.3608 59.5615C52.5614 59.443 52.7881 59.3838 53.041 59.3838ZM52.9248 62.5386C53.2415 62.5386 53.4922 62.4201 53.6768 62.1831C53.8613 61.9461 53.9536 61.626 53.9536 61.2227C53.9536 60.8193 53.8613 60.4992 53.6768 60.2622C53.4922 60.0252 53.2415 59.9067 52.9248 59.9067C52.6195 59.9067 52.3734 60.0275 52.1865 60.269C51.9997 60.5106 51.9062 60.8285 51.9062 61.2227C51.9062 61.6191 51.9997 61.9382 52.1865 62.1797C52.3734 62.4189 52.6195 62.5386 52.9248 62.5386ZM56.6982 63.0615C56.2015 63.0615 55.8027 62.8963 55.502 62.5659C55.2012 62.2332 55.0508 61.7855 55.0508 61.2227C55.0508 60.6598 55.2012 60.2132 55.502 59.8828C55.8027 59.5501 56.2015 59.3838 56.6982 59.3838C57.1927 59.3838 57.5903 59.5501 57.8911 59.8828C58.1919 60.2132 58.3423 60.6598 58.3423 61.2227C58.3423 61.7832 58.1919 62.2298 57.8911 62.5625C57.5903 62.8952 57.1927 63.0615 56.6982 63.0615ZM55.936 62.1899C56.1252 62.4224 56.3792 62.5386 56.6982 62.5386C57.0173 62.5386 57.2702 62.4235 57.457 62.1934C57.6439 61.9609 57.7373 61.6374 57.7373 61.2227C57.7373 60.8079 57.6439 60.4855 57.457 60.2554C57.2702 60.0229 57.0173 59.9067 56.6982 59.9067C56.3792 59.9067 56.1252 60.0229 55.936 60.2554C55.7492 60.4878 55.6558 60.8102 55.6558 61.2227C55.6558 61.6351 55.7492 61.9575 55.936 62.1899ZM61.3091 63V59.9341H59.5898V63H59.002V59.4453H61.9004V63H61.3091ZM63.9102 62.5557C64.1904 62.5557 64.4251 62.4691 64.6143 62.2959C64.8057 62.1204 64.9014 61.9051 64.9014 61.6499V61.3594L63.9512 61.4175C63.7119 61.4334 63.5262 61.4915 63.394 61.5918C63.2642 61.6921 63.1992 61.8265 63.1992 61.9951C63.1992 62.1637 63.2642 62.2993 63.394 62.4019C63.5239 62.5044 63.696 62.5557 63.9102 62.5557ZM63.7769 63.0615C63.4237 63.0615 63.1377 62.9635 62.9189 62.7676C62.7025 62.5716 62.5942 62.3141 62.5942 61.9951C62.5942 61.6898 62.7059 61.446 62.9292 61.2637C63.1548 61.0814 63.4727 60.9788 63.8828 60.9561L64.9014 60.8979V60.6006C64.9014 60.3841 64.833 60.2144 64.6963 60.0913C64.5596 59.9683 64.3682 59.9067 64.1221 59.9067C63.8965 59.9067 63.7131 59.9569 63.5718 60.0571C63.4305 60.1551 63.3405 60.293 63.3018 60.4707H62.7275C62.748 60.154 62.8848 59.8942 63.1377 59.6914C63.3929 59.4863 63.7256 59.3838 64.1357 59.3838C64.5527 59.3838 64.8831 59.4886 65.127 59.6982C65.373 59.9079 65.4961 60.1893 65.4961 60.5425V63H64.9321V62.3882H64.9185C64.8114 62.591 64.6541 62.7539 64.4468 62.877C64.2394 63 64.0161 63.0615 63.7769 63.0615ZM68.6577 63V61.4004H66.9043V63H66.3164V59.4453H66.9043V60.9116H68.6577V59.4453H69.2456V63H68.6577Z" fill="#BEBEBE"/>
<path d="M48.3755 88H46.5127V83.0679H48.3823C48.8039 83.0679 49.1445 83.1807 49.4043 83.4062C49.6663 83.6318 49.7974 83.9292 49.7974 84.2983C49.7974 84.5558 49.7142 84.7894 49.5479 84.999C49.3838 85.2064 49.1833 85.3317 48.9463 85.375V85.4023C49.2812 85.4456 49.5479 85.5767 49.7461 85.7954C49.9466 86.0142 50.0469 86.2876 50.0469 86.6157C50.0469 87.0509 49.8988 87.3905 49.6025 87.6343C49.3086 87.8781 48.8996 88 48.3755 88ZM47.1279 83.6113V85.1938H48.0508C48.4154 85.1938 48.6934 85.1232 48.8848 84.9819C49.0785 84.8407 49.1753 84.6367 49.1753 84.3701C49.1753 84.1263 49.0944 83.9395 48.9326 83.8096C48.7708 83.6774 48.5407 83.6113 48.2422 83.6113H47.1279ZM47.1279 87.4565H48.2832C48.6546 87.4565 48.936 87.3825 49.1274 87.2344C49.3188 87.0863 49.4146 86.8698 49.4146 86.585C49.4146 86.0107 49.0181 85.7236 48.2251 85.7236H47.1279V87.4565ZM52.1934 88.0615C51.6966 88.0615 51.2979 87.8963 50.9971 87.5659C50.6963 87.2332 50.5459 86.7855 50.5459 86.2227C50.5459 85.6598 50.6963 85.2132 50.9971 84.8828C51.2979 84.5501 51.6966 84.3838 52.1934 84.3838C52.6878 84.3838 53.0854 84.5501 53.3862 84.8828C53.687 85.2132 53.8374 85.6598 53.8374 86.2227C53.8374 86.7832 53.687 87.2298 53.3862 87.5625C53.0854 87.8952 52.6878 88.0615 52.1934 88.0615ZM51.4312 87.1899C51.6203 87.4224 51.8743 87.5386 52.1934 87.5386C52.5124 87.5386 52.7653 87.4235 52.9521 87.1934C53.139 86.9609 53.2324 86.6374 53.2324 86.2227C53.2324 85.8079 53.139 85.4855 52.9521 85.2554C52.7653 85.0229 52.5124 84.9067 52.1934 84.9067C51.8743 84.9067 51.6203 85.0229 51.4312 85.2554C51.2443 85.4878 51.1509 85.8102 51.1509 86.2227C51.1509 86.6351 51.2443 86.9575 51.4312 87.1899ZM56.7871 87.5112V84.9341H55.4541L55.3447 86.4312C55.3105 86.9188 55.2137 87.2697 55.0542 87.4839V87.5112H56.7871ZM54.6304 88.9399H54.0767V87.5112H54.374C54.6133 87.354 54.7534 86.9894 54.7944 86.4175L54.9312 84.4453H57.3784V87.5112H57.9424V88.9399H57.3887V88H54.6304V88.9399ZM59.9521 88.0615C59.4554 88.0615 59.0566 87.8963 58.7559 87.5659C58.4551 87.2332 58.3047 86.7855 58.3047 86.2227C58.3047 85.6598 58.4551 85.2132 58.7559 84.8828C59.0566 84.5501 59.4554 84.3838 59.9521 84.3838C60.4466 84.3838 60.8442 84.5501 61.145 84.8828C61.4458 85.2132 61.5962 85.6598 61.5962 86.2227C61.5962 86.7832 61.4458 87.2298 61.145 87.5625C60.8442 87.8952 60.4466 88.0615 59.9521 88.0615ZM59.1899 87.1899C59.3791 87.4224 59.6331 87.5386 59.9521 87.5386C60.2712 87.5386 60.5241 87.4235 60.7109 87.1934C60.8978 86.9609 60.9912 86.6374 60.9912 86.2227C60.9912 85.8079 60.8978 85.4855 60.7109 85.2554C60.5241 85.0229 60.2712 84.9067 59.9521 84.9067C59.6331 84.9067 59.3791 85.0229 59.1899 85.2554C59.0031 85.4878 58.9097 85.8102 58.9097 86.2227C58.9097 86.6351 59.0031 86.9575 59.1899 87.1899ZM63.9854 84.3838C64.4411 84.3838 64.8079 84.5513 65.0859 84.8862C65.3662 85.2212 65.5063 85.6667 65.5063 86.2227C65.5063 86.7764 65.3674 87.2218 65.0894 87.5591C64.8114 87.894 64.4479 88.0615 63.999 88.0615C63.7484 88.0615 63.5239 88.0046 63.3257 87.8906C63.1274 87.7767 62.9748 87.6206 62.8677 87.4224H62.854V89.186H62.2593V84.4453H62.8232V85.0469H62.8369C62.9486 84.8418 63.1047 84.68 63.3052 84.5615C63.5057 84.443 63.7324 84.3838 63.9854 84.3838ZM63.8691 87.5386C64.1859 87.5386 64.4365 87.4201 64.6211 87.1831C64.8057 86.9461 64.8979 86.626 64.8979 86.2227C64.8979 85.8193 64.8057 85.4992 64.6211 85.2622C64.4365 85.0252 64.1859 84.9067 63.8691 84.9067C63.5638 84.9067 63.3177 85.0275 63.1309 85.269C62.944 85.5106 62.8506 85.8285 62.8506 86.2227C62.8506 86.6191 62.944 86.9382 63.1309 87.1797C63.3177 87.4189 63.5638 87.5386 63.8691 87.5386ZM67.6426 88.0615C67.1458 88.0615 66.7471 87.8963 66.4463 87.5659C66.1455 87.2332 65.9951 86.7855 65.9951 86.2227C65.9951 85.6598 66.1455 85.2132 66.4463 84.8828C66.7471 84.5501 67.1458 84.3838 67.6426 84.3838C68.137 84.3838 68.5347 84.5501 68.8354 84.8828C69.1362 85.2132 69.2866 85.6598 69.2866 86.2227C69.2866 86.7832 69.1362 87.2298 68.8354 87.5625C68.5347 87.8952 68.137 88.0615 67.6426 88.0615ZM66.8804 87.1899C67.0695 87.4224 67.3236 87.5386 67.6426 87.5386C67.9616 87.5386 68.2145 87.4235 68.4014 87.1934C68.5882 86.9609 68.6816 86.6374 68.6816 86.2227C68.6816 85.8079 68.5882 85.4855 68.4014 85.2554C68.2145 85.0229 67.9616 84.9067 67.6426 84.9067C67.3236 84.9067 67.0695 85.0229 66.8804 85.2554C66.6935 85.4878 66.6001 85.8102 66.6001 86.2227C66.6001 86.6351 66.6935 86.9575 66.8804 87.1899ZM72.2363 87.5112V84.9341H70.9033L70.7939 86.4312C70.7598 86.9188 70.6629 87.2697 70.5034 87.4839V87.5112H72.2363ZM70.0796 88.9399H69.5259V87.5112H69.8232C70.0625 87.354 70.2026 86.9894 70.2437 86.4175L70.3804 84.4453H72.8276V87.5112H73.3916V88.9399H72.8379V88H70.0796V88.9399Z" fill="#BEBEBE"/>
<path d="M46.998 113.034C46.875 113.034 46.7839 113.019 46.7246 112.99V112.436C46.7975 112.454 46.8887 112.463 46.998 112.463C47.1826 112.463 47.3387 112.422 47.4663 112.34C47.5939 112.258 47.7067 112.127 47.8047 111.947L46.1196 108.068H46.7759L48.0986 111.264H48.1533L49.4453 108.068H50.0845L48.5737 111.588C48.339 112.135 48.1077 112.514 47.8799 112.723C47.6543 112.931 47.3604 113.034 46.998 113.034ZM52.6685 109.934H50.9697V113H50.3818V109.445H52.6685V109.934ZM54.3193 112.556C54.5996 112.556 54.8343 112.469 55.0234 112.296C55.2148 112.12 55.3105 111.905 55.3105 111.65V111.359L54.3604 111.417C54.1211 111.433 53.9354 111.492 53.8032 111.592C53.6733 111.692 53.6084 111.826 53.6084 111.995C53.6084 112.164 53.6733 112.299 53.8032 112.402C53.9331 112.504 54.1051 112.556 54.3193 112.556ZM54.186 113.062C53.8328 113.062 53.5469 112.964 53.3281 112.768C53.1117 112.572 53.0034 112.314 53.0034 111.995C53.0034 111.69 53.1151 111.446 53.3384 111.264C53.564 111.081 53.8818 110.979 54.292 110.956L55.3105 110.898V110.601C55.3105 110.384 55.2422 110.214 55.1055 110.091C54.9688 109.968 54.7773 109.907 54.5312 109.907C54.3057 109.907 54.1222 109.957 53.981 110.057C53.8397 110.155 53.7497 110.293 53.7109 110.471H53.1367C53.1572 110.154 53.2939 109.894 53.5469 109.691C53.8021 109.486 54.1348 109.384 54.5449 109.384C54.9619 109.384 55.2923 109.489 55.5361 109.698C55.7822 109.908 55.9053 110.189 55.9053 110.542V113H55.3413V112.388H55.3276C55.2205 112.591 55.0633 112.754 54.856 112.877C54.6486 113 54.4253 113.062 54.186 113.062ZM58.4551 109.384C58.9108 109.384 59.2777 109.551 59.5557 109.886C59.8359 110.221 59.9761 110.667 59.9761 111.223C59.9761 111.776 59.8371 112.222 59.5591 112.559C59.2811 112.894 58.9176 113.062 58.4688 113.062C58.2181 113.062 57.9937 113.005 57.7954 112.891C57.5972 112.777 57.4445 112.621 57.3374 112.422H57.3237V114.186H56.729V109.445H57.293V110.047H57.3066C57.4183 109.842 57.5744 109.68 57.7749 109.562C57.9754 109.443 58.2021 109.384 58.4551 109.384ZM58.3389 112.539C58.6556 112.539 58.9062 112.42 59.0908 112.183C59.2754 111.946 59.3677 111.626 59.3677 111.223C59.3677 110.819 59.2754 110.499 59.0908 110.262C58.9062 110.025 58.6556 109.907 58.3389 109.907C58.0335 109.907 57.7874 110.028 57.6006 110.269C57.4137 110.511 57.3203 110.828 57.3203 111.223C57.3203 111.619 57.4137 111.938 57.6006 112.18C57.7874 112.419 58.0335 112.539 58.3389 112.539ZM61.1792 112.921C61.104 112.997 61.0117 113.034 60.9023 113.034C60.793 113.034 60.7007 112.997 60.6255 112.921C60.5503 112.846 60.5127 112.754 60.5127 112.645C60.5127 112.535 60.5503 112.443 60.6255 112.368C60.7007 112.292 60.793 112.255 60.9023 112.255C61.0117 112.255 61.104 112.292 61.1792 112.368C61.2544 112.443 61.292 112.535 61.292 112.645C61.292 112.754 61.2544 112.846 61.1792 112.921ZM64.4946 109.934H62.7959V113H62.208V109.445H64.4946V109.934ZM66.1455 112.556C66.4258 112.556 66.6605 112.469 66.8496 112.296C67.041 112.12 67.1367 111.905 67.1367 111.65V111.359L66.1865 111.417C65.9473 111.433 65.7616 111.492 65.6294 111.592C65.4995 111.692 65.4346 111.826 65.4346 111.995C65.4346 112.164 65.4995 112.299 65.6294 112.402C65.7593 112.504 65.9313 112.556 66.1455 112.556ZM66.0122 113.062C65.659 113.062 65.373 112.964 65.1543 112.768C64.9378 112.572 64.8296 112.314 64.8296 111.995C64.8296 111.69 64.9412 111.446 65.1646 111.264C65.3901 111.081 65.708 110.979 66.1182 110.956L67.1367 110.898V110.601C67.1367 110.384 67.0684 110.214 66.9316 110.091C66.7949 109.968 66.6035 109.907 66.3574 109.907C66.1318 109.907 65.9484 109.957 65.8071 110.057C65.6659 110.155 65.5758 110.293 65.5371 110.471H64.9629C64.9834 110.154 65.1201 109.894 65.373 109.691C65.6283 109.486 65.9609 109.384 66.3711 109.384C66.7881 109.384 67.1185 109.489 67.3623 109.698C67.6084 109.908 67.7314 110.189 67.7314 110.542V113H67.1675V112.388H67.1538C67.0467 112.591 66.8895 112.754 66.6821 112.877C66.4748 113 66.2515 113.062 66.0122 113.062ZM69.7378 113.062C69.3459 113.062 69.0212 112.973 68.7637 112.795C68.5062 112.615 68.3626 112.376 68.333 112.077H68.9346C68.9688 112.232 69.0553 112.353 69.1943 112.439C69.3356 112.526 69.5168 112.569 69.7378 112.569C69.9907 112.569 70.1878 112.516 70.3291 112.409C70.4704 112.299 70.541 112.156 70.541 111.978C70.541 111.78 70.4749 111.634 70.3428 111.541C70.2106 111.445 70.009 111.397 69.7378 111.397H69.2046V110.912H69.7378C70.1935 110.912 70.4214 110.738 70.4214 110.392C70.4214 110.237 70.3644 110.113 70.2505 110.02C70.1388 109.926 69.9725 109.879 69.7515 109.879C69.5418 109.879 69.3687 109.922 69.2319 110.006C69.0952 110.09 69.0143 110.203 68.9893 110.344H68.4116C68.4504 110.05 68.5894 109.817 68.8286 109.644C69.0679 109.47 69.3755 109.384 69.7515 109.384C70.1479 109.384 70.4556 109.472 70.6743 109.647C70.8931 109.82 71.0024 110.053 71.0024 110.344C71.0024 110.527 70.9478 110.689 70.8384 110.833C70.7313 110.977 70.59 111.069 70.4146 111.11V111.137C70.6447 111.187 70.8201 111.284 70.9409 111.428C71.064 111.569 71.1255 111.743 71.1255 111.951C71.1255 112.283 70.9979 112.552 70.7427 112.757C70.4897 112.96 70.1548 113.062 69.7378 113.062Z" fill="#BEBEBE"/>
<path d="M59.9697 13H58.9092V4.54492H63.9248V5.50586H59.9697V13ZM65.7529 12.2383C66.2334 12.2383 66.6357 12.0898 66.96 11.793C67.2881 11.4922 67.4522 11.123 67.4522 10.6855V10.1875L65.8232 10.2871C65.4131 10.3145 65.0947 10.4141 64.8682 10.5859C64.6455 10.7578 64.5342 10.9883 64.5342 11.2773C64.5342 11.5664 64.6455 11.7988 64.8682 11.9746C65.0908 12.1504 65.3857 12.2383 65.7529 12.2383ZM65.5244 13.1055C64.919 13.1055 64.4287 12.9375 64.0537 12.6016C63.6826 12.2656 63.4971 11.8242 63.4971 11.2773C63.4971 10.7539 63.6885 10.3359 64.0713 10.0234C64.458 9.71094 65.0029 9.53516 65.7061 9.49609L67.4522 9.39648V8.88672C67.4522 8.51562 67.335 8.22461 67.1006 8.01367C66.8662 7.80273 66.5381 7.69727 66.1162 7.69727C65.7295 7.69727 65.415 7.7832 65.1729 7.95508C64.9307 8.12305 64.7764 8.35938 64.71 8.66406H63.7256C63.7607 8.12109 63.9951 7.67578 64.4287 7.32812C64.8662 6.97656 65.4365 6.80078 66.1397 6.80078C66.8545 6.80078 67.4209 6.98047 67.8389 7.33984C68.2607 7.69922 68.4717 8.18164 68.4717 8.78711V13H67.5049V11.9512H67.4815C67.2979 12.2988 67.0283 12.5781 66.6729 12.7891C66.3174 13 65.9346 13.1055 65.5244 13.1055ZM71.9111 13.1055C71.2393 13.1055 70.6826 12.9531 70.2412 12.6484C69.7998 12.3398 69.5537 11.9297 69.5029 11.418H70.5342C70.5928 11.6836 70.7412 11.8906 70.9795 12.0391C71.2217 12.1875 71.5322 12.2617 71.9111 12.2617C72.3447 12.2617 72.6826 12.1699 72.9248 11.9863C73.167 11.7988 73.2881 11.5527 73.2881 11.248C73.2881 10.9082 73.1748 10.6582 72.9482 10.498C72.7217 10.334 72.376 10.252 71.9111 10.252H70.9971V9.41992H71.9111C72.6924 9.41992 73.083 9.12305 73.083 8.5293C73.083 8.26367 72.9854 8.05078 72.79 7.89062C72.5986 7.73047 72.3135 7.65039 71.9346 7.65039C71.5752 7.65039 71.2783 7.72266 71.044 7.86719C70.8096 8.01172 70.6709 8.20508 70.6279 8.44727H69.6377C69.7041 7.94336 69.9424 7.54297 70.3525 7.24609C70.7627 6.94922 71.29 6.80078 71.9346 6.80078C72.6143 6.80078 73.1416 6.95117 73.5166 7.25195C73.8916 7.54883 74.0791 7.94727 74.0791 8.44727C74.0791 8.75977 73.9854 9.03906 73.7979 9.28516C73.6143 9.53125 73.3721 9.68945 73.0713 9.75977V9.80664C73.4658 9.89258 73.7666 10.0586 73.9736 10.3047C74.1846 10.5469 74.29 10.8457 74.29 11.2012C74.29 11.7715 74.0713 12.2324 73.6338 12.584C73.2002 12.9316 72.626 13.1055 71.9111 13.1055ZM77.9873 13.1055C77.1357 13.1055 76.4522 12.8223 75.9365 12.2559C75.4209 11.6855 75.1631 10.918 75.1631 9.95312C75.1631 8.98828 75.4209 8.22266 75.9365 7.65625C76.4522 7.08594 77.1357 6.80078 77.9873 6.80078C78.835 6.80078 79.5166 7.08594 80.0322 7.65625C80.5479 8.22266 80.8057 8.98828 80.8057 9.95312C80.8057 10.9141 80.5479 11.6797 80.0322 12.25C79.5166 12.8203 78.835 13.1055 77.9873 13.1055ZM76.6807 11.6113C77.0049 12.0098 77.4404 12.209 77.9873 12.209C78.5342 12.209 78.9678 12.0117 79.2881 11.6172C79.6084 11.2188 79.7686 10.6641 79.7686 9.95312C79.7686 9.24219 79.6084 8.68945 79.2881 8.29492C78.9678 7.89648 78.5342 7.69727 77.9873 7.69727C77.4404 7.69727 77.0049 7.89648 76.6807 8.29492C76.3604 8.69336 76.2002 9.24609 76.2002 9.95312C76.2002 10.6602 76.3604 11.2129 76.6807 11.6113ZM83.9522 12.2383C84.4326 12.2383 84.835 12.0898 85.1592 11.793C85.4873 11.4922 85.6514 11.123 85.6514 10.6855V10.1875L84.0225 10.2871C83.6123 10.3145 83.294 10.4141 83.0674 10.5859C82.8447 10.7578 82.7334 10.9883 82.7334 11.2773C82.7334 11.5664 82.8447 11.7988 83.0674 11.9746C83.29 12.1504 83.585 12.2383 83.9522 12.2383ZM83.7236 13.1055C83.1182 13.1055 82.6279 12.9375 82.2529 12.6016C81.8818 12.2656 81.6963 11.8242 81.6963 11.2773C81.6963 10.7539 81.8877 10.3359 82.2705 10.0234C82.6572 9.71094 83.2022 9.53516 83.9053 9.49609L85.6514 9.39648V8.88672C85.6514 8.51562 85.5342 8.22461 85.2998 8.01367C85.0654 7.80273 84.7373 7.69727 84.3154 7.69727C83.9287 7.69727 83.6143 7.7832 83.3721 7.95508C83.1299 8.12305 82.9756 8.35938 82.9092 8.66406H81.9248C81.96 8.12109 82.1943 7.67578 82.6279 7.32812C83.0654 6.97656 83.6357 6.80078 84.3389 6.80078C85.0537 6.80078 85.6201 6.98047 86.0381 7.33984C86.46 7.69922 86.6709 8.18164 86.6709 8.78711V13H85.7041V11.9512H85.6807C85.4971 12.2988 85.2275 12.5781 84.8721 12.7891C84.5166 13 84.1338 13.1055 83.7236 13.1055ZM92.0908 13V10.2578H89.085V13H88.0772V6.90625H89.085V9.41992H92.0908V6.90625H93.0986V13H92.0908ZM96.5498 12.2383C97.0303 12.2383 97.4326 12.0898 97.7568 11.793C98.085 11.4922 98.249 11.123 98.249 10.6855V10.1875L96.6201 10.2871C96.21 10.3145 95.8916 10.4141 95.665 10.5859C95.4424 10.7578 95.3311 10.9883 95.3311 11.2773C95.3311 11.5664 95.4424 11.7988 95.665 11.9746C95.8877 12.1504 96.1826 12.2383 96.5498 12.2383ZM96.3213 13.1055C95.7158 13.1055 95.2256 12.9375 94.8506 12.6016C94.4795 12.2656 94.294 11.8242 94.294 11.2773C94.294 10.7539 94.4854 10.3359 94.8682 10.0234C95.2549 9.71094 95.7998 9.53516 96.5029 9.49609L98.249 9.39648V8.88672C98.249 8.51562 98.1318 8.22461 97.8975 8.01367C97.6631 7.80273 97.335 7.69727 96.9131 7.69727C96.5264 7.69727 96.2119 7.7832 95.9697 7.95508C95.7275 8.12305 95.5732 8.35938 95.5068 8.66406H94.5225C94.5576 8.12109 94.792 7.67578 95.2256 7.32812C95.6631 6.97656 96.2334 6.80078 96.9365 6.80078C97.6514 6.80078 98.2178 6.98047 98.6357 7.33984C99.0576 7.69922 99.2686 8.18164 99.2686 8.78711V13H98.3018V11.9512H98.2783C98.0947 12.2988 97.8252 12.5781 97.4697 12.7891C97.1143 13 96.7315 13.1055 96.3213 13.1055ZM102.304 10.3105C102.276 10.6621 102.237 10.9727 102.187 11.2422C102.14 11.5117 102.071 11.7637 101.981 11.998C101.892 12.2324 101.78 12.4258 101.647 12.5781C101.519 12.7266 101.356 12.8438 101.161 12.9297C100.97 13.0117 100.747 13.0527 100.493 13.0527C100.353 13.0527 100.231 13.0312 100.13 12.9883V12.0684C100.224 12.0996 100.327 12.1152 100.44 12.1152C100.726 12.1152 100.938 11.9609 101.079 11.6523C101.22 11.3398 101.31 10.8848 101.349 10.2871L101.583 6.90625H105.573V13H104.565V7.74414H102.491L102.304 10.3105ZM108.022 13H107.015V6.90625H108.022V11.4414H108.069L111.116 6.90625H112.124V13H111.116V8.46484H111.069L108.022 13ZM115.587 13.1055C114.915 13.1055 114.358 12.9531 113.917 12.6484C113.476 12.3398 113.229 11.9297 113.179 11.418H114.21C114.269 11.6836 114.417 11.8906 114.655 12.0391C114.897 12.1875 115.208 12.2617 115.587 12.2617C116.021 12.2617 116.358 12.1699 116.601 11.9863C116.843 11.7988 116.964 11.5527 116.964 11.248C116.964 10.9082 116.851 10.6582 116.624 10.498C116.397 10.334 116.052 10.252 115.587 10.252H114.673V9.41992H115.587C116.368 9.41992 116.759 9.12305 116.759 8.5293C116.759 8.26367 116.661 8.05078 116.466 7.89062C116.274 7.73047 115.989 7.65039 115.61 7.65039C115.251 7.65039 114.954 7.72266 114.72 7.86719C114.485 8.01172 114.347 8.20508 114.304 8.44727H113.313C113.38 7.94336 113.618 7.54297 114.028 7.24609C114.438 6.94922 114.966 6.80078 115.61 6.80078C116.29 6.80078 116.817 6.95117 117.192 7.25195C117.567 7.54883 117.755 7.94727 117.755 8.44727C117.755 8.75977 117.661 9.03906 117.474 9.28516C117.29 9.53125 117.048 9.68945 116.747 9.75977V9.80664C117.142 9.89258 117.442 10.0586 117.649 10.3047C117.86 10.5469 117.966 10.8457 117.966 11.2012C117.966 11.7715 117.747 12.2324 117.31 12.584C116.876 12.9316 116.302 13.1055 115.587 13.1055ZM121.147 12.2383C121.628 12.2383 122.03 12.0898 122.354 11.793C122.683 11.4922 122.847 11.123 122.847 10.6855V10.1875L121.218 10.2871C120.808 10.3145 120.489 10.4141 120.263 10.5859C120.04 10.7578 119.929 10.9883 119.929 11.2773C119.929 11.5664 120.04 11.7988 120.263 11.9746C120.485 12.1504 120.78 12.2383 121.147 12.2383ZM120.919 13.1055C120.313 13.1055 119.823 12.9375 119.448 12.6016C119.077 12.2656 118.892 11.8242 118.892 11.2773C118.892 10.7539 119.083 10.3359 119.466 10.0234C119.853 9.71094 120.397 9.53516 121.101 9.49609L122.847 9.39648V8.88672C122.847 8.51562 122.729 8.22461 122.495 8.01367C122.261 7.80273 121.933 7.69727 121.511 7.69727C121.124 7.69727 120.81 7.7832 120.567 7.95508C120.325 8.12305 120.171 8.35938 120.104 8.66406H119.12C119.155 8.12109 119.39 7.67578 119.823 7.32812C120.261 6.97656 120.831 6.80078 121.534 6.80078C122.249 6.80078 122.815 6.98047 123.233 7.33984C123.655 7.69922 123.866 8.18164 123.866 8.78711V13H122.899V11.9512H122.876C122.692 12.2988 122.423 12.5781 122.067 12.7891C121.712 13 121.329 13.1055 120.919 13.1055ZM129.614 6.90625V7.74414H127.646V13H126.638V7.74414H124.669V6.90625H129.614ZM132.972 13.1055C132.12 13.1055 131.437 12.8223 130.921 12.2559C130.405 11.6855 130.147 10.918 130.147 9.95312C130.147 8.98828 130.405 8.22266 130.921 7.65625C131.437 7.08594 132.12 6.80078 132.972 6.80078C133.819 6.80078 134.501 7.08594 135.017 7.65625C135.532 8.22266 135.79 8.98828 135.79 9.95312C135.79 10.9141 135.532 11.6797 135.017 12.25C134.501 12.8203 133.819 13.1055 132.972 13.1055ZM131.665 11.6113C131.989 12.0098 132.425 12.209 132.972 12.209C133.519 12.209 133.952 12.0117 134.272 11.6172C134.593 11.2188 134.753 10.6641 134.753 9.95312C134.753 9.24219 134.593 8.68945 134.272 8.29492C133.952 7.89648 133.519 7.69727 132.972 7.69727C132.425 7.69727 131.989 7.89648 131.665 8.29492C131.345 8.69336 131.185 9.24609 131.185 9.95312C131.185 10.6602 131.345 11.2129 131.665 11.6113ZM139.886 6.80078C140.667 6.80078 141.296 7.08789 141.772 7.66211C142.253 8.23633 142.493 9 142.493 9.95312C142.493 10.9023 142.255 11.666 141.778 12.2441C141.302 12.8184 140.679 13.1055 139.909 13.1055C139.479 13.1055 139.095 13.0078 138.755 12.8125C138.415 12.6172 138.153 12.3496 137.97 12.0098H137.946V15.0332H136.927V6.90625H137.894V7.9375H137.917C138.108 7.58594 138.376 7.30859 138.72 7.10547C139.063 6.90234 139.452 6.80078 139.886 6.80078ZM139.687 12.209C140.229 12.209 140.659 12.0059 140.976 11.5996C141.292 11.1934 141.45 10.6445 141.45 9.95312C141.45 9.26172 141.292 8.71289 140.976 8.30664C140.659 7.90039 140.229 7.69727 139.687 7.69727C139.163 7.69727 138.741 7.9043 138.421 8.31836C138.101 8.73242 137.94 9.27734 137.94 9.95312C137.94 10.6328 138.101 11.1797 138.421 11.5938C138.741 12.0039 139.163 12.209 139.687 12.209Z" fill="#5F6263"/>
</g>
<defs>
<filter id="filter0_i" x="0" y="0" width="204" height="144" filterUnits="userSpaceOnUse" color-interpolation-filters="sRGB">
<feFlood flood-opacity="0" result="BackgroundImageFix"/>
<feBlend mode="normal" in="SourceGraphic" in2="BackgroundImageFix" result="shape"/>
<feColorMatrix in="SourceAlpha" type="matrix" values="0 0 0 0 0 0 0 0 0 0 0 0 0 0 0 0 0 0 127 0" result="hardAlpha"/>
<feOffset dx="4" dy="4"/>
<feGaussianBlur stdDeviation="2"/>
<feComposite in2="hardAlpha" operator="arithmetic" k2="-1" k3="1"/>
<feColorMatrix type="matrix" values="0 0 0 0 0.782736 0 0 0 0 0.804167 0 0 0 0 0.72174 0 0 0 1 0"/>
<feBlend mode="normal" in2="shape" result="effect1_innerShadow"/>
</filter>
</defs>
</svg>
