<svg width="148" height="225" viewBox="0 0 148 225" fill="none" xmlns="http://www.w3.org/2000/svg">
<g id="cwt-lvl">
<g>
<g class="fault inactive" reference="level-1">
<g>
<path id="Ellipse 2" d="M108.253 182.434C103.94 188.798 102.154 195.912 105.048 199.22C107.942 202.528 113.308 199.506 117.622 193.142C121.329 181.02 124.997 178.52 121.662 174.708C118.768 171.401 117.2 176.301 108.253 182.434Z"/>
<path id="Rectangle" d="M132.721 141.451L132.176 141.162C131.137 155.184 128.671 162.533 121.441 174.831L121.986 175.12C129.099 162.808 131.73 155.521 132.721 141.451Z" fill="#C4C4C4"/>
</g>
	<g class="animation-display">
<path id="Vector" d="M10 169.491C69.0959 169.491 69.0959 169.491 131.569 169.491V213H10V169.491Z" fill="#2D9CDB" fill-opacity="0.3"/>
</g>
</g>
<g class="fault inactive" reference="level-2">
<g>
<path id="Ellipse 2_2" d="M108.255 125.872C103.941 132.236 102.156 139.35 105.05 142.658C107.944 145.966 113.31 142.944 117.624 136.581C121.331 124.459 124.999 121.958 121.664 118.147C118.77 114.839 117.202 119.74 108.255 125.872Z"/>
<path id="Rectangle_3" d="M132.723 84.8895L132.178 84.6002C131.139 98.6221 128.673 105.971 121.443 118.27L121.988 118.559C129.101 106.246 131.731 98.9597 132.723 84.8895Z" fill="#C4C4C4"/>
</g>
<g class="animation-display">
<path id="Vector_2" d="M10 112.93C69.518 112.93 69.518 112.93 131.569 112.93V169.491H10V112.93Z" fill="#2D9CDB" fill-opacity="0.3"/>
</g>
</g>
<g class="fault inactive" reference="level-3">
<g>
<path id="Ellipse 2_3" d="M108.255 69.3109C103.941 75.6746 102.156 82.7888 105.05 86.0966C107.944 89.4045 113.31 86.3828 117.624 80.0191C121.331 67.8973 124.999 65.3968 121.664 61.5854C118.77 58.2776 117.202 63.1784 108.255 69.3109Z"/>
<path id="Rectangle_5" d="M132.723 28.328L132.178 28.0387C131.139 42.0606 128.673 49.4099 121.443 61.7081L121.988 61.9974C129.101 49.6846 131.731 42.3982 132.723 28.328Z" fill="#C4C4C4"/>
</g>
<g class="animation-display">
<path id="Vector_3" d="M10 45.491C58.9652 61.2631 83.8699 30.8071 131.569 45.491V112.93H10V45.491Z" fill="#2D9CDB" fill-opacity="0.3"/>
</g>
</g>
</g>
<g id="Group 3.6">
<g id="Group 7.4">
<path id="Subtract" fill-rule="evenodd" clip-rule="evenodd" d="M10 0C4.47715 0 0 4.47716 0 10L0 214.033C0 219.556 4.47715 224.033 10 224.033H133C138.523 224.033 143 219.556 143 214.033V10C143 4.47715 138.523 0 133 0L10 0ZM21.9178 10.6785C16.395 10.6785 11.9178 15.1556 11.9178 20.6785V203.499C11.9178 209.022 16.395 213.499 21.9178 213.499H121.085C126.607 213.499 131.085 209.022 131.085 203.499V20.6785C131.085 15.1556 126.607 10.6785 121.085 10.6785L21.9178 10.6785Z" fill="#C4C4C4"/>
</g>
</g>
</g>
</svg>
