<svg width="143" height="44" viewBox="0 0 143 44" fill="none" xmlns="http://www.w3.org/2000/svg">
	<g class="fault inactive" reference="ALARM-ITP">
	<g  class="animation-fail">
<rect x="0.0541992" width="142.945" height="43.4483" fill="#FF0000"/>
<rect x="9" y="6" width="125" height="31" fill="white"/>
<path d="M15.3906 22.5508V20.4854H17.0693C17.7021 20.4854 18.2148 20.3242 18.6074 20.002C19.0059 19.6797 19.2051 19.2578 19.2051 18.7363C19.2051 18.2148 19.0176 17.8047 18.6426 17.5059C18.2676 17.207 17.7549 17.0576 17.1045 17.0576C16.4482 17.0576 15.918 17.2217 15.5137 17.5498C15.1094 17.8779 14.8896 18.3203 14.8545 18.877H12.4023C12.4434 17.6816 12.8916 16.7354 13.7471 16.0381C14.6084 15.3408 15.751 14.9922 17.1748 14.9922C18.5342 14.9922 19.6328 15.3115 20.4707 15.9502C21.3145 16.583 21.7363 17.4092 21.7363 18.4287C21.7363 19.1436 21.5166 19.7676 21.0771 20.3008C20.6377 20.834 20.0605 21.1768 19.3457 21.3291V21.3994C20.2012 21.4932 20.8809 21.8213 21.3848 22.3838C21.8887 22.9404 22.1406 23.6436 22.1406 24.4932C22.1406 25.6064 21.666 26.5234 20.7168 27.2441C19.7734 27.9648 18.5723 28.3252 17.1133 28.3252C15.6602 28.3252 14.4795 27.9678 13.5713 27.2529C12.6631 26.5322 12.1797 25.5801 12.1211 24.3965H14.6611C14.7021 24.9414 14.9453 25.375 15.3906 25.6973C15.8359 26.0195 16.4189 26.1807 17.1396 26.1807C17.8193 26.1807 18.3672 26.0107 18.7832 25.6709C19.2051 25.3252 19.416 24.874 19.416 24.3174C19.416 23.7666 19.2109 23.3359 18.8008 23.0254C18.3906 22.709 17.8223 22.5508 17.0957 22.5508H15.3906ZM32.002 28L31.0352 24.9238H26.5791L25.6123 28H22.8877L27.291 15.3174H30.4111L34.8232 28H32.002ZM28.7764 17.7432L27.1504 22.9375H30.4639L28.8379 17.7432H28.7764ZM40.5801 28H37.9258V17.5059H34.2607V15.3174H44.2539V17.5059H40.5801V28ZM46.3896 16.8643C47.4912 15.6865 48.9824 15.0977 50.8633 15.0977C52.7441 15.0977 54.2324 15.6865 55.3281 16.8643C56.4297 18.042 56.9805 19.6416 56.9805 21.6631C56.9805 23.6787 56.4297 25.2754 55.3281 26.4531C54.2266 27.6309 52.7383 28.2197 50.8633 28.2197C48.9824 28.2197 47.4912 27.6309 46.3896 26.4531C45.2939 25.2754 44.7461 23.6787 44.7461 21.6631C44.7461 19.6416 45.2939 18.042 46.3896 16.8643ZM53.3418 18.4902C52.7266 17.7051 51.9004 17.3125 50.8633 17.3125C49.8262 17.3125 48.9971 17.7051 48.376 18.4902C47.7607 19.2754 47.4531 20.333 47.4531 21.6631C47.4531 22.9873 47.7607 24.042 48.376 24.8271C48.9912 25.6064 49.8203 25.9961 50.8633 25.9961C51.9004 25.9961 52.7266 25.6064 53.3418 24.8271C53.957 24.042 54.2646 22.9873 54.2646 21.6631C54.2646 20.333 53.957 19.2754 53.3418 18.4902ZM69.7598 28H67.1143V17.5146H61.5332V28H58.8701V15.3174H69.7598V28ZM82.6797 28H80.0254V17.5059H76.3252L76.0176 22.9902C75.9238 24.6895 75.5811 25.9697 74.9893 26.8311C74.4033 27.6865 73.4951 28.1143 72.2646 28.1143C71.8604 28.1143 71.541 28.0732 71.3066 27.9912V25.6709C71.5234 25.7178 71.7197 25.7412 71.8955 25.7412C72.4639 25.7412 72.8711 25.5039 73.1172 25.0293C73.3691 24.5547 73.5215 23.8164 73.5742 22.8145L73.9521 15.3174H82.6797V28ZM93.376 25.8027V28H84.9736V15.3174H93.376V17.5059H87.6279V20.5645H93.0508V22.6035H87.6279V25.8027H93.376ZM106.507 28H103.853V22.6562H98.1396V28H95.4854V15.3174H98.1396V20.4678H103.853V15.3174H106.507V28ZM117.212 28V19.4219H117.106L111.35 28H108.792V15.3174H111.438V23.9043H111.543L117.3 15.3174H119.857V28H117.212ZM130.554 25.8027V28H122.151V15.3174H130.554V17.5059H124.806V20.5645H130.229V22.6035H124.806V25.8027H130.554Z" fill="#FF0000"/>
</g>
</g>
</svg>
