<svg width="202" height="272" viewBox="0 0 202 272" fill="none" xmlns="http://www.w3.org/2000/svg">
<g id="lvl-los-cle">
<g id="Subtract">
<mask id="path-1-inside-1" fill="white">
<path fill-rule="evenodd" clip-rule="evenodd" d="M153.3 5.49319L145.511 5.49316V16.9781H69.9949V5.49329H62.5122V26.9644H38.5684V5.49329H31.0861V16.9781H17.6318V222.707H199.206V16.9781H184.726V5.49329L177.244 5.49327V26.9644H153.3V5.49319ZM191.001 27H26.001V213H191.001V27Z"/>
</mask>
<path fill-rule="evenodd" clip-rule="evenodd" d="M153.3 5.49319L145.511 5.49316V16.9781H69.9949V5.49329H62.5122V26.9644H38.5684V5.49329H31.0861V16.9781H17.6318V222.707H199.206V16.9781H184.726V5.49329L177.244 5.49327V26.9644H153.3V5.49319ZM191.001 27H26.001V213H191.001V27Z" fill="#828282"/>
<path d="M153.3 5.49319H155.3V3.4932L153.3 3.49319V5.49319ZM145.511 5.49316L145.511 3.49316L143.511 3.49316V5.49316H145.511ZM145.511 16.9781V18.9781H147.511V16.9781H145.511ZM69.9949 16.9781H67.9949V18.9781H69.9949V16.9781ZM69.9949 5.49329H71.9949V3.49329H69.9949V5.49329ZM62.5122 5.49329V3.49329H60.5122V5.49329H62.5122ZM62.5122 26.9644V28.9644H64.5122V26.9644H62.5122ZM38.5684 26.9644H36.5684V28.9644H38.5684V26.9644ZM38.5684 5.49329H40.5684V3.49329H38.5684V5.49329ZM31.0861 5.49329V3.49329H29.0861V5.49329H31.0861ZM31.0861 16.9781V18.9781H33.0861V16.9781H31.0861ZM17.6318 16.9781V14.9781H15.6318V16.9781H17.6318ZM17.6318 222.707H15.6318V224.707H17.6318V222.707ZM199.206 222.707V224.707H201.206V222.707H199.206ZM199.206 16.9781H201.206V14.9781H199.206V16.9781ZM184.726 16.9781H182.726V18.9781H184.726V16.9781ZM184.726 5.49329H186.726V3.4933L184.726 3.49329V5.49329ZM177.244 5.49327V3.49327L175.244 3.49326V5.49327H177.244ZM177.244 26.9644V28.9644H179.244V26.9644H177.244ZM153.3 26.9644H151.3V28.9644H153.3V26.9644ZM26.001 27V25H24.001V27H26.001ZM191.001 27H193.001V25H191.001V27ZM26.001 213H24.001V215H26.001V213ZM191.001 213V215H193.001V213H191.001ZM153.3 3.49319L145.511 3.49316L145.511 7.49316L153.3 7.49319V3.49319ZM143.511 5.49316V16.9781H147.511V5.49316H143.511ZM145.511 14.9781H69.9949V18.9781H145.511V14.9781ZM71.9949 16.9781V5.49329H67.9949V16.9781H71.9949ZM69.9949 3.49329H62.5122V7.49329H69.9949V3.49329ZM60.5122 5.49329V26.9644H64.5122V5.49329H60.5122ZM62.5122 24.9644H38.5684V28.9644H62.5122V24.9644ZM40.5684 26.9644V5.49329H36.5684V26.9644H40.5684ZM38.5684 3.49329H31.0861V7.49329H38.5684V3.49329ZM29.0861 5.49329V16.9781H33.0861V5.49329H29.0861ZM31.0861 14.9781H17.6318V18.9781H31.0861V14.9781ZM15.6318 16.9781V222.707H19.6318V16.9781H15.6318ZM17.6318 224.707H199.206V220.707H17.6318V224.707ZM201.206 222.707V16.9781H197.206V222.707H201.206ZM199.206 14.9781H184.726V18.9781H199.206V14.9781ZM186.726 16.9781V5.49329H182.726V16.9781H186.726ZM184.726 3.49329L177.244 3.49327V7.49327L184.726 7.49329V3.49329ZM175.244 5.49327V26.9644H179.244V5.49327H175.244ZM177.244 24.9644H153.3V28.9644H177.244V24.9644ZM155.3 26.9644V5.49319H151.3V26.9644H155.3ZM26.001 29H191.001V25H26.001V29ZM28.001 213V27H24.001V213H28.001ZM191.001 211H26.001V215H191.001V211ZM189.001 27V213H193.001V27H189.001Z" fill="#BDBDBD" mask="url(#path-1-inside-1)"/>
</g>
<rect id="Rectangle" x="-0.5" y="0.5" width="44.8924" height="4.99209" rx="0.5" transform="matrix(-1 0 0 1 72.4873 0)" fill="url(#los-paint0_linear)" stroke="#BEBEBE"/>
<rect id="Rectangle_2" x="-0.5" y="0.5" width="44.8924" height="4.99209" rx="0.5" transform="matrix(-1 0 0 1 187.218 0)" fill="url(#los-paint1_linear)" stroke="#BEBEBE"/>
<g id="level">
<g class="fault inactive" reference="level-1">
<path id="Ellipse 2" d="M49.5506 191.436C53.8274 196.26 55.598 201.654 52.7285 204.162C49.859 206.669 44.5382 204.378 40.2615 199.554C36.5856 190.364 32.9492 188.469 36.2555 185.579C39.125 183.072 40.6791 186.787 49.5506 191.436Z"/>
<path id="Rectangle_3" d="M25.2894 160.369L25.83 160.15C26.8677 170.774 29.3167 176.344 36.4946 185.666L35.9541 185.885C28.8928 176.552 26.2796 171.03 25.2894 160.369Z" fill="#C4C4C4"/>
<g class="animation-display">
<path id="Vector" d="M26.001 196.001C113.001 196.001 113.001 196.001 191.001 196.001L191.001 213.001L26.001 213.001L26.001 196.001Z" fill="#2D9CDB" fill-opacity="0.3"/>
</g>
</g>
<g class="fault inactive" reference="level-2">
<path id="Ellipse 2_2" d="M49.409 162.86C53.6858 167.684 55.4564 173.078 52.5869 175.585C49.7174 178.093 44.3966 175.802 40.1199 170.978C36.444 161.788 32.8076 159.893 36.1139 157.003C38.9834 154.495 40.5375 158.211 49.409 162.86Z"/>
<path id="Rectangle_4" d="M25.1478 131.792L25.6884 131.574C26.7261 142.198 29.1751 147.768 36.353 157.09L35.8125 157.309C28.7512 147.976 26.138 142.454 25.1478 131.792Z" fill="#C4C4C4"/>
<g class="animation-display">
<path id="Vector_2" d="M26.001 167.001C113.001 167.001 113.001 167.001 191.001 167.001L191.001 196.001L26.001 196.001L26.001 167.001Z" fill="#2D9CDB" fill-opacity="0.3"/>
</g>
</g>
<g class="fault inactive" reference="level-3">
<path id="Ellipse 2_3" d="M49.5506 134.279C53.8274 139.103 55.598 144.497 52.7285 147.004C49.859 149.512 44.5382 147.221 40.2615 142.397C36.5856 133.207 32.9492 131.311 36.2555 128.422C39.125 125.914 40.6791 129.63 49.5506 134.279Z"/>
<path id="Rectangle_5" d="M25.2894 103.21L25.83 102.992C26.8677 113.616 29.3167 119.186 36.4946 128.508L35.9541 128.727C28.8928 119.394 26.2796 113.872 25.2894 103.21Z" fill="#C4C4C4"/>
<g class="animation-display">
<path id="Vector_3" d="M26.001 138.001C113.001 138.001 113.001 138.001 191.001 138.001L191.001 167.001L26.001 167.001L26.001 138.001Z" fill="#2D9CDB" fill-opacity="0.3"/>
</g>
</g>
<g class="fault inactive" reference="level-4">
<path id="Ellipse 2_4" d="M49.5506 105.705C53.8274 110.529 55.598 115.922 52.7285 118.43C49.859 120.938 44.5382 118.647 40.2615 113.823C36.5856 104.633 32.9492 102.737 36.2555 99.8478C39.125 97.3401 40.6791 101.055 49.5506 105.705Z"/>
<path id="Rectangle_6" d="M25.2903 74.6362L25.8309 74.4173C26.8686 85.0418 29.3177 90.6116 36.4956 99.9338L35.955 100.153C28.8938 90.8195 26.2806 85.2973 25.2903 74.6362Z" fill="#C4C4C4"/>
<g class="animation-display">
<path id="Vector_4" d="M26.001 109.001C113.001 109.001 113.001 109.001 191.001 109.001L191.001 138.001L26.001 138.001L26.001 109.001Z" fill="#2D9CDB" fill-opacity="0.3"/>
</g>
</g>
<g class="fault inactive" reference="level-5">
<path id="Ellipse 2_5" d="M49.5496 77.1255C53.8264 81.9498 55.597 87.3433 52.7275 89.851C49.8581 92.3587 44.5373 90.0679 40.2605 85.2435C36.5846 76.0538 32.9482 74.1581 36.2545 71.2687C39.124 68.761 40.6781 72.4764 49.5496 77.1255Z"/>
<path id="Rectangle_7" d="M25.2894 46.0581L25.83 45.8392C26.8677 56.4637 29.3167 62.0335 36.4946 71.3556L35.9541 71.5745C28.8928 62.2414 26.2796 56.7192 25.2894 46.0581Z" fill="#C4C4C4"/>
<g class="animation-display">
<path id="Vector_5" d="M26.001 80.0006C88.501 90.0006 131.501 73.0003 191.001 80.0006L191.001 109.001L26.001 109.001L26.001 80.0006Z" fill="#2D9CDB" fill-opacity="0.3"/>
</g>
</g>
</g>
</g>
<defs>
<linearGradient id="los-paint0_linear" x1="45.8924" y1="2.99605" x2="-2.50745e-06" y2="2.99605" gradientUnits="userSpaceOnUse">
<stop stop-color="#4F4F4F"/>
<stop offset="0.519337" stop-color="#BDBDBD"/>
<stop offset="1" stop-color="#4F4F4F"/>
</linearGradient>
<linearGradient id="los-paint1_linear" x1="45.8924" y1="2.99605" x2="-2.50745e-06" y2="2.99605" gradientUnits="userSpaceOnUse">
<stop stop-color="#4F4F4F"/>
<stop offset="0.519337" stop-color="#BDBDBD"/>
<stop offset="1" stop-color="#4F4F4F"/>
</linearGradient>
</defs>
</svg>
