<svg width="315" height="263" viewBox="0 0 315 263" fill="none" xmlns="http://www.w3.org/2000/svg">
<g id="Gro">
<g class="fault inactive" reference="level-1">
<g id="flag">
<path id="Ellipse 2" d="M62.334 155.241C67.0018 160.501 68.9343 166.381 65.8025 169.116C62.6706 171.85 56.8633 169.352 52.1955 164.092C48.1834 154.072 44.2145 152.005 47.8232 148.855C50.955 146.121 52.6513 150.172 62.334 155.241Z"/>
<path id="Rectangle" d="M35.8531 121.365L36.443 121.126C37.5681 132.716 40.236 138.791 48.0599 148.957L47.4701 149.196C39.7735 139.018 36.9266 132.995 35.8531 121.365Z" fill="#C4C4C4"/>
</g>
<g class="animation-display">
<path id="lvl1_2" d="M36.5322 134.126C196.445 134.126 196.445 134.126 284.532 134.126V174.126H36.5322V134.126Z" fill="#2D9CDB" fill-opacity="0.3"/>
</g>
</g>
<g class="fault inactive" reference="level-2">
<g id="flage">
<path id="Ellipse 2_2" d="M63.334 111.241C68.0018 116.501 69.9343 122.381 66.8025 125.116C63.6706 127.85 57.8633 125.352 53.1955 120.092C49.1834 110.072 45.2145 108.005 48.8232 104.855C51.955 102.121 53.6513 106.172 63.334 111.241Z"/>
<path id="Rectangle_2" d="M36.8531 77.3661L37.443 77.127C38.5681 88.7173 41.236 94.7922 49.0599 104.958L48.4701 105.197C40.7735 95.0193 37.9266 88.9964 36.8531 77.3661Z" fill="#C4C4C4"/>
</g>
<g class="animation-display">
<path id="lvl2_2" d="M37 96.4841C135 119.739 133.999 79.0422 285 96.4841V174H37V96.4841Z" fill="#2D9CDB" fill-opacity="0.3"/>
</g>
</g>
</g>
</svg>
