<svg width="563" height="272" viewBox="0 0 563 272" fill="none" xmlns="http://www.w3.org/2000/svg">
<g>
<g class="fault inactive" reference="LEVEL-2">
<g id="Flage4">
<path id="Elipse-4" d="M34.6134 163.704C38.7653 168.458 40.4842 173.773 37.6985 176.244C34.9128 178.715 29.7473 176.458 25.5954 171.704C22.0268 162.648 18.4965 160.78 21.7063 157.932C24.492 155.461 26.0008 159.122 34.6134 163.704Z" />
<path id="Restangle-4" d="M13.2154 139.222L13.861 138.956C13.3134 147.516 15.1767 151.699 21.7707 158.21L21.1251 158.476C14.6646 151.938 12.6083 147.819 13.2154 139.222Z" fill="#C4C4C4"/>
</g>
<g class="animation-display">
<path id="Vector-4" d="M13.1208 136C215.121 136 367.121 136 562.121 136V204H13.1208V136Z" fill="#2D9CDB" fill-opacity="0.3"/>
</g>
</g>
<g class="fault inactive" reference="LEVEL-3">
<g id="Flag3">
<path id="Elipse-3" d="M34.6134 95.7038C38.7653 100.458 40.4842 105.773 37.6985 108.244C34.9128 110.715 29.7473 108.458 25.5954 103.704C22.0268 94.6478 18.4965 92.7797 21.7063 89.9322C24.492 87.461 26.0008 91.1223 34.6134 95.7038Z" />
<path id="Restangle-3" d="M13.2154 71.2215L13.861 70.9555C13.3134 79.5155 15.1767 83.6991 21.7707 90.2103L21.1251 90.4763C14.6646 83.9375 12.6083 79.8191 13.2154 71.2215Z" fill="#C4C4C4"/>
</g>
<g class="animation-display">
<path id="Vector-3" d="M13.1208 68C215.121 68 367.121 68 562.121 68V136H13.1208V68Z" fill="#2D9CDB" fill-opacity="0.3"/>
</g>
</g>
<g class="fault inactive" reference="LEVEL-1">
<g id="Flage2">
<path id="Elipse-2" d="M34.6134 231.704C38.7653 236.458 40.4842 241.773 37.6985 244.244C34.9128 246.715 29.7473 244.458 25.5954 239.704C22.0268 230.648 18.4965 228.78 21.7063 225.932C24.492 223.461 26.0008 227.122 34.6134 231.704Z" />
<path id="Restangle-2" d="M13.2154 207.222L13.861 206.956C13.3134 215.516 15.1767 219.699 21.7707 226.21L21.1251 226.476C14.6646 219.938 12.6083 215.819 13.2154 207.222Z" fill="#C4C4C4"/>
</g>
<g class="animation-display">
<path id="Vector-2" d="M13.1208 204C215.121 204 367.121 204 562.121 204V272H13.1208V204Z" fill="#2D9CDB" fill-opacity="0.3"/>
</g>
</g>
<g class="fault inactive" reference="LEVEL-4">
<g id="Flage1">
<path id="Elipse-1" d="M34.6134 29.7038C38.7653 34.458 40.4842 39.773 37.6985 42.2442C34.9128 44.7155 29.7473 42.458 25.5954 37.7038C22.0268 28.6478 18.4965 26.7797 21.7063 23.9322C24.492 21.461 26.0008 25.1223 34.6134 29.7038Z" />
<path id="Restangle-1" d="M13.2154 5.2215L13.861 4.95554C13.3134 13.5155 15.1767 17.6991 21.7707 24.2103L21.1251 24.4763C14.6646 17.9375 12.6083 13.8191 13.2154 5.2215Z" fill="#C4C4C4"/>
</g>
<g class="animation-display">
<path id="Vector-1" d="M13.1208 0C215.121 0 367.121 0 562.121 0V68H13.1208V0Z" fill="#2D9CDB" fill-opacity="0.3"/>
</g>
</g>
</g>
</svg>
