<svg width="364" height="359" viewBox="0 0 364 359" fill="none" xmlns="http://www.w3.org/2000/svg">
<g id="lvl-los-ak">
<g id="Subtract">
<mask id="path-1-inside-1" fill="white">
<path fill-rule="evenodd" clip-rule="evenodd" d="M355.966 72.001H24.0029V264.532H355.966V72.001ZM341 86.001H39V251.001H183.023H341V86.001Z"/>
</mask>
<path fill-rule="evenodd" clip-rule="evenodd" d="M355.966 72.001H24.0029V264.532H355.966V72.001ZM341 86.001H39V251.001H183.023H341V86.001Z" fill="#828282"/>
<path d="M24.0029 72.001V70.001H22.0029V72.001H24.0029ZM355.966 72.001H357.966V70.001H355.966V72.001ZM24.0029 264.532H22.0029V266.532H24.0029V264.532ZM355.966 264.532V266.532H357.966V264.532H355.966ZM39 86.001V84.001H37V86.001H39ZM341 86.001H343V84.001H341V86.001ZM39 251.001H37V253.001H39V251.001ZM341 251.001V253.001H343V251.001H341ZM24.0029 74.001H355.966V70.001H24.0029V74.001ZM26.0029 264.532V72.001H22.0029V264.532H26.0029ZM355.966 262.532H24.0029V266.532H355.966V262.532ZM353.966 72.001V264.532H357.966V72.001H353.966ZM39 88.001H341V84.001H39V88.001ZM41 251.001V86.001H37V251.001H41ZM183.023 249.001H39V253.001H183.023V249.001ZM341 249.001H183.023V253.001H341V249.001ZM339 86.001V251.001H343V86.001H339Z" fill="#BDBDBD" mask="url(#path-1-inside-1)"/>
</g>
<g class="fault inactive" reference="level-3">
<path id="Ellipse 2" d="M62.408 115.076C66.6848 119.9 68.4554 125.293 65.5859 127.801C62.7165 130.309 57.3957 128.018 53.1189 123.194C49.443 114.004 45.8066 112.108 49.1129 109.219C51.9824 106.711 53.5365 110.427 62.408 115.076Z"/>
<path id="Rectangle" d="M38.1468 84.0083L38.6874 83.7894C39.7251 94.4139 42.1741 99.9837 49.3521 109.306L48.8115 109.525C41.7502 100.192 39.1371 94.6694 38.1468 84.0083Z" fill="#C4C4C4"/>
<g class="animation-display">
<path id="Vector" d="M39.001 113C149.965 115.155 232.847 113.115 341.001 113L341.001 151L39.001 151L39.001 113Z" fill="#2D9CDB" fill-opacity="0.3"/>
</g>
</g>
<g class="fault inactive" reference="level-2">
<path id="Ellipse 2_2" d="M62.408 147.035C66.6848 151.859 68.4554 157.252 65.5859 159.76C62.7165 162.268 57.3957 159.977 53.1189 155.153C49.443 145.963 45.8066 144.067 49.1129 141.178C51.9824 138.67 53.5365 142.386 62.408 147.035Z"/>
<path id="Rectangle_2" d="M38.1468 115.966L38.6874 115.747C39.7251 126.372 42.1741 131.942 49.3521 141.264L48.8115 141.483C41.7502 132.15 39.1371 126.627 38.1468 115.966Z" fill="#C4C4C4"/>
<g class="animation-display">
<path id="Vector_2" d="M39.002 151.001C191.989 151.001 191.989 151.001 341.002 151.001L341.002 189.001L39.002 189.001L39.002 151.001Z" fill="#2D9CDB" fill-opacity="0.3"/>
</g>
</g>
<g>

<path id="lvl1_3" d="M39 189.001C191.987 189.001 191.987 189.001 341 189.001L341 251.001L39 251.001L39 189.001Z" fill="#2D9CDB" fill-opacity="0.3"/>
</g>
</g>
</svg>
