<svg width="606" height="538" viewBox="0 0 606 538" fill="none" xmlns="http://www.w3.org/2000/svg">
<g id="lvl-kns1">
<g class="fault inactive" reference="level-1">
<path id="Ellipse 2" d="M65.1523 293.553C69.8202 298.813 71.7527 304.694 68.6208 307.428C65.489 310.162 59.6816 307.665 55.0138 302.404C51.0018 292.385 47.0329 290.318 50.6415 287.167C53.7734 284.433 55.4696 288.484 65.1523 293.553Z"/>
<path id="Rectangle" d="M38.6725 259.678L39.2623 259.439C40.3875 271.029 43.0554 277.104 50.8793 287.269L50.2894 287.508C42.5928 277.331 39.7459 271.308 38.6725 259.678Z" fill="#C4C4C4"/>
<g class="animation-display">
<path id="lvl1_2" d="M39 272.001C387.197 272.001 387.197 272.001 579 272.001V346.001H39V272.001Z" fill="#2D9CDB" fill-opacity="0.3"/>
</g>
</g>
<g class="fault inactive" reference="level-2">
<path id="Ellipse 2_2" d="M65.0098 201.974C69.6776 207.234 71.6101 213.115 68.4782 215.849C65.3464 218.583 59.539 216.085 54.8712 210.825C50.8592 200.806 46.8903 198.739 50.4989 195.588C53.6308 192.854 55.3271 196.905 65.0098 201.974Z"/>
<path id="Rectangle_2" d="M38.5299 168.099L39.1197 167.859C40.2449 179.45 42.9128 185.525 50.7367 195.69L50.1469 195.929C42.4503 185.752 39.6033 179.729 38.5299 168.099Z" fill="#C4C4C4"/>
<g class="animation-display">
<path id="lvl2_2" d="M39 197C387.197 197 387.197 197 579 197V272H39V197Z" fill="#2D9CDB" fill-opacity="0.3"/>
</g>
</g>
</g>
</svg>
