<svg width="77" height="110" viewBox="0 0 77 110" fill="none" xmlns="http://www.w3.org/2000/svg">
<g id="Group 3.5">
<g class="fault inactive" reference="level-1">
	<g class="animation-display">
<g id="Group">
<path id="Vector" d="M13 81C34.3111 82.3883 50.2287 81.074 71 81V105.481C71 105.481 65.7273 106 42 106C18.2727 106 13 105.481 13 105.481V81Z" fill="#007AFF" fill-opacity="0.35"/>
</g>
<g>
<path id="Ellipse 2" d="M28.8901 91.9603C31.2331 97.0202 31.3769 101.941 28.4072 103.326C25.4375 104.71 21.6196 101.503 19.2765 96.4431C18.4896 87.898 15.9606 85.4314 19.3824 83.8358C22.352 82.451 22.7261 85.9225 28.8901 91.9603Z" fill="#4CD964"/>
<path id="Rectangle" d="M12.4908 68.8766L12.954 68.6875C12.7969 75.342 14.2738 78.6543 19.2656 83.9136L18.8025 84.1027C13.9071 78.8256 12.2914 75.5587 12.4908 68.8766Z" fill="#C4C4C4"/>
</g>
</g>
</g>
<g class="fault inactive" reference="level-2">
	<g class="animation-display">
<g id="Group_2">
<path id="Vector_2" d="M13 54C34.3111 56.8877 50.2287 54.1539 71 54V104.921C71 104.921 65.7273 106 42 106C18.2727 106 13 104.921 13 104.921V54Z" fill="#007AFF" fill-opacity="0.35"/>
</g>
<g>
<path id="Ellipse 2_2" d="M28.8901 63.9603C31.2331 69.0202 31.3769 73.9408 28.4072 75.3255C25.4375 76.7103 21.6196 73.5031 19.2765 68.4431C18.4896 59.898 15.9606 57.4314 19.3824 55.8358C22.352 54.451 22.7261 57.9225 28.8901 63.9603Z" fill="#4CD964"/>
<path id="Rectangle_2" d="M12.4908 40.8766L12.954 40.6875C12.7969 47.342 14.2738 50.6543 19.2656 55.9136L18.8025 56.1027C13.9071 50.8256 12.2914 47.5587 12.4908 40.8766Z" fill="#C4C4C4"/>
</g>
</g>
</g>
<g class="fault inactive" reference="level-3">
	<g class="animation-display">
<g id="Group_3">
<path id="Vector_3" d="M13 26C34.3111 30.4427 50.2287 26.2368 71 26V104.34C71 104.34 65.7273 106 42 106C18.2727 106 13 104.34 13 104.34V26Z" fill="#007AFF" fill-opacity="0.35"/>
</g>
<g>
<path id="Ellipse 2_3" d="M28.8901 36.9603C31.2331 42.0202 31.3769 46.9408 28.4072 48.3255C25.4375 49.7103 21.6196 46.5031 19.2765 41.4431C18.4896 32.898 15.9606 30.4314 19.3824 28.8358C22.352 27.451 22.7261 30.9225 28.8901 36.9603Z" fill="#4CD964"/>
<path id="Rectangle_3" d="M12.4908 13.8766L12.954 13.6875C12.7969 20.342 14.2738 23.6543 19.2656 28.9136L18.8025 29.1027C13.9071 23.8256 12.2914 20.5587 12.4908 13.8766Z" fill="#C4C4C4"/>
</g>
</g>
</g>
<g id="Group 7.4">
<path id="Subtract" fill-rule="evenodd" clip-rule="evenodd" d="M17 0C11.4772 0 7 4.47715 7 10V100C7 105.523 11.4772 110 17 110H67C72.5229 110 77 105.523 77 100V10C77 4.47715 72.5229 0 67 0L17 0ZM22.8335 5.24278C17.3106 5.24278 12.8335 9.71994 12.8335 15.2428V94.8276C12.8335 100.35 17.3106 104.828 22.8335 104.828H61.1668C66.6897 104.828 71.1668 100.35 71.1668 94.8276V15.2428C71.1668 9.71994 66.6897 5.24278 61.1668 5.24278L22.8335 5.24278Z" fill="#C4C4C4"/>
</g>
</g>
</svg>
