<svg width="274" height="238" viewBox="0 0 274 238" fill="none" xmlns="http://www.w3.org/2000/svg">
<g>
<g class="fault inactive" reference="WATER-LEVEL-L">
<g id="Flage">
<path id="Ellipse 2" d="M61.7972 146.856C65.4757 151.047 67.0052 155.726 64.5485 157.894C62.0917 160.062 57.5225 158.066 53.8441 153.875C50.6725 145.901 47.5491 144.251 50.3799 141.752C52.8367 139.584 54.1773 142.808 61.7972 146.856Z"/>
<path id="Rectangle" d="M40.9224 119.877L41.3856 119.688C42.2909 128.905 44.3988 133.739 50.5669 141.836L50.1037 142.025C44.0357 133.919 41.7871 129.125 40.9224 119.877Z" fill="#C4C4C4"/>
</g>
<g class="animation-display">
<path id="Vector" d="M41 145C115.221 146.055 170.658 145.056 243 145L243 163.606C243 163.606 224.636 164 142 164C59.3636 164 41 163.606 41 163.606L41 145Z" fill="#007AFF" fill-opacity="0.35"/>
</g>
</g>
<g class="fault inactive" reference="WATER-LEVEL-A">
<g id="Flage_2">
<path id="Ellipse 2_2" d="M61.7972 115.857C65.4757 120.048 67.0052 124.727 64.5485 126.895C62.0917 129.063 57.5225 127.067 53.8441 122.876C50.6725 114.902 47.5491 113.252 50.3799 110.753C52.8367 108.585 54.1773 111.809 61.7972 115.857Z"/>
<path id="Rectangle_3" d="M40.9214 88.8766L41.3846 88.6875C42.2899 97.9047 44.3978 102.739 50.5659 110.836L50.1027 111.025C44.0347 102.919 41.7861 98.1254 40.9214 88.8766Z" fill="#C4C4C4"/>
</g>
<g class="animation-display">
<path id="Vector_2" d="M40.999 112C115.22 114.943 170.658 112.157 242.999 112L242.999 163.9C242.999 163.9 224.635 165 141.999 165C59.3627 165 40.999 163.9 40.999 163.9L40.999 112Z" fill="#007AFF" fill-opacity="0.35"/>
</g>
</g>
<g class="fault inactive" reference="WATER-LEVEL-U">
<g id="Flage_3">
<path id="Ellipse 2_3" d="M61.7972 80.8581C65.4757 85.0488 67.0052 89.7277 64.5485 91.8959C62.0917 94.064 57.5225 92.0675 53.8441 87.8769C50.6725 79.9032 47.5491 78.2526 50.3799 75.7544C52.8367 73.5862 54.1773 76.8101 61.7972 80.8581Z"/>
<path id="Rectangle_5" d="M40.9214 53.8776L41.3846 53.6885C42.2899 62.9056 44.3978 67.7404 50.5659 75.8371L50.1027 76.0261C44.0347 67.9202 41.7861 63.1264 40.9214 53.8776Z" fill="#C4C4C4"/>
</g>
<g class="animation-display">
<path id="Vector_3" d="M41 77.001C115.221 81.8879 170.658 77.2615 243 77.001L243 163.175C243 163.175 224.636 165.001 142 165.001C59.3636 165.001 41 163.175 41 163.175L41 77.001Z" fill="#007AFF" fill-opacity="0.35"/>
</g>
</g>
</g>
<g id="Group">
<g id="Subtract">
<mask id="path-10-inside-1" fill="white">
<path fill-rule="evenodd" clip-rule="evenodd" d="M43 40H28V178H257V40H242V163H43V40Z"/>
</mask>
<path fill-rule="evenodd" clip-rule="evenodd" d="M43 40H28V178H257V40H242V163H43V40Z" fill="#828282"/>
<path d="M28 40V38H26V40H28ZM43 40H45V38H43V40ZM28 178H26V180H28V178ZM257 178V180H259V178H257ZM257 40H259V38H257V40ZM242 40V38H240V40H242ZM242 163V165H244V163H242ZM43 163H41V165H43V163ZM28 42H43V38H28V42ZM30 178V40H26V178H30ZM257 176H28V180H257V176ZM255 40V178H259V40H255ZM242 42H257V38H242V42ZM240 40V163H244V40H240ZM242 161H43V165H242V161ZM45 163V40H41V163H45Z" fill="#BDBDBD" mask="url(#path-10-inside-1)"/>
</g>
</g>
</svg>
