<svg width="981" height="226" viewBox="0 0 981 226" fill="none" xmlns="http://www.w3.org/2000/svg">
<g id="ysp-lvl">
<g id="water big">
<g class="fault inactive" reference="level-big-1">
<path id="flage" d="M904.296 146.433C901.074 152.031 896.516 155.427 893.222 153.495C889.928 151.564 890.412 145.779 893.634 140.181C901.192 133.768 901.836 129.71 905.631 131.935C908.925 133.866 905.891 136.523 904.296 146.433Z"/>
<path id="Rectangle" d="M904.135 133.179L903.617 132.908C911.063 125.232 913.731 119.754 916.198 108.235L916.716 108.505C914.165 119.943 911.64 125.515 904.135 133.179Z" fill="#C4C4C4"/>
<g class="animation-display">
<path id="lvl1" d="M908 133C448 133 448 133 191 133V156H908V133Z" fill="#2D9CDB" fill-opacity="0.3"/>
</g>
</g>
<g class="fault inactive" reference="level-big-2">
<path id="flage_2" d="M903.295 116.433C900.073 122.031 895.515 125.427 892.221 123.495C888.927 121.564 889.411 115.779 892.633 110.181C900.191 103.768 900.835 99.7096 904.63 101.935C907.924 103.866 904.89 106.523 903.295 116.433Z"/>
<path id="Rectangle_2" d="M903.134 103.179L902.616 102.908C910.062 95.232 912.73 89.7539 915.197 78.2346L915.715 78.5054C913.164 89.9427 910.639 95.5154 903.134 103.179Z" fill="#C4C4C4"/>
<g class="animation-display">
<path id="lvl2" d="M908 103C446.5 103 446.5 103 191 103V133H908V103Z" fill="#2D9CDB" fill-opacity="0.3"/>
</g>
</g>
<g class="fault inactive" reference="level-big-3">
<path id="flage_3" d="M903.295 85.4332C900.073 91.0307 895.515 94.4266 892.221 92.4953C888.927 90.564 889.411 84.7786 892.633 79.1811C900.191 72.7683 900.835 68.7096 904.63 70.9349C907.924 72.8662 904.89 75.5235 903.295 85.4332Z"/>
<path id="Rectangle_3" d="M903.135 72.1788L902.617 71.9079C909.597 65.1467 911.987 60.2119 913.938 49.7053L914.456 49.9762C912.42 60.4038 910.172 65.4315 903.135 72.1788Z" fill="#C4C4C4"/>
<g class="animation-display">
<path id="lvl3" d="M908.001 71C644.552 72.8147 447.777 71.0967 191.001 71V103H908.001V71Z" fill="#2D9CDB" fill-opacity="0.3"/>
</g>
</g>
</g>
<g id="water klein">
<g class="fault inactive" reference="level-klein-1">
<path id="flag" d="M171.297 146.433C168.075 152.031 163.516 155.427 160.223 153.495C156.929 151.564 157.413 145.779 160.635 140.181C168.193 133.768 168.837 129.71 172.632 131.935C175.926 133.866 172.892 136.523 171.297 146.433Z"/>
<path id="Rectangle_4" d="M171.136 133.179L170.618 132.908C178.064 125.232 180.732 119.754 183.199 108.235L183.717 108.505C181.166 119.943 178.641 125.515 171.136 133.179Z" fill="#C4C4C4"/>
<g class="animation-display">
<path id="lvl1_2" d="M177 133C81 133 81 133 10 133V156H177V133Z" fill="#2D9CDB" fill-opacity="0.3"/>
</g>
</g>
<g class="fault inactive" reference="level-klein-2">
<path id="flage_4" d="M170.296 116.433C167.074 122.031 162.516 125.427 159.222 123.495C155.928 121.564 156.412 115.779 159.634 110.181C167.192 103.768 167.836 99.7096 171.631 101.935C174.925 103.866 171.891 106.523 170.296 116.433Z"/>
<path id="Rectangle_5" d="M170.135 103.179L169.617 102.908C177.063 95.232 179.731 89.7539 182.198 78.2346L182.716 78.5054C180.165 89.9427 177.64 95.5154 170.135 103.179Z" fill="#C4C4C4"/>
<g class="animation-display">
<path id="lvl2_2" d="M176.999 103C90 103 90 103 9.99902 103V133H176.999V103Z" fill="#2D9CDB" fill-opacity="0.3"/>
</g>
</g>
<g class="fault inactive" reference="level-klein-3">
<path id="flage_5" d="M170.296 85.4332C167.074 91.0307 162.516 94.4266 159.222 92.4953C155.928 90.564 156.412 84.7786 159.634 79.1811C167.192 72.7683 167.836 68.7096 171.631 70.9349C174.925 72.8662 171.891 75.5235 170.296 85.4332Z"/>
<path id="Rectangle_6" d="M171.113 71.5012L171.156 70.9183C177.593 74.4793 181.563 74.6187 189.169 72.0603L189.126 72.6432C181.55 75.0912 177.557 75.1207 171.113 71.5012Z" fill="#C4C4C4"/>
<g class="animation-display">
<path id="lvl3_2" d="M177 71C115.639 72.8147 69.8071 71.0967 10 71V103H177V71Z" fill="#2D9CDB" fill-opacity="0.3"/>
</g>
</g>
</g>
<g id="Subtract">
<mask id="path-19-inside-1" fill="white">
<path fill-rule="evenodd" clip-rule="evenodd" d="M981 37H0V169H981V37ZM908 49H11V156H177V70.1981H191V156H908V49ZM967 49H920V156H967V49Z"/>
</mask>
<path fill-rule="evenodd" clip-rule="evenodd" d="M981 37H0V169H981V37ZM908 49H11V156H177V70.1981H191V156H908V49ZM967 49H920V156H967V49Z" fill="#828282"/>
<path d="M0 37V35H-2V37H0ZM981 37H983V35H981V37ZM0 169H-2V171H0V169ZM981 169V171H983V169H981ZM11 49V47H9V49H11ZM908 49H910V47H908V49ZM11 156H9V158H11V156ZM177 156V158H179V156H177ZM177 70.1981V68.1981H175V70.1981H177ZM191 70.1981H193V68.1981H191V70.1981ZM191 156H189V158H191V156ZM908 156V158H910V156H908ZM920 49V47H918V49H920ZM967 49H969V47H967V49ZM920 156H918V158H920V156ZM967 156V158H969V156H967ZM0 39H981V35H0V39ZM2 169V37H-2V169H2ZM981 167H0V171H981V167ZM979 37V169H983V37H979ZM11 51H908V47H11V51ZM13 156V49H9V156H13ZM177 154H11V158H177V154ZM175 70.1981V156H179V70.1981H175ZM191 68.1981H177V72.1981H191V68.1981ZM193 156V70.1981H189V156H193ZM908 154H191V158H908V154ZM906 49V156H910V49H906ZM920 51H967V47H920V51ZM922 156V49H918V156H922ZM967 154H920V158H967V154ZM965 49V156H969V49H965Z" fill="#BDBDBD" mask="url(#path-19-inside-1)"/>
</g>
<g>
<path id="Vector" d="M920 74C937.269 78.6502 950.168 74.2479 967 74V156H920V74Z" fill="#2D9CDB" fill-opacity="0.3"/>
</g>
</g>
</svg>
