<svg width="97" height="86" viewBox="0 0 97 86" fill="none" xmlns="http://www.w3.org/2000/svg">
<g class="fault inactive" reference="ALARM">
	<g class="animation-fail">
		<!--element-->
		<g>
			<path id="path19629" d="M51.9194 1.18441C48.6469 -0.704988 44.4622 0.416272 42.5728 3.68885L1.20689 75.3367C-0.68253 78.6092 0.438724 82.7939 3.71129 84.6833C4.75144 85.2838 5.93133 85.5999 7.13239 85.5999H89.8643C91.0653 85.5999 92.2452 85.2838 93.2854 84.6832C96.5579 82.7938 97.6792 78.6092 95.7898 75.3367L54.4238 3.68885C53.8233 2.6487 52.9596 1.78495 51.9194 1.18441V1.18441Z" fill="white"/>
			<path id="path19631" d="M55.1654 68.2662C55.1656 69.1419 54.9934 70.009 54.6585 70.818C54.3236 71.6271 53.8325 72.3623 53.2134 72.9815C52.5944 73.6008 51.8593 74.092 51.0504 74.4271C50.2414 74.7623 49.3744 74.9348 48.4987 74.9348C47.6231 74.9348 46.756 74.7623 45.947 74.4271C45.1381 74.092 44.4031 73.6008 43.784 72.9815C43.1649 72.3623 42.6739 71.6271 42.339 70.818C42.004 70.009 41.8318 69.1419 41.832 68.2662C41.8318 67.3906 42.004 66.5235 42.339 65.7144C42.6739 64.9054 43.1649 64.1702 43.784 63.551C44.4031 62.9317 45.1381 62.4405 45.947 62.1053C46.756 61.7702 47.6231 61.5977 48.4987 61.5977C49.3744 61.5977 50.2414 61.7702 51.0504 62.1053C51.8593 62.4405 52.5944 62.9317 53.2134 63.551C53.8325 64.1702 54.3236 64.9054 54.6585 65.7144C54.9934 66.5235 55.1656 67.3906 55.1654 68.2662V68.2662Z" fill="black"/>
			<path id="path19633" d="M41.8888 34.4702C41.4083 30.8198 43.9779 27.471 47.6283 26.9904C51.2787 26.5098 54.6275 29.0795 55.1081 32.7299C55.1842 33.3075 55.1842 33.8926 55.1081 34.4702L51.8875 58.9335H45.1095L41.8888 34.4702Z" fill="black"/>
		</g>
		<!--flags-->
		<g>
			<path d="M48.3841 1.78844C46.5871 1.8287 44.8535 2.77891 43.8891 4.44929L2.52239 76.0973C1.05285 78.6426 1.92519 81.8976 4.47052 83.3671C5.27952 83.8342 6.19721 84.0799 7.13137 84.0799H89.8648C90.799 84.0799 91.7167 83.8342 92.5257 83.3671C95.071 81.8976 95.9433 78.6426 94.4738 76.0973L53.1071 4.44929C52.64 3.64029 51.9679 2.96825 51.1589 2.50117C50.284 1.99601 49.3253 1.76735 48.3841 1.78844ZM48.3936 10.9494C48.6857 10.9287 48.9856 10.9962 49.2583 11.1537C49.4895 11.2871 49.6808 11.4782 49.8143 11.7096L86.5435 75.3228C86.9633 76.0497 86.7148 76.9793 85.9876 77.3992C85.7564 77.5327 85.4942 77.6035 85.2273 77.6035H11.7736C10.9339 77.6035 10.2531 76.9228 10.2531 76.0831C10.2531 75.8161 10.3194 75.5536 10.4527 75.3228L47.1819 11.7096C47.4443 11.2552 47.9067 10.9838 48.3936 10.9494Z"/>
		</g>
	</g>
</g>
</svg>
