<svg width="85" height="84" viewBox="0 0 85 84" fill="none" xmlns="http://www.w3.org/2000/svg">
<g class="fault hide" reference="CONTROL-STATUS">
	<g class="animation-hide">
		<path id="OFF" d="M30.4216 36.9766C30.4216 34.6328 30.8435 33.0234 31.6873 32.1484C32.3513 31.4609 33.3162 31.1172 34.5818 31.1172C36.4255 31.1172 37.6052 31.875 38.1208 33.3906C38.4255 34.2891 38.5779 35.4844 38.5779 36.9766V46.0703C38.5779 48.2188 38.2771 49.7852 37.6755 50.7695C37.074 51.7461 36.0193 52.2344 34.5115 52.2344C33.0115 52.2344 31.9529 51.7422 31.3357 50.7578C30.7263 49.7734 30.4216 48.2109 30.4216 46.0703V36.9766ZM36.1521 36.8359C36.1521 35.5156 36.0466 34.582 35.8357 34.0352C35.6248 33.4805 35.199 33.2031 34.5583 33.2031C33.9177 33.2031 33.4724 33.4844 33.2224 34.0469C32.9724 34.6094 32.8474 35.5352 32.8474 36.8242V46.0938C32.8474 47.6641 32.9568 48.7344 33.1755 49.3047C33.3943 49.8672 33.8357 50.1484 34.4998 50.1484C35.1638 50.1484 35.6052 49.8633 35.824 49.293C36.0427 48.7148 36.1521 47.6484 36.1521 46.0938V36.8359ZM41.7068 31.375H47.9177V33.4023H44.1208V39.918H47.6833V41.9688H44.1208V52H41.7068V31.375ZM50.449 31.375H56.6599V33.4023H52.863V39.918H56.4255V41.9688H52.863V52H50.449V31.375Z"/>
	</g>
	<g class="animation-display">
		<path id="ON" d="M33.1849 36.9766C33.1849 34.6328 33.6068 33.0234 34.4505 32.1484C35.1146 31.4609 36.0794 31.1172 37.3451 31.1172C39.1888 31.1172 40.3685 31.875 40.8841 33.3906C41.1888 34.2891 41.3412 35.4844 41.3412 36.9766V46.0703C41.3412 48.2188 41.0404 49.7852 40.4388 50.7695C39.8372 51.7461 38.7826 52.2344 37.2747 52.2344C35.7747 52.2344 34.7162 51.7422 34.099 50.7578C33.4896 49.7734 33.1849 48.2109 33.1849 46.0703V36.9766ZM38.9154 36.8359C38.9154 35.5156 38.8099 34.582 38.599 34.0352C38.388 33.4805 37.9622 33.2031 37.3216 33.2031C36.681 33.2031 36.2357 33.4844 35.9857 34.0469C35.7357 34.6094 35.6107 35.5352 35.6107 36.8242V46.0938C35.6107 47.6641 35.7201 48.7344 35.9388 49.3047C36.1576 49.8672 36.599 50.1484 37.263 50.1484C37.9271 50.1484 38.3685 49.8633 38.5872 49.293C38.806 48.7148 38.9154 47.6484 38.9154 46.0938V36.8359ZM50.8451 31.375H52.9896V52H51.2083L46.5794 37.8438L46.7201 43.0469V52H44.4818V31.375H46.3099L51.0912 45.4141L50.8451 39.4492V31.375Z"/>
	</g>
</g>
</svg>
