<svg width="85" height="85" viewBox="0 0 85 85" fill="none" xmlns="http://www.w3.org/2000/svg">
<g class="click fault hide" reference="CONTROL">
	<!--flags-->
	<g>
		<path d="M42.1553 84.6221C65.3512 84.6221 84.1553 65.818 84.1553 42.6221C84.1553 19.4261 65.3512 0.62207 42.1553 0.62207C18.9593 0.62207 0.155273 19.4261 0.155273 42.6221C0.155273 65.818 18.9593 84.6221 42.1553 84.6221Z"/>
		<path d="M42.1522 79.0486C62.2711 79.0486 78.5808 62.739 78.5808 42.62C78.5808 22.501 62.2711 6.19141 42.1522 6.19141C22.0333 6.19141 5.72363 22.501 5.72363 42.62C5.72363 62.739 22.0333 79.0486 42.1522 79.0486Z" fill="url(#paint0_radial)"/>
	</g>
	<!--off-->
	<g class="animation-hide">
		<path fill-rule="evenodd" clip-rule="evenodd" d="M41.6829 45.0252C41.8874 45.107 42.0919 45.1479 42.2963 45.1479C42.5008 45.1479 42.7053 45.107 42.9098 45.0252C43.0734 44.9843 43.237 44.8616 43.4006 44.7389L43.4415 44.698C43.5642 44.5344 43.6869 44.3708 43.7687 44.1663C43.8505 43.9618 43.8914 43.7573 43.8914 43.5528V22.7758C43.8914 22.5713 43.8505 22.3668 43.7687 22.1623C43.6869 21.9578 43.5642 21.7942 43.4415 21.6306L43.3597 21.5897C43.237 21.467 43.0734 21.3443 42.9098 21.3034C42.7462 21.2216 42.5008 21.1807 42.2963 21.1807C42.0919 21.1807 41.8465 21.2216 41.6829 21.3034C41.4784 21.3852 41.3148 21.5079 41.1512 21.6306C41.0285 21.7942 40.9058 21.9578 40.824 22.1623C40.7422 22.3668 40.7013 22.5713 40.7013 22.7758V43.5528C40.7013 43.7573 40.7422 43.9618 40.824 44.1663C40.8649 44.3299 40.9876 44.4935 41.1103 44.6162L41.1512 44.698C41.3148 44.8207 41.4784 44.9434 41.6829 45.0252ZM34.6072 62.203C36.9794 63.1846 39.5561 63.7163 42.2963 63.7163C45.0366 63.7163 47.6133 63.1846 49.9855 62.203C52.4804 61.1805 54.6889 59.6672 56.5703 57.8268C58.4108 55.9454 59.9241 53.7368 60.9466 51.2419C61.9282 48.8697 62.4599 46.2931 62.4599 43.5528C62.4599 41.7941 62.2554 40.0354 61.8055 38.3994C61.3556 36.6816 60.6603 35.0457 59.8014 33.5324C58.9425 32.0191 57.8791 30.5876 56.6112 29.3606C55.4251 28.1336 54.0346 27.0293 52.5213 26.1295H52.4804L52.3986 26.0886C52.235 26.0068 52.0714 25.9659 51.8669 25.925C51.6624 25.925 51.4988 25.925 51.2943 25.9659C51.0898 26.0477 50.8853 26.1295 50.7217 26.2522C50.5581 26.3749 50.4354 26.5385 50.3127 26.7021L50.2718 26.8248C50.19 26.9884 50.1082 27.1929 50.1082 27.3565C50.0673 27.561 50.1082 27.7655 50.1491 27.9291C50.19 28.1336 50.2718 28.3381 50.4354 28.5017C50.5581 28.6653 50.6808 28.788 50.8853 28.9107L51.008 28.9925C52.2759 29.7287 53.3802 30.6285 54.4026 31.651C55.4251 32.7144 56.284 33.8596 57.0202 35.1274C57.7564 36.3953 58.329 37.7859 58.6971 39.2174C59.0652 40.608 59.2697 42.0804 59.2697 43.5528C59.2697 45.8432 58.8198 48.0517 57.9609 50.0149C57.102 52.1008 55.8341 53.9822 54.28 55.5364C52.7258 57.0906 50.8444 58.3585 48.7994 59.2174C46.7953 60.0762 44.5867 60.5261 42.2963 60.5261C40.006 60.5261 37.7974 60.0762 35.7933 59.2174C33.7483 58.3585 31.8669 57.0906 30.3127 55.5364C28.7586 53.9822 27.4907 52.1008 26.6318 50.0149C25.7729 48.0517 25.323 45.8432 25.323 43.5528C25.323 42.0804 25.5275 40.608 25.8956 39.2174C26.2637 37.7859 26.8363 36.3953 27.5725 35.1274C28.3087 33.8596 29.2085 32.6735 30.2309 31.6101C31.2534 30.5876 32.4395 29.6878 33.7074 28.9107C33.871 28.788 34.0346 28.6653 34.1573 28.5017C34.3209 28.3381 34.4027 28.1336 34.4436 27.9291C34.4845 27.7655 34.5254 27.561 34.4845 27.3565C34.4845 27.1929 34.4027 26.9884 34.3209 26.8248L34.28 26.743V26.7021C34.1573 26.5385 34.0346 26.3749 33.871 26.2522C33.7074 26.1295 33.5029 26.0477 33.2984 25.9659C33.0939 25.925 32.9303 25.925 32.7258 25.925C32.5213 25.9659 32.3577 26.0068 32.1941 26.0886L32.1123 26.1295H32.0714C30.5581 27.0293 29.1676 28.1336 27.9406 29.3606C26.7136 30.5876 25.6502 32.0191 24.7913 33.5324C23.9324 35.0457 23.2371 36.6816 22.7872 38.3994C22.3373 40.0354 22.1328 41.7941 22.1328 43.5528C22.1328 46.2931 22.6645 48.8697 23.6461 51.2419C24.6686 53.7368 26.1819 55.9454 28.0224 57.8268C29.9037 59.6672 32.1123 61.1805 34.6072 62.203Z" fill="#5B5B5F" fill-opacity="0.3"/>
	</g>
	<!--on-->
	<g class="animation-display">
		<path fill-rule="evenodd" clip-rule="evenodd" d="M41.6819 45.0252C41.8864 45.107 42.0909 45.1479 42.2954 45.1479C42.4999 45.1479 42.7044 45.107 42.9089 45.0252C43.0725 44.9843 43.2361 44.8616 43.3997 44.7389L43.4406 44.698C43.5633 44.5344 43.686 44.3708 43.7678 44.1663C43.8496 43.9618 43.8905 43.7573 43.8905 43.5528V22.7758C43.8905 22.5713 43.8496 22.3668 43.7678 22.1623C43.686 21.9578 43.5633 21.7942 43.4406 21.6306L43.3588 21.5897C43.2361 21.467 43.0725 21.3443 42.9089 21.3034C42.7453 21.2216 42.4999 21.1807 42.2954 21.1807C42.0909 21.1807 41.8455 21.2216 41.6819 21.3034C41.4774 21.3852 41.3138 21.5079 41.1502 21.6306C41.0275 21.7942 40.9048 21.9578 40.823 22.1623C40.7412 22.3668 40.7003 22.5713 40.7003 22.7758V43.5528C40.7003 43.7573 40.7412 43.9618 40.823 44.1663C40.8639 44.3299 40.9866 44.4935 41.1093 44.6162L41.1502 44.698C41.3138 44.8207 41.4774 44.9434 41.6819 45.0252ZM34.6062 62.203C36.9784 63.1846 39.5551 63.7163 42.2954 63.7163C45.0357 63.7163 47.6123 63.1846 49.9845 62.203C52.4794 61.1805 54.688 59.6672 56.5694 57.8268C58.4098 55.9454 59.9231 53.7368 60.9456 51.2419C61.9272 48.8697 62.4589 46.2931 62.4589 43.5528C62.4589 41.7941 62.2544 40.0354 61.8045 38.3994C61.3546 36.6816 60.6593 35.0457 59.8004 33.5324C58.9415 32.0191 57.8781 30.5876 56.6103 29.3606C55.4242 28.1336 54.0336 27.0293 52.5203 26.1295H52.4794L52.3976 26.0886C52.234 26.0068 52.0704 25.9659 51.8659 25.925C51.6614 25.925 51.4978 25.925 51.2933 25.9659C51.0888 26.0477 50.8843 26.1295 50.7207 26.2522C50.5571 26.3749 50.4344 26.5385 50.3117 26.7021L50.2708 26.8248C50.189 26.9884 50.1072 27.1929 50.1072 27.3565C50.0663 27.561 50.1072 27.7655 50.1481 27.9291C50.189 28.1336 50.2708 28.3381 50.4344 28.5017C50.5571 28.6653 50.6798 28.788 50.8843 28.9107L51.007 28.9925C52.2749 29.7287 53.3792 30.6285 54.4017 31.651C55.4242 32.7144 56.2831 33.8596 57.0193 35.1274C57.7554 36.3953 58.328 37.7859 58.6961 39.2174C59.0642 40.608 59.2687 42.0804 59.2687 43.5528C59.2687 45.8432 58.8188 48.0517 57.9599 50.0149C57.1011 52.1008 55.8332 53.9822 54.279 55.5364C52.7248 57.0906 50.8434 58.3585 48.7984 59.2174C46.7943 60.0762 44.5858 60.5261 42.2954 60.5261C40.005 60.5261 37.7964 60.0762 35.7923 59.2174C33.7473 58.3585 31.866 57.0906 30.3118 55.5364C28.7576 53.9822 27.4897 52.1008 26.6308 50.0149C25.7719 48.0517 25.322 45.8432 25.322 43.5528C25.322 42.0804 25.5265 40.608 25.8946 39.2174C26.2627 37.7859 26.8353 36.3953 27.5715 35.1274C28.3077 33.8596 29.2075 32.6735 30.23 31.6101C31.2525 30.5876 32.4386 29.6878 33.7064 28.9107C33.87 28.788 34.0336 28.6653 34.1563 28.5017C34.3199 28.3381 34.4017 28.1336 34.4426 27.9291C34.4835 27.7655 34.5244 27.561 34.4835 27.3565C34.4835 27.1929 34.4017 26.9884 34.3199 26.8248L34.279 26.743V26.7021C34.1563 26.5385 34.0336 26.3749 33.87 26.2522C33.7064 26.1295 33.5019 26.0477 33.2974 25.9659C33.0929 25.925 32.9293 25.925 32.7248 25.925C32.5204 25.9659 32.3568 26.0068 32.1932 26.0886L32.1114 26.1295H32.0705C30.5572 27.0293 29.1666 28.1336 27.9396 29.3606C26.7126 30.5876 25.6492 32.0191 24.7903 33.5324C23.9314 35.0457 23.2361 36.6816 22.7862 38.3994C22.3363 40.0354 22.1318 41.7941 22.1318 43.5528C22.1318 46.2931 22.6635 48.8697 23.6451 51.2419C24.6676 53.7368 26.1809 55.9454 28.0214 57.8268C29.9028 59.6672 32.1114 61.1805 34.6062 62.203Z" fill="#007AFF"/>
	</g>
</g>
<defs>
<radialGradient id="paint0_radial" cx="0" cy="0" r="1" gradientUnits="userSpaceOnUse" gradientTransform="translate(42.1556 42.6531) rotate(45) scale(36.4227)">
<stop offset="0.6545" stop-color="white"/>
<stop offset="0.8827" stop-color="#ECEDEF"/>
<stop offset="0.9272" stop-color="white"/>
<stop offset="1" stop-color="#F7F7F8"/>
</radialGradient>
</defs>
</svg>
