<svg width="84" height="84" viewBox="0 0 84 84" fill="none" xmlns="http://www.w3.org/2000/svg">
<g class="fault hide" reference="FILTER-STATUS">
	<!--inactive-->
	<g class="animation-hide">
		<rect x="29.5" y="25.5" width="24.6482" height="30.3196" rx="2.5" stroke-width="3"/>
		<rect x="32.0449" y="28.0449" width="19.5589" height="11.0518" stroke="#2F3235" fill="#2F3235"/>
		<circle cx="50.3309" cy="42.077" r="1.77232" fill="#2F3235"/>
		<rect x="31.5449" y="41.0137" width="3.54464" height="1.41786" rx="0.708928" fill="#2F3235"/>
		<rect x="37.2158" y="41.0137" width="3.54464" height="1.41786" rx="0.708928" fill="#2F3235"/>
		<line x1="30.127" y1="44.0586" x2="46.4323" y2="44.0586" stroke="#2F3235" fill="#2F3235"/>
		<path d="M46.4326 44.2041C49.3808 45.9462 50.9535 46.1454 53.5219 44.2041" stroke="#2F3235"/>
	</g>
	<!--active-->
	<g class="animation-display">
		<path d="M27.3422 29.8038C28.9442 29.8038 30.5089 30.1391 32.0735 30.8469C33.2284 31.3684 34.346 31.6292 35.4637 31.6292C35.7617 31.6292 36.0225 31.592 36.246 31.5547C36.097 31.4057 35.0911 30.3998 35.0911 30.2881C35.0911 29.9528 35.6127 29.8783 35.799 29.8783C36.7303 29.8783 39.7852 31.8155 40.5675 32.2253C40.8283 32.3743 40.8283 32.7469 40.5675 32.8959C39.7479 33.3429 36.5813 35.2056 35.799 35.2056C35.6127 35.2056 35.0911 35.1311 35.0911 34.8331C35.0911 34.6841 36.2833 33.4919 36.395 33.4174C36.0597 33.4174 35.7245 33.4174 35.4637 33.4174C33.8617 33.4174 32.2971 33.0821 30.7324 32.3743C29.5775 31.89 28.4599 31.6292 27.3422 31.6292C24.5854 31.6292 24.5482 33.0449 23.2815 31.6292C21.9403 30.1018 25.7403 29.8038 27.3422 29.8038ZM58.0771 22.0549C57.6673 34.1625 57.6673 46.3074 58.0771 58.4151C58.0771 58.8994 59.3437 59.6072 59.381 59.1229C59.7908 46.531 59.7908 33.939 59.381 21.347C59.3437 20.8627 58.0771 21.5706 58.0771 22.0549ZM42.7655 20.1176C42.7655 18.0314 44.293 19.7078 46.2674 20.7882C50.738 18.4039 47.3478 18.4039 51.8183 20.7882C56.2516 18.4039 52.8987 18.4039 57.332 20.7882C59.3065 19.7078 60.8339 18.0314 60.8339 20.1176C60.8339 33.5292 61.2064 46.9408 60.8339 60.3523C60.7966 61.9915 57.8535 59.9798 57.332 59.6818C52.7497 62.1405 56.4006 62.1405 51.8183 59.6818C47.2361 62.1405 50.8497 62.1405 46.2674 59.6818C43.7341 61.0602 42.7655 62.6994 42.7655 60.3523V20.1176ZM45.5224 22.0549C45.5224 21.5706 44.2557 20.8627 44.2557 21.347C43.8087 33.939 43.8087 46.531 44.2557 59.1229C44.2557 59.6072 45.5224 58.8994 45.5224 58.4151C45.9694 46.3074 45.9694 34.1625 45.5224 22.0549ZM48.2792 59.1229C48.7262 46.531 48.7262 33.939 48.2792 21.347C48.2792 20.8627 47.0125 21.5706 47.0125 22.0549C46.5655 34.1625 46.6027 46.3074 47.0125 58.4151C47.0125 58.8994 48.2792 59.6072 48.2792 59.1229ZM51.0733 22.0549C51.036 21.5706 49.8066 20.8627 49.7694 21.347C49.3223 33.939 49.3223 46.531 49.7694 59.1229C49.8066 59.6072 51.036 58.8994 51.0733 58.4151C51.4831 46.3074 51.4831 34.1625 51.0733 22.0549ZM53.8301 59.1229C54.2771 46.531 54.2771 33.939 53.8301 21.347C53.8301 20.8627 52.5634 21.5706 52.5262 22.0549C52.1164 34.1625 52.1164 46.3074 52.5262 58.4151C52.5634 58.8994 53.8301 59.6072 53.8301 59.1229ZM56.5869 22.0549C56.5869 21.5706 55.3202 20.8627 55.3202 21.347C54.8732 33.939 54.8732 46.531 55.3202 59.1229C55.3202 59.6072 56.5869 58.8994 56.5869 58.4151C57.034 46.3074 57.034 34.1625 56.5869 22.0549ZM27.3422 45.3016C28.9442 45.3016 30.5089 45.6369 32.0735 46.3447C33.2284 46.8663 34.346 47.127 35.4637 47.127C35.7617 47.127 36.0225 47.0898 36.246 47.0525C36.097 46.9035 35.0911 45.8976 35.0911 45.7486C35.0911 45.4506 35.6127 45.3761 35.799 45.3761C36.7303 45.3761 39.7852 47.3133 40.5675 47.7231C40.8283 47.8721 40.8283 48.2447 40.5675 48.3937C39.7479 48.8035 36.5813 50.7035 35.799 50.7035C35.6127 50.7035 35.0911 50.6289 35.0911 50.3309C35.0911 50.1819 36.2833 48.9898 36.395 48.9152C36.0597 48.9152 35.7245 48.9152 35.4637 48.9152C33.8617 48.9152 32.2971 48.58 30.7324 47.8721C29.5775 47.3506 28.4599 47.127 27.3422 47.127C24.5854 47.127 24.5482 48.5054 23.2815 47.0898C21.9403 45.5996 25.7403 45.3016 27.3422 45.3016ZM27.3422 37.5154C28.9442 37.5154 30.5089 37.888 32.0735 38.5585C33.2284 39.0801 34.346 39.3409 35.4637 39.3409C35.7617 39.3409 36.0225 39.3409 36.246 39.3036C36.097 39.1173 35.0911 38.1487 35.0911 37.9997C35.0911 37.7017 35.6127 37.6272 35.799 37.6272C36.7303 37.6272 39.7852 39.5271 40.5675 39.9369C40.8283 40.086 40.8283 40.4958 40.5675 40.6448C39.7479 41.0546 36.5813 42.9545 35.799 42.9545C35.6127 42.9545 35.0911 42.8428 35.0911 42.5448C35.0911 42.3957 36.2833 41.2408 36.395 41.1291C36.0597 41.1663 35.7245 41.1663 35.4637 41.1663C33.8617 41.1663 32.2971 40.7938 30.7324 40.1232C29.5775 39.6017 28.4599 39.3409 27.3422 39.3409C24.5854 39.3409 24.5482 40.7565 23.2815 39.3409C21.9403 37.8134 25.7403 37.5154 27.3422 37.5154Z"/>
	</g>
</g>
</svg>
