<svg width="16" height="22" viewBox="0 0 16 22" fill="none" xmlns="http://www.w3.org/2000/svg">
<g class="fault inactive" reference="HAND-STATUS">
	<!--ручной режим-->
	<g class="animation-hide">
		<!--flags-->
		<g>
		<path fill-rule="evenodd" clip-rule="evenodd" d="M6.75098 8C8.96012 8 10.751 6.20914 10.751 4C10.751 1.79086 8.96012 0 6.75098 0C4.54184 0 2.75098 1.79086 2.75098 4C2.75098 6.20914 4.54184 8 6.75098 8ZM6.75098 7C8.40783 7 9.75098 5.65685 9.75098 4C9.75098 2.34315 8.40783 1 6.75098 1C5.09412 1 3.75098 2.34315 3.75098 4C3.75098 5.65685 5.09412 7 6.75098 7Z"/>
		</g>
		<g>
		<path d="M7.94929 3.31487C7.94929 2.71166 7.41881 2.22266 6.76444 2.22266C6.11006 2.22266 5.57959 2.71166 5.57959 3.31487V12.3741C5.57959 12.9773 5.90924 11.6254 6.56362 11.6254C7.21799 11.6254 7.94929 12.0084 7.94929 11.4052V3.31487Z" fill="white"/>
		<path d="M10.4832 8.92327C10.4832 8.32005 9.95275 7.83105 9.29837 7.83105C8.644 7.83105 8.11353 8.32005 8.11353 8.92327V11.5305C8.11353 12.1337 8.644 12.3232 9.29837 12.3232C9.95275 12.3232 10.4832 12.9264 10.4832 12.3232V8.92327Z" fill="white"/>
		<path d="M13.0521 9.84905C13.0521 9.24584 12.5216 8.75684 11.8672 8.75684C11.2128 8.75684 10.6824 9.24584 10.6824 9.84905V12.5003C10.6824 13.1035 11.2128 12.8967 11.8672 12.8967C12.5216 12.8967 13.0521 13.8082 13.0521 13.205V9.84905Z" fill="white"/>
		<path d="M15.6552 10.809C15.6552 10.2058 15.1247 9.7168 14.4703 9.7168C13.816 9.7168 13.2855 10.2058 13.2855 10.809V13.3942C13.2855 13.9974 11.8479 21.1674 12.5023 21.1674C14.0239 21.1124 15.6552 17.3359 15.6552 16.6092V10.809Z" fill="white"/>
		<g>
		<mask id="path-6-inside-1" fill="white">
		<path d="M3.43488 10.1766C3.11935 9.68243 2.42902 9.6155 1.89299 10.0271C1.35695 10.4386 1.17821 11.1728 1.49374 11.6669L2.74987 14.3245C2.93416 15.4591 5.88269 21.8996 7.00731 21.261C8.13193 20.6224 5.93718 12.7928 5.62165 12.2987L3.43488 10.1766Z"/>
		</mask>
		<path d="M3.43488 10.1766C3.11935 9.68243 2.42902 9.6155 1.89299 10.0271C1.35695 10.4386 1.17821 11.1728 1.49374 11.6669L2.74987 14.3245C2.93416 15.4591 5.88269 21.8996 7.00731 21.261C8.13193 20.6224 5.93718 12.7928 5.62165 12.2987L3.43488 10.1766Z" fill="white"/>
		<path d="M3.43488 10.1766L-0.531001 13.2215L-0.222314 13.7049L0.181368 14.0967L3.43488 10.1766ZM5.62165 12.2987L9.58753 9.25372L9.27884 8.77032L8.87516 8.37857L5.62165 12.2987ZM7.00731 21.261L9.13044 25.852L9.13044 25.852L7.00731 21.261ZM2.74987 14.3245L7.47063 13.2764L7.34812 12.5222L7.02821 11.8454L2.74987 14.3245ZM1.49374 11.6669L5.77209 9.18777L5.63296 8.89342L5.45963 8.62198L1.49374 11.6669ZM4.584 14.2411C3.47761 15.0906 0.985992 15.5971 -0.531001 13.2215L7.40077 7.1316C5.25271 3.76777 1.38042 4.1404 -0.798023 5.81298L4.584 14.2411ZM0.181368 14.0967L2.36813 16.2188L8.87516 8.37857L6.6884 6.25645L0.181368 14.0967ZM1.65576 15.3436C1.47592 15.062 1.37117 14.8309 1.34826 14.7806C1.30951 14.6957 1.28667 14.6375 1.28152 14.6244C1.27086 14.5971 1.27916 14.6165 1.30786 14.7021C1.36279 14.8661 1.44606 15.1338 1.54801 15.4904C1.75103 16.2006 1.98865 17.1248 2.18343 18.0384C2.38828 18.9991 2.50126 19.7434 2.5281 20.1683C2.5436 20.4136 2.5107 20.2721 2.57135 19.9157C2.60299 19.7298 2.69467 19.2715 2.96901 18.715C3.25593 18.1331 3.83733 17.2644 4.88418 16.6699L9.13044 25.852C11.4393 24.541 11.8975 22.0877 11.9958 21.5099C12.1505 20.6012 12.1282 19.7394 12.0911 19.153C12.0129 17.9149 11.7683 16.5512 11.5256 15.4129C11.2729 14.2275 10.9729 13.0618 10.7108 12.145C10.5802 11.6881 10.449 11.2581 10.328 10.8968C10.2686 10.7198 10.1985 10.5196 10.1216 10.3231C10.0954 10.256 9.90798 9.75553 9.58753 9.25372L1.65576 15.3436ZM4.88418 16.6699C6.91988 15.514 8.6242 16.4397 8.9828 16.6625C9.42466 16.9371 9.60253 17.1925 9.51082 17.0811C9.37766 16.9192 9.07962 16.4746 8.6822 15.7368C8.31275 15.051 7.96018 14.3045 7.69824 13.6877C7.56727 13.3792 7.47474 13.1403 7.41972 12.9851C7.32858 12.7279 7.40882 12.8959 7.47063 13.2764L-1.97089 15.3727C-1.86301 16.0368 -1.65031 16.6543 -1.54054 16.964C-1.39464 17.3757 -1.21779 17.821 -1.02885 18.266C-0.65097 19.1558 -0.161557 20.1923 0.369731 21.1786C0.873061 22.1129 1.53454 23.2296 2.27628 24.1312C2.62203 24.5514 3.2162 25.2141 4.03528 25.7231C4.77111 26.1803 6.81358 27.1676 9.13044 25.852L4.88418 16.6699ZM7.02821 11.8454L5.77209 9.18777L-2.7846 14.1461L-1.52848 16.8037L7.02821 11.8454ZM5.45963 8.62198C6.97662 10.9976 5.69038 13.3917 4.584 14.2411L-0.798023 5.81298C-2.97647 7.48556 -4.6202 11.3481 -2.47214 14.7119L5.45963 8.62198Z" fill="white" mask="url(#path-6-inside-1)"/>
		</g>
		<path d="M11.7894 21.2322C13.8967 21.2322 14.6611 17.2123 14.6611 14.5367C13.4964 12.643 9.80123 11.652 6.26676 11.3438C4.32949 11.5355 6.29795 20.4144 6.48767 20.9226C6.67739 21.4308 10.1297 21.6306 11.7894 21.2322Z" fill="white"/>
		</g>
	</g>
</g>
</svg>
