<svg width="84" height="85" viewBox="0 0 84 85" fill="none" xmlns="http://www.w3.org/2000/svg">
<g class="click fault hide" reference="MODE">
	<!--flags-->
	<g>
		<path d="M42 84.3994C65.1959 84.3994 84 65.5954 84 42.3994C84 19.2035 65.1959 0.399414 42 0.399414C18.804 0.399414 0 19.2035 0 42.3994C0 65.5954 18.804 84.3994 42 84.3994Z"/>
	</g>
	<g>
		<path d="M41.9969 78.8259C62.1159 78.8259 78.4255 62.5163 78.4255 42.3973C78.4255 22.2784 62.1159 5.96875 41.9969 5.96875C21.878 5.96875 5.56836 22.2784 5.56836 42.3973C5.56836 62.5163 21.878 78.8259 41.9969 78.8259Z" fill="url(#paint0_radial)"/>
	</g>
	<!--dry-->
	<g class="array-5">
		<path fill-rule="evenodd" clip-rule="evenodd" d="M51.8401 45.4382C49.9016 40.7858 46.1908 34.5827 42.2031 28.8781C36.2769 37.2966 31.0707 46.712 31.0707 50.7551C31.0707 57.789 36.0554 63.4937 42.2031 63.4937C46.0247 63.4937 49.4032 61.2783 51.397 57.8998L51.2309 57.7336C49.957 56.349 49.1816 54.3551 49.1816 52.2505C49.1816 51.032 49.8462 49.2597 50.8986 47.2105C51.1755 46.6566 51.5078 46.0474 51.8401 45.4382ZM63.2494 52.2505C63.2494 50.2013 60.6463 45.4935 57.7109 41.2843C54.7201 45.4935 52.117 50.2013 52.117 52.2505C52.117 55.7398 54.6093 58.5644 57.7109 58.5644C60.7571 58.5644 63.2494 55.7398 63.2494 52.2505ZM36.1108 32.3673C34.6154 29.0442 32.0677 24.835 29.3538 20.958C25.0891 27.0504 21.2676 33.9181 21.2676 36.8535C21.2676 41.8935 24.8676 45.992 29.243 46.0474C29.7969 44.2197 30.7384 42.0043 31.9569 39.6227C33.12 37.352 34.5046 34.8596 36.1108 32.3673ZM26.8061 38.0166C27.3045 41.2289 29.7415 40.0658 28.1353 42.3366C26.3076 44.8843 24.3138 39.955 24.0922 38.4597C23.8153 36.8535 23.9261 31.315 26.5845 32.5335C29.0769 33.7519 26.2522 34.5827 26.8061 38.0166ZM37.2185 52.5274C38.2154 57.4567 42.6462 57.0136 41.04 59.5059C38.9908 62.6075 34.56 55.1305 34.1723 53.2474C33.6738 50.9767 34.7815 41.8935 38.0492 43.6658C40.4862 45.0505 36.2215 47.6536 37.2185 52.5274Z" fill="#5B5B5F"/>
	</g>
	<!--fan-->
	<g class="array-4">
		<path fill-rule="evenodd" clip-rule="evenodd" d="M41.9802 45.9676C44.0304 45.9163 45.5681 44.2761 45.5681 42.0721C45.4656 39.8168 43.4154 38.2791 41.6727 38.4841C39.6224 38.5354 38.0847 40.1756 38.0847 42.3796C38.136 44.4299 39.7762 45.9676 41.9802 45.9676ZM45.7732 33.2559C47.6697 30.7956 49.6687 28.1816 51.1038 25.67C51.5139 25.0036 51.6164 24.3886 51.4626 23.876C51.3089 23.2097 50.7451 22.6459 49.9762 22.1845C49.1048 21.7232 47.9772 21.3644 46.6958 21.1594C43.4154 20.6468 39.2636 21.1082 36.9058 22.5946C35.4194 23.5172 34.9068 24.8499 34.9068 26.3363C34.958 28.3866 36.0344 30.6931 37.3158 32.6921C38.1872 34.0761 39.1098 35.3575 39.9299 36.2288C40.5963 36.8952 41.2113 37.3052 41.6727 37.3052C41.9802 37.3052 42.339 37.1514 42.6978 36.8952C43.1591 36.5876 43.5691 36.1263 43.8767 35.665C44.4405 34.9987 45.0556 34.1273 45.7732 33.2559ZM62.8928 47.0952C63.4054 43.8148 62.9441 39.663 61.4577 37.3052C60.535 35.8188 59.2024 35.3062 57.7159 35.3062C55.6657 35.3575 53.3591 36.4338 51.3601 37.7153C49.9762 38.5866 48.6948 39.5092 47.8234 40.3293C47.1571 40.9957 46.747 41.6108 46.747 42.0721C46.747 42.3796 46.9008 42.7384 47.1571 43.0972C47.4646 43.5585 47.9259 43.9686 48.3873 44.2761C49.0536 44.8399 49.9249 45.455 50.7963 46.1213C53.2566 48.0178 55.8707 50.0681 58.3823 51.5033C59.0486 51.9133 59.6637 52.0158 60.1762 51.8621C60.8426 51.7083 61.4064 51.1445 61.8677 50.3756C62.329 49.5043 62.6878 48.3766 62.8928 47.0952ZM48.746 58.1153C48.6948 56.0651 47.6184 53.7585 46.337 51.7595C45.4656 50.3756 44.543 49.0942 43.7229 48.2228C43.0566 47.5565 42.4415 47.1465 41.9802 47.1465C41.6727 47.1465 41.3139 47.3002 40.9551 47.5565C40.4938 47.864 40.0837 48.3254 39.7762 48.7867C39.2123 49.453 38.5973 50.3244 37.9309 51.1957C36.0344 53.656 33.9842 56.2701 32.549 58.7817C32.1389 59.448 32.0364 60.0631 32.1902 60.5757C32.344 61.242 32.9078 61.8058 33.6766 62.2671C34.548 62.7284 35.6756 63.0872 36.9571 63.2923C40.2375 63.8048 44.3892 63.3435 46.747 61.8571C48.2335 60.9345 48.746 59.6018 48.746 58.1153ZM36.4957 41.3545C36.1882 40.8932 35.7269 40.4831 35.2656 40.1756C34.5993 39.6118 33.7279 38.9967 32.8565 38.2791C30.3962 36.3826 27.7821 34.3836 25.2706 32.9484C24.6042 32.5384 23.9892 32.4358 23.4766 32.5896C22.8103 32.7434 22.2464 33.3072 21.7851 34.0761C21.3238 34.9474 20.965 36.0751 20.76 37.3565C20.2474 40.6369 20.7087 44.7887 22.1952 47.1465C23.1178 48.6329 24.4505 49.1455 25.9369 49.1455C27.9872 49.0942 30.2937 48.0178 32.2927 46.7364C33.6766 45.865 34.958 44.9424 35.8294 44.1223C36.4957 43.456 36.9058 42.8409 36.9058 42.3796C36.9058 42.0721 36.752 41.7133 36.4957 41.3545Z" fill="#5B5B5F"/>
	</g>
	<!--cool-->
	<g class="array-3">
		<path d="M55.0764 48.2912C56.7872 47.3581 58.498 46.3861 60.131 45.4529C60.3642 45.3363 60.6364 45.4141 60.7919 45.6473L61.4529 46.8527C61.6084 47.0471 61.5307 47.3581 61.2974 47.4747L57.4871 49.691L60.7919 51.5961C61.0252 51.7128 61.103 52.0238 60.9475 52.2571L60.2476 53.5013C60.131 53.6957 59.8199 53.7734 59.5866 53.6568L56.2817 51.7516V56.2229C56.2817 56.4951 56.0485 56.6895 55.8152 56.6895H54.4155C54.1433 56.6895 53.9489 56.4951 53.9489 56.2229C53.9489 54.3178 53.91 52.3349 53.91 50.3519L49.7886 48.0191C49.7886 57.1561 51.2661 56.3007 43.3733 51.7516V56.4951C45.0452 57.4671 46.7171 58.5169 48.3112 59.4501C48.5445 59.5667 48.6222 59.8389 48.5056 60.0721L47.8057 61.2775C47.6891 61.5107 47.378 61.5885 47.1448 61.4719L43.3733 59.2556V63.0271C43.3733 63.2993 43.14 63.4937 42.9067 63.4937H41.4681C41.196 63.4937 41.0016 63.2993 41.0016 63.0271V59.2168L37.0746 61.4719C36.8413 61.5885 36.5692 61.5107 36.4136 61.3163L35.7527 60.111C35.5971 59.8777 35.6749 59.5667 35.9082 59.4501C37.5412 58.5169 39.2908 57.4282 41.0016 56.4562V51.7128C32.9921 56.3396 34.4307 57.2727 34.4307 48.058L30.3482 50.4297C30.3482 52.3349 30.3093 54.3178 30.3093 56.1841C30.3093 56.4562 30.1149 56.6895 29.8428 56.6895H28.4819C28.2098 56.6895 27.9765 56.4562 27.9765 56.1841C27.9765 54.7455 27.9765 53.268 27.9765 51.7905L24.7494 53.6568C24.5161 53.7734 24.2439 53.6957 24.0884 53.5013L23.3886 52.2571C23.2719 52.0238 23.3497 51.7128 23.5441 51.5961L26.8101 49.7298L22.922 47.4747C22.6887 47.3581 22.6109 47.0471 22.7665 46.8138L23.4663 45.6473C23.583 45.4141 23.8551 45.3363 24.0884 45.4529C25.7603 46.425 27.5099 47.3581 29.2207 48.3301L33.3032 45.9584C25.3326 41.3705 25.3326 43.0812 33.3032 38.4933L29.1818 36.0827C27.471 37.0547 25.7992 38.0267 24.1273 38.9987C23.894 39.1154 23.6218 39.0376 23.4663 38.8043L22.8053 37.599C22.6498 37.4046 22.7276 37.0936 22.9609 36.9769C24.2439 36.2382 25.527 35.4606 26.8101 34.7218L23.5441 32.8555C23.3497 32.7389 23.2719 32.4279 23.3886 32.1946L24.0884 30.9504C24.2439 30.756 24.5161 30.6782 24.7494 30.7949L27.9765 32.6611V28.2287C27.9765 27.9566 28.2098 27.7622 28.4431 27.7622H29.8428C30.1149 27.7622 30.3093 27.9566 30.3093 28.2287C30.3093 30.1339 30.3482 32.0779 30.3482 34.022L34.4696 36.3937C34.4696 27.2178 32.9921 28.1121 41.0016 32.7V27.9566C39.2908 26.9845 37.6189 25.9736 35.9471 25.0016C35.7138 24.885 35.636 24.6128 35.7527 24.3795L36.4525 23.1742C36.5692 22.9409 36.8802 22.8632 37.1135 22.9798C38.3577 23.7185 39.6796 24.4573 41.0016 25.2349V21.4246C41.0016 21.1524 41.196 20.958 41.4681 20.958H42.9067C43.14 20.958 43.3733 21.1524 43.3733 21.4246V25.1571C44.6564 24.4184 45.9006 23.7185 47.1836 22.9798C47.4169 22.8632 47.6891 22.9409 47.8446 23.1353L48.5056 24.3406C48.6611 24.5739 48.5833 24.885 48.3501 25.0016C46.7171 25.9348 45.0452 26.9457 43.3733 27.9177V32.6223C51.3439 28.0343 49.8275 27.2178 49.8275 36.4326L53.8711 34.0997C53.8711 32.1168 53.9489 30.1339 53.9489 28.2676C53.9489 27.9954 54.1433 27.7622 54.4155 27.7622H55.7763C56.0485 27.7622 56.2817 27.9954 56.2817 28.2676C56.2817 29.7451 56.2817 31.2226 56.2817 32.7L59.5866 30.7949C59.8199 30.6782 60.131 30.756 60.2476 30.9504L60.9475 32.1946C61.103 32.4279 61.0252 32.7389 60.7919 32.8555L57.4871 34.7607C58.7701 35.4994 60.0532 36.2382 61.3363 36.9769C61.5695 37.0936 61.6473 37.4046 61.4918 37.6379L60.7919 38.8043C60.6753 39.0376 60.4031 39.1154 60.1698 38.9987C58.498 38.0267 56.8261 37.0936 55.1153 36.1215L51.0328 38.4933C58.9256 43.0423 58.9256 41.3316 50.9551 45.9195L55.0764 48.2912ZM35.6749 44.5976L39.7963 42.2258L35.6749 39.8541L31.5535 42.2258L35.6749 44.5976ZM43.3733 40.1651L47.4558 37.7934V33.0111L43.3733 35.3828V40.1651ZM48.6611 39.8541L44.5397 42.2258L48.5833 44.5587L52.7047 42.187L48.6611 39.8541ZM41.0016 44.2865L36.8024 46.6971V51.4017L41.0016 48.9911V44.2865ZM36.8413 37.7545L41.0016 40.1651V35.4606L36.8413 33.05V37.7545ZM47.4169 46.6194L43.3733 44.2865V48.9911L47.4169 51.3628V46.6194Z" fill="#5B5B5F"/>
	</g>
	<!--heat-->
	<g class="array-2">
		<path d="M42.5323 52.5334C48.2023 52.5334 52.8186 47.9172 52.8186 42.2472C52.8186 36.5772 48.2023 31.9609 42.5323 31.9609C36.8624 31.9609 32.2461 36.5772 32.2461 42.2472C32.2461 47.9172 36.8624 52.5334 42.5323 52.5334Z" fill="#5B5B5F"/>
		<path d="M54.6746 43.5021L63.0542 42.2477L54.9255 41.0435L67.3694 35.7749L53.6209 37.2802L60.2944 32.0116L52.6676 35.0222L60.7962 24.2342L49.657 32.413L52.8181 24.4851L47.7001 30.9077L49.3559 17.5105L43.7863 30.1551L42.5319 21.7755L41.3276 29.9042L36.059 17.4102L37.5643 31.1586L32.2958 24.4851L35.3064 32.112L24.5184 23.9833L32.6972 35.1226L24.7693 31.9614L31.1919 37.0795L17.7947 35.4237L30.4392 40.9933L22.0597 42.2477L30.1884 43.452L17.6943 48.7205L31.4428 47.2152L24.7693 52.4838L32.3961 49.4732L24.2675 60.2612L35.4067 52.0824L32.2456 60.0103L37.3636 53.5877L35.758 66.9849L41.3276 54.3403L42.582 62.7199L43.7863 54.5912L49.0548 67.0351L47.5495 53.2866L52.8181 59.9601L49.8075 52.3333L60.5955 60.4619L52.4167 49.3226L60.3446 52.4838L53.922 47.3657L67.3192 49.0216L54.6746 43.5021ZM42.5319 53.8887C36.1092 53.8887 30.8908 48.6703 30.8908 42.2477C30.8908 35.8251 36.1092 30.6067 42.5319 30.6067C48.9545 30.6067 54.1729 35.8251 54.1729 42.2477C54.1729 48.6703 48.9545 53.8887 42.5319 53.8887Z" fill="#5B5B5F"/>
	</g>
	<!--auto-->
	<g class="array-1">
		<path fill-rule="evenodd" clip-rule="evenodd" d="M27.8419 39.4761L26.4747 43.6512H29.0138L27.8419 39.4761ZM26.3575 37.4421H29.3654L32.8811 47.7548H30.1857L29.5216 45.4354H25.8887L25.2247 47.7548H22.6855L26.3575 37.4421ZM33.5061 37.4421H36.1233V44.0437C36.1233 44.8287 36.2405 45.3997 36.4749 45.7208C36.6702 46.0063 37.0609 46.1847 37.6468 46.1847C38.1937 46.1847 38.5843 46.0063 38.8187 45.6852C39.0531 45.3997 39.1703 44.8287 39.1703 44.0437V37.4421H41.6313V43.7582C41.6313 45.1856 41.3188 46.2204 40.6547 46.8984C39.9906 47.5764 38.9359 47.8976 37.5687 47.8976C36.2015 47.8976 35.1858 47.5764 34.5217 46.8984C33.8577 46.2204 33.5061 45.1856 33.5061 43.7582V37.4421ZM42.9594 37.4421H50.4987V39.262H48.0377V47.7548H45.4204V39.262H42.9594V37.4421ZM56.1628 38.9765C55.4988 38.9765 55.03 39.2977 54.6784 39.94C54.3269 40.5466 54.1315 41.4387 54.1315 42.5806C54.1315 43.7225 54.3269 44.6146 54.6784 45.2213C55.03 45.8636 55.4988 46.1847 56.1628 46.1847C56.8269 46.1847 57.3347 45.8636 57.6863 45.2213C58.0379 44.6146 58.1941 43.7225 58.1941 42.5806C58.1941 41.4387 58.0379 40.5466 57.6863 39.94C57.3347 39.2977 56.8269 38.9765 56.1628 38.9765ZM56.1628 37.2637C57.6863 37.2637 58.8582 37.7276 59.6785 38.6554C60.5379 39.5831 60.9676 40.9035 60.9676 42.5806C60.9676 44.2578 60.5379 45.5781 59.6785 46.5059C58.8582 47.4337 57.6863 47.8976 56.1628 47.8976C54.6394 47.8976 53.4675 47.4337 52.6471 46.5059C51.7877 45.5781 51.3971 44.2578 51.3971 42.5806C51.3971 40.9035 51.7877 39.5831 52.6471 38.6554C53.5065 37.7276 54.6784 37.2637 56.1628 37.2637Z" fill="#5B5B5F"/>
	</g>
</g>
<defs>
<radialGradient id="paint0_radial" cx="0" cy="0" r="1" gradientUnits="userSpaceOnUse" gradientTransform="translate(42.0004 42.4305) rotate(45) scale(36.4227)">
<stop offset="0.6545" stop-color="white"/>
<stop offset="0.8827" stop-color="#ECEDEF"/>
<stop offset="0.9272" stop-color="white"/>
<stop offset="1" stop-color="#F7F7F8"/>
</radialGradient>
</defs>
</svg>
