<svg width="84" height="84" viewBox="0 0 84 84" fill="none" xmlns="http://www.w3.org/2000/svg">
<g class="fault hide" reference="MODE-STATUS">
	<!--dry-->
	<g class="array-5">
		<path fill-rule="evenodd" clip-rule="evenodd" d="M51.8401 45.0387C49.9016 40.3864 46.1908 34.1833 42.2031 28.4786C36.2769 36.8972 31.0707 46.3126 31.0707 50.3557C31.0707 57.3896 36.0554 63.0942 42.2031 63.0942C46.0247 63.0942 49.4032 60.8788 51.397 57.5004L51.2309 57.3342C49.957 55.9496 49.1816 53.9557 49.1816 51.8511C49.1816 50.6326 49.8462 48.8603 50.8986 46.8111C51.1755 46.2572 51.5078 45.648 51.8401 45.0387ZM63.2494 51.8511C63.2494 49.8019 60.6463 45.0941 57.7109 40.8849C54.7201 45.0941 52.117 49.8019 52.117 51.8511C52.117 55.3404 54.6093 58.165 57.7109 58.165C60.7571 58.165 63.2494 55.3404 63.2494 51.8511ZM36.1108 31.9679C34.6154 28.6448 32.0677 24.4355 29.3538 20.5586C25.0891 26.6509 21.2676 33.5187 21.2676 36.4541C21.2676 41.4941 24.8676 45.5926 29.243 45.648C29.7969 43.8203 30.7384 41.6049 31.9569 39.2233C33.12 36.9525 34.5046 34.4602 36.1108 31.9679ZM26.8061 37.6172C27.3045 40.8295 29.7415 39.6664 28.1353 41.9372C26.3076 44.4849 24.3138 39.5556 24.0922 38.0602C23.8153 36.4541 23.9261 30.9156 26.5845 32.1341C29.0769 33.3525 26.2522 34.1833 26.8061 37.6172ZM37.2185 52.128C38.2154 57.0573 42.6462 56.6142 41.04 59.1065C38.9908 62.2081 34.56 54.7311 34.1723 52.848C33.6738 50.5772 34.7815 41.4941 38.0492 43.2664C40.4862 44.6511 36.2215 47.2541 37.2185 52.128Z"/>
	</g>
	<!--fan-->
	<g class="array-4">
		<path fill-rule="evenodd" clip-rule="evenodd" d="M41.9802 45.5681C44.0304 45.5169 45.5681 43.8767 45.5681 41.6727C45.4656 39.4174 43.4154 37.8797 41.6727 38.0847C39.6224 38.136 38.0847 39.7762 38.0847 41.9802C38.136 44.0304 39.7762 45.5681 41.9802 45.5681ZM45.7732 32.8565C47.6697 30.3962 49.6687 27.7821 51.1038 25.2706C51.5139 24.6042 51.6164 23.9892 51.4626 23.4766C51.3089 22.8103 50.7451 22.2464 49.9762 21.7851C49.1048 21.3238 47.9772 20.965 46.6958 20.76C43.4154 20.2474 39.2636 20.7087 36.9058 22.1952C35.4194 23.1178 34.9068 24.4505 34.9068 25.9369C34.958 27.9872 36.0344 30.2937 37.3158 32.2927C38.1872 33.6766 39.1098 34.958 39.9299 35.8294C40.5963 36.4957 41.2113 36.9058 41.6727 36.9058C41.9802 36.9058 42.339 36.752 42.6978 36.4957C43.1591 36.1882 43.5691 35.7269 43.8767 35.2656C44.4405 34.5993 45.0556 33.7279 45.7732 32.8565ZM62.8928 46.6958C63.4054 43.4154 62.9441 39.2636 61.4577 36.9058C60.535 35.4194 59.2024 34.9068 57.7159 34.9068C55.6657 34.958 53.3591 36.0344 51.3601 37.3158C49.9762 38.1872 48.6948 39.1098 47.8234 39.9299C47.1571 40.5963 46.747 41.2113 46.747 41.6727C46.747 41.9802 46.9008 42.339 47.1571 42.6978C47.4646 43.1591 47.9259 43.5691 48.3873 43.8767C49.0536 44.4405 49.9249 45.0556 50.7963 45.7219C53.2566 47.6184 55.8707 49.6687 58.3823 51.1038C59.0486 51.5139 59.6637 51.6164 60.1762 51.4626C60.8426 51.3089 61.4064 50.7451 61.8677 49.9762C62.329 49.1048 62.6878 47.9772 62.8928 46.6958ZM48.746 57.7159C48.6948 55.6657 47.6184 53.3591 46.337 51.3601C45.4656 49.9762 44.543 48.6948 43.7229 47.8234C43.0566 47.1571 42.4415 46.747 41.9802 46.747C41.6727 46.747 41.3139 46.9008 40.9551 47.1571C40.4938 47.4646 40.0837 47.9259 39.7762 48.3873C39.2123 49.0536 38.5973 49.9249 37.9309 50.7963C36.0344 53.2566 33.9842 55.8707 32.549 58.3823C32.1389 59.0486 32.0364 59.6637 32.1902 60.1762C32.344 60.8426 32.9078 61.4064 33.6766 61.8677C34.548 62.329 35.6756 62.6878 36.9571 62.8928C40.2375 63.4054 44.3892 62.9441 46.747 61.4577C48.2335 60.535 48.746 59.2024 48.746 57.7159ZM36.4957 40.9551C36.1882 40.4938 35.7269 40.0837 35.2656 39.7762C34.5993 39.2123 33.7279 38.5973 32.8565 37.8797C30.3962 35.9832 27.7821 33.9842 25.2706 32.549C24.6042 32.1389 23.9892 32.0364 23.4766 32.1902C22.8103 32.344 22.2464 32.9078 21.7851 33.6766C21.3238 34.548 20.965 35.6756 20.76 36.9571C20.2474 40.2375 20.7087 44.3892 22.1952 46.747C23.1178 48.2335 24.4505 48.746 25.9369 48.746C27.9872 48.6948 30.2937 47.6184 32.2927 46.337C33.6766 45.4656 34.958 44.543 35.8294 43.7229C36.4957 43.0566 36.9058 42.4415 36.9058 41.9802C36.9058 41.6727 36.752 41.3139 36.4957 40.9551Z"/>
	</g>
	<!--cool-->
	<g class="array-3">
		<path d="M55.0764 47.8918C56.7872 46.9587 58.498 45.9867 60.131 45.0535C60.3642 44.9369 60.6364 45.0146 60.7919 45.2479L61.4529 46.4532C61.6084 46.6476 61.5307 46.9587 61.2974 47.0753L57.4871 49.2915L60.7919 51.1967C61.0252 51.3133 61.103 51.6244 60.9475 51.8577L60.2476 53.1019C60.131 53.2963 59.8199 53.374 59.5866 53.2574L56.2817 51.3522V55.8235C56.2817 56.0957 56.0485 56.2901 55.8152 56.2901H54.4155C54.1433 56.2901 53.9489 56.0957 53.9489 55.8235C53.9489 53.9184 53.91 51.9354 53.91 49.9525L49.7886 47.6197C49.7886 56.7567 51.2661 55.9013 43.3733 51.3522V56.0957C45.0452 57.0677 46.7171 58.1175 48.3112 59.0506C48.5445 59.1673 48.6222 59.4394 48.5056 59.6727L47.8057 60.878C47.6891 61.1113 47.378 61.1891 47.1448 61.0724L43.3733 58.8562V62.6277C43.3733 62.8998 43.14 63.0942 42.9067 63.0942H41.4681C41.196 63.0942 41.0016 62.8998 41.0016 62.6277V58.8174L37.0746 61.0724C36.8413 61.1891 36.5692 61.1113 36.4136 60.9169L35.7527 59.7116C35.5971 59.4783 35.6749 59.1673 35.9082 59.0506C37.5412 58.1175 39.2908 57.0288 41.0016 56.0568V51.3133C32.9921 55.9402 34.4307 56.8733 34.4307 47.6585L30.3482 50.0303C30.3482 51.9354 30.3093 53.9184 30.3093 55.7846C30.3093 56.0568 30.1149 56.2901 29.8428 56.2901H28.4819C28.2098 56.2901 27.9765 56.0568 27.9765 55.7846C27.9765 54.3461 27.9765 52.8686 27.9765 51.3911L24.7494 53.2574C24.5161 53.374 24.2439 53.2963 24.0884 53.1019L23.3886 51.8577C23.2719 51.6244 23.3497 51.3133 23.5441 51.1967L26.8101 49.3304L22.922 47.0753C22.6887 46.9587 22.6109 46.6476 22.7665 46.4144L23.4663 45.2479C23.583 45.0146 23.8551 44.9369 24.0884 45.0535C25.7603 46.0256 27.5099 46.9587 29.2207 47.9307L33.3032 45.559C25.3326 40.971 25.3326 42.6818 33.3032 38.0939L29.1818 35.6832C27.471 36.6553 25.7992 37.6273 24.1273 38.5993C23.894 38.716 23.6218 38.6382 23.4663 38.4049L22.8053 37.1996C22.6498 37.0052 22.7276 36.6941 22.9609 36.5775C24.2439 35.8388 25.527 35.0612 26.8101 34.3224L23.5441 32.4561C23.3497 32.3395 23.2719 32.0284 23.3886 31.7952L24.0884 30.551C24.2439 30.3566 24.5161 30.2788 24.7494 30.3954L27.9765 32.2617V27.8293C27.9765 27.5571 28.2098 27.3627 28.4431 27.3627H29.8428C30.1149 27.3627 30.3093 27.5571 30.3093 27.8293C30.3093 29.7345 30.3482 31.6785 30.3482 33.6226L34.4696 35.9943C34.4696 26.8184 32.9921 27.7127 41.0016 32.3006V27.5571C39.2908 26.5851 37.6189 25.5742 35.9471 24.6022C35.7138 24.4856 35.636 24.2134 35.7527 23.9801L36.4525 22.7748C36.5692 22.5415 36.8802 22.4638 37.1135 22.5804C38.3577 23.3191 39.6796 24.0579 41.0016 24.8355V21.0252C41.0016 20.753 41.196 20.5586 41.4681 20.5586H42.9067C43.14 20.5586 43.3733 20.753 43.3733 21.0252V24.7577C44.6564 24.019 45.9006 23.3191 47.1836 22.5804C47.4169 22.4638 47.6891 22.5415 47.8446 22.7359L48.5056 23.9412C48.6611 24.1745 48.5833 24.4856 48.3501 24.6022C46.7171 25.5353 45.0452 26.5462 43.3733 27.5183V32.2228C51.3439 27.6349 49.8275 26.8184 49.8275 36.0332L53.8711 33.7003C53.8711 31.7174 53.9489 29.7345 53.9489 27.8682C53.9489 27.596 54.1433 27.3627 54.4155 27.3627H55.7763C56.0485 27.3627 56.2817 27.596 56.2817 27.8682C56.2817 29.3457 56.2817 30.8231 56.2817 32.3006L59.5866 30.3954C59.8199 30.2788 60.131 30.3566 60.2476 30.551L60.9475 31.7952C61.103 32.0284 61.0252 32.3395 60.7919 32.4561L57.4871 34.3613C58.7701 35.1 60.0532 35.8388 61.3363 36.5775C61.5695 36.6941 61.6473 37.0052 61.4918 37.2385L60.7919 38.4049C60.6753 38.6382 60.4031 38.716 60.1698 38.5993C58.498 37.6273 56.8261 36.6941 55.1153 35.7221L51.0328 38.0939C58.9256 42.6429 58.9256 40.9322 50.9551 45.5201L55.0764 47.8918ZM35.6749 44.1982L39.7963 41.8264L35.6749 39.4547L31.5535 41.8264L35.6749 44.1982ZM43.3733 39.7657L47.4558 37.394V32.6117L43.3733 34.9834V39.7657ZM48.6611 39.4547L44.5397 41.8264L48.5833 44.1593L52.7047 41.7875L48.6611 39.4547ZM41.0016 43.8871L36.8024 46.2977V51.0023L41.0016 48.5917V43.8871ZM36.8413 37.3551L41.0016 39.7657V35.0612L36.8413 32.6505V37.3551ZM47.4169 46.22L43.3733 43.8871V48.5917L47.4169 50.9634V46.22Z"/>
	</g>
	<!--heat-->
	<g class="array-2">
		<path d="M42.5323 52.134C48.2023 52.134 52.8186 47.5177 52.8186 41.8478C52.8186 36.1778 48.2023 31.5615 42.5323 31.5615C36.8624 31.5615 32.2461 36.1778 32.2461 41.8478C32.2461 47.5177 36.8624 52.134 42.5323 52.134Z"/>
		<path d="M54.6746 43.1027L63.0542 41.8483L54.9255 40.644L67.3694 35.3755L53.6209 36.8808L60.2944 31.6122L52.6676 34.6228L60.7962 23.8348L49.657 32.0136L52.8181 24.0857L47.7001 30.5083L49.3559 17.1111L43.7863 29.7557L42.5319 21.3761L41.3276 29.5048L36.059 17.0107L37.5643 30.7592L32.2958 24.0857L35.3064 31.7126L24.5184 23.5839L32.6972 34.7232L24.7693 31.562L31.1919 36.6801L17.7947 35.0242L30.4392 40.5939L22.0597 41.8483L30.1884 43.0525L17.6943 48.3211L31.4428 46.8158L24.7693 52.0844L32.3961 49.0738L24.2675 59.8618L35.4067 51.683L32.2456 59.6109L37.3636 53.1883L35.758 66.5855L41.3276 53.9409L42.582 62.3205L43.7863 54.1918L49.0548 66.6357L47.5495 52.8872L52.8181 59.5607L49.8075 51.9338L60.5955 60.0625L52.4167 48.9232L60.3446 52.0844L53.922 46.9663L67.3192 48.6222L54.6746 43.1027ZM42.5319 53.4893C36.1092 53.4893 30.8908 48.2709 30.8908 41.8483C30.8908 35.4257 36.1092 30.2073 42.5319 30.2073C48.9545 30.2073 54.1729 35.4257 54.1729 41.8483C54.1729 48.2709 48.9545 53.4893 42.5319 53.4893Z"/>
	</g>
	<!--auto-->
	<g class="array-1">
		<path fill-rule="evenodd" clip-rule="evenodd" d="M27.8419 39.0767L26.4747 43.2517H29.0138L27.8419 39.0767ZM26.3575 37.0427H29.3654L32.8811 47.3554H30.1857L29.5216 45.036H25.8887L25.2247 47.3554H22.6855L26.3575 37.0427ZM33.5061 37.0427H36.1233V43.6443C36.1233 44.4293 36.2405 45.0003 36.4749 45.3214C36.6702 45.6069 37.0609 45.7853 37.6468 45.7853C38.1937 45.7853 38.5843 45.6069 38.8187 45.2857C39.0531 45.0003 39.1703 44.4293 39.1703 43.6443V37.0427H41.6313V43.3588C41.6313 44.7862 41.3188 45.821 40.6547 46.499C39.9906 47.177 38.9359 47.4982 37.5687 47.4982C36.2015 47.4982 35.1858 47.177 34.5217 46.499C33.8577 45.821 33.5061 44.7862 33.5061 43.3588V37.0427ZM42.9594 37.0427H50.4987V38.8626H48.0377V47.3554H45.4204V38.8626H42.9594V37.0427ZM56.1628 38.5771C55.4988 38.5771 55.03 38.8983 54.6784 39.5406C54.3269 40.1472 54.1315 41.0393 54.1315 42.1812C54.1315 43.3231 54.3269 44.2152 54.6784 44.8219C55.03 45.4642 55.4988 45.7853 56.1628 45.7853C56.8269 45.7853 57.3347 45.4642 57.6863 44.8219C58.0379 44.2152 58.1941 43.3231 58.1941 42.1812C58.1941 41.0393 58.0379 40.1472 57.6863 39.5406C57.3347 38.8983 56.8269 38.5771 56.1628 38.5771ZM56.1628 36.8643C57.6863 36.8643 58.8582 37.3282 59.6785 38.2559C60.5379 39.1837 60.9676 40.5041 60.9676 42.1812C60.9676 43.8584 60.5379 45.1787 59.6785 46.1065C58.8582 47.0343 57.6863 47.4982 56.1628 47.4982C54.6394 47.4982 53.4675 47.0343 52.6471 46.1065C51.7877 45.1787 51.3971 43.8584 51.3971 42.1812C51.3971 40.5041 51.7877 39.1837 52.6471 38.2559C53.5065 37.3282 54.6784 36.8643 56.1628 36.8643Z"/>
	</g>
</g>
</svg>
