<svg width="85" height="85" viewBox="0 0 85 85" fill="none" xmlns="http://www.w3.org/2000/svg">
<g class="click fault hide" reference="REMOTE">
	<!--flags-->
	<g>
		<path d="M42.1865 84.7764C65.3825 84.7764 84.1865 65.9723 84.1865 42.7764C84.1865 19.5804 65.3825 0.776367 42.1865 0.776367C18.9906 0.776367 0.186523 19.5804 0.186523 42.7764C0.186523 65.9723 18.9906 84.7764 42.1865 84.7764Z"/>
	</g>
	<g>
		<path d="M42.1835 79.2029C62.3024 79.2029 78.612 62.8933 78.612 42.7743C78.612 22.6553 62.3024 6.3457 42.1835 6.3457C22.0645 6.3457 5.75488 22.6553 5.75488 42.7743C5.75488 62.8933 22.0645 79.2029 42.1835 79.2029Z" fill="url(#paint0_radial)"/>
	</g>
	<!--inactive-->
	<g class="animation-hide">
		<rect x="29.6143" y="27.666" width="24.6482" height="30.3196" rx="2.5" fill="white" stroke="#5B5B5F" stroke-width="3"/>
		<rect x="32.1592" y="30.2109" width="19.5589" height="11.0518" fill="white" stroke="#5B5B5F"/>
		<circle cx="50.4452" cy="44.243" r="1.77232" fill="#5B5B5F"/>
		<rect x="31.6592" y="43.1797" width="3.54464" height="1.41786" rx="0.708928" fill="#5B5B5F"/>
		<rect x="37.3301" y="43.1797" width="3.54464" height="1.41786" rx="0.708928" fill="#5B5B5F"/>
		<line x1="30.2412" y1="46.2246" x2="46.5465" y2="46.2246" stroke="#5B5B5F"/>
		<path d="M46.5469 46.3701C49.495 48.1123 51.0678 48.3114 53.6362 46.3701" stroke="#5B5B5F" fill="white"/>
	</g>
	<!--active-->
	<g class="animation-display">
		<rect x="24.752" y="27.3359" width="35.3411" height="23.8388" rx="1.5" fill="white" stroke="#5B5B5F" stroke-width="3"/>
		<path d="M66.1944 55.8584V58.3091C66.1944 58.5852 65.9705 58.8091 65.6944 58.8091H19.1514C18.8752 58.8091 18.6514 58.5852 18.6514 58.3091V55.8584C18.6514 55.5823 18.8752 55.3584 19.1514 55.3584H40.1224H46.6404H65.6944C65.9705 55.3584 66.1944 55.5823 66.1944 55.8584Z" stroke="#5B5B5F" fill="white"/>
		<path d="M40.1224 55.3584H19.1514C18.8752 55.3584 18.6514 55.5823 18.6514 55.8584V58.3091C18.6514 58.5852 18.8752 58.8091 19.1514 58.8091H65.6944C65.9705 58.8091 66.1944 58.5852 66.1944 58.3091V55.8584C66.1944 55.5823 65.9705 55.3584 65.6944 55.3584H46.6404M40.1224 55.3584V55.6252C40.1224 55.9014 40.3463 56.1252 40.6224 56.1252H46.1404C46.4166 56.1252 46.6404 55.9014 46.6404 55.6252V55.3584M40.1224 55.3584H46.6404" fill="white" stroke="#5B5B5F" stroke-width="3"/>
	</g>
</g>
<defs>
<radialGradient id="paint0_radial" cx="0" cy="0" r="1" gradientUnits="userSpaceOnUse" gradientTransform="translate(42.1869 42.8074) rotate(45) scale(36.4227)">
<stop offset="0.6545" stop-color="white"/>
<stop offset="0.8827" stop-color="#ECEDEF"/>
<stop offset="0.9272" stop-color="white"/>
<stop offset="1" stop-color="#F7F7F8"/>
</radialGradient>
</defs>
</svg>
