<svg width="85" height="85" viewBox="0 0 85 85" fill="none" xmlns="http://www.w3.org/2000/svg">
<g  class="click fault" reference="SPEED">
	<!--flags-->
	<g>
		<path d="M42.8887 84.6885C66.0846 84.6885 84.8887 65.8845 84.8887 42.6885C84.8887 19.4925 66.0846 0.688477 42.8887 0.688477C19.6927 0.688477 0.888672 19.4925 0.888672 42.6885C0.888672 65.8845 19.6927 84.6885 42.8887 84.6885Z"/>
	</g>
	<g>
		<path d="M42.8856 79.115C63.0045 79.115 79.3142 62.8054 79.3142 42.6864C79.3142 22.5674 63.0045 6.25781 42.8856 6.25781C22.7667 6.25781 6.45703 22.5674 6.45703 42.6864C6.45703 62.8054 22.7667 79.115 42.8856 79.115Z" fill="url(#paint0_radial)"/>
	</g>
	<!--auto-->
	<g class="array-1">
		<path fill-rule="evenodd" clip-rule="evenodd" d="M29.4396 39.7652L28.0723 43.9402H30.6115L29.4396 39.7652ZM27.9552 37.7312H30.963L34.4787 48.0439H31.7834L31.1193 45.7244H27.4864L26.8223 48.0439H24.2832L27.9552 37.7312ZM35.1038 37.7312H37.721V44.3327C37.721 45.1178 37.8382 45.6887 38.0726 46.0099C38.2679 46.2954 38.6585 46.4738 39.2445 46.4738C39.7914 46.4738 40.182 46.2954 40.4164 45.9742C40.6507 45.6887 40.7679 45.1178 40.7679 44.3327V37.7312H43.2289V44.0473C43.2289 45.4746 42.9164 46.5095 42.2523 47.1875C41.5883 47.8655 40.5336 48.1866 39.1663 48.1866C37.7991 48.1866 36.7835 47.8655 36.1194 47.1875C35.4553 46.5095 35.1038 45.4746 35.1038 44.0473V37.7312ZM44.5571 37.7312H52.0963V39.5511H49.6353V48.0439H47.0181V39.5511H44.5571V37.7312ZM57.7605 39.2656C57.0964 39.2656 56.6277 39.5867 56.2761 40.2291C55.9245 40.8357 55.7292 41.7278 55.7292 42.8697C55.7292 44.0116 55.9245 44.9037 56.2761 45.5103C56.6277 46.1526 57.0964 46.4738 57.7605 46.4738C58.4246 46.4738 58.9324 46.1526 59.284 45.5103C59.6355 44.9037 59.7918 44.0116 59.7918 42.8697C59.7918 41.7278 59.6355 40.8357 59.284 40.2291C58.9324 39.5867 58.4246 39.2656 57.7605 39.2656ZM57.7605 37.5527C59.284 37.5527 60.4559 38.0166 61.2762 38.9444C62.1356 39.8722 62.5653 41.1925 62.5653 42.8697C62.5653 44.5469 62.1356 45.8672 61.2762 46.795C60.4559 47.7228 59.284 48.1866 57.7605 48.1866C56.237 48.1866 55.0651 47.7228 54.2448 46.795C53.3854 45.8672 52.9948 44.5469 52.9948 42.8697C52.9948 41.1925 53.3854 39.8722 54.2448 38.9444C55.1042 38.0166 56.2761 37.5527 57.7605 37.5527Z" fill="#5B5B5F"/>
	</g>
	<!--speed 3-->
	<g class="array-2">
		<rect x="52.4316" y="30.2539" width="9.63391" height="23.1035" fill="#5B5B5F" stroke="#5B5B5F"/>
		<rect x="38.9619" y="37.3438" width="9.63391" height="16.0143" fill="#5B5B5F" stroke="#5B5B5F"/>
		<rect x="24.7832" y="44.4336" width="9.63391" height="8.92498" fill="#5B5B5F" stroke="#5B5B5F"/>
	</g>
	<!--speed 2-->
	<g class="array-3">
		<rect x="52.4316" y="30.2539" width="9.63391" height="23.1035" fill="white" stroke="#5B5B5F"/>
		<rect x="38.9619" y="37.3438" width="9.63391" height="16.0143" fill="#5B5B5F" stroke="#5B5B5F"/>
		<rect x="24.7832" y="44.4336" width="9.63391" height="8.92498" fill="#5B5B5F" stroke="#5B5B5F"/>
	</g>
	<!--speed 1-->
	<g class="array-4">
		<rect x="52.4316" y="30.2539" width="9.63391" height="23.1035" fill="white" stroke="#5B5B5F"/>
		<rect x="38.9619" y="37.3438" width="9.63391" height="16.0143" fill="white" stroke="#5B5B5F"/>
		<rect x="24.7832" y="44.4336" width="9.63391" height="8.92498" fill="#5B5B5F" stroke="#5B5B5F"/>
	</g>
</g>
<defs>
<radialGradient id="paint0_radial" cx="0" cy="0" r="1" gradientUnits="userSpaceOnUse" gradientTransform="translate(42.889 42.7195) rotate(45) scale(36.4227)">
<stop offset="0.6545" stop-color="white"/>
<stop offset="0.8827" stop-color="#ECEDEF"/>
<stop offset="0.9272" stop-color="white"/>
<stop offset="1" stop-color="#F7F7F8"/>
</radialGradient>
</defs>
</svg>
