<svg width="84" height="84" viewBox="0 0 84 84" fill="none" xmlns="http://www.w3.org/2000/svg">
<g class="fault multi-state-1" reference="SPEED-STATUS">
	<!--auto-->
	<g class="array-1">
		<path fill-rule="evenodd" clip-rule="evenodd" d="M28.9704 38.2124L27.6525 42.3875H30.1L28.9704 38.2124ZM27.5395 36.1784H30.4389L33.8278 46.4912H31.2297L30.5895 44.1717H27.0877L26.4475 46.4912H24L27.5395 36.1784ZM34.4303 36.1784H36.9531V42.78C36.9531 43.5651 37.0661 44.136 37.292 44.4572C37.4803 44.7426 37.8569 44.9211 38.4217 44.9211C38.9488 44.9211 39.3254 44.7426 39.5513 44.4215C39.7772 44.136 39.8902 43.5651 39.8902 42.78V36.1784H42.2624V42.4945C42.2624 43.9219 41.9612 44.9568 41.3211 45.6348C40.6809 46.3128 39.6643 46.6339 38.3464 46.6339C37.0285 46.6339 36.0494 46.3128 35.4093 45.6348C34.7692 44.9568 34.4303 43.9219 34.4303 42.4945V36.1784ZM43.5427 36.1784H50.81V37.9983H48.4378V46.4912H45.9149V37.9983H43.5427V36.1784ZM56.2699 37.7128C55.6298 37.7128 55.1779 38.034 54.839 38.6763C54.5001 39.283 54.3119 40.1751 54.3119 41.317C54.3119 42.4589 54.5001 43.351 54.839 43.9576C55.1779 44.5999 55.6298 44.9211 56.2699 44.9211C56.91 44.9211 57.3995 44.5999 57.7384 43.9576C58.0773 43.351 58.2279 42.4589 58.2279 41.317C58.2279 40.1751 58.0773 39.283 57.7384 38.6763C57.3995 38.034 56.91 37.7128 56.2699 37.7128ZM56.2699 36C57.7384 36 58.8681 36.4639 59.6588 37.3917C60.4872 38.3195 60.9014 39.6398 60.9014 41.317C60.9014 42.9941 60.4872 44.3144 59.6588 45.2422C58.8681 46.17 57.7384 46.6339 56.2699 46.6339C54.8014 46.6339 53.6717 46.17 52.881 45.2422C52.0526 44.3144 51.6761 42.9941 51.6761 41.317C51.6761 39.6398 52.0526 38.3195 52.881 37.3917C53.7094 36.4639 54.839 36 56.2699 36Z"/>
	</g>
	<!--speed-3-->
	<g class="array-2">
		<path d="M47.3125 39.0312C51.1042 40.7604 53 45.3646 53 52.8438C53 58.1979 52.1146 62.1667 50.3438 64.75C48.5729 67.3333 45.7604 68.625 41.9062 68.625C38.0521 68.625 35.3333 67.3854 33.75 64.9062C32.1667 62.4271 31.375 58.5208 31.375 53.1875V50.75H37.625V53.2812C37.625 57.1771 37.8854 59.8021 38.4062 61.1562C38.9479 62.4896 40.125 63.1562 41.9375 63.1562C43.7708 63.1562 45 62.3854 45.625 60.8438C46.2708 59.3021 46.5938 56.5417 46.5938 52.5625C46.5938 48.5625 46.1562 45.7604 45.2812 44.1562C44.4271 42.5312 42.8958 41.7188 40.6875 41.7188H38.9062V36.5625H40.625C42.1667 36.5625 43.3333 36.3125 44.125 35.8125C45.7292 34.8125 46.5312 31.8646 46.5312 26.9688C46.5312 26.9062 46.5312 26.8438 46.5312 26.7812C46.5312 23.1354 46.125 20.7396 45.3125 19.5938C44.5 18.4479 43.375 17.875 41.9375 17.875C40.5208 17.875 39.4792 18.5312 38.8125 19.8438C38.1667 21.1354 37.8438 23.4792 37.8438 26.875V28.1875H31.5V26.7812C31.5 21.8438 32.3021 18.2083 33.9062 15.875C35.5104 13.5417 38.1979 12.375 41.9688 12.375C45.7396 12.375 48.5 13.5729 50.25 15.9688C52 18.3438 52.875 21.9479 52.875 26.7812C52.875 33.5729 51.0208 37.6562 47.3125 39.0312Z"/>
	</g>
	<!--speed-2-->
	<g class="array-3">
		<path d="M33.125 31.3438C33.125 22.7604 34.0208 17.4792 35.8125 15.5C36.5 14.75 37.1979 14.1458 37.9062 13.6875C39.2604 12.8125 41.1562 12.375 43.5938 12.375C49.6146 12.375 52.625 17.4479 52.625 27.5938C52.625 32.6354 51.3229 37.6146 48.7188 42.5312C47.5729 44.6562 46.4167 46.7396 45.25 48.7812C42.3125 53.8646 40.4792 58.6562 39.75 63.1562H51.7812V68H33.5V64.9375C33.5 60.7917 35.5833 54.6771 39.75 46.5938C39.7708 46.5729 40.4479 45.2708 41.7812 42.6875C43.1146 40.1042 43.9167 38.625 44.1875 38.25C44.875 36.9792 45.4271 35.2812 45.8438 33.1562C46.2812 31.0312 46.5 28.875 46.5 26.6875C46.5 24.5 46.3438 22.7083 46.0312 21.3125C45.7188 19.9167 45.3333 19 44.875 18.5625C44.4167 18.1042 43.8646 17.875 43.2188 17.875C42.5938 17.875 42.0833 18 41.6875 18.25C40.1875 19.1667 39.4375 22.2708 39.4375 27.5625V34.7188H33.125V31.3438Z"/>
	</g>
	<!--speed-1-->
	<g class="array-4">
		<path d="M42.0625 12.9688H46.625V68H40.1875V21.6562C39.4792 22.5104 38.4792 23.1771 37.1875 23.6562C35.8958 24.1146 34.625 24.3438 33.375 24.3438V19.8438C35.1458 19.5938 36.8229 18.875 38.4062 17.6875C40.0104 16.5 41.2292 14.9271 42.0625 12.9688Z"/>
	</g>
</g>
</svg>
