<svg width="65" height="174" viewBox="0 0 65 174" fill="none" xmlns="http://www.w3.org/2000/svg">
    
<g class="fault inactive" reference="GUN">
<g class="animation-fail-alt">  
<path fill-rule="evenodd" clip-rule="evenodd" d="M27.8434 22.3815L28.4597 22.8359L28.6935 23.241L28.8943 24.6104L29.1552 25.675L30.0322 27.1941L31.2346 28.2552L32.3186 29.5197L33.1956 31.0388L34.1849 33.9783L34.3227 36.4642L35.1428 37.476L35.669 38.3875L36.0767 39.5023L37.3854 50.8019C35.296 57.8429 32.0029 59.9707 23.3123 61.3197L21.9299 61.1726L21.2852 60.4646L20.819 59.2485L17.6446 42.7177L17.3523 42.2113L17.0599 41.705L15.0059 40.1904L14.5381 39.3802L14.4812 38.873L15.1865 31.3094L15.4549 30.3442L16.0773 29.1747L17.2019 27.4452L18.502 26.0195L20.6252 24.7936L21.4891 21.9994L21.756 21.4403L22.4638 21.0316L22.8461 21.0809L27.8434 22.3815ZM29.6736 39.5817L32.0246 40.3847L32.5224 41.0426L33.7333 47.6348C32.8552 52.6495 30.8847 54.3476 25.4336 55.9373L23.6624 41.837L29.6736 39.5817Z" fill="#BA4545"/>
<path d="M28.4597 22.8359L28.503 22.8109L28.4977 22.8019L28.4893 22.7957L28.4597 22.8359ZM27.8434 22.3815L27.8731 22.3413L27.8654 22.3356L27.856 22.3332L27.8434 22.3815ZM28.6935 23.241L28.743 23.2338L28.7416 23.2243L28.7368 23.216L28.6935 23.241ZM28.8943 24.6104L28.8446 24.6177L28.8458 24.6223L28.8943 24.6104ZM29.1552 25.675L29.1046 25.6874L29.1119 25.7L29.1552 25.675ZM30.0322 27.1941L29.9889 27.2191L29.993 27.2262L29.9991 27.2316L30.0322 27.1941ZM31.2346 28.2552L31.2729 28.2223L31.2677 28.2177L31.2346 28.2552ZM32.3186 29.5197L32.3626 29.4943L32.3565 29.4872L32.3186 29.5197ZM33.1956 31.0388L33.2439 31.0225L33.2389 31.0138L33.1956 31.0388ZM34.1849 33.9783L34.2367 33.9754L34.2323 33.9623L34.1849 33.9783ZM34.3227 36.4642L34.2728 36.467L34.2737 36.4831L34.2838 36.4957L34.3227 36.4642ZM35.1428 37.476L35.1866 37.4507L35.1816 37.4446L35.1428 37.476ZM35.669 38.3875L35.7167 38.37L35.7123 38.3625L35.669 38.3875ZM36.0767 39.5023L36.1278 39.4964L36.1237 39.4851L36.0767 39.5023ZM37.3854 50.8019L37.4333 50.8161L37.4363 50.8063L37.4351 50.7961L37.3854 50.8019ZM23.3123 61.3197L23.3069 61.3711L23.32 61.3691L23.3123 61.3197ZM21.9299 61.1726L21.8929 61.2063L21.9057 61.2203L21.9246 61.2223L21.9299 61.1726ZM21.2852 60.4646L21.2385 60.4825L21.2419 60.4913L21.2483 60.4983L21.2852 60.4646ZM20.819 59.2485L20.7691 59.2581L20.7723 59.2664L20.819 59.2485ZM17.6446 42.7177L17.6937 42.7082L17.6921 42.7L17.6879 42.6927L17.6446 42.7177ZM17.3523 42.2113L17.309 42.2363L17.3523 42.2113ZM17.0599 41.705L17.1032 41.68L17.098 41.6709L17.0896 41.6647L17.0599 41.705ZM15.0059 40.1904L14.9626 40.2154L14.9678 40.2244L14.9762 40.2306L15.0059 40.1904ZM14.5381 39.3802L14.4884 39.3858L14.4896 39.3961L14.4948 39.4052L14.5381 39.3802ZM14.4812 38.873L14.4303 38.8682L14.4315 38.8785L14.4812 38.873ZM15.1865 31.3094L15.1375 31.2958L15.1367 31.3047L15.1865 31.3094ZM15.4549 30.3442L15.4097 30.3202L15.4068 30.3308L15.4549 30.3442ZM16.0773 29.1747L16.0352 29.1474L16.0331 29.1513L16.0773 29.1747ZM17.2019 27.4452L17.1645 27.4111L17.16 27.418L17.2019 27.4452ZM18.502 26.0195L18.477 25.9762L18.4703 25.9801L18.4651 25.9858L18.502 26.0195ZM20.6252 24.7936L20.6502 24.8369L20.6672 24.8271L20.673 24.8084L20.6252 24.7936ZM21.4891 21.9994L21.4435 21.9777L21.4413 21.9847L21.4891 21.9994ZM21.756 21.4403L21.731 21.397L21.7176 21.4047L21.7109 21.4187L21.756 21.4403ZM22.4638 21.0316L22.4702 20.982L22.4534 20.9799L22.4388 20.9883L22.4638 21.0316ZM22.8461 21.0809L22.8588 21.0322L22.8525 21.0314L22.8461 21.0809ZM32.0246 40.3847L32.0645 40.3546L32.0553 40.3424L32.0408 40.3374L32.0246 40.3847ZM29.6736 39.5817L29.6898 39.5343L29.6729 39.5286L29.6561 39.5348L29.6736 39.5817ZM32.5224 41.0426L32.5715 41.0335L32.5694 41.0219L32.5622 41.0124L32.5224 41.0426ZM33.7333 47.6348L33.7826 47.6434L33.7841 47.6346L33.7825 47.6258L33.7333 47.6348ZM25.4336 55.9373L25.384 55.9436L25.3913 56.0018L25.4476 55.9853L25.4336 55.9373ZM23.6624 41.837L23.6449 41.7902L23.6079 41.804L23.6128 41.8432L23.6624 41.837ZM28.4893 22.7957L27.8731 22.3413L27.8138 22.4218L28.43 22.8762L28.4893 22.7957ZM28.7368 23.216L28.503 22.8109L28.4164 22.8609L28.6502 23.266L28.7368 23.216ZM28.9438 24.6031L28.743 23.2338L28.6441 23.2483L28.8449 24.6176L28.9438 24.6031ZM29.2037 25.6631L28.9429 24.5985L28.8458 24.6223L29.1066 25.6869L29.2037 25.6631ZM30.0755 27.1691L29.1985 25.65L29.1119 25.7L29.9889 27.2191L30.0755 27.1691ZM31.2677 28.2177L30.0653 27.1566L29.9991 27.2316L31.2015 28.2927L31.2677 28.2177ZM32.3565 29.4872L31.2726 28.2227L31.1966 28.2877L32.2806 29.5523L32.3565 29.4872ZM33.2389 31.0138L32.3619 29.4947L32.2753 29.5447L33.1523 31.0638L33.2389 31.0138ZM34.2323 33.9623L33.243 31.0228L33.1482 31.0547L34.1376 33.9942L34.2323 33.9623ZM34.3726 36.4615L34.2349 33.9755L34.135 33.981L34.2728 36.467L34.3726 36.4615ZM35.1816 37.4446L34.3615 36.4327L34.2838 36.4957L35.1039 37.5075L35.1816 37.4446ZM35.7123 38.3625L35.1861 37.451L35.0995 37.501L35.6257 38.4125L35.7123 38.3625ZM36.1237 39.4851L35.7159 38.3703L35.622 38.4046L36.0298 39.5195L36.1237 39.4851ZM37.4351 50.7961L36.1264 39.4966L36.0271 39.5081L37.3357 50.8076L37.4351 50.7961ZM23.32 61.3691C27.6666 60.6944 30.6727 59.8239 32.8537 58.2357C35.0368 56.6461 36.387 54.3422 37.4333 50.8161L37.3375 50.7877C36.2944 54.3027 34.9533 56.5832 32.7949 58.1549C30.6343 59.7281 27.6486 60.596 23.3047 61.2703L23.32 61.3691ZM21.9246 61.2223L23.307 61.3694L23.3176 61.2699L21.9352 61.1229L21.9246 61.2223ZM21.2483 60.4983L21.8929 61.2063L21.9669 61.139L21.3222 60.431L21.2483 60.4983ZM20.7723 59.2664L21.2385 60.4825L21.3319 60.4467L20.8657 59.2306L20.7723 59.2664ZM17.5955 42.7271L20.7699 59.2579L20.8681 59.2391L17.6937 42.7082L17.5955 42.7271ZM17.309 42.2363L17.6013 42.7427L17.6879 42.6927L17.3956 42.1863L17.309 42.2363ZM17.0166 41.73L17.309 42.2363L17.3956 42.1863L17.1032 41.68L17.0166 41.73ZM14.9762 40.2306L17.0302 41.7452L17.0896 41.6647L15.0356 40.1501L14.9762 40.2306ZM14.4948 39.4052L14.9626 40.2154L15.0492 40.1654L14.5814 39.3552L14.4948 39.4052ZM14.4315 38.8785L14.4884 39.3858L14.5878 39.3746L14.5309 38.8674L14.4315 38.8785ZM15.1367 31.3047L14.4314 38.8683L14.531 38.8776L15.2363 31.314L15.1367 31.3047ZM15.4068 30.3308L15.1383 31.296L15.2347 31.3228L15.5031 30.3576L15.4068 30.3308ZM16.0331 29.1513L15.4108 30.3207L15.4991 30.3677L16.1214 29.1982L16.0331 29.1513ZM17.16 27.418L16.0354 29.1475L16.1192 29.202L17.2439 27.4725L17.16 27.418ZM18.4651 25.9858L17.165 27.4115L17.2389 27.4789L18.539 26.0532L18.4651 25.9858ZM20.6002 24.7503L18.477 25.9762L18.527 26.0628L20.6502 24.8369L20.6002 24.7503ZM21.4413 21.9847L20.5775 24.7789L20.673 24.8084L21.5369 22.0142L21.4413 21.9847ZM21.7109 21.4187L21.444 21.9779L21.5342 22.021L21.8012 21.4618L21.7109 21.4187ZM22.4388 20.9883L21.731 21.397L21.781 21.4836L22.4888 21.0749L22.4388 20.9883ZM22.8525 21.0314L22.4702 20.982L22.4574 21.0812L22.8397 21.1305L22.8525 21.0314ZM27.856 22.3332L22.8587 21.0326L22.8335 21.1293L27.8309 22.4299L27.856 22.3332ZM32.0408 40.3374L29.6898 39.5343L29.6575 39.629L32.0084 40.4321L32.0408 40.3374ZM32.5622 41.0124L32.0645 40.3546L31.9847 40.4149L32.4825 41.0727L32.5622 41.0124ZM33.7825 47.6258L32.5715 41.0335L32.4732 41.0516L33.6842 47.6438L33.7825 47.6258ZM25.4476 55.9853C28.1747 55.19 30.0402 54.3653 31.3332 53.1063C32.6276 51.8458 33.3427 50.1558 33.7826 47.6434L33.6841 47.6262C33.2459 50.1285 32.5366 51.7949 31.2635 53.0346C29.9889 54.2757 28.1436 55.0949 25.4196 55.8893L25.4476 55.9853ZM23.6128 41.8432L25.384 55.9436L25.4832 55.9311L23.7121 41.8308L23.6128 41.8432ZM29.6561 39.5348L23.6449 41.7902L23.68 41.8838L29.6912 39.6285L29.6561 39.5348Z" fill="black"/>
<path d="M24.9891 41.4275C24.4648 43.1345 24.3402 44.6039 24.3782 44.9421L24.7559 46.2093L26.7185 48.5869L29.1787 51.6223L30.0588 52.3295L30.3242 52.1762L30.2388 51.4154L29.771 50.6052L26.4338 46.0507L25.9975 44.6823L26.6499 43.3605L27.893 41.4275L28.8848 39.8019L24.9891 41.4275Z" fill="#2F3235"/>
<path d="M29.2388 14.4686C29.0898 14.9597 28.5455 17.2724 27.5603 22.5941C25.2635 22.8497 24.1347 22.5881 22.5045 21.1922L25.1784 14.3824L26.3331 12.5005L26.9839 11.5847L27.8701 10.6679L36.8853 2.30182C38.3433 2.64368 38.7452 3.21537 39.0155 4.63824L29.978 13.5017L29.2388 14.4686Z" fill="black"/>
<path d="M34.3849 164.802C34.3849 159.802 34.3205 80.8018 34.3205 80.8018H38.8205C38.8205 80.8018 38.385 161.302 38.3853 167.802C38.3855 174.302 23.8853 175.302 23.8849 167.802C23.8846 160.302 23.8849 61.8018 23.8849 61.8018L27.8849 60.8018V164.802C27.8849 170.302 34.3849 169.802 34.3849 164.802Z" fill="black"/>
</g>
</g>
</svg>
