<svg width="65" height="174" viewBox="0 0 65 174" fill="none" xmlns="http://www.w3.org/2000/svg">
    
<g class="fault inactive" reference="GUN">
<g class="animation-fail-alt">     
<path fill-rule="evenodd" clip-rule="evenodd" d="M27.8434 22.3815L28.4597 22.8359L28.6935 23.241L28.8943 24.6104L29.1552 25.675L30.0322 27.1941L31.2346 28.2552L32.3186 29.5197L33.1956 31.0388L34.1849 33.9783L34.3227 36.4642L35.1428 37.476L35.669 38.3875L36.0767 39.5023L37.3854 50.8019C35.296 57.8429 32.0029 59.9707 23.3123 61.3197L21.9299 61.1726L21.2852 60.4646L20.819 59.2485L17.6446 42.7177L17.3523 42.2113L17.0599 41.705L15.0059 40.1904L14.5381 39.3802L14.4812 38.873L15.1865 31.3094L15.4549 30.3442L16.0773 29.1747L17.2019 27.4452L18.502 26.0195L20.6252 24.7936L21.4891 21.9994L21.756 21.4403L22.4638 21.0316L22.8461 21.0809L27.8434 22.3815ZM29.6736 39.5817L32.0246 40.3847L32.5224 41.0426L33.7333 47.6348C32.8552 52.6495 30.8847 54.3476 25.4336 55.9373L23.6624 41.837L29.6736 39.5817Z" fill="#4F4F4F"/>
<path d="M24.9891 41.4275C24.4648 43.1345 24.3402 44.6039 24.3782 44.9421L24.7559 46.2093L26.7185 48.5869L29.1787 51.6223L30.0588 52.3295L30.3242 52.1762L30.2388 51.4154L29.771 50.6052L26.4338 46.0507L25.9975 44.6823L26.6499 43.3605L27.893 41.4275L28.8848 39.8019L24.9891 41.4275Z" fill="#2F3235"/>
<path d="M29.2388 14.4686C29.0898 14.9597 28.5455 17.2724 27.5603 22.5941C25.2635 22.8497 24.1347 22.5881 22.5045 21.1922L25.1784 14.3824L26.3331 12.5005L26.9839 11.5847L27.8701 10.6679L36.8853 2.30182C38.3433 2.64368 38.7452 3.21537 39.0155 4.63824L29.978 13.5017L29.2388 14.4686Z" fill="black"/>
<path d="M34.3849 164.802C34.3849 159.802 34.3205 80.8018 34.3205 80.8018H38.8205C38.8205 80.8018 38.385 161.302 38.3853 167.802C38.3855 174.302 23.8853 175.302 23.8849 167.802C23.8846 160.302 23.8849 61.8018 23.8849 61.8018L27.8849 60.8018V164.802C27.8849 170.302 34.3849 169.802 34.3849 164.802Z" fill="black"/>
</g>
</g>
</svg>
