<svg width="46" height="46" viewBox="0 0 46 46" fill="none" xmlns="http://www.w3.org/2000/svg">
<g class="click fault inactive" reference="ON">
<path d="M23 44C34.598 44 44 34.598 44 23C44 11.402 34.598 2 23 2C11.402 2 2 11.402 2 23C2 34.598 11.402 44 23 44Z" stroke="#4CD964" stroke-width="2.5"/>
<circle cx="23" cy="23" r="20" fill="#2F3235"/>
<g class="animation-hide">
<path fill-rule="evenodd" clip-rule="evenodd" d="M18.8278 13.1929C17.9801 13.4438 17.9801 14.8486 18.7483 15.1747H18.351C17.5298 15.1747 17.2384 16.128 17.5298 16.7552C17.1854 18.6618 16.2583 20.0917 15.3046 21.4965C14.1391 23.2777 13 25.0087 13 27.5424C13 30.1514 14.1391 32.5346 15.9404 34.2405C17.7417 35.9464 20.2318 37 22.9868 37C25.7682 37 28.2583 35.9464 30.0596 34.2405C31.8609 32.5346 33 30.1514 33 27.5424C33 24.7829 31.8344 23.1021 30.6424 21.3962C29.7417 20.0666 28.7881 18.6869 28.4702 16.7552C28.7616 16.128 28.4702 15.1747 27.649 15.1747H27.2517C28.0199 14.8486 28.0199 13.4438 27.1722 13.1929C28.0464 12.942 28.0464 11.4369 27.1722 11.1609C28.1258 10.8849 28.0464 9.10381 26.9073 9.10381H26.7483C26.7483 8.85294 26.2715 8.65225 25.5298 8.5519C25.106 8.50173 24.6026 8.45156 24.0199 8.42647V8.40138C24.0199 8.17561 23.5695 8 22.9868 8C22.4305 8 21.9801 8.17561 21.9801 8.40138V8.42647C21.3974 8.45156 20.894 8.50173 20.4702 8.5519C19.7285 8.65225 19.2517 8.85294 19.2517 9.10381H19.0927C17.9536 9.10381 17.8742 10.8849 18.8278 11.1609C17.9536 11.4369 17.9536 12.942 18.8278 13.1929ZM23.9139 17.9343C24.9205 17.9593 25.9536 18.0095 27.1722 18.0848C27.543 19.8659 28.4172 21.1202 29.2649 22.3746C30.298 23.8547 31.2781 25.2846 31.2781 27.5926C31.2781 29.75 30.351 31.7318 28.8411 33.1618C27.3311 34.5666 25.2649 35.4697 22.9603 35.4697C20.6556 35.4697 18.5894 34.5666 17.0795 33.1618C15.5695 31.7318 14.6424 29.75 14.6424 27.5926C14.6424 25.4853 15.6225 23.9801 16.6291 22.4498C17.5033 21.1704 18.351 19.8408 18.7483 18.0848C19.9669 18.0095 21 17.9593 22.0066 17.9343C21.9536 19.8408 21.7947 21.622 21.4768 23.3279C21.1854 25.0087 20.3642 27.2163 20.2053 28.1194C20.0199 28.9974 20.0199 28.7967 20.6026 28.295C21.1854 27.7933 22.245 26.3131 22.9603 26.3131C23.8609 26.3131 24.7881 27.7682 25.2914 28.2699C25.7682 28.7716 25.8742 29.0978 25.7682 28.0943C25.6623 27.1159 24.7616 25.0087 24.4437 23.3279C24.1523 21.622 23.9669 19.8408 23.9139 17.9343Z" fill="#4CD964"/>
</g>
<g class="animation-display">
<path fill-rule="evenodd" clip-rule="evenodd" d="M18.8278 13.1929C17.9801 13.4438 17.9801 14.8486 18.7483 15.1747H18.351C17.5298 15.1747 17.2384 16.128 17.5298 16.7552C17.1854 18.6618 16.2583 20.0917 15.3046 21.4965C14.1391 23.2777 13 25.0087 13 27.5424C13 30.1514 14.1391 32.5346 15.9404 34.2405C17.7417 35.9464 20.2318 37 22.9868 37C25.7682 37 28.2583 35.9464 30.0596 34.2405C31.8609 32.5346 33 30.1514 33 27.5424C33 24.7829 31.8344 23.1021 30.6424 21.3962C29.7417 20.0666 28.7881 18.6869 28.4702 16.7552C28.7616 16.128 28.4702 15.1747 27.649 15.1747H27.2517C28.0199 14.8486 28.0199 13.4438 27.1722 13.1929C28.0464 12.942 28.0464 11.4369 27.1722 11.1609C28.1258 10.8849 28.0464 9.10381 26.9073 9.10381H26.7483C26.7483 8.85294 26.2715 8.65225 25.5298 8.5519C25.106 8.50173 24.6026 8.45156 24.0199 8.42647V8.40138C24.0199 8.17561 23.5695 8 22.9868 8C22.4305 8 21.9801 8.17561 21.9801 8.40138V8.42647C21.3974 8.45156 20.894 8.50173 20.4702 8.5519C19.7285 8.65225 19.2517 8.85294 19.2517 9.10381H19.0927C17.9536 9.10381 17.8742 10.8849 18.8278 11.1609C17.9536 11.4369 17.9536 12.942 18.8278 13.1929ZM23.9139 17.9343C24.9205 17.9593 25.9536 18.0095 27.1722 18.0848C27.543 19.8659 28.4172 21.1202 29.2649 22.3746C30.298 23.8547 31.2781 25.2846 31.2781 27.5926C31.2781 29.75 30.351 31.7318 28.8411 33.1618C27.3311 34.5666 25.2649 35.4697 22.9603 35.4697C20.6556 35.4697 18.5894 34.5666 17.0795 33.1618C15.5695 31.7318 14.6424 29.75 14.6424 27.5926C14.6424 25.4853 15.6225 23.9801 16.6291 22.4498C17.5033 21.1704 18.351 19.8408 18.7483 18.0848C19.9669 18.0095 21 17.9593 22.0066 17.9343C21.9536 19.8408 21.7947 21.622 21.4768 23.3279C21.1854 25.0087 20.3642 27.2163 20.2053 28.1194C20.0199 28.9974 20.0199 28.7967 20.6026 28.295C21.1854 27.7933 22.245 26.3131 22.9603 26.3131C23.8609 26.3131 24.7881 27.7682 25.2914 28.2699C25.7682 28.7716 25.8742 29.0978 25.7682 28.0943C25.6623 27.1159 24.7616 25.0087 24.4437 23.3279C24.1523 21.622 23.9669 19.8408 23.9139 17.9343Z" fill="#E6C02A"/>

</g>
</g>

</svg>
