<svg width="94" height="53" viewBox="0 0 94 53" fill="none" xmlns="http://www.w3.org/2000/svg">
<g class="fault" format="%.1f" reference="LITR">
<g transform="translate(45,25)">
<text font-size="24px" font-family="Antonio" text-anchor="middle">...</text>
</g>
</g><path d="M31.1421 49H29.0561V42.924H27.1381C27.0168 44.4173 26.8534 45.6213 26.6481 46.536C26.4521 47.4413 26.1768 48.104 25.8221 48.524C25.4674 48.9347 24.9914 49.14 24.3941 49.14C23.9088 49.14 23.5121 49.0653 23.2041 48.916V47.25C23.4188 47.3433 23.6428 47.39 23.8761 47.39C24.0441 47.39 24.1981 47.306 24.3381 47.138C24.4781 46.97 24.6088 46.6667 24.7301 46.228C24.8608 45.7893 24.9774 45.178 25.0801 44.394C25.1828 43.6007 25.2761 42.588 25.3601 41.356H31.1421V49ZM35.3355 44.38C35.3355 44.5387 35.3262 44.7347 35.3075 44.968C35.2982 45.2013 35.2842 45.4393 35.2655 45.682C35.2562 45.9247 35.2422 46.1393 35.2235 46.326C35.2049 46.5127 35.1909 46.6433 35.1815 46.718L38.7095 41.356H41.2155V49H39.1995V45.948C39.1995 45.696 39.2089 45.4207 39.2275 45.122C39.2462 44.814 39.2649 44.5293 39.2835 44.268C39.3115 43.9973 39.3302 43.792 39.3395 43.652L35.8255 49H33.3195V41.356H35.3355V44.38ZM49.7237 42.924H47.2177V49H45.1317V42.924H42.6257V41.356H49.7237V42.924ZM55.39 41.216C56.2487 41.216 56.944 41.552 57.476 42.224C58.008 42.8867 58.274 43.8667 58.274 45.164C58.274 46.4613 57.9987 47.4507 57.448 48.132C56.8973 48.804 56.1927 49.14 55.334 49.14C54.7833 49.14 54.3447 49.042 54.018 48.846C53.6913 48.6407 53.4253 48.412 53.22 48.16H53.108C53.1827 48.552 53.22 48.9253 53.22 49.28V52.36H51.134V41.356H52.828L53.122 42.35H53.22C53.4253 42.042 53.7007 41.776 54.046 41.552C54.3913 41.328 54.8393 41.216 55.39 41.216ZM54.718 42.882C54.1767 42.882 53.794 43.05 53.57 43.386C53.3553 43.722 53.2387 44.2353 53.22 44.926V45.15C53.22 45.8873 53.3273 46.4567 53.542 46.858C53.766 47.25 54.1673 47.446 54.746 47.446C55.222 47.446 55.572 47.25 55.796 46.858C56.0293 46.4567 56.146 45.8827 56.146 45.136C56.146 43.6333 55.67 42.882 54.718 42.882ZM59.9934 49V41.356H62.0794V44.31H63.0874C64.254 44.31 65.1174 44.4967 65.6774 44.87C66.2374 45.2433 66.5174 45.808 66.5174 46.564C66.5174 47.3013 66.256 47.894 65.7334 48.342C65.2107 48.7807 64.352 49 63.1574 49H59.9934ZM67.6234 49V41.356H69.7094V49H67.6234ZM63.0454 47.558C63.456 47.558 63.7874 47.4833 64.0394 47.334C64.3007 47.1847 64.4314 46.9373 64.4314 46.592C64.4314 46.032 63.96 45.752 63.0174 45.752H62.0794V47.558H63.0454Z" fill="#FF9500"/>
</svg>
