<svg width="30" height="307" viewBox="0 0 30 307" fill="none" xmlns="http://www.w3.org/2000/svg">
<g class="fault inactive" reference="STATE">
<g class="animation-display"> 
<rect width="30" height="307" fill="#BA4545"/>
<path d="M20 49.3664V47.1721L10.1357 50.6037V53.0305L20 56.4553V54.3361L17.6074 53.5842V50.1184L20 49.3664ZM12.0225 51.8752V51.8274L16.0625 50.5627V53.1399L12.0225 51.8752ZM20 39.4748V37.4172H10.1357V39.4065L16.8145 43.884V43.966H10.1357V46.0236H20V44.0344L13.3281 39.5568V39.4748H20ZM16.8623 31.1828H15.1191V35.674H16.8623V31.1828ZM20.2188 26.0149C20.2188 23.4172 18.25 21.8723 14.9824 21.8723C13.6631 21.8723 12.5557 22.1525 11.7148 22.6994C10.5459 23.383 9.91016 24.5656 9.91016 25.9875C9.91016 28.1887 11.3594 29.7883 13.3896 29.7883C15.2627 29.7883 16.6436 28.3732 16.6436 26.5139C16.6436 25.215 15.9941 24.2443 15.0303 23.8889V23.882V23.8684C15.0303 23.8684 15.0303 23.8547 15.0303 23.8479C17.293 23.7932 18.585 24.6203 18.585 25.9807C18.585 26.7736 18.1475 27.4231 17.4844 27.6213V29.6584C19.0977 29.385 20.2188 27.9016 20.2188 26.0149ZM15.0918 25.9738C15.0918 26.9992 14.3398 27.7717 13.3281 27.7717C12.3369 27.7717 11.5576 26.9719 11.5576 25.9602C11.5576 24.9553 12.3369 24.1691 13.3418 24.1691C14.3398 24.1691 15.0918 24.9484 15.0918 25.9738ZM20.2188 16.7248C20.2188 14.3527 19.043 12.7258 17.334 12.7258C16.0352 12.7258 15.0303 13.6623 14.7979 15.0432H14.7568C14.4834 13.8947 13.6016 13.1291 12.5283 13.1291C11.0107 13.1291 9.91699 14.6057 9.91699 16.7248C9.91699 18.8371 11.0176 20.3274 12.5215 20.3274C13.6084 20.3274 14.4902 19.5549 14.7568 18.4065H14.7979C15.0234 19.7805 16.0283 20.7238 17.3271 20.7238C19.0361 20.7238 20.2188 19.1174 20.2188 16.7248ZM18.7148 16.7248C18.7148 17.8117 18.0654 18.5705 17.1768 18.5705C16.2881 18.5705 15.6387 17.8117 15.6387 16.7248C15.6387 15.6379 16.2881 14.8859 17.1768 14.8859C18.0654 14.8859 18.7148 15.6379 18.7148 16.7248ZM14.1348 16.7248C14.1348 17.6408 13.5605 18.2834 12.7744 18.2834C11.9883 18.2834 11.4072 17.6408 11.4072 16.7248C11.4072 15.8156 11.9814 15.1662 12.7744 15.1662C13.5605 15.1662 14.1348 15.8156 14.1348 16.7248Z" fill="white"/>
<rect x="4" y="122" width="22" height="74" fill="#75787A"/>
<path d="M11 196H19V295.055C16.0064 296.21 14.2796 296.416 11 295.055V196Z" fill="#75787A"/>
</g>
</g>
</svg>
