<svg width="30" height="307" viewBox="0 0 30 307" fill="none" xmlns="http://www.w3.org/2000/svg">
<g class="fault inactive" reference="STATE">
<g class="animation-display"> 
<rect width="30" height="307" fill="#4E87C5"/>
<path d="M20 47.9021V45.7077L10.1357 49.1394V51.5661L20 54.9909V52.8718L17.6074 52.1198V48.654L20 47.9021ZM12.0225 50.4108V50.363L16.0625 49.0983V51.6755L12.0225 50.4108ZM20 38.0105V35.9528H10.1357V37.9421L16.8145 42.4196V42.5017H10.1357V44.5593H20V42.57L13.3281 38.0925V38.0105H20ZM16.8623 29.7185H15.1191V34.2097H16.8623V29.7185ZM20.2188 24.5505C20.2188 21.9528 18.25 20.4079 14.9824 20.4079C13.6631 20.4079 12.5557 20.6882 11.7148 21.2351C10.5459 21.9187 9.91016 23.1013 9.91016 24.5232C9.91016 26.7243 11.3594 28.3239 13.3896 28.3239C15.2627 28.3239 16.6436 26.9089 16.6436 25.0495C16.6436 23.7507 15.9941 22.78 15.0303 22.4245V22.4177V22.404C15.0303 22.404 15.0303 22.3903 15.0303 22.3835C17.293 22.3288 18.585 23.156 18.585 24.5163C18.585 25.3093 18.1475 25.9587 17.4844 26.1569V28.194C19.0977 27.9206 20.2188 26.4372 20.2188 24.5505ZM15.0918 24.5095C15.0918 25.5349 14.3398 26.3073 13.3281 26.3073C12.3369 26.3073 11.5576 25.5075 11.5576 24.4958C11.5576 23.4909 12.3369 22.7048 13.3418 22.7048C14.3398 22.7048 15.0918 23.4841 15.0918 24.5095ZM20.2188 15.404C20.2188 13.1413 18.7969 11.5964 16.7051 11.5964C14.7842 11.5964 13.3965 12.9499 13.3965 14.8366C13.3965 15.8415 13.8135 16.6276 14.4766 17.031V17.072L11.7764 16.8464V12.1911H10.1357V18.4665L15.8096 18.9519V17.1062C15.2422 16.7644 14.9004 16.1218 14.9004 15.3767C14.9004 14.3103 15.666 13.5651 16.7598 13.5651C17.833 13.5651 18.585 14.3103 18.585 15.3903C18.585 16.3474 18.0107 17.0857 17.1768 17.2019V19.1091C18.9609 19.0476 20.2188 17.5232 20.2188 15.404Z" fill="white"/>
<path d="M11 196H19V295.055C16.0064 296.21 14.2796 296.416 11 295.055V196Z" fill="#75787A"/>
<rect x="4" y="122" width="22" height="74" fill="#75787A"/>
</g>
</g>
</svg>
