<svg width="30" height="307" viewBox="0 0 30 307" fill="none" xmlns="http://www.w3.org/2000/svg">
    <g class="fault inactive" reference="STATE">
<g class="animation-display"> 
<rect width="30" height="307" fill="#4F4F4F"/>
<path d="M14.8643 27.1621L10.8311 26.9023V23.792H17.291V27.8184H17.2363C16.7236 27.3809 15.9648 27.2373 14.8643 27.1621ZM19 28.8506V22.3633H20.9482V20.4971H17.291V21.7275H9.13574V28.7207L14.707 29.0625C16.0469 29.1445 16.8193 29.3428 17.291 30.0332V30.7236H20.9482L20.9482 28.8506H19ZM19 15.2471H10.8379V12.3897H9.13574V20.1621H10.8379V17.3115H19V15.2471Z" fill="white"/>
<rect x="4" y="122" width="22" height="74" fill="#75787A"/>
<path d="M11 196H19V295.055C16.0064 296.21 14.2796 296.416 11 295.055V196Z" fill="#75787A"/>
</g>
</g>
</svg>
