<svg width="117" height="230" viewBox="0 0 117 230" fill="none" xmlns="http://www.w3.org/2000/svg">
<path d="M117 13.9086L117 219.037C71.311 233.322 45.6884 232.5 9.72371e-05 219.037L9.75413e-05 212.077L0.000106204 13.9086C14 -0.422928 78 -8.42293 117 13.9086Z" fill="url(#paint0_linear)"/>
<rect x="110.612" y="24.577" width="192" height="102.211" transform="rotate(90 110.612 24.577)" fill="#333333"/>
<path d="M43.3253 17.5771L42.5973 15.1971H38.9573L38.2293 17.5771H35.9473L39.4753 7.53909H42.0653L45.6073 17.5771H43.3253ZM42.0933 13.4191L41.3653 11.0951C41.3186 10.9364 41.2579 10.7358 41.1833 10.4931C41.1086 10.2504 41.0339 10.0031 40.9593 9.75109C40.8846 9.49909 40.8239 9.27975 40.7773 9.09309C40.7306 9.27975 40.6653 9.51309 40.5813 9.79309C40.5066 10.0638 40.4319 10.3251 40.3573 10.5771C40.2919 10.8198 40.2406 10.9924 40.2033 11.0951L39.4893 13.4191H42.0933ZM46.8733 7.58109H48.7773V12.4111C48.7773 12.6444 48.7726 12.9058 48.7633 13.1951C48.7539 13.4844 48.7446 13.7691 48.7353 14.0491C48.7259 14.3198 48.7166 14.5578 48.7073 14.7631C48.6979 14.9591 48.6886 15.0944 48.6793 15.1691H48.7213L53.3413 7.58109H55.8753V17.5771H53.9853V12.7751C53.9853 12.5231 53.9899 12.2478 53.9993 11.9491C54.0086 11.6411 54.0179 11.3471 54.0273 11.0671C54.0459 10.7871 54.0599 10.5444 54.0693 10.3391C54.0879 10.1244 54.1019 9.98442 54.1113 9.91909H54.0553L49.4213 17.5771H46.8733V7.58109ZM57.7471 13.0585V11.8622H61.0146V13.0585H57.7471ZM66.7188 14.4716C66.7188 15.6396 66.5449 16.4697 66.1973 16.9619C65.8496 17.4501 65.3086 17.6943 64.5742 17.6943C63.8398 17.6943 63.3027 17.4931 62.9629 17.0908C62.623 16.6884 62.4512 16.0244 62.4473 15.0986V14.5361H63.9297V14.7529C63.9336 15.3896 63.9766 15.8154 64.0586 16.0302C64.1445 16.2411 64.3047 16.3466 64.5391 16.3466C64.7734 16.3466 64.918 16.2997 64.9727 16.206C65.0273 16.1083 65.0723 16.0146 65.1074 15.9247C65.1426 15.831 65.1602 15.5263 65.1602 15.0107V13.4697C64.9453 13.6142 64.627 13.6865 64.2051 13.6865C63.5098 13.6865 63.0156 13.4345 62.7227 12.9306C62.4336 12.4267 62.2891 11.663 62.2891 10.6396V10.2646C62.2891 8.98334 62.5098 8.12201 62.9512 7.6806C63.3105 7.32123 63.8223 7.14154 64.4863 7.14154C65.1543 7.14154 65.6445 7.27045 65.957 7.52826C66.2734 7.78217 66.4785 8.13568 66.5723 8.58881C66.6699 9.04193 66.7188 9.62982 66.7188 10.3525V14.4716ZM64.498 12.3974C64.8848 12.3974 65.1055 12.2294 65.1602 11.8935V9.93646C65.1602 9.42865 65.1133 9.06342 65.0195 8.84076C64.9297 8.6181 64.7539 8.50677 64.4922 8.50677C64.2344 8.50677 64.0586 8.62006 63.9648 8.84662C63.8711 9.07318 63.8242 9.44232 63.8242 9.95404V10.874C63.8242 11.4443 63.8691 11.8408 63.959 12.0634C64.0527 12.2861 64.2324 12.3974 64.498 12.3974ZM70.2344 17.6943C68.8711 17.6943 68.1895 16.9853 68.1895 15.5673V14.2724H69.6602V15.4033C69.6602 15.8798 69.752 16.1747 69.9355 16.288C70.0059 16.331 70.1172 16.3525 70.2695 16.3525C70.2773 16.3525 70.2891 16.3525 70.3047 16.3525C70.6484 16.3525 70.8203 16.0146 70.8203 15.3388V12.7021C70.8203 12.3271 70.7812 12.0478 70.7031 11.8642C70.625 11.6767 70.4727 11.5829 70.2461 11.5829C69.8398 11.5829 69.6367 11.9169 69.6367 12.5849L68.2539 12.5263V7.26459H72.0684V8.67084H69.7012V10.7626C69.7754 10.6181 69.9082 10.5009 70.0996 10.4111C70.2949 10.3212 70.5078 10.2763 70.7383 10.2763C71.3398 10.2763 71.7578 10.5419 71.9922 11.0732C72.2266 11.6005 72.3438 12.4404 72.3438 13.5927C72.3438 14.7411 72.3027 15.54 72.2207 15.9892C72.1426 16.4345 72.0254 16.7744 71.8691 17.0087C71.5684 17.4658 71.0234 17.6943 70.2344 17.6943Z" fill="#FF9500"/>
<path d="M117 13.9086L117 219.037C71.311 233.322 45.6884 232.5 9.72371e-05 219.037L9.75413e-05 212.077L0.000106204 13.9086C14 -0.422928 78 -8.42293 117 13.9086Z" fill="url(#paint1_linear)"/>
<rect x="110.612" y="24.577" width="192" height="102.211" transform="rotate(90 110.612 24.577)" fill="#333333"/>
<path d="M43.3253 17.5771L42.5973 15.1971H38.9573L38.2293 17.5771H35.9473L39.4753 7.53909H42.0653L45.6073 17.5771H43.3253ZM42.0933 13.4191L41.3653 11.0951C41.3186 10.9364 41.2579 10.7358 41.1833 10.4931C41.1086 10.2504 41.0339 10.0031 40.9593 9.75109C40.8846 9.49909 40.8239 9.27975 40.7773 9.09309C40.7306 9.27975 40.6653 9.51309 40.5813 9.79309C40.5066 10.0638 40.4319 10.3251 40.3573 10.5771C40.2919 10.8198 40.2406 10.9924 40.2033 11.0951L39.4893 13.4191H42.0933ZM46.8733 7.58109H48.7773V12.4111C48.7773 12.6444 48.7726 12.9058 48.7633 13.1951C48.7539 13.4844 48.7446 13.7691 48.7353 14.0491C48.7259 14.3198 48.7166 14.5578 48.7073 14.7631C48.6979 14.9591 48.6886 15.0944 48.6793 15.1691H48.7213L53.3413 7.58109H55.8753V17.5771H53.9853V12.7751C53.9853 12.5231 53.9899 12.2478 53.9993 11.9491C54.0086 11.6411 54.0179 11.3471 54.0273 11.0671C54.0459 10.7871 54.0599 10.5444 54.0693 10.3391C54.0879 10.1244 54.1019 9.98442 54.1113 9.91909H54.0553L49.4213 17.5771H46.8733V7.58109ZM57.7471 13.0585V11.8622H61.0146V13.0585H57.7471ZM66.7188 14.4716C66.7188 15.6396 66.5449 16.4697 66.1973 16.9619C65.8496 17.4501 65.3086 17.6943 64.5742 17.6943C63.8398 17.6943 63.3027 17.4931 62.9629 17.0908C62.623 16.6884 62.4512 16.0244 62.4473 15.0986V14.5361H63.9297V14.7529C63.9336 15.3896 63.9766 15.8154 64.0586 16.0302C64.1445 16.2411 64.3047 16.3466 64.5391 16.3466C64.7734 16.3466 64.918 16.2997 64.9727 16.206C65.0273 16.1083 65.0723 16.0146 65.1074 15.9247C65.1426 15.831 65.1602 15.5263 65.1602 15.0107V13.4697C64.9453 13.6142 64.627 13.6865 64.2051 13.6865C63.5098 13.6865 63.0156 13.4345 62.7227 12.9306C62.4336 12.4267 62.2891 11.663 62.2891 10.6396V10.2646C62.2891 8.98334 62.5098 8.12201 62.9512 7.6806C63.3105 7.32123 63.8223 7.14154 64.4863 7.14154C65.1543 7.14154 65.6445 7.27045 65.957 7.52826C66.2734 7.78217 66.4785 8.13568 66.5723 8.58881C66.6699 9.04193 66.7188 9.62982 66.7188 10.3525V14.4716ZM64.498 12.3974C64.8848 12.3974 65.1055 12.2294 65.1602 11.8935V9.93646C65.1602 9.42865 65.1133 9.06342 65.0195 8.84076C64.9297 8.6181 64.7539 8.50677 64.4922 8.50677C64.2344 8.50677 64.0586 8.62006 63.9648 8.84662C63.8711 9.07318 63.8242 9.44232 63.8242 9.95404V10.874C63.8242 11.4443 63.8691 11.8408 63.959 12.0634C64.0527 12.2861 64.2324 12.3974 64.498 12.3974ZM70.2344 17.6943C68.8711 17.6943 68.1895 16.9853 68.1895 15.5673V14.2724H69.6602V15.4033C69.6602 15.8798 69.752 16.1747 69.9355 16.288C70.0059 16.331 70.1172 16.3525 70.2695 16.3525C70.2773 16.3525 70.2891 16.3525 70.3047 16.3525C70.6484 16.3525 70.8203 16.0146 70.8203 15.3388V12.7021C70.8203 12.3271 70.7812 12.0478 70.7031 11.8642C70.625 11.6767 70.4727 11.5829 70.2461 11.5829C69.8398 11.5829 69.6367 11.9169 69.6367 12.5849L68.2539 12.5263V7.26459H72.0684V8.67084H69.7012V10.7626C69.7754 10.6181 69.9082 10.5009 70.0996 10.4111C70.2949 10.3212 70.5078 10.2763 70.7383 10.2763C71.3398 10.2763 71.7578 10.5419 71.9922 11.0732C72.2266 11.6005 72.3438 12.4404 72.3438 13.5927C72.3438 14.7411 72.3027 15.54 72.2207 15.9892C72.1426 16.4345 72.0254 16.7744 71.8691 17.0087C71.5684 17.4658 71.0234 17.6943 70.2344 17.6943Z" fill="#FF9500"/>
<path d="M117 13.9086L117 219.037C71.311 233.322 45.6884 232.5 9.72371e-05 219.037L9.75413e-05 212.077L0.000106204 13.9086C14 -0.422928 78 -8.42293 117 13.9086Z" fill="url(#paint2_linear)"/>
<rect x="110.612" y="24.577" width="192" height="102.211" transform="rotate(90 110.612 24.577)" fill="#333333"/>
<path d="M55.6866 6.004V14.236H57.0166V18.912H54.9726V16H48.7146V18.912H46.6706V14.236H47.4406C47.7953 13.5453 48.1266 12.7987 48.4346 11.996C48.7426 11.1933 49.0179 10.302 49.2606 9.322C49.5033 8.342 49.7039 7.236 49.8626 6.004H55.6866ZM53.5726 7.768H51.5426C51.4586 8.42133 51.3233 9.12133 51.1366 9.868C50.9593 10.6147 50.7446 11.366 50.4926 12.122C50.2406 12.8687 49.9653 13.5733 49.6666 14.236H53.5726V7.768ZM62.402 16H60.288V7.768H57.572V6.004H65.118V7.768H62.402V16Z" fill="#4F4F4F"/>
<defs>
<linearGradient id="paint0_linear" x1="117" y1="114.722" x2="0.000101797" y2="114.722" gradientUnits="userSpaceOnUse">
<stop stop-color="#848484"/>
<stop offset="0.508287" stop-color="white"/>
<stop offset="1" stop-color="#848484"/>
</linearGradient>
<linearGradient id="paint1_linear" x1="117" y1="114.722" x2="0.000101797" y2="114.722" gradientUnits="userSpaceOnUse">
<stop stop-color="#848484"/>
<stop offset="0.508287" stop-color="white"/>
<stop offset="1" stop-color="#848484"/>
</linearGradient>
<linearGradient id="paint2_linear" x1="117" y1="114.722" x2="0.000101797" y2="114.722" gradientUnits="userSpaceOnUse">
<stop stop-color="#848484"/>
<stop offset="0.508287" stop-color="white"/>
<stop offset="1" stop-color="#848484"/>
</linearGradient>
</defs>
<!--<g transform="translate(115,218) rotate(180)">
<g class="fault" reference="LVL" transform-set="scale(1,0.0004)">
<path d="M0 0H103V192H0V0Z" fill="#2D9CDB" fill-opacity="0.3"/>
</g>
</g>-->





</svg>
