<svg width="117" height="57" viewBox="0 0 117 57" fill="none" xmlns="http://www.w3.org/2000/svg">
<g class="fault" format="%.1f" reference="LEVEL">
<g transform="translate(35,25)">
<text font-size="24px" font-family="Antonio" text-anchor="middle">...</text>
</g>
</g>
<path d="M99.3828 23H97.2468V11.888H93.4548C93.2468 14.592 92.9588 16.776 92.5908 18.44C92.2228 20.088 91.7348 21.288 91.1268 22.04C90.5188 22.792 89.7508 23.168 88.8228 23.168C88.6148 23.168 88.4068 23.152 88.1988 23.12C88.0068 23.104 87.8468 23.064 87.7188 23V21.416C87.8148 21.448 87.9188 21.472 88.0308 21.488C88.1428 21.504 88.2548 21.512 88.3668 21.512C89.2308 21.512 89.9188 20.592 90.4308 18.752C90.9588 16.912 91.3588 14.04 91.6308 10.136H99.3828V23Z" fill="#FF9500"/>
<g class="fault" format="%.1f" reference="RASHOD">
<g transform="translate(-60,35)">
<text x="80%" y="20" font-size="24px" font-family="Antonio" text-anchor="middle">...</text>
</g>
</g>
<g transform="translate(30,0)">
<path d="M63.5 54H61.364V42.888H57.572C57.364 45.592 57.076 47.776 56.708 49.44C56.34 51.088 55.852 52.288 55.244 53.04C54.636 53.792 53.868 54.168 52.94 54.168C52.732 54.168 52.524 54.152 52.316 54.12C52.124 54.104 51.964 54.064 51.836 54V52.416C51.932 52.448 52.036 52.472 52.148 52.488C52.26 52.504 52.372 52.512 52.484 52.512C53.348 52.512 54.036 51.592 54.548 49.752C55.076 47.912 55.476 45.04 55.748 41.136H63.5V54ZM71.707 33.2812H73.8516L68.6953 54H66.5625L71.707 33.2812ZM78.6185 45.816C78.6185 47.288 79.4425 48.024 81.0905 48.024C81.8905 48.024 82.6185 47.904 83.2745 47.664C83.9305 47.408 84.6025 47.072 85.2905 46.656V41.136H87.4025V54H85.2905V48.264C84.5705 48.728 83.8585 49.096 83.1545 49.368C82.4665 49.624 81.6345 49.752 80.6585 49.752C79.3465 49.752 78.3225 49.408 77.5865 48.72C76.8665 48.032 76.5065 47.112 76.5065 45.96V41.136H78.6185V45.816Z" fill="#FF9500"/>
</g>
</svg>
