<svg width="388" height="151" viewBox="0 0 388 151" fill="none" xmlns="http://www.w3.org/2000/svg">
<g id="Group11" filter="url(#filter0_d11)">
<g id="button" filter="url(#filter1_b11)">
<rect x="4" width="380" height="143" rx="7" fill="#202124"/>
</g>
<g id="Vector11" filter="url(#filter2_i11)">
<path d="M39 66.6839H44.1771V104.286H39V110.916H44.1771V115.004C44.1771 117.183 46.4478 119 49.3542 119C52.1698 119 54.5313 117.183 54.5313 115.004V113.641C54.5313 112.188 56.0754 110.916 57.9827 110.916C59.8901 110.916 61.4342 112.188 61.4342 113.641V115.004C61.4342 117.183 63.7048 119 66.5204 119C69.4269 119 71.6975 117.183 71.6975 115.004V113.641C71.6975 112.188 73.2416 110.916 75.149 110.916C77.0563 110.916 78.6004 112.188 78.6004 113.641V115.004C78.6004 117.183 80.9618 119 83.7775 119C86.5931 119 88.9546 117.183 88.9546 115.004V113.641C88.9546 112.188 90.4986 110.916 92.406 110.916C94.3133 110.916 95.8574 112.188 95.8574 113.641V115.004C95.8574 117.183 98.1281 119 101.035 119C103.85 119 106.212 117.183 106.212 115.004V113.641C106.212 112.188 107.665 110.916 109.572 110.916C111.48 110.916 113.024 112.188 113.024 113.641V115.004C113.024 117.183 115.385 119 118.201 119C121.107 119 123.378 117.183 123.378 115.004V110.916H128.555V104.286H123.378V66.6839H128.555V59.9628H123.378V55.9664C123.378 53.7866 121.107 51.97 118.201 51.97C115.385 51.97 113.024 53.7866 113.024 55.9664V57.3288C113.024 58.782 111.48 59.9628 109.572 59.9628C107.665 59.9628 106.212 58.782 106.212 57.3288V55.9664C106.212 53.7866 103.85 51.97 101.035 51.97C98.1281 51.97 95.8574 53.7866 95.8574 55.9664V57.3288C95.8574 58.782 94.3133 59.9628 92.406 59.9628C90.4986 59.9628 88.9546 58.782 88.9546 57.3288V55.9664C88.9546 53.7866 86.5931 51.97 83.7775 51.97C80.9618 51.97 78.6004 53.7866 78.6004 55.9664V57.3288C78.6004 58.782 77.0563 59.9628 75.149 59.9628C73.2416 59.9628 71.6975 58.782 71.6975 57.3288V55.9664C71.6975 53.7866 69.4269 51.97 66.5204 51.97C63.7048 51.97 61.4342 53.7866 61.4342 55.9664V57.3288C61.4342 58.782 59.8901 59.9628 57.9827 59.9628C56.0754 59.9628 54.5313 58.782 54.5313 57.3288V55.9664C54.5313 53.7866 52.1698 51.97 49.3542 51.97C46.4478 51.97 44.1771 53.7866 44.1771 55.9664V59.9628H39V66.6839ZM62.2516 19C62.9782 19 63.5232 19.3633 63.8865 19.9083C64.4314 20.8165 64.0681 21.9973 63.1599 22.3606C61.4342 23.2688 60.3442 24.4496 60.3442 25.3579C60.3442 26.2661 61.2525 27.4469 63.1599 28.3551C66.1571 30.2625 67.8828 32.4423 67.8828 34.8946C67.8828 37.347 66.1571 39.6176 63.1599 41.2525C62.2516 41.8883 61.0708 41.525 60.7075 40.5259C60.3442 39.6176 60.5259 38.5277 61.4342 38.0736C62.9782 36.9837 64.0681 35.8937 64.0681 34.8946C64.0681 33.9864 63.1599 32.8965 61.2525 31.8974C58.2552 30.4441 56.6203 27.9918 56.6203 25.5395C56.6203 23.0872 58.2552 20.8165 61.2525 19.1817C61.6158 19 61.7975 19 62.2516 19ZM82.8692 22.7239C83.5958 22.7239 84.1408 23.0872 84.5041 23.6322C85.1399 24.6312 84.6857 25.7212 83.7775 26.0845C82.0518 27.0836 80.9619 28.1735 80.9619 29.0817C80.9619 30.0808 81.8701 31.1708 83.7775 32.079C86.7747 33.9864 88.5005 36.257 88.5005 38.7094C88.5005 41.0708 86.7747 43.3415 83.7775 45.0672C82.8692 45.6122 81.6885 45.2489 81.3252 44.3406C80.9619 43.3415 81.1435 42.2516 82.0518 41.8883C83.5958 40.7075 84.6857 39.6176 84.6857 38.7094C84.6857 37.7103 83.7775 36.6203 81.8701 35.7121C78.8728 34.168 77.238 31.7157 77.238 29.2634C77.238 26.9019 78.8728 24.6312 81.8701 22.9055C82.3242 22.7239 82.5059 22.7239 82.8692 22.7239ZM103.487 19C104.213 19 104.758 19.3633 105.122 19.9083C105.757 20.8165 105.394 21.9973 104.395 22.3606C102.76 23.2688 101.579 24.4496 101.579 25.3579C101.579 26.2661 102.579 27.4469 104.395 28.3551C107.392 30.2625 109.118 32.4423 109.118 34.8946C109.118 37.347 107.392 39.6176 104.395 41.2525C103.487 41.8883 102.397 41.525 101.943 40.5259C101.398 39.6176 101.761 38.5277 102.76 38.0736C104.213 36.9837 105.394 35.8937 105.394 34.8946C105.394 33.9864 104.395 32.8965 102.579 31.8974C99.5813 30.4441 97.8556 27.9918 97.8556 25.5395C97.8556 23.0872 99.5813 20.8165 102.579 19.1817C102.942 19 103.124 19 103.487 19ZM61.4342 102.924C61.4342 104.377 59.8901 105.558 57.9827 105.558C56.0754 105.558 54.5313 104.377 54.5313 102.924V68.0463C54.5313 66.5931 56.0754 65.3215 57.9827 65.3215C59.8901 65.3215 61.4342 66.5931 61.4342 68.0463V102.924ZM78.6004 102.924C78.6004 104.377 77.0563 105.558 75.149 105.558C73.2416 105.558 71.6975 104.377 71.6975 102.924V68.0463C71.6975 66.5931 73.2416 65.3215 75.149 65.3215C77.0563 65.3215 78.6004 66.5931 78.6004 68.0463V102.924ZM95.8574 102.924C95.8574 104.377 94.3133 105.558 92.406 105.558C90.4986 105.558 88.9546 104.377 88.9546 102.924V68.0463C88.9546 66.5931 90.4986 65.3215 92.406 65.3215C94.3133 65.3215 95.8574 66.5931 95.8574 68.0463V102.924ZM113.024 102.924C113.024 104.377 111.48 105.558 109.572 105.558C107.665 105.558 106.212 104.377 106.212 102.924V68.0463C106.212 66.5931 107.665 65.3215 109.572 65.3215C111.48 65.3215 113.024 66.5931 113.024 68.0463V102.924Z" fill="#BEBEBE"/>
</g>
<g id="text11" filter="url(#filter3_i11)" transform='translate(0,0)'>
<text fill="#C4C4C4" xml:space="preserve" style="white-space: pre" font-family="SF Pro Text" font-size="24" letter-spacing="0em"><tspan x="161.504" y="80.0312">LABEL</tspan></text>
</g>
</g>
<defs>
<filter id="filter0_d11" x="0" y="0" width="388" height="151" filterUnits="userSpaceOnUse" color-interpolation-filters="sRGB">
<feFlood flood-opacity="0" result="BackgroundImageFix"/>
<feColorMatrix in="SourceAlpha" type="matrix" values="0 0 0 0 0 0 0 0 0 0 0 0 0 0 0 0 0 0 127 0"/>
<feOffset dy="4"/>
<feGaussianBlur stdDeviation="2"/>
<feColorMatrix type="matrix" values="0 0 0 0 0 0 0 0 0 0 0 0 0 0 0 0 0 0 0.79 0"/>
<feBlend mode="normal" in2="BackgroundImageFix" result="effect1_dropShadow"/>
<feBlend mode="normal" in="SourceGraphic" in2="effect1_dropShadow" result="shape"/>
</filter>
<filter id="filter1_b11" x="-26.9068" y="-30.9068" width="441.814" height="204.814" filterUnits="userSpaceOnUse" color-interpolation-filters="sRGB">
<feFlood flood-opacity="0" result="BackgroundImageFix"/>
<feGaussianBlur in="BackgroundImage" stdDeviation="15.4534"/>
<feComposite in2="SourceAlpha" operator="in" result="effect1_backgroundBlur"/>
<feBlend mode="normal" in="SourceGraphic" in2="effect1_backgroundBlur" result="shape"/>
</filter>
<filter id="filter2_i11" x="39" y="19" width="89.5549" height="104" filterUnits="userSpaceOnUse" color-interpolation-filters="sRGB">
<feFlood flood-opacity="0" result="BackgroundImageFix"/>
<feBlend mode="normal" in="SourceGraphic" in2="BackgroundImageFix" result="shape"/>
<feColorMatrix in="SourceAlpha" type="matrix" values="0 0 0 0 0 0 0 0 0 0 0 0 0 0 0 0 0 0 127 0" result="hardAlpha"/>
<feOffset dy="4"/>
<feGaussianBlur stdDeviation="2"/>
<feComposite in2="hardAlpha" operator="arithmetic" k2="-1" k3="1"/>
<feColorMatrix type="matrix" values="0 0 0 0 0 0 0 0 0 0 0 0 0 0 0 0 0 0 0.25 0"/>
<feBlend mode="normal" in2="shape" result="effect1_innerShadow"/>
</filter>
<filter id="filter3_i11" x="162.652" y="62.3633" width="197.379" height="21.8594" filterUnits="userSpaceOnUse" color-interpolation-filters="sRGB">
<feFlood flood-opacity="0" result="BackgroundImageFix"/>
<feBlend mode="normal" in="SourceGraphic" in2="BackgroundImageFix" result="shape"/>
<feColorMatrix in="SourceAlpha" type="matrix" values="0 0 0 0 0 0 0 0 0 0 0 0 0 0 0 0 0 0 127 0" result="hardAlpha"/>
<feOffset dy="4"/>
<feGaussianBlur stdDeviation="2"/>
<feComposite in2="hardAlpha" operator="arithmetic" k2="-1" k3="1"/>
<feColorMatrix type="matrix" values="0 0 0 0 0 0 0 0 0 0 0 0 0 0 0 0 0 0 0.25 0"/>
<feBlend mode="normal" in2="shape" result="effect1_innerShadow"/>
</filter>
</defs>
</svg>
