<svg width="388" height="151" viewBox="0 0 388 151" fill="none" xmlns="http://www.w3.org/2000/svg">
<g id="Group4" filter="url(#filter0_d4)">
<g id="button4" filter="url(#filter1_b4)">
<rect x="4" width="380" height="143" rx="7" fill="#202124"/>
</g>
<g id="Vector4" filter="url(#filter2_i4)" transform='translate(-30,0)'>
<path d="M74.1396 46.6551H80.1874V37.6809H70.7255C69.8476 37.6809 69.1648 37.3883 68.6771 36.9006C68.0918 36.3153 67.7992 35.6325 67.7992 34.7546V27.9264C67.7992 27.146 68.0918 26.3656 68.6771 25.8779C69.1648 25.3902 69.8476 25 70.7255 25H96.8677C97.7456 25 98.4285 25.3902 98.9162 25.8779C99.5015 26.3656 99.7941 27.146 99.7941 27.9264V34.7546C99.7941 35.6325 99.5015 36.3153 98.9162 36.9006C98.4285 37.3883 97.7456 37.6809 96.8677 37.6809H87.4058V46.6551H93.4536C94.7217 46.6551 95.8923 47.1428 96.6726 48.0208C97.5506 48.8011 98.0383 49.9717 98.0383 51.2398V109.377C98.0383 110.645 97.5506 111.816 96.6726 112.596C95.8923 113.376 94.7217 113.962 93.4536 113.962H74.1396C72.8715 113.962 71.701 113.376 70.9206 112.596C70.0427 111.816 69.555 110.645 69.555 109.377V51.2398C69.555 49.9717 70.0427 48.8011 70.9206 48.0208C71.701 47.1428 72.8715 46.6551 74.1396 46.6551ZM110.622 93.7696C113.646 93.7696 116.572 94.7451 119.596 96.5984C121.644 97.9641 123.79 98.6469 125.839 98.6469C130.911 98.6469 131.204 95.0377 133.447 98.4518C135.984 102.646 129.155 103.427 125.839 103.427C122.912 103.427 119.888 102.549 116.962 100.695C114.816 99.3297 112.768 98.6469 110.622 98.6469C105.452 98.6469 105.354 102.354 103.013 98.6469C100.574 94.6475 107.598 93.7696 110.622 93.7696ZM110.622 71.5292C113.646 71.5292 116.572 72.4071 119.596 74.2605C121.644 75.6262 123.79 76.309 125.839 76.309C130.911 76.309 131.204 72.6998 133.447 76.2114C135.984 80.3083 129.155 81.0887 125.839 81.0887C122.912 81.0887 119.888 80.2108 116.962 78.3574C114.816 76.9918 112.768 76.309 110.622 76.309C105.452 76.309 105.354 80.0157 103.013 76.309C100.574 72.3096 107.598 71.5292 110.622 71.5292ZM110.622 82.6494C113.646 82.6494 116.572 83.6249 119.596 85.4783C121.644 86.7463 123.79 87.4292 125.839 87.4292C130.911 87.4292 131.204 83.82 133.447 87.3316C135.984 91.5261 129.155 92.3064 125.839 92.3064C122.912 92.3064 119.888 91.331 116.962 89.4776C114.816 88.112 112.768 87.4292 110.622 87.4292C105.452 87.4292 105.354 91.2334 103.013 87.4292C100.574 83.4298 107.598 82.6494 110.622 82.6494ZM42.1447 93.7696C45.1686 93.7696 48.0949 94.7451 51.0213 96.5984C53.1673 97.9641 55.3133 98.6469 57.3618 98.6469C62.4341 98.6469 62.7268 95.0377 64.8728 98.4518C67.5065 102.646 60.5808 103.427 57.3618 103.427C54.3379 103.427 51.4115 102.549 48.4851 100.695C46.3391 99.3297 44.1931 98.6469 42.1447 98.6469C36.9748 98.6469 36.8772 102.354 34.5361 98.6469C31.9999 94.6475 39.1208 93.7696 42.1447 93.7696ZM42.1447 71.5292C45.1686 71.5292 48.0949 72.4071 51.0213 74.2605C53.1673 75.6262 55.3133 76.309 57.3618 76.309C62.4341 76.309 62.7268 72.6998 64.8728 76.2114C67.5065 80.3083 60.5808 81.0887 57.3618 81.0887C54.3379 81.0887 51.4115 80.2108 48.4851 78.3574C46.3391 76.9918 44.1931 76.309 42.1447 76.309C36.9748 76.309 36.8772 80.0157 34.5361 76.309C31.9999 72.3096 39.1208 71.5292 42.1447 71.5292ZM42.1447 82.6494C45.1686 82.6494 48.0949 83.6249 51.0213 85.4783C53.1673 86.7463 55.3133 87.4292 57.3618 87.4292C62.4341 87.4292 62.7268 83.82 64.8728 87.3316C67.5065 91.5261 60.5808 92.3064 57.3618 92.3064C54.3379 92.3064 51.4115 91.331 48.4851 89.4776C46.3391 88.112 44.1931 87.4292 42.1447 87.4292C36.9748 87.4292 36.8772 91.2334 34.5361 87.4292C31.9999 83.4298 39.1208 82.6494 42.1447 82.6494ZM87.4058 50.6545V82.0642H89.1616C90.1371 82.0642 91.015 82.4543 91.6003 83.0396C92.1855 83.7224 92.5757 84.6003 92.5757 85.4783V105.085C92.5757 106.06 92.1855 106.841 91.6003 107.524C91.015 108.109 90.1371 108.499 89.1616 108.499H78.4316C77.4562 108.499 76.5783 108.109 75.993 107.524C75.4077 106.841 75.0175 106.06 75.0175 105.085V85.4783C75.0175 84.6003 75.4077 83.7224 75.993 83.0396C76.5783 82.4543 77.4562 82.0642 78.4316 82.0642H80.1874V50.6545H74.1396C73.9445 50.6545 73.847 50.752 73.7494 50.8496C73.6519 50.9471 73.5543 51.0447 73.5543 51.2398V109.377C73.5543 109.572 73.6519 109.67 73.7494 109.767C73.847 109.865 73.9445 109.962 74.1396 109.962H93.4536C93.6487 109.962 93.7463 109.865 93.8438 109.767C93.9414 109.67 94.0389 109.572 94.0389 109.377V51.2398C94.0389 51.0447 93.9414 50.9471 93.8438 50.8496C93.7463 50.752 93.6487 50.6545 93.4536 50.6545H87.4058Z" fill="#BEBEBE"/>
</g>
<g id="text4" filter="url(#filter3_i4)" transform='translate(-30,0)'>
<text fill="#BEBEBE" xml:space="preserve" style="white-space: pre" font-family="SF Pro Text" font-size="24" letter-spacing="0em"><tspan x="170" y="80.0312">LABEL</tspan></text>
</g>
</g>
<defs>
<filter id="filter0_d4" x="0" y="0" width="388" height="151" filterUnits="userSpaceOnUse" color-interpolation-filters="sRGB">
<feFlood flood-opacity="0" result="BackgroundImageFix"/>
<feColorMatrix in="SourceAlpha" type="matrix" values="0 0 0 0 0 0 0 0 0 0 0 0 0 0 0 0 0 0 127 0"/>
<feOffset dy="4"/>
<feGaussianBlur stdDeviation="2"/>
<feColorMatrix type="matrix" values="0 0 0 0 0 0 0 0 0 0 0 0 0 0 0 0 0 0 0.79 0"/>
<feBlend mode="normal" in2="BackgroundImageFix" result="effect1_dropShadow"/>
<feBlend mode="normal" in="SourceGraphic" in2="effect1_dropShadow" result="shape"/>
</filter>
<filter id="filter1_b4" x="-26.9068" y="-30.9068" width="441.814" height="204.814" filterUnits="userSpaceOnUse" color-interpolation-filters="sRGB">
<feFlood flood-opacity="0" result="BackgroundImageFix"/>
<feGaussianBlur in="BackgroundImage" stdDeviation="15.4534"/>
<feComposite in2="SourceAlpha" operator="in" result="effect1_backgroundBlur"/>
<feBlend mode="normal" in="SourceGraphic" in2="effect1_backgroundBlur" result="shape"/>
</filter>
<filter id="filter2_i4" x="34" y="25" width="100" height="92.9616" filterUnits="userSpaceOnUse" color-interpolation-filters="sRGB">
<feFlood flood-opacity="0" result="BackgroundImageFix"/>
<feBlend mode="normal" in="SourceGraphic" in2="BackgroundImageFix" result="shape"/>
<feColorMatrix in="SourceAlpha" type="matrix" values="0 0 0 0 0 0 0 0 0 0 0 0 0 0 0 0 0 0 127 0" result="hardAlpha"/>
<feOffset dy="4"/>
<feGaussianBlur stdDeviation="2"/>
<feComposite in2="hardAlpha" operator="arithmetic" k2="-1" k3="1"/>
<feColorMatrix type="matrix" values="0 0 0 0 0 0 0 0 0 0 0 0 0 0 0 0 0 0 0.25 0"/>
<feBlend mode="normal" in2="shape" result="effect1_innerShadow"/>
</filter>
<filter id="filter3_i4" x="172.285" y="63.0898" width="179.25" height="24.25" filterUnits="userSpaceOnUse" color-interpolation-filters="sRGB">
<feFlood flood-opacity="0" result="BackgroundImageFix"/>
<feBlend mode="normal" in="SourceGraphic" in2="BackgroundImageFix" result="shape"/>
<feColorMatrix in="SourceAlpha" type="matrix" values="0 0 0 0 0 0 0 0 0 0 0 0 0 0 0 0 0 0 127 0" result="hardAlpha"/>
<feOffset dy="4"/>
<feGaussianBlur stdDeviation="2"/>
<feComposite in2="hardAlpha" operator="arithmetic" k2="-1" k3="1"/>
<feColorMatrix type="matrix" values="0 0 0 0 0 0 0 0 0 0 0 0 0 0 0 0 0 0 0.25 0"/>
<feBlend mode="normal" in2="shape" result="effect1_innerShadow"/>
</filter>
</defs>
</svg>
