<svg width="388" height="151" viewBox="0 0 388 151" fill="none" xmlns="http://www.w3.org/2000/svg">
<g id="Group">
<g id="button" filter="url(#button)">
<rect x="4" width="380" height="143" rx="7" fill="#202124"/>
</g>
<path fill-rule="evenodd" clip-rule="evenodd" d="M22.4001 0C14.447 0 8.00013 5.79025 8.00013 12.9333V88.0187H67.9999V45.8081C68.8361 45.243 69.8758 44.9071 70.9999 44.9071C73.7628 44.9071 76.0001 46.9157 76.0001 49.3954V79.9379H76.8204C78.569 83.6166 82.9226 86.2222 88 86.2222C94.6274 86.2222 100 81.8029 100 76.3455V52.0924V45.803V26.9444V25.1484L99.4389 24.7704C99.4226 24.1974 99.2037 23.6245 98.7712 23.1446L79.8914 2.2047C78.8489 1.04846 76.9596 0.869981 75.6722 1.80679C74.3844 2.74316 74.1862 4.43958 75.2287 5.59626L83.9997 15.3247V32.3333L94 40.1925V45.803V52.0924V76.3455C94 78.7153 91.4263 80.8333 88 80.8333C84.5829 80.8333 82.0001 78.7092 82.0001 76.3455V45.803H81.2503C79.65 42.1234 75.6641 39.5182 70.9999 39.5182C69.9603 39.5182 68.9542 39.6484 67.9999 39.8911V12.9333C67.9999 5.79025 61.5526 0 53.6 0H22.4001ZM5.99998 91.6111C2.68655 91.6111 0 94.0236 0 97H76.0001C76.0001 94.0236 73.3135 91.6111 70.0001 91.6111H5.99998ZM14.0001 5.38889H62V34.1298H14.0001V5.38889Z" fill="#BEBEBE"/>
<text id="text" fill="#BEBEBE" xml:space="preserve" style="white-space: pre" font-family="SF Pro Text" font-size="24" font-weight="300" letter-spacing="0em"><tspan x="170" y="80.0312">LABEL</tspan></text>
</g>
</svg>
