<svg width="388" height="151" viewBox="0 0 388 151" fill="none" xmlns="http://www.w3.org/2000/svg">
<g id="Group2" filter="url(#filter0_d2)">
<g id="button2" filter="url(#filter1_b2)">
<rect x="4" width="380" height="143" rx="7" fill="#202124"/>
</g>
<g id="vector2" filter="url(#filter2_i2)">
<path fill-rule="evenodd" clip-rule="evenodd" d="M84.3612 77.8506C89.2381 77.67 92.8506 73.7865 92.8506 68.6387C92.5797 63.4006 87.7028 59.6978 83.6387 60.1494C78.7619 60.4203 75.1494 64.2134 75.1494 69.3612C75.4203 74.2381 79.2134 77.8506 84.3612 77.8506ZM93.2119 47.9572C97.6372 42.1772 102.424 36.036 105.765 30.1657C106.668 28.5401 106.939 27.0951 106.668 25.8307C106.307 24.2954 104.952 23.031 103.146 21.9473C101.069 20.8635 98.45 20.0507 95.4697 19.5089C87.7028 18.2445 77.9491 19.3282 72.3497 22.8504C68.9178 25.0179 67.7438 28.1788 67.8341 31.701C67.9244 36.3973 70.4532 41.9063 73.4335 46.6026C75.4203 49.9441 77.5878 52.9244 79.5747 54.9113C81.11 56.4466 82.555 57.44 83.6387 57.44C84.3612 57.44 85.1741 57.0788 85.9869 56.5369C87.0706 55.7241 88.0641 54.7307 88.8769 53.6469C90.1412 51.931 91.6765 49.9441 93.2119 47.9572ZM71.5369 67.0131C70.7241 65.9294 69.7307 64.9359 68.6469 64.1231C66.931 62.8588 64.9441 61.3235 62.9572 59.7881C57.1772 55.3628 51.036 50.5763 45.1657 47.2347C43.5401 46.3316 42.0951 46.0607 40.8307 46.3316C39.2954 46.6929 38.031 48.0475 36.9473 49.8538C35.8635 51.931 35.0507 54.55 34.5089 57.5303C33.2445 65.2972 34.3282 75.0509 37.8504 80.6503C40.0179 84.0822 43.1788 85.2562 46.701 85.1659C51.3973 85.0756 56.9063 82.5468 61.6026 79.5665C64.9441 77.5797 67.9244 75.4122 69.9113 73.4253C71.4466 71.89 72.44 70.445 72.44 69.3612C72.44 68.6387 72.0788 67.8259 71.5369 67.0131ZM133.491 80.4697C134.756 72.7028 133.672 62.9491 130.15 57.3497C127.982 53.9178 124.821 52.7438 121.299 52.8341C116.603 52.9244 111.094 55.4532 106.397 58.4335C103.056 60.4203 100.076 62.5878 98.0887 64.5747C96.5534 66.11 95.56 67.555 95.56 68.6387C95.56 69.3612 95.9212 70.1741 96.4631 70.9869C97.2759 72.0706 98.2693 73.0641 99.3531 73.8769C100.979 75.1412 102.966 76.6765 105.043 78.2119C110.823 82.6372 116.964 87.4237 122.834 90.7653C124.46 91.6684 125.905 91.9393 127.169 91.6684C128.705 91.3071 129.969 89.9525 131.053 88.1462C132.136 86.069 132.949 83.45 133.491 80.4697ZM100.166 106.299C100.076 101.603 97.5468 96.0937 94.5665 91.3974C92.5797 88.0559 90.4122 85.0756 88.4253 83.0887C86.89 81.5534 85.445 80.56 84.3612 80.56C83.6387 80.56 82.8259 80.9212 82.0131 81.4631C80.9294 82.2759 79.9359 83.2693 79.1231 84.3531C77.8588 85.9787 76.3235 87.9656 74.7881 90.0428C70.3628 95.8227 65.5763 101.964 62.2347 107.834C61.3316 109.46 61.0607 110.905 61.3316 112.169C61.6929 113.705 63.0475 114.969 64.8538 116.053C66.931 117.136 69.55 117.949 72.5303 118.491C80.2972 119.756 90.0509 118.672 95.6503 115.15C99.0822 112.982 100.256 109.821 100.166 106.299Z" fill="#BEBEBE"/>
</g>
<g id="text2" filter="url(#filter3_i2)" transform='translate(-30,0)'>
<text fill="#BEBEBE" xml:space="preserve" style="white-space: pre" font-family="SF Pro Text" font-size="24" letter-spacing="0em"><tspan x="192.078" y="80.0312">LABEL</tspan></text>
</g>
</g>
<defs>
<filter id="filter0_d2" x="0" y="0" width="388" height="151" filterUnits="userSpaceOnUse" color-interpolation-filters="sRGB">
<feFlood flood-opacity="0" result="BackgroundImageFix"/>
<feColorMatrix in="SourceAlpha" type="matrix" values="0 0 0 0 0 0 0 0 0 0 0 0 0 0 0 0 0 0 127 0"/>
<feOffset dy="4"/>
<feGaussianBlur stdDeviation="2"/>
<feColorMatrix type="matrix" values="0 0 0 0 0 0 0 0 0 0 0 0 0 0 0 0 0 0 0.79 0"/>
<feBlend mode="normal" in2="BackgroundImageFix" result="effect1_dropShadow"/>
<feBlend mode="normal" in="SourceGraphic" in2="effect1_dropShadow" result="shape"/>
</filter>
<filter id="filter1_b2" x="-26.9068" y="-30.9068" width="441.814" height="204.814" filterUnits="userSpaceOnUse" color-interpolation-filters="sRGB">
<feFlood flood-opacity="0" result="BackgroundImageFix"/>
<feGaussianBlur in="BackgroundImage" stdDeviation="15.4534"/>
<feComposite in2="SourceAlpha" operator="in" result="effect1_backgroundBlur"/>
<feBlend mode="normal" in="SourceGraphic" in2="effect1_backgroundBlur" result="shape"/>
</filter>
<filter id="filter2_i2" x="34" y="19" width="100" height="104" filterUnits="userSpaceOnUse" color-interpolation-filters="sRGB">
<feFlood flood-opacity="0" result="BackgroundImageFix"/>
<feBlend mode="normal" in="SourceGraphic" in2="BackgroundImageFix" result="shape"/>
<feColorMatrix in="SourceAlpha" type="matrix" values="0 0 0 0 0 0 0 0 0 0 0 0 0 0 0 0 0 0 127 0" result="hardAlpha"/>
<feOffset dy="4"/>
<feGaussianBlur stdDeviation="2"/>
<feComposite in2="hardAlpha" operator="arithmetic" k2="-1" k3="1"/>
<feColorMatrix type="matrix" values="0 0 0 0 0 0 0 0 0 0 0 0 0 0 0 0 0 0 0.25 0"/>
<feBlend mode="normal" in2="shape" result="effect1_innerShadow"/>
</filter>
<filter id="filter3_i2" x="194.363" y="63.0898" width="134.461" height="24.25" filterUnits="userSpaceOnUse" color-interpolation-filters="sRGB">
<feFlood flood-opacity="0" result="BackgroundImageFix"/>
<feBlend mode="normal" in="SourceGraphic" in2="BackgroundImageFix" result="shape"/>
<feColorMatrix in="SourceAlpha" type="matrix" values="0 0 0 0 0 0 0 0 0 0 0 0 0 0 0 0 0 0 127 0" result="hardAlpha"/>
<feOffset dy="4"/>
<feGaussianBlur stdDeviation="2"/>
<feComposite in2="hardAlpha" operator="arithmetic" k2="-1" k3="1"/>
<feColorMatrix type="matrix" values="0 0 0 0 0 0 0 0 0 0 0 0 0 0 0 0 0 0 0.25 0"/>
<feBlend mode="normal" in2="shape" result="effect1_innerShadow"/>
</filter>
</defs>
</svg>
