<svg width="80" height="80" viewBox="0 0 80 80" fill="none" xmlns="http://www.w3.org/2000/svg">
<g filter="url(#filter0_i)">
<path fill-rule="evenodd" clip-rule="evenodd" d="M40.289 47.0805C44.1905 46.936 47.0805 43.8292 47.0805 39.711C46.8637 35.5205 42.9622 32.5583 39.711 32.9195C35.8095 33.1363 32.9195 36.1708 32.9195 40.289C33.1363 44.1905 36.1708 47.0805 40.289 47.0805ZM47.3695 23.1658C50.9097 18.5418 54.739 13.6288 57.4122 8.93257C58.1347 7.63207 58.3515 6.47608 58.1347 5.46458C57.8457 4.23633 56.762 3.22483 55.317 2.35784C53.6552 1.49084 51.56 0.840589 49.1757 0.40709C42.9622 -0.604407 35.1593 0.262591 30.6798 3.08033C27.9343 4.81433 26.995 7.34307 27.0673 10.1608C27.1395 13.9178 29.1625 18.3251 31.5468 22.082C33.1363 24.7553 34.8703 27.1395 36.4598 28.729C37.688 29.9573 38.844 30.752 39.711 30.752C40.289 30.752 40.9392 30.463 41.5895 30.0295C42.4565 29.3793 43.2512 28.5845 43.9015 27.7175C44.913 26.3448 46.1412 24.7553 47.3695 23.1658ZM30.0295 38.4105C29.3793 37.5435 28.5845 36.7488 27.7175 36.0985C26.3448 35.087 24.7553 33.8588 23.1658 32.6305C18.5418 29.0903 13.6288 25.261 8.93257 22.5878C7.63207 21.8653 6.47608 21.6485 5.46458 21.8653C4.23633 22.1543 3.22483 23.238 2.35784 24.683C1.49084 26.3448 0.840589 28.44 0.40709 30.8243C-0.604407 37.0378 0.262591 44.8407 3.08033 49.3202C4.81433 52.0657 7.34307 53.005 10.1608 52.9327C13.9178 52.8605 18.3251 50.8375 22.082 48.4532C24.7553 46.8637 27.1395 45.1297 28.729 43.5402C29.9573 42.312 30.752 41.156 30.752 40.289C30.752 39.711 30.463 39.0608 30.0295 38.4105ZM79.5929 49.1757C80.6044 42.9622 79.7374 35.1593 76.9197 30.6798C75.1857 27.9343 72.6569 26.995 69.8392 27.0673C66.0822 27.1395 61.6749 29.1625 57.918 31.5468C55.2447 33.1363 52.8605 34.8703 51.271 36.4598C50.0427 37.688 49.248 38.844 49.248 39.711C49.248 40.289 49.537 40.9392 49.9705 41.5895C50.6207 42.4565 51.4155 43.2512 52.2825 43.9015C53.583 44.913 55.1725 46.1412 56.8342 47.3695C61.4582 50.9097 66.3712 54.739 71.0674 57.4122C72.3679 58.1347 73.5239 58.3515 74.5354 58.1347C75.7637 57.8457 76.7752 56.762 77.6422 55.317C78.5092 53.6552 79.1594 51.56 79.5929 49.1757ZM52.9327 69.8392C52.8605 66.0822 50.8375 61.6749 48.4532 57.918C46.8637 55.2447 45.1297 52.8605 43.5402 51.271C42.312 50.0427 41.156 49.248 40.289 49.248C39.711 49.248 39.0608 49.537 38.4105 49.9705C37.5435 50.6207 36.7488 51.4155 36.0985 52.2825C35.087 53.583 33.8588 55.1725 32.6305 56.8342C29.0903 61.4582 25.261 66.3712 22.5878 71.0674C21.8653 72.3679 21.6485 73.5239 21.8653 74.5354C22.1543 75.7637 23.238 76.7752 24.683 77.6422C26.3448 78.5092 28.44 79.1594 30.8243 79.5929C37.0378 80.6044 44.8407 79.7374 49.3202 76.9197C52.0657 75.1857 53.005 72.6569 52.9327 69.8392Z" fill="#FF9500"/>
</g>
<defs>
<filter id="filter0_i" x="0" y="0" width="80" height="84" filterUnits="userSpaceOnUse" color-interpolation-filters="sRGB">
<feFlood flood-opacity="0" result="BackgroundImageFix"/>
<feBlend mode="normal" in="SourceGraphic" in2="BackgroundImageFix" result="shape"/>
<feColorMatrix in="SourceAlpha" type="matrix" values="0 0 0 0 0 0 0 0 0 0 0 0 0 0 0 0 0 0 127 0" result="hardAlpha"/>
<feOffset dy="4"/>
<feGaussianBlur stdDeviation="2"/>
<feComposite in2="hardAlpha" operator="arithmetic" k2="-1" k3="1"/>
<feColorMatrix type="matrix" values="0 0 0 0 0 0 0 0 0 0 0 0 0 0 0 0 0 0 0.25 0"/>
<feBlend mode="normal" in2="shape" result="effect1_innerShadow"/>
</filter>
</defs>
</svg>
