<svg width="53" height="80" viewBox="0 0 53 80" fill="none" xmlns="http://www.w3.org/2000/svg">
<g filter="url(#filter0_i)">
<path fill-rule="evenodd" clip-rule="evenodd" d="M14.9481 27.8201C13.9792 32.6644 11.6955 36.3322 9.48097 39.8616C6.85121 44.083 4.29066 48.2353 4.29066 54.0484C4.29066 60 6.7128 65.4671 10.6574 69.4118C14.5329 73.2872 20 75.7785 26.0208 75.7785C31.9723 75.7785 37.4394 73.2872 41.3841 69.4118C45.2595 65.4671 47.7509 60 47.7509 54.0484C47.7509 47.6817 45.1211 43.737 42.4913 39.654C40.2768 36.1938 37.9931 32.7336 37.0242 27.8201C33.8408 27.6125 31.0727 27.474 28.4429 27.4048C28.5813 32.6644 29.0657 37.5779 29.8962 42.2837C30.7266 46.9204 33.0104 52.7336 33.2872 55.4325C33.564 58.2007 33.3564 57.301 32.0415 55.917C30.7958 54.5329 28.3737 50.519 25.9516 50.519C24.083 50.519 21.3149 54.6021 19.8616 55.9862C18.3391 57.3702 18.2699 57.9239 18.7543 55.5017C19.2388 53.0104 21.3149 46.9204 22.1453 42.2837C22.9066 37.5779 23.391 32.6644 23.5294 27.4048C20.8997 27.474 18.1315 27.6125 14.9481 27.8201ZM15.917 3.04498H16.3322C16.3322 2.35294 17.5086 1.79931 19.5156 1.52249C20.5536 1.38408 21.9377 1.24567 23.4602 1.17647V1.10727C23.4602 0.484429 24.6367 0 26.09 0C27.5433 0 28.7197 0.484429 28.7197 1.10727V1.17647C30.2422 1.24567 31.6263 1.38408 32.6644 1.52249C34.6713 1.79931 35.8478 2.35294 35.8478 3.04498H36.263C39.2388 3.04498 39.4464 7.95848 36.955 8.71972C39.308 9.48097 39.308 13.6332 36.955 14.3253C39.2388 15.0173 39.2388 18.8927 37.2318 19.7924H38.2699C40.4152 19.7924 41.1073 22.4221 40.346 24.1522C41.2457 29.481 43.6678 33.2872 46.09 36.955C49.2042 41.6609 52.1799 46.2976 52.1799 53.91C52.1799 61.1073 49.2734 67.6817 44.5675 72.3875C39.7924 77.0934 33.2872 80 26.09 80C18.8927 80 12.3875 77.0934 7.61246 72.3875C2.90657 67.6817 0 61.1073 0 53.91C0 46.9204 2.97578 42.1453 6.02076 37.2318C8.44291 33.3564 10.9343 29.4118 11.8339 24.1522C11.0727 22.4221 11.7647 19.7924 13.9792 19.7924H14.9481C12.9412 18.8927 12.9412 15.0173 15.2249 14.3253C12.872 13.6332 12.872 9.48097 15.2249 8.71972C12.6644 7.95848 12.9412 3.04498 15.917 3.04498ZM14.1869 25.6055C13.0796 30.7958 10.5882 34.7405 8.23529 38.6159C5.32872 43.1834 2.56055 47.6125 2.56055 53.91C2.56055 60.4152 5.19031 66.2976 9.48097 70.519C13.7024 74.8097 19.5848 77.4394 26.09 77.4394C32.5952 77.4394 38.4775 74.8097 42.699 70.519C46.9896 66.2976 49.6194 60.4152 49.6194 53.91C49.6194 47.0588 46.782 42.7682 43.9446 38.3391C41.5225 34.6713 39.1003 30.8651 37.9931 25.6055C34.6021 25.3287 17.5779 25.3287 14.1869 25.6055ZM24.7751 27.4048C24.5675 32.7336 24.1522 37.7163 23.3218 42.4221C22.699 46.0208 21.9377 49.4118 20.9689 52.6644C22.5606 50.7266 24.2215 49.2734 25.9516 49.2734C28.0277 49.2734 29.8962 51.2803 31.1419 52.8028C30.1038 49.5502 29.3426 46.09 28.7197 42.4913C27.8893 37.7163 27.4048 32.7336 27.1972 27.4048C28.3737 27.4048 23.9446 27.4048 24.7751 27.4048Z" fill="#FF9500"/>
</g>
<defs>
<filter id="filter0_i" x="0" y="0" width="52.1799" height="84" filterUnits="userSpaceOnUse" color-interpolation-filters="sRGB">
<feFlood flood-opacity="0" result="BackgroundImageFix"/>
<feBlend mode="normal" in="SourceGraphic" in2="BackgroundImageFix" result="shape"/>
<feColorMatrix in="SourceAlpha" type="matrix" values="0 0 0 0 0 0 0 0 0 0 0 0 0 0 0 0 0 0 127 0" result="hardAlpha"/>
<feOffset dy="4"/>
<feGaussianBlur stdDeviation="2"/>
<feComposite in2="hardAlpha" operator="arithmetic" k2="-1" k3="1"/>
<feColorMatrix type="matrix" values="0 0 0 0 0 0 0 0 0 0 0 0 0 0 0 0 0 0 0.25 0"/>
<feBlend mode="normal" in2="shape" result="effect1_innerShadow"/>
</filter>
</defs>
</svg>
