<svg width="80" height="58" viewBox="0 0 80 58" fill="none" xmlns="http://www.w3.org/2000/svg">
<g filter="url(#filter0_i)">
<path d="M40 54.3253C39.4464 54.3253 39.0311 54.0484 38.7543 53.564C38.2699 52.872 38.6159 52.0415 39.308 51.6955C40.5536 51.0035 41.4533 50.173 41.4533 49.4118C41.4533 48.7197 40.7612 47.8893 39.308 47.128C37.0242 45.7439 35.7093 44.0138 35.7093 42.1453C35.7093 40.2768 37.0242 38.6159 39.308 37.301C40 36.8858 40.8997 37.1626 41.1765 37.8547C41.4533 38.6159 41.3149 39.4464 40.5536 39.7232C39.4464 40.5536 38.6159 41.4533 38.6159 42.1453C38.6159 42.8374 39.308 43.737 40.7612 44.4291C43.045 45.6055 44.2907 47.474 44.2907 49.2733C44.2907 51.1419 43.045 52.872 40.7612 54.1868C40.4152 54.3253 40.2768 54.3253 40 54.3253ZM2.83737 21.4533C2.83737 20.5536 3.46021 20 4.29066 20H75.7093C76.609 20 77.1626 20.5536 77.1626 21.4533C77.1626 22.2837 76.609 22.8374 75.7093 22.8374H4.29066C3.46021 22.8374 2.83737 22.2837 2.83737 21.4533ZM4.29066 14.2561C3.46021 14.2561 2.83737 14.8789 2.83737 15.7093C2.83737 16.5398 3.46021 17.1626 4.29066 17.1626H75.7093C76.609 17.1626 77.1626 16.5398 77.1626 15.7093C77.1626 14.8789 76.609 14.2561 75.7093 14.2561H4.29066ZM4.29066 25.7439H75.7093C76.609 25.7439 77.1626 26.2976 77.1626 27.128C77.1626 28.0277 76.609 28.5813 75.7093 28.5813H4.29066C3.46021 28.5813 2.83737 28.0277 2.83737 27.128C2.83737 26.2976 3.46021 25.7439 4.29066 25.7439ZM1.45329 31.4187H78.6159C79.4464 31.4187 80 30.865 80 30.0346V1.45329C80 0.553633 79.4464 0 78.6159 0H1.45329C0.692042 0 0 0.553633 0 1.45329V30.0346C0 30.865 0.553633 31.4187 1.45329 31.4187ZM45.7439 10.0346H34.3253C33.4256 10.0346 32.872 9.41176 32.872 8.58131C32.872 7.68166 33.4256 7.12803 34.3253 7.12803H45.7439C46.5744 7.12803 47.128 7.68166 47.128 8.58131C47.128 9.41176 46.5744 10.0346 45.7439 10.0346ZM55.7093 57.1626C55.1557 57.1626 54.7405 56.8858 54.4637 56.4706C54.0484 55.7093 54.3253 54.8789 55.0173 54.6021C56.3322 53.8408 57.1626 53.0104 57.1626 52.3183C57.1626 51.5571 56.4706 50.7266 55.0173 50.0346C52.7336 48.5813 51.4187 46.8512 51.4187 44.9827C51.4187 43.1834 52.7336 41.4533 55.0173 40.1384C55.7093 39.7232 56.609 40 56.8858 40.692C57.1626 41.4533 57.0242 42.2837 56.3322 42.5605C55.1557 43.4602 54.3253 44.2907 54.3253 44.9827C54.3253 45.7439 55.0173 46.5744 56.4706 47.2664C58.7543 48.4429 60 50.3114 60 52.1799C60 54.0484 58.7543 55.7093 56.4706 57.0242C56.1938 57.1626 55.9862 57.1626 55.7093 57.1626ZM24.2907 57.1626C23.737 57.1626 23.3218 56.8858 22.9758 56.4706C22.5606 55.7093 22.8374 54.8789 23.5986 54.6021C24.8443 53.8408 25.7439 53.0104 25.7439 52.3183C25.7439 51.5571 24.9827 50.7266 23.5986 50.0346C21.3149 48.5813 20 46.8512 20 44.9827C20 43.1834 21.3149 41.4533 23.5986 40.1384C24.2907 39.7232 25.1211 40 25.4671 40.692C25.8824 41.4533 25.6055 42.2837 24.8443 42.5605C23.737 43.4602 22.8374 44.2907 22.8374 44.9827C22.8374 45.7439 23.5986 46.5744 24.9827 47.2664C27.2664 48.4429 28.5813 50.3114 28.5813 52.1799C28.5813 54.0484 27.2664 55.7093 24.9827 57.0242C24.7059 57.1626 24.5675 57.1626 24.2907 57.1626Z" fill="#FF9500"/>
</g>
<defs>
<filter id="filter0_i" x="0" y="0" width="80" height="61.1626" filterUnits="userSpaceOnUse" color-interpolation-filters="sRGB">
<feFlood flood-opacity="0" result="BackgroundImageFix"/>
<feBlend mode="normal" in="SourceGraphic" in2="BackgroundImageFix" result="shape"/>
<feColorMatrix in="SourceAlpha" type="matrix" values="0 0 0 0 0 0 0 0 0 0 0 0 0 0 0 0 0 0 127 0" result="hardAlpha"/>
<feOffset dy="4"/>
<feGaussianBlur stdDeviation="2"/>
<feComposite in2="hardAlpha" operator="arithmetic" k2="-1" k3="1"/>
<feColorMatrix type="matrix" values="0 0 0 0 0 0 0 0 0 0 0 0 0 0 0 0 0 0 0.25 0"/>
<feBlend mode="normal" in2="shape" result="effect1_innerShadow"/>
</filter>
</defs>
</svg>
