<svg width="72" height="80" viewBox="0 0 72 80" fill="none" xmlns="http://www.w3.org/2000/svg">
<g filter="url(#filter0_i)">
<path d="M0 38.1471H4.14169V68.2289H0V73.5332H4.14169V76.8029C4.14169 78.5468 5.95822 80 8.28338 80C10.5359 80 12.4251 78.5468 12.4251 76.8029V75.713C12.4251 74.5504 13.6603 73.5332 15.1862 73.5332C16.7121 73.5332 17.9473 74.5504 17.9473 75.713V76.8029C17.9473 78.5468 19.7639 80 22.0163 80C24.3415 80 26.158 78.5468 26.158 76.8029V75.713C26.158 74.5504 27.3933 73.5332 28.9192 73.5332C30.445 73.5332 31.6803 74.5504 31.6803 75.713V76.8029C31.6803 78.5468 33.5695 80 35.822 80C38.0745 80 39.9637 78.5468 39.9637 76.8029V75.713C39.9637 74.5504 41.1989 73.5332 42.7248 73.5332C44.2507 73.5332 45.4859 74.5504 45.4859 75.713V76.8029C45.4859 78.5468 47.3025 80 49.6276 80C51.8801 80 53.7693 78.5468 53.7693 76.8029V75.713C53.7693 74.5504 54.9319 73.5332 56.4578 73.5332C57.9837 73.5332 59.2189 74.5504 59.2189 75.713V76.8029C59.2189 78.5468 61.1081 80 63.3606 80C65.6857 80 67.5023 78.5468 67.5023 76.8029V73.5332H71.644V68.2289H67.5023V38.1471H71.644V32.7702H67.5023V29.5731C67.5023 27.8292 65.6857 26.376 63.3606 26.376C61.1081 26.376 59.2189 27.8292 59.2189 29.5731V30.663C59.2189 31.8256 57.9837 32.7702 56.4578 32.7702C54.9319 32.7702 53.7693 31.8256 53.7693 30.663V29.5731C53.7693 27.8292 51.8801 26.376 49.6276 26.376C47.3025 26.376 45.4859 27.8292 45.4859 29.5731V30.663C45.4859 31.8256 44.2507 32.7702 42.7248 32.7702C41.1989 32.7702 39.9637 31.8256 39.9637 30.663V29.5731C39.9637 27.8292 38.0745 26.376 35.822 26.376C33.5695 26.376 31.6803 27.8292 31.6803 29.5731V30.663C31.6803 31.8256 30.445 32.7702 28.9192 32.7702C27.3933 32.7702 26.158 31.8256 26.158 30.663V29.5731C26.158 27.8292 24.3415 26.376 22.0163 26.376C19.7639 26.376 17.9473 27.8292 17.9473 29.5731V30.663C17.9473 31.8256 16.7121 32.7702 15.1862 32.7702C13.6603 32.7702 12.4251 31.8256 12.4251 30.663V29.5731C12.4251 27.8292 10.5359 26.376 8.28338 26.376C5.95822 26.376 4.14169 27.8292 4.14169 29.5731V32.7702H0V38.1471ZM18.6013 0C19.1826 0 19.6185 0.290645 19.9092 0.726612C20.3451 1.45322 20.0545 2.39782 19.3279 2.68847C17.9473 3.41508 17.0754 4.35967 17.0754 5.08629C17.0754 5.8129 17.802 6.75749 19.3279 7.48411C21.7257 9.00999 23.1063 10.7539 23.1063 12.7157C23.1063 14.6776 21.7257 16.4941 19.3279 17.802C18.6013 18.3106 17.6567 18.02 17.366 17.2207C17.0754 16.4941 17.2207 15.6222 17.9473 15.2589C19.1826 14.3869 20.0545 13.515 20.0545 12.7157C20.0545 11.9891 19.3279 11.1172 17.802 10.3179C15.4042 9.15531 14.0963 7.19346 14.0963 5.23161C14.0963 3.26976 15.4042 1.45322 17.802 0.145322C18.0926 0 18.238 0 18.6013 0ZM35.0954 2.97911C35.6767 2.97911 36.1126 3.26975 36.4033 3.70572C36.9119 4.505 36.5486 5.37693 35.822 5.66758C34.4414 6.46685 33.5695 7.33878 33.5695 8.0654C33.5695 8.86467 34.2961 9.7366 35.822 10.4632C38.2198 11.9891 39.6004 13.8056 39.6004 15.7675C39.6004 17.6567 38.2198 19.4732 35.822 20.8538C35.0954 21.2897 34.1508 20.9991 33.8601 20.2725C33.5695 19.4732 33.7148 18.6013 34.4414 18.3106C35.6767 17.366 36.5486 16.4941 36.5486 15.7675C36.5486 14.9682 35.822 14.0963 34.2961 13.3697C31.8983 12.1344 30.5904 10.1726 30.5904 8.21072C30.5904 6.32153 31.8983 4.505 34.2961 3.12443C34.6594 2.97911 34.8047 2.97911 35.0954 2.97911ZM51.5895 0C52.1708 0 52.6067 0.290645 52.8974 0.726612C53.406 1.45322 53.1153 2.39782 52.3161 2.68847C51.0082 3.41508 50.0636 4.35967 50.0636 5.08629C50.0636 5.8129 50.8629 6.75749 52.3161 7.48411C54.7139 9.00999 56.0945 10.7539 56.0945 12.7157C56.0945 14.6776 54.7139 16.4941 52.3161 17.802C51.5895 18.3106 50.7175 18.02 50.3542 17.2207C49.9183 16.4941 50.2089 15.6222 51.0082 15.2589C52.1708 14.3869 53.1153 13.515 53.1153 12.7157C53.1153 11.9891 52.3161 11.1172 50.8629 10.3179C48.465 9.15531 47.0845 7.19346 47.0845 5.23161C47.0845 3.26976 48.465 1.45322 50.8629 0.145322C51.1535 0 51.2988 0 51.5895 0ZM17.9473 67.139C17.9473 68.3016 16.7121 69.2461 15.1862 69.2461C13.6603 69.2461 12.4251 68.3016 12.4251 67.139V39.2371C12.4251 38.0745 13.6603 37.0572 15.1862 37.0572C16.7121 37.0572 17.9473 38.0745 17.9473 39.2371V67.139ZM31.6803 67.139C31.6803 68.3016 30.445 69.2461 28.9192 69.2461C27.3933 69.2461 26.158 68.3016 26.158 67.139V39.2371C26.158 38.0745 27.3933 37.0572 28.9192 37.0572C30.445 37.0572 31.6803 38.0745 31.6803 39.2371V67.139ZM45.4859 67.139C45.4859 68.3016 44.2507 69.2461 42.7248 69.2461C41.1989 69.2461 39.9637 68.3016 39.9637 67.139V39.2371C39.9637 38.0745 41.1989 37.0572 42.7248 37.0572C44.2507 37.0572 45.4859 38.0745 45.4859 39.2371V67.139ZM59.2189 67.139C59.2189 68.3016 57.9837 69.2461 56.4578 69.2461C54.9319 69.2461 53.7693 68.3016 53.7693 67.139V39.2371C53.7693 38.0745 54.9319 37.0572 56.4578 37.0572C57.9837 37.0572 59.2189 38.0745 59.2189 39.2371V67.139Z" fill="#FF9500"/>
</g>
<defs>
<filter id="filter0_i" x="0" y="0" width="71.644" height="84" filterUnits="userSpaceOnUse" color-interpolation-filters="sRGB">
<feFlood flood-opacity="0" result="BackgroundImageFix"/>
<feBlend mode="normal" in="SourceGraphic" in2="BackgroundImageFix" result="shape"/>
<feColorMatrix in="SourceAlpha" type="matrix" values="0 0 0 0 0 0 0 0 0 0 0 0 0 0 0 0 0 0 127 0" result="hardAlpha"/>
<feOffset dy="4"/>
<feGaussianBlur stdDeviation="2"/>
<feComposite in2="hardAlpha" operator="arithmetic" k2="-1" k3="1"/>
<feColorMatrix type="matrix" values="0 0 0 0 0 0 0 0 0 0 0 0 0 0 0 0 0 0 0.25 0"/>
<feBlend mode="normal" in2="shape" result="effect1_innerShadow"/>
</filter>
</defs>
</svg>
