<svg width="229" height="138" viewBox="0 0 229 138" fill="none" xmlns="http://www.w3.org/2000/svg">
<g id="Group">
<g id="Group 2.1" transform="translate(0,80)">
<path id="Vector" d="M14 29C88.2213 34.3867 143.658 29.2872 216 29V123.988C216 123.988 197.636 126 115 126C32.3636 126 14 123.988 14 123.988V29Z" fill="#007AFF" fill-opacity="0.35"/>
</g>
<g id="Subtract">
<mask id="path-2-inside-1" fill="white">
<path fill-rule="evenodd" clip-rule="evenodd" d="M15 0H0V138H229V0H214V123H15V0Z"/>
</mask>
<path fill-rule="evenodd" clip-rule="evenodd" d="M15 0H0V138H229V0H214V123H15V0Z" fill="#828282"/>
<path d="M0 0V-2H-2V0H0ZM15 0H17V-2H15V0ZM0 138H-2V140H0V138ZM229 138V140H231V138H229ZM229 0H231V-2H229V0ZM214 0V-2H212V0H214ZM214 123V125H216V123H214ZM15 123H13V125H15V123ZM0 2H15V-2H0V2ZM2 138V0H-2V138H2ZM229 136H0V140H229V136ZM227 0V138H231V0H227ZM214 2H229V-2H214V2ZM212 0V123H216V0H212ZM214 121H15V125H214V121ZM17 123V0H13V123H17Z" fill="#BDBDBD" mask="url(#path-2-inside-1)"/>
</g>
</g>
</svg>
