<svg width="71" height="41" viewBox="0 0 71 41" fill="none" xmlns="http://www.w3.org/2000/svg">
	<style>
	#rmin {
  -webkit-transform-origin: 36px 18.2px;
  -moz-transform-origin: 36px 18.2px;
  -ms-transform-origin: 36px 18.2px;
  transform-origin: 36px 18.2px;
}
</style>
<g>
<g id="Group 2">
<g id="Group 2.1">
<path id="Vector" d="M0 20L13 20L13 32L0 32L0 20Z" fill="url(#rpump-0_linear)"/>
<path id="Vector_2" d="M1 18L7 18L7 34H1L1 18Z" fill="url(#rpump-1_linear)"/>
<rect id="Rectangle" width="20" height="25" rx="4" transform="matrix(0 1 1 0 33 0)" fill="url(#rpump-2_linear)"/>
<rect id="Rectangle_2" width="20" height="25" rx="4" transform="matrix(0 1 1 0 13 16)" fill="url(#rpump-3_linear)"/>
<circle id="Ellipse" r="17.7934" transform="matrix(0 1 1 0 35.9066 18.2055)" fill="url(#rpump-4_radial)"/>
<path id="Vector_3" d="M71 16L58 16L58 4L71 4V16Z" fill="url(#rpump-5_linear)"/>
<path id="Vector_4" d="M70 18L64 18L64 2L70 2L70 18Z" fill="url(#rpump-6_linear)"/>
</g>
<g class="click fault inactive" reference="PUMP-RMIN-CONTROL">
<g class="fault inactive" reference="PUMP-RMIN-STATUS">
<circle id="Ellipse_2" cx="36" cy="18.2939" r="15"/>
<g id="rmin" class="animation-spin">
<path d="M34.3773 31H37.6273L37.6273 5H34.3773L34.3773 31Z" fill="#4F4F4F"/>
<path d="M46.4454 25.905L48.0704 23.0904L25.5537 10.0904L23.9287 12.905L46.4454 25.905Z" fill="#4F4F4F"/>
<path d="M41.0947 30.0675L43.9092 28.4425L30.9092 5.9258L28.0947 7.5508L41.0947 30.0675Z" fill="#4F4F4F"/>
<path d="M28.0937 28.4451L30.9083 30.0701L43.9083 7.55339L41.0937 5.92839L28.0937 28.4451Z" fill="#4F4F4F"/>
<path d="M23.9316 23.0943L25.5566 25.9089L48.0732 12.9089L46.4482 10.0943L23.9316 23.0943Z" fill="#4F4F4F"/>
<path d="M49 19.6218L49 16.3718L23 16.3718V19.6218L49 19.6218Z" fill="#4F4F4F"/>
</g>
</g>
</g>
<g class="fault inactive" reference="ALARM-RMIN">
<g  class="animation-fail">
<g id="Group 2_2">
<path id="path19629" d="M35.9356 4.30116C36.9538 3.6812 38.2558 4.04911 38.8437 5.12292L51.7144 28.6324C52.3023 29.7062 51.9534 31.0793 50.9352 31.6992C50.6116 31.8963 50.2444 32 49.8707 32H24.1293C23.7556 32 23.3884 31.8963 23.0648 31.6992C22.0466 31.0792 21.6977 29.7062 22.2856 28.6324L35.1563 5.12292C35.3432 4.78163 35.6119 4.49821 35.9356 4.30116V4.30116Z" fill="black"/>
<path id="path19629_2" d="M36.0984 6.76754C36.96 6.23086 38.0617 6.54935 38.5591 7.47892L49.4498 27.8304C49.9472 28.7599 49.652 29.9486 48.7904 30.4853C48.5166 30.6558 48.2059 30.7456 47.8897 30.7456H26.1085C25.7923 30.7456 25.4816 30.6558 25.2078 30.4853C24.3462 29.9486 24.051 28.7599 24.5484 27.8304L35.4391 7.47892C35.5972 7.18347 35.8246 6.93812 36.0984 6.76754V6.76754Z" fill="white"/>
<path id="path19631" d="M35.1272 25.5465C35.1272 25.8138 35.1755 26.0785 35.2696 26.3255C35.3636 26.5724 35.5015 26.7969 35.6753 26.9859C35.8492 27.1749 36.0555 27.3249 36.2827 27.4272C36.5098 27.5295 36.7533 27.5822 36.9992 27.5822C37.245 27.5822 37.4885 27.5295 37.7156 27.4272C37.9428 27.3249 38.1492 27.1749 38.323 26.9859C38.4968 26.7969 38.6347 26.5724 38.7288 26.3255C38.8228 26.0785 38.8712 25.8138 38.8711 25.5465C38.8712 25.2792 38.8228 25.0144 38.7288 24.7675C38.6347 24.5205 38.4968 24.2961 38.323 24.107C38.1492 23.918 37.9428 23.768 37.7156 23.6657C37.4885 23.5634 37.245 23.5107 36.9992 23.5107C36.7533 23.5107 36.5098 23.5634 36.2827 23.6657C36.0555 23.768 35.8492 23.918 35.6753 24.107C35.5015 24.2961 35.3636 24.5205 35.2696 24.7675C35.1755 25.0144 35.1272 25.2792 35.1272 25.5465V25.5465Z" fill="black"/>
<path id="path19633" d="M38.8549 15.2278C38.9898 14.1134 38.2683 13.0911 37.2433 12.9444C36.2183 12.7977 35.278 13.5821 35.1431 14.6965C35.1217 14.8728 35.1217 15.0514 35.1431 15.2278L36.0474 22.6957H37.9505L38.8549 15.2278Z" fill="black"/>
</g>
<g id="flags">
<path id="path4410" d="M37.0333 5.67228C37.5514 5.68455 38.0512 5.97408 38.3292 6.48304L50.2561 28.3142C50.6798 29.0898 50.4283 30.0816 49.6944 30.5293C49.4612 30.6717 49.1966 30.7465 48.9272 30.7465H25.0735C24.8042 30.7465 24.5396 30.6717 24.3063 30.5293C23.5725 30.0816 23.3209 29.0898 23.7446 28.3142L35.6715 6.48304C35.8062 6.23654 35.9999 6.03177 36.2332 5.88945C36.4855 5.73553 36.7619 5.66586 37.0333 5.67228ZM37.0305 8.46361C36.9463 8.45733 36.8598 8.47789 36.7812 8.52587C36.7145 8.56653 36.6594 8.62476 36.6209 8.69526L26.0311 28.0782C25.9101 28.2997 25.9817 28.583 26.1914 28.7109C26.258 28.7516 26.3336 28.7732 26.4106 28.7732H47.5888C47.8309 28.7732 48.0272 28.5657 48.0272 28.3099C48.0272 28.2285 48.0081 28.1485 47.9696 28.0782L37.3799 8.69526C37.3042 8.55679 37.1709 8.47409 37.0305 8.46361Z"/>
</g>
</g>
</g>
<g class="fault hide" reference="HAND-RMIN">
		<g class="animation-hide">
<g id="Flade">
<path id="Subtract" fill-rule="evenodd" clip-rule="evenodd" d="M61.6004 26.6084C59.3426 26.6084 57.5123 24.7933 57.5123 22.5542C57.5123 20.3151 59.3426 18.5 61.6004 18.5C63.8582 18.5 65.6885 20.3151 65.6885 22.5542C65.6885 24.7933 63.8582 26.6084 61.6004 26.6084ZM61.6 25.5949C59.9066 25.5949 58.5339 24.2335 58.5339 22.5542C58.5339 20.8749 59.9066 19.5136 61.6 19.5136C63.2933 19.5136 64.666 20.8749 64.666 22.5542C64.666 24.2335 63.2933 25.5949 61.6 25.5949Z"/>
</g>
<g id="Group">
<path id="Vector_6" d="M60.375 21.8599C60.375 21.2486 60.9172 20.7529 61.5859 20.7529C62.2547 20.7529 62.7969 21.2486 62.7969 21.8599V31.0419C62.7969 31.6533 62.46 30.2831 61.7912 30.2831C61.1224 30.2831 60.375 30.6713 60.375 30.0599V21.8599Z" fill="white"/>
<path id="Vector_7" d="M57.7861 27.5445C57.7861 26.9331 58.3283 26.4375 58.9971 26.4375C59.6659 26.4375 60.208 26.9331 60.208 27.5445V30.1871C60.208 30.7985 59.6659 30.9906 58.9971 30.9906C58.3283 30.9906 57.7861 31.6019 57.7861 30.9906V27.5445Z" fill="white"/>
<path id="Vector_8" d="M55.1602 28.483C55.1602 27.8716 55.7023 27.376 56.3711 27.376C57.0399 27.376 57.582 27.8716 57.582 28.483V31.1702C57.582 31.7816 57.0399 31.5719 56.3711 31.5719C55.7023 31.5719 55.1602 32.4958 55.1602 31.8844V28.483Z" fill="white"/>
<path id="Vector_9" d="M52.4996 29.4557C52.4996 28.8443 53.0418 28.3486 53.7106 28.3486C54.3794 28.3486 54.9215 28.8443 54.9215 29.4557V32.0759C54.9215 32.6873 56.3908 39.9545 55.722 39.9545C54.1669 39.8988 52.4996 36.071 52.4996 35.3344V29.4557Z" fill="white"/>
<g id="Vector_10">
<mask id="path-20-inside-1" fill="white">
<path d="M64.9895 28.8142C65.312 28.3133 66.0175 28.2455 66.5653 28.6626C67.1132 29.0798 67.2958 29.8239 66.9734 30.3247L65.6896 33.0184C65.5012 34.1683 62.4878 40.6961 61.3384 40.0488C60.189 39.4016 62.4321 31.4659 62.7546 30.965L64.9895 28.8142Z"/>
</mask>
<path d="M64.9895 28.8142C65.312 28.3133 66.0175 28.2455 66.5653 28.6626C67.1132 29.0798 67.2958 29.8239 66.9734 30.3247L65.6896 33.0184C65.5012 34.1683 62.4878 40.6961 61.3384 40.0488C60.189 39.4016 62.4321 31.4659 62.7546 30.965L64.9895 28.8142Z" fill="white"/>
<path d="M64.9895 28.8142L68.9676 31.8432L68.6562 32.3267L68.2491 32.7185L64.9895 28.8142ZM62.7546 30.965L58.7765 27.936L59.0879 27.4525L59.495 27.0606L62.7546 30.965ZM61.3384 40.0488L63.4773 35.471L63.4773 35.471L61.3384 40.0488ZM65.6896 33.0184L60.9503 31.9859L61.0738 31.2321L61.3963 30.5553L65.6896 33.0184ZM66.9734 30.3247L62.6801 27.8617L62.8205 27.5673L62.9953 27.2957L66.9734 30.3247ZM63.8584 32.8665C64.9468 33.6953 67.4401 34.2154 68.9676 31.8432L61.0114 25.7851C63.1839 22.4113 67.0882 22.7957 69.2722 24.4587L63.8584 32.8665ZM68.2491 32.7185L66.0141 34.8694L59.495 27.0606L61.7299 24.9098L68.2491 32.7185ZM66.7326 33.9941C66.9139 33.7125 67.0194 33.4816 67.0424 33.4318C67.0813 33.3472 67.1041 33.2895 67.1091 33.2769C67.1194 33.2508 67.1104 33.2717 67.0809 33.3591C67.0243 33.5266 66.9389 33.799 66.8345 34.1612C66.6266 34.8824 66.3833 35.821 66.1838 36.7488C65.9742 37.7237 65.8577 38.4827 65.8299 38.9195C65.8139 39.1704 65.847 39.0352 65.7869 38.6847C65.7555 38.5017 65.664 38.0479 65.39 37.4966C65.1033 36.92 64.5227 36.0597 63.4773 35.471L59.1995 44.6267C56.8871 43.3245 56.4253 40.8853 56.3252 40.3017C56.1689 39.3914 56.1913 38.5261 56.229 37.9342C56.3085 36.6854 56.5575 35.3078 56.8053 34.1553C57.0632 32.9557 57.3693 31.7759 57.6368 30.8481C57.77 30.3857 57.9038 29.951 58.0271 29.5861C58.0875 29.4073 58.1587 29.2057 58.2367 29.008C58.2636 28.9399 58.453 28.4384 58.7765 27.936L66.7326 33.9941ZM63.4773 35.471C61.4426 34.3252 59.7356 35.2426 59.3739 35.4655C58.9314 35.7382 58.7549 35.9907 58.8503 35.8758C58.9904 35.7069 59.2974 35.2518 59.7043 34.5027C60.083 33.8056 60.4442 33.0471 60.7127 32.4201C60.8469 32.1065 60.9421 31.863 60.9989 31.7039C61.0922 31.443 61.0122 31.6078 60.9503 31.9859L70.4289 34.0508C70.3198 34.7164 70.1045 35.3368 69.9924 35.6504C69.8439 36.0659 69.6638 36.5159 69.4711 36.966C69.0856 37.8661 68.5864 38.9147 68.0445 39.9124C67.5308 40.8581 66.8571 41.9855 66.1031 42.8944C65.7513 43.3184 65.1494 43.9837 64.3214 44.494C63.5741 44.9545 61.5216 45.9342 59.1995 44.6267L63.4773 35.471ZM61.3963 30.5553L62.6801 27.8617L71.2666 32.7878L69.9828 35.4814L61.3963 30.5553ZM62.9953 27.2957C61.4678 29.6679 62.77 32.0378 63.8584 32.8665L69.2722 24.4587C71.4563 26.1218 73.1239 29.9799 70.9514 33.3538L62.9953 27.2957Z" fill="white" mask="url(#path-20-inside-1)"/>
</g>
<path id="Vector_11" d="M56.4517 40.0195C54.298 40.0195 53.5168 35.9451 53.5168 33.2333C54.7072 31.3139 58.4837 30.3095 62.0959 29.9971C64.0759 30.1914 62.0641 39.1907 61.8702 39.7058C61.6763 40.2209 58.148 40.4233 56.4517 40.0195Z" fill="white"/>
</g>
</g>
</g>
</g>
</g>
<defs>
<linearGradient id="rpump-0_linear" x1="6.5" y1="20" x2="6.5" y2="32" gradientUnits="userSpaceOnUse">
<stop stop-color="#4F4F4F"/>
<stop offset="0.519337" stop-color="white"/>
<stop offset="1" stop-color="#4F4F4F"/>
</linearGradient>
<linearGradient id="rpump-1_linear" x1="4" y1="18" x2="4" y2="34" gradientUnits="userSpaceOnUse">
<stop stop-color="#4F4F4F"/>
<stop offset="0.491713" stop-color="white"/>
<stop offset="1" stop-color="#4F4F4F"/>
</linearGradient>
<linearGradient id="rpump-2_linear" x1="20" y1="25" x2="0" y2="25" gradientUnits="userSpaceOnUse">
<stop stop-color="#4F4F4F"/>
<stop offset="0.513812" stop-color="white"/>
<stop offset="1" stop-color="#4F4F4F"/>
</linearGradient>
<linearGradient id="rpump-3_linear" x1="20" y1="25" x2="0" y2="25" gradientUnits="userSpaceOnUse">
<stop stop-color="#4F4F4F"/>
<stop offset="0.513812" stop-color="white"/>
<stop offset="1" stop-color="#4F4F4F"/>
</linearGradient>
<radialGradient id="rpump-4_radial" cx="0" cy="0" r="1" gradientUnits="userSpaceOnUse" gradientTransform="translate(17.794 17.4718) rotate(90.002) scale(18.1149)">
<stop offset="0.872928" stop-color="#828282"/>
<stop offset="1" stop-color="#4F4F4F"/>
</radialGradient>
<linearGradient id="rpump-5_linear" x1="64.5" y1="16" x2="64.5" y2="4" gradientUnits="userSpaceOnUse">
<stop stop-color="#4F4F4F"/>
<stop offset="0.519337" stop-color="white"/>
<stop offset="1" stop-color="#4F4F4F"/>
</linearGradient>
<linearGradient id="rpump-6_linear" x1="67" y1="18" x2="67" y2="2" gradientUnits="userSpaceOnUse">
<stop stop-color="#4F4F4F"/>
<stop offset="0.491713" stop-color="white"/>
<stop offset="1" stop-color="#4F4F4F"/>
</linearGradient>
</defs>
</svg>
