<svg width="72" height="41" viewBox="0 0 72 41" fill="none" xmlns="http://www.w3.org/2000/svg">
	<style>
	#lmin {
  -webkit-transform-origin: 35.5px 18.5px;
  -moz-transform-origin: 35.5px 18.5px;
  -ms-transform-origin: 35.5px 18.5px;
  transform-origin: 35.5px 18.5px;
}
</style>
<g>
<g id="Group 2">
<g id="Group 2.1">
<path id="Vector" d="M71.5 20.5L58.5 20.5L58.5 32.5L71.5 32.5V20.5Z" fill="url(#pump-lmin-paint0_linear)"/>
<path id="Vector_2" d="M70.5 18.5L64.5 18.5V34.5H70.5V18.5Z" fill="url(#pump-lmin-paint1_linear)"/>
<rect id="Rectangle" x="38.5" y="0.5" width="20" height="25" rx="4" transform="rotate(90 38.5 0.5)" fill="url(#pump-lmin-paint2_linear)"/>
<rect id="Rectangle_2" x="58.5" y="16.5" width="20" height="25" rx="4" transform="rotate(90 58.5 16.5)" fill="url(#pump-lmin-paint3_linear)"/>
<circle id="Ellipse" cx="35.5934" cy="18.7055" r="17.7934" transform="rotate(90 35.5934 18.7055)" fill="url(#pump-lmin-paint4_radial)"/>
<path id="Vector_3" d="M0.5 16.5L13.5 16.5L13.5 4.5L0.5 4.5L0.5 16.5Z" fill="url(#pump-lmin-paint5_linear)"/>
<path id="Vector_4" d="M1.5 18.5L7.5 18.5L7.5 2.5L1.5 2.5L1.5 18.5Z" fill="url(#pump-lmin-paint6_linear)"/>
</g>
<g class="click fault inactive" reference="PUMP-LMIN-CONTROL">
<g class="fault inactive" reference="PUMP-LMIN-STATUS">
<circle id="Ellipse_2" r="15" transform="matrix(-1 0 0 1 35.5 18.7939)"/>
<g id="lmin" class="animation-revspin">
<path d="M37.1227 31.5H33.8727L33.8727 5.5H37.1227L37.1227 31.5Z" fill="#4F4F4F"/>
<path d="M25.0546 26.405L23.4296 23.5904L45.9463 10.5904L47.5713 13.405L25.0546 26.405Z" fill="#4F4F4F"/>
<path d="M30.4053 30.5675L27.5908 28.9425L40.5908 6.4258L43.4053 8.0508L30.4053 30.5675Z" fill="#4F4F4F"/>
<path d="M43.4063 28.9451L40.5917 30.5701L27.5917 8.05339L30.4063 6.42839L43.4063 28.9451Z" fill="#4F4F4F"/>
<path d="M47.5684 23.5943L45.9434 26.4089L23.4268 13.4089L25.0518 10.5943L47.5684 23.5943Z" fill="#4F4F4F"/>
<path d="M22.5 20.1218V16.8718L48.5 16.8718V20.1218L22.5 20.1218Z" fill="#4F4F4F"/>
</g>
</g>
</g>
<g class="fault inactive" reference="ALARM-LMIN">
<g  class="animation-fail">
<g id="Group 2_2">
<path id="path19629" d="M35.5644 4.80116C34.5462 4.1812 33.2442 4.54911 32.6563 5.62292L19.7856 29.1324C19.1977 30.2062 19.5466 31.5793 20.5648 32.1992C20.8884 32.3963 21.2556 32.5 21.6293 32.5H47.3707C47.7444 32.5 48.1116 32.3963 48.4352 32.1992C49.4534 31.5792 49.8023 30.2062 49.2144 29.1324L36.3437 5.62292C36.1568 5.28163 35.8881 4.99821 35.5644 4.80116V4.80116Z" fill="black"/>
<path id="path19629_2" d="M35.4016 7.26754C34.54 6.73086 33.4383 7.04935 32.9409 7.97892L22.0502 28.3304C21.5528 29.2599 21.848 30.4486 22.7096 30.9853C22.9834 31.1558 23.2941 31.2456 23.6103 31.2456H45.3915C45.7077 31.2456 46.0184 31.1558 46.2922 30.9853C47.1538 30.4486 47.449 29.2599 46.9516 28.3304L36.0609 7.97892C35.9028 7.68347 35.6754 7.43812 35.4016 7.26754V7.26754Z" fill="white"/>
<path id="path19631" d="M36.3728 26.0465C36.3728 26.3138 36.3245 26.5785 36.2304 26.8255C36.1364 27.0724 35.9985 27.2969 35.8247 27.4859C35.6508 27.6749 35.4445 27.8249 35.2173 27.9272C34.9902 28.0295 34.7467 28.0822 34.5008 28.0822C34.255 28.0822 34.0115 28.0295 33.7844 27.9272C33.5572 27.8249 33.3508 27.6749 33.177 27.4859C33.0032 27.2969 32.8653 27.0724 32.7712 26.8255C32.6772 26.5785 32.6288 26.3138 32.6289 26.0465C32.6288 25.7792 32.6772 25.5144 32.7712 25.2675C32.8653 25.0205 33.0032 24.7961 33.177 24.607C33.3508 24.418 33.5572 24.268 33.7844 24.1657C34.0115 24.0634 34.255 24.0107 34.5008 24.0107C34.7467 24.0107 34.9902 24.0634 35.2173 24.1657C35.4445 24.268 35.6508 24.418 35.8247 24.607C35.9985 24.7961 36.1364 25.0205 36.2304 25.2675C36.3245 25.5144 36.3728 25.7792 36.3728 26.0465V26.0465Z" fill="black"/>
<path id="path19633" d="M32.6451 15.7278C32.5102 14.6134 33.2317 13.5911 34.2567 13.4444C35.2817 13.2977 36.222 14.0821 36.3569 15.1965C36.3783 15.3728 36.3783 15.5514 36.3569 15.7278L35.4526 23.1957H33.5495L32.6451 15.7278Z" fill="black"/>
</g>
<g id="flags">
<path id="path4410" d="M34.4667 6.17228C33.9486 6.18455 33.4488 6.47408 33.1708 6.98304L21.2439 28.8142C20.8202 29.5898 21.0717 30.5816 21.8056 31.0293C22.0388 31.1717 22.3034 31.2465 22.5728 31.2465H46.4265C46.6958 31.2465 46.9604 31.1717 47.1937 31.0293C47.9275 30.5816 48.1791 29.5898 47.7554 28.8142L35.8285 6.98304C35.6938 6.73654 35.5001 6.53177 35.2668 6.38945C35.0145 6.23553 34.7381 6.16586 34.4667 6.17228ZM34.4695 8.96361C34.5537 8.95733 34.6402 8.97789 34.7188 9.02587C34.7855 9.06653 34.8406 9.12476 34.8791 9.19526L45.4689 28.5782C45.5899 28.7997 45.5183 29.083 45.3086 29.2109C45.242 29.2516 45.1664 29.2732 45.0894 29.2732H23.9112C23.6691 29.2732 23.4728 29.0657 23.4728 28.8099C23.4728 28.7285 23.4919 28.6485 23.5304 28.5782L34.1201 9.19526C34.1958 9.05679 34.3291 8.97409 34.4695 8.96361Z"/>
</g>
</g>
</g>
<g class="fault hide" reference="HAND-LMIN">
		<g class="animation-hide">
<g id="Flade">
<path id="Subtract" fill-rule="evenodd" clip-rule="evenodd" d="M12.1004 27.1084C9.84262 27.1084 8.01232 25.2933 8.01232 23.0542C8.01232 20.8151 9.84262 19 12.1004 19C14.3582 19 16.1885 20.8151 16.1885 23.0542C16.1885 25.2933 14.3582 27.1084 12.1004 27.1084ZM12.1 26.0949C10.4066 26.0949 9.0339 24.7335 9.0339 23.0542C9.0339 21.3749 10.4066 20.0136 12.1 20.0136C13.7933 20.0136 15.166 21.3749 15.166 23.0542C15.166 24.7335 13.7933 26.0949 12.1 26.0949Z"/>
</g>
<g id="Group">
<path id="Vector_6" d="M10.875 22.3599C10.875 21.7486 11.4172 21.2529 12.0859 21.2529C12.7547 21.2529 13.2969 21.7486 13.2969 22.3599V31.5419C13.2969 32.1533 12.96 30.7831 12.2912 30.7831C11.6224 30.7831 10.875 31.1713 10.875 30.5599V22.3599Z" fill="white"/>
<path id="Vector_7" d="M8.28613 28.0445C8.28613 27.4331 8.82829 26.9375 9.49707 26.9375C10.1659 26.9375 10.708 27.4331 10.708 28.0445V30.6871C10.708 31.2985 10.1659 31.4906 9.49707 31.4906C8.82829 31.4906 8.28613 32.1019 8.28613 31.4906V28.0445Z" fill="white"/>
<path id="Vector_8" d="M5.66015 28.983C5.66015 28.3716 6.20231 27.876 6.87109 27.876C7.53988 27.876 8.08203 28.3716 8.08203 28.983V31.6702C8.08203 32.2816 7.53988 32.0719 6.87109 32.0719C6.20231 32.0719 5.66015 32.9958 5.66015 32.3844V28.983Z" fill="white"/>
<path id="Vector_9" d="M2.99965 29.9557C2.99965 29.3443 3.5418 28.8486 4.21059 28.8486C4.87937 28.8486 5.42153 29.3443 5.42153 29.9557V32.5759C5.42153 33.1873 6.89077 40.4545 6.22199 40.4545C4.66691 40.3988 2.99965 36.571 2.99965 35.8344L2.99965 29.9557Z" fill="white"/>
<g id="Vector_10">
<mask id="path-20-inside-1" fill="white">
<path d="M15.4895 29.3142C15.812 28.8133 16.5175 28.7455 17.0653 29.1626C17.6132 29.5798 17.7958 30.3239 17.4734 30.8247L16.1896 33.5184C16.0012 34.6683 12.9878 41.1961 11.8384 40.5488C10.689 39.9016 12.9321 31.9659 13.2546 31.465L15.4895 29.3142Z"/>
</mask>
<path d="M15.4895 29.3142C15.812 28.8133 16.5175 28.7455 17.0653 29.1626C17.6132 29.5798 17.7958 30.3239 17.4734 30.8247L16.1896 33.5184C16.0012 34.6683 12.9878 41.1961 11.8384 40.5488C10.689 39.9016 12.9321 31.9659 13.2546 31.465L15.4895 29.3142Z" fill="white"/>
<path d="M15.4895 29.3142L19.4676 32.3432L19.1562 32.8267L18.7491 33.2185L15.4895 29.3142ZM13.2546 31.465L9.2765 28.436L9.58786 27.9525L9.99499 27.5606L13.2546 31.465ZM11.8384 40.5488L13.9773 35.971L13.9773 35.971L11.8384 40.5488ZM16.1896 33.5184L11.4503 32.4859L11.5738 31.7321L11.8963 31.0553L16.1896 33.5184ZM17.4734 30.8247L13.1801 28.3617L13.3205 28.0673L13.4953 27.7957L17.4734 30.8247ZM14.3584 33.3665C15.4468 34.1953 17.9401 34.7154 19.4676 32.3432L11.5114 26.2851C13.6839 22.9113 17.5882 23.2957 19.7722 24.9587L14.3584 33.3665ZM18.7491 33.2185L16.5141 35.3694L9.99499 27.5606L12.2299 25.4098L18.7491 33.2185ZM17.2326 34.4941C17.4139 34.2125 17.5194 33.9816 17.5424 33.9318C17.5813 33.8472 17.6041 33.7895 17.6091 33.7769C17.6194 33.7508 17.6104 33.7717 17.5809 33.8591C17.5243 34.0266 17.4389 34.299 17.3345 34.6612C17.1266 35.3824 16.8833 36.321 16.6838 37.2488C16.4742 38.2237 16.3577 38.9827 16.3299 39.4195C16.3139 39.6704 16.347 39.5352 16.2869 39.1847C16.2555 39.0017 16.164 38.5479 15.89 37.9966C15.6033 37.42 15.0227 36.5597 13.9773 35.971L9.69953 45.1267C7.38706 43.8245 6.92531 41.3853 6.82516 40.8017C6.66894 39.8914 6.69125 39.0261 6.72896 38.4342C6.80852 37.1854 7.05749 35.8078 7.30528 34.6553C7.5632 33.4557 7.8693 32.2759 8.13675 31.3481C8.27003 30.8857 8.40377 30.451 8.52707 30.0861C8.58748 29.9073 8.65871 29.7057 8.73673 29.508C8.76363 29.4399 8.95299 28.9384 9.2765 28.436L17.2326 34.4941ZM13.9773 35.971C11.9426 34.8252 10.2356 35.7426 9.87391 35.9655C9.4314 36.2382 9.25495 36.4907 9.35026 36.3758C9.49041 36.2069 9.79742 35.7518 10.2043 35.0027C10.583 34.3056 10.9442 33.5471 11.2127 32.9201C11.3469 32.6065 11.4421 32.363 11.4989 32.2039C11.5922 31.943 11.5122 32.1078 11.4503 32.4859L20.9289 34.5508C20.8198 35.2164 20.6045 35.8368 20.4924 36.1504C20.3439 36.5659 20.1638 37.0159 19.9711 37.466C19.5856 38.3661 19.0864 39.4147 18.5445 40.4124C18.0308 41.3581 17.3571 42.4855 16.6031 43.3944C16.2513 43.8184 15.6494 44.4837 14.8214 44.994C14.0741 45.4545 12.0216 46.4342 9.69953 45.1267L13.9773 35.971ZM11.8963 31.0553L13.1801 28.3617L21.7666 33.2878L20.4828 35.9814L11.8963 31.0553ZM13.4953 27.7957C11.9678 30.1679 13.27 32.5378 14.3584 33.3665L19.7722 24.9587C21.9563 26.6218 23.6239 30.4799 21.4514 33.8538L13.4953 27.7957Z" fill="white" mask="url(#path-20-inside-1)"/>
</g>
<path id="Vector_11" d="M6.95174 40.5195C4.79803 40.5195 4.01675 36.4451 4.01675 33.7333C5.20716 31.8139 8.98365 30.8095 12.5959 30.4971C14.5759 30.6914 12.5641 39.6907 12.3702 40.2058C12.1763 40.7209 8.64799 40.9233 6.95174 40.5195Z" fill="white"/>
</g>
</g>
</g>
</g>
</g>
<defs>
<linearGradient id="pump-lmin-paint0_linear" x1="65" y1="20.5" x2="65" y2="32.5" gradientUnits="userSpaceOnUse">
<stop stop-color="#4F4F4F"/>
<stop offset="0.519337" stop-color="white"/>
<stop offset="1" stop-color="#4F4F4F"/>
</linearGradient>
<linearGradient id="pump-lmin-paint1_linear" x1="67.5" y1="18.5" x2="67.5" y2="34.5" gradientUnits="userSpaceOnUse">
<stop stop-color="#4F4F4F"/>
<stop offset="0.491713" stop-color="white"/>
<stop offset="1" stop-color="#4F4F4F"/>
</linearGradient>
<linearGradient id="pump-lmin-paint2_linear" x1="58.5" y1="25.5" x2="38.5" y2="25.5" gradientUnits="userSpaceOnUse">
<stop stop-color="#4F4F4F"/>
<stop offset="0.513812" stop-color="white"/>
<stop offset="1" stop-color="#4F4F4F"/>
</linearGradient>
<linearGradient id="pump-lmin-paint3_linear" x1="78.5" y1="41.5" x2="58.5" y2="41.5" gradientUnits="userSpaceOnUse">
<stop stop-color="#4F4F4F"/>
<stop offset="0.513812" stop-color="white"/>
<stop offset="1" stop-color="#4F4F4F"/>
</linearGradient>
<radialGradient id="pump-lmin-paint4_radial" cx="0" cy="0" r="1" gradientUnits="userSpaceOnUse" gradientTransform="translate(35.594 18.384) rotate(90.002) scale(18.1149)">
<stop offset="0.872928" stop-color="#828282"/>
<stop offset="1" stop-color="#4F4F4F"/>
</radialGradient>
<linearGradient id="pump-lmin-paint5_linear" x1="7" y1="16.5" x2="7" y2="4.5" gradientUnits="userSpaceOnUse">
<stop stop-color="#4F4F4F"/>
<stop offset="0.519337" stop-color="white"/>
<stop offset="1" stop-color="#4F4F4F"/>
</linearGradient>
<linearGradient id="pump-lmin-paint6_linear" x1="4.5" y1="18.5" x2="4.5" y2="2.5" gradientUnits="userSpaceOnUse">
<stop stop-color="#4F4F4F"/>
<stop offset="0.491713" stop-color="white"/>
<stop offset="1" stop-color="#4F4F4F"/>
</linearGradient>
</defs>
</svg>
