<svg width="70" height="50" viewBox="0 0 70 50" fill="none" xmlns="http://www.w3.org/2000/svg">
	<style>
	#minpump {
  -webkit-transform-origin: 34px 18px;
  -moz-transform-origin: 34px 18px;
  -ms-transform-origin: 34px 18px;
  transform-origin: 34px 18px;
}
</style>
<g>
<g id="Group 2">
<rect id="Rectangle" width="18.5047" height="22.1998" rx="4" transform="matrix(0 -1 -1 0 34.6875 26.585)" fill="url(#pump-min-paint0_linear)"/>
<rect id="Rectangle_2" width="18.5047" height="24.2811" rx="4" transform="matrix(0 -1 -1 0 56.8896 26.5029)" fill="url(#pump-min-paint1_linear)"/>
<ellipse id="Ellipse" rx="17.7934" ry="17.344" transform="matrix(0 -1 -1 0 34.3747 17.7936)" fill="url(#pump-min-paint2_radial)"/>
<g id="Group 2.1">
<path id="Vector" d="M0.000413895 12.8994H12.6143V23.8989H0.000413895V12.8994Z" fill="url(#pump-min-paint3_linear)"/>
<path id="Vector_2" d="M1.26046 10.3105H7.56738V26.4863H1.26046V10.3105Z" fill="url(#pump-min-paint4_linear)"/>
</g>
<g id="Group 2.2">
<path id="Vector_3" d="M69.3687 22.5273H56.7549V11.5278L69.3687 11.5278V22.5273Z" fill="url(#pump-min-paint5_linear)"/>
<path id="Vector_4" d="M68.1087 25.1172H61.8018V8.9414H68.1087V25.1172Z" fill="url(#pump-min-paint6_linear)"/>
</g>
</g>

<g class="click fault inactive" reference="PUMP-MIN-CONTROL">
	<g class="fault inactive" reference="PUMP-MIN-STATUS">
<ellipse id="Ellipse_2" rx="14.2218" ry="14.2344" transform="matrix(-1 0 0 1 34.3417 17.792)"/>
<g id="minpump" class="animation-spin">
<path d="M47 19.6297V16.3797H21V19.6297H47Z" fill="#4F4F4F"/>
<path d="M41.9099 7.55666L39.0954 5.93166L26.0954 28.4483L28.9099 30.0733L41.9099 7.55666Z" fill="#4F4F4F"/>
<path d="M46.0716 12.9143L44.4466 10.0997L21.9299 23.0997L23.5549 25.9143L46.0716 12.9143Z" fill="#4F4F4F"/>
<path d="M44.4492 25.9095L46.0742 23.0949L23.5576 10.0949L21.9326 12.9095L44.4492 25.9095Z" fill="#4F4F4F"/>
<path d="M39.0931 30.076L41.9077 28.451L28.9077 5.93438L26.0931 7.55938L39.0931 30.076Z" fill="#4F4F4F"/>
<path d="M35.6254 5H32.3754V31H35.6254V5Z" fill="#4F4F4F"/>
</g>
</g>
<g class="fault inactive" reference="ALARM-PUMP-MIN">
<g  class="animation-fail">
<g id="Group 2_2">
<path id="path19629" d="M35.0644 1.30116C34.0462 0.681197 32.7442 1.04911 32.1563 2.12292L19.2856 25.6324C18.6977 26.7062 19.0466 28.0793 20.0648 28.6992C20.3884 28.8963 20.7556 29 21.1293 29H46.8707C47.2444 29 47.6116 28.8963 47.9352 28.6992C48.9534 28.0792 49.3023 26.7062 48.7144 25.6324L35.8437 2.12292C35.6568 1.78163 35.3881 1.49821 35.0644 1.30116V1.30116Z" fill="black"/>
<path id="path19629_2" d="M34.9016 3.76754C34.04 3.23086 32.9383 3.54935 32.4409 4.47892L21.5502 24.8304C21.0528 25.7599 21.348 26.9486 22.2096 27.4853C22.4834 27.6558 22.7941 27.7456 23.1103 27.7456H44.8915C45.2077 27.7456 45.5184 27.6558 45.7922 27.4853C46.6538 26.9486 46.949 25.7599 46.4516 24.8304L35.5609 4.47892C35.4028 4.18347 35.1754 3.93812 34.9016 3.76754V3.76754Z" fill="white"/>
<path id="path19631" d="M35.8728 22.5465C35.8728 22.8138 35.8245 23.0785 35.7304 23.3255C35.6364 23.5724 35.4985 23.7969 35.3247 23.9859C35.1508 24.1749 34.9445 24.3249 34.7173 24.4272C34.4902 24.5295 34.2467 24.5822 34.0008 24.5822C33.755 24.5822 33.5115 24.5295 33.2844 24.4272C33.0572 24.3249 32.8508 24.1749 32.677 23.9859C32.5032 23.7969 32.3653 23.5724 32.2712 23.3255C32.1772 23.0785 32.1288 22.8138 32.1289 22.5465C32.1288 22.2792 32.1772 22.0144 32.2712 21.7675C32.3653 21.5205 32.5032 21.2961 32.677 21.107C32.8508 20.918 33.0572 20.768 33.2844 20.6657C33.5115 20.5634 33.755 20.5107 34.0008 20.5107C34.2467 20.5107 34.4902 20.5634 34.7173 20.6657C34.9445 20.768 35.1508 20.918 35.3247 21.107C35.4985 21.2961 35.6364 21.5205 35.7304 21.7675C35.8245 22.0144 35.8728 22.2792 35.8728 22.5465V22.5465Z" fill="black"/>
<path id="path19633" d="M32.1451 12.2278C32.0102 11.1134 32.7317 10.0911 33.7567 9.9444C34.7817 9.79769 35.722 10.5821 35.8569 11.6965C35.8783 11.8728 35.8783 12.0514 35.8569 12.2278L34.9526 19.6957H33.0495L32.1451 12.2278Z" fill="black"/>
</g>
<g id="flags">
<path id="path4410" d="M33.9667 2.67228C33.4486 2.68455 32.9488 2.97408 32.6708 3.48304L20.7439 25.3142C20.3202 26.0898 20.5717 27.0816 21.3056 27.5293C21.5388 27.6717 21.8034 27.7465 22.0728 27.7465H45.9265C46.1958 27.7465 46.4604 27.6717 46.6937 27.5293C47.4275 27.0816 47.6791 26.0898 47.2554 25.3142L35.3285 3.48304C35.1938 3.23654 35.0001 3.03177 34.7668 2.88945C34.5145 2.73553 34.2381 2.66586 33.9667 2.67228ZM33.9695 5.46361C34.0537 5.45733 34.1402 5.47789 34.2188 5.52587C34.2855 5.56653 34.3406 5.62476 34.3791 5.69526L44.9689 25.0782C45.0899 25.2997 45.0183 25.583 44.8086 25.7109C44.742 25.7516 44.6664 25.7732 44.5894 25.7732H23.4112C23.1691 25.7732 22.9728 25.5657 22.9728 25.3099C22.9728 25.2285 22.9919 25.1485 23.0304 25.0782L33.6201 5.69526C33.6958 5.55679 33.8291 5.47409 33.9695 5.46361Z"/>
</g>
</g>
</g>
<g class="fault hide" reference="HAND-PUMP-MIN">
		<g class="animation-hide">
<g id="Flade">
<path id="Subtract" fill-rule="evenodd" clip-rule="evenodd" d="M17.1004 36.1084C14.8426 36.1084 13.0123 34.2933 13.0123 32.0542C13.0123 29.8151 14.8426 28 17.1004 28C19.3582 28 21.1885 29.8151 21.1885 32.0542C21.1885 34.2933 19.3582 36.1084 17.1004 36.1084ZM17.1 35.0949C15.4066 35.0949 14.0339 33.7335 14.0339 32.0542C14.0339 30.3749 15.4066 29.0136 17.1 29.0136C18.7933 29.0136 20.166 30.3749 20.166 32.0542C20.166 33.7335 18.7933 35.0949 17.1 35.0949Z"/>
</g>
<g id="Group">
<path id="Vector_6" d="M15.875 31.3599C15.875 30.7486 16.4172 30.2529 17.0859 30.2529C17.7547 30.2529 18.2969 30.7486 18.2969 31.3599V40.5419C18.2969 41.1533 17.96 39.7831 17.2912 39.7831C16.6224 39.7831 15.875 40.1713 15.875 39.5599V31.3599Z" fill="white"/>
<path id="Vector_7" d="M13.2861 37.0445C13.2861 36.4331 13.8283 35.9375 14.4971 35.9375C15.1659 35.9375 15.708 36.4331 15.708 37.0445V39.6871C15.708 40.2985 15.1659 40.4906 14.4971 40.4906C13.8283 40.4906 13.2861 41.1019 13.2861 40.4906V37.0445Z" fill="white"/>
<path id="Vector_8" d="M10.6602 37.983C10.6602 37.3716 11.2023 36.876 11.8711 36.876C12.5399 36.876 13.082 37.3716 13.082 37.983V40.6702C13.082 41.2816 12.5399 41.0719 11.8711 41.0719C11.2023 41.0719 10.6602 41.9958 10.6602 41.3844V37.983Z" fill="white"/>
<path id="Vector_9" d="M7.99965 38.9557C7.99965 38.3443 8.5418 37.8486 9.21059 37.8486C9.87937 37.8486 10.4215 38.3443 10.4215 38.9557V41.5759C10.4215 42.1873 11.8908 49.4545 11.222 49.4545C9.66691 49.3988 7.99965 45.571 7.99965 44.8344V38.9557Z" fill="white"/>
<g id="Vector_10">
<mask id="path-20-inside-1" fill="white">
<path d="M20.4895 38.3142C20.812 37.8133 21.5175 37.7455 22.0653 38.1626C22.6132 38.5798 22.7958 39.3239 22.4734 39.8247L21.1896 42.5184C21.0012 43.6683 17.9878 50.1961 16.8384 49.5488C15.689 48.9016 17.9321 40.9659 18.2546 40.465L20.4895 38.3142Z"/>
</mask>
<path d="M20.4895 38.3142C20.812 37.8133 21.5175 37.7455 22.0653 38.1626C22.6132 38.5798 22.7958 39.3239 22.4734 39.8247L21.1896 42.5184C21.0012 43.6683 17.9878 50.1961 16.8384 49.5488C15.689 48.9016 17.9321 40.9659 18.2546 40.465L20.4895 38.3142Z" fill="white"/>
<path d="M20.4895 38.3142L24.4676 41.3432L24.1562 41.8267L23.7491 42.2185L20.4895 38.3142ZM18.2546 40.465L14.2765 37.436L14.5879 36.9525L14.995 36.5606L18.2546 40.465ZM16.8384 49.5488L18.9773 44.971L18.9773 44.971L16.8384 49.5488ZM21.1896 42.5184L16.4503 41.4859L16.5738 40.7321L16.8963 40.0553L21.1896 42.5184ZM22.4734 39.8247L18.1801 37.3617L18.3205 37.0673L18.4953 36.7957L22.4734 39.8247ZM19.3584 42.3665C20.4468 43.1953 22.9401 43.7154 24.4676 41.3432L16.5114 35.2851C18.6839 31.9113 22.5882 32.2957 24.7722 33.9587L19.3584 42.3665ZM23.7491 42.2185L21.5141 44.3694L14.995 36.5606L17.2299 34.4098L23.7491 42.2185ZM22.2326 43.4941C22.4139 43.2125 22.5194 42.9816 22.5424 42.9318C22.5813 42.8472 22.6041 42.7895 22.6091 42.7769C22.6194 42.7508 22.6104 42.7717 22.5809 42.8591C22.5243 43.0266 22.4389 43.299 22.3345 43.6612C22.1266 44.3824 21.8833 45.321 21.6838 46.2488C21.4742 47.2237 21.3577 47.9827 21.3299 48.4195C21.3139 48.6704 21.347 48.5352 21.2869 48.1847C21.2555 48.0017 21.164 47.5479 20.89 46.9966C20.6033 46.42 20.0227 45.5597 18.9773 44.971L14.6995 54.1267C12.3871 52.8245 11.9253 50.3853 11.8252 49.8017C11.6689 48.8914 11.6913 48.0261 11.729 47.4342C11.8085 46.1854 12.0575 44.8078 12.3053 43.6553C12.5632 42.4557 12.8693 41.2759 13.1368 40.3481C13.27 39.8857 13.4038 39.451 13.5271 39.0861C13.5875 38.9073 13.6587 38.7057 13.7367 38.508C13.7636 38.4399 13.953 37.9384 14.2765 37.436L22.2326 43.4941ZM18.9773 44.971C16.9426 43.8252 15.2356 44.7426 14.8739 44.9655C14.4314 45.2382 14.2549 45.4907 14.3503 45.3758C14.4904 45.2069 14.7974 44.7518 15.2043 44.0027C15.583 43.3056 15.9442 42.5471 16.2127 41.9201C16.3469 41.6065 16.4421 41.363 16.4989 41.2039C16.5922 40.943 16.5122 41.1078 16.4503 41.4859L25.9289 43.5508C25.8198 44.2164 25.6045 44.8368 25.4924 45.1504C25.3439 45.5659 25.1638 46.0159 24.9711 46.466C24.5856 47.3661 24.0864 48.4147 23.5445 49.4124C23.0308 50.3581 22.3571 51.4855 21.6031 52.3944C21.2513 52.8184 20.6494 53.4837 19.8214 53.994C19.0741 54.4545 17.0216 55.4342 14.6995 54.1267L18.9773 44.971ZM16.8963 40.0553L18.1801 37.3617L26.7666 42.2878L25.4828 44.9814L16.8963 40.0553ZM18.4953 36.7957C16.9678 39.1679 18.27 41.5378 19.3584 42.3665L24.7722 33.9587C26.9563 35.6218 28.6239 39.4799 26.4514 42.8538L18.4953 36.7957Z" fill="white" mask="url(#path-20-inside-1)"/>
</g>
<path id="Vector_11" d="M11.9517 49.5195C9.79803 49.5195 9.01675 45.4451 9.01675 42.7333C10.2072 40.8139 13.9837 39.8095 17.5959 39.4971C19.5759 39.6914 17.5641 48.6907 17.3702 49.2058C17.1763 49.7209 13.648 49.9233 11.9517 49.5195Z" fill="white"/>
</g>
</g>
</g>
</g>
<defs>
<linearGradient id="pump-min-paint0_linear" x1="18.5047" y1="22.1998" x2="0" y2="22.1998" gradientUnits="userSpaceOnUse">
<stop stop-color="#4F4F4F"/>
<stop offset="0.513812" stop-color="white"/>
<stop offset="1" stop-color="#4F4F4F"/>
</linearGradient>
<linearGradient id="pump-min-paint1_linear" x1="18.5047" y1="24.2811" x2="0" y2="24.2811" gradientUnits="userSpaceOnUse">
<stop stop-color="#4F4F4F"/>
<stop offset="0.513812" stop-color="white"/>
<stop offset="1" stop-color="#4F4F4F"/>
</linearGradient>
<radialGradient id="pump-min-paint2_radial" cx="0" cy="0" r="1" gradientUnits="userSpaceOnUse" gradientTransform="translate(17.794 17.0306) rotate(90.002) scale(17.6574 18.1149)">
<stop offset="0.872928" stop-color="#828282"/>
<stop offset="1" stop-color="#4F4F4F"/>
</radialGradient>
<linearGradient id="pump-min-paint3_linear" x1="6.30734" y1="12.8994" x2="6.30734" y2="23.8989" gradientUnits="userSpaceOnUse">
<stop stop-color="#4F4F4F"/>
<stop offset="0.519337" stop-color="white"/>
<stop offset="1" stop-color="#4F4F4F"/>
</linearGradient>
<linearGradient id="pump-min-paint4_linear" x1="4.41392" y1="10.3105" x2="4.41392" y2="26.4863" gradientUnits="userSpaceOnUse">
<stop stop-color="#4F4F4F"/>
<stop offset="0.491713" stop-color="white"/>
<stop offset="1" stop-color="#4F4F4F"/>
</linearGradient>
<linearGradient id="pump-min-paint5_linear" x1="63.0618" y1="22.5273" x2="63.0618" y2="11.5278" gradientUnits="userSpaceOnUse">
<stop stop-color="#4F4F4F"/>
<stop offset="0.519337" stop-color="white"/>
<stop offset="1" stop-color="#4F4F4F"/>
</linearGradient>
<linearGradient id="pump-min-paint6_linear" x1="64.9552" y1="25.1172" x2="64.9552" y2="8.9414" gradientUnits="userSpaceOnUse">
<stop stop-color="#4F4F4F"/>
<stop offset="0.491713" stop-color="white"/>
<stop offset="1" stop-color="#4F4F4F"/>
</linearGradient>
</defs>
</svg>
