<svg width="60" height="86" viewBox="0 0 60 86" fill="none" xmlns="http://www.w3.org/2000/svg">
	<style>
	#fecal {
  -webkit-transform-origin: 30px 67px;
  -moz-transform-origin: 30px 67px;
  -ms-transform-origin: 30px 67px;
  transform-origin: 30px 67px;
}
</style>
<g>
<g id="group">
<g id="Group 2">
<path id="Vector" d="M-8.86917e-05 71.8516H13.3096L13.3096 60.5384H-8.86917e-05L-8.86917e-05 71.8516Z" fill="url(#pump-fecal-paint0_linear)"/>
<path id="Vector_2" d="M1.32955 74.5098H7.98438L7.98438 57.8727H1.32955L1.32955 74.5098Z" fill="url(#pump-fecal-paint1_linear)"/>
</g>
<g id="Group 2_2">
<rect id="Rectangle" x="15.71" y="9" width="29" height="44" rx="6" fill="url(#pump-fecal-paint2_linear)"/>
<rect id="Rectangle_2" x="11.3164" y="47.4268" width="38.3935" height="38.3935" rx="4" fill="url(#pump-fecal-paint3_linear)"/>
<circle id="Ellipse" cx="30.2852" cy="66.8545" r="18.3008" fill="#6A6A6A"/>
</g>
</g>
<g class="click fault inactive" reference="PUMP-FECAL-CONTROL">
<g class="fault inactive" reference="PUMP-FECAL-STATUS">
<circle id="Ellipse_2" cx="30" cy="67" r="15"/>
<g id="fecal" class="animation-revspin">
<path d="M16.3623 68.7018V65.2927H43.635V68.7018H16.3623Z" fill="#4F4F4F"/>
<path d="M21.7067 56.043L24.6591 54.3384L38.2954 77.9573L35.3431 79.6618L21.7067 56.043Z" fill="#4F4F4F"/>
<path d="M17.3405 61.6556L19.045 58.7032L42.6639 72.3396L40.9594 75.292L17.3405 61.6556Z" fill="#4F4F4F"/>
<path d="M19.0423 75.293L17.3378 72.3406L40.9566 58.7042L42.6612 61.6566L19.0423 75.293Z" fill="#4F4F4F"/>
<path d="M24.6549 79.6589L21.7026 77.9543L35.339 54.3354L38.2913 56.04L24.6549 79.6589Z" fill="#4F4F4F"/>
<path d="M28.2975 53.3633H31.7066V80.636H28.2975V53.3633Z" fill="#4F4F4F"/>
</g>
</g>
</g>
<g class="fault hide" reference="HAND-PUMP-FECAL">
<g class="animation-hide">
<g id="Flade">
<path id="Subtract" fill-rule="evenodd" clip-rule="evenodd" d="M53.1004 72.1084C50.8426 72.1084 49.0123 70.2933 49.0123 68.0542C49.0123 65.8151 50.8426 64 53.1004 64C55.3582 64 57.1885 65.8151 57.1885 68.0542C57.1885 70.2933 55.3582 72.1084 53.1004 72.1084ZM53.1 71.0949C51.4066 71.0949 50.0339 69.7335 50.0339 68.0542C50.0339 66.3749 51.4066 65.0136 53.1 65.0136C54.7933 65.0136 56.166 66.3749 56.166 68.0542C56.166 69.7335 54.7933 71.0949 53.1 71.0949Z"/>
</g>
<g id="Group">
<path id="Vector_4" d="M51.875 67.3599C51.875 66.7486 52.4172 66.2529 53.0859 66.2529C53.7547 66.2529 54.2969 66.7486 54.2969 67.3599V76.5419C54.2969 77.1533 53.96 75.7831 53.2912 75.7831C52.6224 75.7831 51.875 76.1713 51.875 75.5599V67.3599Z" fill="white"/>
<path id="Vector_5" d="M49.2861 73.0445C49.2861 72.4331 49.8283 71.9375 50.4971 71.9375C51.1659 71.9375 51.708 72.4331 51.708 73.0445V75.6871C51.708 76.2985 51.1659 76.4906 50.4971 76.4906C49.8283 76.4906 49.2861 77.1019 49.2861 76.4906V73.0445Z" fill="white"/>
<path id="Vector_6" d="M46.6602 73.983C46.6602 73.3716 47.2023 72.876 47.8711 72.876C48.5399 72.876 49.082 73.3716 49.082 73.983V76.6702C49.082 77.2816 48.5399 77.0719 47.8711 77.0719C47.2023 77.0719 46.6602 77.9958 46.6602 77.3844V73.983Z" fill="white"/>
<path id="Vector_7" d="M43.9996 74.9557C43.9996 74.3443 44.5418 73.8486 45.2106 73.8486C45.8794 73.8486 46.4215 74.3443 46.4215 74.9557V77.5759C46.4215 78.1873 47.8908 85.4545 47.222 85.4545C45.6669 85.3988 43.9996 81.571 43.9996 80.8344V74.9557Z" fill="white"/>
<path id="Vector_8" d="M56.4895 74.3142C56.812 73.8133 57.5175 73.7455 58.0653 74.1626C58.6132 74.5798 58.7958 75.3239 58.4734 75.8247L57.1896 78.5184C57.0012 79.6683 53.9878 86.1961 52.8384 85.5488C51.689 84.9016 53.9321 76.9659 54.2546 76.465L56.4895 74.3142Z" fill="white"/>
<path id="Vector_9" d="M48.4307 82.0273H51.7903C52.7669 82.0273 53.5586 82.7685 53.5586 83.6827V84.3448C53.5586 85.259 52.7669 86.0001 51.7903 86.0001H48.4307C47.4541 86.0001 46.6624 85.259 46.6624 84.3448V83.6827C46.6624 82.7685 47.4541 82.0273 48.4307 82.0273Z" fill="white"/>
<path id="Vector_10" d="M47.9517 85.5195C45.798 85.5195 45.0168 81.4451 45.0168 78.7333C46.2072 76.8139 49.9837 75.8095 53.5959 75.4971C55.5759 75.6914 53.5641 84.6907 53.3702 85.2058C53.1763 85.7209 49.648 85.9233 47.9517 85.5195Z" fill="white"/>
</g>
</g>
</g>
<g class="fault inactive" reference="ALARM-PUMP-FECAL">
<g  class="animation-fail">
<g id="Group 2_4">
<path id="path19629" d="M41.8838 0.371068C40.5601 -0.392811 38.8675 0.0605111 38.1032 1.3836L21.3712 30.3506C20.607 31.6737 21.0605 33.3655 22.3842 34.1294C22.805 34.3722 23.2822 34.5 23.768 34.5H57.232C57.7178 34.5 58.195 34.3722 58.6158 34.1294C59.9395 33.3655 60.393 31.6737 59.6288 30.3506L42.8968 1.3836C42.6539 0.963074 42.3045 0.613862 41.8838 0.371068V0.371068Z" fill="black"/>
<path id="path19629_2" d="M41.6709 3.41009C40.5508 2.74882 39.1186 3.14125 38.4719 4.28661L24.3141 29.3625C23.6675 30.5079 24.0512 31.9724 25.1713 32.6337C25.5273 32.8439 25.9311 32.9545 26.3422 32.9545H54.6578C55.0689 32.9545 55.4727 32.8439 55.8287 32.6337C56.9488 31.9724 57.3325 30.5079 56.6859 29.3625L42.528 4.28661C42.3225 3.92257 42.0269 3.62027 41.6709 3.41009V3.41009Z" fill="white"/>
<path id="path19631" d="M42.9334 26.5474C42.9335 26.8767 42.8706 27.2029 42.7484 27.5072C42.6261 27.8115 42.4469 28.088 42.2209 28.3209C41.9949 28.5539 41.7266 28.7386 41.4313 28.8647C41.136 28.9908 40.8195 29.0557 40.4999 29.0557C40.1803 29.0557 39.8638 28.9908 39.5685 28.8647C39.2732 28.7386 39.0049 28.5539 38.7789 28.3209C38.5529 28.088 38.3737 27.8115 38.2514 27.5072C38.1292 27.2029 38.0663 26.8767 38.0664 26.5474C38.0663 26.218 38.1292 25.8918 38.2514 25.5875C38.3737 25.2832 38.5529 25.0067 38.7789 24.7738C39.0049 24.5408 39.2732 24.3561 39.5685 24.23C39.8638 24.1039 40.1803 24.0391 40.4999 24.0391C40.8195 24.0391 41.136 24.1039 41.4313 24.23C41.7266 24.3561 41.9949 24.5408 42.2209 24.7738C42.4469 25.0067 42.6261 25.2832 42.7484 25.5875C42.8706 25.8918 42.9335 26.218 42.9334 26.5474V26.5474Z" fill="black"/>
<path id="path19633" d="M38.0875 13.8352C37.9121 12.4621 38.8501 11.2025 40.1825 11.0217C41.515 10.841 42.7374 11.8075 42.9129 13.1806C42.9406 13.3978 42.9406 13.6179 42.9129 13.8352L41.7372 23.0367H39.2631L38.0875 13.8352Z" fill="black"/>
</g>
<g id="flags">
<path id="path4410" d="M40.4573 2.06007C39.7837 2.07519 39.134 2.43193 38.7725 3.05904L23.2675 29.9582C22.7167 30.9138 23.0437 32.1358 23.9977 32.6875C24.301 32.8629 24.6449 32.9551 24.9951 32.9551H56.0049C56.3551 32.9551 56.699 32.8629 57.0023 32.6875C57.9563 32.1358 58.2833 30.9138 57.7325 29.9582L42.2275 3.05904C42.0525 2.75532 41.8006 2.50301 41.4973 2.32765C41.1694 2.138 40.8101 2.05215 40.4573 2.06007ZM40.4608 5.49939C40.5703 5.49164 40.6827 5.51698 40.785 5.5761C40.8716 5.6262 40.9433 5.69795 40.9933 5.78481L54.7601 29.6674C54.9174 29.9403 54.8243 30.2893 54.5517 30.447C54.465 30.4971 54.3668 30.5237 54.2667 30.5237H26.7351C26.4203 30.5237 26.1651 30.2681 26.1651 29.9528C26.1651 29.8526 26.19 29.754 26.2399 29.6674L40.0067 5.78481C40.105 5.6142 40.2783 5.51231 40.4608 5.49939Z"/>
</g>
</g>
</g>
</g>
<defs>
<linearGradient id="pump-fecal-paint0_linear" x1="6.65474" y1="71.8516" x2="6.65474" y2="60.5384" gradientUnits="userSpaceOnUse">
<stop stop-color="#4F4F4F"/>
<stop offset="0.519337" stop-color="#BDBDBD"/>
<stop offset="1" stop-color="#4F4F4F"/>
</linearGradient>
<linearGradient id="pump-fecal-paint1_linear" x1="4.65696" y1="74.5098" x2="4.65696" y2="57.8727" gradientUnits="userSpaceOnUse">
<stop stop-color="#4F4F4F"/>
<stop offset="0.491713" stop-color="#BDBDBD"/>
<stop offset="1" stop-color="#4F4F4F"/>
</linearGradient>
<linearGradient id="pump-fecal-paint2_linear" x1="44.71" y1="31" x2="15.71" y2="31" gradientUnits="userSpaceOnUse">
<stop stop-color="#4F4F4F"/>
<stop offset="0.519337" stop-color="#BDBDBD"/>
<stop offset="1" stop-color="#4F4F4F"/>
</linearGradient>
<linearGradient id="pump-fecal-paint3_linear" x1="49.7099" y1="66.6235" x2="11.3164" y2="66.6235" gradientUnits="userSpaceOnUse">
<stop stop-color="#4F4F4F"/>
<stop offset="0.519337" stop-color="#BDBDBD"/>
<stop offset="1" stop-color="#4F4F4F"/>
</linearGradient>
</defs>
</svg>
