<svg width="43" height="140" viewBox="0 0 43 140" fill="none" xmlns="http://www.w3.org/2000/svg">
	<style>
	#pump-t{
  -webkit-transform-origin: 18.3px 83px;
  -moz-transform-origin: 18.3px 83px;
  -ms-transform-origin: 18.3px 83px;
  transform-origin: 18.3px 83px;
}
</style>
<g>
<g id="Group 2">
<g id="VALVE">
<path id="Vector" d="M30 0L30 22H22L22 0H30Z" fill="url(#pump-t-paint0_linear)"/>
<path id="Vector_2" d="M20 21V18L32 18V21L20 21Z" fill="url(#pump-t-paint1_linear)"/>
<path id="Vector_3" d="M32 1V4L20 4V1L32 1Z" fill="url(#pump-t-paint2_linear)"/>
<circle id="Ellipse" r="6.5" transform="matrix(-1 0 0 1 26 11)" stroke="#848484"/>
<path id="Subtract" d="M20 10.999C25.3114 9.40999 27.8828 12.2243 26 16.999C24.3319 11.5811 27.416 9.32175 32 10.999C27.3562 12.7871 24.404 10.3688 26 4.99902C27.7214 10.5411 24.6147 12.7711 20 10.999Z" fill="#808080"/>
</g>
<g id="Group">
<path id="Vector_4" d="M30 22L30 47H22L22 22H30Z" fill="url(#pump-t-paint3_linear)"/>
<path id="Vector_5" d="M20 46V43H32V46H20Z" fill="url(#pump-t-paint4_linear)"/>
<path id="Vector_6" d="M32 23V26L20 26V23L32 23Z" fill="url(#pump-t-paint5_linear)"/>
<ellipse id="Ellipse_2" rx="8" ry="7.54717" transform="matrix(-1 0 0 1 26 34.6233)" fill="#C4C4C4"/>
<path id="Arrow" d="M25.2929 27.8787C25.6834 27.4882 26.3166 27.4882 26.7071 27.8787L33.0711 34.2427C33.4616 34.6332 33.4616 35.2664 33.0711 35.6569C32.6805 36.0474 32.0474 36.0474 31.6569 35.6569L26 30L20.3431 35.6569C19.9526 36.0474 19.3195 36.0474 18.9289 35.6569C18.5384 35.2664 18.5384 34.6332 18.9289 34.2427L25.2929 27.8787ZM25 41.416L25 28.5858L27 28.5858L27 41.416L25 41.416Z" fill="#5B5B5F"/>
</g>
<g id="VALVE_2">
<path id="Vector_7" d="M13.7061 118L13.7061 140H5.70605L5.70605 118H13.7061Z" fill="url(#pump-t-paint6_linear)"/>
<path id="Vector_8" d="M3.70605 139L3.70605 136H15.7061V139H3.70605Z" fill="url(#pump-t-paint7_linear)"/>
<path id="Vector_9" d="M15.7061 119V122H3.70605V119H15.7061Z" fill="url(#pump-t-paint8_linear)"/>
<circle id="Ellipse_3" r="6.5" transform="matrix(-1 0 0 1 9.70605 129)" stroke="#848484"/>
<path id="Subtract_2" d="M3.70605 129C9.01747 127.411 11.5889 130.225 9.70605 135C8.03796 129.582 11.122 127.323 15.7061 129C11.0622 130.788 8.11009 128.37 9.70605 123C11.4275 128.542 8.32071 130.772 3.70605 129Z" fill="#808080"/>
</g>
</g>
<g>
<g id="Group 4">
<g id="Group 3">
<rect id="Rectangle" x="0.55957" y="82.5166" width="18.5047" height="22.775" rx="4" fill="url(#pump-t-paint9_linear)"/>
<rect id="Rectangle_2" x="17.6416" y="59.7402" width="18.5047" height="24.9101" rx="4" fill="url(#pump-t-paint10_linear)"/>
<circle id="Ellipse_4" cx="18.351" cy="82.8383" r="17.7934" fill="url(#pump-t-paint11_radial)"/>
</g>
<g id="Group 2.1">
<path id="Vector_10" d="M15.2451 118.103L15.2451 105.162H4.24559L4.24559 118.103H15.2451Z" fill="url(#pump-t-paint12_linear)"/>
<path id="Vector_11" d="M17.834 116.81L17.834 110.34H1.6582L1.6582 116.81H17.834Z" fill="url(#pump-t-paint13_linear)"/>
</g>
<g id="Group 2.2">
<path id="Vector_12" d="M20.6172 46.9314L20.6172 59.8721H31.6167L31.6167 46.9314H20.6172Z" fill="url(#pump-t-paint14_linear)"/>
<path id="Vector_13" d="M18.0273 48.224V54.6943L34.2031 54.6943V48.224L18.0273 48.224Z" fill="url(#pump-t-paint15_linear)"/>
</g>
</g>
<g class="click fault inactive" reference="PUMP-T-CONTROL">
<g class="fault inactive" reference="PUMP-T-STATUS">
<ellipse id="Ellipse_5" cx="18.3535" cy="82.8715" rx="14.5902" ry="14.2344" transform="rotate(90 18.3535 82.8715)"/>
<g id="pump-t" class="animation-spin">
<path d="M16.5168 70.1025H19.7668L19.7668 96.1025H16.5168L16.5168 70.1025Z" fill="#4F4F4F"/>
<path d="M28.5898 75.1926L30.2148 78.0072L7.69816 91.0072L6.07316 88.1926L28.5898 75.1926Z" fill="#4F4F4F"/>
<path d="M23.2322 71.031L26.0468 72.656L13.0468 95.1726L10.2322 93.5476L23.2322 71.031Z" fill="#4F4F4F"/>
<path d="M10.237 72.6533L13.0516 71.0283L26.0516 93.545L23.237 95.17L10.237 72.6533Z" fill="#4F4F4F"/>
<path d="M6.07044 78.0094L7.69544 75.1949L30.2121 88.1949L28.5871 91.0094L6.07044 78.0094Z" fill="#4F4F4F"/>
<path d="M31.1465 81.4772L31.1465 84.7272H5.14648L5.14648 81.4772H31.1465Z" fill="#4F4F4F"/>
</g>
</g>
</g>
<g class="fault hide" reference="HAND-PUMP-T">
		<g class="animation-hide">
<g id="Flade">
<path id="Subtract_3" fill-rule="evenodd" clip-rule="evenodd" d="M29.9043 106C27.6952 106 25.9043 104.209 25.9043 102C25.9043 99.7909 27.6952 98 29.9043 98C32.1134 98 33.9043 99.7909 33.9043 102C33.9043 104.209 32.1134 106 29.9043 106ZM29.9043 105C28.2474 105 26.9043 103.657 26.9043 102C26.9043 100.343 28.2474 99 29.9043 99C31.5612 99 32.9043 100.343 32.9043 102C32.9043 103.657 31.5612 105 29.9043 105Z"/>
</g>
<g id="Group_2">
<path id="Vector_15" d="M28.7055 101.315C28.7055 100.712 29.236 100.223 29.8903 100.223C30.5447 100.223 31.0752 100.712 31.0752 101.315L31.0752 110.374C31.0752 110.977 30.7455 109.625 30.0912 109.625C29.4368 109.625 28.7055 110.008 28.7055 109.405L28.7055 101.315Z" fill="white"/>
<path id="Vector_16" d="M26.1723 106.923C26.1723 106.32 26.7028 105.831 27.3571 105.831C28.0115 105.831 28.542 106.32 28.542 106.923V109.53C28.542 110.134 28.0115 110.323 27.3571 110.323C26.7028 110.323 26.1723 110.926 26.1723 110.323V106.923Z" fill="white"/>
<path id="Vector_17" d="M23.603 107.849C23.603 107.246 24.1334 106.757 24.7878 106.757C25.4422 106.757 25.9727 107.246 25.9727 107.849V110.5C25.9727 111.104 25.4422 110.897 24.7878 110.897C24.1334 110.897 23.603 111.808 23.603 111.205V107.849Z" fill="white"/>
<path id="Vector_18" d="M20.9996 108.809C20.9996 108.206 21.5301 107.717 22.1844 107.717C22.8388 107.717 23.3693 108.206 23.3693 108.809V111.394C23.3693 111.997 24.8069 119.167 24.1525 119.167C22.6309 119.112 20.9996 115.336 20.9996 114.609V108.809Z" fill="white"/>
<g id="Vector_19">
<mask id="path-30-inside-1" fill="white">
<path d="M33.2204 108.177C33.5359 107.682 34.2263 107.615 34.7623 108.027C35.2983 108.439 35.4771 109.173 35.1615 109.667L33.9054 112.325C33.7211 113.459 30.7726 119.9 29.648 119.261C28.5233 118.622 30.7181 110.793 31.0336 110.299L33.2204 108.177Z"/>
</mask>
<path d="M33.2204 108.177C33.5359 107.682 34.2263 107.615 34.7623 108.027C35.2983 108.439 35.4771 109.173 35.1615 109.667L33.9054 112.325C33.7211 113.459 30.7726 119.9 29.648 119.261C28.5233 118.622 30.7181 110.793 31.0336 110.299L33.2204 108.177Z" fill="white"/>
<path d="M33.2204 108.177L37.1863 111.222L36.8776 111.705L36.4739 112.097L33.2204 108.177ZM31.0336 110.299L27.0677 107.254L27.3764 106.77L27.7801 106.379L31.0336 110.299ZM29.648 119.261L27.5248 123.852L27.5248 123.852L29.648 119.261ZM33.9054 112.325L29.1846 111.276L29.3072 110.522L29.6271 109.845L33.9054 112.325ZM35.1615 109.667L30.8832 107.188L31.0223 106.893L31.1956 106.622L35.1615 109.667ZM32.0713 112.241C33.1777 113.091 35.6693 113.597 37.1863 111.222L29.2545 105.132C31.4026 101.768 35.2749 102.14 37.4533 103.813L32.0713 112.241ZM36.4739 112.097L34.2871 114.219L27.7801 106.379L29.9669 104.256L36.4739 112.097ZM34.9995 113.344C35.1794 113.062 35.2841 112.831 35.307 112.781C35.3458 112.696 35.3686 112.638 35.3738 112.624C35.3844 112.597 35.3761 112.616 35.3474 112.702C35.2925 112.866 35.2092 113.134 35.1073 113.49C34.9042 114.201 34.6666 115.125 34.4718 116.038C34.267 116.999 34.154 117.743 34.1272 118.168C34.1117 118.414 34.1446 118.272 34.0839 117.916C34.0523 117.73 33.9606 117.272 33.6863 116.715C33.3993 116.133 32.8179 115.264 31.7711 114.67L27.5248 123.852C25.216 122.541 24.7578 120.088 24.6594 119.51C24.5048 118.601 24.5271 117.739 24.5641 117.153C24.6424 115.915 24.8869 114.551 25.1296 113.413C25.3824 112.227 25.6823 111.062 25.9444 110.145C26.075 109.688 26.2062 109.258 26.3273 108.897C26.3866 108.72 26.4567 108.52 26.5337 108.323C26.5599 108.256 26.7473 107.756 27.0677 107.254L34.9995 113.344ZM31.7711 114.67C29.7354 113.514 28.0311 114.44 27.6725 114.663C27.2306 114.937 27.0527 115.193 27.1445 115.081C27.2776 114.919 27.5757 114.475 27.9731 113.737C28.3425 113.051 28.6951 112.305 28.957 111.688C29.088 111.379 29.1805 111.14 29.2356 110.985C29.3267 110.728 29.2465 110.896 29.1846 111.276L38.6262 113.373C38.5183 114.037 38.3056 114.654 38.1958 114.964C38.0499 115.376 37.8731 115.821 37.6841 116.266C37.3062 117.156 36.8168 118.192 36.2855 119.179C35.7822 120.113 35.1207 121.23 34.379 122.131C34.0332 122.551 33.4391 123.214 32.62 123.723C31.8842 124.18 29.8417 125.168 27.5248 123.852L31.7711 114.67ZM29.6271 109.845L30.8832 107.188L39.4399 112.146L38.1837 114.804L29.6271 109.845ZM31.1956 106.622C29.6787 108.998 30.9649 111.392 32.0713 112.241L37.4533 103.813C39.6317 105.486 41.2755 109.348 39.1274 112.712L31.1956 106.622Z" fill="white" mask="url(#path-30-inside-1)"/>
</g>
<path id="Vector_20" d="M24.8664 119.232C22.7591 119.232 21.9946 115.212 21.9946 112.537C23.1594 110.643 26.8545 109.652 30.389 109.344C32.3263 109.536 30.3578 118.414 30.1681 118.923C29.9784 119.431 26.5261 119.631 24.8664 119.232Z" fill="white"/>
</g>
</g>
</g>
<g class="fault inactive" reference="ALARM-PUMP-T">
<g  class="animation-fail">
<g id="Group 2_3">
<path id="path19629" d="M22.1162 59.3711C23.4399 58.6072 25.1325 59.0605 25.8968 60.3836L42.6288 89.3506C43.393 90.6737 42.9395 92.3655 41.6158 93.1294C41.195 93.3722 40.7178 93.5 40.232 93.5H6.76804C6.28222 93.5 5.80497 93.3722 5.38425 93.1294C4.06054 92.3655 3.607 90.6737 4.37124 89.3506L21.1032 60.3836C21.3461 59.9631 21.6955 59.6139 22.1162 59.3711V59.3711Z" fill="black"/>
<path id="path19629_2" d="M22.3291 62.4101C23.4492 61.7488 24.8814 62.1412 25.5281 63.2866L39.6859 88.3625C40.3325 89.5079 39.9488 90.9724 38.8287 91.6337C38.4727 91.8439 38.0689 91.9545 37.6578 91.9545H9.34218C8.93111 91.9545 8.52728 91.8439 8.17128 91.6337C7.05122 90.9724 6.66746 89.5079 7.31413 88.3625L21.472 63.2866C21.6775 62.9226 21.9731 62.6203 22.3291 62.4101V62.4101Z" fill="white"/>
<path id="path19631" d="M21.0666 85.5474C21.0665 85.8767 21.1294 86.2029 21.2516 86.5072C21.3739 86.8115 21.5531 87.088 21.7791 87.3209C22.0051 87.5539 22.2734 87.7386 22.5687 87.8647C22.864 87.9908 23.1805 88.0557 23.5001 88.0557C23.8197 88.0557 24.1362 87.9908 24.4315 87.8647C24.7268 87.7386 24.9951 87.5539 25.2211 87.3209C25.4471 87.088 25.6263 86.8115 25.7486 86.5072C25.8708 86.2029 25.9337 85.8767 25.9336 85.5474C25.9337 85.218 25.8708 84.8918 25.7486 84.5875C25.6263 84.2832 25.4471 84.0067 25.2211 83.7738C24.9951 83.5408 24.7268 83.3561 24.4315 83.23C24.1362 83.1039 23.8197 83.0391 23.5001 83.0391C23.1805 83.0391 22.864 83.1039 22.5687 83.23C22.2734 83.3561 22.0051 83.5408 21.7791 83.7738C21.5531 84.0067 21.3739 84.2832 21.2516 84.5875C21.1294 84.8918 21.0665 85.218 21.0666 85.5474V85.5474Z" fill="black"/>
<path id="path19633" d="M25.9125 72.8352C26.0879 71.4621 25.1499 70.2025 23.8175 70.0217C22.485 69.841 21.2626 70.8075 21.0871 72.1806C21.0594 72.3978 21.0594 72.6179 21.0871 72.8352L22.2628 82.0367H24.7369L25.9125 72.8352Z" fill="black"/>
</g>
<g id="flags">
<path id="path4410" d="M23.5427 61.0601C24.2163 61.0752 24.866 61.4319 25.2275 62.059L40.7325 88.9582C41.2833 89.9138 40.9563 91.1358 40.0023 91.6875C39.699 91.8629 39.3551 91.9551 39.0049 91.9551H7.99506C7.64493 91.9551 7.30096 91.8629 6.99773 91.6875C6.0437 91.1358 5.71673 89.9138 6.26754 88.9582L21.7725 62.059C21.9475 61.7553 22.1994 61.503 22.5027 61.3277C22.8306 61.138 23.1899 61.0522 23.5427 61.0601ZM23.5392 64.4994C23.4297 64.4916 23.3173 64.517 23.215 64.5761C23.1284 64.6262 23.0567 64.6979 23.0067 64.7848L9.23995 88.6674C9.0826 88.9403 9.17574 89.2893 9.44832 89.447C9.53495 89.4971 9.63324 89.5237 9.73327 89.5237H37.2649C37.5797 89.5237 37.8349 89.2681 37.8349 88.9528C37.8349 88.8526 37.81 88.754 37.7601 88.6674L23.9933 64.7848C23.895 64.6142 23.7217 64.5123 23.5392 64.4994Z"/>
</g>
</g>
</g>
</g>
</g>
<defs>
<linearGradient id="pump-t-paint0_linear" x1="30" y1="11" x2="22" y2="11" gradientUnits="userSpaceOnUse">
<stop stop-color="#848484"/>
<stop offset="0.519337" stop-color="white"/>
<stop offset="1" stop-color="#848484"/>
</linearGradient>
<linearGradient id="pump-t-paint1_linear" x1="20" y1="19.5" x2="32" y2="19.5" gradientUnits="userSpaceOnUse">
<stop stop-color="#848484"/>
<stop offset="0.491713" stop-color="white"/>
<stop offset="1" stop-color="#848484"/>
</linearGradient>
<linearGradient id="pump-t-paint2_linear" x1="32" y1="2.5" x2="20" y2="2.5" gradientUnits="userSpaceOnUse">
<stop stop-color="#848484"/>
<stop offset="0.491713" stop-color="white"/>
<stop offset="1" stop-color="#848484"/>
</linearGradient>
<linearGradient id="pump-t-paint3_linear" x1="30" y1="34.5" x2="22" y2="34.5" gradientUnits="userSpaceOnUse">
<stop stop-color="#848484"/>
<stop offset="0.519337" stop-color="white"/>
<stop offset="1" stop-color="#848484"/>
</linearGradient>
<linearGradient id="pump-t-paint4_linear" x1="20" y1="44.5" x2="32" y2="44.5" gradientUnits="userSpaceOnUse">
<stop stop-color="#848484"/>
<stop offset="0.491713" stop-color="white"/>
<stop offset="1" stop-color="#848484"/>
</linearGradient>
<linearGradient id="pump-t-paint5_linear" x1="32" y1="24.5" x2="20" y2="24.5" gradientUnits="userSpaceOnUse">
<stop stop-color="#848484"/>
<stop offset="0.491713" stop-color="white"/>
<stop offset="1" stop-color="#848484"/>
</linearGradient>
<linearGradient id="pump-t-paint6_linear" x1="13.7061" y1="129" x2="5.70605" y2="129" gradientUnits="userSpaceOnUse">
<stop stop-color="#848484"/>
<stop offset="0.519337" stop-color="white"/>
<stop offset="1" stop-color="#848484"/>
</linearGradient>
<linearGradient id="pump-t-paint7_linear" x1="3.70605" y1="137.5" x2="15.7061" y2="137.5" gradientUnits="userSpaceOnUse">
<stop stop-color="#848484"/>
<stop offset="0.491713" stop-color="white"/>
<stop offset="1" stop-color="#848484"/>
</linearGradient>
<linearGradient id="pump-t-paint8_linear" x1="15.7061" y1="120.5" x2="3.70605" y2="120.5" gradientUnits="userSpaceOnUse">
<stop stop-color="#848484"/>
<stop offset="0.491713" stop-color="white"/>
<stop offset="1" stop-color="#848484"/>
</linearGradient>
<linearGradient id="pump-t-paint9_linear" x1="19.0642" y1="105.292" x2="0.55957" y2="105.292" gradientUnits="userSpaceOnUse">
<stop stop-color="#4F4F4F"/>
<stop offset="0.513812" stop-color="white"/>
<stop offset="1" stop-color="#4F4F4F"/>
</linearGradient>
<linearGradient id="pump-t-paint10_linear" x1="36.1463" y1="84.6504" x2="17.6416" y2="84.6504" gradientUnits="userSpaceOnUse">
<stop stop-color="#4F4F4F"/>
<stop offset="0.513812" stop-color="white"/>
<stop offset="1" stop-color="#4F4F4F"/>
</linearGradient>
<radialGradient id="pump-t-paint11_radial" cx="0" cy="0" r="1" gradientUnits="userSpaceOnUse" gradientTransform="translate(18.3516 82.5168) rotate(90.002) scale(18.1149)">
<stop offset="0.872928" stop-color="#828282"/>
<stop offset="1" stop-color="#4F4F4F"/>
</radialGradient>
<linearGradient id="pump-t-paint12_linear" x1="15.2451" y1="111.632" x2="4.24559" y2="111.632" gradientUnits="userSpaceOnUse">
<stop stop-color="#4F4F4F"/>
<stop offset="0.519337" stop-color="white"/>
<stop offset="1" stop-color="#4F4F4F"/>
</linearGradient>
<linearGradient id="pump-t-paint13_linear" x1="17.834" y1="113.575" x2="1.6582" y2="113.575" gradientUnits="userSpaceOnUse">
<stop stop-color="#4F4F4F"/>
<stop offset="0.491713" stop-color="white"/>
<stop offset="1" stop-color="#4F4F4F"/>
</linearGradient>
<linearGradient id="pump-t-paint14_linear" x1="20.6172" y1="53.4018" x2="31.6167" y2="53.4018" gradientUnits="userSpaceOnUse">
<stop stop-color="#4F4F4F"/>
<stop offset="0.519337" stop-color="white"/>
<stop offset="1" stop-color="#4F4F4F"/>
</linearGradient>
<linearGradient id="pump-t-paint15_linear" x1="18.0273" y1="51.4592" x2="34.2031" y2="51.4592" gradientUnits="userSpaceOnUse">
<stop stop-color="#4F4F4F"/>
<stop offset="0.491713" stop-color="white"/>
<stop offset="1" stop-color="#4F4F4F"/>
</linearGradient>
</defs>
</svg>
