<svg width="33" height="46" viewBox="0 0 33 46" fill="none" xmlns="http://www.w3.org/2000/svg">
	<style>
	#pum {
  -webkit-transform-origin: 15px 31px;
  -moz-transform-origin: 15px 31px;
  -ms-transform-origin: 15px 31px;
  transform-origin: 15px 31px;
}
</style>
<g>
<g class="click fault inactive" reference="PUMP-CONTROL">
<g class="fault inactive" reference="PUMP-STATUS">
<circle id="Ellipse" r="15" transform="matrix(0 -1 -1 0 15 31)" />
<g id="pum"  class="animation-spin">
<path d="M2 32.6227V29.3727H28V32.6227H2Z" fill="#4F4F4F"/>
<path d="M7.095 20.5546L9.90958 18.9296L22.9096 41.4463L20.095 43.0713L7.095 20.5546Z" fill="#4F4F4F"/>
<path d="M2.93254 25.9053L4.55754 23.0908L27.0742 36.0908L25.4492 38.9053L2.93254 25.9053Z" fill="#4F4F4F"/>
<path d="M4.55495 38.9063L2.92995 36.0917L25.4466 23.0917L27.0716 25.9063L4.55495 38.9063Z" fill="#4F4F4F"/>
<path d="M9.90565 43.0684L7.09107 41.4434L20.0911 18.9268L22.9057 20.5518L9.90565 43.0684Z" fill="#4F4F4F"/>
<path d="M13.3782 18H16.6282V44H13.3782V18Z" fill="#4F4F4F"/>
</g>
</g>
</g>
<g class="fault inactive" reference="ALARM-PUMP">
<g  class="animation-fail">
<g id="Group 2">
<path id="path19629" d="M16.0644 17.3012C15.0462 16.6812 13.7442 17.0491 13.1563 18.1229L0.285575 41.6324C-0.302305 42.7062 0.0465662 44.0793 1.0648 44.6992C1.38844 44.8963 1.75556 45 2.12926 45H27.8707C28.2444 45 28.6116 44.8963 28.9352 44.6992C29.9534 44.0792 30.3023 42.7062 29.7144 41.6324L16.8437 18.1229C16.6568 17.7816 16.3881 17.4982 16.0644 17.3012V17.3012Z" fill="black"/>
<path id="path19629_2" d="M15.9016 19.7675C15.04 19.2309 13.9383 19.5493 13.4409 20.4789L2.55023 40.8304C2.0528 41.7599 2.348 42.9486 3.20958 43.4853C3.48343 43.6558 3.79406 43.7456 4.11027 43.7456H25.8915C26.2077 43.7456 26.5184 43.6558 26.7922 43.4853C27.6538 42.9486 27.949 41.7599 27.4516 40.8304L16.5609 20.4789C16.4028 20.1835 16.1754 19.9381 15.9016 19.7675V19.7675Z" fill="white"/>
<path id="path19631" d="M16.8728 38.5465C16.8728 38.8138 16.8245 39.0785 16.7304 39.3255C16.6364 39.5724 16.4985 39.7969 16.3247 39.9859C16.1508 40.1749 15.9445 40.3249 15.7173 40.4272C15.4902 40.5295 15.2467 40.5822 15.0008 40.5822C14.755 40.5822 14.5115 40.5295 14.2844 40.4272C14.0572 40.3249 13.8508 40.1749 13.677 39.9859C13.5032 39.7969 13.3653 39.5724 13.2712 39.3255C13.1772 39.0785 13.1288 38.8138 13.1289 38.5465C13.1288 38.2792 13.1772 38.0144 13.2712 37.7675C13.3653 37.5205 13.5032 37.2961 13.677 37.107C13.8508 36.918 14.0572 36.768 14.2844 36.6657C14.5115 36.5634 14.755 36.5107 15.0008 36.5107C15.2467 36.5107 15.4902 36.5634 15.7173 36.6657C15.9445 36.768 16.1508 36.918 16.3247 37.107C16.4985 37.2961 16.6364 37.5205 16.7304 37.7675C16.8245 38.0144 16.8728 38.2792 16.8728 38.5465V38.5465Z" fill="black"/>
<path id="path19633" d="M13.1451 28.2278C13.0102 27.1134 13.7317 26.0911 14.7567 25.9444C15.7817 25.7977 16.722 26.5821 16.8569 27.6965C16.8783 27.8728 16.8783 28.0514 16.8569 28.2278L15.9526 35.6957H14.0495L13.1451 28.2278Z" fill="black"/>
</g>
<g id="flags">
<path id="path4410" d="M14.9667 18.6723C14.4486 18.6845 13.9488 18.9741 13.6708 19.483L1.74389 41.3142C1.32019 42.0898 1.5717 43.0816 2.30557 43.5293C2.53882 43.6717 2.80342 43.7465 3.07275 43.7465H26.9265C27.1958 43.7465 27.4604 43.6717 27.6937 43.5293C28.4275 43.0816 28.6791 42.0898 28.2554 41.3142L16.3285 19.483C16.1938 19.2365 16.0001 19.0318 15.7668 18.8894C15.5145 18.7355 15.2381 18.6659 14.9667 18.6723ZM14.9695 21.4636C15.0537 21.4573 15.1402 21.4779 15.2188 21.5259C15.2855 21.5665 15.3406 21.6248 15.3791 21.6953L25.9689 41.0782C26.0899 41.2997 26.0183 41.583 25.8086 41.7109C25.742 41.7516 25.6664 41.7732 25.5894 41.7732H4.4112C4.16909 41.7732 3.97281 41.5657 3.97281 41.3099C3.97281 41.2285 3.99194 41.1485 4.03035 41.0782L14.6201 21.6953C14.6958 21.5568 14.8291 21.4741 14.9695 21.4636Z"/>
</g>
</g>
</g>
<g class="fault hide" reference="HAND-PUMP">
		<g class="animation-hide">
<g id="Flade">
<path id="Subtract" fill-rule="evenodd" clip-rule="evenodd" d="M26.1004 8.10844C23.8426 8.10844 22.0123 6.29331 22.0123 4.05422C22.0123 1.81514 23.8426 0 26.1004 0C28.3582 0 30.1885 1.81514 30.1885 4.05422C30.1885 6.29331 28.3582 8.10844 26.1004 8.10844ZM26.1 7.09489C24.4066 7.09489 23.0339 5.73354 23.0339 4.05422C23.0339 2.37491 24.4066 1.01356 26.1 1.01356C27.7933 1.01356 29.166 2.37491 29.166 4.05422C29.166 5.73354 27.7933 7.09489 26.1 7.09489Z"/>
</g>
<g id="Group">
<path id="Vector_2" d="M24.875 3.35995C24.875 2.74856 25.4172 2.25293 26.0859 2.25293C26.7547 2.25293 27.2969 2.74856 27.2969 3.35995V12.5419C27.2969 13.1533 26.96 11.7831 26.2912 11.7831C25.6224 11.7831 24.875 12.1713 24.875 11.5599V3.35995Z" fill="white"/>
<path id="Vector_3" d="M22.2861 9.04452C22.2861 8.43313 22.8283 7.9375 23.4971 7.9375C24.1659 7.9375 24.708 8.43313 24.708 9.04452V11.6871C24.708 12.2985 24.1659 12.4906 23.4971 12.4906C22.8283 12.4906 22.2861 13.1019 22.2861 12.4906V9.04452Z" fill="white"/>
<path id="Vector_4" d="M19.6602 9.98299C19.6602 9.37161 20.2023 8.87598 20.8711 8.87598C21.5399 8.87598 22.082 9.37161 22.082 9.98299V12.6702C22.082 13.2816 21.5399 13.0719 20.8711 13.0719C20.2023 13.0719 19.6602 13.9958 19.6602 13.3844V9.98299Z" fill="white"/>
<path id="Vector_5" d="M16.9996 10.9557C16.9996 10.3443 17.5418 9.84863 18.2106 9.84863C18.8794 9.84863 19.4215 10.3443 19.4215 10.9557V13.5759C19.4215 14.1873 20.8908 21.4545 20.222 21.4545C18.6669 21.3988 16.9996 17.571 16.9996 16.8344V10.9557Z" fill="white"/>
<g id="Vector_6">
<mask id="path-13-inside-1" fill="white">
<path d="M29.4895 10.3142C29.812 9.81333 30.5175 9.74549 31.0653 10.1626C31.6132 10.5798 31.7958 11.3239 31.4734 11.8247L30.1896 14.5184C30.0012 15.6683 26.9878 22.1961 25.8384 21.5488C24.689 20.9016 26.9321 12.9659 27.2546 12.465L29.4895 10.3142Z"/>
</mask>
<path d="M29.4895 10.3142C29.812 9.81333 30.5175 9.74549 31.0653 10.1626C31.6132 10.5798 31.7958 11.3239 31.4734 11.8247L30.1896 14.5184C30.0012 15.6683 26.9878 22.1961 25.8384 21.5488C24.689 20.9016 26.9321 12.9659 27.2546 12.465L29.4895 10.3142Z" fill="white"/>
<path d="M29.4895 10.3142L33.4676 13.3432L33.1562 13.8267L32.7491 14.2185L29.4895 10.3142ZM27.2546 12.465L23.2765 9.43602L23.5879 8.95246L23.995 8.56064L27.2546 12.465ZM25.8384 21.5488L27.9773 16.971L27.9773 16.971L25.8384 21.5488ZM30.1896 14.5184L25.4503 13.4859L25.5738 12.7321L25.8963 12.0553L30.1896 14.5184ZM31.4734 11.8247L27.1801 9.36171L27.3205 9.06726L27.4953 8.79572L31.4734 11.8247ZM28.3584 14.3665C29.4468 15.1953 31.9401 15.7154 33.4676 13.3432L25.5114 7.28513C27.6839 3.91129 31.5882 4.29572 33.7722 5.95875L28.3584 14.3665ZM32.7491 14.2185L30.5141 16.3694L23.995 8.56064L26.2299 6.40976L32.7491 14.2185ZM31.2326 15.4941C31.4139 15.2125 31.5194 14.9816 31.5424 14.9318C31.5813 14.8472 31.6041 14.7895 31.6091 14.7769C31.6194 14.7508 31.6104 14.7717 31.5809 14.8591C31.5243 15.0266 31.4389 15.299 31.3345 15.6612C31.1266 16.3824 30.8833 17.321 30.6838 18.2488C30.4742 19.2237 30.3577 19.9827 30.3299 20.4195C30.3139 20.6704 30.347 20.5352 30.2869 20.1847C30.2555 20.0017 30.164 19.5479 29.89 18.9966C29.6033 18.42 29.0227 17.5597 27.9773 16.971L23.6995 26.1267C21.3871 24.8245 20.9253 22.3853 20.8252 21.8017C20.6689 20.8914 20.6913 20.0261 20.729 19.4342C20.8085 18.1854 21.0575 16.8078 21.3053 15.6553C21.5632 14.4557 21.8693 13.2759 22.1368 12.3481C22.27 11.8857 22.4038 11.451 22.5271 11.0861C22.5875 10.9073 22.6587 10.7057 22.7367 10.508C22.7636 10.4399 22.953 9.93843 23.2765 9.43602L31.2326 15.4941ZM27.9773 16.971C25.9426 15.8252 24.2356 16.7426 23.8739 16.9655C23.4314 17.2382 23.2549 17.4907 23.3503 17.3758C23.4904 17.2069 23.7974 16.7518 24.2043 16.0027C24.583 15.3056 24.9442 14.5471 25.2127 13.9201C25.3469 13.6065 25.4421 13.363 25.4989 13.2039C25.5922 12.943 25.5122 13.1078 25.4503 13.4859L34.9289 15.5508C34.8198 16.2164 34.6045 16.8368 34.4924 17.1504C34.3439 17.5659 34.1638 18.0159 33.9711 18.466C33.5856 19.3661 33.0864 20.4147 32.5445 21.4124C32.0308 22.3581 31.3571 23.4855 30.6031 24.3944C30.2513 24.8184 29.6494 25.4837 28.8214 25.994C28.0741 26.4545 26.0216 27.4342 23.6995 26.1267L27.9773 16.971ZM25.8963 12.0553L27.1801 9.36171L35.7666 14.2878L34.4828 16.9814L25.8963 12.0553ZM27.4953 8.79572C25.9678 11.1679 27.27 13.5378 28.3584 14.3665L33.7722 5.95875C35.9563 7.62178 37.6239 11.4799 35.4514 14.8538L27.4953 8.79572Z" fill="white" mask="url(#path-13-inside-1)"/>
</g>
<path id="Vector_7" d="M20.9517 21.5195C18.798 21.5195 18.0168 17.4451 18.0168 14.7333C19.2072 12.8139 22.9837 11.8095 26.5959 11.4971C28.5759 11.6914 26.5641 20.6907 26.3702 21.2058C26.1763 21.7209 22.648 21.9233 20.9517 21.5195Z" fill="white"/>
</g>
</g>
</g>
</g>
</svg>
