<svg width="43" height="140" viewBox="0 0 43 140" fill="none" xmlns="http://www.w3.org/2000/svg">
	<style>
	#pump-tl{
  -webkit-transform-origin: 25px 83px;
  -moz-transform-origin: 25px 83px;
  -ms-transform-origin: 25px 83px;
  transform-origin: 25px 83px;
}
</style>
<g>
<g id="Group 2">
<g id="VALVE">
<path id="Vector" d="M13 0L13 22H21L21 0H13Z" fill="url(#pump-tl-paint0_linear)"/>
<path id="Vector_2" d="M23 21V18L11 18V21L23 21Z" fill="url(#pump-tl-paint1_linear)"/>
<path id="Vector_3" d="M11 1V4L23 4V1L11 1Z" fill="url(#pump-tl-paint2_linear)"/>
<circle id="Ellipse" cx="17" cy="11" r="6.5" stroke="#848484"/>
<path id="Subtract" d="M23 10.999C17.6886 9.40999 15.1172 12.2243 17 16.999C18.6681 11.5811 15.584 9.32175 11 10.999C15.6438 12.7871 18.596 10.3688 17 4.99902C15.2786 10.5411 18.3853 12.7711 23 10.999Z" fill="#808080"/>
</g>
<g id="Group">
<path id="Vector_4" d="M13 22L13 47H21L21 22H13Z" fill="url(#pump-tl-paint3_linear)"/>
<path id="Vector_5" d="M23 46V43H11L11 46H23Z" fill="url(#pump-tl-paint4_linear)"/>
<path id="Vector_6" d="M11 23V26L23 26V23L11 23Z" fill="url(#pump-tl-paint5_linear)"/>
<ellipse id="Ellipse_2" cx="17" cy="34.6233" rx="8" ry="7.54717" fill="#C4C4C4"/>
<path id="Arrow" d="M17.7071 27.8787C17.3166 27.4882 16.6834 27.4882 16.2929 27.8787L9.92893 34.2427C9.53841 34.6332 9.53841 35.2664 9.92893 35.6569C10.3195 36.0474 10.9526 36.0474 11.3431 35.6569L17 30L22.6569 35.6569C23.0474 36.0474 23.6805 36.0474 24.0711 35.6569C24.4616 35.2664 24.4616 34.6332 24.0711 34.2427L17.7071 27.8787ZM18 41.416L18 28.5858L16 28.5858L16 41.416L18 41.416Z" fill="#5B5B5F"/>
</g>
<g id="VALVE_2">
<path id="Vector_7" d="M29.2939 118L29.2939 140H37.2939L37.2939 118H29.2939Z" fill="url(#pump-tl-paint6_linear)"/>
<path id="Vector_8" d="M39.2939 139V136H27.2939V139H39.2939Z" fill="url(#pump-tl-paint7_linear)"/>
<path id="Vector_9" d="M27.2939 119V122H39.2939V119H27.2939Z" fill="url(#pump-tl-paint8_linear)"/>
<circle id="Ellipse_3" cx="33.2939" cy="129" r="6.5" stroke="#848484"/>
<path id="Subtract_2" d="M39.2939 129C33.9825 127.411 31.4111 130.225 33.2939 135C34.962 129.582 31.878 127.323 27.2939 129C31.9378 130.788 34.8899 128.37 33.2939 123C31.5725 128.542 34.6793 130.772 39.2939 129Z" fill="#808080"/>
</g>
</g>
<g>
<g id="Group 4">
<g id="Group 3">
<rect id="Rectangle" width="18.5047" height="22.775" rx="4" transform="matrix(-1 0 0 1 42.4404 82.5166)" fill="url(#pump-tl-paint9_linear)"/>
<rect id="Rectangle_2" width="18.5047" height="24.9101" rx="4" transform="matrix(-1 0 0 1 25.3584 59.7402)" fill="url(#pump-tl-paint10_linear)"/>
<circle id="Ellipse_4" r="17.7934" transform="matrix(-1 0 0 1 24.649 82.8383)" fill="url(#pump-tl-paint11_radial)"/>
</g>
<g id="Group 2.1">
<path id="Vector_10" d="M27.7549 118.103L27.7549 105.162H38.7544L38.7544 118.103H27.7549Z" fill="url(#pump-tl-paint12_linear)"/>
<path id="Vector_11" d="M25.166 116.81L25.166 110.34H41.3418V116.81H25.166Z" fill="url(#pump-tl-paint13_linear)"/>
</g>
<g id="Group 2.2">
<path id="Vector_12" d="M22.3828 46.9314L22.3828 59.8721H11.3833L11.3833 46.9314H22.3828Z" fill="url(#pump-tl-paint14_linear)"/>
<path id="Vector_13" d="M24.9727 48.224V54.6943L8.79687 54.6943V48.224L24.9727 48.224Z" fill="url(#pump-tl-paint15_linear)"/>
</g>
</g>
<g class="click fault inactive" reference="PUMP-TL-CONTROL">
<g class="fault inactive" reference="PUMP-TL-STATUS">
<ellipse id="Ellipse_5" rx="14.5902" ry="14.2344" transform="matrix(0 1 1 0 24.6465 82.8715)"/>
<g id="pump-tl" class="animation-spin">
<path d="M26.4832 70.1025H23.2332L23.2332 96.1025H26.4832L26.4832 70.1025Z" fill="#4F4F4F"/>
<path d="M14.4102 75.1926L12.7852 78.0072L35.3018 91.0072L36.9268 88.1926L14.4102 75.1926Z" fill="#4F4F4F"/>
<path d="M19.7678 71.031L16.9532 72.656L29.9532 95.1726L32.7678 93.5476L19.7678 71.031Z" fill="#4F4F4F"/>
<path d="M32.763 72.6533L29.9484 71.0283L16.9484 93.545L19.763 95.17L32.763 72.6533Z" fill="#4F4F4F"/>
<path d="M36.9296 78.0094L35.3046 75.1949L12.7879 88.1949L14.4129 91.0094L36.9296 78.0094Z" fill="#4F4F4F"/>
<path d="M11.8535 81.4772V84.7272H37.8535V81.4772H11.8535Z" fill="#4F4F4F"/>
</g>
</g>
</g>
<g class="fault hide" reference="HAND-PUMP-TL">
		<g class="animation-hide">
<g id="Flade">
<path id="Subtract_3" fill-rule="evenodd" clip-rule="evenodd" d="M13.0957 106C15.3048 106 17.0957 104.209 17.0957 102C17.0957 99.7909 15.3048 98 13.0957 98C10.8866 98 9.0957 99.7909 9.0957 102C9.0957 104.209 10.8866 106 13.0957 106ZM13.0957 105C14.7526 105 16.0957 103.657 16.0957 102C16.0957 100.343 14.7526 99 13.0957 99C11.4388 99 10.0957 100.343 10.0957 102C10.0957 103.657 11.4388 105 13.0957 105Z"/>
</g>
<g id="Group_2">
<path id="Vector_15" d="M14.2945 101.315C14.2945 100.712 13.764 100.223 13.1097 100.223C12.4553 100.223 11.9248 100.712 11.9248 101.315L11.9248 110.374C11.9248 110.977 12.2545 109.625 12.9088 109.625C13.5632 109.625 14.2945 110.008 14.2945 109.405L14.2945 101.315Z" fill="white"/>
<path id="Vector_16" d="M16.8277 106.923C16.8277 106.32 16.2972 105.831 15.6429 105.831C14.9885 105.831 14.458 106.32 14.458 106.923V109.53C14.458 110.134 14.9885 110.323 15.6429 110.323C16.2972 110.323 16.8277 110.926 16.8277 110.323V106.923Z" fill="white"/>
<path id="Vector_17" d="M19.397 107.849C19.397 107.246 18.8666 106.757 18.2122 106.757C17.5578 106.757 17.0273 107.246 17.0273 107.849V110.5C17.0273 111.104 17.5578 110.897 18.2122 110.897C18.8666 110.897 19.397 111.808 19.397 111.205V107.849Z" fill="white"/>
<path id="Vector_18" d="M22.0004 108.809C22.0004 108.206 21.4699 107.717 20.8156 107.717C20.1612 107.717 19.6307 108.206 19.6307 108.809V111.394C19.6307 111.997 18.1931 119.167 18.8475 119.167C20.3691 119.112 22.0004 115.336 22.0004 114.609V108.809Z" fill="white"/>
<g id="Vector_19">
<mask id="path-30-inside-1" fill="white">
<path d="M9.77961 108.177C9.46407 107.682 8.77374 107.615 8.23771 108.027C7.70168 108.439 7.52293 109.173 7.83847 109.667L9.09459 112.325C9.27889 113.459 12.2274 119.9 13.352 119.261C14.4767 118.622 12.2819 110.793 11.9664 110.299L9.77961 108.177Z"/>
</mask>
<path d="M9.77961 108.177C9.46407 107.682 8.77374 107.615 8.23771 108.027C7.70168 108.439 7.52293 109.173 7.83847 109.667L9.09459 112.325C9.27889 113.459 12.2274 119.9 13.352 119.261C14.4767 118.622 12.2819 110.793 11.9664 110.299L9.77961 108.177Z" fill="white"/>
<path d="M9.77961 108.177L5.81373 111.222L6.12241 111.705L6.52609 112.097L9.77961 108.177ZM11.9664 110.299L15.9323 107.254L15.6236 106.77L15.2199 106.379L11.9664 110.299ZM13.352 119.261L15.4752 123.852L15.4752 123.852L13.352 119.261ZM9.09459 112.325L13.8154 111.276L13.6928 110.522L13.3729 109.845L9.09459 112.325ZM7.83847 109.667L12.1168 107.188L11.9777 106.893L11.8044 106.622L7.83847 109.667ZM10.9287 112.241C9.82234 113.091 7.33072 113.597 5.81373 111.222L13.7455 105.132C11.5974 101.768 7.72515 102.14 5.5467 103.813L10.9287 112.241ZM6.52609 112.097L8.71286 114.219L15.2199 106.379L13.0331 104.256L6.52609 112.097ZM8.00049 113.344C7.82065 113.062 7.7159 112.831 7.69298 112.781C7.65423 112.696 7.63139 112.638 7.62624 112.624C7.61558 112.597 7.62388 112.616 7.65258 112.702C7.70752 112.866 7.79079 113.134 7.89273 113.49C8.09576 114.201 8.33338 115.125 8.52816 116.038C8.73301 116.999 8.84598 117.743 8.87283 118.168C8.88832 118.414 8.85543 118.272 8.91608 117.916C8.94772 117.73 9.03939 117.272 9.31374 116.715C9.60066 116.133 10.1821 115.264 11.2289 114.67L15.4752 123.852C17.784 122.541 18.2422 120.088 18.3406 119.51C18.4952 118.601 18.4729 117.739 18.4359 117.153C18.3576 115.915 18.1131 114.551 17.8704 113.413C17.6176 112.227 17.3177 111.062 17.0556 110.145C16.925 109.688 16.7938 109.258 16.6727 108.897C16.6134 108.72 16.5433 108.52 16.4663 108.323C16.4401 108.256 16.2527 107.756 15.9323 107.254L8.00049 113.344ZM11.2289 114.67C13.2646 113.514 14.9689 114.44 15.3275 114.663C15.7694 114.937 15.9473 115.193 15.8555 115.081C15.7224 114.919 15.4243 114.475 15.0269 113.737C14.6575 113.051 14.3049 112.305 14.043 111.688C13.912 111.379 13.8195 111.14 13.7644 110.985C13.6733 110.728 13.7535 110.896 13.8154 111.276L4.37383 113.373C4.48171 114.037 4.69441 114.654 4.80419 114.964C4.95008 115.376 5.12693 115.821 5.31588 116.266C5.69376 117.156 6.18317 118.192 6.71446 119.179C7.21779 120.113 7.87927 121.23 8.62101 122.131C8.96676 122.551 9.56093 123.214 10.38 123.723C11.1158 124.18 13.1583 125.168 15.4752 123.852L11.2289 114.67ZM13.3729 109.845L12.1168 107.188L3.56012 112.146L4.81625 114.804L13.3729 109.845ZM11.8044 106.622C13.3213 108.998 12.0351 111.392 10.9287 112.241L5.5467 103.813C3.36826 105.486 1.72452 109.348 3.87258 112.712L11.8044 106.622Z" fill="white" mask="url(#path-30-inside-1)"/>
</g>
<path id="Vector_20" d="M18.1336 119.232C20.2409 119.232 21.0054 115.212 21.0054 112.537C19.8406 110.643 16.1455 109.652 12.611 109.344C10.6737 109.536 12.6422 118.414 12.8319 118.923C13.0216 119.431 16.4739 119.631 18.1336 119.232Z" fill="white"/>
</g>
</g>
</g>
<g class="fault inactive" reference="ALARM-PUMP-TL">
<g  class="animation-fail">
<g id="Group 2_3">
<path id="path19629" d="M20.8838 59.3711C19.5601 58.6072 17.8675 59.0605 17.1032 60.3836L0.371247 89.3506C-0.392996 90.6737 0.0605361 92.3655 1.38424 93.1294C1.80497 93.3722 2.28222 93.5 2.76803 93.5H36.232C36.7178 93.5 37.195 93.3722 37.6158 93.1294C38.9395 92.3655 39.393 90.6737 38.6288 89.3506L21.8968 60.3836C21.6539 59.9631 21.3045 59.6139 20.8838 59.3711V59.3711Z" fill="black"/>
<path id="path19629_2" d="M20.6709 62.4101C19.5508 61.7488 18.1186 62.1412 17.4719 63.2866L3.31413 88.3625C2.66746 89.5079 3.05122 90.9724 4.17128 91.6337C4.52728 91.8439 4.93111 91.9545 5.34218 91.9545H33.6578C34.0689 91.9545 34.4727 91.8439 34.8287 91.6337C35.9488 90.9724 36.3325 89.5079 35.6859 88.3625L21.528 63.2866C21.3225 62.9226 21.0269 62.6203 20.6709 62.4101V62.4101Z" fill="white"/>
<path id="path19631" d="M21.9334 85.5474C21.9335 85.8767 21.8706 86.2029 21.7484 86.5072C21.6261 86.8115 21.4469 87.088 21.2209 87.3209C20.9949 87.5539 20.7266 87.7386 20.4313 87.8647C20.136 87.9908 19.8195 88.0557 19.4999 88.0557C19.1803 88.0557 18.8638 87.9908 18.5685 87.8647C18.2732 87.7386 18.0049 87.5539 17.7789 87.3209C17.5529 87.088 17.3737 86.8115 17.2514 86.5072C17.1292 86.2029 17.0663 85.8767 17.0664 85.5474C17.0663 85.218 17.1292 84.8918 17.2514 84.5875C17.3737 84.2832 17.5529 84.0067 17.7789 83.7738C18.0049 83.5408 18.2732 83.3561 18.5685 83.23C18.8638 83.1039 19.1803 83.0391 19.4999 83.0391C19.8195 83.0391 20.136 83.1039 20.4313 83.23C20.7266 83.3561 20.9949 83.5408 21.2209 83.7738C21.4469 84.0067 21.6261 84.2832 21.7484 84.5875C21.8706 84.8918 21.9335 85.218 21.9334 85.5474V85.5474Z" fill="black"/>
<path id="path19633" d="M17.0875 72.8352C16.9121 71.4621 17.8501 70.2025 19.1825 70.0217C20.515 69.841 21.7374 70.8075 21.9129 72.1806C21.9406 72.3978 21.9406 72.6179 21.9129 72.8352L20.7372 82.0367H18.2631L17.0875 72.8352Z" fill="black"/>
</g>
<g id="flags">
<path id="path4410" d="M19.4573 61.0601C18.7837 61.0752 18.134 61.4319 17.7725 62.059L2.26754 88.9582C1.71673 89.9138 2.0437 91.1358 2.99773 91.6875C3.30096 91.8629 3.64493 91.9551 3.99506 91.9551H35.0049C35.3551 91.9551 35.699 91.8629 36.0023 91.6875C36.9563 91.1358 37.2833 89.9138 36.7325 88.9582L21.2275 62.059C21.0525 61.7553 20.8006 61.503 20.4973 61.3277C20.1694 61.138 19.8101 61.0522 19.4573 61.0601ZM19.4608 64.4994C19.5703 64.4916 19.6827 64.517 19.785 64.5761C19.8716 64.6262 19.9433 64.6979 19.9933 64.7848L33.7601 88.6674C33.9174 88.9403 33.8243 89.2893 33.5517 89.447C33.465 89.4971 33.3668 89.5237 33.2667 89.5237H5.73505C5.4203 89.5237 5.16515 89.2681 5.16515 88.9528C5.16515 88.8526 5.19001 88.754 5.23995 88.6674L19.0067 64.7848C19.105 64.6142 19.2783 64.5123 19.4608 64.4994Z"/>
</g>
</g>
</g>
</g>
</g>
<defs>
<linearGradient id="pump-tl-paint0_linear" x1="13" y1="11" x2="21" y2="11" gradientUnits="userSpaceOnUse">
<stop stop-color="#848484"/>
<stop offset="0.519337" stop-color="white"/>
<stop offset="1" stop-color="#848484"/>
</linearGradient>
<linearGradient id="pump-tl-paint1_linear" x1="23" y1="19.5" x2="11" y2="19.5" gradientUnits="userSpaceOnUse">
<stop stop-color="#848484"/>
<stop offset="0.491713" stop-color="white"/>
<stop offset="1" stop-color="#848484"/>
</linearGradient>
<linearGradient id="pump-tl-paint2_linear" x1="11" y1="2.5" x2="23" y2="2.5" gradientUnits="userSpaceOnUse">
<stop stop-color="#848484"/>
<stop offset="0.491713" stop-color="white"/>
<stop offset="1" stop-color="#848484"/>
</linearGradient>
<linearGradient id="pump-tl-paint3_linear" x1="13" y1="34.5" x2="21" y2="34.5" gradientUnits="userSpaceOnUse">
<stop stop-color="#848484"/>
<stop offset="0.519337" stop-color="white"/>
<stop offset="1" stop-color="#848484"/>
</linearGradient>
<linearGradient id="pump-tl-paint4_linear" x1="23" y1="44.5" x2="11" y2="44.5" gradientUnits="userSpaceOnUse">
<stop stop-color="#848484"/>
<stop offset="0.491713" stop-color="white"/>
<stop offset="1" stop-color="#848484"/>
</linearGradient>
<linearGradient id="pump-tl-paint5_linear" x1="11" y1="24.5" x2="23" y2="24.5" gradientUnits="userSpaceOnUse">
<stop stop-color="#848484"/>
<stop offset="0.491713" stop-color="white"/>
<stop offset="1" stop-color="#848484"/>
</linearGradient>
<linearGradient id="pump-tl-paint6_linear" x1="29.2939" y1="129" x2="37.2939" y2="129" gradientUnits="userSpaceOnUse">
<stop stop-color="#848484"/>
<stop offset="0.519337" stop-color="white"/>
<stop offset="1" stop-color="#848484"/>
</linearGradient>
<linearGradient id="pump-tl-paint7_linear" x1="39.2939" y1="137.5" x2="27.2939" y2="137.5" gradientUnits="userSpaceOnUse">
<stop stop-color="#848484"/>
<stop offset="0.491713" stop-color="white"/>
<stop offset="1" stop-color="#848484"/>
</linearGradient>
<linearGradient id="pump-tl-paint8_linear" x1="27.2939" y1="120.5" x2="39.2939" y2="120.5" gradientUnits="userSpaceOnUse">
<stop stop-color="#848484"/>
<stop offset="0.491713" stop-color="white"/>
<stop offset="1" stop-color="#848484"/>
</linearGradient>
<linearGradient id="pump-tl-paint9_linear" x1="18.5047" y1="22.775" x2="0" y2="22.775" gradientUnits="userSpaceOnUse">
<stop stop-color="#4F4F4F"/>
<stop offset="0.513812" stop-color="white"/>
<stop offset="1" stop-color="#4F4F4F"/>
</linearGradient>
<linearGradient id="pump-tl-paint10_linear" x1="18.5047" y1="24.9101" x2="0" y2="24.9101" gradientUnits="userSpaceOnUse">
<stop stop-color="#4F4F4F"/>
<stop offset="0.513812" stop-color="white"/>
<stop offset="1" stop-color="#4F4F4F"/>
</linearGradient>
<radialGradient id="pump-tl-paint11_radial" cx="0" cy="0" r="1" gradientUnits="userSpaceOnUse" gradientTransform="translate(17.794 17.4718) rotate(90.002) scale(18.1149)">
<stop offset="0.872928" stop-color="#828282"/>
<stop offset="1" stop-color="#4F4F4F"/>
</radialGradient>
<linearGradient id="pump-tl-paint12_linear" x1="27.7549" y1="111.632" x2="38.7544" y2="111.632" gradientUnits="userSpaceOnUse">
<stop stop-color="#4F4F4F"/>
<stop offset="0.519337" stop-color="white"/>
<stop offset="1" stop-color="#4F4F4F"/>
</linearGradient>
<linearGradient id="pump-tl-paint13_linear" x1="25.166" y1="113.575" x2="41.3418" y2="113.575" gradientUnits="userSpaceOnUse">
<stop stop-color="#4F4F4F"/>
<stop offset="0.491713" stop-color="white"/>
<stop offset="1" stop-color="#4F4F4F"/>
</linearGradient>
<linearGradient id="pump-tl-paint14_linear" x1="22.3828" y1="53.4018" x2="11.3833" y2="53.4018" gradientUnits="userSpaceOnUse">
<stop stop-color="#4F4F4F"/>
<stop offset="0.519337" stop-color="white"/>
<stop offset="1" stop-color="#4F4F4F"/>
</linearGradient>
<linearGradient id="pump-tl-paint15_linear" x1="24.9727" y1="51.4592" x2="8.79687" y2="51.4592" gradientUnits="userSpaceOnUse">
<stop stop-color="#4F4F4F"/>
<stop offset="0.491713" stop-color="white"/>
<stop offset="1" stop-color="#4F4F4F"/>
</linearGradient>
</defs>
</svg>
