<svg width="59" height="87" viewBox="0 0 59 87" fill="none" xmlns="http://www.w3.org/2000/svg">
	<style>
	#fecal_r  {
  -webkit-transform-origin: 29px 67px;
  -moz-transform-origin: 29px 67px;
  -ms-transform-origin: 29px 67px;
  transform-origin: 29px 67px;
}
</style>
<g id="PUMP_FECAL_R">
<g id="Group 3">
<g id="Group 2">
<path id="Vector" d="M58.9999 71.999H45.6123V60.6593H58.9999V71.999Z" fill="url(#FECAL_R-paint0_linear)"/>
<path id="Vector_2" d="M57.6625 74.6631H50.9688V57.9871H57.6625V74.6631Z" fill="url(#FECAL_R-paint1_linear)"/>
</g>
<g id="Group 2_2">
<rect id="Rectangle" width="29.1698" height="44.103" rx="6" transform="matrix(-1 0 0 1 43.1992 9)" fill="url(#FECAL_R-paint2_linear)"/>
<rect id="Rectangle_2" width="38.6182" height="38.4833" rx="4" transform="matrix(-1 0 0 1 47.6182 47.5166)" fill="url(#FECAL_R-paint3_linear)"/>
<ellipse id="Ellipse" rx="18.4079" ry="18.3436" transform="matrix(-1 0 0 1 28.5384 66.9901)" fill="#6A6A6A"/>
</g>
<ellipse id="Ellipse_2" rx="15.061" ry="15.0084" transform="matrix(-1 0 0 1 28.5415 66.9947)" fill="#828282"/>
</g>
<g class="click fault inactive" reference="PUMP-FECAL-CONTROL">
<g class="fault inactive" reference="PUMP-FECAL-STATUS">
<circle id="Ellipse_3" cx="29" cy="67" r="15"/>
<g id="fecal_r" class="animation-spin">
<path d="M15.3623 68.7018V65.2927H42.635V68.7018H15.3623Z" fill="#4F4F4F"/>
<path d="M20.7067 56.043L23.6591 54.3384L37.2954 77.9573L34.3431 79.6618L20.7067 56.043Z" fill="#4F4F4F"/>
<path d="M16.3405 61.6556L18.045 58.7032L41.6639 72.3396L39.9594 75.292L16.3405 61.6556Z" fill="#4F4F4F"/>
<path d="M18.0423 75.293L16.3378 72.3406L39.9566 58.7042L41.6612 61.6566L18.0423 75.293Z" fill="#4F4F4F"/>
<path d="M23.6549 79.6589L20.7026 77.9543L34.339 54.3354L37.2913 56.04L23.6549 79.6589Z" fill="#4F4F4F"/>
<path d="M27.2975 53.3633H30.7066V80.636H27.2975V53.3633Z" fill="#4F4F4F"/>
</g>
</g>
</g>
<g class="fault hide" reference="HAND-PUMP-FECAL">
<g class="animation-hide">
<g id="Flade">
<path id="Subtract" fill-rule="evenodd" clip-rule="evenodd" d="M11.1004 73.1084C8.84262 73.1084 7.01232 71.2933 7.01232 69.0542C7.01232 66.8151 8.84262 65 11.1004 65C13.3582 65 15.1885 66.8151 15.1885 69.0542C15.1885 71.2933 13.3582 73.1084 11.1004 73.1084ZM11.1 72.0949C9.40662 72.0949 8.0339 70.7335 8.0339 69.0542C8.0339 67.3749 9.40662 66.0136 11.1 66.0136C12.7933 66.0136 14.166 67.3749 14.166 69.0542C14.166 70.7335 12.7933 72.0949 11.1 72.0949Z"/>
</g>
<g id="Group">
<path id="Vector_4" d="M9.875 68.3599C9.875 67.7486 10.4172 67.2529 11.0859 67.2529C11.7547 67.2529 12.2969 67.7486 12.2969 68.3599V77.5419C12.2969 78.1533 11.96 76.7831 11.2912 76.7831C10.6224 76.7831 9.875 77.1713 9.875 76.5599V68.3599Z" fill="white"/>
<path id="Vector_5" d="M7.28613 74.0445C7.28613 73.4331 7.82829 72.9375 8.49707 72.9375C9.16585 72.9375 9.70801 73.4331 9.70801 74.0445V76.6871C9.70801 77.2985 9.16585 77.4906 8.49707 77.4906C7.82829 77.4906 7.28613 78.1019 7.28613 77.4906V74.0445Z" fill="white"/>
<path id="Vector_6" d="M4.66015 74.983C4.66015 74.3716 5.20231 73.876 5.87109 73.876C6.53988 73.876 7.08203 74.3716 7.08203 74.983V77.6702C7.08203 78.2816 6.53988 78.0719 5.87109 78.0719C5.20231 78.0719 4.66015 78.9958 4.66015 78.3844V74.983Z" fill="white"/>
<path id="Vector_7" d="M1.99965 75.9557C1.99965 75.3443 2.5418 74.8486 3.21059 74.8486C3.87937 74.8486 4.42153 75.3443 4.42153 75.9557V78.5759C4.42153 79.1873 5.89077 86.4545 5.22199 86.4545C3.66691 86.3988 1.99965 82.571 1.99965 81.8344V75.9557Z" fill="white"/>
<path id="Vector_8" d="M14.4895 75.3142C14.812 74.8133 15.5175 74.7455 16.0653 75.1626C16.6132 75.5798 16.7958 76.3239 16.4734 76.8247L15.1896 79.5184C15.0012 80.6683 11.9878 87.1961 10.8384 86.5488C9.68901 85.9016 11.9321 77.9659 12.2546 77.465L14.4895 75.3142Z" fill="white"/>
<path id="Vector_9" d="M6.43065 83.0273H9.79034C10.7669 83.0273 11.5586 83.7685 11.5586 84.6827V85.3448C11.5586 86.259 10.7669 87.0001 9.79034 87.0001H6.43065C5.45407 87.0001 4.6624 86.259 4.6624 85.3448V84.6827C4.6624 83.7685 5.45407 83.0273 6.43065 83.0273Z" fill="white"/>
<path id="Vector_10" d="M5.95174 86.5195C3.79803 86.5195 3.01675 82.4451 3.01675 79.7333C4.20716 77.8139 7.98365 76.8095 11.5959 76.4971C13.5759 76.6914 11.5641 85.6907 11.3702 86.2058C11.1763 86.7209 7.64799 86.9233 5.95174 86.5195Z" fill="white"/>
</g>
</g>
</g>
<g class="fault inactive" reference="ALARM-PUMP-FECAL">
<g  class="animation-fail">
<g id="Group 2_4">
<path id="path19629" d="M20.8838 0.371068C19.5601 -0.392811 17.8675 0.0605111 17.1032 1.3836L0.371247 30.3506C-0.392996 31.6737 0.0605361 33.3655 1.38424 34.1294C1.80497 34.3722 2.28222 34.5 2.76803 34.5H36.232C36.7178 34.5 37.195 34.3722 37.6158 34.1294C38.9395 33.3655 39.393 31.6737 38.6288 30.3506L21.8968 1.3836C21.6539 0.963074 21.3045 0.613862 20.8838 0.371068V0.371068Z" fill="black"/>
<path id="path19629_2" d="M20.6709 3.41009C19.5508 2.74882 18.1186 3.14125 17.4719 4.28661L3.31413 29.3625C2.66746 30.5079 3.05122 31.9724 4.17128 32.6337C4.52728 32.8439 4.93111 32.9545 5.34218 32.9545H33.6578C34.0689 32.9545 34.4727 32.8439 34.8287 32.6337C35.9488 31.9724 36.3325 30.5079 35.6859 29.3625L21.528 4.28661C21.3225 3.92257 21.0269 3.62027 20.6709 3.41009V3.41009Z" fill="white"/>
<path id="path19631" d="M21.9334 26.5474C21.9335 26.8767 21.8706 27.2029 21.7484 27.5072C21.6261 27.8115 21.4469 28.088 21.2209 28.3209C20.9949 28.5539 20.7266 28.7386 20.4313 28.8647C20.136 28.9908 19.8195 29.0557 19.4999 29.0557C19.1803 29.0557 18.8638 28.9908 18.5685 28.8647C18.2732 28.7386 18.0049 28.5539 17.7789 28.3209C17.5529 28.088 17.3737 27.8115 17.2514 27.5072C17.1292 27.2029 17.0663 26.8767 17.0664 26.5474C17.0663 26.218 17.1292 25.8918 17.2514 25.5875C17.3737 25.2832 17.5529 25.0067 17.7789 24.7738C18.0049 24.5408 18.2732 24.3561 18.5685 24.23C18.8638 24.1039 19.1803 24.0391 19.4999 24.0391C19.8195 24.0391 20.136 24.1039 20.4313 24.23C20.7266 24.3561 20.9949 24.5408 21.2209 24.7738C21.4469 25.0067 21.6261 25.2832 21.7484 25.5875C21.8706 25.8918 21.9335 26.218 21.9334 26.5474V26.5474Z" fill="black"/>
<path id="path19633" d="M17.0875 13.8352C16.9121 12.4621 17.8501 11.2025 19.1825 11.0217C20.515 10.841 21.7374 11.8075 21.9129 13.1806C21.9406 13.3978 21.9406 13.6179 21.9129 13.8352L20.7372 23.0367H18.2631L17.0875 13.8352Z" fill="black"/>
</g>
<g id="flags">
<path id="path4410" d="M19.4573 2.06007C18.7837 2.07519 18.134 2.43193 17.7725 3.05904L2.26754 29.9582C1.71673 30.9138 2.0437 32.1358 2.99773 32.6875C3.30096 32.8629 3.64493 32.9551 3.99506 32.9551H35.0049C35.3551 32.9551 35.699 32.8629 36.0023 32.6875C36.9563 32.1358 37.2833 30.9138 36.7325 29.9582L21.2275 3.05904C21.0525 2.75532 20.8006 2.50301 20.4973 2.32765C20.1694 2.138 19.8101 2.05215 19.4573 2.06007ZM19.4608 5.49939C19.5703 5.49164 19.6827 5.51698 19.785 5.5761C19.8716 5.6262 19.9433 5.69795 19.9933 5.78481L33.7601 29.6674C33.9174 29.9403 33.8243 30.2893 33.5517 30.447C33.465 30.4971 33.3668 30.5237 33.2667 30.5237H5.73505C5.4203 30.5237 5.16515 30.2681 5.16515 29.9528C5.16515 29.8526 5.19001 29.754 5.23995 29.6674L19.0067 5.78481C19.105 5.6142 19.2783 5.51231 19.4608 5.49939Z"/>
</g>
</g>
</g>
</g>
<defs>
<linearGradient id="FECAL_R-paint0_linear" x1="52.3061" y1="71.999" x2="52.3061" y2="60.6593" gradientUnits="userSpaceOnUse">
<stop stop-color="#4F4F4F"/>
<stop offset="0.519337" stop-color="#BDBDBD"/>
<stop offset="1" stop-color="#4F4F4F"/>
</linearGradient>
<linearGradient id="FECAL_R-paint1_linear" x1="54.3156" y1="74.6631" x2="54.3156" y2="57.9871" gradientUnits="userSpaceOnUse">
<stop stop-color="#4F4F4F"/>
<stop offset="0.491713" stop-color="#BDBDBD"/>
<stop offset="1" stop-color="#4F4F4F"/>
</linearGradient>
<linearGradient id="FECAL_R-paint2_linear" x1="29.1698" y1="22.0515" x2="-1.59377e-06" y2="22.0515" gradientUnits="userSpaceOnUse">
<stop stop-color="#4F4F4F"/>
<stop offset="0.519337" stop-color="#BDBDBD"/>
<stop offset="1" stop-color="#4F4F4F"/>
</linearGradient>
<linearGradient id="FECAL_R-paint3_linear" x1="38.6182" y1="19.2417" x2="-2.11001e-06" y2="19.2417" gradientUnits="userSpaceOnUse">
<stop stop-color="#4F4F4F"/>
<stop offset="0.519337" stop-color="#BDBDBD"/>
<stop offset="1" stop-color="#4F4F4F"/>
</linearGradient>
</defs>
</svg>
