<svg width="36" height="71" viewBox="0 0 36 71" fill="none" xmlns="http://www.w3.org/2000/svg">
		<style>
	#pumpbcitp {
  -webkit-transform-origin: 18px 35px;
  -moz-transform-origin: 18px 35px;
  -ms-transform-origin: 18px 35px;
  transform-origin: 18px 35px;
}
</style>
<g>
<g id="Group 2">
<g id="Group 2.1">
<path id="Vector" d="M16 71L16 58H4L4 71H16Z" fill="url(#pump-bcitp-paint0_linear)"/>
<path id="Vector_2" d="M18 70V64H2V70H18Z" fill="url(#pump-bcitp-paint1_linear)"/>
<rect id="Rectangle" x="36" y="38" width="20" height="25" rx="4" transform="rotate(-180 36 38)" fill="url(#pump-bcitp-paint2_linear)"/>
<rect id="Rectangle_2" x="20" y="58" width="20" height="25" rx="4" transform="rotate(-180 20 58)" fill="url(#pump-bcitp-paint3_linear)"/>
<circle id="Ellipse" cx="17.7945" cy="35.0934" r="17.7934" transform="rotate(-180 17.7945 35.0934)" fill="url(#pump-bcitp-paint4_radial)"/>
<path id="Vector_3" d="M20 0L20 13L32 13V0L20 0Z" fill="url(#pump-bcitp-paint5_linear)"/>
<path id="Vector_4" d="M18 1L18 7L34 7V1L18 1Z" fill="url(#pump-bcitp-paint6_linear)"/>
</g>
<g class="click fault inactive" reference="PUMP-BCITP-CONTROL">

<g class="fault inactive" reference="PUMP-BCITP-STATUS">
<circle id="Ellipse_2" r="15" transform="matrix(0 -1 -1 0 17.7061 35)"/>
<g id="pumpbcitp" class="animation-spin">
<path d="M5 36.6227V33.3727H31V36.6227H5Z" fill="#4F4F4F"/>
<path d="M10.095 24.5546L12.9096 22.9296L25.9096 45.4463L23.095 47.0713L10.095 24.5546Z" fill="#4F4F4F"/>
<path d="M5.93254 29.9053L7.55754 27.0908L30.0742 40.0908L28.4492 42.9053L5.93254 29.9053Z" fill="#4F4F4F"/>
<path d="M7.55495 42.9063L5.92995 40.0917L28.4466 27.0917L30.0716 29.9063L7.55495 42.9063Z" fill="#4F4F4F"/>
<path d="M12.9057 47.0684L10.0911 45.4434L23.0911 22.9268L25.9057 24.5518L12.9057 47.0684Z" fill="#4F4F4F"/>
<path d="M16.3782 22H19.6282V48H16.3782V22Z" fill="#4F4F4F"/>
</g>
</g>
</g>
<g class="fault inactive" reference="ALARM-PUMP-BCITP">
<g  class="animation-fail">
<g id="Group 2_2">
<path id="path19629" d="M19.0644 20.3012C18.0462 19.6812 16.7442 20.0491 16.1563 21.1229L3.28557 44.6324C2.6977 45.7062 3.04657 47.0793 4.0648 47.6992C4.38844 47.8963 4.75556 48 5.12926 48H30.8707C31.2444 48 31.6116 47.8963 31.9352 47.6992C32.9534 47.0792 33.3023 45.7062 32.7144 44.6324L19.8437 21.1229C19.6568 20.7816 19.3881 20.4982 19.0644 20.3012V20.3012Z" fill="black"/>
<path id="path19629_2" d="M18.9016 22.7675C18.04 22.2309 16.9383 22.5493 16.4409 23.4789L5.55023 43.8304C5.0528 44.7599 5.348 45.9486 6.20958 46.4853C6.48343 46.6558 6.79406 46.7456 7.11027 46.7456H28.8915C29.2077 46.7456 29.5184 46.6558 29.7922 46.4853C30.6538 45.9486 30.949 44.7599 30.4516 43.8304L19.5609 23.4789C19.4028 23.1835 19.1754 22.9381 18.9016 22.7675V22.7675Z" fill="white"/>
<path id="path19631" d="M19.8728 41.5465C19.8728 41.8138 19.8245 42.0785 19.7304 42.3255C19.6364 42.5724 19.4985 42.7969 19.3247 42.9859C19.1508 43.1749 18.9445 43.3249 18.7173 43.4272C18.4902 43.5295 18.2467 43.5822 18.0008 43.5822C17.755 43.5822 17.5115 43.5295 17.2844 43.4272C17.0572 43.3249 16.8508 43.1749 16.677 42.9859C16.5032 42.7969 16.3653 42.5724 16.2712 42.3255C16.1772 42.0785 16.1288 41.8138 16.1289 41.5465C16.1288 41.2792 16.1772 41.0144 16.2712 40.7675C16.3653 40.5205 16.5032 40.2961 16.677 40.107C16.8508 39.918 17.0572 39.768 17.2844 39.6657C17.5115 39.5634 17.755 39.5107 18.0008 39.5107C18.2467 39.5107 18.4902 39.5634 18.7173 39.6657C18.9445 39.768 19.1508 39.918 19.3247 40.107C19.4985 40.2961 19.6364 40.5205 19.7304 40.7675C19.8245 41.0144 19.8728 41.2792 19.8728 41.5465V41.5465Z" fill="black"/>
<path id="path19633" d="M16.1451 31.2278C16.0102 30.1134 16.7317 29.0911 17.7567 28.9444C18.7817 28.7977 19.722 29.5821 19.8569 30.6965C19.8783 30.8728 19.8783 31.0514 19.8569 31.2278L18.9526 38.6957H17.0495L16.1451 31.2278Z" fill="black"/>
</g>
<g id="flags">
<path id="path4410" d="M17.9667 21.6723C17.4486 21.6845 16.9488 21.9741 16.6708 22.483L4.74389 44.3142C4.32019 45.0898 4.5717 46.0816 5.30557 46.5293C5.53882 46.6717 5.80342 46.7465 6.07275 46.7465H29.9265C30.1958 46.7465 30.4604 46.6717 30.6937 46.5293C31.4275 46.0816 31.6791 45.0898 31.2554 44.3142L19.3285 22.483C19.1938 22.2365 19.0001 22.0318 18.7668 21.8894C18.5145 21.7355 18.2381 21.6659 17.9667 21.6723ZM17.9695 24.4636C18.0537 24.4573 18.1402 24.4779 18.2188 24.5259C18.2855 24.5665 18.3406 24.6248 18.3791 24.6953L28.9689 44.0782C29.0899 44.2997 29.0183 44.583 28.8086 44.7109C28.742 44.7516 28.6664 44.7732 28.5894 44.7732H7.4112C7.16909 44.7732 6.97281 44.5657 6.97281 44.3099C6.97281 44.2285 6.99194 44.1485 7.03035 44.0782L17.6201 24.6953C17.6958 24.5568 17.8291 24.4741 17.9695 24.4636Z"/>
</g>
</g>
</g>
<g class="fault hide" reference="HAND-PUMP-BCITP">
		<g class="animation-hide">
<g id="Flade">
<path id="Subtract" fill-rule="evenodd" clip-rule="evenodd" d="M27.1014 57.1084C24.8436 57.1084 23.0133 55.2933 23.0133 53.0542C23.0133 50.8151 24.8436 49 27.1014 49C29.3592 49 31.1895 50.8151 31.1895 53.0542C31.1895 55.2933 29.3592 57.1084 27.1014 57.1084ZM27.1009 56.0949C25.4076 56.0949 24.0349 54.7335 24.0349 53.0542C24.0349 51.3749 25.4076 50.0136 27.1009 50.0136C28.7943 50.0136 30.167 51.3749 30.167 53.0542C30.167 54.7335 28.7943 56.0949 27.1009 56.0949Z"/>
</g>
<g id="Group">
<path id="Vector_6" d="M25.876 52.3599C25.876 51.7486 26.4181 51.2529 27.0869 51.2529C27.7557 51.2529 28.2979 51.7486 28.2979 52.3599V61.5419C28.2979 62.1533 27.9609 60.7831 27.2922 60.7831C26.6234 60.7831 25.876 61.1713 25.876 60.5599V52.3599Z" fill="white"/>
<path id="Vector_7" d="M23.2871 58.0445C23.2871 57.4331 23.8293 56.9375 24.498 56.9375C25.1668 56.9375 25.709 57.4331 25.709 58.0445V60.6871C25.709 61.2985 25.1668 61.4906 24.498 61.4906C23.8293 61.4906 23.2871 62.1019 23.2871 61.4906V58.0445Z" fill="white"/>
<path id="Vector_8" d="M20.6611 58.983C20.6611 58.3716 21.2033 57.876 21.8721 57.876C22.5409 57.876 23.083 58.3716 23.083 58.983V61.6702C23.083 62.2816 22.5409 62.0719 21.8721 62.0719C21.2033 62.0719 20.6611 62.9958 20.6611 62.3844V58.983Z" fill="white"/>
<path id="Vector_9" d="M18.0006 59.9557C18.0006 59.3443 18.5428 58.8486 19.2116 58.8486C19.8803 58.8486 20.4225 59.3443 20.4225 59.9557V62.5759C20.4225 63.1873 21.8918 70.4545 21.223 70.4545C19.6679 70.3988 18.0006 66.571 18.0006 65.8344V59.9557Z" fill="white"/>
<g id="Vector_10">
<mask id="path-20-inside-1" fill="white">
<path d="M30.4905 59.3142C30.8129 58.8133 31.5185 58.7455 32.0663 59.1626C32.6141 59.5798 32.7968 60.3239 32.4743 60.8247L31.1906 63.5184C31.0022 64.6683 27.9888 71.1961 26.8394 70.5488C25.69 69.9016 27.9331 61.9659 28.2555 61.465L30.4905 59.3142Z"/>
</mask>
<path d="M30.4905 59.3142C30.8129 58.8133 31.5185 58.7455 32.0663 59.1626C32.6141 59.5798 32.7968 60.3239 32.4743 60.8247L31.1906 63.5184C31.0022 64.6683 27.9888 71.1961 26.8394 70.5488C25.69 69.9016 27.9331 61.9659 28.2555 61.465L30.4905 59.3142Z" fill="white"/>
<path d="M30.4905 59.3142L34.4685 62.3432L34.1572 62.8267L33.75 63.2185L30.4905 59.3142ZM28.2555 61.465L24.2775 58.436L24.5888 57.9525L24.996 57.5606L28.2555 61.465ZM26.8394 70.5488L28.9782 65.971L28.9782 65.971L26.8394 70.5488ZM31.1906 63.5184L26.4513 62.4859L26.5747 61.7321L26.8973 61.0553L31.1906 63.5184ZM32.4743 60.8247L28.1811 58.3617L28.3214 58.0673L28.4963 57.7957L32.4743 60.8247ZM29.3594 63.3665C30.4478 64.1953 32.941 64.7154 34.4685 62.3432L26.5124 56.2851C28.6848 52.9113 32.5891 53.2957 34.7732 54.9587L29.3594 63.3665ZM33.75 63.2185L31.5151 65.3694L24.996 57.5606L27.2309 55.4098L33.75 63.2185ZM32.2336 64.4941C32.4149 64.2125 32.5204 63.9816 32.5433 63.9318C32.5822 63.8472 32.6051 63.7895 32.61 63.7769C32.6203 63.7508 32.6114 63.7717 32.5819 63.8591C32.5253 64.0266 32.4398 64.299 32.3355 64.6612C32.1275 65.3824 31.8842 66.321 31.6848 67.2488C31.4751 68.2237 31.3587 68.9827 31.3309 69.4195C31.3149 69.6704 31.348 69.5352 31.2879 69.1847C31.2564 69.0017 31.165 68.5479 30.8909 67.9966C30.6043 67.42 30.0237 66.5597 28.9782 65.971L24.7005 75.1267C22.388 73.8245 21.9263 71.3853 21.8261 70.8017C21.6699 69.8914 21.6922 69.0261 21.7299 68.4342C21.8095 67.1854 22.0585 65.8078 22.3063 64.6553C22.5642 63.4557 22.8703 62.2759 23.1377 61.3481C23.271 60.8857 23.4047 60.451 23.528 60.0861C23.5885 59.9073 23.6597 59.7057 23.7377 59.508C23.7646 59.4399 23.954 58.9384 24.2775 58.436L32.2336 64.4941ZM28.9782 65.971C26.9435 64.8252 25.2366 65.7426 24.8749 65.9655C24.4324 66.2382 24.2559 66.4907 24.3512 66.3758C24.4914 66.2069 24.7984 65.7518 25.2053 65.0027C25.5839 64.3056 25.9452 63.5471 26.2137 62.9201C26.3479 62.6065 26.4431 62.363 26.4999 62.2039C26.5931 61.943 26.5132 62.1078 26.4513 62.4859L35.9298 64.5508C35.8208 65.2164 35.6055 65.8368 35.4934 66.1504C35.3449 66.5659 35.1648 67.0159 34.972 67.466C34.5866 68.3661 34.0873 69.4147 33.5454 70.4124C33.0317 71.3581 32.3581 72.4855 31.6041 73.3944C31.2523 73.8184 30.6504 74.4837 29.8223 74.994C29.0751 75.4545 27.0226 76.4342 24.7005 75.1267L28.9782 65.971ZM26.8973 61.0553L28.1811 58.3617L36.7676 63.2878L35.4838 65.9814L26.8973 61.0553ZM28.4963 57.7957C26.9688 60.1679 28.271 62.5378 29.3594 63.3665L34.7732 54.9587C36.9573 56.6218 38.6249 60.4799 36.4524 63.8538L28.4963 57.7957Z" fill="white" mask="url(#path-20-inside-1)"/>
</g>
<path id="Vector_11" d="M21.9527 70.5195C19.799 70.5195 19.0177 66.4451 19.0177 63.7333C20.2081 61.8139 23.9846 60.8095 27.5969 60.4971C29.5769 60.6914 27.5651 69.6907 27.3712 70.2058C27.1773 70.7209 23.649 70.9233 21.9527 70.5195Z" fill="white"/>
</g>
</g>
</g>
</g>
</g>
<defs>
<linearGradient id="pump-bcitp-paint0_linear" x1="16" y1="64.5" x2="4" y2="64.5" gradientUnits="userSpaceOnUse">
<stop stop-color="#4F4F4F"/>
<stop offset="0.519337" stop-color="white"/>
<stop offset="1" stop-color="#4F4F4F"/>
</linearGradient>
<linearGradient id="pump-bcitp-paint1_linear" x1="18" y1="67" x2="2" y2="67" gradientUnits="userSpaceOnUse">
<stop stop-color="#4F4F4F"/>
<stop offset="0.491713" stop-color="white"/>
<stop offset="1" stop-color="#4F4F4F"/>
</linearGradient>
<linearGradient id="pump-bcitp-paint2_linear" x1="56" y1="63" x2="36" y2="63" gradientUnits="userSpaceOnUse">
<stop stop-color="#4F4F4F"/>
<stop offset="0.513812" stop-color="white"/>
<stop offset="1" stop-color="#4F4F4F"/>
</linearGradient>
<linearGradient id="pump-bcitp-paint3_linear" x1="40" y1="83" x2="20" y2="83" gradientUnits="userSpaceOnUse">
<stop stop-color="#4F4F4F"/>
<stop offset="0.513812" stop-color="white"/>
<stop offset="1" stop-color="#4F4F4F"/>
</linearGradient>
<radialGradient id="pump-bcitp-paint4_radial" cx="0" cy="0" r="1" gradientUnits="userSpaceOnUse" gradientTransform="translate(17.7952 34.7718) rotate(90.002) scale(18.1149)">
<stop offset="0.872928" stop-color="#828282"/>
<stop offset="1" stop-color="#4F4F4F"/>
</radialGradient>
<linearGradient id="pump-bcitp-paint5_linear" x1="20" y1="6.5" x2="32" y2="6.5" gradientUnits="userSpaceOnUse">
<stop stop-color="#4F4F4F"/>
<stop offset="0.519337" stop-color="white"/>
<stop offset="1" stop-color="#4F4F4F"/>
</linearGradient>
<linearGradient id="pump-bcitp-paint6_linear" x1="18" y1="4" x2="34" y2="4" gradientUnits="userSpaceOnUse">
<stop stop-color="#4F4F4F"/>
<stop offset="0.491713" stop-color="white"/>
<stop offset="1" stop-color="#4F4F4F"/>
</linearGradient>
</defs>
</svg>
