<svg width="59" height="32" viewBox="0 0 59 32" fill="none" xmlns="http://www.w3.org/2000/svg">
<g>
<g id="Group">
<path id="Vector" d="M57 0V32H51V0H57Z" fill="url(#czr-l-status-paint0_linear)"/>
<path id="Vector_2" d="M49 31V27H59V31H49Z" fill="url(#czr-l-status-paint1_linear)"/>
<path id="Vector_3" d="M59 1V5L49 5V1L59 1Z" fill="url(#czr-l-status-paint2_linear)"/>
<path id="Vector_4" d="M43.7109 25.9991V5.99902L51.7559 5.99902V25.9991H43.7109Z" fill="#1E90FF"/>
<path id="Vector_5" d="M41.7002 17.999V13.999C41.7002 9.58075 42.6007 5.99902 43.7114 5.99902C44.8222 5.99902 45.7227 9.58075 45.7227 13.999V17.999C45.7227 22.4173 44.8222 25.9991 43.7114 25.9991C42.6007 25.9991 41.7002 22.4173 41.7002 17.999Z" fill="#007AFF"/>
<path id="Vector_6" d="M27.6211 25.9991V5.99902L43.7111 5.99902V25.9991H27.6211Z" fill="#007AFF"/>
<path id="Vector_7" d="M40.8952 15.3945C40.8952 12.6331 42.1558 10.3945 43.7109 10.3945V20.3945C42.1558 20.3945 40.8952 18.156 40.8952 15.3945Z" fill="white"/>
<path id="Vector_8" d="M41.6997 16.1945C41.6997 13.8749 42.6002 11.9945 43.7109 11.9945V20.3945C42.6002 20.3945 41.6997 18.5141 41.6997 16.1945Z" fill="#007AFF"/>
<path id="Vector_9" d="M25.6104 17.999V13.999C25.6104 9.58075 26.5108 5.99902 27.6216 5.99902C28.7324 5.99902 29.6329 9.58075 29.6329 13.999V17.999C29.6329 22.4173 28.7324 25.9991 27.6216 25.9991C26.5108 25.9991 25.6104 22.4173 25.6104 17.999Z" fill="#007AFF"/>
<path id="Vector_10" d="M49.7451 17.999V13.999C49.7451 9.58075 50.6456 5.99902 51.7564 5.99902C52.8671 5.99902 53.7676 9.58075 53.7676 13.999V17.999C53.7676 22.4173 52.8671 25.9991 51.7564 25.9991C50.6456 25.9991 49.7451 22.4173 49.7451 17.999Z" fill="#1E90FF"/>
<path id="Vector_11" d="M51.3497 15.999C51.3497 18.2082 49.5488 19.999 47.3272 19.999C45.1056 19.999 43.3047 18.2082 43.3047 15.999C43.3047 13.7899 45.1056 11.999 47.3272 11.999C49.5488 11.999 51.3497 13.7899 51.3497 15.999Z" fill="#808080"/>
<path id="Vector_12" d="M34.4659 20.7979C34.4659 21.9024 33.5654 22.7979 32.4546 22.7979C31.3438 22.7979 30.4434 21.9024 30.4434 20.7979C30.4434 19.6933 31.3438 18.7979 32.4546 18.7979C33.5654 18.7979 34.4659 19.6933 34.4659 20.7979Z" fill="url(#czr-l-status-paint3_radial)"/>
<path id="Vector_13" d="M32.8572 20.7945C32.8572 21.0154 32.6771 21.1945 32.455 21.1945C32.2328 21.1945 32.0527 21.0154 32.0527 20.7945C32.0527 20.5736 32.2328 20.3945 32.455 20.3945C32.6771 20.3945 32.8572 20.5736 32.8572 20.7945Z" fill="#DC143C"/>
<path id="Vector_14" d="M38.482 16.0041C38.482 16.4459 38.1219 16.8041 37.6775 16.8041C37.2332 16.8041 36.873 16.4459 36.873 16.0041C36.873 15.5623 37.2332 15.2041 37.6775 15.2041C38.1219 15.2041 38.482 15.5623 38.482 16.0041Z" fill="url(#czr-l-status-paint4_linear)"/>
<path id="Vector_15" d="M38.482 16.0041C38.482 16.4459 38.1219 16.8041 37.6775 16.8041C37.2332 16.8041 36.873 16.4459 36.873 16.0041C36.873 15.5623 37.2332 15.2041 37.6775 15.2041C38.1219 15.2041 38.482 15.5623 38.482 16.0041Z" fill="url(#czr-l-status-paint5_linear)"/>
<path id="Vector_16" d="M51.3569 8.80547C51.3569 9.46821 50.8166 10.0055 50.1501 10.0055C49.4836 10.0055 48.9434 9.46821 48.9434 8.80547C48.9434 8.14273 49.4836 7.60547 50.1501 7.60547C50.8166 7.60547 51.3569 8.14273 51.3569 8.80547Z" fill="url(#czr-l-status-paint6_linear)"/>
<path id="Vector_17" d="M51.3569 8.80547C51.3569 9.46821 50.8166 10.0055 50.1501 10.0055C49.4836 10.0055 48.9434 9.46821 48.9434 8.80547C48.9434 8.14273 49.4836 7.60547 50.1501 7.60547C50.8166 7.60547 51.3569 8.14273 51.3569 8.80547Z" fill="url(#czr-l-status-paint7_linear)"/>
<path id="Vector_18" d="M51.3569 23.2039C51.3569 23.8667 50.8166 24.4039 50.1501 24.4039C49.4836 24.4039 48.9434 23.8667 48.9434 23.2039C48.9434 22.5412 49.4836 22.0039 50.1501 22.0039C50.8166 22.0039 51.3569 22.5412 51.3569 23.2039Z" fill="url(#czr-l-status-paint8_linear)"/>
<path id="Vector_19" d="M51.3569 23.2039C51.3569 23.8667 50.8166 24.4039 50.1501 24.4039C49.4836 24.4039 48.9434 23.8667 48.9434 23.2039C48.9434 22.5412 49.4836 22.0039 50.1501 22.0039C50.8166 22.0039 51.3569 22.5412 51.3569 23.2039Z" fill="url(#czr-l-status-paint9_linear)"/>
</g>
<g class="fault inactive" reference="CZR-L-STATUS">
<g class="animation-hide">
<path id="OFF_2" d="M3.38477 12.7324C3.38477 10.9746 3.70117 9.76758 4.33398 9.11133C4.83203 8.5957 5.55566 8.33789 6.50488 8.33789C7.8877 8.33789 8.77246 8.90625 9.15918 10.043C9.3877 10.7168 9.50195 11.6133 9.50195 12.7324V19.5527C9.50195 21.1641 9.27637 22.3389 8.8252 23.0771C8.37402 23.8096 7.58301 24.1758 6.45215 24.1758C5.32715 24.1758 4.5332 23.8066 4.07031 23.0684C3.61328 22.3301 3.38477 21.1582 3.38477 19.5527V12.7324ZM7.68262 12.627C7.68262 11.6367 7.60352 10.9365 7.44531 10.5264C7.28711 10.1104 6.96777 9.90234 6.4873 9.90234C6.00684 9.90234 5.67285 10.1133 5.48535 10.5352C5.29785 10.957 5.2041 11.6514 5.2041 12.6182V19.5703C5.2041 20.748 5.28613 21.5508 5.4502 21.9785C5.61426 22.4004 5.94531 22.6113 6.44336 22.6113C6.94141 22.6113 7.27246 22.3975 7.43652 21.9697C7.60059 21.5361 7.68262 20.7363 7.68262 19.5703V12.627ZM11.8486 8.53125H16.5068V10.0518H13.6592V14.9385H16.3311V16.4766H13.6592V24H11.8486V8.53125ZM18.4053 8.53125H23.0635V10.0518H20.2158V14.9385H22.8877V16.4766H20.2158V24H18.4053V8.53125Z"/>
<g id="Group_2">
<path id="Vector_20" d="M44.7963 19.335L44.2822 18.8477C43.7143 18.3094 43.6975 17.3997 44.2447 16.8158L47.9604 12.8514C48.5076 12.2675 49.4116 12.2305 49.9795 12.7688L50.4937 13.2561C51.0616 13.7944 51.0783 14.7041 50.5311 15.2879L46.8155 19.2524C46.2682 19.8363 45.3642 19.8733 44.7963 19.335Z" fill="url(#czr-l-status-paint10_radial)"/>
<path id="Vector_21" d="M45.6538 18.4242C45.52 18.5669 45.2965 18.5735 45.1545 18.439C45.0126 18.3044 45.0059 18.0796 45.1397 17.9369L45.8663 17.1616C46.0001 17.0189 46.2236 17.0123 46.3656 17.1468C46.5076 17.2814 46.5142 17.5062 46.3805 17.6489L45.6538 18.4242Z" fill="#CCCCCC"/>
</g>
</g>
<g class="animation-display">
<path id="ON_2" d="M5.48535 12.7324C5.48535 10.9746 5.80176 9.76758 6.43457 9.11133C6.93262 8.5957 7.65625 8.33789 8.60547 8.33789C9.98828 8.33789 10.873 8.90625 11.2598 10.043C11.4883 10.7168 11.6025 11.6133 11.6025 12.7324V19.5527C11.6025 21.1641 11.377 22.3389 10.9258 23.0771C10.4746 23.8096 9.68359 24.1758 8.55273 24.1758C7.42773 24.1758 6.63379 23.8066 6.1709 23.0684C5.71387 22.3301 5.48535 21.1582 5.48535 19.5527V12.7324ZM9.7832 12.627C9.7832 11.6367 9.7041 10.9365 9.5459 10.5264C9.3877 10.1104 9.06836 9.90234 8.58789 9.90234C8.10742 9.90234 7.77344 10.1133 7.58594 10.5352C7.39844 10.957 7.30469 11.6514 7.30469 12.6182V19.5703C7.30469 20.748 7.38672 21.5508 7.55078 21.9785C7.71484 22.4004 8.0459 22.6113 8.54395 22.6113C9.04199 22.6113 9.37305 22.3975 9.53711 21.9697C9.70117 21.5361 9.7832 20.7363 9.7832 19.5703V12.627ZM18.7305 8.53125H20.3389V24H19.0029L15.5312 13.3828L15.6367 17.2852V24H13.958V8.53125H15.3291L18.915 19.0605L18.7305 14.5869V8.53125Z"/>
<g id="Group_3">
<path id="Vector_22" d="M44.1845 13.3657L44.6868 12.8662C45.2416 12.3145 46.1514 12.3246 46.7188 12.8889L50.5717 16.7202C51.1391 17.2844 51.1493 18.1891 50.5945 18.7409L50.0922 19.2404C49.5373 19.7921 48.6276 19.7819 48.0601 19.2177L44.2073 15.3864C43.6398 14.8221 43.6296 13.9174 44.1845 13.3657Z" fill="url(#czr-l-status-paint11_radial)"/>
<path id="Vector_23" d="M45.0652 14.2522C44.9265 14.1142 44.9265 13.8906 45.0653 13.7527C45.204 13.6147 45.4289 13.6147 45.5676 13.7527L46.321 14.5019C46.4597 14.6399 46.4597 14.8635 46.321 15.0014C46.1823 15.1394 45.9574 15.1394 45.8187 15.0014L45.0652 14.2522Z" fill="#CCCCCC"/>
</g>
</g>
</g>
</g>
<defs>
<linearGradient id="czr-l-status-paint0_linear" x1="57" y1="16" x2="51" y2="16" gradientUnits="userSpaceOnUse">
<stop stop-color="#4F4F4F"/>
<stop offset="0.519337" stop-color="white"/>
<stop offset="1" stop-color="#4F4F4F"/>
</linearGradient>
<linearGradient id="czr-l-status-paint1_linear" x1="49" y1="29" x2="59" y2="29" gradientUnits="userSpaceOnUse">
<stop stop-color="#4F4F4F"/>
<stop offset="0.491713" stop-color="white"/>
<stop offset="1" stop-color="#4F4F4F"/>
</linearGradient>
<linearGradient id="czr-l-status-paint2_linear" x1="59" y1="3" x2="49" y2="3" gradientUnits="userSpaceOnUse">
<stop stop-color="#4F4F4F"/>
<stop offset="0.491713" stop-color="white"/>
<stop offset="1" stop-color="#4F4F4F"/>
</linearGradient>
<radialGradient id="czr-l-status-paint3_radial" cx="0" cy="0" r="1" gradientUnits="userSpaceOnUse" gradientTransform="translate(32.4546 20.7979) rotate(90) scale(2 2.01125)">
<stop offset="0.1" stop-color="#0000FF"/>
<stop offset="0.3" stop-color="#1E90FF"/>
<stop offset="0.7" stop-color="#00BFFF"/>
<stop offset="0.9" stop-color="#87CEFA"/>
</radialGradient>
<linearGradient id="czr-l-status-paint4_linear" x1="36.873" y1="15.2041" x2="36.873" y2="95.2042" gradientUnits="userSpaceOnUse">
<stop offset="1" stop-color="white" stop-opacity="0.6"/>
</linearGradient>
<linearGradient id="czr-l-status-paint5_linear" x1="36.873" y1="15.2041" x2="117.323" y2="15.2041" gradientUnits="userSpaceOnUse">
<stop offset="1" stop-color="white" stop-opacity="0.6"/>
</linearGradient>
<linearGradient id="czr-l-status-paint6_linear" x1="48.9434" y1="7.60547" x2="48.9434" y2="127.606" gradientUnits="userSpaceOnUse">
<stop offset="1" stop-color="white" stop-opacity="0.6"/>
</linearGradient>
<linearGradient id="czr-l-status-paint7_linear" x1="48.9434" y1="7.60547" x2="169.619" y2="7.60547" gradientUnits="userSpaceOnUse">
<stop offset="1" stop-color="white" stop-opacity="0.6"/>
</linearGradient>
<linearGradient id="czr-l-status-paint8_linear" x1="48.9434" y1="22.0039" x2="48.9434" y2="142.004" gradientUnits="userSpaceOnUse">
<stop offset="1" stop-color="white" stop-opacity="0.6"/>
</linearGradient>
<linearGradient id="czr-l-status-paint9_linear" x1="48.9434" y1="22.0039" x2="169.619" y2="22.0039" gradientUnits="userSpaceOnUse">
<stop offset="1" stop-color="white" stop-opacity="0.6"/>
</linearGradient>
<radialGradient id="czr-l-status-paint10_radial" cx="0" cy="0" r="1" gradientUnits="userSpaceOnUse" gradientTransform="translate(47.388 16.0518) rotate(43.4656) scale(1.77098 4.16567)">
<stop stop-color="white"/>
<stop offset="1"/>
</radialGradient>
<radialGradient id="czr-l-status-paint11_radial" cx="0" cy="0" r="1" gradientUnits="userSpaceOnUse" gradientTransform="translate(47.3895 16.0533) rotate(135.161) scale(1.77098 4.16567)">
<stop stop-color="white"/>
<stop offset="1"/>
</radialGradient>
</defs>
</svg>
