<svg width="32" height="56" viewBox="0 0 32 56" fill="none" xmlns="http://www.w3.org/2000/svg">
<g>
<g id="Group">
<path id="Vector" d="M0 54L32 54V48L0 48V54Z" fill="url(#czrq-status-paint0_linear)"/>
<path id="Vector_2" d="M31 46H27V56H31V46Z" fill="url(#czrq-status-paint1_linear)"/>
<path id="Vector_3" d="M1 56H5L5 46H1L1 56Z" fill="url(#czrq-status-paint2_linear)"/>
<path id="Vector_4" d="M25.9991 40.7109H5.99902V48.7559H25.9991V40.7109Z" fill="#1E90FF"/>
<path id="Vector_5" d="M17.999 38.7002H13.999C9.58075 38.7002 5.99902 39.6007 5.99902 40.7114C5.99902 41.8222 9.58075 42.7227 13.999 42.7227H17.999C22.4173 42.7227 25.9991 41.8222 25.9991 40.7114C25.9991 39.6007 22.4173 38.7002 17.999 38.7002Z" fill="#007AFF"/>
<path id="Vector_6" d="M25.9991 24.6211H5.99902L5.99902 40.7111H25.9991V24.6211Z" fill="#007AFF"/>
<path id="Vector_7" d="M15.3945 37.8952C12.6331 37.8952 10.3945 39.1558 10.3945 40.7109L20.3945 40.7109C20.3945 39.1558 18.156 37.8952 15.3945 37.8952Z" fill="white"/>
<path id="Vector_8" d="M16.1945 38.6997C13.8749 38.6997 11.9945 39.6002 11.9945 40.7109H20.3945C20.3945 39.6002 18.5141 38.6997 16.1945 38.6997Z" fill="#007AFF"/>
<path id="Vector_9" d="M17.999 22.6104H13.999C9.58075 22.6104 5.99902 23.5108 5.99902 24.6216C5.99902 25.7324 9.58075 26.6329 13.999 26.6329H17.999C22.4173 26.6329 25.9991 25.7324 25.9991 24.6216C25.9991 23.5108 22.4173 22.6104 17.999 22.6104Z" fill="#007AFF"/>
<path id="Vector_10" d="M17.999 46.7451H13.999C9.58075 46.7451 5.99902 47.6456 5.99902 48.7564C5.99902 49.8671 9.58075 50.7676 13.999 50.7676H17.999C22.4173 50.7676 25.9991 49.8671 25.9991 48.7564C25.9991 47.6456 22.4173 46.7451 17.999 46.7451Z" fill="#1E90FF"/>
<path id="Vector_11" d="M15.999 48.3497C18.2082 48.3497 19.999 46.5488 19.999 44.3272C19.999 42.1056 18.2082 40.3047 15.999 40.3047C13.7899 40.3047 11.999 42.1056 11.999 44.3272C11.999 46.5488 13.7899 48.3497 15.999 48.3497Z" fill="#808080"/>
<path id="Vector_12" d="M20.7979 31.4659C21.9024 31.4659 22.7979 30.5654 22.7979 29.4546C22.7979 28.3438 21.9024 27.4434 20.7979 27.4434C19.6933 27.4434 18.7979 28.3438 18.7979 29.4546C18.7979 30.5654 19.6933 31.4659 20.7979 31.4659Z" fill="url(#czrq-status-paint3_radial)"/>
<path id="Vector_13" d="M20.7945 29.8572C21.0154 29.8572 21.1945 29.6771 21.1945 29.455C21.1945 29.2328 21.0154 29.0527 20.7945 29.0527C20.5736 29.0527 20.3945 29.2328 20.3945 29.455C20.3945 29.6771 20.5736 29.8572 20.7945 29.8572Z" fill="#DC143C"/>
<path id="Vector_14" d="M16.0041 35.482C16.4459 35.482 16.8041 35.1219 16.8041 34.6775C16.8041 34.2332 16.4459 33.873 16.0041 33.873C15.5623 33.873 15.2041 34.2332 15.2041 34.6775C15.2041 35.1219 15.5623 35.482 16.0041 35.482Z" fill="url(#czrq-status-paint4_linear)"/>
<path id="Vector_15" d="M16.0041 35.482C16.4459 35.482 16.8041 35.1219 16.8041 34.6775C16.8041 34.2332 16.4459 33.873 16.0041 33.873C15.5623 33.873 15.2041 34.2332 15.2041 34.6775C15.2041 35.1219 15.5623 35.482 16.0041 35.482Z" fill="url(#czrq-status-paint5_linear)"/>
<path id="Vector_16" d="M8.80547 48.3569C9.46821 48.3569 10.0055 47.8166 10.0055 47.1501C10.0055 46.4836 9.46821 45.9434 8.80547 45.9434C8.14273 45.9434 7.60547 46.4836 7.60547 47.1501C7.60547 47.8166 8.14273 48.3569 8.80547 48.3569Z" fill="url(#czrq-status-paint6_linear)"/>
<path id="Vector_17" d="M8.80547 48.3569C9.46821 48.3569 10.0055 47.8166 10.0055 47.1501C10.0055 46.4836 9.46821 45.9434 8.80547 45.9434C8.14273 45.9434 7.60547 46.4836 7.60547 47.1501C7.60547 47.8166 8.14273 48.3569 8.80547 48.3569Z" fill="url(#czrq-status-paint7_linear)"/>
<path id="Vector_18" d="M23.2039 48.3569C23.8667 48.3569 24.4039 47.8166 24.4039 47.1501C24.4039 46.4836 23.8667 45.9434 23.2039 45.9434C22.5412 45.9434 22.0039 46.4836 22.0039 47.1501C22.0039 47.8166 22.5412 48.3569 23.2039 48.3569Z" fill="url(#czrq-status-paint8_linear)"/>
<path id="Vector_19" d="M23.2039 48.3569C23.8667 48.3569 24.4039 47.8166 24.4039 47.1501C24.4039 46.4836 23.8667 45.9434 23.2039 45.9434C22.5412 45.9434 22.0039 46.4836 22.0039 47.1501C22.0039 47.8166 22.5412 48.3569 23.2039 48.3569Z" fill="url(#czrq-status-paint9_linear)"/>
</g>
<g class="fault hide" reference="CZR-STATUS">
<g class="animation-hide">
<path id="OFF_2" d="M6.38477 6.73242C6.38477 4.97461 6.70117 3.76758 7.33398 3.11133C7.83203 2.5957 8.55566 2.33789 9.50488 2.33789C10.8877 2.33789 11.7725 2.90625 12.1592 4.04297C12.3877 4.7168 12.502 5.61328 12.502 6.73242V13.5527C12.502 15.1641 12.2764 16.3389 11.8252 17.0771C11.374 17.8096 10.583 18.1758 9.45215 18.1758C8.32715 18.1758 7.5332 17.8066 7.07031 17.0684C6.61328 16.3301 6.38477 15.1582 6.38477 13.5527V6.73242ZM10.6826 6.62695C10.6826 5.63672 10.6035 4.93652 10.4453 4.52637C10.2871 4.11035 9.96777 3.90234 9.4873 3.90234C9.00684 3.90234 8.67285 4.11328 8.48535 4.53516C8.29785 4.95703 8.2041 5.65137 8.2041 6.61816V13.5703C8.2041 14.748 8.28613 15.5508 8.4502 15.9785C8.61426 16.4004 8.94531 16.6113 9.44336 16.6113C9.94141 16.6113 10.2725 16.3975 10.4365 15.9697C10.6006 15.5361 10.6826 14.7363 10.6826 13.5703V6.62695ZM14.8486 2.53125L19.5068 2.53125V4.05176H16.6592V8.93848H19.3311V10.4766H16.6592V18H14.8486V2.53125ZM21.4053 2.53125H26.0635V4.05176H23.2158V8.93848L25.8877 8.93848V10.4766L23.2158 10.4766V18H21.4053V2.53125Z"/>
<g id="Group_2">
<path id="Vector_20" d="M19.335 41.7963L18.8477 41.2822C18.3094 40.7143 17.3997 40.6975 16.8158 41.2447L12.8514 44.9604C12.2675 45.5076 12.2305 46.4116 12.7688 46.9795L13.2561 47.4937C13.7944 48.0616 14.7041 48.0783 15.2879 47.5311L19.2524 43.8155C19.8363 43.2682 19.8733 42.3642 19.335 41.7963Z" fill="url(#czrq-status-paint10_radial)"/>
<path id="Vector_21" d="M18.4242 42.6538C18.5669 42.52 18.5735 42.2965 18.439 42.1545C18.3044 42.0126 18.0796 42.0059 17.9369 42.1397L17.1616 42.8663C17.0189 43.0001 17.0123 43.2236 17.1468 43.3656C17.2814 43.5076 17.5062 43.5142 17.6489 43.3805L18.4242 42.6538Z" fill="#CCCCCC"/>
</g>
</g>
<g class="animation-display">
<path id="ON_2" d="M8.48535 6.73242C8.48535 4.97461 8.80176 3.76758 9.43457 3.11133C9.93262 2.5957 10.6562 2.33789 11.6055 2.33789C12.9883 2.33789 13.873 2.90625 14.2598 4.04297C14.4883 4.7168 14.6025 5.61328 14.6025 6.73242V13.5527C14.6025 15.1641 14.377 16.3389 13.9258 17.0771C13.4746 17.8096 12.6836 18.1758 11.5527 18.1758C10.4277 18.1758 9.63379 17.8066 9.1709 17.0684C8.71387 16.3301 8.48535 15.1582 8.48535 13.5527V6.73242ZM12.7832 6.62695C12.7832 5.63672 12.7041 4.93652 12.5459 4.52637C12.3877 4.11035 12.0684 3.90234 11.5879 3.90234C11.1074 3.90234 10.7734 4.11328 10.5859 4.53516C10.3984 4.95703 10.3047 5.65137 10.3047 6.61816V13.5703C10.3047 14.748 10.3867 15.5508 10.5508 15.9785C10.7148 16.4004 11.0459 16.6113 11.5439 16.6113C12.042 16.6113 12.373 16.3975 12.5371 15.9697C12.7012 15.5361 12.7832 14.7363 12.7832 13.5703V6.62695ZM21.7305 2.53125H23.3389V18H22.0029L18.5312 7.38281L18.6367 11.2852V18H16.958V2.53125H18.3291L21.915 13.0605L21.7305 8.58691V2.53125Z"/>
<g id="Group_3">
<path id="Vector_22" d="M13.3657 41.1845L12.8662 41.6868C12.3145 42.2416 12.3246 43.1514 12.8889 43.7188L16.7202 47.5717C17.2844 48.1391 18.1891 48.1493 18.7409 47.5945L19.2404 47.0922C19.7921 46.5373 19.7819 45.6276 19.2177 45.0601L15.3864 41.2073C14.8221 40.6398 13.9174 40.6296 13.3657 41.1845Z" fill="url(#czrq-status-paint11_radial)"/>
<path id="Vector_23" d="M14.2522 42.0652C14.1142 41.9265 13.8906 41.9265 13.7527 42.0653C13.6147 42.204 13.6147 42.4289 13.7527 42.5676L14.5019 43.321C14.6399 43.4597 14.8635 43.4597 15.0014 43.321C15.1394 43.1823 15.1394 42.9574 15.0014 42.8187L14.2522 42.0652Z" fill="#CCCCCC"/>
</g>
</g>
</g>
</g>
<defs>
<linearGradient id="czrq-status-paint0_linear" x1="16" y1="54" x2="16" y2="48" gradientUnits="userSpaceOnUse">
<stop stop-color="#4F4F4F"/>
<stop offset="0.519337" stop-color="white"/>
<stop offset="1" stop-color="#4F4F4F"/>
</linearGradient>
<linearGradient id="czrq-status-paint1_linear" x1="29" y1="46" x2="29" y2="56" gradientUnits="userSpaceOnUse">
<stop stop-color="#4F4F4F"/>
<stop offset="0.491713" stop-color="white"/>
<stop offset="1" stop-color="#4F4F4F"/>
</linearGradient>
<linearGradient id="czrq-status-paint2_linear" x1="3" y1="56" x2="3" y2="46" gradientUnits="userSpaceOnUse">
<stop stop-color="#4F4F4F"/>
<stop offset="0.491713" stop-color="white"/>
<stop offset="1" stop-color="#4F4F4F"/>
</linearGradient>
<radialGradient id="czrq-status-paint3_radial" cx="0" cy="0" r="1" gradientUnits="userSpaceOnUse" gradientTransform="translate(20.7979 29.4546) scale(2 2.01125)">
<stop offset="0.1" stop-color="#0000FF"/>
<stop offset="0.3" stop-color="#1E90FF"/>
<stop offset="0.7" stop-color="#00BFFF"/>
<stop offset="0.9" stop-color="#87CEFA"/>
</radialGradient>
<linearGradient id="czrq-status-paint4_linear" x1="15.2041" y1="33.873" x2="95.2042" y2="33.873" gradientUnits="userSpaceOnUse">
<stop offset="1" stop-color="white" stop-opacity="0.6"/>
</linearGradient>
<linearGradient id="czrq-status-paint5_linear" x1="15.2041" y1="33.873" x2="15.2041" y2="114.323" gradientUnits="userSpaceOnUse">
<stop offset="1" stop-color="white" stop-opacity="0.6"/>
</linearGradient>
<linearGradient id="czrq-status-paint6_linear" x1="7.60547" y1="45.9434" x2="127.606" y2="45.9434" gradientUnits="userSpaceOnUse">
<stop offset="1" stop-color="white" stop-opacity="0.6"/>
</linearGradient>
<linearGradient id="czrq-status-paint7_linear" x1="7.60547" y1="45.9434" x2="7.60547" y2="166.619" gradientUnits="userSpaceOnUse">
<stop offset="1" stop-color="white" stop-opacity="0.6"/>
</linearGradient>
<linearGradient id="czrq-status-paint8_linear" x1="22.0039" y1="45.9434" x2="142.004" y2="45.9434" gradientUnits="userSpaceOnUse">
<stop offset="1" stop-color="white" stop-opacity="0.6"/>
</linearGradient>
<linearGradient id="czrq-status-paint9_linear" x1="22.0039" y1="45.9434" x2="22.0039" y2="166.619" gradientUnits="userSpaceOnUse">
<stop offset="1" stop-color="white" stop-opacity="0.6"/>
</linearGradient>
<radialGradient id="czrq-status-paint10_radial" cx="0" cy="0" r="1" gradientUnits="userSpaceOnUse" gradientTransform="translate(16.0518 44.388) rotate(46.5344) scale(1.77098 4.16567)">
<stop stop-color="white"/>
<stop offset="1"/>
</radialGradient>
<radialGradient id="czrq-status-paint11_radial" cx="0" cy="0" r="1" gradientUnits="userSpaceOnUse" gradientTransform="translate(16.0533 44.3895) rotate(-45.1607) scale(1.77098 4.16567)">
<stop stop-color="white"/>
<stop offset="1"/>
</radialGradient>
</defs>
</svg>
