<svg width="57" height="35" viewBox="0 0 57 35" fill="none" xmlns="http://www.w3.org/2000/svg">
<g>
<g id="Group">
<path id="Vector" d="M0 33L32 33V27L0 27V33Z" fill="url(#cczzrr-paint0_linear)"/>
<path id="Vector_2" d="M31 25H27V35H31V25Z" fill="url(#cczzrr-paint1_linear)"/>
<path id="Vector_3" d="M1 35H5L5 25H1L1 35Z" fill="url(#cczzrr-paint2_linear)"/>
<path id="Vector_4" d="M25.9991 19.7109H5.99902V27.7559H25.9991V19.7109Z" fill="#1E90FF"/>
<path id="Vector_5" d="M17.999 17.7002H13.999C9.58075 17.7002 5.99902 18.6007 5.99902 19.7114C5.99902 20.8222 9.58075 21.7227 13.999 21.7227H17.999C22.4173 21.7227 25.9991 20.8222 25.9991 19.7114C25.9991 18.6007 22.4173 17.7002 17.999 17.7002Z" fill="#007AFF"/>
<path id="Vector_6" d="M25.9991 3.62109L5.99902 3.62109L5.99902 19.7111H25.9991V3.62109Z" fill="#007AFF"/>
<path id="Vector_7" d="M15.3945 16.8952C12.6331 16.8952 10.3945 18.1558 10.3945 19.7109L20.3945 19.7109C20.3945 18.1558 18.156 16.8952 15.3945 16.8952Z" fill="white"/>
<path id="Vector_8" d="M16.1945 17.6997C13.8749 17.6997 11.9945 18.6002 11.9945 19.7109H20.3945C20.3945 18.6002 18.5141 17.6997 16.1945 17.6997Z" fill="#007AFF"/>
<path id="Vector_9" d="M17.999 1.61035L13.999 1.61035C9.58075 1.61035 5.99902 2.51082 5.99902 3.6216C5.99902 4.73238 9.58075 5.63285 13.999 5.63285H17.999C22.4173 5.63285 25.9991 4.73238 25.9991 3.6216C25.9991 2.51082 22.4173 1.61035 17.999 1.61035Z" fill="#007AFF"/>
<path id="Vector_10" d="M17.999 25.7451H13.999C9.58075 25.7451 5.99902 26.6456 5.99902 27.7564C5.99902 28.8671 9.58075 29.7676 13.999 29.7676H17.999C22.4173 29.7676 25.9991 28.8671 25.9991 27.7564C25.9991 26.6456 22.4173 25.7451 17.999 25.7451Z" fill="#1E90FF"/>
<path id="Vector_11" d="M15.999 27.3497C18.2082 27.3497 19.999 25.5488 19.999 23.3272C19.999 21.1056 18.2082 19.3047 15.999 19.3047C13.7899 19.3047 11.999 21.1056 11.999 23.3272C11.999 25.5488 13.7899 27.3497 15.999 27.3497Z" fill="#808080"/>
<path id="Vector_12" d="M20.7979 10.4659C21.9024 10.4659 22.7979 9.56539 22.7979 8.45461C22.7979 7.34383 21.9024 6.44336 20.7979 6.44336C19.6933 6.44336 18.7979 7.34383 18.7979 8.45461C18.7979 9.56539 19.6933 10.4659 20.7979 10.4659Z" fill="url(#cczzrr-paint3_radial)"/>
<path id="Vector_13" d="M20.7945 8.85724C21.0154 8.85724 21.1945 8.67714 21.1945 8.45498C21.1945 8.23283 21.0154 8.05273 20.7945 8.05273C20.5736 8.05273 20.3945 8.23283 20.3945 8.45498C20.3945 8.67714 20.5736 8.85724 20.7945 8.85724Z" fill="#DC143C"/>
<path id="Vector_14" d="M16.0041 14.482C16.4459 14.482 16.8041 14.1219 16.8041 13.6775C16.8041 13.2332 16.4459 12.873 16.0041 12.873C15.5623 12.873 15.2041 13.2332 15.2041 13.6775C15.2041 14.1219 15.5623 14.482 16.0041 14.482Z" fill="url(#cczzrr-paint4_linear)"/>
<path id="Vector_15" d="M16.0041 14.482C16.4459 14.482 16.8041 14.1219 16.8041 13.6775C16.8041 13.2332 16.4459 12.873 16.0041 12.873C15.5623 12.873 15.2041 13.2332 15.2041 13.6775C15.2041 14.1219 15.5623 14.482 16.0041 14.482Z" fill="url(#cczzrr-paint5_linear)"/>
<path id="Vector_16" d="M8.80547 27.3569C9.46821 27.3569 10.0055 26.8166 10.0055 26.1501C10.0055 25.4836 9.46821 24.9434 8.80547 24.9434C8.14273 24.9434 7.60547 25.4836 7.60547 26.1501C7.60547 26.8166 8.14273 27.3569 8.80547 27.3569Z" fill="url(#cczzrr-paint6_linear)"/>
<path id="Vector_17" d="M8.80547 27.3569C9.46821 27.3569 10.0055 26.8166 10.0055 26.1501C10.0055 25.4836 9.46821 24.9434 8.80547 24.9434C8.14273 24.9434 7.60547 25.4836 7.60547 26.1501C7.60547 26.8166 8.14273 27.3569 8.80547 27.3569Z" fill="url(#cczzrr-paint7_linear)"/>
<path id="Vector_18" d="M23.2039 27.3569C23.8667 27.3569 24.4039 26.8166 24.4039 26.1501C24.4039 25.4836 23.8667 24.9434 23.2039 24.9434C22.5412 24.9434 22.0039 25.4836 22.0039 26.1501C22.0039 26.8166 22.5412 27.3569 23.2039 27.3569Z" fill="url(#cczzrr-paint8_linear)"/>
<path id="Vector_19" d="M23.2039 27.3569C23.8667 27.3569 24.4039 26.8166 24.4039 26.1501C24.4039 25.4836 23.8667 24.9434 23.2039 24.9434C22.5412 24.9434 22.0039 25.4836 22.0039 26.1501C22.0039 26.8166 22.5412 27.3569 23.2039 27.3569Z" fill="url(#cczzrr-paint9_linear)"/>
</g>
<g class="fault inactive" reference="CZR-STATUS">
<g class="animation-hide">
<path id="OFF_2" d="M34.3848 11.7324C34.3848 9.97461 34.7012 8.76758 35.334 8.11133C35.832 7.5957 36.5557 7.33789 37.5049 7.33789C38.8877 7.33789 39.7725 7.90625 40.1592 9.04297C40.3877 9.7168 40.502 10.6133 40.502 11.7324V18.5527C40.502 20.1641 40.2764 21.3389 39.8252 22.0771C39.374 22.8096 38.583 23.1758 37.4521 23.1758C36.3271 23.1758 35.5332 22.8066 35.0703 22.0684C34.6133 21.3301 34.3848 20.1582 34.3848 18.5527V11.7324ZM38.6826 11.627C38.6826 10.6367 38.6035 9.93652 38.4453 9.52637C38.2871 9.11035 37.9678 8.90234 37.4873 8.90234C37.0068 8.90234 36.6729 9.11328 36.4854 9.53516C36.2979 9.95703 36.2041 10.6514 36.2041 11.6182V18.5703C36.2041 19.748 36.2861 20.5508 36.4502 20.9785C36.6143 21.4004 36.9453 21.6113 37.4434 21.6113C37.9414 21.6113 38.2725 21.3975 38.4365 20.9697C38.6006 20.5361 38.6826 19.7363 38.6826 18.5703V11.627ZM42.8486 7.53125L47.5068 7.53125V9.05176H44.6592V13.9385H47.3311V15.4766H44.6592V23H42.8486V7.53125ZM49.4053 7.53125H54.0635V9.05176H51.2158V13.9385L53.8877 13.9385V15.4766L51.2158 15.4766V23H49.4053V7.53125Z"/>
<g id="Group_2">
<path id="Vector_20" d="M19.335 20.7963L18.8477 20.2822C18.3094 19.7143 17.3997 19.6975 16.8158 20.2447L12.8514 23.9604C12.2675 24.5076 12.2305 25.4116 12.7688 25.9795L13.2561 26.4937C13.7944 27.0616 14.7041 27.0783 15.2879 26.5311L19.2524 22.8155C19.8363 22.2682 19.8733 21.3642 19.335 20.7963Z" fill="url(#cczzrr-paint10_radial)"/>
<path id="Vector_21" d="M18.4242 21.6538C18.5669 21.52 18.5735 21.2965 18.439 21.1545C18.3044 21.0126 18.0796 21.0059 17.9369 21.1397L17.1616 21.8663C17.0189 22.0001 17.0123 22.2236 17.1468 22.3656C17.2814 22.5076 17.5062 22.5142 17.6489 22.3805L18.4242 21.6538Z" fill="#CCCCCC"/>
</g>
</g>
<g class="animation-display">
<path id="ON_2" d="M36.4854 11.7324C36.4854 9.97461 36.8018 8.76758 37.4346 8.11133C37.9326 7.5957 38.6562 7.33789 39.6055 7.33789C40.9883 7.33789 41.873 7.90625 42.2598 9.04297C42.4883 9.7168 42.6025 10.6133 42.6025 11.7324V18.5527C42.6025 20.1641 42.377 21.3389 41.9258 22.0771C41.4746 22.8096 40.6836 23.1758 39.5527 23.1758C38.4277 23.1758 37.6338 22.8066 37.1709 22.0684C36.7139 21.3301 36.4854 20.1582 36.4854 18.5527V11.7324ZM40.7832 11.627C40.7832 10.6367 40.7041 9.93652 40.5459 9.52637C40.3877 9.11035 40.0684 8.90234 39.5879 8.90234C39.1074 8.90234 38.7734 9.11328 38.5859 9.53516C38.3984 9.95703 38.3047 10.6514 38.3047 11.6182V18.5703C38.3047 19.748 38.3867 20.5508 38.5508 20.9785C38.7148 21.4004 39.0459 21.6113 39.5439 21.6113C40.042 21.6113 40.373 21.3975 40.5371 20.9697C40.7012 20.5361 40.7832 19.7363 40.7832 18.5703V11.627ZM49.7305 7.53125H51.3389V23H50.0029L46.5312 12.3828L46.6367 16.2852V23H44.958V7.53125H46.3291L49.915 18.0605L49.7305 13.5869V7.53125Z"/>
<g id="Group_3">
<path id="Vector_22" d="M13.3657 20.1845L12.8662 20.6868C12.3145 21.2416 12.3246 22.1514 12.8889 22.7188L16.7202 26.5717C17.2844 27.1391 18.1891 27.1493 18.7409 26.5945L19.2404 26.0922C19.7921 25.5373 19.7819 24.6276 19.2177 24.0601L15.3864 20.2073C14.8221 19.6398 13.9174 19.6296 13.3657 20.1845Z" fill="url(#cczzrr-paint11_radial)"/>
<path id="Vector_23" d="M14.2522 21.0652C14.1142 20.9265 13.8906 20.9265 13.7527 21.0653C13.6147 21.204 13.6147 21.4289 13.7527 21.5676L14.5019 22.321C14.6399 22.4597 14.8635 22.4597 15.0014 22.321C15.1394 22.1823 15.1394 21.9574 15.0014 21.8187L14.2522 21.0652Z" fill="#CCCCCC"/>
</g>
</g>
</g>
</g>
<defs>
<linearGradient id="cczzrr-paint0_linear" x1="16" y1="33" x2="16" y2="27" gradientUnits="userSpaceOnUse">
<stop stop-color="#4F4F4F"/>
<stop offset="0.519337" stop-color="white"/>
<stop offset="1" stop-color="#4F4F4F"/>
</linearGradient>
<linearGradient id="cczzrr-paint1_linear" x1="29" y1="25" x2="29" y2="35" gradientUnits="userSpaceOnUse">
<stop stop-color="#4F4F4F"/>
<stop offset="0.491713" stop-color="white"/>
<stop offset="1" stop-color="#4F4F4F"/>
</linearGradient>
<linearGradient id="cczzrr-paint2_linear" x1="3" y1="35" x2="3" y2="25" gradientUnits="userSpaceOnUse">
<stop stop-color="#4F4F4F"/>
<stop offset="0.491713" stop-color="white"/>
<stop offset="1" stop-color="#4F4F4F"/>
</linearGradient>
<radialGradient id="cczzrr-paint3_radial" cx="0" cy="0" r="1" gradientUnits="userSpaceOnUse" gradientTransform="translate(20.7979 8.45461) scale(2 2.01125)">
<stop offset="0.1" stop-color="#0000FF"/>
<stop offset="0.3" stop-color="#1E90FF"/>
<stop offset="0.7" stop-color="#00BFFF"/>
<stop offset="0.9" stop-color="#87CEFA"/>
</radialGradient>
<linearGradient id="cczzrr-paint4_linear" x1="15.2041" y1="12.873" x2="95.2042" y2="12.873" gradientUnits="userSpaceOnUse">
<stop offset="1" stop-color="white" stop-opacity="0.6"/>
</linearGradient>
<linearGradient id="cczzrr-paint5_linear" x1="15.2041" y1="12.873" x2="15.2041" y2="93.3231" gradientUnits="userSpaceOnUse">
<stop offset="1" stop-color="white" stop-opacity="0.6"/>
</linearGradient>
<linearGradient id="cczzrr-paint6_linear" x1="7.60547" y1="24.9434" x2="127.606" y2="24.9434" gradientUnits="userSpaceOnUse">
<stop offset="1" stop-color="white" stop-opacity="0.6"/>
</linearGradient>
<linearGradient id="cczzrr-paint7_linear" x1="7.60547" y1="24.9434" x2="7.60547" y2="145.619" gradientUnits="userSpaceOnUse">
<stop offset="1" stop-color="white" stop-opacity="0.6"/>
</linearGradient>
<linearGradient id="cczzrr-paint8_linear" x1="22.0039" y1="24.9434" x2="142.004" y2="24.9434" gradientUnits="userSpaceOnUse">
<stop offset="1" stop-color="white" stop-opacity="0.6"/>
</linearGradient>
<linearGradient id="cczzrr-paint9_linear" x1="22.0039" y1="24.9434" x2="22.0039" y2="145.619" gradientUnits="userSpaceOnUse">
<stop offset="1" stop-color="white" stop-opacity="0.6"/>
</linearGradient>
<radialGradient id="cczzrr-paint10_radial" cx="0" cy="0" r="1" gradientUnits="userSpaceOnUse" gradientTransform="translate(16.0518 23.388) rotate(46.5344) scale(1.77098 4.16567)">
<stop stop-color="white"/>
<stop offset="1"/>
</radialGradient>
<radialGradient id="cczzrr-paint11_radial" cx="0" cy="0" r="1" gradientUnits="userSpaceOnUse" gradientTransform="translate(16.0533 23.3895) rotate(-45.1607) scale(1.77098 4.16567)">
<stop stop-color="white"/>
<stop offset="1"/>
</radialGradient>
</defs>
</svg>
