<svg width="59" height="32" viewBox="0 0 59 32" fill="none" xmlns="http://www.w3.org/2000/svg">
<g>
<g id="Group">
<path id="Vector" d="M2 0L2 32H8L8 0H2Z" fill="url(#czr-status-paint0_linear)"/>
<path id="Vector_2" d="M10 31V27H0V31H10Z" fill="url(#czr-status-paint1_linear)"/>
<path id="Vector_3" d="M0 1L0 5L10 5V1L0 1Z" fill="url(#czr-status-paint2_linear)"/>
<path id="Vector_4" d="M15.2891 25.9991L15.2891 5.99902L7.24406 5.99902L7.24406 25.9991H15.2891Z" fill="#1E90FF"/>
<path id="Vector_5" d="M17.2998 17.999V13.999C17.2998 9.58075 16.3993 5.99902 15.2886 5.99902C14.1778 5.99902 13.2773 9.58075 13.2773 13.999V17.999C13.2773 22.4173 14.1778 25.9991 15.2886 25.9991C16.3993 25.9991 17.2998 22.4173 17.2998 17.999Z" fill="#007AFF"/>
<path id="Vector_6" d="M31.3789 25.9991V5.99902L15.2889 5.99902V25.9991H31.3789Z" fill="#007AFF"/>
<path id="Vector_7" d="M18.1048 15.3945C18.1048 12.6331 16.8442 10.3945 15.2891 10.3945L15.2891 20.3945C16.8442 20.3945 18.1048 18.156 18.1048 15.3945Z" fill="white"/>
<path id="Vector_8" d="M17.3003 16.1945C17.3003 13.8749 16.3998 11.9945 15.2891 11.9945V20.3945C16.3998 20.3945 17.3003 18.5141 17.3003 16.1945Z" fill="#007AFF"/>
<path id="Vector_9" d="M33.3896 17.999V13.999C33.3896 9.58075 32.4892 5.99902 31.3784 5.99902C30.2676 5.99902 29.3671 9.58075 29.3671 13.999V17.999C29.3671 22.4173 30.2676 25.9991 31.3784 25.9991C32.4892 25.9991 33.3896 22.4173 33.3896 17.999Z" fill="#007AFF"/>
<path id="Vector_10" d="M9.25488 17.999V13.999C9.25488 9.58075 8.35442 5.99902 7.24363 5.99902C6.13285 5.99902 5.23238 9.58075 5.23238 13.999V17.999C5.23238 22.4173 6.13285 25.9991 7.24363 25.9991C8.35442 25.9991 9.25488 22.4173 9.25488 17.999Z" fill="#1E90FF"/>
<path id="Vector_11" d="M7.65031 15.999C7.65031 18.2082 9.45125 19.999 11.6728 19.999C13.8944 19.999 15.6953 18.2082 15.6953 15.999C15.6953 13.7899 13.8944 11.999 11.6728 11.999C9.45125 11.999 7.65031 13.7899 7.65031 15.999Z" fill="#808080"/>
<path id="Vector_12" d="M24.5341 20.7979C24.5341 21.9024 25.4346 22.7979 26.5454 22.7979C27.6562 22.7979 28.5566 21.9024 28.5566 20.7979C28.5566 19.6933 27.6562 18.7979 26.5454 18.7979C25.4346 18.7979 24.5341 19.6933 24.5341 20.7979Z" fill="url(#paint3_radial)"/>
<path id="Vector_13" d="M26.1428 20.7945C26.1428 21.0154 26.3229 21.1945 26.545 21.1945C26.7672 21.1945 26.9473 21.0154 26.9473 20.7945C26.9473 20.5736 26.7672 20.3945 26.545 20.3945C26.3229 20.3945 26.1428 20.5736 26.1428 20.7945Z" fill="#DC143C"/>
<path id="Vector_14" d="M20.518 16.0041C20.518 16.4459 20.8781 16.8041 21.3225 16.8041C21.7668 16.8041 22.127 16.4459 22.127 16.0041C22.127 15.5623 21.7668 15.2041 21.3225 15.2041C20.8781 15.2041 20.518 15.5623 20.518 16.0041Z" fill="url(#czr-status-paint4_linear)"/>
<path id="Vector_15" d="M20.518 16.0041C20.518 16.4459 20.8781 16.8041 21.3225 16.8041C21.7668 16.8041 22.127 16.4459 22.127 16.0041C22.127 15.5623 21.7668 15.2041 21.3225 15.2041C20.8781 15.2041 20.518 15.5623 20.518 16.0041Z" fill="url(#czr-status-paint5_linear)"/>
<path id="Vector_16" d="M7.64314 8.80547C7.64314 9.46821 8.18342 10.0055 8.84989 10.0055C9.51636 10.0055 10.0566 9.46821 10.0566 8.80547C10.0566 8.14273 9.51636 7.60547 8.84989 7.60547C8.18342 7.60547 7.64314 8.14273 7.64314 8.80547Z" fill="url(#czr-status-paint6_linear)"/>
<path id="Vector_17" d="M7.64314 8.80547C7.64314 9.46821 8.18342 10.0055 8.84989 10.0055C9.51636 10.0055 10.0566 9.46821 10.0566 8.80547C10.0566 8.14273 9.51636 7.60547 8.84989 7.60547C8.18342 7.60547 7.64314 8.14273 7.64314 8.80547Z" fill="url(#czr-status-paint7_linear)"/>
<path id="Vector_18" d="M7.64314 23.2039C7.64314 23.8667 8.18342 24.4039 8.84989 24.4039C9.51636 24.4039 10.0566 23.8667 10.0566 23.2039C10.0566 22.5412 9.51636 22.0039 8.84989 22.0039C8.18342 22.0039 7.64314 22.5412 7.64314 23.2039Z" fill="url(#czr-status-paint8_linear)"/>
<path id="Vector_19" d="M7.64314 23.2039C7.64314 23.8667 8.18342 24.4039 8.84989 24.4039C9.51636 24.4039 10.0566 23.8667 10.0566 23.2039C10.0566 22.5412 9.51636 22.0039 8.84989 22.0039C8.18342 22.0039 7.64314 22.5412 7.64314 23.2039Z" fill="url(#czr-status-paint9_linear)"/>
</g>
<g class="fault inactive" reference="CZR-R-STATUS">
<g class="animation-hide">
<path id="OFF_2" d="M36.3848 12.7324C36.3848 10.9746 36.7012 9.76758 37.334 9.11133C37.832 8.5957 38.5557 8.33789 39.5049 8.33789C40.8877 8.33789 41.7725 8.90625 42.1592 10.043C42.3877 10.7168 42.502 11.6133 42.502 12.7324V19.5527C42.502 21.1641 42.2764 22.3389 41.8252 23.0771C41.374 23.8096 40.583 24.1758 39.4521 24.1758C38.3271 24.1758 37.5332 23.8066 37.0703 23.0684C36.6133 22.3301 36.3848 21.1582 36.3848 19.5527V12.7324ZM40.6826 12.627C40.6826 11.6367 40.6035 10.9365 40.4453 10.5264C40.2871 10.1104 39.9678 9.90234 39.4873 9.90234C39.0068 9.90234 38.6729 10.1133 38.4854 10.5352C38.2979 10.957 38.2041 11.6514 38.2041 12.6182V19.5703C38.2041 20.748 38.2861 21.5508 38.4502 21.9785C38.6143 22.4004 38.9453 22.6113 39.4434 22.6113C39.9414 22.6113 40.2725 22.3975 40.4365 21.9697C40.6006 21.5361 40.6826 20.7363 40.6826 19.5703V12.627ZM44.8486 8.53125H49.5068V10.0518H46.6592V14.9385H49.3311V16.4766H46.6592V24H44.8486V8.53125ZM51.4053 8.53125H56.0635V10.0518H53.2158V14.9385H55.8877V16.4766H53.2158V24H51.4053V8.53125Z"/>
<g id="Group_2">
<path id="Vector_20" d="M14.2037 19.335L14.7178 18.8477C15.2857 18.3094 15.3025 17.3997 14.7553 16.8158L11.0396 12.8514C10.4924 12.2675 9.58838 12.2305 9.02047 12.7688L8.50633 13.2561C7.93843 13.7944 7.92167 14.7041 8.46889 15.2879L12.1845 19.2524C12.7318 19.8363 13.6358 19.8733 14.2037 19.335Z" fill="url(#czr-status-paint10_radial)"/>
<path id="Vector_21" d="M13.3462 18.4242C13.48 18.5669 13.7035 18.5735 13.8455 18.439C13.9874 18.3044 13.9941 18.0796 13.8603 17.9369L13.1337 17.1616C12.9999 17.0189 12.7764 17.0123 12.6344 17.1468C12.4924 17.2814 12.4858 17.5062 12.6195 17.6489L13.3462 18.4242Z" fill="#CCCCCC"/>
</g>
</g>
<g class="animation-display">
<path id="ON_2" d="M38.4854 12.7324C38.4854 10.9746 38.8018 9.76758 39.4346 9.11133C39.9326 8.5957 40.6562 8.33789 41.6055 8.33789C42.9883 8.33789 43.873 8.90625 44.2598 10.043C44.4883 10.7168 44.6025 11.6133 44.6025 12.7324V19.5527C44.6025 21.1641 44.377 22.3389 43.9258 23.0771C43.4746 23.8096 42.6836 24.1758 41.5527 24.1758C40.4277 24.1758 39.6338 23.8066 39.1709 23.0684C38.7139 22.3301 38.4854 21.1582 38.4854 19.5527V12.7324ZM42.7832 12.627C42.7832 11.6367 42.7041 10.9365 42.5459 10.5264C42.3877 10.1104 42.0684 9.90234 41.5879 9.90234C41.1074 9.90234 40.7734 10.1133 40.5859 10.5352C40.3984 10.957 40.3047 11.6514 40.3047 12.6182V19.5703C40.3047 20.748 40.3867 21.5508 40.5508 21.9785C40.7148 22.4004 41.0459 22.6113 41.5439 22.6113C42.042 22.6113 42.373 22.3975 42.5371 21.9697C42.7012 21.5361 42.7832 20.7363 42.7832 19.5703V12.627ZM51.7305 8.53125H53.3389V24H52.0029L48.5312 13.3828L48.6367 17.2852V24H46.958V8.53125H48.3291L51.915 19.0605L51.7305 14.5869V8.53125Z"/>
<g id="Group_3">
<path id="Vector_22" d="M14.8155 13.3657L14.3132 12.8662C13.7584 12.3145 12.8486 12.3246 12.2812 12.8889L8.42831 16.7202C7.86088 17.2844 7.85067 18.1891 8.40551 18.7409L8.90782 19.2404C9.46266 19.7921 10.3724 19.7819 10.9399 19.2177L14.7927 15.3864C15.3602 14.8221 15.3704 13.9174 14.8155 13.3657Z" fill="url(#czr-status-paint11_radial)"/>
<path id="Vector_23" d="M13.9348 14.2522C14.0735 14.1142 14.0735 13.8906 13.9347 13.7527C13.796 13.6147 13.5711 13.6147 13.4324 13.7527L12.679 14.5019C12.5403 14.6399 12.5403 14.8635 12.679 15.0014C12.8177 15.1394 13.0426 15.1394 13.1813 15.0014L13.9348 14.2522Z" fill="#CCCCCC"/>
</g>
</g>
</g>
</g>
<defs>
<linearGradient id="czr-status-paint0_linear" x1="2" y1="16" x2="8" y2="16" gradientUnits="userSpaceOnUse">
<stop stop-color="#4F4F4F"/>
<stop offset="0.519337" stop-color="white"/>
<stop offset="1" stop-color="#4F4F4F"/>
</linearGradient>
<linearGradient id="czr-status-paint1_linear" x1="10" y1="29" x2="0" y2="29" gradientUnits="userSpaceOnUse">
<stop stop-color="#4F4F4F"/>
<stop offset="0.491713" stop-color="white"/>
<stop offset="1" stop-color="#4F4F4F"/>
</linearGradient>
<linearGradient id="czr-status-paint2_linear" x1="0" y1="3" x2="10" y2="3" gradientUnits="userSpaceOnUse">
<stop stop-color="#4F4F4F"/>
<stop offset="0.491713" stop-color="white"/>
<stop offset="1" stop-color="#4F4F4F"/>
</linearGradient>
<radialGradient id="czr-status-paint3_radial" cx="0" cy="0" r="1" gradientUnits="userSpaceOnUse" gradientTransform="translate(26.5454 20.7979) rotate(90) scale(2 2.01125)">
<stop offset="0.1" stop-color="#0000FF"/>
<stop offset="0.3" stop-color="#1E90FF"/>
<stop offset="0.7" stop-color="#00BFFF"/>
<stop offset="0.9" stop-color="#87CEFA"/>
</radialGradient>
<linearGradient id="czr-status-paint4_linear" x1="22.127" y1="15.2041" x2="22.127" y2="95.2042" gradientUnits="userSpaceOnUse">
<stop offset="1" stop-color="white" stop-opacity="0.6"/>
</linearGradient>
<linearGradient id="czr-status-paint5_linear" x1="22.127" y1="15.2041" x2="-58.3231" y2="15.2041" gradientUnits="userSpaceOnUse">
<stop offset="1" stop-color="white" stop-opacity="0.6"/>
</linearGradient>
<linearGradient id="czr-status-paint6_linear" x1="10.0566" y1="7.60547" x2="10.0566" y2="127.606" gradientUnits="userSpaceOnUse">
<stop offset="1" stop-color="white" stop-opacity="0.6"/>
</linearGradient>
<linearGradient id="czr-status-paint7_linear" x1="10.0566" y1="7.60547" x2="-110.619" y2="7.60547" gradientUnits="userSpaceOnUse">
<stop offset="1" stop-color="white" stop-opacity="0.6"/>
</linearGradient>
<linearGradient id="czr-status-paint8_linear" x1="10.0566" y1="22.0039" x2="10.0566" y2="142.004" gradientUnits="userSpaceOnUse">
<stop offset="1" stop-color="white" stop-opacity="0.6"/>
</linearGradient>
<linearGradient id="czr-status-paint9_linear" x1="10.0566" y1="22.0039" x2="-110.619" y2="22.0039" gradientUnits="userSpaceOnUse">
<stop offset="1" stop-color="white" stop-opacity="0.6"/>
</linearGradient>
<radialGradient id="czr-status-paint10_radial" cx="0" cy="0" r="1" gradientUnits="userSpaceOnUse" gradientTransform="translate(11.612 16.0518) rotate(136.534) scale(1.77098 4.16567)">
<stop stop-color="white"/>
<stop offset="1"/>
</radialGradient>
<radialGradient id="czr-status-paint11_radial" cx="0" cy="0" r="1" gradientUnits="userSpaceOnUse" gradientTransform="translate(11.6105 16.0533) rotate(44.8393) scale(1.77098 4.16567)">
<stop stop-color="white"/>
<stop offset="1"/>
</radialGradient>
</defs>
</svg>
