<svg width="32" height="56" viewBox="0 0 32 56" fill="none" xmlns="http://www.w3.org/2000/svg">
<g>
<g id="Group">
<path id="Vector" d="M0 2L32 2V8L0 8V2Z" fill="url(#czr-t-status-paint0_linear)"/>
<path id="Vector_2" d="M31 10H27V0H31V10Z" fill="url(#czr-t-status-paint1_linear)"/>
<path id="Vector_3" d="M1 0L5 0L5 10H1L1 0Z" fill="url(#czr-t-status-paint2_linear)"/>
<path id="Vector_4" d="M25.9991 15.2891L5.99902 15.2891L5.99902 7.24406L25.9991 7.24406V15.2891Z" fill="#1E90FF"/>
<path id="Vector_5" d="M17.999 17.2998H13.999C9.58075 17.2998 5.99902 16.3993 5.99902 15.2886C5.99902 14.1778 9.58075 13.2773 13.999 13.2773H17.999C22.4173 13.2773 25.9991 14.1778 25.9991 15.2886C25.9991 16.3993 22.4173 17.2998 17.999 17.2998Z" fill="#007AFF"/>
<path id="Vector_6" d="M25.9991 31.3789H5.99902L5.99902 15.2889H25.9991V31.3789Z" fill="#007AFF"/>
<path id="Vector_7" d="M15.3945 18.1048C12.6331 18.1048 10.3945 16.8442 10.3945 15.2891L20.3945 15.2891C20.3945 16.8442 18.156 18.1048 15.3945 18.1048Z" fill="white"/>
<path id="Vector_8" d="M16.1945 17.3003C13.8749 17.3003 11.9945 16.3998 11.9945 15.2891L20.3945 15.2891C20.3945 16.3998 18.5141 17.3003 16.1945 17.3003Z" fill="#007AFF"/>
<path id="Vector_9" d="M17.999 33.3896H13.999C9.58075 33.3896 5.99902 32.4892 5.99902 31.3784C5.99902 30.2676 9.58075 29.3671 13.999 29.3671H17.999C22.4173 29.3671 25.9991 30.2676 25.9991 31.3784C25.9991 32.4892 22.4173 33.3896 17.999 33.3896Z" fill="#007AFF"/>
<path id="Vector_10" d="M17.999 9.25488L13.999 9.25488C9.58075 9.25488 5.99902 8.35442 5.99902 7.24363C5.99902 6.13285 9.58075 5.23238 13.999 5.23238H17.999C22.4173 5.23238 25.9991 6.13285 25.9991 7.24363C25.9991 8.35442 22.4173 9.25488 17.999 9.25488Z" fill="#1E90FF"/>
<path id="Vector_11" d="M15.999 7.65031C18.2082 7.65031 19.999 9.45125 19.999 11.6728C19.999 13.8944 18.2082 15.6953 15.999 15.6953C13.7899 15.6953 11.999 13.8944 11.999 11.6728C11.999 9.45125 13.7899 7.65031 15.999 7.65031Z" fill="#808080"/>
<path id="Vector_12" d="M20.7979 24.5341C21.9024 24.5341 22.7979 25.4346 22.7979 26.5454C22.7979 27.6562 21.9024 28.5566 20.7979 28.5566C19.6933 28.5566 18.7979 27.6562 18.7979 26.5454C18.7979 25.4346 19.6933 24.5341 20.7979 24.5341Z" fill="url(#czr-t-status-paint3_radial)"/>
<path id="Vector_13" d="M20.7945 26.1428C21.0154 26.1428 21.1945 26.3229 21.1945 26.545C21.1945 26.7672 21.0154 26.9473 20.7945 26.9473C20.5736 26.9473 20.3945 26.7672 20.3945 26.545C20.3945 26.3229 20.5736 26.1428 20.7945 26.1428Z" fill="#DC143C"/>
<path id="Vector_14" d="M16.0041 20.518C16.4459 20.518 16.8041 20.8781 16.8041 21.3225C16.8041 21.7668 16.4459 22.127 16.0041 22.127C15.5623 22.127 15.2041 21.7668 15.2041 21.3225C15.2041 20.8781 15.5623 20.518 16.0041 20.518Z" fill="url(#czr-t-status-paint4_linear)"/>
<path id="Vector_15" d="M16.0041 20.518C16.4459 20.518 16.8041 20.8781 16.8041 21.3225C16.8041 21.7668 16.4459 22.127 16.0041 22.127C15.5623 22.127 15.2041 21.7668 15.2041 21.3225C15.2041 20.8781 15.5623 20.518 16.0041 20.518Z" fill="url(#czr-t-status-paint5_linear)"/>
<path id="Vector_16" d="M8.80547 7.64314C9.46821 7.64314 10.0055 8.18342 10.0055 8.84989C10.0055 9.51636 9.46821 10.0566 8.80547 10.0566C8.14273 10.0566 7.60547 9.51636 7.60547 8.84989C7.60547 8.18342 8.14273 7.64314 8.80547 7.64314Z" fill="url(#czr-t-status-paint6_linear)"/>
<path id="Vector_17" d="M8.80547 7.64314C9.46821 7.64314 10.0055 8.18342 10.0055 8.84989C10.0055 9.51636 9.46821 10.0566 8.80547 10.0566C8.14273 10.0566 7.60547 9.51636 7.60547 8.84989C7.60547 8.18342 8.14273 7.64314 8.80547 7.64314Z" fill="url(#czr-t-status-paint7_linear)"/>
<path id="Vector_18" d="M23.2039 7.64314C23.8667 7.64314 24.4039 8.18342 24.4039 8.84989C24.4039 9.51636 23.8667 10.0566 23.2039 10.0566C22.5412 10.0566 22.0039 9.51636 22.0039 8.84989C22.0039 8.18342 22.5412 7.64314 23.2039 7.64314Z" fill="url(#czr-t-status-paint8_linear)"/>
<path id="Vector_19" d="M23.2039 7.64314C23.8667 7.64314 24.4039 8.18342 24.4039 8.84989C24.4039 9.51636 23.8667 10.0566 23.2039 10.0566C22.5412 10.0566 22.0039 9.51636 22.0039 8.84989C22.0039 8.18342 22.5412 7.64314 23.2039 7.64314Z" fill="url(#czr-t-status-paint9_linear)"/>
</g>
<g class="fault inactive" reference="CZR-T-STATUS">
<g class="animation-hide">
<path id="OFF_2" d="M6.38477 42.7324C6.38477 40.9746 6.70117 39.7676 7.33398 39.1113C7.83203 38.5957 8.55566 38.3379 9.50488 38.3379C10.8877 38.3379 11.7725 38.9062 12.1592 40.043C12.3877 40.7168 12.502 41.6133 12.502 42.7324V49.5527C12.502 51.1641 12.2764 52.3389 11.8252 53.0771C11.374 53.8096 10.583 54.1758 9.45215 54.1758C8.32715 54.1758 7.5332 53.8066 7.07031 53.0684C6.61328 52.3301 6.38477 51.1582 6.38477 49.5527V42.7324ZM10.6826 42.627C10.6826 41.6367 10.6035 40.9365 10.4453 40.5264C10.2871 40.1104 9.96777 39.9023 9.4873 39.9023C9.00684 39.9023 8.67285 40.1133 8.48535 40.5352C8.29785 40.957 8.2041 41.6514 8.2041 42.6182V49.5703C8.2041 50.748 8.28613 51.5508 8.4502 51.9785C8.61426 52.4004 8.94531 52.6113 9.44336 52.6113C9.94141 52.6113 10.2725 52.3975 10.4365 51.9697C10.6006 51.5361 10.6826 50.7363 10.6826 49.5703V42.627ZM14.8486 38.5312H19.5068V40.0518H16.6592V44.9385H19.3311V46.4766H16.6592V54H14.8486V38.5312ZM21.4053 38.5312H26.0635V40.0518H23.2158V44.9385H25.8877V46.4766H23.2158V54H21.4053V38.5312Z"/>
<g id="Group_2">
<path id="Vector_20" d="M19.335 14.2037L18.8477 14.7178C18.3094 15.2857 17.3997 15.3025 16.8158 14.7553L12.8514 11.0396C12.2675 10.4924 12.2305 9.58838 12.7688 9.02047L13.2561 8.50633C13.7944 7.93843 14.7041 7.92167 15.2879 8.46889L19.2524 12.1845C19.8363 12.7318 19.8733 13.6358 19.335 14.2037Z" fill="url(#czr-t-status-paint10_radial)"/>
<path id="Vector_21" d="M18.4242 13.3462C18.5669 13.48 18.5735 13.7035 18.439 13.8455C18.3044 13.9874 18.0796 13.9941 17.9369 13.8603L17.1616 13.1337C17.0189 12.9999 17.0123 12.7764 17.1468 12.6344C17.2814 12.4924 17.5062 12.4858 17.6489 12.6195L18.4242 13.3462Z" fill="#CCCCCC"/>
</g>
</g>
<g class="animation-display">
<path id="ON_2" d="M8.48535 42.7324C8.48535 40.9746 8.80176 39.7676 9.43457 39.1113C9.93262 38.5957 10.6562 38.3379 11.6055 38.3379C12.9883 38.3379 13.873 38.9062 14.2598 40.043C14.4883 40.7168 14.6025 41.6133 14.6025 42.7324V49.5527C14.6025 51.1641 14.377 52.3389 13.9258 53.0771C13.4746 53.8096 12.6836 54.1758 11.5527 54.1758C10.4277 54.1758 9.63379 53.8066 9.1709 53.0684C8.71387 52.3301 8.48535 51.1582 8.48535 49.5527V42.7324ZM12.7832 42.627C12.7832 41.6367 12.7041 40.9365 12.5459 40.5264C12.3877 40.1104 12.0684 39.9023 11.5879 39.9023C11.1074 39.9023 10.7734 40.1133 10.5859 40.5352C10.3984 40.957 10.3047 41.6514 10.3047 42.6182V49.5703C10.3047 50.748 10.3867 51.5508 10.5508 51.9785C10.7148 52.4004 11.0459 52.6113 11.5439 52.6113C12.042 52.6113 12.373 52.3975 12.5371 51.9697C12.7012 51.5361 12.7832 50.7363 12.7832 49.5703V42.627ZM21.7305 38.5312H23.3389V54H22.0029L18.5312 43.3828L18.6367 47.2852V54H16.958V38.5312H18.3291L21.915 49.0605L21.7305 44.5869V38.5312Z"/>
<g id="Group_3">
<path id="Vector_22" d="M13.3657 14.8155L12.8662 14.3132C12.3145 13.7584 12.3246 12.8486 12.8889 12.2812L16.7202 8.42831C17.2844 7.86088 18.1891 7.85067 18.7409 8.40551L19.2404 8.90782C19.7921 9.46266 19.7819 10.3724 19.2177 10.9399L15.3864 14.7927C14.8221 15.3602 13.9174 15.3704 13.3657 14.8155Z" fill="url(#czr-t-status-paint11_radial)"/>
<path id="Vector_23" d="M14.2522 13.9348C14.1142 14.0735 13.8906 14.0735 13.7527 13.9347C13.6147 13.796 13.6147 13.5711 13.7527 13.4324L14.5019 12.679C14.6399 12.5403 14.8635 12.5403 15.0014 12.679C15.1394 12.8177 15.1394 13.0426 15.0014 13.1813L14.2522 13.9348Z" fill="#CCCCCC"/>
</g>
</g>
</g>
</g>
<defs>
<linearGradient id="czr-t-status-paint0_linear" x1="16" y1="2" x2="16" y2="8" gradientUnits="userSpaceOnUse">
<stop stop-color="#4F4F4F"/>
<stop offset="0.519337" stop-color="white"/>
<stop offset="1" stop-color="#4F4F4F"/>
</linearGradient>
<linearGradient id="czr-t-status-paint1_linear" x1="29" y1="10" x2="29" y2="0" gradientUnits="userSpaceOnUse">
<stop stop-color="#4F4F4F"/>
<stop offset="0.491713" stop-color="white"/>
<stop offset="1" stop-color="#4F4F4F"/>
</linearGradient>
<linearGradient id="czr-t-status-paint2_linear" x1="3" y1="0" x2="3" y2="10" gradientUnits="userSpaceOnUse">
<stop stop-color="#4F4F4F"/>
<stop offset="0.491713" stop-color="white"/>
<stop offset="1" stop-color="#4F4F4F"/>
</linearGradient>
<radialGradient id="czr-t-status-paint3_radial" cx="0" cy="0" r="1" gradientUnits="userSpaceOnUse" gradientTransform="translate(20.7979 26.5454) scale(2 2.01125)">
<stop offset="0.1" stop-color="#0000FF"/>
<stop offset="0.3" stop-color="#1E90FF"/>
<stop offset="0.7" stop-color="#00BFFF"/>
<stop offset="0.9" stop-color="#87CEFA"/>
</radialGradient>
<linearGradient id="czr-t-status-paint4_linear" x1="15.2041" y1="22.127" x2="95.2042" y2="22.127" gradientUnits="userSpaceOnUse">
<stop offset="1" stop-color="white" stop-opacity="0.6"/>
</linearGradient>
<linearGradient id="czr-t-status-paint5_linear" x1="15.2041" y1="22.127" x2="15.2041" y2="-58.3231" gradientUnits="userSpaceOnUse">
<stop offset="1" stop-color="white" stop-opacity="0.6"/>
</linearGradient>
<linearGradient id="czr-t-status-paint6_linear" x1="7.60547" y1="10.0566" x2="127.606" y2="10.0566" gradientUnits="userSpaceOnUse">
<stop offset="1" stop-color="white" stop-opacity="0.6"/>
</linearGradient>
<linearGradient id="czr-t-status-paint7_linear" x1="7.60547" y1="10.0566" x2="7.60547" y2="-110.619" gradientUnits="userSpaceOnUse">
<stop offset="1" stop-color="white" stop-opacity="0.6"/>
</linearGradient>
<linearGradient id="czr-t-status-paint8_linear" x1="22.0039" y1="10.0566" x2="142.004" y2="10.0566" gradientUnits="userSpaceOnUse">
<stop offset="1" stop-color="white" stop-opacity="0.6"/>
</linearGradient>
<linearGradient id="czr-t-status-paint9_linear" x1="22.0039" y1="10.0566" x2="22.0039" y2="-110.619" gradientUnits="userSpaceOnUse">
<stop offset="1" stop-color="white" stop-opacity="0.6"/>
</linearGradient>
<radialGradient id="czr-t-status-paint10_radial" cx="0" cy="0" r="1" gradientUnits="userSpaceOnUse" gradientTransform="translate(16.0518 11.612) rotate(-46.5344) scale(1.77098 4.16567)">
<stop stop-color="white"/>
<stop offset="1"/>
</radialGradient>
<radialGradient id="czr-t-status-paint11_radial" cx="0" cy="0" r="1" gradientUnits="userSpaceOnUse" gradientTransform="translate(16.0533 11.6105) rotate(45.1607) scale(1.77098 4.16567)">
<stop stop-color="white"/>
<stop offset="1"/>
</radialGradient>
</defs>
</svg>
