<svg width="40" height="57" viewBox="0 0 40 57" fill="none" xmlns="http://www.w3.org/2000/svg">

<g>
<g id="3PValve">
<g id="Group">
<rect id="Rectangle" x="5" y="56" width="16" height="30" transform="rotate(-90 5 56)" fill="#007AFF"/>
<path id="Vector" d="M3 57H8L8 39H3L3 57Z" fill="url(#PVALVE-paint0_linear)"/>
<path id="Vector_2" d="M37 39H32L32 57H37V39Z" fill="url(#PVALVE-paint1_linear)"/>

</g>
<g id="SEN" class="fault" format="%.0f" reference="PVALVE-STATUS">

		<text x="50%" y="54.5" font-size="14px" font-family="Antonio-Regular" text-anchor="middle">...</text>
		</g>
</g>
<g id="PVALVE" class="click fault hide" format="%.0f" reference="PVALVE-CONTROL">
<g id="flags">
<path id="Subtract" fill-rule="evenodd" clip-rule="evenodd" d="M40 20C40 31.0457 31.0457 40 20 40C8.9543 40 0 31.0457 0 20C0 8.95432 8.9543 0 20 0C31.0457 0 40 8.95432 40 20ZM37.3406 19.9946C37.3406 29.5751 29.5741 37.3416 19.9937 37.3416C10.4132 37.3416 2.64672 29.5751 2.64672 19.9946C2.64672 10.4142 10.4132 2.64768 19.9937 2.64768C29.5741 2.64768 37.3406 10.4142 37.3406 19.9946Z"/>
<g id="Group 2">
<path id="%_2" d="M21.3232 26.4062H22.1582L18.7402 35H17.8662L21.3232 26.4062ZM17.5684 28.0029C17.5684 27.6514 17.526 27.4105 17.4414 27.2803C17.3568 27.1501 17.1956 27.085 16.958 27.085C16.7204 27.085 16.5592 27.1517 16.4746 27.2852C16.39 27.4154 16.3477 27.6546 16.3477 28.0029V30.4248C16.3477 30.7829 16.39 31.0319 16.4746 31.1719C16.5625 31.3086 16.7236 31.377 16.958 31.377C17.1924 31.377 17.3519 31.3086 17.4365 31.1719C17.5244 31.0319 17.5684 30.7829 17.5684 30.4248V28.0029ZM15.4443 28.3398C15.4443 27.5781 15.555 27.0475 15.7764 26.748C15.9977 26.4486 16.3916 26.2988 16.958 26.2988C17.5277 26.2988 17.9232 26.4486 18.1445 26.748C18.3659 27.0475 18.4766 27.5781 18.4766 28.3398V30.0732C18.4766 30.848 18.3643 31.39 18.1396 31.6992C17.915 32.0085 17.5212 32.1631 16.958 32.1631C16.3981 32.1631 16.0059 32.0085 15.7812 31.6992C15.5566 31.39 15.4443 30.848 15.4443 30.0732V28.3398ZM21.5234 31.2744C21.5234 30.5127 21.6341 29.9821 21.8555 29.6826C22.0768 29.3831 22.4707 29.2334 23.0371 29.2334C23.6068 29.2334 24.0023 29.3831 24.2236 29.6826C24.445 29.9821 24.5557 30.5127 24.5557 31.2744V33.0078C24.5557 33.7826 24.4434 34.3245 24.2188 34.6338C23.9941 34.943 23.6003 35.0977 23.0371 35.0977C22.4772 35.0977 22.085 34.943 21.8604 34.6338C21.6357 34.3245 21.5234 33.7826 21.5234 33.0078V31.2744ZM23.6523 30.9375C23.6523 30.5859 23.61 30.3451 23.5254 30.2148C23.4408 30.0846 23.2796 30.0195 23.042 30.0195C22.8044 30.0195 22.6432 30.0863 22.5586 30.2197C22.474 30.3499 22.4316 30.5892 22.4316 30.9375V33.3594C22.4316 33.7174 22.474 33.9665 22.5586 34.1064C22.6465 34.2432 22.806 34.3115 23.0371 34.3115C23.2715 34.3115 23.4326 34.2432 23.5205 34.1064C23.6084 33.9665 23.6523 33.7174 23.6523 33.3594V30.9375Z"/>
</g>
</g>
<g id="Group_3">
		<text x="50%" y="24" font-size="18px" font-family="Antonio-Regular" text-anchor="middle">...</text>
	</g>
</g>
</g>
<defs>
<linearGradient id="PVALVE-paint0_linear" x1="5.5" y1="57" x2="5.5" y2="39" gradientUnits="userSpaceOnUse">
<stop stop-color="#4F4F4F"/>
<stop offset="0.491713" stop-color="white"/>
<stop offset="1" stop-color="#4F4F4F"/>
</linearGradient>
<linearGradient id="PVALVE-paint1_linear" x1="34.5" y1="39" x2="34.5" y2="57" gradientUnits="userSpaceOnUse">
<stop stop-color="#4F4F4F"/>
<stop offset="0.491713" stop-color="white"/>
<stop offset="1" stop-color="#4F4F4F"/>
</linearGradient>
</defs>
</svg>
