<svg width="18" height="30" viewBox="0 0 18 30" fill="none" xmlns="http://www.w3.org/2000/svg">
<g>
<g class="fault inactive" reference="VALVE-B-STATUS">
<g id="flage">
<rect id="Rectangle" x="1" width="16" height="30"/>
<path id="Exclude" fill-rule="evenodd" clip-rule="evenodd" d="M1 0H17V30H1V0ZM9 15L2 24H16L9 15ZM9 15L2 6H16L9 15ZM9 16.5L4 23H14L9 16.5Z" fill="#007AFF"/>
</g>
<g class="animation-hide">
<path id="Exclude_2" fill-rule="evenodd" clip-rule="evenodd" d="M1 0H17V30H1V0ZM9 15L2 24H16L9 15ZM9 15L2 6H16L9 15ZM9 16.5L4 23H14L9 16.5ZM14 7L9 13.5L4 7H14Z" fill="#007AFF"/>
</g>
<g id="Group">
<path id="Vector" d="M0 0L0 5L18 5V0L0 0Z" fill="url(#valve-b-paint0_linear)"/>
<path id="Vector_2" d="M18 30V25L0 25V30L18 30Z" fill="url(#valve-b-paint1_linear)"/>
</g>
</g>
</g>
<defs>
<linearGradient id="valve-b-paint0_linear" x1="0" y1="2.5" x2="18" y2="2.5" gradientUnits="userSpaceOnUse">
<stop stop-color="#4F4F4F"/>
<stop offset="0.491713" stop-color="white"/>
<stop offset="1" stop-color="#4F4F4F"/>
</linearGradient>
<linearGradient id="valve-b-paint1_linear" x1="18" y1="27.5" x2="0" y2="27.5" gradientUnits="userSpaceOnUse">
<stop stop-color="#4F4F4F"/>
<stop offset="0.491713" stop-color="white"/>
<stop offset="1" stop-color="#4F4F4F"/>
</linearGradient>
</defs>
</svg>
