<svg width="129" height="22" viewBox="0 0 129 22" fill="none" xmlns="http://www.w3.org/2000/svg">
<g id="Group">
<g class="fault inactive" reference="XF-VALVE">
	<g class="animation-display">
<path d="M37.525 7.172C38.629 7.172 39.505 7.394 40.153 7.838C40.813 8.27 41.143 8.894 41.143 9.71C41.143 10.298 40.981 10.766 40.657 11.114C40.333 11.45 39.889 11.696 39.325 11.852V11.924C39.709 12.032 40.063 12.182 40.387 12.374C40.711 12.566 40.969 12.818 41.161 13.13C41.365 13.442 41.467 13.844 41.467 14.336C41.467 15.14 41.131 15.818 40.459 16.37C39.799 16.91 38.761 17.18 37.345 17.18C36.649 17.18 36.019 17.12 35.455 17C34.891 16.892 34.423 16.742 34.051 16.55V15.128C34.459 15.32 34.939 15.494 35.491 15.65C36.055 15.806 36.667 15.884 37.327 15.884C38.047 15.884 38.653 15.764 39.145 15.524C39.649 15.272 39.901 14.846 39.901 14.246C39.901 13.166 38.983 12.626 37.147 12.626H35.851V11.33H36.895C37.723 11.33 38.383 11.222 38.875 11.006C39.379 10.778 39.631 10.394 39.631 9.854C39.631 9.398 39.439 9.056 39.055 8.828C38.683 8.6 38.143 8.486 37.435 8.486C36.907 8.486 36.439 8.54 36.031 8.648C35.635 8.744 35.197 8.894 34.717 9.098L34.159 7.838C35.167 7.394 36.289 7.172 37.525 7.172ZM47.4653 7.19C48.6413 7.19 49.5113 7.448 50.0753 7.964C50.6393 8.48 50.9213 9.302 50.9213 10.43V17H49.7693L49.4633 15.632H49.3913C48.9713 16.16 48.5273 16.55 48.0593 16.802C47.6033 17.054 46.9673 17.18 46.1513 17.18C45.2753 17.18 44.5493 16.952 43.9733 16.496C43.3973 16.028 43.1093 15.302 43.1093 14.318C43.1093 13.358 43.4873 12.62 44.2433 12.104C44.9993 11.576 46.1633 11.288 47.7353 11.24L49.3733 11.186V10.61C49.3733 9.806 49.1993 9.248 48.8513 8.936C48.5033 8.624 48.0113 8.468 47.3753 8.468C46.8713 8.468 46.3913 8.546 45.9353 8.702C45.4793 8.846 45.0533 9.014 44.6572 9.206L44.1713 8.018C44.5913 7.79 45.0893 7.598 45.6653 7.442C46.2413 7.274 46.8413 7.19 47.4653 7.19ZM49.3553 12.284L47.9333 12.338C46.7333 12.386 45.8993 12.578 45.4313 12.914C44.9753 13.25 44.7473 13.724 44.7473 14.336C44.7473 14.876 44.9093 15.272 45.2333 15.524C45.5693 15.776 45.9953 15.902 46.5113 15.902C47.3273 15.902 48.0053 15.68 48.5453 15.236C49.0853 14.78 49.3553 14.084 49.3553 13.148V12.284ZM59.6071 7.352H61.3351L57.2131 11.996L61.6771 17H59.8411L55.4851 12.104V17H53.9011V7.352H55.4851V12.032L59.6071 7.352ZM68.0184 7.172C69.2064 7.172 70.1604 7.586 70.8804 8.414C71.6124 9.242 71.9784 10.49 71.9784 12.158C71.9784 13.802 71.6124 15.05 70.8804 15.902C70.1604 16.754 69.2004 17.18 68.0004 17.18C67.2564 17.18 66.6384 17.042 66.1464 16.766C65.6664 16.478 65.2884 16.148 65.0124 15.776H64.9044C64.9284 15.98 64.9524 16.238 64.9764 16.55C65.0004 16.862 65.0124 17.132 65.0124 17.36V21.32H63.4284V7.352H64.7244L64.9404 8.666H65.0124C65.3004 8.246 65.6784 7.892 66.1464 7.604C66.6144 7.316 67.2384 7.172 68.0184 7.172ZM67.7304 8.504C66.7464 8.504 66.0504 8.78 65.6424 9.332C65.2464 9.884 65.0364 10.724 65.0124 11.852V12.158C65.0124 13.346 65.2044 14.264 65.5884 14.912C65.9844 15.548 66.7104 15.866 67.7664 15.866C68.3544 15.866 68.8344 15.704 69.2064 15.38C69.5904 15.056 69.8724 14.618 70.0524 14.066C70.2444 13.502 70.3404 12.86 70.3404 12.14C70.3404 11.036 70.1244 10.154 69.6924 9.494C69.2724 8.834 68.6184 8.504 67.7304 8.504ZM74.5027 17V7.352H76.0867V11.312H78.5887C79.8367 11.312 80.7607 11.54 81.3607 11.996C81.9607 12.452 82.2607 13.136 82.2607 14.048C82.2607 14.948 81.9667 15.668 81.3787 16.208C80.7907 16.736 79.8367 17 78.5167 17H74.5027ZM83.8627 17V7.352H85.4467V17H83.8627ZM76.0867 15.722H78.3727C79.0567 15.722 79.6147 15.608 80.0467 15.38C80.4787 15.14 80.6947 14.726 80.6947 14.138C80.6947 13.55 80.4967 13.154 80.1007 12.95C79.7047 12.734 79.1347 12.626 78.3907 12.626H76.0867V15.722ZM95.1724 8.684H92.0224V17H90.4564V8.684H87.3424V7.352H95.1724V8.684Z"/>
</g>
</g>
<g class="fault inactive" reference="XE-VALVE">
	<g class="animation-display">
<path d="M21.9438 7.352H23.6358L25.7238 12.842C25.9038 13.322 26.0658 13.784 26.2098 14.228C26.3538 14.66 26.4618 15.074 26.5338 15.47H26.6058C26.6778 15.17 26.7918 14.78 26.9478 14.3C27.1038 13.808 27.2658 13.316 27.4338 12.824L29.3958 7.352H31.1058L26.9478 18.332C26.6118 19.244 26.1738 19.97 25.6338 20.51C25.1058 21.05 24.3738 21.32 23.4378 21.32C23.1498 21.32 22.8978 21.302 22.6818 21.266C22.4658 21.242 22.2798 21.212 22.1238 21.176V19.916C22.2558 19.94 22.4118 19.964 22.5918 19.988C22.7838 20.012 22.9818 20.024 23.1858 20.024C23.7378 20.024 24.1818 19.868 24.5178 19.556C24.8658 19.244 25.1358 18.83 25.3278 18.314L25.8318 17.036L21.9438 7.352ZM40.7856 7.352V17H39.2016V8.702H34.2156V17H32.6316V7.352H40.7856ZM51.208 17H49.606V8.666H46.762C46.606 10.694 46.39 12.332 46.114 13.58C45.838 14.816 45.472 15.716 45.016 16.28C44.56 16.844 43.984 17.126 43.288 17.126C43.132 17.126 42.976 17.114 42.82 17.09C42.676 17.078 42.556 17.048 42.46 17V15.812C42.532 15.836 42.61 15.854 42.694 15.866C42.778 15.878 42.862 15.884 42.946 15.884C43.594 15.884 44.11 15.194 44.494 13.814C44.89 12.434 45.19 10.28 45.394 7.352H51.208V17ZM54.2432 15.2598H55.7812V17H54.2432V15.2598ZM67.1 7.352V17H65.516V8.702H60.53V17H58.946V7.352H67.1ZM73.9044 7.172C74.7324 7.172 75.4404 7.352 76.0284 7.712C76.6284 8.072 77.0844 8.582 77.3964 9.242C77.7204 9.89 77.8824 10.652 77.8824 11.528V12.482H71.2764C71.3004 13.574 71.5764 14.408 72.1044 14.984C72.6444 15.548 73.3944 15.83 74.3544 15.83C74.9664 15.83 75.5064 15.776 75.9744 15.668C76.4544 15.548 76.9464 15.38 77.4504 15.164V16.55C76.9584 16.766 76.4724 16.922 75.9924 17.018C75.5124 17.126 74.9424 17.18 74.2824 17.18C73.3704 17.18 72.5604 16.994 71.8524 16.622C71.1564 16.25 70.6104 15.698 70.2144 14.966C69.8304 14.222 69.6384 13.316 69.6384 12.248C69.6384 11.192 69.8124 10.286 70.1604 9.53C70.5204 8.774 71.0184 8.192 71.6544 7.784C72.3024 7.376 73.0524 7.172 73.9044 7.172ZM73.8864 8.468C73.1304 8.468 72.5304 8.714 72.0864 9.206C71.6544 9.686 71.3964 10.358 71.3124 11.222H76.2264C76.2144 10.406 76.0224 9.746 75.6504 9.242C75.2784 8.726 74.6904 8.468 73.8864 8.468ZM84.2086 17.18C83.3566 17.18 82.5946 17.006 81.9226 16.658C81.2626 16.31 80.7406 15.77 80.3566 15.038C79.9846 14.306 79.7986 13.37 79.7986 12.23C79.7986 11.042 79.9966 10.076 80.3926 9.332C80.7886 8.588 81.3226 8.042 81.9946 7.694C82.6786 7.346 83.4526 7.172 84.3166 7.172C84.8086 7.172 85.2826 7.226 85.7386 7.334C86.1946 7.43 86.5666 7.55 86.8546 7.694L86.3686 9.008C86.0806 8.9 85.7446 8.798 85.3606 8.702C84.9766 8.606 84.6166 8.558 84.2806 8.558C82.3846 8.558 81.4366 9.776 81.4366 12.212C81.4366 13.376 81.6646 14.27 82.1206 14.894C82.5886 15.506 83.2786 15.812 84.1906 15.812C84.7186 15.812 85.1806 15.758 85.5766 15.65C85.9846 15.542 86.3566 15.41 86.6926 15.254V16.658C86.3686 16.826 86.0086 16.952 85.6126 17.036C85.2286 17.132 84.7606 17.18 84.2086 17.18ZM94.693 7.352H96.421L92.299 11.996L96.763 17H94.927L90.571 12.104V17H88.987V7.352H90.571V12.032L94.693 7.352ZM102.168 7.19C103.344 7.19 104.214 7.448 104.778 7.964C105.342 8.48 105.624 9.302 105.624 10.43V17H104.472L104.166 15.632H104.094C103.674 16.16 103.23 16.55 102.762 16.802C102.306 17.054 101.67 17.18 100.854 17.18C99.9784 17.18 99.2524 16.952 98.6764 16.496C98.1004 16.028 97.8124 15.302 97.8124 14.318C97.8124 13.358 98.1904 12.62 98.9464 12.104C99.7024 11.576 100.866 11.288 102.438 11.24L104.076 11.186V10.61C104.076 9.806 103.902 9.248 103.554 8.936C103.206 8.624 102.714 8.468 102.078 8.468C101.574 8.468 101.094 8.546 100.638 8.702C100.182 8.846 99.7564 9.014 99.3604 9.206L98.8744 8.018C99.2944 7.79 99.7924 7.598 100.368 7.442C100.944 7.274 101.544 7.19 102.168 7.19ZM104.058 12.284L102.636 12.338C101.436 12.386 100.602 12.578 100.134 12.914C99.6784 13.25 99.4504 13.724 99.4504 14.336C99.4504 14.876 99.6124 15.272 99.9364 15.524C100.272 15.776 100.698 15.902 101.214 15.902C102.03 15.902 102.708 15.68 103.248 15.236C103.788 14.78 104.058 14.084 104.058 13.148V12.284Z"/>
</g>
</g>
<g class="fault inactive" reference="XD-VALVE">
	<g class="animation-display">
<path d="M7.09266 7.172C8.28066 7.172 9.23466 7.586 9.95466 8.414C10.6867 9.242 11.0527 10.49 11.0527 12.158C11.0527 13.802 10.6867 15.05 9.95466 15.902C9.23466 16.754 8.27466 17.18 7.07466 17.18C6.33066 17.18 5.71266 17.042 5.22066 16.766C4.74066 16.478 4.36266 16.148 4.08666 15.776H3.97866C4.00266 15.98 4.02666 16.238 4.05066 16.55C4.07466 16.862 4.08666 17.132 4.08666 17.36V21.32H2.50266V7.352H3.79866L4.01466 8.666H4.08666C4.37466 8.246 4.75266 7.892 5.22066 7.604C5.68866 7.316 6.31266 7.172 7.09266 7.172ZM6.80466 8.504C5.82066 8.504 5.12466 8.78 4.71666 9.332C4.32066 9.884 4.11066 10.724 4.08666 11.852V12.158C4.08666 13.346 4.27866 14.264 4.66266 14.912C5.05866 15.548 5.78466 15.866 6.84066 15.866C7.42866 15.866 7.90866 15.704 8.28066 15.38C8.66466 15.056 8.94666 14.618 9.12666 14.066C9.31866 13.502 9.41466 12.86 9.41466 12.14C9.41466 11.036 9.19866 10.154 8.76666 9.494C8.34666 8.834 7.69266 8.504 6.80466 8.504ZM17.3029 7.172C18.1309 7.172 18.8389 7.352 19.4269 7.712C20.0269 8.072 20.4829 8.582 20.7949 9.242C21.1189 9.89 21.2809 10.652 21.2809 11.528V12.482H14.6749C14.6989 13.574 14.9749 14.408 15.5029 14.984C16.0429 15.548 16.7929 15.83 17.7529 15.83C18.3649 15.83 18.9049 15.776 19.3729 15.668C19.8529 15.548 20.3449 15.38 20.8489 15.164V16.55C20.3569 16.766 19.8709 16.922 19.3909 17.018C18.9109 17.126 18.3409 17.18 17.6809 17.18C16.7689 17.18 15.9589 16.994 15.2509 16.622C14.5549 16.25 14.0089 15.698 13.6129 14.966C13.2289 14.222 13.0369 13.316 13.0369 12.248C13.0369 11.192 13.2109 10.286 13.5589 9.53C13.9189 8.774 14.4169 8.192 15.0529 7.784C15.7009 7.376 16.4509 7.172 17.3029 7.172ZM17.2849 8.468C16.5289 8.468 15.9289 8.714 15.4849 9.206C15.0529 9.686 14.7949 10.358 14.7109 11.222H19.6249C19.6129 10.406 19.4209 9.746 19.0489 9.242C18.6769 8.726 18.0889 8.468 17.2849 8.468ZM33.259 20.348H31.711V17H23.737V7.352H25.321V15.668H30.307V7.352H31.891V15.686H33.259V20.348ZM36.6041 7.352V13.238C36.6041 13.382 36.5981 13.598 36.5861 13.886C36.5741 14.174 36.5561 14.462 36.5321 14.75C36.5201 15.038 36.5081 15.266 36.4961 15.434L41.6621 7.352H43.6061V17H42.1301V11.312C42.1301 11.12 42.1301 10.868 42.1301 10.556C42.1421 10.244 42.1541 9.938 42.1661 9.638C42.1781 9.326 42.1901 9.092 42.2021 8.936L37.0721 17H35.1101V7.352H36.6041ZM51.2665 7.172C52.4545 7.172 53.4085 7.586 54.1285 8.414C54.8605 9.242 55.2265 10.49 55.2265 12.158C55.2265 13.802 54.8605 15.05 54.1285 15.902C53.4085 16.754 52.4485 17.18 51.2485 17.18C50.5045 17.18 49.8865 17.042 49.3945 16.766C48.9145 16.478 48.5365 16.148 48.2605 15.776H48.1525C48.1765 15.98 48.2005 16.238 48.2245 16.55C48.2485 16.862 48.2605 17.132 48.2605 17.36V21.32H46.6765V7.352H47.9725L48.1885 8.666H48.2605C48.5485 8.246 48.9265 7.892 49.3945 7.604C49.8625 7.316 50.4865 7.172 51.2665 7.172ZM50.9785 8.504C49.9945 8.504 49.2985 8.78 48.8905 9.332C48.4945 9.884 48.2845 10.724 48.2605 11.852V12.158C48.2605 13.346 48.4525 14.264 48.8365 14.912C49.2325 15.548 49.9585 15.866 51.0145 15.866C51.6025 15.866 52.0825 15.704 52.4545 15.38C52.8385 15.056 53.1205 14.618 53.3005 14.066C53.4925 13.502 53.5885 12.86 53.5885 12.14C53.5885 11.036 53.3725 10.154 52.9405 9.494C52.5205 8.834 51.8665 8.504 50.9785 8.504ZM63.4567 7.352H65.1847L61.0627 11.996L65.5267 17H63.6907L59.3347 12.104V17H57.7507V7.352H59.3347V12.032L63.4567 7.352ZM65.766 7.352H67.458L69.546 12.842C69.726 13.322 69.888 13.784 70.032 14.228C70.176 14.66 70.284 15.074 70.356 15.47H70.428C70.5 15.17 70.614 14.78 70.77 14.3C70.926 13.808 71.088 13.316 71.256 12.824L73.218 7.352H74.928L70.77 18.332C70.434 19.244 69.996 19.97 69.456 20.51C68.928 21.05 68.196 21.32 67.26 21.32C66.972 21.32 66.72 21.302 66.504 21.266C66.288 21.242 66.102 21.212 65.946 21.176V19.916C66.078 19.94 66.234 19.964 66.414 19.988C66.606 20.012 66.804 20.024 67.008 20.024C67.56 20.024 68.004 19.868 68.34 19.556C68.688 19.244 68.958 18.83 69.15 18.314L69.654 17.036L65.766 7.352ZM83.4463 17H81.8443V8.666H79.0003C78.8443 10.694 78.6283 12.332 78.3523 13.58C78.0763 14.816 77.7103 15.716 77.2543 16.28C76.7983 16.844 76.2223 17.126 75.5263 17.126C75.3703 17.126 75.2143 17.114 75.0583 17.09C74.9143 17.078 74.7943 17.048 74.6983 17V15.812C74.7703 15.836 74.8483 15.854 74.9323 15.866C75.0163 15.878 75.1003 15.884 75.1843 15.884C75.8323 15.884 76.3483 15.194 76.7323 13.814C77.1283 12.434 77.4283 10.28 77.6323 7.352H83.4463V17ZM87.1025 17H85.2665L88.0205 12.95C87.6485 12.854 87.2885 12.704 86.9405 12.5C86.5925 12.284 86.3105 11.99 86.0945 11.618C85.8785 11.234 85.7705 10.76 85.7705 10.196C85.7705 9.272 86.0825 8.57 86.7065 8.09C87.3305 7.598 88.1585 7.352 89.1905 7.352H93.5105V17H91.9265V13.166H89.5865L87.1025 17ZM87.3005 10.214C87.3005 10.766 87.5045 11.18 87.9125 11.456C88.3325 11.72 88.9145 11.852 89.6585 11.852H91.9265V8.666H89.3525C88.6205 8.666 88.0925 8.81 87.7685 9.098C87.4565 9.386 87.3005 9.758 87.3005 10.214ZM106.085 20.348H104.537V17H96.5632V7.352H98.1472V15.668H103.133V7.352H104.717V15.686H106.085V20.348ZM109.43 7.352V13.238C109.43 13.382 109.424 13.598 109.412 13.886C109.4 14.174 109.382 14.462 109.358 14.75C109.346 15.038 109.334 15.266 109.322 15.434L114.488 7.352H116.432V17H114.956V11.312C114.956 11.12 114.956 10.868 114.956 10.556C114.968 10.244 114.98 9.938 114.992 9.638C115.004 9.326 115.016 9.092 115.028 8.936L109.898 17H107.936V7.352H109.43ZM120.097 17H118.261L121.015 12.95C120.643 12.854 120.283 12.704 119.935 12.5C119.587 12.284 119.305 11.99 119.089 11.618C118.873 11.234 118.765 10.76 118.765 10.196C118.765 9.272 119.077 8.57 119.701 8.09C120.325 7.598 121.153 7.352 122.185 7.352H126.505V17H124.921V13.166H122.581L120.097 17ZM120.295 10.214C120.295 10.766 120.499 11.18 120.907 11.456C121.327 11.72 121.909 11.852 122.653 11.852H124.921V8.666H122.347C121.615 8.666 121.087 8.81 120.763 9.098C120.451 9.386 120.295 9.758 120.295 10.214Z"/>
</g>
</g>
<g class="fault inactive" reference="XC-VALVE">
	<g class="animation-display">
<path d="M28.8676 7.352V17H27.2836V8.702H22.2976V17H20.7136V7.352H28.8676ZM36.536 7.172C37.724 7.172 38.678 7.586 39.398 8.414C40.13 9.242 40.496 10.49 40.496 12.158C40.496 13.802 40.13 15.05 39.398 15.902C38.678 16.754 37.718 17.18 36.518 17.18C35.774 17.18 35.156 17.042 34.664 16.766C34.184 16.478 33.806 16.148 33.53 15.776H33.422C33.446 15.98 33.47 16.238 33.494 16.55C33.518 16.862 33.53 17.132 33.53 17.36V21.32H31.946V7.352H33.242L33.458 8.666H33.53C33.818 8.246 34.196 7.892 34.664 7.604C35.132 7.316 35.756 7.172 36.536 7.172ZM36.248 8.504C35.264 8.504 34.568 8.78 34.16 9.332C33.764 9.884 33.554 10.724 33.53 11.852V12.158C33.53 13.346 33.722 14.264 34.106 14.912C34.502 15.548 35.228 15.866 36.284 15.866C36.872 15.866 37.352 15.704 37.724 15.38C38.108 15.056 38.39 14.618 38.57 14.066C38.762 13.502 38.858 12.86 38.858 12.14C38.858 11.036 38.642 10.154 38.21 9.494C37.79 8.834 37.136 8.504 36.248 8.504ZM51.4082 12.158C51.4082 13.754 51.0002 14.99 50.1842 15.866C49.3802 16.742 48.2882 17.18 46.9082 17.18C46.0562 17.18 45.2942 16.988 44.6222 16.604C43.9622 16.208 43.4402 15.638 43.0562 14.894C42.6722 14.138 42.4802 13.226 42.4802 12.158C42.4802 10.562 42.8822 9.332 43.6862 8.468C44.4902 7.604 45.5822 7.172 46.9622 7.172C47.8382 7.172 48.6062 7.37 49.2662 7.766C49.9382 8.15 50.4602 8.714 50.8322 9.458C51.2162 10.19 51.4082 11.09 51.4082 12.158ZM44.1182 12.158C44.1182 13.298 44.3402 14.204 44.7842 14.876C45.2402 15.536 45.9602 15.866 46.9442 15.866C47.9162 15.866 48.6302 15.536 49.0862 14.876C49.5422 14.204 49.7702 13.298 49.7702 12.158C49.7702 11.018 49.5422 10.124 49.0862 9.476C48.6302 8.828 47.9102 8.504 46.9262 8.504C45.9422 8.504 45.2282 8.828 44.7842 9.476C44.3402 10.124 44.1182 11.018 44.1182 12.158ZM64.2687 7.352V17H62.8467V10.844C62.8467 10.592 62.8527 10.328 62.8647 10.052C62.8887 9.776 62.9127 9.506 62.9367 9.242H62.8827L59.7327 17H58.4007L55.3407 9.242H55.2867C55.3227 9.782 55.3407 10.334 55.3407 10.898V17H53.9187V7.352H56.0247L59.0667 15.11L62.1627 7.352H64.2687ZM67.3484 17V7.352H68.9324V11.312H71.4344C72.6824 11.312 73.6064 11.54 74.2064 11.996C74.8064 12.452 75.1064 13.136 75.1064 14.048C75.1064 14.948 74.8124 15.668 74.2244 16.208C73.6364 16.736 72.6824 17 71.3624 17H67.3484ZM76.7084 17V7.352H78.2924V17H76.7084ZM68.9324 15.722H71.2184C71.9024 15.722 72.4604 15.608 72.8924 15.38C73.3244 15.14 73.5404 14.726 73.5404 14.138C73.5404 13.55 73.3424 13.154 72.9464 12.95C72.5504 12.734 71.9804 12.626 71.2364 12.626H68.9324V15.722ZM89.1161 9.782C89.1161 10.382 88.9361 10.85 88.5761 11.186C88.2161 11.522 87.7541 11.75 87.1901 11.87V11.942C87.7901 12.026 88.3121 12.242 88.7561 12.59C89.2001 12.926 89.4221 13.454 89.4221 14.174C89.4221 14.99 89.1161 15.668 88.5041 16.208C87.9041 16.736 86.9081 17 85.5161 17H81.3581V7.352H85.4981C86.1821 7.352 86.7941 7.43 87.3341 7.586C87.8861 7.73 88.3181 7.982 88.6301 8.342C88.9541 8.69 89.1161 9.17 89.1161 9.782ZM87.5141 9.98C87.5141 9.524 87.3461 9.194 87.0101 8.99C86.6861 8.774 86.1521 8.666 85.4081 8.666H82.9421V11.312H85.1201C86.7161 11.312 87.5141 10.868 87.5141 9.98ZM87.7841 14.174C87.7841 13.622 87.5741 13.226 87.1541 12.986C86.7341 12.746 86.1161 12.626 85.3001 12.626H82.9421V15.722H85.3361C86.1281 15.722 86.7341 15.608 87.1541 15.38C87.5741 15.14 87.7841 14.738 87.7841 14.174ZM97.4352 7.352H99.1632L95.0412 11.996L99.5052 17H97.6692L93.3132 12.104V17H91.7292V7.352H93.3132V12.032L97.4352 7.352ZM104.911 7.19C106.087 7.19 106.957 7.448 107.521 7.964C108.085 8.48 108.367 9.302 108.367 10.43V17H107.215L106.909 15.632H106.837C106.417 16.16 105.973 16.55 105.505 16.802C105.049 17.054 104.413 17.18 103.597 17.18C102.721 17.18 101.995 16.952 101.419 16.496C100.843 16.028 100.555 15.302 100.555 14.318C100.555 13.358 100.933 12.62 101.689 12.104C102.445 11.576 103.609 11.288 105.181 11.24L106.819 11.186V10.61C106.819 9.806 106.645 9.248 106.297 8.936C105.949 8.624 105.457 8.468 104.821 8.468C104.317 8.468 103.837 8.546 103.381 8.702C102.925 8.846 102.499 9.014 102.103 9.206L101.617 8.018C102.037 7.79 102.535 7.598 103.111 7.442C103.687 7.274 104.287 7.19 104.911 7.19ZM106.801 12.284L105.379 12.338C104.179 12.386 103.345 12.578 102.877 12.914C102.421 13.25 102.193 13.724 102.193 14.336C102.193 14.876 102.355 15.272 102.679 15.524C103.015 15.776 103.441 15.902 103.957 15.902C104.773 15.902 105.451 15.68 105.991 15.236C106.531 14.78 106.801 14.084 106.801 13.148V12.284Z"/>
</g>
</g>
<g class="fault inactive" reference="XB-VALVE">
	<g class="animation-display">
<path d="M30.2969 12.158C30.2969 13.754 29.8889 14.99 29.0729 15.866C28.2689 16.742 27.1769 17.18 25.7969 17.18C24.9449 17.18 24.1829 16.988 23.5109 16.604C22.8509 16.208 22.3289 15.638 21.9449 14.894C21.5609 14.138 21.3689 13.226 21.3689 12.158C21.3689 10.562 21.7709 9.332 22.5749 8.468C23.3789 7.604 24.4709 7.172 25.8509 7.172C26.7269 7.172 27.4949 7.37 28.1549 7.766C28.8269 8.15 29.3489 8.714 29.7209 9.458C30.1049 10.19 30.2969 11.09 30.2969 12.158ZM23.0069 12.158C23.0069 13.298 23.2289 14.204 23.6729 14.876C24.1289 15.536 24.8489 15.866 25.8329 15.866C26.8049 15.866 27.5189 15.536 27.9749 14.876C28.4309 14.204 28.6589 13.298 28.6589 12.158C28.6589 11.018 28.4309 10.124 27.9749 9.476C27.5189 8.828 26.7989 8.504 25.8149 8.504C24.8309 8.504 24.1169 8.828 23.6729 9.476C23.2289 10.124 23.0069 11.018 23.0069 12.158ZM36.6773 17.18C35.8253 17.18 35.0633 17.006 34.3913 16.658C33.7313 16.31 33.2093 15.77 32.8253 15.038C32.4533 14.306 32.2673 13.37 32.2673 12.23C32.2673 11.042 32.4653 10.076 32.8613 9.332C33.2573 8.588 33.7913 8.042 34.4633 7.694C35.1473 7.346 35.9213 7.172 36.7853 7.172C37.2773 7.172 37.7513 7.226 38.2073 7.334C38.6633 7.43 39.0353 7.55 39.3233 7.694L38.8373 9.008C38.5493 8.9 38.2133 8.798 37.8293 8.702C37.4453 8.606 37.0853 8.558 36.7493 8.558C34.8533 8.558 33.9053 9.776 33.9053 12.212C33.9053 13.376 34.1333 14.27 34.5893 14.894C35.0573 15.506 35.7473 15.812 36.6593 15.812C37.1873 15.812 37.6493 15.758 38.0453 15.65C38.4533 15.542 38.8253 15.41 39.1613 15.254V16.658C38.8373 16.826 38.4773 16.952 38.0813 17.036C37.6973 17.132 37.2293 17.18 36.6773 17.18ZM39.9438 7.352H41.6358L43.7238 12.842C43.9038 13.322 44.0658 13.784 44.2098 14.228C44.3538 14.66 44.4618 15.074 44.5338 15.47H44.6058C44.6778 15.17 44.7918 14.78 44.9478 14.3C45.1038 13.808 45.2658 13.316 45.4338 12.824L47.3958 7.352H49.1058L44.9478 18.332C44.6118 19.244 44.1738 19.97 43.6338 20.51C43.1058 21.05 42.3738 21.32 41.4378 21.32C41.1498 21.32 40.8978 21.302 40.6818 21.266C40.4658 21.242 40.2798 21.212 40.1238 21.176V19.916C40.2558 19.94 40.4118 19.964 40.5918 19.988C40.7838 20.012 40.9818 20.024 41.1858 20.024C41.7378 20.024 42.1818 19.868 42.5178 19.556C42.8658 19.244 43.1358 18.83 43.3278 18.314L43.8318 17.036L39.9438 7.352ZM63.7176 7.352V17H50.6316V7.352H52.2156V15.668H56.3736V7.352H57.9576V15.668H62.1336V7.352H63.7176ZM70.5294 7.172C71.3574 7.172 72.0654 7.352 72.6534 7.712C73.2534 8.072 73.7094 8.582 74.0214 9.242C74.3454 9.89 74.5074 10.652 74.5074 11.528V12.482H67.9014C67.9254 13.574 68.2014 14.408 68.7294 14.984C69.2694 15.548 70.0194 15.83 70.9794 15.83C71.5914 15.83 72.1314 15.776 72.5994 15.668C73.0794 15.548 73.5714 15.38 74.0754 15.164V16.55C73.5834 16.766 73.0974 16.922 72.6174 17.018C72.1374 17.126 71.5674 17.18 70.9074 17.18C69.9954 17.18 69.1854 16.994 68.4774 16.622C67.7814 16.25 67.2354 15.698 66.8394 14.966C66.4554 14.222 66.2634 13.316 66.2634 12.248C66.2634 11.192 66.4374 10.286 66.7854 9.53C67.1454 8.774 67.6434 8.192 68.2794 7.784C68.9274 7.376 69.6774 7.172 70.5294 7.172ZM70.5114 8.468C69.7554 8.468 69.1554 8.714 68.7114 9.206C68.2794 9.686 68.0214 10.358 67.9374 11.222H72.8514C72.8394 10.406 72.6474 9.746 72.2754 9.242C71.9034 8.726 71.3154 8.468 70.5114 8.468ZM78.5476 7.352V11.366H83.7856V7.352H85.3696V17H83.7856V12.698H78.5476V17H76.9636V7.352H78.5476ZM89.9185 7.352V13.238C89.9185 13.382 89.9125 13.598 89.9005 13.886C89.8885 14.174 89.8705 14.462 89.8465 14.75C89.8345 15.038 89.8225 15.266 89.8105 15.434L94.9765 7.352H96.9205V17H95.4445V11.312C95.4445 11.12 95.4445 10.868 95.4445 10.556C95.4565 10.244 95.4685 9.938 95.4805 9.638C95.4925 9.326 95.5045 9.092 95.5165 8.936L90.3865 17H88.4245V7.352H89.9185ZM103.717 7.172C104.545 7.172 105.253 7.352 105.841 7.712C106.441 8.072 106.897 8.582 107.209 9.242C107.533 9.89 107.695 10.652 107.695 11.528V12.482H101.089C101.113 13.574 101.389 14.408 101.917 14.984C102.457 15.548 103.207 15.83 104.167 15.83C104.779 15.83 105.319 15.776 105.787 15.668C106.267 15.548 106.759 15.38 107.263 15.164V16.55C106.771 16.766 106.285 16.922 105.805 17.018C105.325 17.126 104.755 17.18 104.095 17.18C103.183 17.18 102.373 16.994 101.665 16.622C100.969 16.25 100.423 15.698 100.027 14.966C99.6429 14.222 99.4509 13.316 99.4509 12.248C99.4509 11.192 99.6249 10.286 99.9729 9.53C100.333 8.774 100.831 8.192 101.467 7.784C102.115 7.376 102.865 7.172 103.717 7.172ZM103.699 8.468C102.943 8.468 102.343 8.714 101.899 9.206C101.467 9.686 101.209 10.358 101.125 11.222H106.039C106.027 10.406 105.835 9.746 105.463 9.242C105.091 8.726 104.503 8.468 103.699 8.468Z" fill="#4CD964"/>
</g>
</g>
<g class="fault inactive" reference="XA-VALVE">
	<g class="animation-display">
<path d="M18.0273 3.32V7.208C18.9873 7.292 19.8213 7.544 20.5293 7.964C21.2493 8.384 21.8073 8.948 22.2033 9.656C22.5993 10.364 22.7973 11.204 22.7973 12.176C22.7973 13.628 22.3713 14.786 21.5193 15.65C20.6793 16.514 19.5153 17.012 18.0273 17.144V21.32H16.4793V17.144C15.5313 17.06 14.6973 16.814 13.9773 16.406C13.2573 15.986 12.6993 15.422 12.3033 14.714C11.9073 13.994 11.7093 13.148 11.7093 12.176C11.7093 10.712 12.1293 9.548 12.9693 8.684C13.8213 7.82 15.0093 7.328 16.5333 7.208V3.32H18.0273ZM16.5333 8.522C15.4293 8.63 14.6253 8.996 14.1213 9.62C13.6173 10.232 13.3653 11.084 13.3653 12.176C13.3653 13.268 13.6173 14.126 14.1213 14.75C14.6373 15.374 15.4413 15.74 16.5333 15.848V8.522ZM18.0273 8.54V15.848C19.1073 15.728 19.8993 15.356 20.4033 14.732C20.9073 14.108 21.1593 13.256 21.1593 12.176C21.1593 11.096 20.9013 10.25 20.3853 9.638C19.8813 9.026 19.0953 8.66 18.0273 8.54ZM26.8043 7.352V13.238C26.8043 13.382 26.7983 13.598 26.7863 13.886C26.7743 14.174 26.7563 14.462 26.7323 14.75C26.7203 15.038 26.7083 15.266 26.6963 15.434L31.8623 7.352H33.8063V17H32.3303V11.312C32.3303 11.12 32.3303 10.868 32.3303 10.556C32.3423 10.244 32.3543 9.938 32.3663 9.638C32.3783 9.326 32.3903 9.092 32.4023 8.936L27.2723 17H25.3103V7.352H26.8043ZM44.2207 17H42.6187V8.666H39.7747C39.6187 10.694 39.4027 12.332 39.1267 13.58C38.8507 14.816 38.4847 15.716 38.0287 16.28C37.5727 16.844 36.9967 17.126 36.3007 17.126C36.1447 17.126 35.9887 17.114 35.8327 17.09C35.6887 17.078 35.5687 17.048 35.4727 17V15.812C35.5447 15.836 35.6227 15.854 35.7067 15.866C35.7907 15.878 35.8747 15.884 35.9587 15.884C36.6067 15.884 37.1227 15.194 37.5067 13.814C37.9027 12.434 38.2027 10.28 38.4067 7.352H44.2207V17ZM48.8669 11.312H51.7289C54.2369 11.312 55.4909 12.224 55.4909 14.048C55.4909 14.948 55.1849 15.668 54.5729 16.208C53.9609 16.736 52.9889 17 51.6569 17H47.2829V7.352H48.8669V11.312ZM53.9069 14.138C53.9069 13.55 53.6969 13.154 53.2769 12.95C52.8689 12.734 52.2929 12.626 51.5489 12.626H48.8669V15.722H51.5849C52.2569 15.722 52.8089 15.602 53.2409 15.362C53.6849 15.122 53.9069 14.714 53.9069 14.138ZM63.7339 8.684H60.5839V17H59.0179V8.684H55.9039V7.352H63.7339V8.684ZM70.2245 7.172C71.4125 7.172 72.3665 7.586 73.0865 8.414C73.8185 9.242 74.1845 10.49 74.1845 12.158C74.1845 13.802 73.8185 15.05 73.0865 15.902C72.3665 16.754 71.4065 17.18 70.2065 17.18C69.4625 17.18 68.8445 17.042 68.3525 16.766C67.8725 16.478 67.4945 16.148 67.2185 15.776H67.1105C67.1345 15.98 67.1585 16.238 67.1825 16.55C67.2065 16.862 67.2185 17.132 67.2185 17.36V21.32H65.6345V7.352H66.9305L67.1465 8.666H67.2185C67.5065 8.246 67.8845 7.892 68.3525 7.604C68.8205 7.316 69.4445 7.172 70.2245 7.172ZM69.9365 8.504C68.9525 8.504 68.2565 8.78 67.8485 9.332C67.4525 9.884 67.2425 10.724 67.2185 11.852V12.158C67.2185 13.346 67.4105 14.264 67.7945 14.912C68.1905 15.548 68.9165 15.866 69.9725 15.866C70.5605 15.866 71.0405 15.704 71.4125 15.38C71.7965 15.056 72.0785 14.618 72.2585 14.066C72.4505 13.502 72.5465 12.86 72.5465 12.14C72.5465 11.036 72.3305 10.154 71.8985 9.494C71.4785 8.834 70.8245 8.504 69.9365 8.504ZM80.3627 7.19C81.5387 7.19 82.4087 7.448 82.9727 7.964C83.5367 8.48 83.8187 9.302 83.8187 10.43V17H82.6667L82.3607 15.632H82.2887C81.8687 16.16 81.4247 16.55 80.9567 16.802C80.5007 17.054 79.8647 17.18 79.0487 17.18C78.1727 17.18 77.4467 16.952 76.8707 16.496C76.2947 16.028 76.0067 15.302 76.0067 14.318C76.0067 13.358 76.3847 12.62 77.1407 12.104C77.8967 11.576 79.0607 11.288 80.6327 11.24L82.2707 11.186V10.61C82.2707 9.806 82.0967 9.248 81.7487 8.936C81.4007 8.624 80.9087 8.468 80.2727 8.468C79.7687 8.468 79.2887 8.546 78.8327 8.702C78.3767 8.846 77.9507 9.014 77.5547 9.206L77.0687 8.018C77.4887 7.79 77.9867 7.598 78.5627 7.442C79.1387 7.274 79.7387 7.19 80.3627 7.19ZM82.2527 12.284L80.8307 12.338C79.6307 12.386 78.7967 12.578 78.3287 12.914C77.8727 13.25 77.6447 13.724 77.6447 14.336C77.6447 14.876 77.8067 15.272 78.1307 15.524C78.4667 15.776 78.8927 15.902 79.4087 15.902C80.2247 15.902 80.9027 15.68 81.4427 15.236C81.9827 14.78 82.2527 14.084 82.2527 13.148V12.284ZM96.3206 20.348H94.7726V17H86.7986V7.352H88.3826V15.668H93.3686V7.352H94.9526V15.686H96.3206V20.348ZM99.6656 7.352V13.238C99.6656 13.382 99.6596 13.598 99.6476 13.886C99.6356 14.174 99.6176 14.462 99.5936 14.75C99.5816 15.038 99.5696 15.266 99.5576 15.434L104.724 7.352H106.668V17H105.192V11.312C105.192 11.12 105.192 10.868 105.192 10.556C105.204 10.244 105.216 9.938 105.228 9.638C105.24 9.326 105.252 9.092 105.264 8.936L100.134 17H98.1716V7.352H99.6656ZM110.332 17H108.496L111.25 12.95C110.878 12.854 110.518 12.704 110.17 12.5C109.822 12.284 109.54 11.99 109.324 11.618C109.108 11.234 109 10.76 109 10.196C109 9.272 109.312 8.57 109.936 8.09C110.56 7.598 111.388 7.352 112.42 7.352H116.74V17H115.156V13.166H112.816L110.332 17ZM110.53 10.214C110.53 10.766 110.734 11.18 111.142 11.456C111.562 11.72 112.144 11.852 112.888 11.852H115.156V8.666H112.582C111.85 8.666 111.322 8.81 110.998 9.098C110.686 9.386 110.53 9.758 110.53 10.214Z"/>
</g>
</g>
</g>
</svg>
