<svg width="1920" height="1080" viewBox="0 0 1920 1080" fill="none" xmlns="http://www.w3.org/2000/svg">
<path d="M0.995117 1050L0.995117 1048L1919 1048L1919 1049L1919 1050L0.995117 1050Z" fill="#BEBEBE"/>
<path d="M0.995117 1026L0.995117 1024L1919 1024L1919 1025L1919 1026L0.995117 1026Z" fill="#BEBEBE"/>
<path d="M0.995117 1018L0.995117 1016L1919 1016L1919 1017L1919 1018L0.995117 1018Z" fill="#BEBEBE"/>
<path d="M0.995117 1034L0.995117 1032L1919 1032L1919 1033L1919 1034L0.995117 1034Z" fill="#BEBEBE"/>
<path d="M0.995117 1074L0.995117 1072L826.002 1072L826.002 1073L826.002 1074L0.995117 1074Z" fill="#BEBEBE"/>
<path d="M0.995117 1066L0.995117 1064L1070 1064L1070 1065L1070 1066L0.995117 1066Z" fill="#BEBEBE"/>
<path d="M0.995117 1042L0.995117 1040L1919 1040L1919 1041L1919 1042L0.995117 1042Z" fill="#BEBEBE"/>
<path d="M0.995117 1057.99L0.995117 1055.99L1919 1055.99L1919 1056.99L1919 1057.99L0.995117 1057.99Z" fill="#BEBEBE"/>
<path d="M1070 1079L1068 1079L1068 1064L1069 1064L1070 1064L1070 1079Z" fill="#BEBEBE"/>
<path d="M826.003 1078.99L824.003 1078.99L824.003 1071.99L825.003 1071.99L826.003 1071.99L826.003 1078.99Z" fill="#BEBEBE"/>
<rect x="0.5" y="0.5" width="1919" height="1079" stroke="#BEBEBE"/>
</svg>
