<svg width="1921" height="1082" viewBox="0 0 1921 1082" fill="none" xmlns="http://www.w3.org/2000/svg">
<path d="M1062 1080.18L1060 1080.18L1060 1048.99L1061 1048.99L1062 1048.99L1062 1080.18Z" fill="#BEBEBE"/>
<path d="M1.95105 1050.99L1.95105 1048.99L1062 1048.99L1062 1049.99L1062 1050.99L1.95105 1050.99Z" fill="#BEBEBE"/>
<path d="M1.95105 1018.99L1.95105 1016.99L1919.95 1016.99L1919.95 1017.99L1919.95 1018.99L1.95105 1018.99Z" fill="#BEBEBE"/>
<path d="M1.95105 1026.99L1.95105 1024.99L1919.95 1024.99L1919.95 1025.99L1919.95 1026.99L1.95105 1026.99Z" fill="#BEBEBE"/>
<path d="M1.93152 1034.98L1.93152 1032.98L1919.96 1032.98L1919.96 1033.98L1919.96 1034.98L1.93152 1034.98Z" fill="#BEBEBE"/>
<path d="M1.82507 1043L1.82507 1041L1919.95 1041L1919.95 1042L1919.95 1043L1.82507 1043Z" fill="#BEBEBE"/>
<path d="M1.95105 1058.99L1.95105 1056.99L817.979 1056.99L817.979 1057.99L817.979 1058.99L1.95105 1058.99Z" fill="#BEBEBE"/>
<path d="M817.979 1080.15L815.979 1080.15L815.979 1057.03L816.979 1057.03L817.979 1057.03L817.979 1080.15Z" fill="#BEBEBE"/>
<rect x="1.46265" y="1.35352" width="1919" height="1079.15" stroke="#BEBEBE"/>
</svg>
