<svg width="1921" height="1081" viewBox="0 0 1921 1081" fill="none" xmlns="http://www.w3.org/2000/svg">
<path d="M1.95886 1034.99L1.95886 1032.99L1097 1032.99L1097 1033.99L1097 1034.99L1.95886 1034.99Z" fill="#BEBEBE"/>
<path d="M1.95251 1019.02L1.95251 1017.02L1919.95 1017.02L1919.95 1018.02L1919.95 1019.02L1.95251 1019.02Z" fill="#BEBEBE"/>
<path d="M1.95569 1026.99L1.95569 1024.99L1919.96 1024.99L1919.96 1025.99L1919.96 1026.99L1.95569 1026.99Z" fill="#BEBEBE"/>
<path d="M1.21936 1043L1.21936 1041L850.996 1041L850.996 1042L850.996 1043L1.21936 1043Z" fill="#BEBEBE"/>
<path d="M852.996 1080.03L850.996 1080.03L850.996 1041L851.996 1041L852.996 1041L852.996 1080.03Z" fill="#BEBEBE"/>
<path d="M1096.99 1079.98L1094.99 1079.98L1094.99 1032.99L1095.99 1032.99L1096.99 1032.99L1096.99 1079.98Z" fill="#BEBEBE"/>
<rect x="1.46289" y="1.48926" width="1918.99" height="1079" stroke="#BEBEBE"/>
</svg>
