
<svg width="80" height="80" viewBox="0 0 80 80" fill="none" xmlns="http://www.w3.org/2000/svg">





<!-- alarm-->
<g class ="fault inactive" reference ="alarm">
<g class="animation-fail">
<path d="M48.8838 26.3711C47.5601 25.6072 45.8675 26.0605 45.1032 27.3836L28.3712 56.3506C27.607 57.6737 28.0605 59.3655 29.3842 60.1294C29.805 60.3722 30.2822 60.5 30.768 60.5H64.232C64.7178 60.5 65.195 60.3722 65.6158 60.1294C66.9395 59.3655 67.393 57.6737 66.6288 56.3506L49.8968 27.3836C49.6539 26.9631 49.3045 26.6139 48.8838 26.3711V26.3711Z" fill="black"/>
<path d="M48.6709 29.4103C47.5508 28.7491 46.1186 29.1415 45.4719 30.2869L31.3141 55.3628C30.6675 56.5081 31.0512 57.9727 32.1713 58.634C32.5273 58.8441 32.9311 58.9548 33.3422 58.9548H61.6578C62.0689 58.9548 62.4727 58.8441 62.8287 58.634C63.9488 57.9727 64.3325 56.5081 63.6859 55.3628L49.528 30.2869C49.3225 29.9228 49.0269 29.6205 48.6709 29.4103V29.4103Z" fill="white"/>
<path d="M49.9334 52.5478C49.9335 52.8772 49.8706 53.2034 49.7484 53.5077C49.6261 53.812 49.4469 54.0885 49.2209 54.3214C48.9949 54.5544 48.7266 54.7391 48.4313 54.8652C48.136 54.9913 47.8195 55.0561 47.4999 55.0561C47.1803 55.0561 46.8638 54.9913 46.5685 54.8652C46.2732 54.7391 46.0049 54.5544 45.7789 54.3214C45.5529 54.0885 45.3737 53.812 45.2514 53.5077C45.1292 53.2034 45.0663 52.8772 45.0664 52.5478C45.0663 52.2185 45.1292 51.8923 45.2514 51.588C45.3737 51.2837 45.5529 51.0072 45.7789 50.7743C46.0049 50.5413 46.2732 50.3566 46.5685 50.2305C46.8638 50.1044 47.1803 50.0396 47.4999 50.0396C47.8195 50.0396 48.136 50.1044 48.4313 50.2305C48.7266 50.3566 48.9949 50.5413 49.2209 50.7743C49.4469 51.0072 49.6261 51.2837 49.7484 51.588C49.8706 51.8923 49.9335 52.2185 49.9334 52.5478V52.5478Z" fill="black"/>
<path d="M45.0875 39.8347C44.9121 38.4616 45.8501 37.202 47.1825 37.0213C48.515 36.8405 49.7374 37.807 49.9129 39.1801C49.9406 39.3973 49.9406 39.6174 49.9129 39.8347L48.7372 49.0362H46.2631L45.0875 39.8347Z" fill="black"/>
<path d="M47.4573 28.0601C46.7837 28.0752 46.134 28.4319 45.7725 29.059L30.2675 55.9582C29.7167 56.9138 30.0437 58.1358 30.9977 58.6875C31.301 58.8629 31.6449 58.9551 31.9951 58.9551H63.0049C63.3551 58.9551 63.699 58.8629 64.0023 58.6875C64.9563 58.1358 65.2833 56.9138 64.7325 55.9582L49.2275 29.059C49.0525 28.7553 48.8006 28.503 48.4973 28.3277C48.1694 28.138 47.8101 28.0522 47.4573 28.0601ZM47.4608 31.4994C47.5703 31.4916 47.6827 31.517 47.785 31.5761C47.8716 31.6262 47.9433 31.6979 47.9933 31.7848L61.7601 55.6674C61.9174 55.9403 61.8243 56.2893 61.5517 56.447C61.465 56.4971 61.3668 56.5237 61.2667 56.5237H33.7351C33.4203 56.5237 33.1651 56.2681 33.1651 55.9528C33.1651 55.8526 33.19 55.754 33.2399 55.6674L47.0067 31.7848C47.105 31.6142 47.2783 31.5123 47.4608 31.4994Z" fill="#FF0000"/>
</g>
</g>
<!--  ELECTRO alarm-->
<g class ="fault inactive" reference ="el-alarm">
<g class="animation-fail">
<path d="M47.4573 28.0601C46.7837 28.0752 46.134 28.4319 45.7725 29.059L30.2675 55.9582C29.7167 56.9138 30.0437 58.1358 30.9977 58.6875C31.301 58.8629 31.6449 58.9551 31.9951 58.9551H63.0049C63.3551 58.9551 63.699 58.8629 64.0023 58.6875C64.9563 58.1358 65.2833 56.9138 64.7325 55.9582L49.2275 29.059C49.0525 28.7553 48.8006 28.503 48.4973 28.3277C48.1694 28.138 47.8101 28.0522 47.4573 28.0601ZM47.4608 31.4994C47.5703 31.4916 47.6827 31.517 47.785 31.5761C47.8716 31.6262 47.9433 31.6979 47.9933 31.7848L61.7601 55.6674C61.9174 55.9403 61.8243 56.2893 61.5517 56.447C61.465 56.4971 61.3668 56.5237 61.2667 56.5237H33.7351C33.4203 56.5237 33.1651 56.2681 33.1651 55.9528C33.1651 55.8526 33.19 55.754 33.2399 55.6674L47.0067 31.7848C47.105 31.6142 47.2783 31.5123 47.4608 31.4994Z" fill="#FF0000"/>
<path d="M47.4573 28.0601C46.7837 28.0752 46.134 28.4319 45.7725 29.059L30.2675 55.9582C29.7167 56.9138 30.0437 58.1358 30.9977 58.6875C31.301 58.8629 31.6449 58.9551 31.9951 58.9551H63.0049C63.3551 58.9551 63.699 58.8629 64.0023 58.6875C64.9563 58.1358 65.2833 56.9138 64.7325 55.9582L49.2275 29.059C49.0525 28.7553 48.8006 28.503 48.4973 28.3277C48.1694 28.138 47.8101 28.0522 47.4573 28.0601ZM47.4608 31.4994C47.5703 31.4916 47.6827 31.517 47.785 31.5761C47.8716 31.6262 47.9433 31.6979 47.9933 31.7848L61.7601 55.6674C61.9174 55.9403 61.8243 56.2893 61.5517 56.447C61.465 56.4971 61.3668 56.5237 61.2667 56.5237H33.7351C33.4203 56.5237 33.1651 56.2681 33.1651 55.9528C33.1651 55.8526 33.19 55.754 33.2399 55.6674L47.0067 31.7848C47.105 31.6142 47.2783 31.5123 47.4608 31.4994Z" fill="#FF0000"/>
<path d="M48.8838 26.3711C47.5601 25.6072 45.8675 26.0605 45.1032 27.3836L28.3712 56.3506C27.607 57.6737 28.0605 59.3655 29.3842 60.1294C29.805 60.3722 30.2822 60.5 30.768 60.5H64.232C64.7178 60.5 65.195 60.3722 65.6158 60.1294C66.9395 59.3655 67.393 57.6737 66.6288 56.3506L49.8968 27.3836C49.6539 26.9631 49.3045 26.6139 48.8838 26.3711V26.3711Z" fill="black"/>
<path d="M48.6709 29.4103C47.5508 28.7491 46.1186 29.1415 45.4719 30.2869L31.3141 55.3628C30.6675 56.5081 31.0512 57.9727 32.1713 58.634C32.5273 58.8441 32.9311 58.9548 33.3422 58.9548H61.6578C62.0689 58.9548 62.4727 58.8441 62.8287 58.634C63.9488 57.9727 64.3325 56.5081 63.6859 55.3628L49.528 30.2869C49.3225 29.9228 49.0269 29.6205 48.6709 29.4103V29.4103Z" fill="white"/>
<path fill-rule="evenodd" clip-rule="evenodd" d="M46.2369 56L55 44.0263L47.1723 45.1886C46.9262 45.2325 46.6554 45.1447 46.4831 44.9912C46.2862 44.8158 46.2123 44.5746 46.2615 44.3553L47.9108 36L39 49.2456L46.9015 48.0614H47.0492C47.2708 48.0614 47.4677 48.1272 47.6154 48.2807C47.8123 48.4342 47.8862 48.6754 47.8369 48.9167L46.2369 56Z" fill="black"/>
<path d="M47.4573 28.0601C46.7837 28.0752 46.134 28.4319 45.7725 29.059L30.2675 55.9582C29.7167 56.9138 30.0437 58.1358 30.9977 58.6875C31.301 58.8629 31.6449 58.9551 31.9951 58.9551H63.0049C63.3551 58.9551 63.699 58.8629 64.0023 58.6875C64.9563 58.1358 65.2833 56.9138 64.7325 55.9582L49.2275 29.059C49.0525 28.7553 48.8006 28.503 48.4973 28.3277C48.1694 28.138 47.8101 28.0522 47.4573 28.0601ZM47.4608 31.4994C47.5703 31.4916 47.6827 31.517 47.785 31.5761C47.8716 31.6262 47.9433 31.6979 47.9933 31.7848L61.7601 55.6674C61.9174 55.9403 61.8243 56.2893 61.5517 56.447C61.465 56.4971 61.3668 56.5237 61.2667 56.5237H33.7351C33.4203 56.5237 33.1651 56.2681 33.1651 55.9528C33.1651 55.8526 33.19 55.754 33.2399 55.6674L47.0067 31.7848C47.105 31.6142 47.2783 31.5123 47.4608 31.4994Z" fill="#FF0000"/>
</g>
</g>
<!--  VZLOM alarm-->
<g class ="fault inactive" reference ="vz-alarm">
<g class="animation-fail">
<path d="M47.4573 28.0601C46.7837 28.0752 46.134 28.4319 45.7725 29.059L30.2675 55.9582C29.7167 56.9138 30.0437 58.1358 30.9977 58.6875C31.301 58.8629 31.6449 58.9551 31.9951 58.9551H63.0049C63.3551 58.9551 63.699 58.8629 64.0023 58.6875C64.9563 58.1358 65.2833 56.9138 64.7325 55.9582L49.2275 29.059C49.0525 28.7553 48.8006 28.503 48.4973 28.3277C48.1694 28.138 47.8101 28.0522 47.4573 28.0601ZM47.4608 31.4994C47.5703 31.4916 47.6827 31.517 47.785 31.5761C47.8716 31.6262 47.9433 31.6979 47.9933 31.7848L61.7601 55.6674C61.9174 55.9403 61.8243 56.2893 61.5517 56.447C61.465 56.4971 61.3668 56.5237 61.2667 56.5237H33.7351C33.4203 56.5237 33.1651 56.2681 33.1651 55.9528C33.1651 55.8526 33.19 55.754 33.2399 55.6674L47.0067 31.7848C47.105 31.6142 47.2783 31.5123 47.4608 31.4994Z" fill="#FF0000"/>
<path d="M47.4573 28.0601C46.7837 28.0752 46.134 28.4319 45.7725 29.059L30.2675 55.9582C29.7167 56.9138 30.0437 58.1358 30.9977 58.6875C31.301 58.8629 31.6449 58.9551 31.9951 58.9551H63.0049C63.3551 58.9551 63.699 58.8629 64.0023 58.6875C64.9563 58.1358 65.2833 56.9138 64.7325 55.9582L49.2275 29.059C49.0525 28.7553 48.8006 28.503 48.4973 28.3277C48.1694 28.138 47.8101 28.0522 47.4573 28.0601ZM47.4608 31.4994C47.5703 31.4916 47.6827 31.517 47.785 31.5761C47.8716 31.6262 47.9433 31.6979 47.9933 31.7848L61.7601 55.6674C61.9174 55.9403 61.8243 56.2893 61.5517 56.447C61.465 56.4971 61.3668 56.5237 61.2667 56.5237H33.7351C33.4203 56.5237 33.1651 56.2681 33.1651 55.9528C33.1651 55.8526 33.19 55.754 33.2399 55.6674L47.0067 31.7848C47.105 31.6142 47.2783 31.5123 47.4608 31.4994Z" fill="#FF0000"/>
<path d="M48.8838 26.3711C47.5601 25.6072 45.8675 26.0605 45.1032 27.3836L28.3712 56.3506C27.607 57.6737 28.0605 59.3655 29.3842 60.1294C29.805 60.3722 30.2822 60.5 30.768 60.5H64.232C64.7178 60.5 65.195 60.3722 65.6158 60.1294C66.9395 59.3655 67.393 57.6737 66.6288 56.3506L49.8968 27.3836C49.6539 26.9631 49.3045 26.6139 48.8838 26.3711V26.3711Z" fill="black"/>
<path d="M48.6709 29.4103C47.5508 28.7491 46.1186 29.1415 45.4719 30.2869L31.3141 55.3628C30.6675 56.5081 31.0512 57.9727 32.1713 58.634C32.5273 58.8441 32.9311 58.9548 33.3422 58.9548H61.6578C62.0689 58.9548 62.4727 58.8441 62.8287 58.634C63.9488 57.9727 64.3325 56.5081 63.6859 55.3628L49.528 30.2869C49.3225 29.9228 49.0269 29.6205 48.6709 29.4103V29.4103Z" fill="white"/>
<path d="M47.4573 28.0601C46.7837 28.0752 46.134 28.4319 45.7725 29.059L30.2675 55.9582C29.7167 56.9138 30.0437 58.1358 30.9977 58.6875C31.301 58.8629 31.6449 58.9551 31.9951 58.9551H63.0049C63.3551 58.9551 63.699 58.8629 64.0023 58.6875C64.9563 58.1358 65.2833 56.9138 64.7325 55.9582L49.2275 29.059C49.0525 28.7553 48.8006 28.503 48.4973 28.3277C48.1694 28.138 47.8101 28.0522 47.4573 28.0601ZM47.4608 31.4994C47.5703 31.4916 47.6827 31.517 47.785 31.5761C47.8716 31.6262 47.9433 31.6979 47.9933 31.7848L61.7601 55.6674C61.9174 55.9403 61.8243 56.2893 61.5517 56.447C61.465 56.4971 61.3668 56.5237 61.2667 56.5237H33.7351C33.4203 56.5237 33.1651 56.2681 33.1651 55.9528C33.1651 55.8526 33.19 55.754 33.2399 55.6674L47.0067 31.7848C47.105 31.6142 47.2783 31.5123 47.4608 31.4994Z" fill="#FF0000"/>
<path d="M47.4573 28.0601C46.7837 28.0752 46.134 28.4319 45.7725 29.059L30.2675 55.9582C29.7167 56.9138 30.0437 58.1358 30.9977 58.6875C31.301 58.8629 31.6449 58.9551 31.9951 58.9551H63.0049C63.3551 58.9551 63.699 58.8629 64.0023 58.6875C64.9563 58.1358 65.2833 56.9138 64.7325 55.9582L49.2275 29.059C49.0525 28.7553 48.8006 28.503 48.4973 28.3277C48.1694 28.138 47.8101 28.0522 47.4573 28.0601ZM47.4608 31.4994C47.5703 31.4916 47.6827 31.517 47.785 31.5761C47.8716 31.6262 47.9433 31.6979 47.9933 31.7848L61.7601 55.6674C61.9174 55.9403 61.8243 56.2893 61.5517 56.447C61.465 56.4971 61.3668 56.5237 61.2667 56.5237H33.7351C33.4203 56.5237 33.1651 56.2681 33.1651 55.9528C33.1651 55.8526 33.19 55.754 33.2399 55.6674L47.0067 31.7848C47.105 31.6142 47.2783 31.5123 47.4608 31.4994Z" fill="#FF0000"/>
<path d="M47.4573 28.0601C46.7837 28.0752 46.134 28.4319 45.7725 29.059L30.2675 55.9582C29.7167 56.9138 30.0437 58.1358 30.9977 58.6875C31.301 58.8629 31.6449 58.9551 31.9951 58.9551H63.0049C63.3551 58.9551 63.699 58.8629 64.0023 58.6875C64.9563 58.1358 65.2833 56.9138 64.7325 55.9582L49.2275 29.059C49.0525 28.7553 48.8006 28.503 48.4973 28.3277C48.1694 28.138 47.8101 28.0522 47.4573 28.0601ZM47.4608 31.4994C47.5703 31.4916 47.6827 31.517 47.785 31.5761C47.8716 31.6262 47.9433 31.6979 47.9933 31.7848L61.7601 55.6674C61.9174 55.9403 61.8243 56.2893 61.5517 56.447C61.465 56.4971 61.3668 56.5237 61.2667 56.5237H33.7351C33.4203 56.5237 33.1651 56.2681 33.1651 55.9528C33.1651 55.8526 33.19 55.754 33.2399 55.6674L47.0067 31.7848C47.105 31.6142 47.2783 31.5123 47.4608 31.4994Z" fill="#FF0000"/>
<path d="M49.1309 55V41H42V55H49.1309Z" fill="#FF0000"/>
<path d="M49.5795 44.5654C50.4401 44.5654 51.138 43.8322 51.138 42.9277C51.138 42.0232 50.4401 41.2899 49.5795 41.2899C48.7189 41.2899 48.0212 42.0232 48.0212 42.9277C48.0212 43.8322 48.7189 44.5654 49.5795 44.5654Z" fill="black"/>
<path d="M47.4958 47.4258L49.4241 47.3534C49.4241 47.3534 49.2865 45.1096 49.562 45.0372C49.8375 44.9648 51.1459 44.241 51.3524 43.8792L54.4516 44.0239L55.6224 46.3401L54.6584 47.0639L53.3497 45.182L52.6611 45.4715L54.3829 48.3666C54.3829 48.3666 54.6584 50.7551 54.5205 51.117C54.3829 51.4789 56.5867 50.3933 57 51.0447L56.7932 52.5646H53.0742L53.2121 50.3209L51.6282 51.4066L51.3524 54.5914H49.9751L49.8375 50.4658L51.6968 49.3078C51.6968 49.3078 51.9723 49.0183 51.8347 48.8011C51.6968 48.584 51.2148 47.4983 51.2148 47.4983L50.8704 48.6564L47.6337 48.9459L47.4958 47.4259V47.4258Z" fill="black"/>
</g>
</g>
<!--  BLOCKED alarm-->
<g class ="fault inactive" reference ="block-alarm">
<g class="animation-fail">
<path d="M48.8838 26.3711C47.5601 25.6072 45.8675 26.0605 45.1032 27.3836L28.3712 56.3506C27.607 57.6737 28.0605 59.3655 29.3842 60.1294C29.805 60.3722 30.2822 60.5 30.768 60.5H64.232C64.7178 60.5 65.195 60.3722 65.6158 60.1294C66.9395 59.3655 67.393 57.6737 66.6288 56.3506L49.8968 27.3836C49.6539 26.9631 49.3045 26.6139 48.8838 26.3711V26.3711Z" fill="black"/>
<path d="M48.6709 29.4103C47.5508 28.7491 46.1186 29.1415 45.4719 30.2869L31.3141 55.3628C30.6675 56.5081 31.0512 57.9727 32.1713 58.634C32.5273 58.8441 32.9311 58.9548 33.3422 58.9548H61.6578C62.0689 58.9548 62.4727 58.8441 62.8287 58.634C63.9488 57.9727 64.3325 56.5081 63.6859 55.3628L49.528 30.2869C49.3225 29.9228 49.0269 29.6205 48.6709 29.4103V29.4103Z" fill="white"/>
<path d="M47.4573 28.0601C46.7837 28.0752 46.134 28.4319 45.7725 29.059L30.2675 55.9582C29.7167 56.9138 30.0437 58.1358 30.9977 58.6875C31.301 58.8629 31.6449 58.9551 31.9951 58.9551H63.0049C63.3551 58.9551 63.699 58.8629 64.0023 58.6875C64.9563 58.1358 65.2833 56.9138 64.7325 55.9582L49.2275 29.059C49.0525 28.7553 48.8006 28.503 48.4973 28.3277C48.1694 28.138 47.8101 28.0522 47.4573 28.0601ZM47.4608 31.4994C47.5703 31.4916 47.6827 31.517 47.785 31.5761C47.8716 31.6262 47.9433 31.6979 47.9933 31.7848L61.7601 55.6674C61.9174 55.9403 61.8243 56.2893 61.5517 56.447C61.465 56.4971 61.3668 56.5237 61.2667 56.5237H33.7351C33.4203 56.5237 33.1651 56.2681 33.1651 55.9528C33.1651 55.8526 33.19 55.754 33.2399 55.6674L47.0067 31.7848C47.105 31.6142 47.2783 31.5123 47.4608 31.4994Z" fill="#FF0000"/>
<path d="M47.4573 28.0601C46.7837 28.0752 46.134 28.4319 45.7725 29.059L30.2675 55.9582C29.7167 56.9138 30.0437 58.1358 30.9977 58.6875C31.301 58.8629 31.6449 58.9551 31.9951 58.9551H63.0049C63.3551 58.9551 63.699 58.8629 64.0023 58.6875C64.9563 58.1358 65.2833 56.9138 64.7325 55.9582L49.2275 29.059C49.0525 28.7553 48.8006 28.503 48.4973 28.3277C48.1694 28.138 47.8101 28.0522 47.4573 28.0601ZM47.4608 31.4994C47.5703 31.4916 47.6827 31.517 47.785 31.5761C47.8716 31.6262 47.9433 31.6979 47.9933 31.7848L61.7601 55.6674C61.9174 55.9403 61.8243 56.2893 61.5517 56.447C61.465 56.4971 61.3668 56.5237 61.2667 56.5237H33.7351C33.4203 56.5237 33.1651 56.2681 33.1651 55.9528C33.1651 55.8526 33.19 55.754 33.2399 55.6674L47.0067 31.7848C47.105 31.6142 47.2783 31.5123 47.4608 31.4994Z" fill="#FF0000"/>
<path d="M47.4573 28.0601C46.7837 28.0752 46.134 28.4319 45.7725 29.059L30.2675 55.9582C29.7167 56.9138 30.0437 58.1358 30.9977 58.6875C31.301 58.8629 31.6449 58.9551 31.9951 58.9551H63.0049C63.3551 58.9551 63.699 58.8629 64.0023 58.6875C64.9563 58.1358 65.2833 56.9138 64.7325 55.9582L49.2275 29.059C49.0525 28.7553 48.8006 28.503 48.4973 28.3277C48.1694 28.138 47.8101 28.0522 47.4573 28.0601ZM47.4608 31.4994C47.5703 31.4916 47.6827 31.517 47.785 31.5761C47.8716 31.6262 47.9433 31.6979 47.9933 31.7848L61.7601 55.6674C61.9174 55.9403 61.8243 56.2893 61.5517 56.447C61.465 56.4971 61.3668 56.5237 61.2667 56.5237H33.7351C33.4203 56.5237 33.1651 56.2681 33.1651 55.9528C33.1651 55.8526 33.19 55.754 33.2399 55.6674L47.0067 31.7848C47.105 31.6142 47.2783 31.5123 47.4608 31.4994Z" fill="#FF0000"/>
<path d="M46.6511 54.7802L45.3308 40.8426L41.3486 41.2198L42.669 55.1574L46.6511 54.7802Z" fill="#FF0000"/>
<path d="M49 49V46H46V49H49Z" fill="black"/>
<path d="M51.9515 55.4517L54.1277 41.6219L50.1763 41.0001L48.0001 54.83L51.9515 55.4517Z" fill="#FF0000"/>
</g>
</g>
</svg>