<svg width="88" height="77" viewBox="0 0 88 77" fill="none" xmlns="http://www.w3.org/2000/svg">

<!--LIFT -->
<g class="fault inactive" reference="stage">
<g class="animation-display">
<path fill-rule="evenodd" clip-rule="evenodd" d="M49.0373 15.2497V72.38H69.0405V15.2497H49.0373ZM23.9237 72.38V13.9318C23.9237 13.1411 24.4347 12.6139 25.2378 12.6139H70.2816C71.0846 12.6139 71.5956 13.1411 71.5956 13.9318V72.38H76.5599V3.84998H11.4399V72.38H23.9237ZM17.7183 37.8514L21.5146 41.0143C21.7336 41.212 21.8066 42.1345 20.7115 41.7392L17.7183 39.0375L14.2871 41.8709L13.8491 41.7392V41.0143L17.7183 37.8514ZM17.7183 47.1425L20.7115 44.4408C21.8066 44.0455 21.7336 44.968 21.5146 45.2315L17.7183 48.3286L13.8491 45.2315V44.4408L14.2871 44.309L17.7183 47.1425ZM47.7232 10.6371C44.219 10.6371 44.219 5.76091 47.7232 5.76091C51.3004 5.76091 51.3004 10.6371 47.7232 10.6371ZM26.4789 15.2497V72.38H46.4821V15.2497H26.4789Z"/>
</g>
</g>
</svg>
