<svg width="31" height="31" viewBox="0 0 31 31" fill="none" xmlns="http://www.w3.org/2000/svg">
<g class="fault inactive" reference ='ON'>
<g class="animation-display">
<path d="M24.3121 6.2288C24.0737 5.92537 23.6567 5.92537 23.4183 6.2288C23.1502 6.49851 23.1502 6.97051 23.4183 7.24023C27.4402 11.8254 27.4402 19.2425 23.4183 23.794C23.1502 24.0974 23.1502 24.5357 23.4183 24.8391C23.5375 24.974 23.7162 25.0414 23.8652 25.0414C24.0439 25.0414 24.1929 24.974 24.3121 24.8391C28.8702 19.7145 28.8702 11.3534 24.3121 6.2288ZM1.96848 9.66766H6.61594C7.18198 9.66766 7.62885 10.1734 7.62885 10.8139V19.4785C7.62885 20.1191 7.18198 20.6248 6.61594 20.6248H1.96848C1.40244 20.6248 0.955566 20.1191 0.955566 19.4785V10.8139C0.955566 10.1734 1.40244 9.66766 1.96848 9.66766ZM18.0261 29.3231V0.969358C18.0261 0.531071 17.7877 0.328785 17.6686 0.261356C17.5792 0.193928 17.3111 0.0590703 17.0132 0.227642C15.7917 1.50879 8.61197 8.45394 8.61197 9.60023C8.61197 13.3088 8.61197 17.0511 8.61197 20.7934C8.61197 21.7374 15.8513 28.8511 17.0132 30.0648C17.3111 30.2334 17.5792 30.0986 17.6686 30.0311C17.7877 29.9637 18.0261 29.7614 18.0261 29.3231ZM26.2187 2.55393C25.9804 2.28422 25.5633 2.28422 25.2952 2.55393C25.0569 2.85736 25.0569 3.29565 25.2952 3.59908C28.1254 6.76823 29.6745 11.0162 29.6745 15.5002C29.6745 20.018 28.1254 24.2323 25.2952 27.4351C25.0569 27.7048 25.0569 28.1768 25.2952 28.4465C25.4441 28.6151 25.5931 28.6825 25.7719 28.6825C25.9208 28.6825 26.0996 28.6151 26.2187 28.4465C29.2872 25.0077 30.9556 20.3888 30.9556 15.5002C30.9556 10.6117 29.2872 6.02651 26.2187 2.55393ZM22.0479 8.42023C21.7798 8.1168 21.3627 8.1168 21.1244 8.42023C20.8563 8.68994 20.8563 9.16194 21.1244 9.43166C23.895 12.6008 23.895 17.6917 21.1244 20.8608C20.8563 21.1305 20.8563 21.6025 21.1244 21.8723C21.2436 22.0071 21.4223 22.0745 21.5713 22.0745C21.75 22.0745 21.899 22.0071 22.0479 21.8723C25.325 18.1637 25.325 12.1288 22.0479 8.42023Z" />
</g>
</g>
</svg>
