<svg width="39" height="35" viewBox="0 0 39 35" fill="none" xmlns="http://www.w3.org/2000/svg">
	<style>
       .active .animation-revfail {
  display: none;
}
/* Мигания предупреждений */
.inactive .animation-revfail {
  display: block;
  -webkit-animation: showhide .8s infinite; /* Safari 4+ */
  -moz-animation: showhide .8s infinite; /* Fx 5+ */
  -o-animation: showhide .8s infinite; /* Opera 12+ */
  animation: showhide .8s infinite; /* IE 10+, Fx 29+ */
}
   </style>
<g class="fault inactive" reference="ALARM">
<g  class="animation-revfail">
<g id="Group 2">
<path id="path19629" d="M20.8838 0.371068C19.5601 -0.392811 17.8675 0.0605111 17.1032 1.3836L0.371247 30.3506C-0.392996 31.6737 0.0605361 33.3655 1.38424 34.1294C1.80497 34.3722 2.28222 34.5 2.76803 34.5H36.232C36.7178 34.5 37.195 34.3722 37.6158 34.1294C38.9395 33.3655 39.393 31.6737 38.6288 30.3506L21.8968 1.3836C21.6539 0.963074 21.3045 0.613862 20.8838 0.371068V0.371068Z" fill="black"/>
<path id="path19629_2" d="M20.6709 3.41009C19.5508 2.74882 18.1186 3.14125 17.4719 4.28661L3.31413 29.3625C2.66746 30.5079 3.05122 31.9724 4.17128 32.6337C4.52728 32.8439 4.93111 32.9545 5.34218 32.9545H33.6578C34.0689 32.9545 34.4727 32.8439 34.8287 32.6337C35.9488 31.9724 36.3325 30.5079 35.6859 29.3625L21.528 4.28661C21.3225 3.92257 21.0269 3.62027 20.6709 3.41009V3.41009Z" fill="white"/>
<path id="path19631" d="M21.9334 26.5474C21.9335 26.8767 21.8706 27.2029 21.7484 27.5072C21.6261 27.8115 21.4469 28.088 21.2209 28.3209C20.9949 28.5539 20.7266 28.7386 20.4313 28.8647C20.136 28.9908 19.8195 29.0557 19.4999 29.0557C19.1803 29.0557 18.8638 28.9908 18.5685 28.8647C18.2732 28.7386 18.0049 28.5539 17.7789 28.3209C17.5529 28.088 17.3737 27.8115 17.2514 27.5072C17.1292 27.2029 17.0663 26.8767 17.0664 26.5474C17.0663 26.218 17.1292 25.8918 17.2514 25.5875C17.3737 25.2832 17.5529 25.0067 17.7789 24.7738C18.0049 24.5408 18.2732 24.3561 18.5685 24.23C18.8638 24.1039 19.1803 24.0391 19.4999 24.0391C19.8195 24.0391 20.136 24.1039 20.4313 24.23C20.7266 24.3561 20.9949 24.5408 21.2209 24.7738C21.4469 25.0067 21.6261 25.2832 21.7484 25.5875C21.8706 25.8918 21.9335 26.218 21.9334 26.5474V26.5474Z" fill="black"/>
<path id="path19633" d="M17.0875 13.8352C16.9121 12.4621 17.8501 11.2025 19.1825 11.0217C20.515 10.841 21.7374 11.8075 21.9129 13.1806C21.9406 13.3978 21.9406 13.6179 21.9129 13.8352L20.7372 23.0367H18.2631L17.0875 13.8352Z" fill="black"/>
</g>
<g id="flags">
<path id="path4410" d="M19.4573 2.06007C18.7837 2.07519 18.134 2.43193 17.7725 3.05904L2.26754 29.9582C1.71673 30.9138 2.0437 32.1358 2.99773 32.6875C3.30096 32.8629 3.64493 32.9551 3.99506 32.9551H35.0049C35.3551 32.9551 35.699 32.8629 36.0023 32.6875C36.9563 32.1358 37.2833 30.9138 36.7325 29.9582L21.2275 3.05904C21.0525 2.75532 20.8006 2.50301 20.4973 2.32765C20.1694 2.138 19.8101 2.05215 19.4573 2.06007ZM19.4608 5.49939C19.5703 5.49164 19.6827 5.51698 19.785 5.5761C19.8716 5.6262 19.9433 5.69795 19.9933 5.78481L33.7601 29.6674C33.9174 29.9403 33.8243 30.2893 33.5517 30.447C33.465 30.4971 33.3668 30.5237 33.2667 30.5237H5.73505C5.4203 30.5237 5.16515 30.2681 5.16515 29.9528C5.16515 29.8526 5.19001 29.754 5.23995 29.6674L19.0067 5.78481C19.105 5.6142 19.2783 5.51231 19.4608 5.49939Z"/>
</g>
</g>
</g>
</svg>
