<svg width="143" height="44" viewBox="0 0 143 44" fill="none" xmlns="http://www.w3.org/2000/svg">
<g class="fault inactive" reference="ALARM-ITP">
	<g  class="animation-fail">
<path d="M142.999 0H0.0541992V43.4483H142.999V0Z" fill="#FF0000"/>
<path d="M134 6H9V37H134V6Z" fill="white"/>
<path d="M17.4375 23.6562H13.3281L12.5469 26H10.0547L14.2891 14.625H16.4609L20.7188 26H18.2266L17.4375 23.6562ZM13.9609 21.7578H16.8047L15.375 17.5L13.9609 21.7578ZM21.7812 26V17.5469H25.3125C26.4635 17.5469 27.3464 17.75 27.9609 18.1562C28.5755 18.5625 28.8828 19.1458 28.8828 19.9062C28.8828 20.2969 28.7526 20.6484 28.4922 20.9609C28.237 21.2682 27.862 21.5052 27.3672 21.6719C27.9714 21.7865 28.4453 22.013 28.7891 22.3516C29.138 22.6849 29.3125 23.0964 29.3125 23.5859C29.3125 24.3724 29.0156 24.9714 28.4219 25.3828C27.8333 25.7943 26.9766 26 25.8516 26H21.7812ZM24.0391 22.4922V24.1953H25.8594C26.6562 24.1953 27.0547 23.9167 27.0547 23.3594C27.0547 22.7917 26.6745 22.5026 25.9141 22.4922H24.0391ZM24.0391 20.9766H25.4375C26.2292 20.9661 26.625 20.7109 26.625 20.2109C26.625 19.9036 26.5156 19.6849 26.2969 19.5547C26.0833 19.4245 25.7552 19.3594 25.3125 19.3594H24.0391V20.9766ZM35.5938 26C35.4896 25.7969 35.4141 25.5443 35.3672 25.2422C34.8203 25.8516 34.1094 26.1562 33.2344 26.1562C32.4062 26.1562 31.7188 25.9167 31.1719 25.4375C30.6302 24.9583 30.3594 24.3542 30.3594 23.625C30.3594 22.7292 30.6901 22.0417 31.3516 21.5625C32.0182 21.0833 32.9792 20.8411 34.2344 20.8359H35.2734V20.3516C35.2734 19.9609 35.1719 19.6484 34.9688 19.4141C34.7708 19.1797 34.4557 19.0625 34.0234 19.0625C33.6432 19.0625 33.3438 19.1536 33.125 19.3359C32.9115 19.5182 32.8047 19.7682 32.8047 20.0859H30.5469C30.5469 19.5964 30.6979 19.1432 31 18.7266C31.3021 18.3099 31.7292 17.9844 32.2812 17.75C32.8333 17.5104 33.4531 17.3906 34.1406 17.3906C35.1823 17.3906 36.0078 17.6536 36.6172 18.1797C37.2318 18.7005 37.5391 19.4349 37.5391 20.3828V24.0469C37.5443 24.849 37.6562 25.4557 37.875 25.8672V26H35.5938ZM33.7266 24.4297C34.0599 24.4297 34.3672 24.3568 34.6484 24.2109C34.9297 24.0599 35.138 23.8594 35.2734 23.6094V22.1562H34.4297C33.2995 22.1562 32.6979 22.5469 32.625 23.3281L32.6172 23.4609C32.6172 23.7422 32.7161 23.974 32.9141 24.1562C33.112 24.3385 33.3828 24.4297 33.7266 24.4297ZM46.8828 21.8516C46.8828 23.1536 46.5859 24.1979 45.9922 24.9844C45.4036 25.7656 44.6068 26.1562 43.6016 26.1562C42.7474 26.1562 42.0573 25.8594 41.5312 25.2656V29.25H39.2734V17.5469H41.3672L41.4453 18.375C41.9922 17.7188 42.7057 17.3906 43.5859 17.3906C44.6276 17.3906 45.4375 17.776 46.0156 18.5469C46.5938 19.3177 46.8828 20.3802 46.8828 21.7344V21.8516ZM44.625 21.6875C44.625 20.901 44.4844 20.2943 44.2031 19.8672C43.9271 19.4401 43.5234 19.2266 42.9922 19.2266C42.2839 19.2266 41.7969 19.4974 41.5312 20.0391V23.5C41.8073 24.0573 42.2995 24.3359 43.0078 24.3359C44.0859 24.3359 44.625 23.4531 44.625 21.6875ZM53.3828 17.5469H55.6406V26H53.3828V20.7812L50.5547 26H48.2891V17.5469H50.5547V22.7578L53.3828 17.5469ZM64.4141 17.5469V26H62.1641V23.0781H60.7344L59.1094 26H56.8203L58.6641 22.6953C58.1589 22.4609 57.7682 22.1432 57.4922 21.7422C57.2214 21.3411 57.0859 20.8854 57.0859 20.375C57.0859 19.5573 57.401 18.888 58.0312 18.3672C58.6667 17.8411 59.5156 17.5677 60.5781 17.5469H64.4141ZM60.6172 21.5H62.1641V19.3594H60.6953C60.2943 19.3594 59.9688 19.4661 59.7188 19.6797C59.4688 19.888 59.3438 20.1432 59.3438 20.4453C59.3438 20.7474 59.4635 20.9974 59.7031 21.1953C59.9427 21.3932 60.2474 21.4948 60.6172 21.5ZM79.5312 14.625V26H77.1797V21.6875C76.4661 21.8385 75.7214 21.9141 74.9453 21.9141C73.5026 21.9141 72.4062 21.599 71.6562 20.9688C70.9115 20.3385 70.5286 19.4271 70.5078 18.2344V14.625H72.8594V18.1875C72.8646 18.8385 73.0208 19.3073 73.3281 19.5938C73.6406 19.8802 74.1797 20.0234 74.9453 20.0234C75.7214 20.0234 76.4661 19.9479 77.1797 19.7969V14.625H79.5312ZM86.5234 17.5469H88.7812V26H86.5234V20.7812L83.6953 26H81.4297V17.5469H83.6953V22.7578L86.5234 17.5469ZM97.8594 17.5469V26H95.6016V19.375H93.6094L93.4688 21.9844C93.3802 23.375 93.1068 24.388 92.6484 25.0234C92.1901 25.6589 91.5078 25.9844 90.6016 26H89.8359L89.8125 24.1641L90.0938 24.1406C90.5 24.1094 90.7969 23.8698 90.9844 23.4219C91.1719 22.974 91.2891 22.2109 91.3359 21.1328L91.4922 17.5469H97.8594ZM106.953 17.5469V26H104.695V19.375H102.703L102.562 21.9844C102.474 23.375 102.201 24.388 101.742 25.0234C101.284 25.6589 100.602 25.9844 99.6953 26H98.9297L98.9062 24.1641L99.1875 24.1406C99.5938 24.1094 99.8906 23.8698 100.078 23.4219C100.266 22.974 100.383 22.2109 100.43 21.1328L100.586 17.5469H106.953ZM112.586 26.1562C111.346 26.1562 110.336 25.776 109.555 25.0156C108.779 24.2552 108.391 23.2422 108.391 21.9766V21.7578C108.391 20.9089 108.555 20.151 108.883 19.4844C109.211 18.8125 109.674 18.2969 110.273 17.9375C110.878 17.5729 111.565 17.3906 112.336 17.3906C113.492 17.3906 114.401 17.7552 115.062 18.4844C115.729 19.2135 116.062 20.2474 116.062 21.5859V22.5078H110.68C110.753 23.0599 110.971 23.5026 111.336 23.8359C111.706 24.1693 112.172 24.3359 112.734 24.3359C113.604 24.3359 114.284 24.0208 114.773 23.3906L115.883 24.6328C115.544 25.112 115.086 25.487 114.508 25.7578C113.93 26.0234 113.289 26.1562 112.586 26.1562ZM112.328 19.2188C111.88 19.2188 111.516 19.3698 111.234 19.6719C110.958 19.974 110.781 20.4062 110.703 20.9688H113.844V20.7891C113.833 20.2891 113.698 19.9036 113.438 19.6328C113.177 19.3568 112.807 19.2188 112.328 19.2188ZM124.961 21.8516C124.961 23.1536 124.664 24.1979 124.07 24.9844C123.482 25.7656 122.685 26.1562 121.68 26.1562C120.826 26.1562 120.135 25.8594 119.609 25.2656V29.25H117.352V17.5469H119.445L119.523 18.375C120.07 17.7188 120.784 17.3906 121.664 17.3906C122.706 17.3906 123.516 17.776 124.094 18.5469C124.672 19.3177 124.961 20.3802 124.961 21.7344V21.8516ZM122.703 21.6875C122.703 20.901 122.562 20.2943 122.281 19.8672C122.005 19.4401 121.602 19.2266 121.07 19.2266C120.362 19.2266 119.875 19.4974 119.609 20.0391V23.5C119.885 24.0573 120.378 24.3359 121.086 24.3359C122.164 24.3359 122.703 23.4531 122.703 21.6875ZM131.266 26C131.161 25.7969 131.086 25.5443 131.039 25.2422C130.492 25.8516 129.781 26.1562 128.906 26.1562C128.078 26.1562 127.391 25.9167 126.844 25.4375C126.302 24.9583 126.031 24.3542 126.031 23.625C126.031 22.7292 126.362 22.0417 127.023 21.5625C127.69 21.0833 128.651 20.8411 129.906 20.8359H130.945V20.3516C130.945 19.9609 130.844 19.6484 130.641 19.4141C130.443 19.1797 130.128 19.0625 129.695 19.0625C129.315 19.0625 129.016 19.1536 128.797 19.3359C128.583 19.5182 128.477 19.7682 128.477 20.0859H126.219C126.219 19.5964 126.37 19.1432 126.672 18.7266C126.974 18.3099 127.401 17.9844 127.953 17.75C128.505 17.5104 129.125 17.3906 129.812 17.3906C130.854 17.3906 131.68 17.6536 132.289 18.1797C132.904 18.7005 133.211 19.4349 133.211 20.3828V24.0469C133.216 24.849 133.328 25.4557 133.547 25.8672V26H131.266ZM129.398 24.4297C129.732 24.4297 130.039 24.3568 130.32 24.2109C130.602 24.0599 130.81 23.8594 130.945 23.6094V22.1562H130.102C128.971 22.1562 128.37 22.5469 128.297 23.3281L128.289 23.4609C128.289 23.7422 128.388 23.974 128.586 24.1562C128.784 24.3385 129.055 24.4297 129.398 24.4297Z" fill="#FF0000"/>
</g>
</g>
    </svg>
