<svg width="70" height="70" viewBox="0 0 70 70" fill="none" xmlns="http://www.w3.org/2000/svg">
	<style>
	.animation-spin {
  -webkit-transform-origin: 35px 35px;
  -moz-transform-origin: 35px 35px;
  -ms-transform-origin: 35px 35px;
  transform-origin: 35px 35px;
}
</style>
<g class="fault inactive" reference="STATUS">
<g id="Group">
<circle id="Ellipse" cx="35" cy="35" r="35" transform="rotate(-180 35 35)"/>
<g class="animation-spin">
<path id="Vector" fill-rule="evenodd" clip-rule="evenodd" d="M31.0245 22.6729C29.8318 17.5429 29.7523 11.1114 31.8196 2C15.7586 7.35963 10.6699 8.81439 24.5047 26.9606L24.5842 26.884C23.312 28.4153 22.4374 30.1763 21.9604 32.1671C16.7127 30.5592 10.9085 27.42 3.75256 21.1415C0.572154 37.2204 -0.779516 42.1972 22.5169 39.6705C23.312 41.5081 24.4252 43.116 25.9359 44.4942C21.8808 48.0162 16.1561 51.3086 6.93296 54.1415C19.8136 64.7842 23.6301 68.3828 33.0122 47.71C33.6483 47.8631 34.2844 47.8631 35 47.8631C36.3517 47.8631 37.7033 47.71 38.9755 47.3271C40.1682 52.4571 40.2477 58.8886 38.1804 68C54.2414 62.5638 59.4096 61.1856 45.4953 43.0394L45.3363 43.1926C46.6085 41.6613 47.5626 39.8237 48.0396 37.8329C53.2873 39.4408 59.0915 42.58 66.2474 48.8585C69.4278 32.7796 70.7795 27.8028 47.4831 30.2529C46.7675 28.4153 45.5748 26.8074 44.0641 25.5058C48.1192 21.9838 53.8439 18.6914 63.067 15.8585C50.1864 5.13921 46.3699 1.5406 36.9878 22.2135C36.3517 22.1369 35.7156 22.1369 35 22.1369C33.6483 22.1369 32.2967 22.29 31.0245 22.6729ZM28.0031 35C28.0031 31.2483 31.104 28.2622 35 28.2622C38.896 28.2622 41.9969 31.2483 41.9969 35C41.9969 38.7517 38.896 41.7378 35 41.7378C31.104 41.7378 28.0031 38.7517 28.0031 35Z" fill="#333333"/>
</g>
</g>
</g>
</svg>
