<svg width="70" height="70" viewBox="0 0 70 70" fill="none" xmlns="http://www.w3.org/2000/svg">
	<style>
	.animation-revspin {
  -webkit-transform-origin: 35px 35px;
  -moz-transform-origin: 35px 35px;
  -ms-transform-origin: 35px 35px;
  transform-origin: 35px 35px;
}
</style>
<g class="fault inactive" reference="STATUS">
<g id="Group">
<circle id="Ellipse" r="35" transform="matrix(1 0 0 -1 35 35)"/>
<g class="animation-revspin">
<path id="Vector" fill-rule="evenodd" clip-rule="evenodd" d="M38.9755 22.6729C40.1682 17.5429 40.2477 11.1114 38.1804 2C54.2414 7.35963 59.3301 8.81439 45.4953 26.9606L45.4158 26.884C46.688 28.4153 47.5626 30.1763 48.0396 32.1671C53.2873 30.5592 59.0915 27.42 66.2474 21.1415C69.4278 37.2204 70.7795 42.1972 47.4831 39.6705C46.688 41.5081 45.5748 43.116 44.0641 44.4942C48.1192 48.0162 53.8439 51.3086 63.067 54.1415C50.1864 64.7842 46.3699 68.3828 36.9878 47.71C36.3517 47.8631 35.7156 47.8631 35 47.8631C33.6483 47.8631 32.2967 47.71 31.0245 47.3271C29.8318 52.4571 29.7523 58.8886 31.8196 68C15.7586 62.5638 10.5904 61.1856 24.5047 43.0394L24.6637 43.1926C23.3915 41.6613 22.4374 39.8237 21.9604 37.8329C16.7127 39.4408 10.9085 42.58 3.75256 48.8585C0.572151 32.7796 -0.779518 27.8028 22.5169 30.2529C23.2325 28.4153 24.4252 26.8074 25.9359 25.5058C21.8808 21.9838 16.1561 18.6914 6.93296 15.8585C19.8136 5.13921 23.6301 1.5406 33.0122 22.2135C33.6483 22.1369 34.2844 22.1369 35 22.1369C36.3517 22.1369 37.7033 22.29 38.9755 22.6729ZM41.9969 35C41.9969 31.2483 38.896 28.2622 35 28.2622C31.104 28.2622 28.0031 31.2483 28.0031 35C28.0031 38.7517 31.104 41.7378 35 41.7378C38.896 41.7378 41.9969 38.7517 41.9969 35Z" fill="#333333"/>
</g>
</g>
</g>
</svg>
