<svg width="117" height="251" viewBox="0 0 117 251" fill="none" xmlns="http://www.w3.org/2000/svg">
<path d="M51.0005 32.4999L83.0005 -6.10352e-05V68.9999L51.0005 102V32.4999Z" fill="#007AFF"/>
<path d="M83.0005 -6.10352e-05H93.0005L61.0005 31.9999H51.0005L83.0005 -6.10352e-05Z" fill="#A9A9A9"/>
<path d="M83.0005 68.9999H93.0005L61.0005 101.5H51.0005L83.0005 68.9999Z" fill="#3592F7"/>
<path d="M61.0005 31.9999L93.0005 -6.10352e-05V68.9999L61.0005 102V31.9999Z" fill="#848484"/>
<path d="M63.0005 31.9999L92.0005 2.99976V67.9998L63.0005 97.9998V31.9999Z" fill="#5C82B5"/>
<path d="M106.238 60.1389C107.433 60.1389 108.599 59.8889 109.766 59.3611C110.627 58.9722 111.46 58.7778 112.294 58.7778C112.516 58.7778 112.71 58.8056 112.877 58.8334C112.766 58.9445 112.016 59.6945 112.016 59.7778C112.016 60.0278 112.405 60.0834 112.544 60.0834C113.238 60.0834 115.516 58.6389 116.099 58.3334C116.294 58.2222 116.294 57.9445 116.099 57.8334C115.488 57.5 113.127 56.1111 112.544 56.1111C112.405 56.1111 112.016 56.1667 112.016 56.3889C112.016 56.5 112.905 57.3889 112.988 57.4445C112.738 57.4445 112.488 57.4445 112.294 57.4445C111.099 57.4445 109.933 57.6945 108.766 58.2222C107.905 58.5834 107.071 58.7778 106.238 58.7778C104.183 58.7778 104.155 57.7222 103.21 58.7778C102.21 59.9167 105.044 60.1389 106.238 60.1389ZM106.238 48.5834C107.433 48.5834 108.599 48.3334 109.766 47.8056C110.627 47.4167 111.46 47.2222 112.294 47.2222C112.516 47.2222 112.71 47.25 112.877 47.2778C112.766 47.3889 112.016 48.1389 112.016 48.25C112.016 48.4722 112.405 48.5278 112.544 48.5278C113.238 48.5278 115.516 47.0834 116.099 46.7778C116.294 46.6667 116.294 46.3889 116.099 46.2778C115.488 45.9722 113.127 44.5556 112.544 44.5556C112.405 44.5556 112.016 44.6111 112.016 44.8334C112.016 44.9445 112.905 45.8334 112.988 45.8889C112.738 45.8889 112.488 45.8889 112.294 45.8889C111.099 45.8889 109.933 46.1389 108.766 46.6667C107.905 47.0556 107.071 47.2222 106.238 47.2222C104.183 47.2222 104.155 46.1945 103.21 47.25C102.21 48.3611 105.044 48.5834 106.238 48.5834ZM106.238 54.3889C107.433 54.3889 108.599 54.1111 109.766 53.6111C110.627 53.2222 111.46 53.0278 112.294 53.0278C112.516 53.0278 112.71 53.0278 112.877 53.0556C112.766 53.1945 112.016 53.9167 112.016 54.0278C112.016 54.25 112.405 54.3056 112.544 54.3056C113.238 54.3056 115.516 52.8889 116.099 52.5834C116.294 52.4722 116.294 52.1667 116.099 52.0556C115.488 51.75 113.127 50.3334 112.544 50.3334C112.405 50.3334 112.016 50.4167 112.016 50.6389C112.016 50.75 112.905 51.6111 112.988 51.6945C112.738 51.6667 112.488 51.6667 112.294 51.6667C111.099 51.6667 109.933 51.9445 108.766 52.4445C107.905 52.8334 107.071 53.0278 106.238 53.0278C104.183 53.0278 104.155 51.9722 103.21 53.0278C102.21 54.1667 105.044 54.3889 106.238 54.3889Z" fill="#00BFFF"/>
<path d="M96.7888 55.2778C97.9954 54.6197 99.202 53.9341 100.354 53.276C100.518 53.1937 100.71 53.2486 100.82 53.4131L101.286 54.2632C101.396 54.4003 101.341 54.6197 101.176 54.702L98.489 56.265L100.82 57.6087C100.984 57.691 101.039 57.9104 100.93 58.0749L100.436 58.9524C100.354 59.0895 100.134 59.1444 99.9698 59.0621L97.6389 57.7184V60.872C97.6389 61.0639 97.4744 61.201 97.3099 61.201H96.3227C96.1307 61.201 95.9936 61.0639 95.9936 60.872C95.9936 59.5283 95.9662 58.1297 95.9662 56.7312L93.0594 55.0859C93.0594 61.5301 94.1014 60.9268 88.5347 57.7184V61.0639C89.7139 61.7495 90.893 62.4899 92.0174 63.148C92.1819 63.2303 92.2367 63.4222 92.1545 63.5868L91.6609 64.4369C91.5786 64.6014 91.3592 64.6562 91.1947 64.574L88.5347 63.0109V65.6709C88.5347 65.8628 88.3702 65.9999 88.2057 65.9999H87.191C86.9991 65.9999 86.862 65.8628 86.862 65.6709V62.9835L84.0923 64.574C83.9278 64.6562 83.7358 64.6014 83.6261 64.4643L83.16 63.6142C83.0503 63.4497 83.1051 63.2303 83.2696 63.148C84.4214 62.4899 85.6554 61.7221 86.862 61.0365V57.691C81.213 60.9542 82.2276 61.6124 82.2276 55.1133L79.3483 56.786C79.3483 58.1297 79.3208 59.5283 79.3208 60.8445C79.3208 61.0365 79.1837 61.201 78.9918 61.201H78.032C77.84 61.201 77.6755 61.0365 77.6755 60.8445C77.6755 59.8299 77.6755 58.7879 77.6755 57.7458L75.3995 59.0621C75.2349 59.1444 75.043 59.0895 74.9333 58.9524L74.4397 58.0749C74.3574 57.9104 74.4122 57.691 74.5494 57.6087L76.8528 56.2924L74.1106 54.702C73.9461 54.6197 73.8912 54.4003 74.0009 54.2358L74.4945 53.4131C74.5768 53.2486 74.7687 53.1937 74.9333 53.276C76.1124 53.9615 77.3464 54.6197 78.553 55.3052L81.4324 53.6325C75.8108 50.3966 75.8108 51.6032 81.4324 48.3674L78.5256 46.6672C77.319 47.3528 76.1399 48.0383 74.9607 48.7239C74.7962 48.8062 74.6042 48.7513 74.4945 48.5868L74.0283 47.7367C73.9186 47.5996 73.9735 47.3802 74.138 47.2979C75.043 46.7769 75.9479 46.2285 76.8528 45.7074L74.5494 44.3912C74.4122 44.3089 74.3574 44.0895 74.4397 43.925L74.9333 43.0475C75.043 42.9104 75.2349 42.8555 75.3995 42.9378L77.6755 44.2541V41.1279C77.6755 40.936 77.84 40.7988 78.0046 40.7988H78.9918C79.1837 40.7988 79.3208 40.936 79.3208 41.1279C79.3208 42.4716 79.3483 43.8427 79.3483 45.2138L82.255 46.8866C82.255 40.4149 81.213 41.0456 86.862 44.2815V40.936C85.6554 40.2504 84.4762 39.5374 83.2971 38.8519C83.1325 38.7696 83.0777 38.5776 83.16 38.4131L83.6536 37.563C83.7358 37.3985 83.9552 37.3436 84.1197 37.4259C84.9972 37.9469 85.9296 38.4679 86.862 39.0164V36.329C86.862 36.1371 86.9991 35.9999 87.191 35.9999H88.2057C88.3702 35.9999 88.5347 36.1371 88.5347 36.329V38.9615C89.4397 38.4405 90.3172 37.9469 91.2221 37.4259C91.3866 37.3436 91.5786 37.3985 91.6883 37.5356L92.1545 38.3857C92.2642 38.5502 92.2093 38.7696 92.0448 38.8519C90.893 39.51 89.7139 40.223 88.5347 40.9085V44.2266C94.1563 40.9908 93.0868 40.4149 93.0868 46.914L95.9387 45.2687C95.9387 43.8701 95.9936 42.4716 95.9936 41.1553C95.9936 40.9634 96.1307 40.7988 96.3227 40.7988H97.2824C97.4744 40.7988 97.6389 40.9634 97.6389 41.1553C97.6389 42.1974 97.6389 43.2394 97.6389 44.2815L99.9698 42.9378C100.134 42.8555 100.354 42.9104 100.436 43.0475L100.93 43.925C101.039 44.0895 100.984 44.3089 100.82 44.3912L98.489 45.7349C99.3939 46.2559 100.299 46.7769 101.204 47.2979C101.368 47.3802 101.423 47.5996 101.314 47.7641L100.82 48.5868C100.738 48.7513 100.546 48.8062 100.381 48.7239C99.202 48.0383 98.0228 47.3802 96.8163 46.6946L93.9369 48.3674C99.5036 51.5758 99.5036 50.3692 93.8821 53.6051L96.7888 55.2778ZM83.1051 52.6727L86.0119 50.9999L83.1051 49.3272L80.1983 50.9999L83.1051 52.6727ZM88.5347 49.5466L91.4141 47.8738V44.5009L88.5347 46.1736V49.5466ZM92.2642 49.3272L89.3574 50.9999L92.2093 52.6453L95.1161 50.9725L92.2642 49.3272ZM86.862 52.4533L83.9004 54.1535V57.4716L86.862 55.7714V52.4533ZM83.9278 47.8464L86.862 49.5466V46.2285L83.9278 44.5283V47.8464ZM91.3866 54.0987L88.5347 52.4533V55.7714L91.3866 57.4442V54.0987Z" fill="#00BFFF"/>
<rect x="51.0005" y="31.9999" width="10" height="70" fill="#A1A1A1"/>
<path d="M16.0005 51.1159L16.0005 138H22.0005L22.0005 51.1159C20.0005 50.9613 18.5005 50.9613 16.0005 51.1159Z" fill="url(#paint340_linear)"/>
<path d="M57.5796 43.9999H23.0005V49.9999H57.5796C60.5985 47.9673 61.0099 46.4627 57.5796 43.9999Z" fill="url(#paint341_linear)"/>
<path d="M22.2241 44.0375L22.002 50.0004L20.6689 44.0375H22.2241Z" fill="url(#paint342_linear)"/>
<path d="M20.6684 44.0368L22.0005 49.9999L17.558 44.8105C18.6719 44.0733 19.3052 43.9156 20.6684 44.0368Z" fill="url(#paint343_linear)"/>
<path d="M16.0005 50.9999V49.9999H22.0004V50.9999H16.0005Z" fill="url(#paint344_linear)"/>
<path d="M23.0005 49.9999H22.0005V43.9999H23.0005V49.9999Z" fill="url(#paint345_linear)"/>
<path d="M16.0034 50.2271L22.0019 50.0005L16.0034 48.6797V50.2271Z" fill="url(#paint346_linear)"/>
<path d="M16.0022 48.6792L22.0004 49.9999L17.5574 44.8109C16.2315 45.7268 15.976 46.6449 16.0022 48.6792Z" fill="url(#paint347_linear)"/>
<path d="M57.6616 89.9999H43.0005V95.9999H57.6616C60.1207 93.8523 61.3769 92.974 57.6616 89.9999Z" fill="url(#paint348_linear)"/>
<path d="M42.2231 90.0373L42.001 96.0002L40.6679 90.0373H42.2231Z" fill="url(#paint349_linear)"/>
<path d="M40.6674 90.0372L41.9995 96.0004L37.557 90.8109C38.6708 90.0738 39.3042 89.916 40.6674 90.0372Z" fill="url(#paint3410_linear)"/>
<path d="M36.0005 96.9999V95.9999H42.0005V96.9999H36.0005Z" fill="url(#paint3411_linear)"/>
<path d="M43.0005 95.9999H42.0005V89.9999H43.0005V95.9999Z" fill="url(#paint3412_linear)"/>
<path d="M36.0024 96.2264L42.001 95.9998L36.0024 94.6791V96.2264Z" fill="url(#paint3413_linear)"/>
<path d="M36.0022 94.6792L42.0005 95.9999L37.5575 90.8109C36.2315 91.7268 35.976 92.6449 36.0022 94.6792Z" fill="url(#paint3414_linear)"/>
<path d="M36.0005 96.9999L36.0005 251H42.0005L42.0005 96.9999H36.0005Z" fill="url(#paint3415_linear)"/>
<path d="M0.000488281 231L0.000488281 251H8.00049L8.00049 231H0.000488281Z" fill="url(#paint3416_linear)"/>
<defs>
<linearGradient id="paint340_linear" x1="16.0005" y1="94.5579" x2="22.0005" y2="94.5579" gradientUnits="userSpaceOnUse">
<stop stop-color="#848484"/>
<stop offset="0.519337" stop-color="white"/>
<stop offset="1" stop-color="#848484"/>
</linearGradient>
<linearGradient id="paint341_linear" x1="40.29" y1="43.9999" x2="40.29" y2="49.9999" gradientUnits="userSpaceOnUse">
<stop stop-color="#848484"/>
<stop offset="0.519337" stop-color="white"/>
<stop offset="1" stop-color="#848484"/>
</linearGradient>
<linearGradient id="paint342_linear" x1="22.2241" y1="44.0375" x2="22.2241" y2="50.2268" gradientUnits="userSpaceOnUse">
<stop stop-color="#848484"/>
<stop offset="0.478645" stop-color="white"/>
<stop offset="1" stop-color="#848484"/>
</linearGradient>
<linearGradient id="paint343_linear" x1="19.8908" y1="44.037" x2="20.6607" y2="50.2272" gradientUnits="userSpaceOnUse">
<stop stop-color="#848484"/>
<stop offset="0.491713" stop-color="white"/>
<stop offset="1" stop-color="#848484"/>
</linearGradient>
<linearGradient id="paint344_linear" x1="16.0005" y1="50.4999" x2="22.0004" y2="50.4999" gradientUnits="userSpaceOnUse">
<stop stop-color="#848484"/>
<stop offset="0.476897" stop-color="white"/>
<stop offset="1" stop-color="#848484"/>
</linearGradient>
<linearGradient id="paint345_linear" x1="22.5005" y1="49.9999" x2="22.5005" y2="43.9999" gradientUnits="userSpaceOnUse">
<stop stop-color="#848484"/>
<stop offset="0.508099" stop-color="white"/>
<stop offset="1" stop-color="#848484"/>
</linearGradient>
<linearGradient id="paint346_linear" x1="16.0034" y1="50.2271" x2="21.4403" y2="48.2754" gradientUnits="userSpaceOnUse">
<stop stop-color="#848484"/>
<stop offset="0.526042" stop-color="white"/>
<stop offset="1" stop-color="#848484"/>
</linearGradient>
<linearGradient id="paint347_linear" x1="16.002" y1="47.9055" x2="21.5218" y2="50.2971" gradientUnits="userSpaceOnUse">
<stop stop-color="#848484"/>
<stop offset="0.491713" stop-color="white"/>
<stop offset="1" stop-color="#848484"/>
</linearGradient>
<linearGradient id="paint348_linear" x1="50.331" y1="89.9999" x2="50.331" y2="95.9999" gradientUnits="userSpaceOnUse">
<stop stop-color="#848484"/>
<stop offset="0.519337" stop-color="white"/>
<stop offset="1" stop-color="#848484"/>
</linearGradient>
<linearGradient id="paint349_linear" x1="42.2231" y1="90.0373" x2="42.2231" y2="96.2266" gradientUnits="userSpaceOnUse">
<stop stop-color="#848484"/>
<stop offset="0.478645" stop-color="white"/>
<stop offset="1" stop-color="#848484"/>
</linearGradient>
<linearGradient id="paint3410_linear" x1="39.8898" y1="90.0374" x2="40.6597" y2="96.2277" gradientUnits="userSpaceOnUse">
<stop stop-color="#848484"/>
<stop offset="0.491713" stop-color="white"/>
<stop offset="1" stop-color="#848484"/>
</linearGradient>
<linearGradient id="paint3411_linear" x1="36.0005" y1="96.4999" x2="42.0005" y2="96.4999" gradientUnits="userSpaceOnUse">
<stop stop-color="#848484"/>
<stop offset="0.476897" stop-color="white"/>
<stop offset="1" stop-color="#848484"/>
</linearGradient>
<linearGradient id="paint3412_linear" x1="42.5005" y1="95.9999" x2="42.5005" y2="89.9999" gradientUnits="userSpaceOnUse">
<stop stop-color="#848484"/>
<stop offset="0.508099" stop-color="white"/>
<stop offset="1" stop-color="#848484"/>
</linearGradient>
<linearGradient id="paint3413_linear" x1="36.0024" y1="96.2264" x2="41.4394" y2="94.2747" gradientUnits="userSpaceOnUse">
<stop stop-color="#848484"/>
<stop offset="0.526042" stop-color="white"/>
<stop offset="1" stop-color="#848484"/>
</linearGradient>
<linearGradient id="paint3414_linear" x1="36.002" y1="93.9055" x2="41.5218" y2="96.2972" gradientUnits="userSpaceOnUse">
<stop stop-color="#848484"/>
<stop offset="0.491713" stop-color="white"/>
<stop offset="1" stop-color="#848484"/>
</linearGradient>
<linearGradient id="paint3415_linear" x1="36.0005" y1="174.103" x2="42.0005" y2="174.103" gradientUnits="userSpaceOnUse">
<stop stop-color="#848484"/>
<stop offset="0.519337" stop-color="white"/>
<stop offset="1" stop-color="#848484"/>
</linearGradient>
<linearGradient id="paint3416_linear" x1="0.000488281" y1="241.013" x2="8.00049" y2="241.013" gradientUnits="userSpaceOnUse">
<stop stop-color="#848484"/>
<stop offset="0.519337" stop-color="white"/>
<stop offset="1" stop-color="#848484"/>
</linearGradient>
</defs>
</svg>
