<svg width="117" height="243" viewBox="0 0 117 243" fill="none" xmlns="http://www.w3.org/2000/svg">
<path d="M51 32.5L83 0V69L51 102V32.5Z" fill="#007AFF"/>
<path d="M83 0H93L61 32H51L83 0Z" fill="#A9A9A9"/>
<path d="M83 69H93L61 101.5H51L83 69Z" fill="#3592F7"/>
<path d="M61 32L93 0V69L61 102V32Z" fill="#848484"/>
<path d="M63 32L92 2.99982V67.9998L63 97.9998V32Z" fill="#5C82B5"/>
<path d="M106.238 60.139C107.432 60.139 108.599 59.889 109.765 59.3612C110.627 58.9723 111.46 58.7779 112.293 58.7779C112.515 58.7779 112.71 58.8056 112.877 58.8334C112.765 58.9445 112.015 59.6945 112.015 59.7779C112.015 60.0279 112.404 60.0834 112.543 60.0834C113.238 60.0834 115.515 58.639 116.099 58.3334C116.293 58.2223 116.293 57.9445 116.099 57.8334C115.488 57.5001 113.127 56.1112 112.543 56.1112C112.404 56.1112 112.015 56.1668 112.015 56.389C112.015 56.5001 112.904 57.389 112.988 57.4445C112.738 57.4445 112.488 57.4445 112.293 57.4445C111.099 57.4445 109.932 57.6945 108.765 58.2223C107.904 58.5834 107.071 58.7779 106.238 58.7779C104.182 58.7779 104.154 57.7223 103.21 58.7779C102.21 59.9168 105.043 60.139 106.238 60.139ZM106.238 48.5834C107.432 48.5834 108.599 48.3334 109.765 47.8056C110.627 47.4168 111.46 47.2223 112.293 47.2223C112.515 47.2223 112.71 47.2501 112.877 47.2779C112.765 47.389 112.015 48.139 112.015 48.2501C112.015 48.4723 112.404 48.5279 112.543 48.5279C113.238 48.5279 115.515 47.0834 116.099 46.7779C116.293 46.6668 116.293 46.389 116.099 46.2779C115.488 45.9723 113.127 44.5556 112.543 44.5556C112.404 44.5556 112.015 44.6112 112.015 44.8334C112.015 44.9445 112.904 45.8334 112.988 45.889C112.738 45.889 112.488 45.889 112.293 45.889C111.099 45.889 109.932 46.139 108.765 46.6668C107.904 47.0556 107.071 47.2223 106.238 47.2223C104.182 47.2223 104.154 46.1945 103.21 47.2501C102.21 48.3612 105.043 48.5834 106.238 48.5834ZM106.238 54.389C107.432 54.389 108.599 54.1112 109.765 53.6112C110.627 53.2223 111.46 53.0279 112.293 53.0279C112.515 53.0279 112.71 53.0279 112.877 53.0556C112.765 53.1945 112.015 53.9168 112.015 54.0279C112.015 54.2501 112.404 54.3056 112.543 54.3056C113.238 54.3056 115.515 52.889 116.099 52.5834C116.293 52.4723 116.293 52.1668 116.099 52.0556C115.488 51.7501 113.127 50.3334 112.543 50.3334C112.404 50.3334 112.015 50.4168 112.015 50.639C112.015 50.7501 112.904 51.6112 112.988 51.6945C112.738 51.6668 112.488 51.6668 112.293 51.6668C111.099 51.6668 109.932 51.9445 108.765 52.4445C107.904 52.8334 107.071 53.0279 106.238 53.0279C104.182 53.0279 104.154 51.9723 103.21 53.0279C102.21 54.1668 105.043 54.389 106.238 54.389Z" fill="#00BFFF"/>
<path d="M96.7883 55.2779C97.9949 54.6197 99.2015 53.9342 100.353 53.2761C100.518 53.1938 100.71 53.2486 100.819 53.4132L101.286 54.2633C101.395 54.4004 101.34 54.6197 101.176 54.702L98.4885 56.2651L100.819 57.6088C100.984 57.691 101.039 57.9104 100.929 58.075L100.436 58.9525C100.353 59.0896 100.134 59.1444 99.9693 59.0622L97.6384 57.7185V60.872C97.6384 61.064 97.4739 61.2011 97.3094 61.2011H96.3222C96.1302 61.2011 95.9931 61.064 95.9931 60.872C95.9931 59.5283 95.9657 58.1298 95.9657 56.7313L93.0589 55.0859C93.0589 61.5302 94.101 60.9269 88.5342 57.7185V61.064C89.7134 61.7495 90.8926 62.4899 92.0169 63.1481C92.1814 63.2303 92.2362 63.4223 92.154 63.5868L91.6604 64.4369C91.5781 64.6015 91.3587 64.6563 91.1942 64.574L88.5342 63.011V65.6709C88.5342 65.8629 88.3697 66 88.2052 66H87.1905C86.9986 66 86.8615 65.8629 86.8615 65.6709V62.9835L84.0918 64.574C83.9273 64.6563 83.7353 64.6015 83.6256 64.4644L83.1595 63.6143C83.0498 63.4497 83.1046 63.2303 83.2692 63.1481C84.4209 62.4899 85.6549 61.7221 86.8615 61.0366V57.691C81.2125 60.9543 82.2271 61.6124 82.2271 55.1133L79.3478 56.7861C79.3478 58.1298 79.3203 59.5283 79.3203 60.8446C79.3203 61.0366 79.1832 61.2011 78.9913 61.2011H78.0315C77.8395 61.2011 77.675 61.0366 77.675 60.8446C77.675 59.83 77.675 58.7879 77.675 57.7459L75.399 59.0622C75.2344 59.1444 75.0425 59.0896 74.9328 58.9525L74.4392 58.075C74.3569 57.9104 74.4118 57.691 74.5489 57.6088L76.8523 56.2925L74.1101 54.702C73.9456 54.6197 73.8907 54.4004 74.0004 54.2358L74.494 53.4132C74.5763 53.2486 74.7682 53.1938 74.9328 53.2761C76.1119 53.9616 77.3459 54.6197 78.5525 55.3053L81.4319 53.6325C75.8103 50.3967 75.8103 51.6033 81.4319 48.3675L78.5251 46.6673C77.3185 47.3528 76.1394 48.0384 74.9602 48.7239C74.7957 48.8062 74.6037 48.7514 74.494 48.5868L74.0278 47.7367C73.9182 47.5996 73.973 47.3803 74.1375 47.298C75.0425 46.777 75.9474 46.2285 76.8523 45.7075L74.5489 44.3912C74.4118 44.309 74.3569 44.0896 74.4392 43.925L74.9328 43.0475C75.0425 42.9104 75.2344 42.8556 75.399 42.9378L77.675 44.2541V41.128C77.675 40.936 77.8395 40.7989 78.0041 40.7989H78.9913C79.1832 40.7989 79.3203 40.936 79.3203 41.128C79.3203 42.4717 79.3478 43.8428 79.3478 45.2139L82.2545 46.8867C82.2545 40.415 81.2125 41.0457 86.8615 44.2815V40.936C85.6549 40.2505 84.4757 39.5375 83.2966 38.8519C83.132 38.7697 83.0772 38.5777 83.1595 38.4132L83.6531 37.5631C83.7353 37.3985 83.9547 37.3437 84.1192 37.426C84.9968 37.947 85.9291 38.468 86.8615 39.0165V36.3291C86.8615 36.1371 86.9986 36 87.1905 36H88.2052C88.3697 36 88.5342 36.1371 88.5342 36.3291V38.9616C89.4392 38.4406 90.3167 37.947 91.2216 37.426C91.3862 37.3437 91.5781 37.3985 91.6878 37.5356L92.154 38.3857C92.2637 38.5503 92.2088 38.7697 92.0443 38.8519C90.8926 39.5101 89.7134 40.223 88.5342 40.9086V44.2267C94.1558 40.9909 93.0863 40.415 93.0863 46.9141L95.9383 45.2687C95.9383 43.8702 95.9931 42.4717 95.9931 41.1554C95.9931 40.9634 96.1302 40.7989 96.3222 40.7989H97.2819C97.4739 40.7989 97.6384 40.9634 97.6384 41.1554C97.6384 42.1974 97.6384 43.2395 97.6384 44.2815L99.9693 42.9378C100.134 42.8556 100.353 42.9104 100.436 43.0475L100.929 43.925C101.039 44.0896 100.984 44.309 100.819 44.3912L98.4885 45.7349C99.3935 46.2559 100.298 46.777 101.203 47.298C101.368 47.3803 101.423 47.5996 101.313 47.7642L100.819 48.5868C100.737 48.7514 100.545 48.8062 100.381 48.7239C99.2015 48.0384 98.0223 47.3803 96.8158 46.6947L93.9364 48.3675C99.5031 51.5759 99.5031 50.3693 93.8816 53.6051L96.7883 55.2779ZM83.1046 52.6728L86.0114 51L83.1046 49.3272L80.1979 51L83.1046 52.6728ZM88.5342 49.5466L91.4136 47.8739V44.5009L88.5342 46.1737V49.5466ZM92.2637 49.3272L89.3569 51L92.2088 52.6453L95.1156 50.9726L92.2637 49.3272ZM86.8615 52.4534L83.8999 54.1536V57.4717L86.8615 55.7715V52.4534ZM83.9273 47.8464L86.8615 49.5466V46.2285L83.9273 44.5283V47.8464ZM91.3862 54.0987L88.5342 52.4534V55.7715L91.3862 57.4442V54.0987Z" fill="#00BFFF"/>
<rect x="51" y="32" width="10" height="70" fill="#A1A1A1"/>
<path d="M16 51.0999L16 126H22L22 51.0999C20 50.9667 18.5 50.9667 16 51.0999Z" fill="url(#paint022_linear)"/>
<path d="M57.5791 44H23V50H57.5791C60.598 47.9674 61.0094 46.4627 57.5791 44Z" fill="url(#paint11_linear)"/>
<path d="M22.2236 44.0375L22.0015 50.0004L20.6684 44.0375H22.2236Z" fill="url(#paint22_linear)"/>
<path d="M20.6679 44.0369L22 50L17.5575 44.8105C18.6714 44.0734 19.3048 43.9156 20.6679 44.0369Z" fill="url(#paint33_linear)"/>
<path d="M16 51V50H21.9999V51H16Z" fill="url(#paint44_linear)"/>
<path d="M23 50H22V44H23V50Z" fill="url(#paint55_linear)"/>
<path d="M16.0029 50.2271L22.0014 50.0005L16.0029 48.6798V50.2271Z" fill="url(#paint66_linear)"/>
<path d="M16.0018 48.6792L21.9999 50L17.557 44.8109C16.231 45.7268 15.9756 46.645 16.0018 48.6792Z" fill="url(#paint77_linear)"/>
<path d="M57.6611 90H43V96H57.6611C60.1202 93.8524 61.3764 92.9741 57.6611 90Z" fill="url(#paint88_linear)"/>
<path d="M42.2227 90.0374L42.0005 96.0002L40.6674 90.0374H42.2227Z" fill="url(#paint99_linear)"/>
<path d="M40.667 90.0373L41.999 96.0004L37.5565 90.811C38.6704 90.0738 39.3037 89.9161 40.667 90.0373Z" fill="url(#paint100_linear)"/>
<path d="M36 97V96H42V97H36Z" fill="url(#paint111_linear)"/>
<path d="M43 96H42V90H43V96Z" fill="url(#paint122_linear)"/>
<path d="M36.002 96.2264L42.0005 95.9999L36.002 94.6791V96.2264Z" fill="url(#paint133_linear)"/>
<path d="M36.0018 94.6792L42 96L37.557 90.8109C36.231 91.7268 35.9756 92.645 36.0018 94.6792Z" fill="url(#paint144_linear)"/>
<path d="M36 97L36 243H42L42 97H36Z" fill="url(#paint155_linear)"/>
<path d="M0 223L0 243H8L8 223H0Z" fill="url(#paint166_linear)"/>
<defs>
<linearGradient id="paint022_linear" x1="16" y1="88.55" x2="22" y2="88.55" gradientUnits="userSpaceOnUse">
<stop stop-color="#848484"/>
<stop offset="0.519337" stop-color="white"/>
<stop offset="1" stop-color="#848484"/>
</linearGradient>
<linearGradient id="paint11_linear" x1="40.2895" y1="44" x2="40.2895" y2="50" gradientUnits="userSpaceOnUse">
<stop stop-color="#848484"/>
<stop offset="0.519337" stop-color="white"/>
<stop offset="1" stop-color="#848484"/>
</linearGradient>
<linearGradient id="paint22_linear" x1="22.2236" y1="44.0375" x2="22.2236" y2="50.2269" gradientUnits="userSpaceOnUse">
<stop stop-color="#848484"/>
<stop offset="0.478645" stop-color="white"/>
<stop offset="1" stop-color="#848484"/>
</linearGradient>
<linearGradient id="paint33_linear" x1="19.8903" y1="44.037" x2="20.6602" y2="50.2273" gradientUnits="userSpaceOnUse">
<stop stop-color="#848484"/>
<stop offset="0.491713" stop-color="white"/>
<stop offset="1" stop-color="#848484"/>
</linearGradient>
<linearGradient id="paint44_linear" x1="16" y1="50.5" x2="21.9999" y2="50.5" gradientUnits="userSpaceOnUse">
<stop stop-color="#848484"/>
<stop offset="0.476897" stop-color="white"/>
<stop offset="1" stop-color="#848484"/>
</linearGradient>
<linearGradient id="paint55_linear" x1="22.5" y1="50" x2="22.5" y2="44" gradientUnits="userSpaceOnUse">
<stop stop-color="#848484"/>
<stop offset="0.508099" stop-color="white"/>
<stop offset="1" stop-color="#848484"/>
</linearGradient>
<linearGradient id="paint66_linear" x1="16.0029" y1="50.2271" x2="21.4398" y2="48.2755" gradientUnits="userSpaceOnUse">
<stop stop-color="#848484"/>
<stop offset="0.526042" stop-color="white"/>
<stop offset="1" stop-color="#848484"/>
</linearGradient>
<linearGradient id="paint77_linear" x1="16.0015" y1="47.9056" x2="21.5213" y2="50.2972" gradientUnits="userSpaceOnUse">
<stop stop-color="#848484"/>
<stop offset="0.491713" stop-color="white"/>
<stop offset="1" stop-color="#848484"/>
</linearGradient>
<linearGradient id="paint88_linear" x1="50.3305" y1="90" x2="50.3305" y2="96" gradientUnits="userSpaceOnUse">
<stop stop-color="#848484"/>
<stop offset="0.519337" stop-color="white"/>
<stop offset="1" stop-color="#848484"/>
</linearGradient>
<linearGradient id="paint99_linear" x1="42.2227" y1="90.0374" x2="42.2227" y2="96.2267" gradientUnits="userSpaceOnUse">
<stop stop-color="#848484"/>
<stop offset="0.478645" stop-color="white"/>
<stop offset="1" stop-color="#848484"/>
</linearGradient>
<linearGradient id="paint100_linear" x1="39.8893" y1="90.0374" x2="40.6592" y2="96.2277" gradientUnits="userSpaceOnUse">
<stop stop-color="#848484"/>
<stop offset="0.491713" stop-color="white"/>
<stop offset="1" stop-color="#848484"/>
</linearGradient>
<linearGradient id="paint111_linear" x1="36" y1="96.5" x2="42" y2="96.5" gradientUnits="userSpaceOnUse">
<stop stop-color="#848484"/>
<stop offset="0.476897" stop-color="white"/>
<stop offset="1" stop-color="#848484"/>
</linearGradient>
<linearGradient id="paint122_linear" x1="42.5" y1="96" x2="42.5" y2="90" gradientUnits="userSpaceOnUse">
<stop stop-color="#848484"/>
<stop offset="0.508099" stop-color="white"/>
<stop offset="1" stop-color="#848484"/>
</linearGradient>
<linearGradient id="paint133_linear" x1="36.002" y1="96.2264" x2="41.4389" y2="94.2748" gradientUnits="userSpaceOnUse">
<stop stop-color="#848484"/>
<stop offset="0.526042" stop-color="white"/>
<stop offset="1" stop-color="#848484"/>
</linearGradient>
<linearGradient id="paint144_linear" x1="36.0015" y1="93.9056" x2="41.5213" y2="96.2972" gradientUnits="userSpaceOnUse">
<stop stop-color="#848484"/>
<stop offset="0.491713" stop-color="white"/>
<stop offset="1" stop-color="#848484"/>
</linearGradient>
<linearGradient id="paint155_linear" x1="36" y1="170.097" x2="42" y2="170.097" gradientUnits="userSpaceOnUse">
<stop stop-color="#848484"/>
<stop offset="0.519337" stop-color="white"/>
<stop offset="1" stop-color="#848484"/>
</linearGradient>
<linearGradient id="paint166_linear" x1="0" y1="233.013" x2="8" y2="233.013" gradientUnits="userSpaceOnUse">
<stop stop-color="#848484"/>
<stop offset="0.519337" stop-color="white"/>
<stop offset="1" stop-color="#848484"/>
</linearGradient>
</defs>
</svg>
