<svg width="1000" height="301" viewBox="0 0 1000 301" fill="none" xmlns="http://www.w3.org/2000/svg">
<path d="M31.477 266.033H1000L967.312 300.033H0L31.477 266.033Z" fill="url(#paint0_linear)"/>
<rect x="33" y="198.033" width="967" height="68" fill="#848484"/>
<path d="M275 101.033L309 68.0334V198.033L275 230.033V101.033Z" fill="url(#paint1_linear)"/>
<rect x="309" y="68.0334" width="68" height="130" fill="#848484"/>
<path d="M343 102.033L377 68.0334V198.033L343 230.033V102.033Z" fill="url(#paint2_linear)" fill-opacity="0.8"/>
<path fill-rule="evenodd" clip-rule="evenodd" d="M1000 68.0333H31.477L0 102.033H275L309 68.0338H377L343.001 102.033H967.312L1000 68.0333Z" fill="url(#paint3_linear)"/>
<rect x="32" y="0.0335083" width="968" height="68" fill="#848484"/>
<defs>
<linearGradient id="paint0_linear" x1="500" y1="266.033" x2="500" y2="311.367" gradientUnits="userSpaceOnUse">
<stop stop-color="#A6A5A5"/>
<stop offset="1" stop-color="white"/>
</linearGradient>
<linearGradient id="paint1_linear" x1="292.025" y1="68.1887" x2="292.025" y2="284.492" gradientUnits="userSpaceOnUse">
<stop stop-color="#A6A5A5"/>
<stop offset="1" stop-color="white"/>
</linearGradient>
<linearGradient id="paint2_linear" x1="359.982" y1="68.1877" x2="359.982" y2="284.491" gradientUnits="userSpaceOnUse">
<stop stop-color="#A6A5A5"/>
<stop offset="1" stop-color="white"/>
</linearGradient>
<linearGradient id="paint3_linear" x1="500" y1="68.1933" x2="500" y2="113.098" gradientUnits="userSpaceOnUse">
<stop stop-color="#A6A5A5"/>
<stop offset="1" stop-color="white"/>
</linearGradient>
</defs>
</svg>
