<svg width="50" height="102" viewBox="0 0 50 102" fill="none" xmlns="http://www.w3.org/2000/svg">
<path d="M0 32.5L32 1.52588e-05V69L0 102V32.5Z" fill="#007AFF"/>
<path d="M32 1.52588e-05H42L10 32H0L32 1.52588e-05Z" fill="#A9A9A9"/>
<path d="M32 69H42L10 101.5H0L32 69Z" fill="#3592F7"/>
<path d="M10 32L42 1.52588e-05V69L10 102V32Z" fill="#848484"/>
<path d="M12 32L41 2.99983V67.9998L12 97.9998V32Z" fill="#C0A57F"/>
<rect y="32" width="10" height="70" fill="#A1A1A1"/>
<path d="M46.0953 43.0556C44.9009 43.0556 43.7342 43.3056 42.5676 43.8333C41.7064 44.2222 40.8731 44.4167 40.0398 44.4167C39.8176 44.4167 39.6231 44.3889 39.4564 44.3611C39.5676 44.25 40.3176 43.5 40.3176 43.4167C40.3176 43.1667 39.9287 43.1111 39.7898 43.1111C39.0953 43.1111 36.8176 44.5556 36.2342 44.8611C36.0398 44.9722 36.0398 45.25 36.2342 45.3611C36.8453 45.6945 39.2064 47.0833 39.7898 47.0833C39.9287 47.0833 40.3176 47.0278 40.3176 46.8056C40.3176 46.6945 39.4287 45.8056 39.3453 45.75C39.5953 45.75 39.8453 45.75 40.0398 45.75C41.2342 45.75 42.4009 45.5 43.5676 44.9722C44.4287 44.6111 45.262 44.4167 46.0953 44.4167C48.1509 44.4167 48.1787 45.4722 49.1231 44.4167C50.1231 43.2778 47.2898 43.0556 46.0953 43.0556ZM23.1787 37.2778C23.4842 46.3056 23.4842 55.3611 23.1787 64.3889C23.1787 64.75 22.2342 65.2778 22.2064 64.9167C21.9009 55.5278 21.9009 46.1389 22.2064 36.75C22.2342 36.3889 23.1787 36.9167 23.1787 37.2778ZM34.5953 35.8333C34.5953 34.2778 33.4564 35.5278 31.9842 36.3333C28.6509 34.5556 31.1787 34.5556 27.8453 36.3333C24.5398 34.5556 27.0398 34.5556 23.7342 36.3333C22.262 35.5278 21.1231 34.2778 21.1231 35.8333C21.1231 45.8333 20.8453 55.8333 21.1231 65.8333C21.1509 67.0556 23.3453 65.5556 23.7342 65.3333C27.1509 67.1667 24.4287 67.1667 27.8453 65.3333C31.262 67.1667 28.5676 67.1667 31.9842 65.3333C33.8731 66.3611 34.5953 67.5833 34.5953 65.8333V35.8333ZM32.5398 37.2778C32.5398 36.9167 33.4842 36.3889 33.4842 36.75C33.8176 46.1389 33.8176 55.5278 33.4842 64.9167C33.4842 65.2778 32.5398 64.75 32.5398 64.3889C32.2064 55.3611 32.2064 46.3056 32.5398 37.2778ZM30.4842 64.9167C30.1509 55.5278 30.1509 46.1389 30.4842 36.75C30.4842 36.3889 31.4287 36.9167 31.4287 37.2778C31.762 46.3056 31.7342 55.3611 31.4287 64.3889C31.4287 64.75 30.4842 65.2778 30.4842 64.9167ZM28.4009 37.2778C28.4287 36.9167 29.3453 36.3889 29.3731 36.75C29.7064 46.1389 29.7064 55.5278 29.3731 64.9167C29.3453 65.2778 28.4287 64.75 28.4009 64.3889C28.0953 55.3611 28.0953 46.3056 28.4009 37.2778ZM26.3453 64.9167C26.012 55.5278 26.012 46.1389 26.3453 36.75C26.3453 36.3889 27.2898 36.9167 27.3176 37.2778C27.6231 46.3056 27.6231 55.3611 27.3176 64.3889C27.2898 64.75 26.3453 65.2778 26.3453 64.9167ZM24.2898 37.2778C24.2898 36.9167 25.2342 36.3889 25.2342 36.75C25.5676 46.1389 25.5676 55.5278 25.2342 64.9167C25.2342 65.2778 24.2898 64.75 24.2898 64.3889C23.9564 55.3611 23.9564 46.3056 24.2898 37.2778ZM46.0953 54.6111C44.9009 54.6111 43.7342 54.8611 42.5676 55.3889C41.7064 55.7778 40.8731 55.9722 40.0398 55.9722C39.8176 55.9722 39.6231 55.9445 39.4564 55.9167C39.5676 55.8056 40.3176 55.0556 40.3176 54.9445C40.3176 54.7222 39.9287 54.6667 39.7898 54.6667C39.0953 54.6667 36.8176 56.1111 36.2342 56.4167C36.0398 56.5278 36.0398 56.8056 36.2342 56.9167C36.8453 57.2222 39.2064 58.6389 39.7898 58.6389C39.9287 58.6389 40.3176 58.5833 40.3176 58.3611C40.3176 58.25 39.4287 57.3611 39.3453 57.3056C39.5953 57.3056 39.8453 57.3056 40.0398 57.3056C41.2342 57.3056 42.4009 57.0556 43.5676 56.5278C44.4287 56.1389 45.262 55.9722 46.0953 55.9722C48.1509 55.9722 48.1787 57 49.1231 55.9445C50.1231 54.8333 47.2898 54.6111 46.0953 54.6111ZM46.0953 48.8056C44.9009 48.8056 43.7342 49.0833 42.5676 49.5833C41.7064 49.9722 40.8731 50.1667 40.0398 50.1667C39.8176 50.1667 39.6231 50.1667 39.4564 50.1389C39.5676 50 40.3176 49.2778 40.3176 49.1667C40.3176 48.9445 39.9287 48.8889 39.7898 48.8889C39.0953 48.8889 36.8176 50.3056 36.2342 50.6111C36.0398 50.7222 36.0398 51.0278 36.2342 51.1389C36.8453 51.4445 39.2064 52.8611 39.7898 52.8611C39.9287 52.8611 40.3176 52.7778 40.3176 52.5556C40.3176 52.4445 39.4287 51.5833 39.3453 51.5C39.5953 51.5278 39.8453 51.5278 40.0398 51.5278C41.2342 51.5278 42.4009 51.25 43.5676 50.75C44.4287 50.3611 45.262 50.1667 46.0953 50.1667C48.1509 50.1667 48.1787 51.2222 49.1231 50.1667C50.1231 49.0278 47.2898 48.8056 46.0953 48.8056Z" fill="#00BFFF"/>
</svg>
