<svg width="93" height="80" viewBox="0 0 93 80" fill="none" xmlns="http://www.w3.org/2000/svg">
<path d="M24.0083 11.8292L23.9937 11.8439H23.973H3.54597C1.64507 11.8439 0.0501556 13.3646 0.0501556 15.2626V76.8584C0.0501556 77.8459 0.436882 78.5811 1.05836 79.0707C1.68134 79.5614 2.54438 79.8084 3.5 79.8084H15H26C31.2149 79.8086 35.5029 79.8085 40.3317 79.8083C43.8367 79.8082 47.6265 79.8081 52.2624 79.8081C63.2714 79.8081 73.2026 75.343 80.4394 68.1062C87.6763 60.8693 92.1414 50.9382 92.1414 39.9292C92.1414 28.92 87.6762 18.9119 80.4396 11.7523L80.4394 11.7522C73.2026 4.5153 63.2714 0.0502014 52.2624 0.0502014C41.2533 0.0502014 31.2452 4.5154 24.0856 11.752L24.0854 11.7522L24.0083 11.8292ZM26.9436 14.6108L26.9441 14.6104C33.4279 8.20371 42.382 4.18976 52.2624 4.18976C62.1428 4.18976 71.097 8.20368 77.5039 14.6106C83.9879 21.0945 88.0018 30.0487 88.0018 39.9292C88.0018 49.8095 83.988 58.7637 77.5039 65.1707C71.0969 71.6547 62.1427 75.6686 52.2624 75.6686C42.382 75.6686 33.4278 71.6546 26.9438 65.1707C20.5369 58.7637 16.523 49.8095 16.523 39.9292C16.523 30.0488 20.5369 21.0947 26.9436 14.6108Z" fill="url(#paint880_linear)" stroke="#848484" stroke-width="0.1"/>
<defs>
<linearGradient id="paint880_linear" x1="14.6458" y1="11.6409" x2="13.875" y2="67.5261" gradientUnits="userSpaceOnUse">
<stop stop-color="#848484"/>
<stop offset="0.499267" stop-color="white"/>
<stop offset="1" stop-color="#848484"/>
</linearGradient>
</defs>
</svg>
