<svg width="93" height="80" viewBox="0 0 93 80" fill="none" xmlns="http://www.w3.org/2000/svg">
<path d="M68.1831 11.8291L68.1977 11.8437H68.2184H88.6454C90.5463 11.8437 92.1413 13.3644 92.1413 15.2624V76.8582C92.1413 77.8457 91.7545 78.5809 91.133 79.0705C90.5101 79.5612 89.647 79.8082 88.6914 79.8082H77.1914H66.1914C60.9766 79.8084 56.6885 79.8083 51.8597 79.8082C48.3547 79.8081 44.5649 79.808 39.929 79.808C28.92 79.808 18.9888 75.3429 11.752 68.106C4.51511 60.8691 0.05 50.938 0.05 39.929C0.05 28.9199 4.51521 18.9118 11.7518 11.7522L11.752 11.752C18.9888 4.51512 28.92 0.0500183 39.929 0.0500183C50.9381 0.0500183 60.9462 4.51522 68.1058 11.7518L68.106 11.752L68.1831 11.8291ZM65.2478 14.6106L65.2474 14.6102C58.7635 8.20353 49.8094 4.18958 39.929 4.18958C30.0486 4.18958 21.0944 8.2035 14.6875 14.6104C8.20355 21.0944 4.18956 30.0486 4.18956 39.929C4.18956 49.8093 8.20343 58.7635 14.6875 65.1705C21.0945 71.6545 30.0487 75.6684 39.929 75.6684C49.8094 75.6684 58.7636 71.6544 65.2476 65.1705C71.6545 58.7636 75.6684 49.8094 75.6684 39.929C75.6684 30.0486 71.6545 21.0945 65.2478 14.6106Z" fill="url(#paint990_linear)" stroke="#848484" stroke-width="0.1"/>
<circle cx="40" cy="40" r="36" transform="rotate(-180 40 40)" fill="#808080"/>
<defs>
<linearGradient id="paint990_linear" x1="77.5456" y1="11.6408" x2="78.3164" y2="67.5259" gradientUnits="userSpaceOnUse">
<stop stop-color="#848484"/>
<stop offset="0.499267" stop-color="white"/>
<stop offset="1" stop-color="#848484"/>
</linearGradient>
</defs>
</svg>
