<svg width="55" height="102" viewBox="0 0 55 102" fill="none" xmlns="http://www.w3.org/2000/svg">
<path d="M0 32.5L32 0V69L0 102V32.5Z" fill="#007AFF"/>
<path d="M32 0H42L10 32H0L32 0Z" fill="#A9A9A9"/>
<path d="M32 69H42L10 101.5H0L32 69Z" fill="#3592F7"/>
<path d="M10 32L42 0V69L10 102V32Z" fill="#848484"/>
<path d="M12 32L41 2.99982V67.9998L12 97.9998V32Z" fill="#C0A57F"/>
<rect y="32" width="10" height="70" fill="#A1A1A1"/>
<path d="M37.1549 37.2778C36.8494 46.3056 36.8494 55.3611 37.1549 64.3889C37.1549 64.75 38.0994 65.2778 38.1272 64.9167C38.4327 55.5278 38.4327 46.1389 38.1272 36.75C38.0994 36.3889 37.1549 36.9167 37.1549 37.2778ZM25.7383 35.8333C25.7383 34.2778 26.8772 35.5278 28.3494 36.3333C31.6827 34.5556 29.1549 34.5556 32.4883 36.3333C35.7938 34.5556 33.2938 34.5556 36.5994 36.3333C38.0716 35.5278 39.2105 34.2778 39.2105 35.8333C39.2105 45.8333 39.4883 55.8333 39.2105 65.8333C39.1827 67.0556 36.9883 65.5556 36.5994 65.3333C33.1827 67.1667 35.905 67.1667 32.4883 65.3333C29.0716 67.1667 31.7661 67.1667 28.3494 65.3333C26.4605 66.3611 25.7383 67.5833 25.7383 65.8333V35.8333ZM27.7938 37.2778C27.7938 36.9167 26.8494 36.3889 26.8494 36.75C26.5161 46.1389 26.5161 55.5278 26.8494 64.9167C26.8494 65.2778 27.7938 64.75 27.7938 64.3889C28.1272 55.3611 28.1272 46.3056 27.7938 37.2778ZM29.8494 64.9167C30.1827 55.5278 30.1827 46.1389 29.8494 36.75C29.8494 36.3889 28.9049 36.9167 28.9049 37.2778C28.5716 46.3056 28.5994 55.3611 28.9049 64.3889C28.9049 64.75 29.8494 65.2778 29.8494 64.9167ZM31.9327 37.2778C31.9049 36.9167 30.9883 36.3889 30.9605 36.75C30.6272 46.1389 30.6272 55.5278 30.9605 64.9167C30.9883 65.2778 31.9049 64.75 31.9327 64.3889C32.2383 55.3611 32.2383 46.3056 31.9327 37.2778ZM33.9883 64.9167C34.3216 55.5278 34.3216 46.1389 33.9883 36.75C33.9883 36.3889 33.0438 36.9167 33.0161 37.2778C32.7105 46.3056 32.7105 55.3611 33.0161 64.3889C33.0438 64.75 33.9883 65.2778 33.9883 64.9167ZM36.0438 37.2778C36.0438 36.9167 35.0994 36.3889 35.0994 36.75C34.7661 46.1389 34.7661 55.5278 35.0994 64.9167C35.0994 65.2778 36.0438 64.75 36.0438 64.3889C36.3772 55.3611 36.3772 46.3056 36.0438 37.2778Z" fill="#00BFFF"/>
<path d="M44.2377 59.139C45.4321 59.139 46.5988 58.889 47.7655 58.3612C48.6266 57.9723 49.4599 57.7779 50.2932 57.7779C50.5155 57.7779 50.7099 57.8057 50.8766 57.8335C50.7655 57.9446 50.0155 58.6946 50.0155 58.7779C50.0155 59.0279 50.4043 59.0835 50.5432 59.0835C51.2377 59.0835 53.5155 57.639 54.0988 57.3335C54.2932 57.2223 54.2932 56.9446 54.0988 56.8335C53.4877 56.5001 51.1266 55.1112 50.5432 55.1112C50.4043 55.1112 50.0155 55.1668 50.0155 55.389C50.0155 55.5001 50.9043 56.389 50.9877 56.4446C50.7377 56.4446 50.4877 56.4446 50.2932 56.4446C49.0988 56.4446 47.9321 56.6946 46.7655 57.2223C45.9043 57.5835 45.071 57.7779 44.2377 57.7779C42.1821 57.7779 42.1543 56.7223 41.2099 57.7779C40.2099 58.9168 43.0432 59.139 44.2377 59.139ZM44.2377 47.5835C45.4321 47.5835 46.5988 47.3335 47.7655 46.8057C48.6266 46.4168 49.4599 46.2223 50.2932 46.2223C50.5155 46.2223 50.7099 46.2501 50.8766 46.2779C50.7655 46.389 50.0155 47.139 50.0155 47.2501C50.0155 47.4723 50.4043 47.5279 50.5432 47.5279C51.2377 47.5279 53.5155 46.0835 54.0988 45.7779C54.2932 45.6668 54.2932 45.389 54.0988 45.2779C53.4877 44.9723 51.1266 43.5557 50.5432 43.5557C50.4043 43.5557 50.0155 43.6112 50.0155 43.8335C50.0155 43.9446 50.9043 44.8335 50.9877 44.889C50.7377 44.889 50.4877 44.889 50.2932 44.889C49.0988 44.889 47.9321 45.139 46.7655 45.6668C45.9043 46.0557 45.071 46.2223 44.2377 46.2223C42.1821 46.2223 42.1543 45.1946 41.2099 46.2501C40.2099 47.3612 43.0432 47.5835 44.2377 47.5835ZM44.2377 53.389C45.4321 53.389 46.5988 53.1112 47.7655 52.6112C48.6266 52.2223 49.4599 52.0279 50.2932 52.0279C50.5155 52.0279 50.7099 52.0279 50.8766 52.0557C50.7655 52.1946 50.0155 52.9168 50.0155 53.0279C50.0155 53.2501 50.4043 53.3057 50.5432 53.3057C51.2377 53.3057 53.5155 51.889 54.0988 51.5835C54.2932 51.4723 54.2932 51.1668 54.0988 51.0557C53.4877 50.7501 51.1266 49.3335 50.5432 49.3335C50.4043 49.3335 50.0155 49.4168 50.0155 49.639C50.0155 49.7501 50.9043 50.6112 50.9877 50.6946C50.7377 50.6668 50.4877 50.6668 50.2932 50.6668C49.0988 50.6668 47.9321 50.9446 46.7655 51.4446C45.9043 51.8335 45.071 52.0279 44.2377 52.0279C42.1821 52.0279 42.1543 50.9723 41.2099 52.0279C40.2099 53.1668 43.0432 53.389 44.2377 53.389Z" fill="#00BFFF"/>
</svg>
