<svg width="80" height="80" viewBox="0 0 80 80" fill="none" xmlns="http://www.w3.org/2000/svg">
<path fill-rule="evenodd" clip-rule="evenodd" d="M40 80C62.0914 80 80 62.0914 80 40C80 17.9086 62.0914 0 40 0C17.9086 0 0 17.9086 0 40C0 62.0914 17.9086 80 40 80Z" fill="#3D3D3D"/>
<path fill-rule="evenodd" clip-rule="evenodd" d="M60.501 39.4041C60.501 45.2669 58.6455 50.8534 55.2598 55.4881C54.8525 56.0453 54.0703 56.1668 53.5127 55.7596C52.9551 55.3524 52.834 54.5702 53.2412 54.013C56.3174 49.8031 58.001 44.7323 58.001 39.4041C58.001 34.1546 56.3662 29.1541 53.373 24.9789C52.9717 24.4178 53.0996 23.6366 53.6611 23.2347C54.2227 22.8324 55.0029 22.9613 55.4053 23.5223C58.7002 28.1185 60.501 33.6278 60.501 39.4041ZM49.8389 51.9671C52.207 48.5829 53.5 44.536 53.5 40.2962C53.5 36.0145 52.1816 31.931 49.7695 28.5277C49.3711 27.9642 48.5908 27.8314 48.0273 28.2308C47.4639 28.6297 47.3311 29.41 47.7305 29.973C49.8447 32.9569 51 36.536 51 40.2962C51 44.0199 49.8672 47.5667 47.79 50.5335C47.3945 51.0995 47.5322 51.8788 48.0977 52.2748C48.6631 52.6703 49.4424 52.5326 49.8389 51.9671ZM27.5 35.0306L33.1758 30.0155C34.4668 28.8749 36.5 29.7914 36.5 31.514V48.4881C36.5 50.2113 34.4668 51.1278 33.1758 49.9872L27.5 44.972L22 44.9715C20.8955 44.9715 20 44.076 20 42.9715V37.0306C20 35.9261 20.8955 35.0306 22 35.0306H27.5ZM46.7852 40.2967C46.7852 43.0848 45.9209 45.7464 44.3379 47.971C43.9375 48.5335 43.1572 48.6649 42.5947 48.265C42.0322 47.8646 41.9004 47.0838 42.3008 46.5213C43.585 44.7166 44.2852 42.5609 44.2852 40.2967C44.2852 37.9955 43.5625 35.8065 42.2393 33.9852C41.833 33.4266 41.957 32.6449 42.5156 32.2391C43.0742 31.8333 43.8555 31.9574 44.2617 32.5155C45.8926 34.7606 46.7852 37.4627 46.7852 40.2967Z" fill="white"/>
</svg>
