<svg width="50" height="50" viewBox="0 0 50 50" fill="none" xmlns="http://www.w3.org/2000/svg">
<path fill-rule="evenodd" clip-rule="evenodd" d="M25 50C38.8071 50 50 38.8071 50 25C50 11.1929 38.8071 0 25 0C11.1929 0 0 11.1929 0 25C0 38.8071 11.1929 50 25 50Z" fill="#640064"/>
<path fill-rule="evenodd" clip-rule="evenodd" d="M21.8879 15H28.7776C29.2501 15 29.8701 15.3075 30.1609 15.6866L32.0542 18.4782C32.2392 18.7498 32.5466 18.9148 32.875 18.9148H36.9465C37.8964 18.9148 38.6647 19.6898 38.6647 20.6506V33.2634C38.6647 34.2225 37.8964 35 36.9465 35H13.7191C12.7691 35 12 34.2242 12 33.2634V20.6506C12 19.6915 12.7691 18.9148 13.7191 18.9148H17.8073C18.1247 18.9148 18.4222 18.7565 18.6022 18.4932L20.5038 15.6866C20.7955 15.3083 21.4179 15 21.8879 15ZM19.6496 26.7756C19.6496 29.9481 22.1938 32.5198 25.3325 32.5198C28.4713 32.5198 31.0146 29.9481 31.0146 26.7756C31.0146 23.6022 28.4713 21.0313 25.3325 21.0313C22.1938 21.0313 19.6496 23.6022 19.6496 26.7756ZM15.2017 16.9046H16.5276C16.8934 16.9046 17.1892 17.2024 17.1892 17.5746V18.2439H14.5395V17.5746C14.5395 17.2043 14.834 16.9046 15.2017 16.9046ZM20.602 26.7395C20.602 24.0971 22.7194 21.9572 25.3326 21.9572C27.9458 21.9572 30.0632 24.0971 30.0632 26.7395C30.0632 29.381 27.9458 31.5218 25.3326 31.5218C22.7194 31.5218 20.602 29.381 20.602 26.7395Z" fill="white"/>
</svg>
