<svg width="42" height="42" viewBox="0 0 42 42" fill="none" xmlns="http://www.w3.org/2000/svg">
<circle cx="21" cy="21" r="21" fill="#32FA2E"/>
<circle cx="21" cy="21" r="19" fill="#2E2727"/>
<path d="M5.20996 28.7503H4V25.1391H4.36299V18.7501L5.69395 17.2223L6.41993 13.3334C7.86575 10.6333 9.68737 10.1036 13.8007 10H18.5195L19.4876 10.4167V25.1391H22.7544C23.5839 23.9878 24.1516 23.6238 25.2953 23.3335H26.8683C27.8204 23.6544 28.3265 24.0021 29.1673 25.0002C29.8296 24.0365 30.3328 23.6714 31.4662 23.3335H33.4021C34.693 23.6595 35.9431 25.1391 35.9431 25.1391H38V28.7503H35.4591V26.3892C34.9877 25.1408 34.5077 24.6878 33.4021 24.1669H31.4662C30.4224 24.5673 29.9548 24.9825 29.5302 26.3892V28.7503H29.2883H28.6833V26.3892C28.5172 25.3425 28.1663 24.8478 26.9893 24.1669H25.0534C24.0383 24.54 23.5262 24.9925 22.7544 26.3892V28.7503H11.1388V26.2503C10.5641 24.4261 9.89007 23.9354 8.23487 23.7502C6.84793 23.9806 6.15509 24.4166 5.20996 26.2503V28.7503Z" fill="#BEBEBE" stroke="black" stroke-width="0.1"/>
</svg>
