<svg width="41" height="21" viewBox="0 0 41 21" fill="none" xmlns="http://www.w3.org/2000/svg">
<path d="M2.38891 19.7503H1V16.1391H1.41667V9.75014L2.94448 8.22234L3.77782 4.33339C5.43747 1.6333 7.5285 1.10356 12.2502 1H17.6669L18.7781 1.41667V16.1391H22.5281C23.4802 14.9878 24.1319 14.6238 25.4448 14.3335H27.2504C28.3433 14.6544 28.9242 15.0021 29.8894 16.0002C30.6496 15.0365 31.2273 14.6714 32.5283 14.3335H34.7505C36.2323 14.6595 37.6673 16.1391 37.6673 16.1391H40.0284V19.7503H37.1117V17.3892C36.5706 16.1408 36.0196 15.6878 34.7505 15.1669H32.5283C31.3301 15.5673 30.7934 15.9825 30.306 17.3892V19.7503H30.0283H29.3338V17.3892C29.1431 16.3425 28.7403 15.8478 27.3893 15.1669H25.1671C24.0018 15.54 23.414 15.9925 22.5281 17.3892V19.7503H9.19456V17.2503C8.53493 15.4261 7.76118 14.9354 5.86118 14.7502C4.26912 14.9806 3.47382 15.4166 2.38891 17.2503V19.7503Z" fill="#007AFF" stroke="black" stroke-width="0.1"/>
<circle cx="5.8611" cy="18.3611" r="2.63893" fill="#202124"/>
<circle cx="33.6399" cy="18.3611" r="2.63893" fill="#202124"/>
<circle cx="26.1389" cy="18.3611" r="2.63893" fill="#202124"/>
</svg>
