<svg width="80" height="80" viewBox="0 0 80 80" fill="none" xmlns="http://www.w3.org/2000/svg">
<path fill-rule="evenodd" clip-rule="evenodd" d="M40 80C62.0914 80 80 62.0914 80 40C80 17.9086 62.0914 0 40 0C17.9086 0 0 17.9086 0 40C0 62.0914 17.9086 80 40 80Z" fill="#FF8D36"/>
<path fill-rule="evenodd" clip-rule="evenodd" d="M26.955 26.6665C25.1942 26.6665 23.8241 28.1733 24.0702 29.9175C24.8983 35.7671 27.1874 47.7871 32.3446 51.333C32.3671 51.3262 47.0116 51.333 47.0116 51.333C49.1415 49.0957 50.7499 46.3564 51.9638 43.5269C52.8075 43.8325 53.7216 43.9995 54.6776 43.9995C58.911 43.9995 62.3436 40.7163 62.3436 36.6665C62.3436 32.8647 59.3202 29.7393 55.4481 29.3696C55.4198 27.8594 54.1552 26.6665 52.5897 26.6665H26.955ZM52.702 41.667C54.08 37.9189 54.8241 34.1699 55.2235 31.3574C58.1122 31.6167 60.3436 33.9126 60.3436 36.6665C60.3436 39.5913 57.8261 41.9995 54.6776 41.9995C53.9813 41.9995 53.3163 41.8818 52.702 41.667ZM22.0917 52.6665C21.2011 52.6665 20.7548 53.7437 21.3847 54.3735C21.5722 54.561 21.827 54.6665 22.0917 54.6665H57.2636C57.5282 54.6665 57.7831 54.561 57.9706 54.3735C58.6005 53.7437 58.1542 52.6665 57.2636 52.6665H22.0917Z" fill="white"/>
</svg>
