<svg width="80" height="80" viewBox="0 0 80 80" fill="none" xmlns="http://www.w3.org/2000/svg">
<path fill-rule="evenodd" clip-rule="evenodd" d="M40 80C62.0914 80 80 62.0914 80 40C80 17.9086 62.0914 0 40 0C17.9086 0 0 17.9086 0 40C0 62.0914 17.9086 80 40 80Z" fill="#3D3D3D"/>
<path fill-rule="evenodd" clip-rule="evenodd" d="M27 29.5C27 30.8809 25.8809 32 24.5 32C23.1191 32 22 30.8809 22 29.5C22 28.1191 23.1191 27 24.5 27C25.8809 27 27 28.1191 27 29.5ZM32.75 28C31.7832 28 31 28.7837 31 29.75C31 30.7163 31.7832 31.5 32.75 31.5H56.25C57.2168 31.5 58 30.7163 58 29.75C58 28.7837 57.2168 28 56.25 28H32.75ZM24.5 43C25.8809 43 27 41.8809 27 40.5C27 39.1191 25.8809 38 24.5 38C23.1191 38 22 39.1191 22 40.5C22 41.8809 23.1191 43 24.5 43ZM27 50.5C27 51.8809 25.8809 53 24.5 53C23.1191 53 22 51.8809 22 50.5C22 49.1191 23.1191 48 24.5 48C25.8809 48 27 49.1191 27 50.5ZM31 40.25C31 39.2837 31.7832 38.5 32.75 38.5H56.25C57.2168 38.5 58 39.2837 58 40.25C58 41.2163 57.2168 42 56.25 42H32.75C31.7832 42 31 41.2163 31 40.25ZM32.75 49C31.7832 49 31 49.7837 31 50.75C31 51.7163 31.7832 52.5 32.75 52.5H56.25C57.2168 52.5 58 51.7163 58 50.75C58 49.7837 57.2168 49 56.25 49H32.75Z" fill="white"/>
</svg>
