<svg width="50" height="50" viewBox="0 0 50 50" fill="none" xmlns="http://www.w3.org/2000/svg">
<path fill-rule="evenodd" clip-rule="evenodd" d="M25 50C38.8071 50 50 38.8071 50 25C50 11.1929 38.8071 0 25 0C11.1929 0 0 11.1929 0 25C0 38.8071 11.1929 50 25 50Z" fill="#2F5E61"/>
<path d="M21.5605 10.6562C21.5605 11.4863 21.4124 12.1016 21.1162 12.502C20.82 12.8991 20.3545 13.0977 19.7197 13.0977C19.085 13.0977 18.6097 12.8861 18.2939 12.4629C17.9814 12.0365 17.8252 11.4245 17.8252 10.627V6.88184C17.8252 5.60254 18.1605 4.80339 18.8311 4.48438C19.0785 4.36719 19.3779 4.30859 19.7295 4.30859C20.9372 4.30859 21.541 5.07031 21.541 6.59375V7.77539H20.2764V6.67676C20.2764 6.23405 20.2389 5.91829 20.1641 5.72949C20.0892 5.53743 19.9427 5.44141 19.7246 5.44141C19.5065 5.44141 19.3551 5.54232 19.2705 5.74414C19.1859 5.94596 19.1436 6.25521 19.1436 6.67188V10.6855C19.1436 11.1478 19.1842 11.4782 19.2656 11.6768C19.347 11.8753 19.4951 11.9746 19.71 11.9746C19.9248 11.9746 20.0729 11.8737 20.1543 11.6719C20.2357 11.4701 20.2764 11.1364 20.2764 10.6709V9.44043H21.5605V10.6562ZM22.6299 13V4.40625H23.9385V7.88281H25.1104V4.40625H26.4189V13H25.1104V9.00586H23.9385V13H22.6299ZM29.6221 13.0049V11.4863H27.5029V10.5244L29.3926 4.40137H30.7891V10.4316H31.4531V11.4863H30.7891V13.0049H29.6221ZM28.5137 10.4316H29.6221V6.18848L28.5137 10.4316Z" fill="#FF9500"/>
<path d="M23.9824 21.6562C23.9824 22.4863 23.8343 23.1016 23.5381 23.502C23.2419 23.8991 22.7764 24.0977 22.1416 24.0977C21.5068 24.0977 21.0316 23.8861 20.7158 23.4629C20.4033 23.0365 20.2471 22.4245 20.2471 21.627V17.8818C20.2471 16.6025 20.5824 15.8034 21.2529 15.4844C21.5003 15.3672 21.7998 15.3086 22.1514 15.3086C23.359 15.3086 23.9629 16.0703 23.9629 17.5938V18.7754H22.6982V17.6768C22.6982 17.234 22.6608 16.9183 22.5859 16.7295C22.5111 16.5374 22.3646 16.4414 22.1465 16.4414C21.9284 16.4414 21.777 16.5423 21.6924 16.7441C21.6077 16.946 21.5654 17.2552 21.5654 17.6719V21.6855C21.5654 22.1478 21.6061 22.4782 21.6875 22.6768C21.7689 22.8753 21.917 22.9746 22.1318 22.9746C22.3467 22.9746 22.4948 22.8737 22.5762 22.6719C22.6576 22.4701 22.6982 22.1364 22.6982 21.6709V20.4404H23.9824V21.6562ZM26.2627 21.6123C26.2627 22.1169 26.3001 22.4684 26.375 22.667C26.4531 22.8656 26.611 22.9648 26.8486 22.9648C27.0863 22.9648 27.2425 22.8639 27.3174 22.6621C27.3923 22.457 27.4297 22.1071 27.4297 21.6123V17.6084C27.4297 17.2015 27.3906 16.9053 27.3125 16.7197C27.2376 16.5309 27.0879 16.4365 26.8633 16.4365C26.6419 16.4365 26.4857 16.5309 26.3945 16.7197C26.3066 16.9053 26.2627 17.1999 26.2627 17.6035V21.6123ZM28.7432 21.5977C28.7432 22.4375 28.5934 23.0641 28.2939 23.4775C27.9945 23.891 27.5143 24.0977 26.8535 24.0977C26.196 24.0977 25.7126 23.891 25.4033 23.4775C25.0973 23.0609 24.9443 22.4342 24.9443 21.5977V17.667C24.9443 16.0915 25.5872 15.3037 26.873 15.3037C27.5371 15.3037 28.014 15.5039 28.3037 15.9043C28.5967 16.3047 28.7432 16.8923 28.7432 17.667V21.5977Z" fill="#FF9500"/>
<path d="M21.2812 46V37.4062H22.5898V40.8828H23.7617V37.4062H25.0703V46H23.7617V42.0059H22.5898V46H21.2812ZM26.4961 46V45.4922C26.4961 45.043 26.5693 44.6019 26.7158 44.1689C26.8656 43.7327 27.0983 43.238 27.4141 42.6846C27.4271 42.665 27.5459 42.4616 27.7705 42.0742C27.9951 41.6868 28.1595 41.4199 28.2637 41.2734C28.5176 40.8568 28.6445 40.2806 28.6445 39.5449C28.6445 38.806 28.4883 38.4365 28.1758 38.4365C27.9154 38.4365 27.7542 38.6416 27.6924 39.0518C27.6663 39.2275 27.6533 39.4473 27.6533 39.7109V40.7998H26.4033V40.2725C26.4033 39.208 26.5026 38.4886 26.7012 38.1143C26.903 37.7399 27.1797 37.5007 27.5312 37.3965C27.7266 37.3379 27.9626 37.3086 28.2393 37.3086C28.516 37.3086 28.765 37.3704 28.9863 37.4941C29.2012 37.6178 29.3737 37.7904 29.5039 38.0117C29.7578 38.4447 29.8848 39.0094 29.8848 39.7061C29.8848 40.3994 29.7497 41.0081 29.4795 41.5322C29.2093 42.0563 28.9424 42.5218 28.6787 42.9287C28.1969 43.6742 27.8844 44.3561 27.7412 44.9746H29.7236V46H26.4961Z" fill="#FF9500"/>
<path d="M19.2168 32.6562C19.2168 33.4863 19.0687 34.1016 18.7725 34.502C18.4762 34.8991 18.0107 35.0977 17.376 35.0977C16.7412 35.0977 16.266 34.8861 15.9502 34.4629C15.6377 34.0365 15.4814 33.4245 15.4814 32.627V28.8818C15.4814 27.6025 15.8167 26.8034 16.4873 26.4844C16.7347 26.3672 17.0342 26.3086 17.3857 26.3086C18.5934 26.3086 19.1973 27.0703 19.1973 28.5938V29.7754H17.9326V28.6768C17.9326 28.234 17.8952 27.9183 17.8203 27.7295C17.7454 27.5374 17.599 27.4414 17.3809 27.4414C17.1628 27.4414 17.0114 27.5423 16.9268 27.7441C16.8421 27.946 16.7998 28.2552 16.7998 28.6719V32.6855C16.7998 33.1478 16.8405 33.4782 16.9219 33.6768C17.0033 33.8753 17.1514 33.9746 17.3662 33.9746C17.5811 33.9746 17.7292 33.8737 17.8105 33.6719C17.8919 33.4701 17.9326 33.1364 17.9326 32.6709V31.4404H19.2168V32.6562ZM23.875 32.5439C23.875 33.4033 23.7236 34.0446 23.4209 34.4678C23.1182 34.8877 22.6315 35.0977 21.9609 35.0977C21.2936 35.0977 20.8249 34.9056 20.5547 34.5215C20.2878 34.1341 20.1543 33.5221 20.1543 32.6855V32.124H21.3799V32.7197C21.3799 33.1917 21.4157 33.5189 21.4873 33.7012C21.5622 33.8835 21.7233 33.9746 21.9707 33.9746C22.2181 33.9746 22.3825 33.8656 22.4639 33.6475C22.5485 33.4261 22.5908 33.0404 22.5908 32.4902C22.5908 31.9368 22.5371 31.543 22.4297 31.3086C22.3223 31.0742 22.1123 30.957 21.7998 30.957H21.4287V29.9609H21.79C22.096 29.9609 22.306 29.8584 22.4199 29.6533C22.5339 29.445 22.5908 29.1048 22.5908 28.6328C22.5908 28.1608 22.542 27.8434 22.4443 27.6807C22.3499 27.5179 22.1986 27.4365 21.9902 27.4365C21.7819 27.4365 21.6354 27.5228 21.5508 27.6953C21.4694 27.8646 21.4287 28.1608 21.4287 28.584V28.8428H20.1641V28.5742C20.1641 27.7897 20.3024 27.2168 20.5791 26.8555C20.8558 26.4909 21.318 26.3086 21.9658 26.3086C22.6169 26.3086 23.0954 26.4958 23.4014 26.8701C23.7074 27.2445 23.8604 27.8125 23.8604 28.5742C23.8604 29.0462 23.7871 29.4434 23.6406 29.7656C23.4941 30.0846 23.2728 30.2979 22.9766 30.4053C23.3021 30.5583 23.5332 30.8122 23.6699 31.167C23.8066 31.5218 23.875 31.9808 23.875 32.5439ZM24.9736 35V26.4062H26.2822V29.8828H27.4541V26.4062H28.7627V35H27.4541V31.0059H26.2822V35H24.9736ZM33.1328 34.5557C32.8333 34.9202 32.3711 35.1025 31.7461 35.1025C31.1211 35.1025 30.6523 34.9219 30.3398 34.5605C30.0306 34.196 29.8711 33.641 29.8613 32.8955C29.8581 32.8727 29.8564 32.6546 29.8564 32.2412C29.8564 31.8245 29.9215 31.4372 30.0518 31.0791C30.182 30.721 30.3594 30.4639 30.584 30.3076C30.125 29.9821 29.8955 29.3636 29.8955 28.4521C29.8955 27.7002 30.0404 27.1549 30.3301 26.8164C30.623 26.4746 31.0967 26.3037 31.751 26.3037C32.4085 26.3037 32.8789 26.4697 33.1621 26.8018C33.4453 27.1338 33.5869 27.6839 33.5869 28.4521C33.5869 29.3734 33.359 29.9919 32.9033 30.3076C33.1182 30.4639 33.2874 30.7227 33.4111 31.084C33.5348 31.4453 33.5967 31.8441 33.5967 32.2803V32.8711C33.5902 33.6296 33.4355 34.1911 33.1328 34.5557ZM31.165 32.8613C31.1683 33.2812 31.2074 33.5742 31.2822 33.7402C31.3571 33.903 31.5101 33.9844 31.7412 33.9844C31.9756 33.9844 32.1253 33.903 32.1904 33.7402C32.2555 33.5742 32.2881 33.2747 32.2881 32.8418V32.1387C32.2881 31.2598 32.109 30.8203 31.751 30.8203C31.5719 30.8203 31.4287 30.9342 31.3213 31.1621C31.2171 31.39 31.165 31.7171 31.165 32.1436V32.8613ZM31.4482 29.8438C31.5199 29.9154 31.6175 29.9512 31.7412 29.9512C31.7412 29.9544 31.7428 29.9561 31.7461 29.9561C31.8665 29.9561 31.9626 29.9186 32.0342 29.8438C32.109 29.7689 32.1693 29.6289 32.2148 29.4238C32.2604 29.2188 32.2832 28.9339 32.2832 28.5693C32.2832 28.208 32.2637 27.9378 32.2246 27.7588C32.1888 27.5765 32.1351 27.4577 32.0635 27.4023C31.9919 27.347 31.8861 27.3193 31.7461 27.3193C31.6061 27.3193 31.5003 27.3503 31.4287 27.4121C31.279 27.5358 31.2041 27.9313 31.2041 28.5986C31.2041 29.266 31.2855 29.681 31.4482 29.8438Z" fill="#FF9500"/>
</svg>
