<svg width="80" height="80" viewBox="0 0 80 80" fill="none" xmlns="http://www.w3.org/2000/svg">
<path fill-rule="evenodd" clip-rule="evenodd" d="M40 80C62.0914 80 80 62.0914 80 40C80 17.9086 62.0914 0 40 0C17.9086 0 0 17.9086 0 40C0 62.0914 17.9086 80 40 80Z" fill="#3396FF"/>
<path fill-rule="evenodd" clip-rule="evenodd" d="M30.3335 22C28.6763 22 27.3335 23.3433 27.3335 25V54.6665H47.3335V39.0005C47.6118 38.791 47.9585 38.6665 48.3335 38.6665C49.2544 38.6665 49.9995 39.4116 49.9995 40.332V50.3345V51.6675H50.2729C50.856 53.0327 52.3071 54 53.9995 54C56.2085 54 57.9995 52.3599 57.9995 50.3345V41.3335V38.999V38.667V32V31.3335L57.813 31.1934C57.8081 30.9805 57.7349 30.7681 57.5903 30.5898L51.2974 22.8184C50.9497 22.3892 50.3198 22.3228 49.8911 22.6704C49.4614 23.0181 49.396 23.6479 49.7427 24.0771L52.6665 27.6875V34L55.9995 36.917V38.999V41.3335V50.3345C55.9995 51.2139 55.1421 52 53.9995 52C52.8608 52 51.9995 51.2114 51.9995 50.3345V40.332V38.999H51.7495C51.2163 37.6333 49.8882 36.6665 48.3335 36.6665C47.9868 36.6665 47.6519 36.7144 47.3335 36.8047V25C47.3335 23.3433 45.9907 22 44.3335 22H30.3335ZM26.6665 56C25.562 56 24.6665 56.8955 24.6665 58H49.9995C49.9995 56.8955 49.104 56 47.9995 56H26.6665ZM29.3335 24H45.3335V34.6665H29.3335V24Z" fill="white"/>
</svg>
