<svg width="50" height="50" viewBox="0 0 50 50" fill="none" xmlns="http://www.w3.org/2000/svg">
<path fill-rule="evenodd" clip-rule="evenodd" d="M25 50C38.8071 50 50 38.8071 50 25C50 11.1929 38.8071 0 25 0C11.1929 0 0 11.1929 0 25C0 38.8071 11.1929 50 25 50Z" fill="#3396FF"/>
<path fill-rule="evenodd" clip-rule="evenodd" d="M20.0833 13.75C18.4264 13.75 17.0833 15.0931 17.0833 16.75V34.1667H29.5833V24.3756C29.7575 24.2445 29.9741 24.1666 30.2083 24.1666C30.7839 24.1666 31.25 24.6325 31.25 25.2077V32.2923H31.4209C31.7852 33.1456 32.6922 33.75 33.75 33.75C35.1307 33.75 36.25 32.7249 36.25 31.459V25.8333V24.3744V20H36.25V19.5834L36.1331 19.4957C36.1297 19.3628 36.0841 19.2299 35.994 19.1186L32.0607 14.2614C31.8435 13.9932 31.4499 13.9518 31.1817 14.1691C30.9134 14.3863 30.8721 14.7798 31.0893 15.0481L32.9166 17.3047V21.25L35 23.073V24.3744V25.8333V31.459C35 32.0087 34.4638 32.5 33.75 32.5C33.0381 32.5 32.5 32.0073 32.5 31.459V24.3744H32.3438C32.0104 23.5209 31.18 22.9166 30.2083 22.9166C29.9917 22.9166 29.7821 22.9468 29.5833 23.0031V16.75C29.5833 15.0931 28.2401 13.75 26.5833 13.75H20.0833ZM16.6666 35C15.9763 35 15.4166 35.5596 15.4166 36.25H31.25C31.25 35.5596 30.6903 35 30 35H16.6666ZM18.3333 15H28.3333V21.6667H18.3333V15Z" fill="white"/>
</svg>
