<svg width="50" height="50" viewBox="0 0 50 50" fill="none" xmlns="http://www.w3.org/2000/svg">
<g class="fault inactive" reference="ON" id="Lamp">
<path id="Background" fill-rule="evenodd" clip-rule="evenodd" d="M25 50C38.8071 50 50 38.8071 50 25C50 11.1929 38.8071 0 25 0C11.1929 0 0 11.1929 0 25C0 38.8071 11.1929 50 25 50Z"/>
<g class="animation-hide" id="LampOFF">
<path id="Ellipse" fill-rule="evenodd" clip-rule="evenodd" d="M25 47C37.1503 47 47 37.1503 47 25C47 12.8497 37.1503 3 25 3C12.8497 3 3 12.8497 3 25C3 37.1503 12.8497 47 25 47Z" fill="#3D3D3D"/>
<path id="Vector" fill-rule="evenodd" clip-rule="evenodd" d="M21.6713 19.6938C21.3685 21.2076 20.6548 22.3538 19.9628 23.4567C19.141 24.776 18.3408 26.0735 18.3408 27.8901C18.3408 29.75 19.0977 31.4585 20.3304 32.6912C21.5415 33.9022 23.25 34.6808 25.1315 34.6808C26.9913 34.6808 28.6998 33.9022 29.9325 32.6912C31.1436 31.4585 31.9221 29.75 31.9221 27.8901C31.9221 25.9005 31.1003 24.6678 30.2785 23.3919C29.5865 22.3106 28.8728 21.2292 28.5701 19.6938C27.5753 19.6289 26.7102 19.5856 25.8884 19.564C25.9317 21.2076 26.083 22.7431 26.3426 24.2137C26.6021 25.6626 27.3157 27.4792 27.4022 28.3227C27.4887 29.1877 27.4239 28.9066 27.013 28.474C26.6237 28.0415 25.8668 26.7872 25.1099 26.7872C24.5259 26.7872 23.6609 28.0631 23.2067 28.4957C22.731 28.9282 22.7093 29.1012 22.8607 28.3443C23.0121 27.5657 23.6609 25.6626 23.9204 24.2137C24.1583 22.7431 24.3097 21.2076 24.3529 19.564C23.5311 19.5856 22.6661 19.6289 21.6713 19.6938ZM21.974 11.9516H22.1038C22.1038 11.7353 22.4715 11.5623 23.0986 11.4758C23.423 11.4325 23.8555 11.3893 24.3313 11.3676V11.346C24.3313 11.1514 24.699 11 25.1531 11C25.6073 11 25.9749 11.1514 25.9749 11.346V11.3676C26.4507 11.3893 26.8832 11.4325 27.2076 11.4758C27.8348 11.5623 28.2024 11.7353 28.2024 11.9516H28.3322C29.2621 11.9516 29.327 13.487 28.5484 13.7249C29.2837 13.9628 29.2837 15.2604 28.5484 15.4766C29.2621 15.6929 29.2621 16.904 28.6349 17.1851H28.9593C29.6298 17.1851 29.846 18.0069 29.6081 18.5476C29.8893 20.2128 30.6462 21.4022 31.4031 22.5484C32.3763 24.019 33.3062 25.468 33.3062 27.8469C33.3062 30.096 32.3979 32.1505 30.9273 33.6211C29.4351 35.0917 27.4022 36 25.1531 36C22.904 36 20.8711 35.0917 19.3789 33.6211C17.9083 32.1505 17 30.096 17 27.8469C17 25.6626 17.9299 24.1704 18.8815 22.6349C19.6384 21.4239 20.417 20.1912 20.6981 18.5476C20.4602 18.0069 20.6765 17.1851 21.3685 17.1851H21.6713C21.0441 16.904 21.0441 15.6929 21.7578 15.4766C21.0225 15.2604 21.0225 13.9628 21.7578 13.7249C20.9576 13.487 21.0441 11.9516 21.974 11.9516ZM21.4334 19.0017C21.0874 20.6237 20.3088 21.8564 19.5735 23.0675C18.6652 24.4948 17.8002 25.8789 17.8002 27.8469C17.8002 29.8798 18.622 31.718 19.9628 33.0372C21.282 34.378 23.1202 35.1998 25.1531 35.1998C27.186 35.1998 29.0242 34.378 30.3434 33.0372C31.6842 31.718 32.506 29.8798 32.506 27.8469C32.506 25.7059 31.6194 24.3651 30.7327 22.981C29.9758 21.8348 29.2189 20.6453 28.8728 19.0017C27.8131 18.9152 22.4931 18.9152 21.4334 19.0017ZM24.7422 19.564C24.6773 21.2292 24.5476 22.7863 24.2881 24.2569C24.0934 25.3815 23.8555 26.4412 23.5528 27.4576C24.0502 26.8521 24.5692 26.3979 25.1099 26.3979C25.7586 26.3979 26.3426 27.0251 26.7318 27.5009C26.4074 26.4844 26.1695 25.4031 25.9749 24.2785C25.7154 22.7863 25.564 21.2292 25.4991 19.564C25.8668 19.564 24.4827 19.564 24.7422 19.564Z" fill="#75787A"/>
</g>
<g class="animation-display" id="LampON">
<circle id="Ellipse_2" cx="25" cy="25" r="22" fill="#FFD600"/>
<path id="Vector_2" fill-rule="evenodd" clip-rule="evenodd" d="M21.6713 19.6938C21.3685 21.2076 20.6548 22.3538 19.9628 23.4567C19.141 24.776 18.3408 26.0735 18.3408 27.8901C18.3408 29.75 19.0977 31.4585 20.3304 32.6912C21.5415 33.9022 23.25 34.6808 25.1315 34.6808C26.9913 34.6808 28.6998 33.9022 29.9325 32.6912C31.1436 31.4585 31.9221 29.75 31.9221 27.8901C31.9221 25.9005 31.1003 24.6678 30.2785 23.3919C29.5865 22.3106 28.8728 21.2292 28.5701 19.6938C27.5753 19.6289 26.7102 19.5856 25.8884 19.564C25.9317 21.2076 26.083 22.7431 26.3426 24.2137C26.6021 25.6626 27.3157 27.4792 27.4022 28.3227C27.4887 29.1877 27.4239 28.9066 27.013 28.474C26.6237 28.0415 25.8668 26.7872 25.1099 26.7872C24.5259 26.7872 23.6609 28.0631 23.2067 28.4957C22.731 28.9282 22.7093 29.1012 22.8607 28.3443C23.0121 27.5657 23.6609 25.6626 23.9204 24.2137C24.1583 22.7431 24.3097 21.2076 24.3529 19.564C23.5311 19.5856 22.6661 19.6289 21.6713 19.6938ZM21.974 11.9516H22.1038C22.1038 11.7353 22.4715 11.5623 23.0986 11.4758C23.423 11.4325 23.8555 11.3893 24.3313 11.3676V11.346C24.3313 11.1514 24.699 11 25.1531 11C25.6073 11 25.9749 11.1514 25.9749 11.346V11.3676C26.4507 11.3893 26.8832 11.4325 27.2076 11.4758C27.8348 11.5623 28.2024 11.7353 28.2024 11.9516H28.3322C29.2621 11.9516 29.327 13.487 28.5484 13.7249C29.2837 13.9628 29.2837 15.2604 28.5484 15.4766C29.2621 15.6929 29.2621 16.904 28.6349 17.1851H28.9593C29.6298 17.1851 29.846 18.0069 29.6081 18.5476C29.8893 20.2128 30.6462 21.4022 31.4031 22.5484C32.3763 24.019 33.3062 25.468 33.3062 27.8469C33.3062 30.096 32.3979 32.1505 30.9273 33.6211C29.4351 35.0917 27.4022 36 25.1531 36C22.904 36 20.8711 35.0917 19.3789 33.6211C17.9083 32.1505 17 30.096 17 27.8469C17 25.6626 17.9299 24.1704 18.8815 22.6349C19.6384 21.4239 20.417 20.1912 20.6981 18.5476C20.4602 18.0069 20.6765 17.1851 21.3685 17.1851H21.6713C21.0441 16.904 21.0441 15.6929 21.7578 15.4766C21.0225 15.2604 21.0225 13.9628 21.7578 13.7249C20.9576 13.487 21.0441 11.9516 21.974 11.9516ZM21.4334 19.0017C21.0874 20.6237 20.3088 21.8564 19.5735 23.0675C18.6652 24.4948 17.8002 25.8789 17.8002 27.8469C17.8002 29.8798 18.622 31.718 19.9628 33.0372C21.282 34.378 23.1202 35.1998 25.1531 35.1998C27.186 35.1998 29.0242 34.378 30.3434 33.0372C31.6842 31.718 32.506 29.8798 32.506 27.8469C32.506 25.7059 31.6194 24.3651 30.7327 22.981C29.9758 21.8348 29.2189 20.6453 28.8728 19.0017C27.8131 18.9152 22.4931 18.9152 21.4334 19.0017ZM24.7422 19.564C24.6773 21.2292 24.5476 22.7863 24.2881 24.2569C24.0934 25.3815 23.8555 26.4412 23.5528 27.4576C24.0502 26.8521 24.5692 26.3979 25.1099 26.3979C25.7586 26.3979 26.3426 27.0251 26.7318 27.5009C26.4074 26.4844 26.1695 25.4031 25.9749 24.2785C25.7154 22.7863 25.564 21.2292 25.4991 19.564C25.8668 19.564 24.4827 19.564 24.7422 19.564Z" fill="white"/>
</g>
</g>
</svg>
