<svg width="30" height="29" viewBox="0 0 30 29" fill="none" xmlns="http://www.w3.org/2000/svg">
<path fill-rule="evenodd" clip-rule="evenodd" d="M0 6C0 2.68629 2.68629 0 6 0H23C26.3137 0 29 2.68629 29 6V23C29 26.3137 26.3137 29 23 29H6C2.68629 29 0 26.3137 0 23V6Z" fill="url(#paint0_linear)"/>
<path d="M10.8105 14.584L11.4609 8.20312H18.0176V9.70605H12.8408L12.4541 13.1953C13.0811 12.8262 13.793 12.6416 14.5898 12.6416C15.7559 12.6416 16.6816 13.0283 17.3672 13.8018C18.0527 14.5693 18.3955 15.6094 18.3955 16.9219C18.3955 18.2402 18.0381 19.2803 17.3232 20.042C16.6143 20.7979 15.6211 21.1758 14.3438 21.1758C13.2129 21.1758 12.29 20.8623 11.5752 20.2354C10.8604 19.6084 10.4531 18.7412 10.3535 17.6338H11.8916C11.9912 18.3662 12.252 18.9199 12.6738 19.2949C13.0957 19.6641 13.6523 19.8486 14.3438 19.8486C15.0996 19.8486 15.6914 19.5908 16.1191 19.0752C16.5527 18.5596 16.7695 17.8477 16.7695 16.9395C16.7695 16.084 16.5352 15.3984 16.0664 14.8828C15.6035 14.3613 14.9854 14.1006 14.2119 14.1006C13.5029 14.1006 12.9463 14.2559 12.542 14.5664L12.1113 14.918L10.8105 14.584Z" fill="white"/>
<path fill-rule="evenodd" clip-rule="evenodd" d="M24.9295 4.39835C26.0858 5.52802 26.7234 6.98352 26.849 8.47137L28.0152 8.4001C27.8698 6.63442 27.1875 4.83248 25.8152 3.49177C24.445 2.1531 22.6312 1.51288 20.8664 1.4072L20.8202 2.57439C22.308 2.66682 23.7747 3.27013 24.9295 4.39835V4.39835ZM23.1836 6.18619C23.8766 6.86324 24.2639 7.73341 24.3472 8.62497L25.5812 8.54926C25.4769 7.3638 24.9906 6.18079 24.0688 5.2802C23.1487 4.38135 21.9562 3.92237 20.7709 3.84454L20.7222 5.07992C21.6143 5.1431 22.4915 5.51002 23.1836 6.18619V6.18619ZM23.1119 8.69973C23.0495 8.10266 22.8096 7.4971 22.3445 7.04272C21.8803 6.58922 21.2702 6.36375 20.673 6.31404L20.5734 8.85559L23.1119 8.69973V8.69973Z" fill="white"/>
<defs>
<linearGradient id="paint0_linear" x1="0" y1="0" x2="0" y2="29" gradientUnits="userSpaceOnUse">
<stop stop-color="#4CD964"/>
<stop offset="1" stop-color="#4CD964"/>
</linearGradient>
</defs>
</svg>
