<svg width="80" height="80" viewBox="0 0 80 80" fill="none" xmlns="http://www.w3.org/2000/svg">
<path fill-rule="evenodd" clip-rule="evenodd" d="M40 80C62.0914 80 80 62.0914 80 40C80 17.9086 62.0914 0 40 0C17.9086 0 0 17.9086 0 40C0 62.0914 17.9086 80 40 80Z" fill="#FF8D36"/>
<path fill-rule="evenodd" clip-rule="evenodd" d="M34.2002 26.2769L34.0674 20.0044C34.0557 19.4463 33.6006 19 33.042 19C32.459 19 31.9824 19.4653 31.9688 20.0488L31.8994 22.9941V30.4146C31.8994 31.0498 31.3848 31.5645 30.75 31.5645C30.1143 31.5645 29.5996 31.0498 29.5996 30.4146V19.1499C29.5996 19.1074 29.6055 19.0654 29.6113 19.0239L29.6152 19C28.4941 19 27.5693 19.8774 27.5098 20.9971L27.0908 28.9014C27.0762 29.1807 27.1064 29.4517 27.1768 29.7065C27.0615 30.022 27 30.3638 27 30.7319C27 32.626 28.7656 35.4722 31 36.644V58C31 59.1045 31.8955 60 33 60C34.1045 60 35 59.1045 35 58V36.644C37.2344 35.4722 39 32.626 39 30.7319C39 30.374 38.9414 30.0405 38.832 29.7324C38.9072 29.4697 38.9414 29.1904 38.9258 28.9014L38.5059 20.9971C38.4492 19.9077 37.5703 19.0474 36.4902 19.002C36.4961 19.0503 36.5 19.0996 36.5 19.1499V30.4146C36.5 31.0498 35.9854 31.5645 35.3506 31.5645C34.7148 31.5645 34.2002 31.0498 34.2002 30.4146V26.2769ZM49 60C50.084 60 51 59.1143 51 58.021V43.4678V20.3213C51 19.2334 49.4346 18.8086 48.4062 19.3882C48.4062 19.3882 47.0605 20.3481 45.3672 24.5894C44.335 27.1738 43.7656 31.5352 43.667 36.855C43.7656 38.8994 45.1377 41.8838 47 43.5962V58.1445C47.334 59.1147 48.25 60 49 60Z" fill="white"/>
</svg>
