<svg width="12" height="19" viewBox="0 0 12 19" fill="none" xmlns="http://www.w3.org/2000/svg">
<path fill-rule="evenodd" clip-rule="evenodd" d="M6.49796 0C5.51651 0 4.72061 0.78418 4.72061 1.75C4.72061 2.71582 5.51651 3.5 6.49796 3.5C7.4794 3.5 8.27432 2.71582 8.27432 1.75C8.27432 0.78418 7.4794 0 6.49796 0ZM0.448152 8.24854C1.82706 7.33447 3.69132 5.30762 3.95206 4.78369C4.1005 4.48486 4.37979 4.2915 4.68936 4.23828V4.229H4.75577C4.82804 4.22119 4.9003 4.22119 4.97354 4.229H8.48331C8.84561 4.18115 9.22159 4.32861 9.44718 4.64307L11.287 7.20605C11.538 7.54785 11.7011 7.94189 11.7607 8.35449L11.9901 9.91992C12.0702 10.4663 11.6845 10.9736 11.1298 11.0522C10.5751 11.1313 10.0595 10.752 9.9794 10.2056L9.74991 8.63818C9.73624 8.5459 9.70011 8.45801 9.63565 8.37012L8.75089 7.1377V9.43457C8.75089 9.43848 8.75284 9.44189 8.75284 9.4458L9.36905 13.1089C9.46182 13.8877 9.7255 14.6372 10.1396 15.3066L11.331 17.23C11.623 17.7012 11.4716 18.3164 10.9931 18.604C10.5146 18.8916 9.88956 18.7427 9.59757 18.2715L8.40616 16.3481C7.83878 15.4326 7.4794 14.4082 7.35831 13.3901L7.07804 11.729H6.00675L4.9169 13.6958C4.44815 14.54 4.08389 15.437 3.83292 16.3677L3.32218 18.2578C3.17764 18.7915 2.62198 19.1089 2.07999 18.9668C1.538 18.8247 1.21573 18.2769 1.35929 17.7432L1.87003 15.853C2.16397 14.7681 2.5878 13.7217 3.13468 12.7373L4.62296 10.0522C4.64347 10.0156 4.66495 9.98096 4.68936 9.94775V7.10352C3.82413 8.07617 2.61807 9.22119 1.58292 9.90771C1.1171 10.2163 0.486238 10.0947 0.172762 9.63672C-0.139738 9.17871 -0.0166913 8.55713 0.448152 8.24854Z" fill="#FF9500"/>
</svg>
