<svg width="42" height="42" viewBox="0 0 42 42" fill="none" xmlns="http://www.w3.org/2000/svg">
<style>
        #senout
        {
        	font-family: "Antonio-Regular";
			font-style: normal;
			font-weight: normal;
			font-size: 18px;
			text-align: center;
        }
   	</style>
<circle cx="21" cy="21" r="21" fill="#32FA2E"/>
<circle cx="21" cy="21" r="19" fill="#2E2727"/>
<!--<path fill-rule="evenodd" clip-rule="evenodd" d="M9.09555 24.4892H8.21848C8.18408 24.4892 8.14969 24.4892 8.13249 24.4695C8.11529 24.4695 8.11529 24.4695 8.11529 24.4695C8.11529 24.4695 8.11529 24.4695 8.09809 24.4695C7.90892 24.3907 7.77134 24.1738 7.77134 23.8978C7.77134 23.6416 7.87453 23.4444 8.0293 23.3459H8.0465C8.0637 23.3262 8.0637 23.3262 8.0637 23.3262C8.11529 23.3065 8.16688 23.2867 8.21848 23.2867H9.09555C9.16434 23.2867 9.23313 23.3065 9.28472 23.3459C9.30192 23.3459 9.30192 23.3656 9.30192 23.3656H9.31912C9.4567 23.4839 9.54268 23.6613 9.54268 23.8978C9.54268 24.1344 9.4223 24.3513 9.26752 24.4301V24.4498C9.25033 24.4498 9.25033 24.4498 9.25033 24.4498H9.23313L9.21593 24.4695C9.18154 24.4695 9.14714 24.4892 9.09555 24.4892ZM9.09555 25.672H6.44713C6.20637 25.672 6 25.948 6 26.2634C6 26.4409 6.05159 26.5986 6.15478 26.7168C6.17197 26.7366 6.17197 26.7366 6.17197 26.7366C6.18917 26.7366 6.18917 26.7563 6.18917 26.7563C6.20637 26.7563 6.20637 26.7563 6.20637 26.776C6.22357 26.776 6.22357 26.7957 6.24076 26.7957C6.24076 26.7957 6.25796 26.7957 6.25796 26.8154C6.30955 26.8351 6.37834 26.8548 6.44713 26.8548H9.09555C9.33631 26.8548 9.54268 26.5986 9.54268 26.2634C9.54268 25.948 9.33631 25.672 9.09555 25.672ZM9.09555 22.1039H8.21848C8.18408 22.1039 8.14969 22.1039 8.13249 22.0842C8.11529 22.0842 8.11529 22.0842 8.11529 22.0842C8.11529 22.0842 8.11529 22.0842 8.09809 22.0842C7.90892 22.0251 7.77134 21.7885 7.77134 21.5125C7.77134 21.276 7.87453 21.0591 8.0293 20.9606H8.0465C8.0637 20.9606 8.0637 20.9606 8.0637 20.9606C8.11529 20.9211 8.16688 20.9211 8.21848 20.9211H9.09555C9.16434 20.9211 9.23313 20.9409 9.28472 20.9803C9.30192 20.9803 9.30192 20.9803 9.30192 20.9803L9.31912 21C9.4567 21.0986 9.54268 21.2957 9.54268 21.5125C9.54268 21.7491 9.4223 21.966 9.26752 22.0645C9.25033 22.0645 9.25033 22.0645 9.25033 22.0645L9.23313 22.0842H9.21593C9.18154 22.1039 9.14714 22.1039 9.09555 22.1039ZM6.44713 19.7186H9.09555C9.33631 19.7186 9.54268 19.4624 9.54268 19.1272C9.54268 18.8118 9.33631 18.5358 9.09555 18.5358H6.44713C6.34395 18.5358 6.25796 18.5753 6.17197 18.6541C6.17197 18.6541 6.17197 18.6541 6.17197 18.6738C6.17197 18.6738 6.15478 18.6738 6.15478 18.6935C6.05159 18.7921 6 18.9498 6 19.1272C6 19.4624 6.20637 19.7186 6.44713 19.7186ZM8.09809 16.19C8.13249 16.1703 8.18408 16.1703 8.21848 16.1703H9.09555C9.14714 16.1703 9.19873 16.1703 9.25033 16.19C9.25033 16.19 9.25033 16.2097 9.26752 16.2097H9.28472L9.30192 16.2294C9.4395 16.328 9.54268 16.5251 9.54268 16.7616C9.54268 17.0771 9.33631 17.353 9.09555 17.353H8.21848C7.97771 17.353 7.77134 17.0771 7.77134 16.7616C7.77134 16.5054 7.89172 16.2885 8.0465 16.2097C8.0637 16.2097 8.0637 16.19 8.0637 16.19C8.0809 16.19 8.0809 16.19 8.0809 16.19H8.09809ZM9.09555 14.9677H8.21848C8.20128 14.9677 8.18408 14.9677 8.14969 14.9677H8.13249C8.11529 14.9677 8.11529 14.9677 8.11529 14.948C7.92612 14.8889 7.77134 14.6523 7.77134 14.3763C7.77134 14.0412 7.97771 13.7849 8.21848 13.7849H9.09555C9.33631 13.7849 9.54268 14.0412 9.54268 14.3763C9.54268 14.6326 9.4223 14.8692 9.23313 14.948H9.21593C9.19873 14.948 9.19873 14.948 9.19873 14.948C9.19873 14.9677 9.19873 14.9677 9.18154 14.9677C9.14714 14.9677 9.12994 14.9677 9.09555 14.9677ZM9.09555 12.6022H6.44713C6.30955 12.6022 6.18917 12.5233 6.10318 12.3853V12.3656C6.08599 12.3656 6.08599 12.3656 6.08599 12.3656C6.03439 12.267 6 12.129 6 12.0108C6 11.8728 6.03439 11.7348 6.08599 11.6362C6.08599 11.6362 6.08599 11.6362 6.10318 11.6362V11.6165C6.18917 11.4785 6.30955 11.3996 6.44713 11.3996H9.09555C9.12994 11.3996 9.18154 11.4194 9.21593 11.4194C9.21593 11.4391 9.23313 11.4391 9.23313 11.4391C9.25033 11.4391 9.25033 11.4391 9.25033 11.4391L9.26752 11.4588H9.28472C9.4395 11.5573 9.54268 11.7545 9.54268 12.0108C9.54268 12.2473 9.4395 12.4444 9.28472 12.543H9.26752L9.25033 12.5627C9.25033 12.5627 9.25033 12.5627 9.23313 12.5627C9.23313 12.5627 9.21593 12.5627 9.21593 12.5824C9.18154 12.5824 9.12994 12.6022 9.09555 12.6022ZM12.6726 26.8548V11.1828C12.6726 10.5323 12.2255 10 11.658 10C11.1077 10 10.6433 10.5323 10.6433 11.1828V26.8548C8.40765 28.0968 9.16434 32 11.658 32C14.1516 32 14.9083 28.0968 12.6726 26.8548ZM11.658 18.2993C11.8471 18.2993 12.0019 18.4767 12.0019 18.6935V28.4516C12.7758 28.8853 12.5179 30.2258 11.658 30.2258C10.7981 30.2258 10.5401 28.8853 11.314 28.4516V18.6935C11.314 18.4767 11.4688 18.2993 11.658 18.2993Z" fill="#4CD964"/>-->
<g id="senout" class="fault" format="%.1f" reference="DATA">
<text x="52%" y="28" text-anchor="middle">...</text>
</g>

</svg>
