<svg width="23" height="99" viewBox="0 0 23 99" fill="none" xmlns="http://www.w3.org/2000/svg">
<g class="fault inactive" reference="QF-STATUS">
<g  class="animation-hide">
<path id="Vector_4" d="M22 11H0V9H10V0.653099V0H12V0.653099V9H22V11Z" fill="white"/>
<path id="Vector_5" d="M3.8147e-06 21.999H22V25.999H18V29.999H10V25.999H5H3.8147e-06V21.999Z" fill="white"/>
<path id="Vector_6" d="M0 37H22V39H12V47.3469V95H13L11 99L9 95H10V47.3469V39H0V37Z" fill="white"/>
</g>
<g  class="animation-display">
<path id="Vector" d="M22.001 11H0.000976562V9H10.001V0.653099V0H12.001V0.653099V9H22.001V11Z" fill="#BEBEBE"/>
<path id="Vector_2" d="M0.000976562 37H22.001V39H12.001V47.3469V95H13.001L11.001 99L9.00098 95H10.001V47.3469V39H0.000976562V37Z" fill="#BEBEBE"/>
<path id="Vector_3" d="M9.00098 35.002V13.002H13.001V17.002H17.001V25.002H13.001V30.002V35.002H9.00098Z" fill="#BEBEBE"/>
</g>
</g>
</svg>
