<svg width="22" height="48" viewBox="0 0 22 48" fill="none" xmlns="http://www.w3.org/2000/svg">

<!-- OFF -->
<g class="fault inactive" reference="QF_OFF">
<g class='animation-display'>
<path d="M22 11H0V9H10V0.653099V0H12V0.653099V9H22V11Z" fill="white"/>
<path d="M0 22H22V26H18V30H10V26H5H0V22Z" fill="white"/>
<path d="M0 37H22V39H12V47.3469V48H10V47.3469V39H0V37Z" fill="white"/>
</g>
</g>

<!-- ON -->
<g class="fault inactive" reference="QF_ON">
<g class='animation-display'>
<path d="M22 11H0V9H10V0.653099V0H12V0.653099V9H22V11Z" fill="#4CD964"/>
<path d="M0 37H22V39H12V47.3469V48H11H10V47.3469V39H0V37Z" fill="#4CD964"/>
<path d="M9 35V13H13V17H17V25H13V30V35H9Z" fill="#4CD964"/>
</g>
</g>
<!--ALARM-->
<g class="fault inactive" reference="QF_ALARM">
<g class='animation-fail'>
<path d="M22 11H0V9H10V0.653099V0H12V0.653099V9H22V11Z" fill="#FF0000"/>
<path d="M1.39287 29.9499L16.9492 14.3936L19.7776 17.222L16.9492 20.0504L19.7776 22.8788L14.1208 28.5357L11.2924 25.7073L7.75683 29.2428L4.2213 32.7783L1.39287 29.9499Z" fill="#FF0000"/>
<path d="M0 37H22V39H12V47.3469V48H11H10V47.3469V39H0V37Z" fill="#FF0000"/>
</g>
</g>
<!--FAULT-->
<g class="fault" reference="QF_FAULT">
<g class='qf'>
<path d="M22 11H0L0 9H10V0.653099V0L12 0V0.653099V9H22V11Z" fill="white"/>
<path d="M22 13H0L0 35H22V13Z" fill="white"/>
<path d="M6.1792 20.5059H8.1831C8.312 18.8301 9.437 17.7872 11.2065 17.7872C12.9526 17.7872 14.0776 18.8536 14.0776 20.3067C14.0776 21.5606 13.5502 22.2989 12.1909 23.1309C10.5854 24.0919 9.8354 25.1465 9.8471 26.6934V27.7715H11.8979V27.0098C11.8979 25.7793 12.3198 25.1231 13.8081 24.2442C15.3081 23.3419 16.2573 22.0411 16.2573 20.2012C16.2573 17.7872 14.2417 15.959 11.2885 15.959C7.9956 15.959 6.3081 17.9747 6.1792 20.5059ZM10.8784 33.1154C11.6401 33.1154 12.2143 32.5293 12.2143 31.7793C12.2143 31.0176 11.6401 30.4434 10.8784 30.4434C10.1284 30.4434 9.5424 31.0176 9.5424 31.7793C9.5424 32.5293 10.1284 33.1154 10.8784 33.1154Z" fill="#BDBDBD"/>
<path d="M0 37H22V39H12V48H11H10V39H0L0 37Z" fill="white"/>
</g>
</g>
</svg>
