<svg width="98" height="28" viewBox="0 0 98 28" fill="none" xmlns="http://www.w3.org/2000/svg">
<g id="qfsh-l">
<g class="fault inactive" reference="QFSH-STATUS">
	<g id="flage">
<g id="Subtract" filter="url(#filter0_d)">
<path fill-rule="evenodd" clip-rule="evenodd" d="M8 9.49942L4 13.4994L8 17.4994L9 16.5L7 14.5H9.5V19.9994L22.5 20V14.5H25L23 16.5L24 17.5L28 13.5L24 9.5L23 10.5L25 12.5H22.5V6.99942L9.5 6.99942V12.5H7L9 10.5L8 9.49942ZM21.5 7.99942L10.5 7.99942V18.9994H21.5V7.99942Z"></path>
</g>
</g>
<g class="animation-display">
<rect id="Rectangle 3" x="11.5" y="18" width="9" height="9" transform="rotate(-90 11.5 18)" fill="#BEBEBE"></rect>
</g>
</g>
<g id="text">
<g class="fault" format="%.1f" reference="CURRENT1">
<text x="54%" y="13" font-size="8px" font-family="Antonio-Regular" text-anchor="middle">...</text>
</g>
<g class="fault" format="%.1f" reference="CURRENT2">
<text x="54%" y="20" font-size="8px" font-family="Antonio-Regular" text-anchor="middle">...</text>
</g>
<g class="fault" format="%.1f" reference="CURRENT3">
<text x="54%" y="27" font-size="8px" font-family="Antonio-Regular" text-anchor="middle">...</text>
</g>
<g class="fault" format="%.1f" reference="POWER">
<text x="85%" y="13" font-size="8px" font-family="Antonio-Regular" text-anchor="middle">...</text>
</g>
<g class="fault" format="%.1f" reference="ENERGY">
<text x="85%" y="27" font-size="8px" font-family="Antonio-Regular" text-anchor="middle">...</text>
</g>
<g id="Group 2_2">
<path d="M73.667 19.1211H73.2832C73.3945 19.6689 73.8721 20.0498 74.5283 20.0498C75.3633 20.0498 75.8994 19.4434 75.8994 18.4766C75.8994 17.5244 75.3633 16.9033 74.5312 16.9033C73.8428 16.9033 73.3799 17.3398 73.2832 17.8584H73.667C73.7607 17.5127 74.0684 17.2461 74.5312 17.2461C75.0615 17.2461 75.4365 17.627 75.4922 18.2598H74.0215V18.5791H75.501C75.4805 19.2881 75.0938 19.707 74.5254 19.707C74.0889 19.707 73.7725 19.4814 73.667 19.1211ZM78.5332 20H78.917V16.9531H78.5332V18.2598H76.8574V16.9531H76.4736V20H76.8574V18.582H78.5332V20ZM80.8506 17.2432C81.4014 17.2432 81.7676 17.6621 81.7764 18.2627H79.8955C79.9277 17.6621 80.3057 17.2432 80.8506 17.2432ZM81.7529 19.1357C81.668 19.4697 81.3486 19.71 80.8887 19.71C80.2822 19.71 79.8926 19.2822 79.8926 18.5938V18.5703H82.1748V18.4062C82.1748 17.498 81.665 16.9033 80.8564 16.9033C80.0303 16.9033 79.4941 17.5391 79.4941 18.4854C79.4941 19.4521 80.0244 20.0498 80.8799 20.0498C81.5508 20.0498 82.0459 19.6631 82.1367 19.1357H81.7529ZM84.1787 16.9033C83.6836 16.9033 83.2969 17.1934 83.1299 17.5977H83.1182V16.9531H82.752V21.0078H83.1387V19.373H83.1504C83.3115 19.7686 83.6953 20.0498 84.1875 20.0498C84.9521 20.0498 85.4766 19.4258 85.4766 18.4766C85.4766 17.5303 84.9492 16.9033 84.1787 16.9033ZM84.1113 19.707C83.5342 19.707 83.1387 19.2119 83.1387 18.4766C83.1387 17.7441 83.5342 17.2461 84.1113 17.2461C84.7002 17.2461 85.0811 17.7354 85.0811 18.4766C85.0811 19.2207 84.7002 19.707 84.1113 19.707ZM87.9873 17.2754V16.9531H86.0479V20H86.4316V17.2754H87.9873ZM88.9102 20L90.6094 17.5508H90.627V20H91.0107V16.9531H90.627L88.9307 19.4023H88.9102V16.9531H88.5264V20H88.9102ZM92.7598 18.5322C92.3203 18.5322 92.0332 18.2832 92.0332 17.9199C92.0332 17.5215 92.3174 17.2754 92.7598 17.2754H93.4424V18.5322H92.7598ZM93.4424 20H93.8262V16.9531H92.7568C92.083 16.9531 91.6494 17.3252 91.6494 17.9258C91.6494 18.374 91.9365 18.6934 92.4082 18.79L91.5205 20H91.9688L92.8037 18.8545H93.4424V20Z" fill="#FF9500"></path>
<path d="M50.3262 1.9375H47.0488V2.36719H48.4316V6H48.9434V2.36719H50.3262V1.9375ZM52.4902 6.06641C53.5957 6.06641 54.3418 5.25781 54.3418 3.96875C54.3418 2.67578 53.5957 1.87109 52.4902 1.87109C51.3887 1.87109 50.6387 2.67578 50.6387 3.96875C50.6387 5.25781 51.3848 6.06641 52.4902 6.06641ZM52.4902 5.60938C51.6934 5.60938 51.166 5 51.166 3.96875C51.166 2.9375 51.6934 2.32812 52.4902 2.32812C53.2871 2.32812 53.8184 2.9375 53.8184 3.96875C53.8184 5 53.2871 5.60938 52.4902 5.60938ZM56.1621 3.87109L58.2168 1.9375H57.5645L55.6387 3.76172H55.6152V1.9375H55.1035V6H55.6152V4.01953H55.6387L57.6152 6H58.2949L56.1621 3.87109Z" fill="#FF9500"></path>
<path d="M71.0801 6V3.63867H71.0977L72.2021 5.93848H72.5039L73.6084 3.63867H73.623V6H74.0098V2.95312H73.5615L72.3721 5.49023H72.3516L71.1621 2.95312H70.6963V6H71.0801ZM75.9727 6.0498C76.8018 6.0498 77.3613 5.44336 77.3613 4.47656C77.3613 3.50684 76.8018 2.90332 75.9727 2.90332C75.1465 2.90332 74.584 3.50684 74.584 4.47656C74.584 5.44336 75.1436 6.0498 75.9727 6.0498ZM75.9727 5.70703C75.375 5.70703 74.9795 5.25 74.9795 4.47656C74.9795 3.70312 75.375 3.24609 75.9727 3.24609C76.5703 3.24609 76.9688 3.70312 76.9688 4.47656C76.9688 5.25 76.5703 5.70703 75.9727 5.70703ZM82.1602 6.80566V5.67773H81.6709V2.95312H81.2842V5.67773H79.9922V2.95312H79.6084V5.67773H78.3164V2.95312H77.9326V6H81.7969V6.80566H82.1602ZM84.6738 6H85.0576V2.95312H84.6738V4.25977H82.998V2.95312H82.6143V6H82.998V4.58203H84.6738V6ZM87.0234 6.0498C87.8525 6.0498 88.4121 5.44336 88.4121 4.47656C88.4121 3.50684 87.8525 2.90332 87.0234 2.90332C86.1973 2.90332 85.6348 3.50684 85.6348 4.47656C85.6348 5.44336 86.1943 6.0498 87.0234 6.0498ZM87.0234 5.70703C86.4258 5.70703 86.0303 5.25 86.0303 4.47656C86.0303 3.70312 86.4258 3.24609 87.0234 3.24609C87.6211 3.24609 88.0195 3.70312 88.0195 4.47656C88.0195 5.25 87.6211 5.70703 87.0234 5.70703ZM91.4531 3.8584C91.3506 3.33984 90.8994 2.90332 90.208 2.90332C89.376 2.90332 88.834 3.52441 88.834 4.47656C88.834 5.44336 89.376 6.0498 90.2109 6.0498C90.8672 6.0498 91.3447 5.66602 91.4531 5.11816H91.0664C90.9609 5.47852 90.6533 5.70703 90.2139 5.70703C89.6162 5.70703 89.2295 5.23242 89.2295 4.47656C89.2295 3.73242 89.6133 3.24609 90.208 3.24609C90.6709 3.24609 90.9697 3.51562 91.0693 3.8584H91.4531ZM94.1191 2.95312H91.6611V3.27539H92.6982V6H93.082V3.27539H94.1191V2.95312ZM95.6367 4.30957C96.0762 4.30957 96.3633 4.5791 96.3633 4.99219C96.3633 5.40527 96.0791 5.67773 95.6367 5.67773H94.9805V4.30957H95.6367ZM94.5967 6H95.6426C96.3135 6 96.7471 5.61035 96.7471 4.99219C96.7471 4.37402 96.3135 3.9873 95.6426 3.9873H94.9805V2.95312H94.5967V6Z" fill="#FF9500"></path>
</g>
</g>
</g>
<defs>
<filter id="filter0_d" x="0" y="6.99902" width="32" height="21.0006" filterUnits="userSpaceOnUse" color-interpolation-filters="sRGB">
<feFlood flood-opacity="0" result="BackgroundImageFix"></feFlood>
<feColorMatrix in="SourceAlpha" type="matrix" values="0 0 0 0 0 0 0 0 0 0 0 0 0 0 0 0 0 0 127 0"></feColorMatrix>
<feOffset dy="4"></feOffset>
<feGaussianBlur stdDeviation="2"></feGaussianBlur>
<feColorMatrix type="matrix" values="0 0 0 0 0 0 0 0 0 0 0 0 0 0 0 0 0 0 0.25 0"></feColorMatrix>
<feBlend mode="normal" in2="BackgroundImageFix" result="effect1_dropShadow"></feBlend>
<feBlend mode="normal" in="SourceGraphic" in2="effect1_dropShadow" result="shape"></feBlend>
</filter>
</defs>
</svg>