<svg width="262" height="190" viewBox="0 0 262 190" fill="none" xmlns="http://www.w3.org/2000/svg">
	<style>
	#ventub {
  -webkit-transform-origin: 139px 102px;
  -moz-transform-origin: 139px 102px;
  -ms-transform-origin: 139px 102px;
  transform-origin: 139px 102px;
}
</style>
<g id="ahu-b">
<g id="Group 2">
<g id="Group">
<g>
<path id="Subtract" d="M32 109H244L213.5 143H1L32 109Z" fill="url(#ahu-b-0_linear)"/>
<rect id="Rectangle 2" x="32" y="41" width="212" height="68" fill="#848484"/>
<rect id="Rectangle 2.2" x="39" y="41" width="5" height="68" fill="#A9C7C9"/>
<rect id="Rectangle 2.3" x="31" y="41" width="5" height="68" fill="#A9C7C9"/>
<path id="Rectangle 3" d="M31 41H36L5 73H0L31 41Z" fill="#C4C4C4"/>
<path id="Rectangle 3.1" d="M39 41H44L13 73H8L39 41Z" fill="#C4C4C4"/>
<path id="Rectangle 4" d="M31 102H44L13 134H0L31 102Z" fill="url(#ahu-b-1_linear)"/>
<path id="Rectangle 4.1" d="M31 70H44L13 102H0L31 70Z" fill="url(#ahu-b-2_linear)"/>
<path id="Rectangle 4.3" d="M31 86H44L13 118H0L31 86Z" fill="url(#ahu-b-3_linear)"/>
<path id="Rectangle 4.2" d="M31 54H44L13 86H0L31 54Z" fill="url(#ahu-b-4_linear)"/>
<rect id="Rectangle 5" y="102" width="13" height="1" fill="#BEBEBE"/>
<rect id="Rectangle 5.2" y="86" width="13" height="1" fill="#BEBEBE"/>
<rect id="Rectangle 5.1" y="134" width="13" height="1" fill="#BEBEBE"/>
<rect id="Rectangle 5.3" y="118" width="13" height="1" fill="#BEBEBE"/>
<rect id="Rectangle 2_2" x="8" y="73" width="5" height="70" fill="#CFE2E9"/>
<rect id="Rectangle 2.1" y="73" width="5" height="70" fill="#CFE2E9"/>
<circle id="Ellipse" cx="2.5" cy="86.5" r="1.5" fill="#C4C4C4"/>
<circle id="Ellipse_2" cx="10.5" cy="86.5" r="1.5" fill="#C4C4C4"/>
<circle id="Ellipse_3" cx="2.5" cy="102.5" r="1.5" fill="#C4C4C4"/>
<circle id="Ellipse_4" cx="10.5" cy="102.5" r="1.5" fill="#C4C4C4"/>
<circle id="Ellipse_5" cx="2.5" cy="134.5" r="1.5" fill="#C4C4C4"/>
<circle id="Ellipse_6" cx="10.5" cy="134.5" r="1.5" fill="#C4C4C4"/>
<circle id="Ellipse_7" cx="2.5" cy="118.5" r="1.5" fill="#C4C4C4"/>
<circle id="Ellipse_8" cx="10.5" cy="118.5" r="1.5" fill="#C4C4C4"/>
<g id="Group_2">
<path id="Vector" d="M13.1681 106.377H0L0 111.644H13.1681V106.377Z" fill="#1E90FF"/>
<path id="Vector_2" d="M7.90087 105.061H5.26725C2.35823 105.061 0 105.65 0 106.377C0 107.105 2.35823 107.694 5.26725 107.694H7.90087C10.8099 107.694 13.1681 107.105 13.1681 106.377C13.1681 105.65 10.8099 105.061 7.90087 105.061Z" fill="#007AFF"/>
<path id="Vector_3" d="M13.1681 95.8438H0L0 106.378H13.1681V95.8438Z" fill="#007AFF"/>
<path id="Vector_4" d="M6.71028 105.06C5.18305 105.06 3.94498 105.65 3.94498 106.377H9.47559C9.47559 105.65 8.23752 105.06 6.71028 105.06Z" fill="#007AFF"/>
<path id="Vector_5" d="M7.90087 94.5273H5.26725C2.35823 94.5273 0 95.1169 0 95.8442C0 96.5714 2.35823 97.161 5.26725 97.161H7.90087C10.8099 97.161 13.1681 96.5714 13.1681 95.8442C13.1681 95.1169 10.8099 94.5273 7.90087 94.5273Z" fill="#007AFF"/>
<path id="Vector_6" d="M7.90087 110.326H5.26725C2.35823 110.326 0 110.916 0 111.643C0 112.37 2.35823 112.96 5.26725 112.96H7.90087C10.8099 112.96 13.1681 112.37 13.1681 111.643C13.1681 110.916 10.8099 110.326 7.90087 110.326Z" fill="#1E90FF"/>
<path id="Vector_7" d="M6.58674 111.377C8.04125 111.377 9.22036 110.198 9.22036 108.743C9.22036 107.288 8.04125 106.109 6.58674 106.109C5.13224 106.109 3.95312 107.288 3.95312 108.743C3.95312 110.198 5.13224 111.377 6.58674 111.377Z" fill="#808080"/>
<path id="Vector_8" d="M6.5902 102.952C6.8811 102.952 7.11693 102.716 7.11693 102.425C7.11693 102.134 6.8811 101.898 6.5902 101.898C6.2993 101.898 6.06348 102.134 6.06348 102.425C6.06348 102.716 6.2993 102.952 6.5902 102.952Z" fill="url(#ahu-b-5_linear)"/>
<path id="Vector_9" d="M6.5902 102.952C6.8811 102.952 7.11693 102.716 7.11693 102.425C7.11693 102.134 6.8811 101.898 6.5902 101.898C6.2993 101.898 6.06348 102.134 6.06348 102.425C6.06348 102.716 6.2993 102.952 6.5902 102.952Z" fill="url(#ahu-b-6_linear)"/>
<path id="Vector_10" d="M1.84868 111.383C2.28503 111.383 2.63877 111.029 2.63877 110.593C2.63877 110.156 2.28503 109.803 1.84868 109.803C1.41233 109.803 1.05859 110.156 1.05859 110.593C1.05859 111.029 1.41233 111.383 1.84868 111.383Z" fill="url(#ahu-b-7_linear)"/>
<path id="Vector_11" d="M1.84868 111.383C2.28503 111.383 2.63877 111.029 2.63877 110.593C2.63877 110.156 2.28503 109.803 1.84868 109.803C1.41233 109.803 1.05859 110.156 1.05859 110.593C1.05859 111.029 1.41233 111.383 1.84868 111.383Z" fill="url(#ahu-b-8_linear)"/>
<path id="Vector_12" d="M11.3282 111.383C11.7645 111.383 12.1183 111.029 12.1183 110.593C12.1183 110.156 11.7645 109.803 11.3282 109.803C10.8918 109.803 10.5381 110.156 10.5381 110.593C10.5381 111.029 10.8918 111.383 11.3282 111.383Z" fill="url(#ahu-b-9_linear)"/>
<path id="Vector_13" d="M11.3282 111.383C11.7645 111.383 12.1183 111.029 12.1183 110.593C12.1183 110.156 11.7645 109.803 11.3282 109.803C10.8918 109.803 10.5381 110.156 10.5381 110.593C10.5381 111.029 10.8918 111.383 11.3282 111.383Z" fill="url(#ahu-b-10_linear)"/>
</g>
</g>
<g>
<path id="Vector_14" d="M111.008 73.8302L110.994 73.8449H110.973H90.546C88.6451 73.8449 87.0502 75.3656 87.0502 77.2636V138.859C87.0502 139.847 87.4369 140.582 88.0584 141.072C88.6813 141.562 89.5444 141.809 90.5 141.809H102H113C118.215 141.81 122.503 141.809 127.332 141.809C130.837 141.809 134.627 141.809 139.262 141.809C150.271 141.809 160.203 137.344 167.439 130.107C174.676 122.87 179.141 112.939 179.141 101.93C179.141 90.921 174.676 80.9129 167.44 73.7533L167.439 73.7531C160.203 66.5163 150.271 62.0512 139.262 62.0512C128.253 62.0512 118.245 66.5164 111.086 73.7529L111.085 73.7531L111.008 73.8302ZM113.944 76.6118L113.944 76.6114C120.428 70.2047 129.382 66.1907 139.262 66.1907C149.143 66.1907 158.097 70.2047 164.504 76.6116C170.988 83.0955 175.002 92.0497 175.002 101.93C175.002 111.81 170.988 120.765 164.504 127.172C158.097 133.656 149.143 137.67 139.262 137.67C129.382 137.67 120.428 133.656 113.944 127.172C107.537 120.765 103.523 111.811 103.523 101.93C103.523 92.0497 107.537 83.0957 113.944 76.6118Z" fill="url(#ahu-b-11_linear)" stroke="#848484" stroke-width="0.1"/>
<circle id="Ellipse_9" r="36" transform="matrix(1 0 0 -1 139 101.859)" fill="#808080"/>
</g>
<g id="group">
<path id="Rectangle" d="M31.5 41H244L213 73H0L31.5 41Z" fill="white" fill-opacity="0.5"/>
</g>
</g>
</g>
<g class="fault inactive" reference="VENT-B-STATUS">
<g id="Group_3">
<circle id="Ellipse_10" r="35" transform="matrix(1 0 0 -1 139 102)"/>
<g id="ventub" class="animation-revspin">
<path id="Vector_15" fill-rule="evenodd" clip-rule="evenodd" d="M142.976 89.6729C144.168 84.5429 144.248 78.1114 142.18 69C158.241 74.3596 163.33 75.8144 149.495 93.9606L149.416 93.884C150.688 95.4153 151.563 97.1763 152.04 99.1671C157.287 97.5592 163.092 94.42 170.247 88.1415C173.428 104.22 174.78 109.197 151.483 106.671C150.688 108.508 149.575 110.116 148.064 111.494C152.119 115.016 157.844 118.309 167.067 121.142C154.186 131.784 150.37 135.383 140.988 114.71C140.352 114.863 139.716 114.863 139 114.863C137.648 114.863 136.297 114.71 135.024 114.327C133.832 119.457 133.752 125.889 135.82 135C119.759 129.564 114.59 128.186 128.505 110.039L128.664 110.193C127.392 108.661 126.437 106.824 125.96 104.833C120.713 106.441 114.908 109.58 107.753 115.858C104.572 99.7796 103.22 94.8028 126.517 97.2529C127.233 95.4153 128.425 93.8074 129.936 92.5058C125.881 88.9838 120.156 85.6914 110.933 82.8585C123.814 72.1392 127.63 68.5406 137.012 89.2135C137.648 89.1369 138.284 89.1369 139 89.1369C140.352 89.1369 141.703 89.29 142.976 89.6729ZM145.997 102C145.997 98.2483 142.896 95.2622 139 95.2622C135.104 95.2622 132.003 98.2483 132.003 102C132.003 105.752 135.104 108.738 139 108.738C142.896 108.738 145.997 105.752 145.997 102Z" fill="#333333"/>
</g>
</g>
</g>
<g class="click fault" format="%.0f" reference="SEN-AHU-B-CONTROL">
<g id="flags">
<path id="Subtract_2" fill-rule="evenodd" clip-rule="evenodd" d="M163 170C163 181.046 154.046 190 143 190C131.954 190 123 181.046 123 170C123 158.954 131.954 150 143 150C154.046 150 163 158.954 163 170ZM160.341 169.995C160.341 179.575 152.574 187.342 142.994 187.342C133.413 187.342 125.647 179.575 125.647 169.995C125.647 160.414 133.413 152.648 142.994 152.648C152.574 152.648 160.341 160.414 160.341 169.995Z"/>
<path id="%" d="M144.323 175.406H145.158L141.74 184H140.866L144.323 175.406ZM140.568 177.003C140.568 176.651 140.526 176.41 140.441 176.28C140.357 176.15 140.196 176.085 139.958 176.085C139.72 176.085 139.559 176.152 139.475 176.285C139.39 176.415 139.348 176.655 139.348 177.003V179.425C139.348 179.783 139.39 180.032 139.475 180.172C139.562 180.309 139.724 180.377 139.958 180.377C140.192 180.377 140.352 180.309 140.437 180.172C140.524 180.032 140.568 179.783 140.568 179.425V177.003ZM138.444 177.34C138.444 176.578 138.555 176.048 138.776 175.748C138.998 175.449 139.392 175.299 139.958 175.299C140.528 175.299 140.923 175.449 141.145 175.748C141.366 176.048 141.477 176.578 141.477 177.34V179.073C141.477 179.848 141.364 180.39 141.14 180.699C140.915 181.008 140.521 181.163 139.958 181.163C139.398 181.163 139.006 181.008 138.781 180.699C138.557 180.39 138.444 179.848 138.444 179.073V177.34ZM144.523 180.274C144.523 179.513 144.634 178.982 144.855 178.683C145.077 178.383 145.471 178.233 146.037 178.233C146.607 178.233 147.002 178.383 147.224 178.683C147.445 178.982 147.556 179.513 147.556 180.274V182.008C147.556 182.783 147.443 183.325 147.219 183.634C146.994 183.943 146.6 184.098 146.037 184.098C145.477 184.098 145.085 183.943 144.86 183.634C144.636 183.325 144.523 182.783 144.523 182.008V180.274ZM146.652 179.938C146.652 179.586 146.61 179.345 146.525 179.215C146.441 179.085 146.28 179.02 146.042 179.02C145.804 179.02 145.643 179.086 145.559 179.22C145.474 179.35 145.432 179.589 145.432 179.938V182.359C145.432 182.717 145.474 182.966 145.559 183.106C145.646 183.243 145.806 183.312 146.037 183.312C146.271 183.312 146.433 183.243 146.521 183.106C146.608 182.966 146.652 182.717 146.652 182.359V179.938Z"/>
</g>
<g>
	<text x="54.5%" y="170" font-size="18px" font-family="Antonio-Regular" text-anchor="middle">...</text>
</g>
</g>
<g class="fault" format="%.0f" reference="SEN-AHU-B-STATUS">
<g id="flags_2">
<path id="%_2" d="M144.323 27.4062H145.158L141.74 36H140.866L144.323 27.4062ZM140.568 29.0029C140.568 28.6514 140.526 28.4105 140.441 28.2803C140.357 28.1501 140.196 28.085 139.958 28.085C139.72 28.085 139.559 28.1517 139.475 28.2852C139.39 28.4154 139.348 28.6546 139.348 29.0029V31.4248C139.348 31.7829 139.39 32.0319 139.475 32.1719C139.562 32.3086 139.724 32.377 139.958 32.377C140.192 32.377 140.352 32.3086 140.437 32.1719C140.524 32.0319 140.568 31.7829 140.568 31.4248V29.0029ZM138.444 29.3398C138.444 28.5781 138.555 28.0475 138.776 27.748C138.998 27.4486 139.392 27.2988 139.958 27.2988C140.528 27.2988 140.923 27.4486 141.145 27.748C141.366 28.0475 141.477 28.5781 141.477 29.3398V31.0732C141.477 31.848 141.364 32.39 141.14 32.6992C140.915 33.0085 140.521 33.1631 139.958 33.1631C139.398 33.1631 139.006 33.0085 138.781 32.6992C138.557 32.39 138.444 31.848 138.444 31.0732V29.3398ZM144.523 32.2744C144.523 31.5127 144.634 30.9821 144.855 30.6826C145.077 30.3831 145.471 30.2334 146.037 30.2334C146.607 30.2334 147.002 30.3831 147.224 30.6826C147.445 30.9821 147.556 31.5127 147.556 32.2744V34.0078C147.556 34.7826 147.443 35.3245 147.219 35.6338C146.994 35.943 146.6 36.0977 146.037 36.0977C145.477 36.0977 145.085 35.943 144.86 35.6338C144.636 35.3245 144.523 34.7826 144.523 34.0078V32.2744ZM146.652 31.9375C146.652 31.5859 146.61 31.3451 146.525 31.2148C146.441 31.0846 146.28 31.0195 146.042 31.0195C145.804 31.0195 145.643 31.0863 145.559 31.2197C145.474 31.3499 145.432 31.5892 145.432 31.9375V34.3594C145.432 34.7174 145.474 34.9665 145.559 35.1064C145.646 35.2432 145.806 35.3115 146.037 35.3115C146.271 35.3115 146.433 35.2432 146.521 35.1064C146.608 34.9665 146.652 34.7174 146.652 34.3594V31.9375Z"/>
</g>
<g>
	<text x="54.5%" y="20" font-size="18px" font-family="Antonio-Regular" text-anchor="middle">...</text>
</g>
</g>
<g class="fault inactive" reference="ON-OFF-STATUS">
<g class="animation-hide">
<path id="OFF" d="M29.4876 11.9766C29.4876 9.63281 29.9094 8.02344 30.7532 7.14844C31.4173 6.46094 32.3821 6.11719 33.6477 6.11719C35.4915 6.11719 36.6712 6.875 37.1868 8.39062C37.4915 9.28906 37.6438 10.4844 37.6438 11.9766V21.0703C37.6438 23.2188 37.343 24.7852 36.7415 25.7695C36.1399 26.7461 35.0852 27.2344 33.5774 27.2344C32.0774 27.2344 31.0188 26.7422 30.4016 25.7578C29.7923 24.7734 29.4876 23.2109 29.4876 21.0703V11.9766ZM35.218 11.8359C35.218 10.5156 35.1126 9.58203 34.9016 9.03516C34.6907 8.48047 34.2649 8.20312 33.6243 8.20312C32.9837 8.20312 32.5383 8.48438 32.2883 9.04688C32.0383 9.60938 31.9133 10.5352 31.9133 11.8242V21.0938C31.9133 22.6641 32.0227 23.7344 32.2415 24.3047C32.4602 24.8672 32.9016 25.1484 33.5657 25.1484C34.2298 25.1484 34.6712 24.8633 34.8899 24.293C35.1087 23.7148 35.218 22.6484 35.218 21.0938V11.8359ZM40.7727 6.375H46.9837V8.40234H43.1868V14.918H46.7493V16.9688H43.1868V27H40.7727V6.375ZM49.5149 6.375H55.7258V8.40234H51.929V14.918H55.4915V16.9688H51.929V27H49.5149V6.375Z"/>
</g>
<g class="animation-dislay">
<path id="ON" d="M32.2883 11.9766C32.2883 9.63281 32.7102 8.02344 33.554 7.14844C34.218 6.46094 35.1829 6.11719 36.4485 6.11719C38.2923 6.11719 39.4719 6.875 39.9876 8.39062C40.2923 9.28906 40.4446 10.4844 40.4446 11.9766V21.0703C40.4446 23.2188 40.1438 24.7852 39.5423 25.7695C38.9407 26.7461 37.886 27.2344 36.3782 27.2344C34.8782 27.2344 33.8196 26.7422 33.2024 25.7578C32.593 24.7734 32.2883 23.2109 32.2883 21.0703V11.9766ZM38.0188 11.8359C38.0188 10.5156 37.9133 9.58203 37.7024 9.03516C37.4915 8.48047 37.0657 8.20312 36.4251 8.20312C35.7844 8.20312 35.3391 8.48438 35.0891 9.04688C34.8391 9.60938 34.7141 10.5352 34.7141 11.8242V21.0938C34.7141 22.6641 34.8235 23.7344 35.0423 24.3047C35.261 24.8672 35.7024 25.1484 36.3665 25.1484C37.0305 25.1484 37.4719 24.8633 37.6907 24.293C37.9094 23.7148 38.0188 22.6484 38.0188 21.0938V11.8359ZM49.9485 6.375H52.093V27H50.3118L45.6829 12.8438L45.8235 18.0469V27H43.5852V6.375H45.4133L50.1946 20.4141L49.9485 14.4492V6.375Z"/>
</g>
</g>
<g class="fault inactive" reference="STATUS-R-B">
<g class="animation-fail">
<path d="M247.094 108.959L247.094 108.959C245.218 107.958 243.4 107.456 241.581 107.456C241.094 107.456 240.668 107.528 240.305 107.6L240.221 107.616L240.276 107.681C240.397 107.824 240.864 108.376 241.301 108.919C241.519 109.191 241.73 109.46 241.886 109.674C241.964 109.781 242.027 109.873 242.071 109.945C242.093 109.981 242.11 110.011 242.121 110.035C242.126 110.046 242.13 110.056 242.132 110.063C242.134 110.071 242.134 110.074 242.134 110.073C242.134 110.366 241.943 110.549 241.703 110.661C241.463 110.773 241.184 110.807 241.038 110.807C240.858 110.807 240.623 110.752 240.342 110.65C240.063 110.548 239.743 110.401 239.397 110.221C238.703 109.863 237.905 109.376 237.114 108.864C236.323 108.351 235.539 107.815 234.874 107.357C234.808 107.312 234.744 107.267 234.68 107.224C234.104 106.827 233.631 106.501 233.344 106.323C233.15 106.192 233.05 105.96 233.05 105.724C233.05 105.487 233.15 105.255 233.344 105.124C233.549 104.992 233.842 104.797 234.196 104.561C234.998 104.028 236.113 103.285 237.226 102.593C238.029 102.094 238.829 101.623 239.507 101.276C239.846 101.103 240.153 100.961 240.415 100.863C240.678 100.764 240.889 100.711 241.038 100.711C241.184 100.711 241.463 100.746 241.705 100.85C241.947 100.954 242.134 101.12 242.134 101.374C242.134 101.381 242.131 101.399 242.117 101.43C242.104 101.46 242.084 101.497 242.058 101.541C242.006 101.629 241.931 101.741 241.839 101.869C241.656 102.124 241.41 102.439 241.158 102.751C240.905 103.063 240.647 103.37 240.441 103.608C240.338 103.727 240.248 103.828 240.179 103.904C240.108 103.982 240.061 104.03 240.042 104.045L239.929 104.134H240.073H240.076H240.079H240.082H240.086H240.089H240.092H240.095H240.098H240.102H240.105H240.108H240.111H240.114H240.117H240.121H240.124H240.127H240.13H240.133H240.137H240.14H240.143H240.146H240.149H240.152H240.156H240.159H240.162H240.165H240.168H240.172H240.175H240.178H240.181H240.184H240.187H240.191H240.194H240.197H240.2H240.203H240.206H240.21H240.213H240.216H240.219H240.222H240.226H240.229H240.232H240.235H240.238H240.241H240.245H240.248H240.251H240.254H240.257H240.26H240.264H240.267H240.27H240.273H240.276H240.279H240.283H240.286H240.289H240.292H240.295H240.298H240.302H240.305H240.308H240.311H240.314H240.317H240.321H240.324H240.327H240.33H240.333H240.336H240.34H240.343H240.346H240.349H240.352H240.355H240.359H240.362H240.365H240.368H240.371H240.374H240.378H240.381H240.384H240.387H240.39H240.393H240.396H240.4H240.403H240.406H240.409H240.412H240.415H240.419H240.422H240.425H240.428H240.431H240.434H240.437H240.441H240.444H240.447H240.45H240.453H240.456H240.459H240.463H240.466H240.469H240.472H240.475H240.478H240.481H240.485H240.488H240.491H240.494H240.497H240.5H240.503H240.506H240.51H240.513H240.516H240.519H240.522H240.525H240.528H240.531H240.535H240.538H240.541H240.544H240.547H240.55H240.553H240.556H240.56H240.563H240.566H240.569H240.572H240.575H240.578H240.581H240.584H240.588H240.591H240.594H240.597H240.6H240.603H240.606H240.609H240.612H240.616H240.619H240.622H240.625H240.628H240.631H240.634H240.637H240.64H240.643H240.647H240.65H240.653H240.656H240.659H240.662H240.665H240.668H240.671H240.674H240.677H240.68H240.684H240.687H240.69H240.693H240.696H240.699H240.702H240.705H240.708H240.711H240.714H240.717H240.72H240.723H240.727H240.73H240.733H240.736H240.739H240.742H240.745H240.748H240.751H240.754H240.757H240.76H240.763H240.766H240.769H240.772H240.775H240.778H240.782H240.785H240.788H240.791H240.794H240.797H240.8H240.803H240.806H240.809H240.812H240.815H240.818H240.821H240.824H240.827H240.83H240.833H240.836H240.839H240.842H240.845H240.848H240.851H240.854H240.857H240.86H240.863H240.866H240.869H240.872H240.875H240.878H240.881H240.884H240.887H240.89H240.893H240.896H240.899H240.902H240.905H240.908H240.911H240.914H240.917H240.92H240.923H240.926H240.929H240.932H240.935H240.938H240.941H240.944H240.947H240.95H240.953H240.956H240.959H240.962H240.965H240.968H240.971H240.974H240.977H240.979H240.982H240.985H240.988H240.991H240.994H240.997H241H241.003H241.006H241.009H241.012H241.015H241.018H241.021H241.024H241.026H241.029H241.032H241.035H241.038H241.041H241.044H241.047H241.05H241.053H241.056H241.059H241.061H241.064H241.067H241.07H241.073H241.076H241.079H241.082H241.085H241.088H241.09H241.093H241.096H241.099H241.102H241.105H241.108H241.111H241.113H241.116H241.119H241.122H241.125H241.128H241.131H241.134H241.136H241.139H241.142H241.145H241.148H241.151H241.154H241.156H241.159H241.162H241.165H241.168H241.171H241.173H241.176H241.179H241.182H241.185H241.188H241.19H241.193H241.196H241.199H241.202H241.204H241.207H241.21H241.213H241.216H241.218H241.221H241.224H241.227H241.23H241.232H241.235H241.238H241.241H241.244H241.246H241.249H241.252H241.255H241.258H241.26H241.263H241.266H241.269H241.271H241.274H241.277H241.28H241.282H241.285H241.288H241.291H241.293H241.296H241.299H241.302H241.304H241.307H241.31H241.313H241.315H241.318H241.321H241.323H241.326H241.329H241.332H241.334H241.337H241.34H241.342H241.345H241.348H241.351H241.353H241.356H241.359H241.361H241.364H241.367H241.369H241.372H241.375H241.377H241.38H241.383H241.385H241.388H241.391H241.393H241.396H241.399H241.401H241.404H241.407H241.409H241.412H241.415H241.417H241.42H241.423H241.425H241.428H241.43H241.433H241.436H241.438H241.441H241.444H241.446H241.449H241.451H241.454H241.457H241.459H241.462H241.464H241.467H241.47H241.472H241.475H241.477H241.48H241.483H241.485H241.488H241.49H241.493H241.495H241.498H241.5H241.503H241.506H241.508H241.511H241.513H241.516H241.518H241.521H241.523H241.526H241.528H241.531H241.534H241.536H241.539H241.541H241.544H241.546H241.549H241.551H241.554H241.556H241.559H241.561H241.564H241.566H241.569H241.571H241.574H241.576H241.579H241.581C244.166 104.134 246.692 104.773 249.219 106.124L249.219 106.124L249.22 106.125C251.095 107.054 252.912 107.556 254.732 107.556C256.642 107.556 257.753 107.062 258.551 106.706C258.69 106.644 258.82 106.587 258.943 106.536C259.355 106.368 259.68 106.29 260.025 106.41C260.374 106.532 260.755 106.86 261.267 107.536C261.535 107.897 261.671 108.218 261.705 108.501C261.738 108.784 261.669 109.035 261.519 109.258C261.217 109.707 260.585 110.048 259.791 110.302C258.207 110.807 256.027 110.95 254.732 110.95C252.146 110.95 249.621 110.311 247.094 108.959ZM247.094 79.2982L247.094 79.2981C245.218 78.2968 243.4 77.7949 241.581 77.7949C241.094 77.7949 240.668 77.867 240.305 77.9385L240.221 77.9549L240.276 78.0198C240.397 78.1624 240.864 78.7144 241.301 79.2663C241.519 79.5424 241.729 79.8177 241.885 80.0415C241.963 80.1534 242.026 80.2516 242.07 80.3301C242.092 80.3693 242.109 80.4027 242.12 80.4298C242.131 80.4581 242.134 80.4751 242.134 80.4831C242.134 80.7378 241.947 80.9033 241.705 81.0075C241.463 81.1113 241.184 81.1461 241.038 81.1461C240.858 81.1461 240.623 81.0905 240.342 80.9883C240.063 80.8863 239.743 80.7395 239.397 80.5601C238.703 80.2013 237.905 79.7144 237.114 79.2022C236.323 78.6902 235.539 78.1535 234.874 77.6957C234.808 77.6504 234.744 77.6059 234.68 77.5623C234.104 77.1654 233.631 76.8397 233.344 76.6621C233.15 76.5306 233.05 76.2986 233.05 76.0624C233.05 75.8263 233.15 75.5945 233.343 75.4629C233.669 75.2703 234.221 74.908 234.886 74.4714L234.932 74.4409C235.62 73.9896 236.424 73.4618 237.227 72.9586C238.029 72.4552 238.829 71.977 239.507 71.6248C239.846 71.4487 240.153 71.3045 240.415 71.2045C240.678 71.1039 240.889 71.05 241.038 71.05C241.184 71.05 241.463 71.0848 241.705 71.1885C241.947 71.2928 242.134 71.4583 242.134 71.713C242.134 71.7198 242.131 71.7373 242.117 71.7688C242.104 71.7987 242.084 71.8359 242.058 71.88C242.006 71.9681 241.931 72.0798 241.839 72.2075C241.656 72.4626 241.41 72.7781 241.158 73.0897C240.905 73.4013 240.647 73.7083 240.441 73.9463C240.338 74.0653 240.248 74.1669 240.179 74.243C240.108 74.3207 240.061 74.3684 240.042 74.3832L239.929 74.4725H240.073H240.076H240.079H240.082H240.086H240.089H240.092H240.095H240.098H240.102H240.105H240.108H240.111H240.114H240.117H240.121H240.124H240.127H240.13H240.133H240.137H240.14H240.143H240.146H240.149H240.152H240.156H240.159H240.162H240.165H240.168H240.172H240.175H240.178H240.181H240.184H240.187H240.191H240.194H240.197H240.2H240.203H240.206H240.21H240.213H240.216H240.219H240.222H240.226H240.229H240.232H240.235H240.238H240.241H240.245H240.248H240.251H240.254H240.257H240.26H240.264H240.267H240.27H240.273H240.276H240.279H240.283H240.286H240.289H240.292H240.295H240.298H240.302H240.305H240.308H240.311H240.314H240.317H240.321H240.324H240.327H240.33H240.333H240.336H240.34H240.343H240.346H240.349H240.352H240.355H240.359H240.362H240.365H240.368H240.371H240.374H240.378H240.381H240.384H240.387H240.39H240.393H240.396H240.4H240.403H240.406H240.409H240.412H240.415H240.419H240.422H240.425H240.428H240.431H240.434H240.437H240.441H240.444H240.447H240.45H240.453H240.456H240.459H240.463H240.466H240.469H240.472H240.475H240.478H240.481H240.485H240.488H240.491H240.494H240.497H240.5H240.503H240.506H240.51H240.513H240.516H240.519H240.522H240.525H240.528H240.531H240.535H240.538H240.541H240.544H240.547H240.55H240.553H240.556H240.56H240.563H240.566H240.569H240.572H240.575H240.578H240.581H240.584H240.588H240.591H240.594H240.597H240.6H240.603H240.606H240.609H240.612H240.616H240.619H240.622H240.625H240.628H240.631H240.634H240.637H240.64H240.643H240.647H240.65H240.653H240.656H240.659H240.662H240.665H240.668H240.671H240.674H240.677H240.68H240.684H240.687H240.69H240.693H240.696H240.699H240.702H240.705H240.708H240.711H240.714H240.717H240.72H240.723H240.727H240.73H240.733H240.736H240.739H240.742H240.745H240.748H240.751H240.754H240.757H240.76H240.763H240.766H240.769H240.772H240.775H240.778H240.782H240.785H240.788H240.791H240.794H240.797H240.8H240.803H240.806H240.809H240.812H240.815H240.818H240.821H240.824H240.827H240.83H240.833H240.836H240.839H240.842H240.845H240.848H240.851H240.854H240.857H240.86H240.863H240.866H240.869H240.872H240.875H240.878H240.881H240.884H240.887H240.89H240.893H240.896H240.899H240.902H240.905H240.908H240.911H240.914H240.917H240.92H240.923H240.926H240.929H240.932H240.935H240.938H240.941H240.944H240.947H240.95H240.953H240.956H240.959H240.962H240.965H240.968H240.971H240.974H240.977H240.979H240.982H240.985H240.988H240.991H240.994H240.997H241H241.003H241.006H241.009H241.012H241.015H241.018H241.021H241.024H241.026H241.029H241.032H241.035H241.038H241.041H241.044H241.047H241.05H241.053H241.056H241.059H241.061H241.064H241.067H241.07H241.073H241.076H241.079H241.082H241.085H241.088H241.09H241.093H241.096H241.099H241.102H241.105H241.108H241.111H241.113H241.116H241.119H241.122H241.125H241.128H241.131H241.134H241.136H241.139H241.142H241.145H241.148H241.151H241.154H241.156H241.159H241.162H241.165H241.168H241.171H241.173H241.176H241.179H241.182H241.185H241.188H241.19H241.193H241.196H241.199H241.202H241.204H241.207H241.21H241.213H241.216H241.218H241.221H241.224H241.227H241.23H241.232H241.235H241.238H241.241H241.244H241.246H241.249H241.252H241.255H241.258H241.26H241.263H241.266H241.269H241.271H241.274H241.277H241.28H241.282H241.285H241.288H241.291H241.293H241.296H241.299H241.302H241.304H241.307H241.31H241.313H241.315H241.318H241.321H241.323H241.326H241.329H241.332H241.334H241.337H241.34H241.342H241.345H241.348H241.351H241.353H241.356H241.359H241.361H241.364H241.367H241.369H241.372H241.375H241.377H241.38H241.383H241.385H241.388H241.391H241.393H241.396H241.399H241.401H241.404H241.407H241.409H241.412H241.415H241.417H241.42H241.423H241.425H241.428H241.43H241.433H241.436H241.438H241.441H241.444H241.446H241.449H241.451H241.454H241.457H241.459H241.462H241.464H241.467H241.47H241.472H241.475H241.477H241.48H241.483H241.485H241.488H241.49H241.493H241.495H241.498H241.5H241.503H241.506H241.508H241.511H241.513H241.516H241.518H241.521H241.523H241.526H241.528H241.531H241.534H241.536H241.539H241.541H241.544H241.546H241.549H241.551H241.554H241.556H241.559H241.561H241.564H241.566H241.569H241.571H241.574H241.576H241.579H241.581C244.166 74.4725 246.692 75.1119 249.219 76.463L249.219 76.463C251.096 77.465 252.913 77.8949 254.732 77.8949C256.624 77.8949 257.733 77.4221 258.529 77.0824C258.676 77.0195 258.813 76.9611 258.942 76.9112C259.354 76.7518 259.679 76.6818 260.025 76.809C260.374 76.9374 260.755 77.2703 261.267 77.9464L261.267 77.9465C261.535 78.2985 261.671 78.6112 261.705 78.8881C261.738 79.1637 261.669 79.4079 261.519 79.6259C261.217 80.0657 260.585 80.4002 259.791 80.6493C258.208 81.1461 256.027 81.2887 254.732 81.2887C252.146 81.2887 249.621 80.6493 247.094 79.2982ZM234.592 92.3953C234.055 92.0309 233.616 91.7325 233.344 91.5641C233.151 91.4333 233.05 91.1846 233.05 90.9287C233.05 90.673 233.151 90.4244 233.343 90.2936C233.669 90.101 234.221 89.7385 234.886 89.3018L234.932 89.2715C235.62 88.8203 236.424 88.2925 237.227 87.7892C238.029 87.2859 238.829 86.8077 239.507 86.4555C239.846 86.2793 240.153 86.1352 240.415 86.0351C240.678 85.9346 240.889 85.8807 241.038 85.8807C241.181 85.8807 241.46 85.9323 241.702 86.0536C241.945 86.1755 242.134 86.3586 242.134 86.615C242.134 86.6216 242.131 86.6388 242.117 86.6697C242.104 86.699 242.084 86.7355 242.058 86.7787C242.006 86.865 241.931 86.9741 241.84 87.099C241.657 87.3485 241.41 87.6574 241.158 87.9647C240.756 88.4539 240.34 88.9369 240.141 89.1681C240.09 89.2274 240.053 89.2701 240.035 89.2921L239.951 89.3908L240.079 89.374C240.619 89.3032 241.158 89.3031 241.581 89.3031C244.165 89.3031 246.691 90.0134 249.219 91.2939C251.095 92.2951 252.912 92.7969 254.732 92.7969C256.642 92.7969 257.753 92.3022 258.551 91.947C258.69 91.885 258.82 91.8273 258.943 91.7771C259.355 91.6087 259.68 91.5304 260.025 91.651C260.374 91.7729 260.755 92.1009 261.267 92.7769C261.535 93.1378 261.671 93.4582 261.705 93.7421C261.738 94.0249 261.669 94.2752 261.519 94.4982C261.217 94.9479 260.585 95.289 259.791 95.5424C258.207 96.048 256.027 96.1906 254.732 96.1906C252.147 96.1906 249.622 95.4804 247.094 94.1999C245.218 93.1987 243.4 92.6969 241.581 92.6969H241.577C241.098 92.6969 240.671 92.6969 240.305 92.7691L240.231 92.7837L240.273 92.8462C240.335 92.9377 240.484 93.1226 240.67 93.35C240.721 93.4125 240.775 93.4783 240.83 93.5465C240.979 93.7281 241.142 93.9266 241.301 94.124C241.519 94.3957 241.73 94.6644 241.885 94.8826C241.963 94.9918 242.027 95.0875 242.07 95.1641C242.092 95.2024 242.109 95.235 242.12 95.2615C242.131 95.2892 242.134 95.3059 242.134 95.3137C242.134 95.5685 241.947 95.7339 241.705 95.8382C241.463 95.9419 241.184 95.9767 241.038 95.9767C240.858 95.9767 240.622 95.9222 240.342 95.8219C240.063 95.7219 239.743 95.5778 239.396 95.4017C238.703 95.0496 237.905 94.5716 237.114 94.0683C236.323 93.5652 235.539 93.0375 234.874 92.5863C234.777 92.521 234.683 92.4572 234.592 92.3953Z" fill="#00BFFF" stroke="white" stroke-width="0.1"/>
</g>
</g>
</g>
<g class="click fault inactive" reference="VENT-B-CONTROL">
<g id="flags_2">
<path id="Subtract_3" fill-rule="evenodd" clip-rule="evenodd" d="M93 170C93 181.046 84.0457 190 73 190C61.9543 190 53 181.046 53 170C53 158.954 61.9543 150 73 150C84.0457 150 93 158.954 93 170ZM90.3406 169.995C90.3406 179.575 82.5741 187.342 72.9937 187.342C63.4132 187.342 55.6467 179.575 55.6467 169.995C55.6467 160.414 63.4132 152.648 72.9937 152.648C82.5741 152.648 90.3406 160.414 90.3406 169.995Z"/>
</g>
<g class="animation-display">
<path id="ON_2" d="M65.4854 166.732C65.4854 164.975 65.8018 163.768 66.4346 163.111C66.9326 162.596 67.6562 162.338 68.6055 162.338C69.9883 162.338 70.873 162.906 71.2598 164.043C71.4883 164.717 71.6025 165.613 71.6025 166.732V173.553C71.6025 175.164 71.377 176.339 70.9258 177.077C70.4746 177.81 69.6836 178.176 68.5527 178.176C67.4277 178.176 66.6338 177.807 66.1709 177.068C65.7139 176.33 65.4854 175.158 65.4854 173.553V166.732ZM69.7832 166.627C69.7832 165.637 69.7041 164.937 69.5459 164.526C69.3877 164.11 69.0684 163.902 68.5879 163.902C68.1074 163.902 67.7734 164.113 67.5859 164.535C67.3984 164.957 67.3047 165.651 67.3047 166.618V173.57C67.3047 174.748 67.3867 175.551 67.5508 175.979C67.7148 176.4 68.0459 176.611 68.5439 176.611C69.042 176.611 69.373 176.397 69.5371 175.97C69.7012 175.536 69.7832 174.736 69.7832 173.57V166.627ZM78.7305 162.531H80.3389V178H79.0029L75.5312 167.383L75.6367 171.285V178H73.958V162.531H75.3291L78.915 173.061L78.7305 168.587V162.531Z"/>
</g>
<g class="animation-hide">
<path id="OFF_2" d="M63.3848 166.732C63.3848 164.975 63.7012 163.768 64.334 163.111C64.832 162.596 65.5557 162.338 66.5049 162.338C67.8877 162.338 68.7725 162.906 69.1592 164.043C69.3877 164.717 69.502 165.613 69.502 166.732V173.553C69.502 175.164 69.2764 176.339 68.8252 177.077C68.374 177.81 67.583 178.176 66.4521 178.176C65.3271 178.176 64.5332 177.807 64.0703 177.068C63.6133 176.33 63.3848 175.158 63.3848 173.553V166.732ZM67.6826 166.627C67.6826 165.637 67.6035 164.937 67.4453 164.526C67.2871 164.11 66.9678 163.902 66.4873 163.902C66.0068 163.902 65.6729 164.113 65.4854 164.535C65.2979 164.957 65.2041 165.651 65.2041 166.618V173.57C65.2041 174.748 65.2861 175.551 65.4502 175.979C65.6143 176.4 65.9453 176.611 66.4434 176.611C66.9414 176.611 67.2725 176.397 67.4365 175.97C67.6006 175.536 67.6826 174.736 67.6826 173.57V166.627ZM71.8486 162.531H76.5068V164.052H73.6592V168.938H76.3311V170.477H73.6592V178H71.8486V162.531ZM78.4053 162.531H83.0635V164.052H80.2158V168.938H82.8877V170.477H80.2158V178H78.4053V162.531Z"/>
</g>
</g>
<defs>
<linearGradient id="ahu-b-0_linear" x1="122.5" y1="109.16" x2="122.5" y2="154.064" gradientUnits="userSpaceOnUse">
<stop stop-color="#A6A5A5"/>
<stop offset="1" stop-color="white"/>
</linearGradient>
<linearGradient id="ahu-b-1_linear" x1="16" y1="118" x2="22.5" y2="124.5" gradientUnits="userSpaceOnUse">
<stop stop-color="#C4C4C4"/>
<stop offset="0.494792" stop-color="white"/>
<stop offset="1" stop-color="#BEBEBE"/>
</linearGradient>
<linearGradient id="ahu-b-2_linear" x1="16" y1="86" x2="22.5" y2="92.5" gradientUnits="userSpaceOnUse">
<stop stop-color="#C4C4C4"/>
<stop offset="0.494792" stop-color="white"/>
<stop offset="1" stop-color="#BEBEBE"/>
</linearGradient>
<linearGradient id="ahu-b-3_linear" x1="16" y1="102" x2="22.5" y2="108.5" gradientUnits="userSpaceOnUse">
<stop stop-color="#C4C4C4"/>
<stop offset="0.494792" stop-color="white"/>
<stop offset="1" stop-color="#BEBEBE"/>
</linearGradient>
<linearGradient id="ahu-b-4_linear" x1="16" y1="70" x2="22.5" y2="76.5" gradientUnits="userSpaceOnUse">
<stop stop-color="#C4C4C4"/>
<stop offset="0.494792" stop-color="white"/>
<stop offset="1" stop-color="#BEBEBE"/>
</linearGradient>
<linearGradient id="ahu-b-5_linear" x1="6.06348" y1="101.898" x2="58.7359" y2="101.898" gradientUnits="userSpaceOnUse">
<stop offset="1" stop-color="white" stop-opacity="0.6"/>
</linearGradient>
<linearGradient id="ahu-b-6_linear" x1="6.06348" y1="101.898" x2="6.06348" y2="154.571" gradientUnits="userSpaceOnUse">
<stop offset="1" stop-color="white" stop-opacity="0.6"/>
</linearGradient>
<linearGradient id="ahu-b-7_linear" x1="1.05859" y1="109.803" x2="80.0673" y2="109.803" gradientUnits="userSpaceOnUse">
<stop offset="1" stop-color="white" stop-opacity="0.6"/>
</linearGradient>
<linearGradient id="ahu-b-8_linear" x1="1.05859" y1="109.803" x2="1.05859" y2="188.811" gradientUnits="userSpaceOnUse">
<stop offset="1" stop-color="white" stop-opacity="0.6"/>
</linearGradient>
<linearGradient id="ahu-b-9_linear" x1="10.5381" y1="109.803" x2="89.5468" y2="109.803" gradientUnits="userSpaceOnUse">
<stop offset="1" stop-color="white" stop-opacity="0.6"/>
</linearGradient>
<linearGradient id="ahu-b-10_linear" x1="10.5381" y1="109.803" x2="10.5381" y2="188.811" gradientUnits="userSpaceOnUse">
<stop offset="1" stop-color="white" stop-opacity="0.6"/>
</linearGradient>
<linearGradient id="ahu-b-11_linear" x1="101.646" y1="73.6419" x2="100.875" y2="129.527" gradientUnits="userSpaceOnUse">
<stop stop-color="#848484"/>
<stop offset="0.499267" stop-color="white"/>
<stop offset="1" stop-color="#848484"/>
</linearGradient>
</defs>
</svg>
