<svg width="31" height="31" viewBox="0 0 31 31" fill="none" xmlns="http://www.w3.org/2000/svg">
	<style>
	#speeeen {
  -webkit-transform-origin: 16px 16px;
  -moz-transform-origin: 16px 16px;
  -ms-transform-origin: 16px 16px;
  transform-origin: 16px 16px;
}
</style>
<g class="fault inactive" reference="VENT">
	<circle id="Ellipse" cx="15.9609" cy="15.9297" r="15" transform="rotate(-180 15.9609 15.9297)"/>
<g id="speeeen" class="animation-spin">

<path id="Vector" fill-rule="evenodd" clip-rule="evenodd" d="M15.9628 21.7476H15.6538C16.1002 21.7819 16.5465 21.7476 16.9585 21.6789C16.6495 21.7132 16.3062 21.7476 15.9628 21.7476ZM10.4351 17.6962C8.13472 18.2112 5.25067 18.2455 1.16494 17.3528C3.56831 24.2883 4.22066 26.4857 12.3578 20.5116L12.3235 20.4772C13.0101 21.0266 13.7998 21.4042 14.6925 21.6102C13.9715 23.8763 12.5638 26.3827 9.74841 29.4727C16.9585 30.8461 19.1902 31.4297 18.0572 21.3699C18.8812 21.0266 19.6022 20.5459 20.2202 19.8936C21.7996 21.6446 23.276 24.1166 24.5463 28.0994C29.3187 22.5373 30.9324 20.8892 21.6623 16.8378C21.7309 16.5632 21.7309 16.2885 21.7309 15.9795C21.7309 15.3958 21.6623 14.8121 21.4906 14.2628C23.791 13.7478 26.675 13.7135 30.7607 14.6061C28.323 7.67069 27.705 5.43899 19.5679 11.4474L19.6366 11.5161C18.9499 10.9667 18.1259 10.5547 17.2332 10.3487C17.9542 8.0827 19.3619 5.57632 22.1773 2.48628C14.9672 1.11292 12.7355 0.529244 13.8341 10.5891C13.0101 10.8981 12.2891 11.4131 11.7054 12.0654C10.1261 10.3144 8.64972 7.84236 7.37937 3.85963C2.57263 9.42172 0.95894 11.0697 10.2291 15.1211C10.1948 15.3958 10.1948 15.6705 10.1948 15.9795C10.1948 16.5632 10.2634 17.1468 10.4351 17.6962ZM15.2418 10.2457C15.4822 10.2114 15.7568 10.1771 16.0315 10.2114H15.9628C15.7225 10.2114 15.4822 10.2114 15.2418 10.2457ZM15.9628 19.0009C14.2805 19.0009 12.9415 17.6619 12.9415 15.9795C12.9415 14.2971 14.2805 12.9581 15.9628 12.9581C17.6452 12.9581 18.9842 14.2971 18.9842 15.9795C18.9842 17.6619 17.6452 19.0009 15.9628 19.0009Z" fill="#333333"/>
</g>
</g>
</svg>
