<svg width="29" height="40" viewBox="0 0 29 40" fill="none" xmlns="http://www.w3.org/2000/svg">
<g class="fault inactive" reference="STATUS-R-B">
<g  class="animation-fail">
<path d="M14.0941 37.9595L14.094 37.9595C12.2181 36.9581 10.4004 36.4562 8.58105 36.4562C8.09357 36.4562 7.66755 36.5283 7.30458 36.5998L7.22116 36.6162L7.27608 36.6811C7.39672 36.8237 7.86387 37.3759 8.30079 37.919C8.51932 38.1907 8.72985 38.4596 8.88559 38.6736C8.96354 38.7807 9.02719 38.8733 9.07116 38.9453C9.09319 38.9813 9.1097 39.0113 9.12055 39.0347C9.12597 39.0464 9.12963 39.0558 9.13186 39.063C9.13424 39.0706 9.13428 39.0735 9.13428 39.0731C9.13428 39.3664 8.94323 39.5488 8.70321 39.6606C8.46259 39.7726 8.18367 39.8074 8.03813 39.8074C7.85838 39.8074 7.62268 39.7518 7.34246 39.6496C7.06312 39.5477 6.7433 39.4008 6.39655 39.2214C5.70308 38.8627 4.90537 38.3757 4.1141 37.8636C3.323 37.3515 2.53931 36.8149 1.87388 36.357C1.80812 36.3117 1.7435 36.2672 1.68013 36.2236C1.10357 35.8267 0.630547 35.501 0.343889 35.3234C0.149799 35.1919 0.0500088 34.9599 0.0500088 34.7237C0.0500088 34.4873 0.149914 34.2553 0.344227 34.1237C0.548521 33.992 0.841639 33.7969 1.19622 33.561C1.9977 33.0276 3.11317 32.2852 4.22643 31.5933C5.02907 31.0944 5.82887 30.6229 6.50662 30.2762C6.84554 30.1029 7.15307 29.9612 7.41465 29.863C7.67755 29.7643 7.8892 29.7113 8.03813 29.7113C8.18371 29.7113 8.46326 29.7461 8.70457 29.8499C8.94711 29.9541 9.13428 30.1196 9.13428 30.3743C9.13428 30.3811 9.13057 30.3986 9.11675 30.4302C9.1037 30.46 9.08398 30.4973 9.05793 30.5414C9.0059 30.6295 8.93077 30.7412 8.83921 30.8688C8.65623 31.1239 8.40998 31.4394 8.15763 31.7511C7.90536 32.0626 7.64745 32.3697 7.4414 32.6076C7.33835 32.7267 7.24843 32.8282 7.17875 32.9044C7.10768 32.982 7.06073 33.0298 7.04201 33.0445L6.92872 33.1338H7.07295H7.07614H7.07932H7.0825H7.08568H7.08886H7.09204H7.09522H7.0984H7.10158H7.10476H7.10795H7.11113H7.11431H7.11749H7.12067H7.12385H7.12703H7.13021H7.13339H7.13657H7.13975H7.14293H7.14611H7.14929H7.15247H7.15565H7.15883H7.16201H7.16519H7.16836H7.17154H7.17472H7.1779H7.18108H7.18426H7.18743H7.19061H7.19379H7.19696H7.20014H7.20332H7.2065H7.20967H7.21285H7.21602H7.2192H7.22237H7.22555H7.22872H7.2319H7.23507H7.23825H7.24142H7.24459H7.24777H7.25094H7.25411H7.25728H7.26046H7.26363H7.2668H7.26997H7.27314H7.27631H7.27948H7.28265H7.28582H7.28899H7.29216H7.29532H7.29849H7.30166H7.30483H7.30799H7.31116H7.31433H7.31749H7.32066H7.32382H7.32698H7.33015H7.33331H7.33647H7.33964H7.3428H7.34596H7.34912H7.35228H7.35544H7.3586H7.36176H7.36492H7.36808H7.37123H7.37439H7.37755H7.3807H7.38386H7.38701H7.39017H7.39332H7.39647H7.39963H7.40278H7.40593H7.40908H7.41223H7.41538H7.41853H7.42168H7.42483H7.42798H7.43113H7.43427H7.43742H7.44056H7.44371H7.44685H7.44999H7.45314H7.45628H7.45942H7.46256H7.4657H7.46884H7.47198H7.47512H7.47825H7.48139H7.48453H7.48766H7.4908H7.49393H7.49706H7.50019H7.50333H7.50646H7.50959H7.51272H7.51585H7.51897H7.5221H7.52523H7.52835H7.53148H7.5346H7.53773H7.54085H7.54397H7.54709H7.55021H7.55333H7.55645H7.55956H7.56268H7.5658H7.56891H7.57203H7.57514H7.57825H7.58137H7.58448H7.58759H7.59069H7.5938H7.59691H7.60002H7.60312H7.60623H7.60933H7.61243H7.61554H7.61864H7.62174H7.62483H7.62793H7.63103H7.63413H7.63722H7.64032H7.64341H7.6465H7.64959H7.65268H7.65577H7.65886H7.66195H7.66503H7.66812H7.6712H7.67429H7.67737H7.68045H7.68353H7.68661H7.68969H7.69276H7.69584H7.69892H7.70199H7.70506H7.70813H7.7112H7.71427H7.71734H7.72041H7.72348H7.72654H7.7296H7.73267H7.73573H7.73879H7.74185H7.74491H7.74796H7.75102H7.75407H7.75713H7.76018H7.76323H7.76628H7.76933H7.77238H7.77542H7.77847H7.78151H7.78456H7.7876H7.79064H7.79368H7.79671H7.79975H7.80279H7.80582H7.80886H7.81189H7.81492H7.81795H7.82097H7.824H7.82702H7.83005H7.83307H7.83609H7.83911H7.84213H7.84515H7.84816H7.85118H7.85419H7.8572H7.86021H7.86322H7.86623H7.86924H7.87224H7.87525H7.87825H7.88125H7.88425H7.88725H7.89024H7.89324H7.89623H7.89923H7.90222H7.90521H7.9082H7.91118H7.91417H7.91715H7.92013H7.92311H7.92609H7.92907H7.93205H7.93502H7.938H7.94097H7.94394H7.94691H7.94987H7.95284H7.9558H7.95877H7.96173H7.96469H7.96765H7.9706H7.97356H7.97651H7.97947H7.98242H7.98536H7.98831H7.99126H7.9942H7.99714H8.00008H8.00302H8.00596H8.0089H8.01183H8.01476H8.0177H8.02062H8.02355H8.02648H8.0294H8.03233H8.03525H8.03817H8.04108H8.044H8.04692H8.04983H8.05274H8.05565H8.05856H8.06146H8.06437H8.06727H8.07017H8.07307H8.07596H8.07886H8.08175H8.08465H8.08754H8.09042H8.09331H8.0962H8.09908H8.10196H8.10484H8.10772H8.11059H8.11347H8.11634H8.11921H8.12208H8.12494H8.12781H8.13067H8.13353H8.13639H8.13925H8.14211H8.14496H8.14781H8.15066H8.15351H8.15635H8.1592H8.16204H8.16488H8.16772H8.17056H8.17339H8.17622H8.17905H8.18188H8.18471H8.18753H8.19036H8.19318H8.196H8.19881H8.20163H8.20444H8.20725H8.21006H8.21287H8.21567H8.21848H8.22128H8.22408H8.22687H8.22967H8.23246H8.23525H8.23804H8.24083H8.24361H8.24639H8.24917H8.25195H8.25473H8.2575H8.26027H8.26304H8.26581H8.26858H8.27134H8.2741H8.27686H8.27962H8.28237H8.28513H8.28788H8.29063H8.29337H8.29612H8.29886H8.3016H8.30434H8.30707H8.3098H8.31254H8.31527H8.31799H8.32072H8.32344H8.32616H8.32888H8.33159H8.33431H8.33702H8.33973H8.34243H8.34514H8.34784H8.35054H8.35324H8.35593H8.35862H8.36131H8.364H8.36669H8.36937H8.37206H8.37473H8.37741H8.38008H8.38276H8.38543H8.38809H8.39076H8.39342H8.39608H8.39874H8.40139H8.40405H8.4067H8.40935H8.41199H8.41464H8.41728H8.41992H8.42255H8.42519H8.42782H8.43045H8.43307H8.4357H8.43832H8.44094H8.44355H8.44617H8.44878H8.45139H8.454H8.4566H8.4592H8.4618H8.4644H8.46699H8.46959H8.47217H8.47476H8.47734H8.47993H8.48251H8.48508H8.48766H8.49023H8.4928H8.49536H8.49793H8.50049H8.50305H8.5056H8.50816H8.51071H8.51325H8.5158H8.51834H8.52088H8.52342H8.52596H8.52849H8.53102H8.53354H8.53607H8.53859H8.54111H8.54362H8.54614H8.54865H8.55116H8.55367H8.55617H8.55867H8.56116H8.56366H8.56615H8.56864H8.57113H8.57361H8.57609H8.57857H8.58105C11.1662 33.1338 13.6918 33.7732 16.2186 35.1243L16.2186 35.1243L16.2199 35.125C18.0951 36.0545 19.9124 36.5562 21.7316 36.5562C23.6421 36.5562 24.7532 36.0616 25.5512 35.7064C25.6905 35.6444 25.8202 35.5866 25.943 35.5365C26.3554 35.3681 26.6799 35.2897 27.0255 35.4104C27.3744 35.5322 27.7552 35.8603 28.2669 36.5362C28.5349 36.8971 28.6714 37.2175 28.7046 37.5015C28.7376 37.7843 28.6687 38.0345 28.5189 38.2576C28.2169 38.7072 27.5847 39.0483 26.7911 39.3017C25.2075 39.8074 23.0269 39.95 21.7316 39.95C19.1464 39.95 16.6209 39.3106 14.0941 37.9595ZM14.0941 8.29815L14.094 8.29814C12.2181 7.29679 10.4004 6.79492 8.58105 6.79492C8.09357 6.79492 7.66755 6.86696 7.30458 6.93847L7.22116 6.9549L7.27608 7.01982C7.39671 7.1624 7.86375 7.71444 8.30054 8.26632C8.51901 8.54236 8.72939 8.8177 8.88497 9.04147C8.96282 9.15345 9.02634 9.25163 9.07019 9.33005C9.09213 9.3693 9.10864 9.4027 9.11954 9.42982C9.13092 9.45814 9.13428 9.4751 9.13428 9.48307C9.13428 9.73782 8.94711 9.90329 8.70457 10.0075C8.46326 10.1113 8.18371 10.1461 8.03813 10.1461C7.85838 10.1461 7.62268 10.0905 7.34246 9.98826C7.06312 9.88634 6.7433 9.73947 6.39655 9.56009C5.70308 9.20135 4.90537 8.7144 4.1141 8.20223C3.323 7.69017 2.53931 7.15354 1.87388 6.69566C1.80813 6.65042 1.74353 6.60594 1.68017 6.56232C1.10361 6.16536 0.630581 5.83968 0.343914 5.66214C0.149807 5.5306 0.0500088 5.29863 0.0500088 5.06239C0.0500088 4.82632 0.149658 4.59453 0.343477 4.46294C0.669186 4.27035 1.22102 3.90797 1.88587 3.47139L1.93236 3.44086C2.61953 2.98963 3.42405 2.46183 4.2266 1.95858C5.02931 1.45524 5.82913 0.977032 6.50691 0.624802C6.84584 0.448669 7.15337 0.304504 7.41493 0.204483C7.67785 0.103947 7.88938 0.0499992 8.03813 0.0499992C8.18371 0.0499992 8.46326 0.0848198 8.70457 0.188538C8.94711 0.292786 9.13428 0.458256 9.13428 0.713009C9.13428 0.719769 9.13057 0.737263 9.11675 0.768829C9.1037 0.798656 9.08398 0.835934 9.05793 0.880039C9.0059 0.96814 8.93077 1.07984 8.83921 1.20749C8.65623 1.46257 8.40998 1.77811 8.15763 2.08974C7.90536 2.40127 7.64745 2.70834 7.4414 2.94633C7.33835 3.06534 7.24843 3.1669 7.17875 3.24303C7.10768 3.32069 7.06073 3.36843 7.04201 3.38319L6.92872 3.47246H7.07295H7.07614H7.07932H7.0825H7.08568H7.08886H7.09204H7.09522H7.0984H7.10158H7.10476H7.10795H7.11113H7.11431H7.11749H7.12067H7.12385H7.12703H7.13021H7.13339H7.13657H7.13975H7.14293H7.14611H7.14929H7.15247H7.15565H7.15883H7.16201H7.16519H7.16836H7.17154H7.17472H7.1779H7.18108H7.18426H7.18743H7.19061H7.19379H7.19696H7.20014H7.20332H7.2065H7.20967H7.21285H7.21602H7.2192H7.22237H7.22555H7.22872H7.2319H7.23507H7.23825H7.24142H7.24459H7.24777H7.25094H7.25411H7.25728H7.26046H7.26363H7.2668H7.26997H7.27314H7.27631H7.27948H7.28265H7.28582H7.28899H7.29216H7.29532H7.29849H7.30166H7.30483H7.30799H7.31116H7.31433H7.31749H7.32066H7.32382H7.32698H7.33015H7.33331H7.33647H7.33964H7.3428H7.34596H7.34912H7.35228H7.35544H7.3586H7.36176H7.36492H7.36808H7.37123H7.37439H7.37755H7.3807H7.38386H7.38701H7.39017H7.39332H7.39647H7.39963H7.40278H7.40593H7.40908H7.41223H7.41538H7.41853H7.42168H7.42483H7.42798H7.43113H7.43427H7.43742H7.44056H7.44371H7.44685H7.44999H7.45314H7.45628H7.45942H7.46256H7.4657H7.46884H7.47198H7.47512H7.47825H7.48139H7.48453H7.48766H7.4908H7.49393H7.49706H7.50019H7.50333H7.50646H7.50959H7.51272H7.51585H7.51897H7.5221H7.52523H7.52835H7.53148H7.5346H7.53773H7.54085H7.54397H7.54709H7.55021H7.55333H7.55645H7.55956H7.56268H7.5658H7.56891H7.57203H7.57514H7.57825H7.58137H7.58448H7.58759H7.59069H7.5938H7.59691H7.60002H7.60312H7.60623H7.60933H7.61243H7.61554H7.61864H7.62174H7.62483H7.62793H7.63103H7.63413H7.63722H7.64032H7.64341H7.6465H7.64959H7.65268H7.65577H7.65886H7.66195H7.66503H7.66812H7.6712H7.67429H7.67737H7.68045H7.68353H7.68661H7.68969H7.69276H7.69584H7.69892H7.70199H7.70506H7.70813H7.7112H7.71427H7.71734H7.72041H7.72348H7.72654H7.7296H7.73267H7.73573H7.73879H7.74185H7.74491H7.74796H7.75102H7.75407H7.75713H7.76018H7.76323H7.76628H7.76933H7.77238H7.77542H7.77847H7.78151H7.78456H7.7876H7.79064H7.79368H7.79671H7.79975H7.80279H7.80582H7.80886H7.81189H7.81492H7.81795H7.82097H7.824H7.82702H7.83005H7.83307H7.83609H7.83911H7.84213H7.84515H7.84816H7.85118H7.85419H7.8572H7.86021H7.86322H7.86623H7.86924H7.87224H7.87525H7.87825H7.88125H7.88425H7.88725H7.89024H7.89324H7.89623H7.89923H7.90222H7.90521H7.9082H7.91118H7.91417H7.91715H7.92013H7.92311H7.92609H7.92907H7.93205H7.93502H7.938H7.94097H7.94394H7.94691H7.94987H7.95284H7.9558H7.95877H7.96173H7.96469H7.96765H7.9706H7.97356H7.97651H7.97947H7.98242H7.98536H7.98831H7.99126H7.9942H7.99714H8.00008H8.00302H8.00596H8.0089H8.01183H8.01476H8.0177H8.02062H8.02355H8.02648H8.0294H8.03233H8.03525H8.03817H8.04108H8.044H8.04692H8.04983H8.05274H8.05565H8.05856H8.06146H8.06437H8.06727H8.07017H8.07307H8.07596H8.07886H8.08175H8.08465H8.08754H8.09042H8.09331H8.0962H8.09908H8.10196H8.10484H8.10772H8.11059H8.11347H8.11634H8.11921H8.12208H8.12494H8.12781H8.13067H8.13353H8.13639H8.13925H8.14211H8.14496H8.14781H8.15066H8.15351H8.15635H8.1592H8.16204H8.16488H8.16772H8.17056H8.17339H8.17622H8.17905H8.18188H8.18471H8.18753H8.19036H8.19318H8.196H8.19881H8.20163H8.20444H8.20725H8.21006H8.21287H8.21567H8.21848H8.22128H8.22408H8.22687H8.22967H8.23246H8.23525H8.23804H8.24083H8.24361H8.24639H8.24917H8.25195H8.25473H8.2575H8.26027H8.26304H8.26581H8.26858H8.27134H8.2741H8.27686H8.27962H8.28237H8.28513H8.28788H8.29063H8.29337H8.29612H8.29886H8.3016H8.30434H8.30707H8.3098H8.31254H8.31527H8.31799H8.32072H8.32344H8.32616H8.32888H8.33159H8.33431H8.33702H8.33973H8.34243H8.34514H8.34784H8.35054H8.35324H8.35593H8.35862H8.36131H8.364H8.36669H8.36937H8.37206H8.37473H8.37741H8.38008H8.38276H8.38543H8.38809H8.39076H8.39342H8.39608H8.39874H8.40139H8.40405H8.4067H8.40935H8.41199H8.41464H8.41728H8.41992H8.42255H8.42519H8.42782H8.43045H8.43307H8.4357H8.43832H8.44094H8.44355H8.44617H8.44878H8.45139H8.454H8.4566H8.4592H8.4618H8.4644H8.46699H8.46959H8.47217H8.47476H8.47734H8.47993H8.48251H8.48508H8.48766H8.49023H8.4928H8.49536H8.49793H8.50049H8.50305H8.5056H8.50816H8.51071H8.51325H8.5158H8.51834H8.52088H8.52342H8.52596H8.52849H8.53102H8.53354H8.53607H8.53859H8.54111H8.54362H8.54614H8.54865H8.55116H8.55367H8.55617H8.55867H8.56116H8.56366H8.56615H8.56864H8.57113H8.57361H8.57609H8.57857H8.58105C11.1662 3.47246 13.6918 4.11189 16.2186 5.46299L16.2186 5.46301C18.0957 6.46497 19.9134 6.89492 21.7316 6.89492C23.6243 6.89492 24.7325 6.4221 25.5286 6.08244C25.6762 6.01949 25.813 5.96111 25.9421 5.91116C26.3542 5.75178 26.6787 5.68183 27.0247 5.80896C27.3742 5.93739 27.7552 6.27031 28.267 6.9464L28.2671 6.94651C28.5351 7.29855 28.6715 7.61116 28.7046 7.88807C28.7376 8.16372 28.6688 8.40791 28.5192 8.62589C28.2173 9.06567 27.5852 9.40025 26.7914 9.64926C25.2076 10.1461 23.0269 10.2887 21.7316 10.2887C19.1464 10.2887 16.6209 9.64925 14.0941 8.29815ZM1.59221 21.3953C1.05543 21.0309 0.615761 20.7325 0.343914 20.5641C0.151035 20.4333 0.0500088 20.1846 0.0500088 19.9287C0.0500088 19.673 0.150885 19.4244 0.343479 19.2936C0.669239 19.101 1.2212 18.7385 1.88619 18.3018L1.93236 18.2715C2.61953 17.8203 3.42405 17.2925 4.2266 16.7892C5.02931 16.2859 5.82913 15.8077 6.50691 15.4555C6.84584 15.2793 7.15337 15.1352 7.41493 15.0351C7.67785 14.9346 7.88938 14.8807 8.03813 14.8807C8.18106 14.8807 8.45993 14.9323 8.7019 15.0536C8.94502 15.1755 9.13428 15.3586 9.13428 15.615C9.13428 15.6216 9.13063 15.6388 9.11687 15.6697C9.10386 15.699 9.08419 15.7355 9.05816 15.7787C9.00617 15.865 8.93108 15.9741 8.83952 16.099C8.65654 16.3485 8.41028 16.6574 8.15785 16.9647C7.75597 17.4539 7.34023 17.9369 7.14124 18.1681C7.09019 18.2274 7.05341 18.2701 7.03478 18.2921L6.95127 18.3908L7.07947 18.374C7.61867 18.3032 8.15844 18.3031 8.58105 18.3031C11.1653 18.3031 13.691 19.0134 16.2191 20.2939C18.0948 21.2951 19.9124 21.7969 21.7316 21.7969C23.6421 21.7969 24.7532 21.3022 25.5512 20.947C25.6905 20.885 25.8202 20.8273 25.943 20.7771C26.3554 20.6087 26.6799 20.5304 27.0255 20.651C27.3744 20.7729 27.7552 21.1009 28.2669 21.7769C28.5349 22.1378 28.6714 22.4582 28.7046 22.7421C28.7376 23.0249 28.6687 23.2752 28.5189 23.4982C28.2169 23.9479 27.5847 24.289 26.7911 24.5424C25.2075 25.048 23.0269 25.1906 21.7316 25.1906C19.1473 25.1906 16.6216 24.4804 14.0936 23.1999C12.2178 22.1987 10.4003 21.6969 8.58105 21.6969H8.57719C8.09765 21.6969 7.67132 21.6969 7.30458 21.7691L7.23054 21.7837L7.27284 21.8462C7.33475 21.9377 7.48363 22.1226 7.66952 22.35C7.72056 22.4125 7.77451 22.4783 7.83043 22.5465C7.97923 22.7281 8.14196 22.9266 8.30079 23.124C8.51936 23.3957 8.72973 23.6644 8.88531 23.8826C8.96316 23.9918 9.02663 24.0875 9.07043 24.1641C9.09234 24.2024 9.1088 24.235 9.11965 24.2615C9.13097 24.2892 9.13428 24.3059 9.13428 24.3137C9.13428 24.5685 8.94711 24.7339 8.70457 24.8382C8.46326 24.9419 8.18371 24.9767 8.03813 24.9767C7.85822 24.9767 7.6224 24.9222 7.34217 24.8219C7.0628 24.7219 6.74296 24.5778 6.39621 24.4017C5.70273 24.0496 4.90502 23.5716 4.11377 23.0683C3.32268 22.5652 2.53899 22.0375 1.87359 21.5863C1.77723 21.521 1.68332 21.4572 1.59221 21.3953Z" fill="#00BFFF" stroke="white" stroke-width="0.1"/>
</g>
</g>
</svg>
