<svg width="29" height="40" viewBox="0 0 29 40" fill="none" xmlns="http://www.w3.org/2000/svg">
<g class="fault inactive" reference="STATUS-R-P">
<g  class="animation-fail">
<path d="M14.6686 37.9595L14.6687 37.9595C16.5446 36.9581 18.3623 36.4562 20.1816 36.4562C20.6691 36.4562 21.0951 36.5283 21.4581 36.5998L21.5415 36.6162L21.4866 36.6811C21.366 36.8237 20.8988 37.3759 20.4619 37.919C20.2434 38.1907 20.0328 38.4596 19.8771 38.6736C19.7992 38.7807 19.7355 38.8733 19.6915 38.9453C19.6695 38.9813 19.653 39.0113 19.6421 39.0347C19.6367 39.0464 19.6331 39.0558 19.6308 39.063C19.6285 39.0706 19.6284 39.0735 19.6284 39.0731C19.6284 39.3664 19.8195 39.5488 20.0595 39.6606C20.3001 39.7726 20.579 39.8074 20.7246 39.8074C20.9043 39.8074 21.14 39.7518 21.4202 39.6496C21.6996 39.5477 22.0194 39.4008 22.3661 39.2214C23.0596 38.8627 23.8573 38.3757 24.6486 37.8636C25.4397 37.3515 26.2234 36.8149 26.8888 36.357C26.9546 36.3117 27.0192 36.2672 27.0826 36.2236C27.6591 35.8267 28.1321 35.501 28.4188 35.3234C28.6129 35.1919 28.7127 34.9599 28.7127 34.7237C28.7127 34.4873 28.6128 34.2553 28.4185 34.1237C28.2142 33.992 27.9211 33.7969 27.5665 33.561C26.765 33.0276 25.6495 32.2852 24.5363 31.5933C23.7336 31.0944 22.9338 30.6229 22.2561 30.2762C21.9172 30.1029 21.6096 29.9612 21.348 29.863C21.0851 29.7643 20.8735 29.7113 20.7246 29.7113C20.579 29.7113 20.2994 29.7461 20.0581 29.8499C19.8156 29.9541 19.6284 30.1196 19.6284 30.3743C19.6284 30.3811 19.6321 30.3986 19.6459 30.4302C19.659 30.46 19.6787 30.4973 19.7048 30.5414C19.7568 30.6295 19.8319 30.7412 19.9235 30.8688C20.1065 31.1239 20.3527 31.4394 20.6051 31.7511C20.8573 32.0626 21.1152 32.3697 21.3213 32.6076C21.4243 32.7267 21.5143 32.8282 21.5839 32.9044C21.655 32.982 21.702 33.0298 21.7207 33.0445L21.834 33.1338H21.6897H21.6866H21.6834H21.6802H21.677H21.6738H21.6707H21.6675H21.6643H21.6611H21.6579H21.6547H21.6516H21.6484H21.6452H21.642H21.6388H21.6357H21.6325H21.6293H21.6261H21.6229H21.6198H21.6166H21.6134H21.6102H21.607H21.6039H21.6007H21.5975H21.5943H21.5912H21.588H21.5848H21.5816H21.5784H21.5753H21.5721H21.5689H21.5657H21.5626H21.5594H21.5562H21.553H21.5498H21.5467H21.5435H21.5403H21.5371H21.534H21.5308H21.5276H21.5244H21.5213H21.5181H21.5149H21.5118H21.5086H21.5054H21.5022H21.4991H21.4959H21.4927H21.4896H21.4864H21.4832H21.48H21.4769H21.4737H21.4705H21.4674H21.4642H21.461H21.4579H21.4547H21.4515H21.4484H21.4452H21.442H21.4389H21.4357H21.4325H21.4294H21.4262H21.4231H21.4199H21.4167H21.4136H21.4104H21.4073H21.4041H21.4009H21.3978H21.3946H21.3915H21.3883H21.3851H21.382H21.3788H21.3757H21.3725H21.3694H21.3662H21.3631H21.3599H21.3568H21.3536H21.3505H21.3473H21.3442H21.341H21.3379H21.3347H21.3316H21.3284H21.3253H21.3221H21.319H21.3158H21.3127H21.3096H21.3064H21.3033H21.3001H21.297H21.2939H21.2907H21.2876H21.2844H21.2813H21.2782H21.275H21.2719H21.2688H21.2656H21.2625H21.2594H21.2562H21.2531H21.25H21.2468H21.2437H21.2406H21.2375H21.2343H21.2312H21.2281H21.225H21.2218H21.2187H21.2156H21.2125H21.2094H21.2062H21.2031H21.2H21.1969H21.1938H21.1907H21.1876H21.1844H21.1813H21.1782H21.1751H21.172H21.1689H21.1658H21.1627H21.1596H21.1565H21.1534H21.1503H21.1472H21.1441H21.141H21.1379H21.1348H21.1317H21.1286H21.1255H21.1224H21.1193H21.1162H21.1131H21.11H21.1069H21.1038H21.1007H21.0977H21.0946H21.0915H21.0884H21.0853H21.0822H21.0792H21.0761H21.073H21.0699H21.0669H21.0638H21.0607H21.0576H21.0546H21.0515H21.0484H21.0454H21.0423H21.0392H21.0362H21.0331H21.03H21.027H21.0239H21.0208H21.0178H21.0147H21.0117H21.0086H21.0056H21.0025H20.9995H20.9964H20.9934H20.9903H20.9873H20.9842H20.9812H20.9781H20.9751H20.9721H20.969H20.966H20.9629H20.9599H20.9569H20.9538H20.9508H20.9478H20.9447H20.9417H20.9387H20.9357H20.9326H20.9296H20.9266H20.9236H20.9206H20.9175H20.9145H20.9115H20.9085H20.9055H20.9025H20.8995H20.8965H20.8935H20.8905H20.8874H20.8844H20.8814H20.8784H20.8754H20.8725H20.8695H20.8665H20.8635H20.8605H20.8575H20.8545H20.8515H20.8485H20.8455H20.8426H20.8396H20.8366H20.8336H20.8306H20.8277H20.8247H20.8217H20.8188H20.8158H20.8128H20.8099H20.8069H20.8039H20.801H20.798H20.795H20.7921H20.7891H20.7862H20.7832H20.7803H20.7773H20.7744H20.7714H20.7685H20.7656H20.7626H20.7597H20.7567H20.7538H20.7509H20.7479H20.745H20.7421H20.7391H20.7362H20.7333H20.7304H20.7274H20.7245H20.7216H20.7187H20.7158H20.7129H20.71H20.707H20.7041H20.7012H20.6983H20.6954H20.6925H20.6896H20.6867H20.6838H20.6809H20.678H20.6752H20.6723H20.6694H20.6665H20.6636H20.6607H20.6579H20.655H20.6521H20.6492H20.6464H20.6435H20.6406H20.6378H20.6349H20.632H20.6292H20.6263H20.6234H20.6206H20.6177H20.6149H20.612H20.6092H20.6063H20.6035H20.6007H20.5978H20.595H20.5921H20.5893H20.5865H20.5836H20.5808H20.578H20.5752H20.5723H20.5695H20.5667H20.5639H20.5611H20.5583H20.5554H20.5526H20.5498H20.547H20.5442H20.5414H20.5386H20.5358H20.533H20.5302H20.5274H20.5247H20.5219H20.5191H20.5163H20.5135H20.5107H20.508H20.5052H20.5024H20.4997H20.4969H20.4941H20.4914H20.4886H20.4858H20.4831H20.4803H20.4776H20.4748H20.4721H20.4693H20.4666H20.4638H20.4611H20.4584H20.4556H20.4529H20.4502H20.4474H20.4447H20.442H20.4393H20.4365H20.4338H20.4311H20.4284H20.4257H20.423H20.4203H20.4176H20.4149H20.4122H20.4095H20.4068H20.4041H20.4014H20.3987H20.396H20.3933H20.3906H20.388H20.3853H20.3826H20.3799H20.3773H20.3746H20.3719H20.3693H20.3666H20.364H20.3613H20.3586H20.356H20.3533H20.3507H20.3481H20.3454H20.3428H20.3401H20.3375H20.3349H20.3322H20.3296H20.327H20.3244H20.3218H20.3191H20.3165H20.3139H20.3113H20.3087H20.3061H20.3035H20.3009H20.2983H20.2957H20.2931H20.2905H20.2879H20.2854H20.2828H20.2802H20.2776H20.275H20.2725H20.2699H20.2673H20.2648H20.2622H20.2596H20.2571H20.2545H20.252H20.2494H20.2469H20.2444H20.2418H20.2393H20.2367H20.2342H20.2317H20.2292H20.2266H20.2241H20.2216H20.2191H20.2166H20.214H20.2115H20.209H20.2065H20.204H20.2015H20.199H20.1965H20.1941H20.1916H20.1891H20.1866H20.1841H20.1816C17.5965 33.1338 15.0709 33.7732 12.5441 35.1243L12.5441 35.1243L12.5428 35.125C10.6676 36.0545 8.8503 36.5562 7.0311 36.5562C5.12064 36.5562 4.00947 36.0616 3.21152 35.7064C3.07223 35.6444 2.94249 35.5866 2.81971 35.5365C2.40726 35.3681 2.08283 35.2897 1.73722 35.4104C1.38826 35.5322 1.00753 35.8603 0.49583 36.5362C0.2278 36.8971 0.0913122 37.2175 0.0581263 37.5015C0.0250728 37.7843 0.094024 38.0345 0.243786 38.2576C0.545757 38.7072 1.17796 39.0483 1.97158 39.3017C3.5552 39.8074 5.73577 39.95 7.0311 39.95C9.61627 39.95 12.1418 39.3106 14.6686 37.9595ZM14.6686 8.29815L14.6687 8.29814C16.5446 7.29679 18.3623 6.79492 20.1816 6.79492C20.6691 6.79492 21.0951 6.86696 21.4581 6.93847L21.5415 6.9549L21.4866 7.01982C21.366 7.1624 20.8989 7.71444 20.4622 8.26632C20.2437 8.54236 20.0333 8.8177 19.8777 9.04147C19.7999 9.15345 19.7364 9.25163 19.6925 9.33005C19.6706 9.3693 19.6541 9.4027 19.6432 9.42982C19.6318 9.45814 19.6284 9.4751 19.6284 9.48307C19.6284 9.73782 19.8156 9.90329 20.0581 10.0075C20.2994 10.1113 20.579 10.1461 20.7246 10.1461C20.9043 10.1461 21.14 10.0905 21.4202 9.98826C21.6996 9.88634 22.0194 9.73947 22.3661 9.56009C23.0596 9.20135 23.8573 8.7144 24.6486 8.20223C25.4397 7.69017 26.2234 7.15354 26.8888 6.69566C26.9546 6.65042 27.0192 6.60594 27.0825 6.56232C27.6591 6.16536 28.1321 5.83968 28.4188 5.66214C28.6129 5.5306 28.7127 5.29863 28.7127 5.06239C28.7127 4.82632 28.613 4.59453 28.4192 4.46294C28.0935 4.27035 27.5417 3.90797 26.8768 3.47139L26.8303 3.44086C26.1432 2.98963 25.3386 2.46183 24.5361 1.95858C23.7334 1.45524 22.9336 0.977032 22.2558 0.624802C21.9169 0.448669 21.6093 0.304504 21.3478 0.204483C21.0848 0.103947 20.8733 0.0499992 20.7246 0.0499992C20.579 0.0499992 20.2994 0.0848198 20.0581 0.188538C19.8156 0.292786 19.6284 0.458256 19.6284 0.713009C19.6284 0.719769 19.6321 0.737263 19.6459 0.768829C19.659 0.798656 19.6787 0.835934 19.7048 0.880039C19.7568 0.96814 19.8319 1.07984 19.9235 1.20749C20.1065 1.46257 20.3527 1.77811 20.6051 2.08974C20.8573 2.40127 21.1152 2.70834 21.3213 2.94633C21.4243 3.06534 21.5143 3.1669 21.5839 3.24303C21.655 3.32069 21.702 3.36843 21.7207 3.38319L21.834 3.47246H21.6897H21.6866H21.6834H21.6802H21.677H21.6738H21.6707H21.6675H21.6643H21.6611H21.6579H21.6547H21.6516H21.6484H21.6452H21.642H21.6388H21.6357H21.6325H21.6293H21.6261H21.6229H21.6198H21.6166H21.6134H21.6102H21.607H21.6039H21.6007H21.5975H21.5943H21.5912H21.588H21.5848H21.5816H21.5784H21.5753H21.5721H21.5689H21.5657H21.5626H21.5594H21.5562H21.553H21.5498H21.5467H21.5435H21.5403H21.5371H21.534H21.5308H21.5276H21.5244H21.5213H21.5181H21.5149H21.5118H21.5086H21.5054H21.5022H21.4991H21.4959H21.4927H21.4896H21.4864H21.4832H21.48H21.4769H21.4737H21.4705H21.4674H21.4642H21.461H21.4579H21.4547H21.4515H21.4484H21.4452H21.442H21.4389H21.4357H21.4325H21.4294H21.4262H21.4231H21.4199H21.4167H21.4136H21.4104H21.4073H21.4041H21.4009H21.3978H21.3946H21.3915H21.3883H21.3851H21.382H21.3788H21.3757H21.3725H21.3694H21.3662H21.3631H21.3599H21.3568H21.3536H21.3505H21.3473H21.3442H21.341H21.3379H21.3347H21.3316H21.3284H21.3253H21.3221H21.319H21.3158H21.3127H21.3096H21.3064H21.3033H21.3001H21.297H21.2939H21.2907H21.2876H21.2844H21.2813H21.2782H21.275H21.2719H21.2688H21.2656H21.2625H21.2594H21.2562H21.2531H21.25H21.2468H21.2437H21.2406H21.2375H21.2343H21.2312H21.2281H21.225H21.2218H21.2187H21.2156H21.2125H21.2094H21.2062H21.2031H21.2H21.1969H21.1938H21.1907H21.1876H21.1844H21.1813H21.1782H21.1751H21.172H21.1689H21.1658H21.1627H21.1596H21.1565H21.1534H21.1503H21.1472H21.1441H21.141H21.1379H21.1348H21.1317H21.1286H21.1255H21.1224H21.1193H21.1162H21.1131H21.11H21.1069H21.1038H21.1007H21.0977H21.0946H21.0915H21.0884H21.0853H21.0822H21.0792H21.0761H21.073H21.0699H21.0669H21.0638H21.0607H21.0576H21.0546H21.0515H21.0484H21.0454H21.0423H21.0392H21.0362H21.0331H21.03H21.027H21.0239H21.0208H21.0178H21.0147H21.0117H21.0086H21.0056H21.0025H20.9995H20.9964H20.9934H20.9903H20.9873H20.9842H20.9812H20.9781H20.9751H20.9721H20.969H20.966H20.9629H20.9599H20.9569H20.9538H20.9508H20.9478H20.9447H20.9417H20.9387H20.9357H20.9326H20.9296H20.9266H20.9236H20.9206H20.9175H20.9145H20.9115H20.9085H20.9055H20.9025H20.8995H20.8965H20.8935H20.8905H20.8874H20.8844H20.8814H20.8784H20.8754H20.8725H20.8695H20.8665H20.8635H20.8605H20.8575H20.8545H20.8515H20.8485H20.8455H20.8426H20.8396H20.8366H20.8336H20.8306H20.8277H20.8247H20.8217H20.8188H20.8158H20.8128H20.8099H20.8069H20.8039H20.801H20.798H20.795H20.7921H20.7891H20.7862H20.7832H20.7803H20.7773H20.7744H20.7714H20.7685H20.7656H20.7626H20.7597H20.7567H20.7538H20.7509H20.7479H20.745H20.7421H20.7391H20.7362H20.7333H20.7304H20.7274H20.7245H20.7216H20.7187H20.7158H20.7129H20.71H20.707H20.7041H20.7012H20.6983H20.6954H20.6925H20.6896H20.6867H20.6838H20.6809H20.678H20.6752H20.6723H20.6694H20.6665H20.6636H20.6607H20.6579H20.655H20.6521H20.6492H20.6464H20.6435H20.6406H20.6378H20.6349H20.632H20.6292H20.6263H20.6234H20.6206H20.6177H20.6149H20.612H20.6092H20.6063H20.6035H20.6007H20.5978H20.595H20.5921H20.5893H20.5865H20.5836H20.5808H20.578H20.5752H20.5723H20.5695H20.5667H20.5639H20.5611H20.5583H20.5554H20.5526H20.5498H20.547H20.5442H20.5414H20.5386H20.5358H20.533H20.5302H20.5274H20.5247H20.5219H20.5191H20.5163H20.5135H20.5107H20.508H20.5052H20.5024H20.4997H20.4969H20.4941H20.4914H20.4886H20.4858H20.4831H20.4803H20.4776H20.4748H20.4721H20.4693H20.4666H20.4638H20.4611H20.4584H20.4556H20.4529H20.4502H20.4474H20.4447H20.442H20.4393H20.4365H20.4338H20.4311H20.4284H20.4257H20.423H20.4203H20.4176H20.4149H20.4122H20.4095H20.4068H20.4041H20.4014H20.3987H20.396H20.3933H20.3906H20.388H20.3853H20.3826H20.3799H20.3773H20.3746H20.3719H20.3693H20.3666H20.364H20.3613H20.3586H20.356H20.3533H20.3507H20.3481H20.3454H20.3428H20.3401H20.3375H20.3349H20.3322H20.3296H20.327H20.3244H20.3218H20.3191H20.3165H20.3139H20.3113H20.3087H20.3061H20.3035H20.3009H20.2983H20.2957H20.2931H20.2905H20.2879H20.2854H20.2828H20.2802H20.2776H20.275H20.2725H20.2699H20.2673H20.2648H20.2622H20.2596H20.2571H20.2545H20.252H20.2494H20.2469H20.2444H20.2418H20.2393H20.2367H20.2342H20.2317H20.2292H20.2266H20.2241H20.2216H20.2191H20.2166H20.214H20.2115H20.209H20.2065H20.204H20.2015H20.199H20.1965H20.1941H20.1916H20.1891H20.1866H20.1841H20.1816C17.5965 3.47246 15.0709 4.11189 12.5441 5.46299L12.5441 5.46301C10.667 6.46497 8.84926 6.89492 7.0311 6.89492C5.13839 6.89492 4.0302 6.4221 3.23408 6.08244C3.08652 6.01949 2.94969 5.96111 2.82057 5.91116C2.40854 5.75178 2.08398 5.68183 1.73798 5.80896C1.38848 5.93739 1.00748 6.27031 0.495691 6.9464L0.495606 6.94651C0.227551 7.29855 0.0912394 7.61116 0.0581103 7.88807C0.0251318 8.16372 0.0938856 8.40791 0.243501 8.62589C0.545352 9.06567 1.17754 9.40025 1.97134 9.64926C3.55509 10.1461 5.73579 10.2887 7.0311 10.2887C9.61627 10.2887 12.1418 9.64925 14.6686 8.29815ZM27.1705 21.3953C27.7073 21.0309 28.1469 20.7325 28.4188 20.5641C28.6117 20.4333 28.7127 20.1846 28.7127 19.9287C28.7127 19.673 28.6118 19.4244 28.4192 19.2936C28.0935 19.101 27.5415 18.7385 26.8765 18.3018L26.8303 18.2715C26.1432 17.8203 25.3386 17.2925 24.5361 16.7892C23.7334 16.2859 22.9336 15.8077 22.2558 15.4555C21.9169 15.2793 21.6093 15.1352 21.3478 15.0351C21.0848 14.9346 20.8733 14.8807 20.7246 14.8807C20.5816 14.8807 20.3028 14.9323 20.0608 15.0536C19.8177 15.1755 19.6284 15.3586 19.6284 15.615C19.6284 15.6216 19.6321 15.6388 19.6458 15.6697C19.6588 15.699 19.6785 15.7355 19.7045 15.7787C19.7565 15.865 19.8316 15.9741 19.9232 16.099C20.1062 16.3485 20.3524 16.6574 20.6048 16.9647C21.0067 17.4539 21.4225 17.9369 21.6215 18.1681C21.6725 18.2274 21.7093 18.2701 21.7279 18.2921L21.8114 18.3908L21.6832 18.374C21.144 18.3032 20.6043 18.3031 20.1816 18.3031C17.5974 18.3031 15.0717 19.0134 12.5436 20.2939C10.6679 21.2951 8.85031 21.7969 7.0311 21.7969C5.12063 21.7969 4.00947 21.3022 3.21152 20.947C3.07223 20.885 2.94249 20.8273 2.81971 20.7771C2.40726 20.6087 2.08283 20.5304 1.73722 20.651C1.38825 20.7729 1.00751 21.1009 0.495792 21.7769C0.227787 22.1378 0.0913106 22.4582 0.0581263 22.7421C0.0250728 23.0249 0.094024 23.2752 0.243786 23.4982C0.545757 23.9479 1.17796 24.289 1.97158 24.5424C3.5552 25.048 5.73577 25.1906 7.0311 25.1906C9.61535 25.1906 12.1411 24.4804 14.6691 23.1999C16.5449 22.1987 18.3624 21.6969 20.1816 21.6969H20.1855C20.665 21.6969 21.0914 21.6969 21.4581 21.7691L21.5322 21.7837L21.4899 21.8462C21.4279 21.9377 21.2791 22.1226 21.0932 22.35C21.0421 22.4125 20.9882 22.4783 20.9323 22.5465C20.7835 22.7281 20.6207 22.9266 20.4619 23.124C20.2433 23.3957 20.033 23.6644 19.8774 23.8826C19.7995 23.9918 19.7361 24.0875 19.6923 24.1641C19.6704 24.2024 19.6539 24.235 19.643 24.2615C19.6317 24.2892 19.6284 24.3059 19.6284 24.3137C19.6284 24.5685 19.8156 24.7339 20.0581 24.8382C20.2994 24.9419 20.579 24.9767 20.7246 24.9767C20.9045 24.9767 21.1403 24.9222 21.4205 24.8219C21.6999 24.7219 22.0197 24.5778 22.3665 24.4017C23.06 24.0496 23.8577 23.5716 24.6489 23.0683C25.44 22.5652 26.2237 22.0375 26.8891 21.5863C26.9855 21.521 27.0794 21.4572 27.1705 21.3953Z" fill="#00BFFF" stroke="white" stroke-width="0.1"/>
</g>
</g>
</svg>
