<svg width="50" height="50" viewBox="0 0 50 50" fill="none" xmlns="http://www.w3.org/2000/svg">
<path fill-rule="evenodd" clip-rule="evenodd" d="M25 50C38.8071 50 50 38.8071 50 25C50 11.1929 38.8071 0 25 0C11.1929 0 0 11.1929 0 25C0 38.8071 11.1929 50 25 50Z" fill="#C4C4C4"/>
<path fill-rule="evenodd" clip-rule="evenodd" d="M16.875 18.4375C16.875 19.3004 16.1754 20 15.3125 20C14.4496 20 13.75 19.3004 13.75 18.4375C13.75 17.5746 14.4496 16.875 15.3125 16.875C16.1754 16.875 16.875 17.5746 16.875 18.4375ZM20.4688 17.5C19.8647 17.5 19.375 17.9897 19.375 18.5938C19.375 19.1978 19.8647 19.6875 20.4688 19.6875H35.1562C35.7603 19.6875 36.25 19.1978 36.25 18.5938C36.25 17.9897 35.7603 17.5 35.1562 17.5H20.4688ZM15.3125 26.875C16.1754 26.875 16.875 26.1754 16.875 25.3125C16.875 24.4496 16.1754 23.75 15.3125 23.75C14.4496 23.75 13.75 24.4496 13.75 25.3125C13.75 26.1754 14.4496 26.875 15.3125 26.875ZM16.875 31.5625C16.875 32.4254 16.1754 33.125 15.3125 33.125C14.4496 33.125 13.75 32.4254 13.75 31.5625C13.75 30.6996 14.4496 30 15.3125 30C16.1754 30 16.875 30.6996 16.875 31.5625ZM19.375 25.1562C19.375 24.5522 19.8647 24.0625 20.4688 24.0625H35.1562C35.7603 24.0625 36.25 24.5522 36.25 25.1562C36.25 25.7603 35.7603 26.25 35.1562 26.25H20.4688C19.8647 26.25 19.375 25.7603 19.375 25.1562ZM20.4688 30.625C19.8647 30.625 19.375 31.1147 19.375 31.7188C19.375 32.3228 19.8647 32.8125 20.4688 32.8125H35.1562C35.7603 32.8125 36.25 32.3228 36.25 31.7188C36.25 31.1147 35.7603 30.625 35.1562 30.625H20.4688Z" fill="#2F3235"/>
</svg>
