<svg width="50" height="50" viewBox="0 0 50 50" fill="none" xmlns="http://www.w3.org/2000/svg">
<g class="click fault inactive" reference="CONTROL">
<g id="flags">
<path id="Subtract" fill-rule="evenodd" clip-rule="evenodd" d="M50 25C50 38.8071 38.8071 50 25 50C11.1929 50 0 38.8071 0 25C0 11.1929 11.1929 0 25 0C38.8071 0 50 11.1929 50 25ZM46.6818 24.9991C46.6818 36.9747 36.9737 46.6828 24.9982 46.6828C13.0226 46.6828 3.3145 36.9747 3.3145 24.9991C3.3145 13.0235 13.0226 3.31543 24.9982 3.31543C36.9737 3.31543 46.6818 13.0235 46.6818 24.9991Z"/>
<circle id="Ellipse 5" cx="25" cy="25" r="22" fill="#5E4C4C" fill-opacity="0.6"/>
</g>
<g class="animation-hide">
<path id="OFF" d="M15.3848 21.7324C15.3848 19.9746 15.7012 18.7676 16.334 18.1113C16.832 17.5957 17.5557 17.3379 18.5049 17.3379C19.8877 17.3379 20.7725 17.9062 21.1592 19.043C21.3877 19.7168 21.502 20.6133 21.502 21.7324V28.5527C21.502 30.1641 21.2764 31.3389 20.8252 32.0771C20.374 32.8096 19.583 33.1758 18.4521 33.1758C17.3271 33.1758 16.5332 32.8066 16.0703 32.0684C15.6133 31.3301 15.3848 30.1582 15.3848 28.5527V21.7324ZM19.6826 21.627C19.6826 20.6367 19.6035 19.9365 19.4453 19.5264C19.2871 19.1104 18.9678 18.9023 18.4873 18.9023C18.0068 18.9023 17.6729 19.1133 17.4854 19.5352C17.2979 19.957 17.2041 20.6514 17.2041 21.6182V28.5703C17.2041 29.748 17.2861 30.5508 17.4502 30.9785C17.6143 31.4004 17.9453 31.6113 18.4434 31.6113C18.9414 31.6113 19.2725 31.3975 19.4365 30.9697C19.6006 30.5361 19.6826 29.7363 19.6826 28.5703V21.627ZM23.8486 17.5312H28.5068V19.0518H25.6592V23.9385H28.3311V25.4766H25.6592V33H23.8486V17.5312ZM30.4053 17.5312H35.0635V19.0518H32.2158V23.9385H34.8877V25.4766H32.2158V33H30.4053V17.5312Z"/>
</g>
<g class="animation-display">
<path id="ON" d="M17.6898 21.7324C17.6898 19.9746 18.0062 18.7676 18.639 18.1113C19.1371 17.5957 19.8607 17.3379 20.8099 17.3379C22.1927 17.3379 23.0775 17.9062 23.4642 19.043C23.6927 19.7168 23.807 20.6133 23.807 21.7324V28.5527C23.807 30.1641 23.5814 31.3389 23.1302 32.0771C22.679 32.8096 21.888 33.1758 20.7572 33.1758C19.6322 33.1758 18.8382 32.8066 18.3753 32.0684C17.9183 31.3301 17.6898 30.1582 17.6898 28.5527V21.7324ZM21.9876 21.627C21.9876 20.6367 21.9085 19.9365 21.7503 19.5264C21.5921 19.1104 21.2728 18.9023 20.7923 18.9023C20.3119 18.9023 19.9779 19.1133 19.7904 19.5352C19.6029 19.957 19.5091 20.6514 19.5091 21.6182V28.5703C19.5091 29.748 19.5912 30.5508 19.7552 30.9785C19.9193 31.4004 20.2503 31.6113 20.7484 31.6113C21.2464 31.6113 21.5775 31.3975 21.7415 30.9697C21.9056 30.5361 21.9876 29.7363 21.9876 28.5703V21.627ZM30.9349 17.5312H32.5433V33H31.2074L27.7357 22.3828L27.8412 26.2852V33H26.1624V17.5312H27.5335L31.1195 28.0605L30.9349 23.5869V17.5312Z"/>
</g>
</g>
</svg>
