<svg width="56" height="40" viewBox="0 0 56 40" fill="none" xmlns="http://www.w3.org/2000/svg">
<g class="click fault inactive" reference="BOILER-ON-OF">
	<!--flags-->
	<g>
		<rect width="56" height="40" rx="5"/>
	</g>
	<g>
		<rect x="4" y="4" width="48" height="32" rx="5" fill="url(#paint-control-do-swipe0_linear)"/>
		<path fill-rule="evenodd" clip-rule="evenodd" d="M48 20C48 12.8203 42.1797 7 35 7H20C12.8203 7 7 12.8203 7 20V20C7 27.1797 12.8203 33 20 33H35C42.1797 33 48 27.1797 48 20V20Z" fill="url(#paint-control-do-swipe1_linear)"/>
	</g>
	<!--off-->
	<g class="animation-hide">
		<path fill-rule="evenodd" clip-rule="evenodd" d="M46.001 20C46.001 13.9249 41.0761 9 35.001 9H20.001C13.9258 9 9.00098 13.9249 9.00098 20V20C9.00098 26.0751 13.9258 31 20.001 31H35.001C41.0761 31 46.001 26.0751 46.001 20V20Z" fill="white"/>
	<g filter="url(#filter0_d)">
		<path fill-rule="evenodd" clip-rule="evenodd" d="M21 30C15.4772 30 11 25.5228 11 20C11 14.4772 15.4772 10 21 10C26.5228 10 31 14.4772 31 20C31 25.5228 26.5228 30 21 30Z" fill="#E5E5E5"/>
	</g>
		<path fill-rule="evenodd" clip-rule="evenodd" d="M21 29C16.0294 29 12 24.9706 12 20C12 15.0294 16.0294 11 21 11C25.9706 11 30 15.0294 30 20C30 24.9706 25.9706 29 21 29Z" fill="white"/>
		<path d="M33.4456 18.376C33.4456 17.3994 33.6214 16.7288 33.9729 16.3643C34.2496 16.0778 34.6516 15.9346 35.179 15.9346C35.9472 15.9346 36.4387 16.2503 36.6536 16.8818C36.7805 17.2562 36.844 17.7542 36.844 18.376V22.165C36.844 23.0602 36.7187 23.7129 36.468 24.123C36.2174 24.5299 35.7779 24.7334 35.1497 24.7334C34.5247 24.7334 34.0836 24.5283 33.8264 24.1182C33.5725 23.708 33.4456 23.057 33.4456 22.165V18.376ZM35.8333 18.3174C35.8333 17.7673 35.7893 17.3783 35.7014 17.1504C35.6135 16.9193 35.4361 16.8037 35.1692 16.8037C34.9023 16.8037 34.7167 16.9209 34.6126 17.1553C34.5084 17.3896 34.4563 17.7754 34.4563 18.3125V22.1748C34.4563 22.8291 34.5019 23.2751 34.593 23.5127C34.6842 23.7471 34.8681 23.8643 35.1448 23.8643C35.4215 23.8643 35.6054 23.7454 35.6966 23.5078C35.7877 23.2669 35.8333 22.8226 35.8333 22.1748V18.3174ZM38.1477 16.042H40.7356V16.8867H39.1536V19.6016H40.638V20.4561H39.1536V24.6357H38.1477V16.042ZM41.7903 16.042H44.3782V16.8867H42.7962V19.6016H44.2805V20.4561H42.7962V24.6357H41.7903V16.042Z" fill="#5B5B5F"/>
	</g>
	<!--on-->
	<g class="animation-display">
		<path fill-rule="evenodd" clip-rule="evenodd" d="M46 20C46 13.9249 41.0751 9 35 9H20C13.9249 9 9 13.9249 9 20V20C9 26.0751 13.9249 31 20 31H35C41.0751 31 46 26.0751 46 20V20Z" fill="#007AFF"/>
	<g filter="url(#filter1_d)">
		<path fill-rule="evenodd" clip-rule="evenodd" d="M35 30C29.4772 30 25 25.5228 25 20C25 14.4772 29.4772 10 35 10C40.5228 10 45 14.4772 45 20C45 25.5228 40.5228 30 35 30Z" fill="#E5E5E5"/>
	</g>
		<path fill-rule="evenodd" clip-rule="evenodd" d="M35 29C30.0294 29 26 24.9706 26 20C26 15.0294 30.0294 11 35 11C39.9706 11 44 15.0294 44 20C44 24.9706 39.9706 29 35 29Z" fill="white"/>
		<path d="M14.0061 18.376C14.0061 17.3994 14.1819 16.7288 14.5335 16.3643C14.8102 16.0778 15.2122 15.9346 15.7395 15.9346C16.5078 15.9346 16.9993 16.2503 17.2141 16.8818C17.3411 17.2562 17.4046 17.7542 17.4046 18.376V22.165C17.4046 23.0602 17.2792 23.7129 17.0286 24.123C16.7779 24.5299 16.3385 24.7334 15.7102 24.7334C15.0852 24.7334 14.6441 24.5283 14.387 24.1182C14.1331 23.708 14.0061 23.057 14.0061 22.165V18.376ZM16.3938 18.3174C16.3938 17.7673 16.3499 17.3783 16.262 17.1504C16.1741 16.9193 15.9967 16.8037 15.7298 16.8037C15.4628 16.8037 15.2773 16.9209 15.1731 17.1553C15.069 17.3896 15.0169 17.7754 15.0169 18.3125V22.1748C15.0169 22.8291 15.0624 23.2751 15.1536 23.5127C15.2447 23.7471 15.4287 23.8643 15.7053 23.8643C15.982 23.8643 16.166 23.7454 16.2571 23.5078C16.3482 23.2669 16.3938 22.8226 16.3938 22.1748V18.3174ZM21.3645 16.042H22.2581V24.6357H21.5159L19.5872 18.7373L19.6458 20.9053V24.6357H18.7132V16.042H19.4749L21.4671 21.8916L21.3645 19.4062V16.042Z" fill="white"/>
	</g>
</g>
<defs>
<filter id="filter0_d" x="7" y="10" width="28" height="28" filterUnits="userSpaceOnUse" color-interpolation-filters="sRGB">
<feFlood flood-opacity="0" result="BackgroundImageFix"/>
<feColorMatrix in="SourceAlpha" type="matrix" values="0 0 0 0 0 0 0 0 0 0 0 0 0 0 0 0 0 0 127 0"/>
<feOffset dy="4"/>
<feGaussianBlur stdDeviation="2"/>
<feColorMatrix type="matrix" values="0 0 0 0 0 0 0 0 0 0 0 0 0 0 0 0 0 0 0.25 0"/>
<feBlend mode="normal" in2="BackgroundImageFix" result="effect1_dropShadow"/>
<feBlend mode="normal" in="SourceGraphic" in2="effect1_dropShadow" result="shape"/>
</filter>
<filter id="filter1_d" x="23" y="10" width="24" height="24" filterUnits="userSpaceOnUse" color-interpolation-filters="sRGB">
<feFlood flood-opacity="0" result="BackgroundImageFix"/>
<feColorMatrix in="SourceAlpha" type="matrix" values="0 0 0 0 0 0 0 0 0 0 0 0 0 0 0 0 0 0 127 0"/>
<feOffset dy="2"/>
<feGaussianBlur stdDeviation="1"/>
<feColorMatrix type="matrix" values="0 0 0 0 0 0 0 0 0 0 0 0 0 0 0 0 0 0 0.5 0"/>
<feBlend mode="normal" in2="BackgroundImageFix" result="effect1_dropShadow"/>
<feBlend mode="normal" in="SourceGraphic" in2="effect1_dropShadow" result="shape"/>
</filter>
<linearGradient id="paint-control-do-swipe0_linear" x1="1.75804" y1="20.0317" x2="59.0636" y2="20.0317" gradientUnits="userSpaceOnUse">
<stop offset="0.1537" stop-color="white"/>
<stop offset="0.3915" stop-color="#F6F6F8"/>
<stop offset="0.77" stop-color="#DFDFE6"/>
<stop offset="1" stop-color="#CECED9"/>
</linearGradient>
<linearGradient id="paint-control-do-swipe1_linear" x1="49.915" y1="20.0258" x2="0.966484" y2="20.0258" gradientUnits="userSpaceOnUse">
<stop offset="0.1537" stop-color="white"/>
<stop offset="0.3915" stop-color="#F6F6F8"/>
<stop offset="0.77" stop-color="#DFDFE6"/>
<stop offset="1" stop-color="#CECED9"/>
</linearGradient>
</defs>
</svg>
