<svg width="40" height="40" viewBox="0 0 40 40" fill="none" xmlns="http://www.w3.org/2000/svg">
<g class="click fault inactive" reference="CONTROL-MIN">
<g id="flags">
<path id="Subtract" fill-rule="evenodd" clip-rule="evenodd" d="M40 20C40 31.0457 31.0457 40 20 40C8.9543 40 0 31.0457 0 20C0 8.95432 8.9543 0 20 0C31.0457 0 40 8.95432 40 20ZM37.3406 19.9946C37.3406 29.5751 29.5741 37.3416 19.9937 37.3416C10.4132 37.3416 2.64672 29.5751 2.64672 19.9946C2.64672 10.4142 10.4132 2.64768 19.9937 2.64768C29.5741 2.64768 37.3406 10.4142 37.3406 19.9946Z"/>
</g>
<g class="animation-display">
<path id="ON_2" d="M12.4854 16.7324C12.4854 14.9746 12.8018 13.7676 13.4346 13.1113C13.9326 12.5957 14.6562 12.3379 15.6055 12.3379C16.9883 12.3379 17.873 12.9062 18.2598 14.043C18.4883 14.7168 18.6025 15.6133 18.6025 16.7324V23.5527C18.6025 25.1641 18.377 26.3389 17.9258 27.0771C17.4746 27.8096 16.6836 28.1758 15.5527 28.1758C14.4277 28.1758 13.6338 27.8066 13.1709 27.0684C12.7139 26.3301 12.4854 25.1582 12.4854 23.5527V16.7324ZM16.7832 16.627C16.7832 15.6367 16.7041 14.9365 16.5459 14.5264C16.3877 14.1104 16.0684 13.9023 15.5879 13.9023C15.1074 13.9023 14.7734 14.1133 14.5859 14.5352C14.3984 14.957 14.3047 15.6514 14.3047 16.6182V23.5703C14.3047 24.748 14.3867 25.5508 14.5508 25.9785C14.7148 26.4004 15.0459 26.6113 15.5439 26.6113C16.042 26.6113 16.373 26.3975 16.5371 25.9697C16.7012 25.5361 16.7832 24.7363 16.7832 23.5703V16.627ZM25.7305 12.5312H27.3389V28H26.0029L22.5312 17.3828L22.6367 21.2852V28H20.958V12.5312H22.3291L25.915 23.0605L25.7305 18.5869V12.5312Z"/>
</g>
<g class="animation-hide">
<path id="OFF_2" d="M10.3848 16.7324C10.3848 14.9746 10.7012 13.7676 11.334 13.1113C11.832 12.5957 12.5557 12.3379 13.5049 12.3379C14.8877 12.3379 15.7725 12.9062 16.1592 14.043C16.3877 14.7168 16.502 15.6133 16.502 16.7324V23.5527C16.502 25.1641 16.2764 26.3389 15.8252 27.0771C15.374 27.8096 14.583 28.1758 13.4521 28.1758C12.3271 28.1758 11.5332 27.8066 11.0703 27.0684C10.6133 26.3301 10.3848 25.1582 10.3848 23.5527V16.7324ZM14.6826 16.627C14.6826 15.6367 14.6035 14.9365 14.4453 14.5264C14.2871 14.1104 13.9678 13.9023 13.4873 13.9023C13.0068 13.9023 12.6729 14.1133 12.4854 14.5352C12.2979 14.957 12.2041 15.6514 12.2041 16.6182V23.5703C12.2041 24.748 12.2861 25.5508 12.4502 25.9785C12.6143 26.4004 12.9453 26.6113 13.4434 26.6113C13.9414 26.6113 14.2725 26.3975 14.4365 25.9697C14.6006 25.5361 14.6826 24.7363 14.6826 23.5703V16.627ZM18.8486 12.5312H23.5068V14.0518H20.6592V18.9385H23.3311V20.4766H20.6592V28H18.8486V12.5312ZM25.4053 12.5312H30.0635V14.0518H27.2158V18.9385H29.8877V20.4766H27.2158V28H25.4053V12.5312Z"/>
</g>
</g>
</svg>
