<svg width="40" height="40" viewBox="0 0 40 40" fill="none" xmlns="http://www.w3.org/2000/svg">
	<style>
        #MAX
        {
        	font-family: "Antonio-Regular";
			font-style: normal;
			font-weight: normal;
			font-size: 14px;
			text-align: center;
        }
   	</style>
   	<g id="MAX" class="click fault" format="%.1f" reference="MAX-T">
<g id="flags">
<path id="Subtract" fill-rule="evenodd" clip-rule="evenodd" d="M40 20C40 31.0457 31.0457 40 20 40C8.9543 40 0 31.0457 0 20C0 8.95432 8.9543 0 20 0C31.0457 0 40 8.95432 40 20ZM37.3406 19.9946C37.3406 29.5751 29.5741 37.3416 19.9937 37.3416C10.4132 37.3416 2.64672 29.5751 2.64672 19.9946C2.64672 10.4142 10.4132 2.64768 19.9937 2.64768C29.5741 2.64768 37.3406 10.4142 37.3406 19.9946Z"/>
<path id="max t" d="M11.4209 7.4375C11.4893 7.1901 11.6243 6.98665 11.8262 6.82715C12.028 6.66439 12.2738 6.58301 12.5635 6.58301C13.0778 6.58301 13.4229 6.8304 13.5986 7.3252C13.7223 7.09733 13.89 6.91667 14.1016 6.7832C14.3164 6.64974 14.5622 6.58301 14.8389 6.58301C15.2262 6.58301 15.5208 6.72135 15.7227 6.99805C15.9245 7.27474 16.0254 7.68164 16.0254 8.21875V14H15.0244V8.18945C15.0244 7.69466 14.8291 7.44727 14.4385 7.44727C13.9958 7.44727 13.7581 7.6735 13.7256 8.12598V14H12.7197V8.18457C12.7197 7.69303 12.5277 7.44727 12.1436 7.44727C11.9092 7.44727 11.7301 7.52376 11.6064 7.67676C11.4827 7.8265 11.4209 8.0332 11.4209 8.29688V14H10.4199V6.67578H11.4209V7.4375ZM19.5557 9.96191C19.1455 10.1475 18.8721 10.2907 18.7354 10.3916C18.5986 10.4925 18.4945 10.6113 18.4229 10.748C18.3545 10.8815 18.3203 11.1029 18.3203 11.4121V12.0908C18.3203 12.5173 18.3577 12.8184 18.4326 12.9941C18.5075 13.1667 18.6361 13.2529 18.8184 13.2529C19.0007 13.2529 19.1569 13.2008 19.2871 13.0967C19.4173 12.9893 19.5068 12.8737 19.5557 12.75V9.96191ZM17.4023 8.79492C17.4023 7.90951 17.5407 7.32031 17.8174 7.02734C18.0941 6.73438 18.488 6.58789 18.999 6.58789C19.5101 6.58789 19.8796 6.71159 20.1074 6.95898C20.3385 7.20638 20.4801 7.60352 20.5322 8.15039C20.555 8.38477 20.5664 8.67285 20.5664 9.01465V14H19.5605V13.3652C19.5085 13.541 19.3945 13.7021 19.2188 13.8486C19.043 13.9919 18.8249 14.0635 18.5645 14.0635C17.7344 14.0635 17.3161 13.4157 17.3096 12.1201V11.4072C17.3096 10.9873 17.4235 10.6292 17.6514 10.333C17.8825 10.0335 18.5173 9.69336 19.5557 9.3125V8.74609C19.5557 8.11784 19.5101 7.74023 19.4189 7.61328C19.3278 7.48633 19.1715 7.42285 18.9502 7.42285C18.7321 7.42285 18.5856 7.51888 18.5107 7.71094C18.4359 7.90299 18.3984 8.24967 18.3984 8.75098V9.00488H17.4023V8.79492ZM21.4258 6.67578H22.3096L23.0811 9.01465L23.7646 6.67578H24.6729L23.4912 10.2598L24.7217 14H23.7891L22.9883 11.5098L22.251 14H21.3428L22.5732 10.2256L21.4258 6.67578ZM28.2031 5.40625H29.2041V6.73438H29.9951V7.47656H29.2041V12.8232C29.2041 13.012 29.248 13.1309 29.3359 13.1797C29.4238 13.2253 29.6468 13.248 30.0049 13.248V14.0439H29.3164C28.8542 14.0439 28.5531 13.9609 28.4131 13.7949C28.2731 13.6257 28.2031 13.3311 28.2031 12.9111V7.47656H27.5342V6.73438H28.2031V5.40625Z"/>
</g>
<g>
<text x="50%" y="30" text-anchor="middle">...</text>/>
</g>
</g>
</svg>
