<svg width="40" height="40" viewBox="0 0 40 40" fill="none" xmlns="http://www.w3.org/2000/svg">
	<style>
        #MIN
        {
        	font-family: "Antonio-Regular";
			font-style: normal;
			font-weight: normal;
			font-size: 14px;
			text-align: center;
        }
   	</style>
<g id="MIN" class="click fault" format="%.1f" reference="MIN-T">
<g id="flags">
<path id="Subtract" fill-rule="evenodd" clip-rule="evenodd" d="M40 20C40 31.0457 31.0457 40 20 40C8.9543 40 0 31.0457 0 20C0 8.95432 8.9543 0 20 0C31.0457 0 40 8.95432 40 20ZM37.3406 19.9946C37.3406 29.5751 29.5741 37.3416 19.9937 37.3416C10.4132 37.3416 2.64672 29.5751 2.64672 19.9946C2.64672 10.4142 10.4132 2.64768 19.9937 2.64768C29.5741 2.64768 37.3406 10.4142 37.3406 19.9946Z"/>
<path id="min t" d="M11.8994 7.4375C11.9678 7.1901 12.1029 6.98665 12.3047 6.82715C12.5065 6.66439 12.7523 6.58301 13.042 6.58301C13.5563 6.58301 13.9014 6.8304 14.0771 7.3252C14.2008 7.09733 14.3685 6.91667 14.5801 6.7832C14.7949 6.64974 15.0407 6.58301 15.3174 6.58301C15.7048 6.58301 15.9993 6.72135 16.2012 6.99805C16.403 7.27474 16.5039 7.68164 16.5039 8.21875V14H15.5029V8.18945C15.5029 7.69466 15.3076 7.44727 14.917 7.44727C14.4743 7.44727 14.2367 7.6735 14.2041 8.12598V14H13.1982V8.18457C13.1982 7.69303 13.0062 7.44727 12.6221 7.44727C12.3877 7.44727 12.2087 7.52376 12.085 7.67676C11.9613 7.8265 11.8994 8.0332 11.8994 8.29688V14H10.8984V6.67578H11.8994V7.4375ZM17.9053 6.67578H18.9062V14H17.9053V6.67578ZM17.9053 5.08398H18.9111V6.00195H17.9053V5.08398ZM21.3525 7.45215C21.4176 7.21452 21.5592 7.01107 21.7773 6.8418C21.9987 6.66927 22.2721 6.58301 22.5977 6.58301C22.9264 6.58301 23.1917 6.71647 23.3936 6.9834C23.5986 7.24707 23.7012 7.63932 23.7012 8.16016V14H22.7002V8.16504C22.7002 7.91764 22.6432 7.7321 22.5293 7.6084C22.4154 7.4847 22.2575 7.42285 22.0557 7.42285C21.8538 7.42285 21.6862 7.49284 21.5527 7.63281C21.4193 7.77279 21.3525 7.98275 21.3525 8.2627V14H20.3516V6.67578H21.3525V7.45215ZM27.7246 5.40625H28.7256V6.73438H29.5166V7.47656H28.7256V12.8232C28.7256 13.012 28.7695 13.1309 28.8574 13.1797C28.9453 13.2253 29.1683 13.248 29.5264 13.248V14.0439H28.8379C28.3757 14.0439 28.0745 13.9609 27.9346 13.7949C27.7946 13.6257 27.7246 13.3311 27.7246 12.9111V7.47656H27.0557V6.73438H27.7246V5.40625Z"/>
</g>
<g>
<text x="50%" y="30" text-anchor="middle">...</text>
</g>
</g>
</svg>
