<svg width="54" height="84" viewBox="0 0 54 84" fill="none" xmlns="http://www.w3.org/2000/svg">
<g class="click fault multi-state-0" reference="MODE">

<g id="flags">
<path id="Subtract" fill-rule="evenodd" clip-rule="evenodd" d="M52 25C52 38.8071 40.8071 50 27 50C13.1929 50 2 38.8071 2 25C2 11.1929 13.1929 0 27 0C40.8071 0 52 11.1929 52 25ZM48.682 24.9991C48.682 36.9747 38.9739 46.6828 26.9983 46.6828C15.0227 46.6828 5.31462 36.9747 5.31462 24.9991C5.31462 13.0235 15.0227 3.31543 26.9983 3.31543C38.9739 3.31543 48.682 13.0235 48.682 24.9991Z"/>
<circle id="Ellipse 5" cx="25" cy="25" r="22" fill="#5E4C4C" fill-opacity="0.6"/>
</g>



<!--room-->
	<g class="array-3">
<path id="Vector_3" d="M15.4336 20.2666C15.4336 19.4873 15.3955 18.916 15.3193 18.5527C15.249 18.1895 15.126 17.9434 14.9502 17.8145C14.7803 17.6855 14.5078 17.6211 14.1328 17.6211H12.665V23.4922H14.0361C14.4814 23.4922 14.7832 23.416 14.9414 23.2637C15.1055 23.1113 15.2285 22.8594 15.3105 22.5078C15.3926 22.1504 15.4336 21.4414 15.4336 20.3809V20.2666ZM11.3643 16.5312H13.9922C15.0527 16.5312 15.7617 16.7539 16.1191 17.1992C16.3887 17.5332 16.5586 17.9434 16.6289 18.4297C16.7051 18.9102 16.7432 19.6104 16.7432 20.5303C16.7432 21.4502 16.6348 22.2031 16.418 22.7891C16.207 23.3691 15.8408 23.7295 15.3193 23.8701C15.5244 23.9053 15.6973 23.9697 15.8379 24.0635C15.9785 24.1514 16.1045 24.3037 16.2158 24.5205C16.5615 25.1943 16.7344 26.8525 16.7344 29.4951C16.7344 30.5908 16.7432 31.2236 16.7607 31.3936C16.7842 31.5576 16.8398 31.7598 16.9277 32H15.627C15.5332 31.8242 15.4775 31.4932 15.46 31.0068C15.4424 30.5146 15.4336 29.7324 15.4336 28.6602V26.9551C15.4336 25.877 15.3662 25.1914 15.2314 24.8984C15.1025 24.6055 14.7129 24.459 14.0625 24.459L12.6738 24.3711V32H11.3643V16.5312ZM23.2119 20.75C23.2119 19.5195 23.1211 18.6553 22.9395 18.1572C22.7637 17.6592 22.4004 17.4102 21.8496 17.4102C21.2988 17.4102 20.918 17.668 20.707 18.1836C20.4961 18.6934 20.3906 19.5459 20.3906 20.7412V27.4385C20.3906 28.8623 20.4639 29.7734 20.6104 30.1719C20.7568 30.5703 20.918 30.8252 21.0938 30.9365C21.2754 31.0479 21.5127 31.1035 21.8057 31.1035C22.0986 31.1035 22.333 31.0479 22.5088 30.9365C22.6846 30.8252 22.8457 30.5732 22.9922 30.1807C23.1387 29.7822 23.2119 28.8682 23.2119 27.4385V20.75ZM19.0811 20.8555C19.0811 18.9863 19.3154 17.7676 19.7842 17.1992C20.2529 16.625 20.9736 16.3379 21.9463 16.3379C22.9189 16.3379 23.5898 16.6543 23.959 17.2871C24.2051 17.7148 24.3604 18.2129 24.4248 18.7812C24.4893 19.3496 24.5215 20.041 24.5215 20.8555V27.4385C24.5215 28.7803 24.4395 29.7266 24.2754 30.2773C24.1172 30.8223 23.9385 31.2119 23.7393 31.4463C23.3174 31.9326 22.6758 32.1758 21.8145 32.1758C20.5312 32.1758 19.7285 31.6221 19.4062 30.5146C19.1895 29.7881 19.0811 28.7627 19.0811 27.4385V20.8555ZM31.0166 20.75C31.0166 19.5195 30.9258 18.6553 30.7441 18.1572C30.5684 17.6592 30.2051 17.4102 29.6543 17.4102C29.1035 17.4102 28.7227 17.668 28.5117 18.1836C28.3008 18.6934 28.1953 19.5459 28.1953 20.7412V27.4385C28.1953 28.8623 28.2686 29.7734 28.415 30.1719C28.5615 30.5703 28.7227 30.8252 28.8984 30.9365C29.0801 31.0479 29.3174 31.1035 29.6104 31.1035C29.9033 31.1035 30.1377 31.0479 30.3135 30.9365C30.4893 30.8252 30.6504 30.5732 30.7969 30.1807C30.9434 29.7822 31.0166 28.8682 31.0166 27.4385V20.75ZM26.8857 20.8555C26.8857 18.9863 27.1201 17.7676 27.5889 17.1992C28.0576 16.625 28.7783 16.3379 29.751 16.3379C30.7236 16.3379 31.3945 16.6543 31.7637 17.2871C32.0098 17.7148 32.165 18.2129 32.2295 18.7812C32.2939 19.3496 32.3262 20.041 32.3262 20.8555V27.4385C32.3262 28.7803 32.2441 29.7266 32.0801 30.2773C31.9219 30.8223 31.7432 31.2119 31.5439 31.4463C31.1221 31.9326 30.4805 32.1758 29.6191 32.1758C28.3359 32.1758 27.5332 31.6221 27.2109 30.5146C26.9941 29.7881 26.8857 28.7627 26.8857 27.4385V20.8555ZM41.168 16.5312H42.6357V32H41.4492V25.373L41.6514 19.1416L39.4453 31.666H38.1973L35.9121 19.1416L36.1143 25.373V32H34.9189V16.5312H36.3867L38.8213 29.5215L41.168 16.5312Z" fill="#4CD964"/>
</g>
<!--return-->
	<g class="array-2">
<path id="Vector_2" d="M10.5908 20.2666C10.5908 19.4873 10.5527 18.916 10.4766 18.5527C10.4062 18.1895 10.2832 17.9434 10.1074 17.8145C9.9375 17.6855 9.66504 17.6211 9.29004 17.6211H7.82227V23.4922H9.19336C9.63867 23.4922 9.94043 23.416 10.0986 23.2637C10.2627 23.1113 10.3857 22.8594 10.4678 22.5078C10.5498 22.1504 10.5908 21.4414 10.5908 20.3809V20.2666ZM6.52148 16.5312H9.14941C10.21 16.5312 10.9189 16.7539 11.2764 17.1992C11.5459 17.5332 11.7158 17.9434 11.7861 18.4297C11.8623 18.9102 11.9004 19.6104 11.9004 20.5303C11.9004 21.4502 11.792 22.2031 11.5752 22.7891C11.3643 23.3691 10.998 23.7295 10.4766 23.8701C10.6816 23.9053 10.8545 23.9697 10.9951 24.0635C11.1357 24.1514 11.2617 24.3037 11.373 24.5205C11.7188 25.1943 11.8916 26.8525 11.8916 29.4951C11.8916 30.5908 11.9004 31.2236 11.918 31.3936C11.9414 31.5576 11.9971 31.7598 12.085 32H10.7842C10.6904 31.8242 10.6348 31.4932 10.6172 31.0068C10.5996 30.5146 10.5908 29.7324 10.5908 28.6602V26.9551C10.5908 25.877 10.5234 25.1914 10.3887 24.8984C10.2598 24.6055 9.87012 24.459 9.21973 24.459L7.83105 24.3711V32H6.52148V16.5312ZM14.4668 16.5312H18.5537V17.5508H15.7764V23.5977H18.3867V24.6611H15.7764V30.9629H18.5273V32H14.4668V16.5312ZM19.6523 16.5312H24.0205V17.5508H22.5703V32H21.2695V17.5508H19.6523V16.5312ZM29.7949 16.5312H31.1045V28.0273C31.1045 29.4805 30.9199 30.5381 30.5508 31.2002C30.1816 31.8564 29.4639 32.1846 28.3975 32.1846C27.3311 32.1846 26.6074 31.8535 26.2266 31.1914C25.8516 30.5293 25.6641 29.4746 25.6641 28.0273V16.5312H26.9736V27.9834C26.9736 29.0557 27.0205 29.7705 27.1143 30.1279C27.29 30.7783 27.7002 31.1035 28.3447 31.1035C28.8721 31.1035 29.2441 30.9541 29.4609 30.6553C29.6836 30.3506 29.7949 29.4629 29.7949 27.9922V16.5312ZM37.8721 20.2666C37.8721 19.4873 37.834 18.916 37.7578 18.5527C37.6875 18.1895 37.5645 17.9434 37.3887 17.8145C37.2188 17.6855 36.9463 17.6211 36.5713 17.6211H35.1035V23.4922H36.4746C36.9199 23.4922 37.2217 23.416 37.3799 23.2637C37.5439 23.1113 37.667 22.8594 37.749 22.5078C37.8311 22.1504 37.8721 21.4414 37.8721 20.3809V20.2666ZM33.8027 16.5312H36.4307C37.4912 16.5312 38.2002 16.7539 38.5576 17.1992C38.8271 17.5332 38.9971 17.9434 39.0674 18.4297C39.1436 18.9102 39.1816 19.6104 39.1816 20.5303C39.1816 21.4502 39.0732 22.2031 38.8564 22.7891C38.6455 23.3691 38.2793 23.7295 37.7578 23.8701C37.9629 23.9053 38.1357 23.9697 38.2764 24.0635C38.417 24.1514 38.543 24.3037 38.6543 24.5205C39 25.1943 39.1729 26.8525 39.1729 29.4951C39.1729 30.5908 39.1816 31.2236 39.1992 31.3936C39.2227 31.5576 39.2783 31.7598 39.3662 32H38.0654C37.9717 31.8242 37.916 31.4932 37.8984 31.0068C37.8809 30.5146 37.8721 29.7324 37.8721 28.6602V26.9551C37.8721 25.877 37.8047 25.1914 37.6699 24.8984C37.541 24.6055 37.1514 24.459 36.501 24.459L35.1123 24.3711V32H33.8027V16.5312ZM46.3271 16.5312H47.4697V32H46.4502L42.8906 20.3457L42.9785 24.5293V32H41.748V16.5312H42.6621L46.459 28.4932L46.3271 23.167V16.5312Z" fill="#4CD964"/>
</g>
<!--supply-->
	<g class="array-1">
<path id="Vector_1" d="M6.80273 18.9043C6.89062 18.0664 7.13672 17.4307 7.54102 16.9971C7.95117 16.5576 8.58984 16.3379 9.45703 16.3379C10.3242 16.3379 10.9277 16.5547 11.2676 16.9883C11.4551 17.2227 11.6016 17.457 11.707 17.6914C11.9297 18.166 12.0439 19.2969 12.0498 21.084V21.9541H10.7051V20.9873C10.7051 19.6279 10.6611 18.8047 10.5732 18.5176C10.4854 18.2305 10.3945 18.0137 10.3008 17.8672C10.1309 17.5977 9.82617 17.4629 9.38672 17.4629C8.49609 17.4629 8.05078 18.292 8.05078 19.9502C8.05078 20.5303 8.10645 20.9258 8.21777 21.1367C8.3291 21.3418 8.41113 21.5029 8.46387 21.6201C8.52246 21.7373 8.89746 22.1416 9.58887 22.833L10.4326 23.6855C11.6807 24.9688 12.3047 26.4424 12.3047 28.1064C12.3047 29.7646 12.0645 30.8574 11.584 31.3848C11.1094 31.9121 10.4033 32.1758 9.46582 32.1758C8.02441 32.1758 7.19531 31.3057 6.97852 29.5654C6.90234 28.9795 6.86426 28.2588 6.86426 27.4033V25.7949H8.2002V27.377C8.2002 28.7715 8.29102 29.7324 8.47266 30.2598C8.66016 30.7871 9.03809 31.0508 9.60645 31.0508C10.1748 31.0508 10.5352 30.8809 10.6875 30.541C10.8457 30.1953 10.9307 29.7793 10.9424 29.293C10.96 28.8066 10.9688 28.2852 10.9688 27.7285C10.9688 26.5801 10.5146 25.5635 9.60645 24.6787L8.70996 23.8262C7.9248 23.0586 7.40039 22.4141 7.13672 21.8926C6.87305 21.3652 6.74121 20.832 6.74121 20.293C6.74121 19.748 6.76172 19.2852 6.80273 18.9043ZM18.3516 16.5312H19.6611V28.0273C19.6611 29.4805 19.4766 30.5381 19.1074 31.2002C18.7383 31.8564 18.0205 32.1846 16.9541 32.1846C15.8877 32.1846 15.1641 31.8535 14.7832 31.1914C14.4082 30.5293 14.2207 29.4746 14.2207 28.0273V16.5312H15.5303V27.9834C15.5303 29.0557 15.5771 29.7705 15.6709 30.1279C15.8467 30.7783 16.2568 31.1035 16.9014 31.1035C17.4287 31.1035 17.8008 30.9541 18.0176 30.6553C18.2402 30.3506 18.3516 29.4629 18.3516 27.9922V16.5312ZM26.4199 21.1982V20.7852C26.4199 19.6484 26.332 18.8369 26.1562 18.3506C25.9863 17.8643 25.6406 17.6211 25.1191 17.6211H23.6689V24.8369H25.0576C25.5967 24.8369 25.957 24.582 26.1387 24.0723C26.3262 23.5566 26.4199 22.5986 26.4199 21.1982ZM22.3594 16.5312H25.0488C25.6816 16.5312 26.1797 16.6514 26.543 16.8916C26.9121 17.126 27.1582 17.3896 27.2812 17.6826C27.4922 18.21 27.6182 18.7227 27.6592 19.2207C27.7061 19.7188 27.7295 20.3193 27.7295 21.0225V21.1807C27.7295 22.5225 27.6445 23.4688 27.4746 24.0195C27.3105 24.5703 27.123 24.9658 26.9121 25.2061C26.4844 25.6982 25.8369 25.9443 24.9697 25.9443H23.6689V32H22.3594V16.5312ZM33.8379 21.1982V20.7852C33.8379 19.6484 33.75 18.8369 33.5742 18.3506C33.4043 17.8643 33.0586 17.6211 32.5371 17.6211H31.0869V24.8369H32.4756C33.0146 24.8369 33.375 24.582 33.5566 24.0723C33.7441 23.5566 33.8379 22.5986 33.8379 21.1982ZM29.7773 16.5312H32.4668C33.0996 16.5312 33.5977 16.6514 33.9609 16.8916C34.3301 17.126 34.5762 17.3896 34.6992 17.6826C34.9102 18.21 35.0361 18.7227 35.0771 19.2207C35.124 19.7188 35.1475 20.3193 35.1475 21.0225V21.1807C35.1475 22.5225 35.0625 23.4688 34.8926 24.0195C34.7285 24.5703 34.541 24.9658 34.3301 25.2061C33.9023 25.6982 33.2549 25.9443 32.3877 25.9443H31.0869V32H29.7773V16.5312ZM37.1953 16.5312H38.5049V30.9629H41.2471V32H37.1953V16.5312ZM46.4941 16.5312H47.8477L45.3252 25.2061V32H44.0156V25.2148L41.2207 16.5312H42.5391L44.6572 23.3691H44.6836L46.4941 16.5312Z" fill="#4CD964"/>
</g>
</g>
</svg>
