<svg width="50" height="50" viewBox="0 0 50 50" fill="none" xmlns="http://www.w3.org/2000/svg">
<g class="click fault multi-state-1" reference="MODE">
<g id="flags">
<path id="Subtract" fill-rule="evenodd" clip-rule="evenodd" d="M50 25C50 38.8071 38.8071 50 25 50C11.1929 50 0 38.8071 0 25C0 11.1929 11.1929 0 25 0C38.8071 0 50 11.1929 50 25ZM46.682 24.9991C46.682 36.9747 36.9739 46.6828 24.9983 46.6828C13.0227 46.6828 3.31462 36.9747 3.31462 24.9991C3.31462 13.0235 13.0227 3.31543 24.9983 3.31543C36.9739 3.31543 46.682 13.0235 46.682 24.9991Z"/>
</g>
<!--dry-->
	<g class="array-5">
<path id="Vector" fill-rule="evenodd" clip-rule="evenodd" d="M30.8581 26.8078C29.7042 24.0386 27.4954 20.3463 25.1218 16.9506C21.5943 21.9617 18.4954 27.5661 18.4954 29.9727C18.4954 34.1595 21.4624 37.5552 25.1218 37.5552C27.3965 37.5552 29.4075 36.2365 30.5943 34.2255L30.4954 34.1266C29.7372 33.3024 29.2757 32.1156 29.2757 30.8628C29.2757 30.1375 29.6713 29.0826 30.2976 27.8628C30.4625 27.5331 30.6603 27.1705 30.8581 26.8078ZM37.6493 30.8628C37.6493 29.643 36.0999 26.8408 34.3526 24.3353C32.5724 26.8408 31.0229 29.643 31.0229 30.8628C31.0229 32.9398 32.5064 34.6211 34.3526 34.6211C36.1658 34.6211 37.6493 32.9398 37.6493 30.8628ZM21.4954 19.0276C20.6053 17.0495 19.0888 14.544 17.4734 12.2363C14.9349 15.8627 12.6602 19.9507 12.6602 21.6979C12.6602 24.6979 14.803 27.1375 17.4074 27.1705C17.7371 26.0826 18.2976 24.7639 19.0228 23.3463C19.7151 21.9946 20.5393 20.5111 21.4954 19.0276ZM15.9569 22.3902C16.2536 24.3023 17.7041 23.61 16.7481 24.9617C15.6602 26.4782 14.4734 23.5441 14.3415 22.654C14.1767 21.6979 14.2426 18.4012 15.825 19.1265C17.3085 19.8518 15.6272 20.3463 15.9569 22.3902ZM22.1547 31.0277C22.7481 33.9617 25.3855 33.698 24.4295 35.1815C23.2097 37.0277 20.5723 32.5771 20.3415 31.4562C20.0448 30.1046 20.7042 24.6979 22.6492 25.7529C24.0998 26.5771 21.5613 28.1265 22.1547 31.0277Z"/>
</g>
<!--fan-->
	<g class="array-3">
<path id="Vector_2" fill-rule="evenodd" clip-rule="evenodd" d="M24.9883 27.123C26.2086 27.0925 27.1239 26.1161 27.1239 24.8042C27.0629 23.4618 25.8425 22.5465 24.8052 22.6685C23.5848 22.699 22.6695 23.6754 22.6695 24.9873C22.7 26.2077 23.6763 27.123 24.9883 27.123ZM27.246 19.5565C28.3748 18.0921 29.5647 16.5361 30.419 15.0411C30.6631 14.6444 30.7241 14.2783 30.6326 13.9732C30.541 13.5766 30.2054 13.241 29.7478 12.9664C29.2291 12.6918 28.5579 12.4783 27.7952 12.3562C25.8425 12.0511 23.3712 12.3257 21.9678 13.2105C21.083 13.7597 20.7779 14.5529 20.7779 15.4377C20.8084 16.6581 21.4491 18.031 22.2119 19.2209C22.7305 20.0447 23.2797 20.8074 23.7679 21.3261C24.1645 21.7227 24.5306 21.9668 24.8052 21.9668C24.9883 21.9668 25.2018 21.8753 25.4154 21.7227C25.69 21.5397 25.9341 21.2651 26.1171 20.9905C26.4527 20.5939 26.8188 20.0752 27.246 19.5565ZM37.4363 27.7942C37.7414 25.8416 37.4668 23.3703 36.582 21.9668C36.0328 21.082 35.2396 20.7769 34.3548 20.7769C33.1344 20.8074 31.7614 21.4481 30.5716 22.2109C29.7478 22.7296 28.985 23.2787 28.4664 23.7669C28.0697 24.1635 27.8257 24.5296 27.8257 24.8042C27.8257 24.9873 27.9172 25.2008 28.0697 25.4144C28.2528 25.689 28.5274 25.9331 28.802 26.1161C29.1986 26.4517 29.7173 26.8179 30.2359 27.2145C31.7004 28.3434 33.2564 29.5638 34.7514 30.418C35.148 30.6621 35.5141 30.7231 35.8192 30.6316C36.2159 30.5401 36.5515 30.2045 36.8261 29.7468C37.1007 29.2281 37.3142 28.5569 37.4363 27.7942ZM29.0156 34.3538C28.985 33.1334 28.3443 31.7605 27.5816 30.5706C27.0629 29.7468 26.5137 28.9841 26.0256 28.4654C25.629 28.0688 25.2628 27.8247 24.9883 27.8247C24.8052 27.8247 24.5916 27.9162 24.3781 28.0688C24.1035 28.2518 23.8594 28.5264 23.6763 28.801C23.3407 29.1976 22.9746 29.7163 22.578 30.235C21.4491 31.6994 20.2287 33.2554 19.3744 34.7504C19.1304 35.147 19.0693 35.5132 19.1609 35.8183C19.2524 36.2149 19.588 36.5505 20.0457 36.8251C20.5643 37.0997 21.2355 37.3132 21.9983 37.4353C23.9509 37.7404 26.4222 37.4658 27.8257 36.581C28.7105 36.0318 29.0156 35.2386 29.0156 34.3538ZM21.7237 24.3771C21.5406 24.1025 21.2661 23.8584 20.9915 23.6754C20.5948 23.3397 20.0762 22.9736 19.5575 22.5465C18.093 21.4176 16.537 20.2277 15.0421 19.3735C14.6454 19.1294 14.2793 19.0684 13.9742 19.1599C13.5776 19.2514 13.242 19.587 12.9674 20.0447C12.6928 20.5634 12.4792 21.2346 12.3572 21.9973C12.0521 23.9499 12.3267 26.4212 13.2115 27.8247C13.7606 28.7095 14.5539 29.0146 15.4387 29.0146C16.6591 28.9841 18.032 28.3434 19.2219 27.5806C20.0457 27.0619 20.8084 26.5128 21.3271 26.0246C21.7237 25.628 21.9678 25.2619 21.9678 24.9873C21.9678 24.8042 21.8763 24.5906 21.7237 24.3771Z"/>
</g>
<!--cool-->
	<g class="array-1">
<path id="Vector_3" d="M32.7842 28.5061C33.8025 27.9507 34.8208 27.3721 35.7928 26.8166C35.9317 26.7472 36.0937 26.7935 36.1863 26.9324L36.5797 27.6498C36.6723 27.7655 36.626 27.9507 36.4871 28.0201L34.2191 29.3393L36.1863 30.4733C36.3251 30.5427 36.3714 30.7279 36.2789 30.8667L35.8623 31.6073C35.7928 31.723 35.6077 31.7693 35.4688 31.6999L33.5016 30.5659V33.2274C33.5016 33.3894 33.3628 33.5051 33.2239 33.5051H32.3908C32.2288 33.5051 32.113 33.3894 32.113 33.2274C32.113 32.0933 32.0899 30.913 32.0899 29.7327L29.6367 28.3441C29.6367 33.7828 30.5162 33.2736 25.8181 30.5659V33.3894C26.8132 33.9679 27.8084 34.5928 28.7573 35.1483C28.8961 35.2177 28.9424 35.3797 28.873 35.5186L28.4564 36.236C28.387 36.3749 28.2018 36.4211 28.063 36.3517L25.8181 35.0325V37.2774C25.8181 37.4395 25.6792 37.5552 25.5403 37.5552H24.684C24.522 37.5552 24.4063 37.4395 24.4063 37.2774V35.0094L22.0688 36.3517C21.93 36.4211 21.768 36.3749 21.6754 36.2591L21.282 35.5417C21.1894 35.4028 21.2357 35.2177 21.3745 35.1483C22.3465 34.5928 23.388 33.9448 24.4063 33.3662V30.5427C19.6388 33.2968 20.4951 33.8522 20.4951 28.3673L18.065 29.779C18.065 30.913 18.0419 32.0933 18.0419 33.2042C18.0419 33.3662 17.9262 33.5051 17.7642 33.5051H16.9541C16.7921 33.5051 16.6533 33.3662 16.6533 33.2042C16.6533 32.3479 16.6533 31.4685 16.6533 30.589L14.7324 31.6999C14.5935 31.7693 14.4315 31.723 14.3389 31.6073L13.9224 30.8667C13.8529 30.7279 13.8992 30.5427 14.0149 30.4733L15.959 29.3624L13.6446 28.0201C13.5058 27.9507 13.4595 27.7655 13.5521 27.6267L13.9686 26.9324C14.0381 26.7935 14.2001 26.7472 14.3389 26.8166C15.3341 27.3952 16.3756 27.9507 17.3939 28.5293L19.8239 27.1175C15.0795 24.3866 15.0795 25.4049 19.8239 22.674L17.3707 21.2391C16.3524 21.8177 15.3573 22.3963 14.3621 22.9748C14.2232 23.0443 14.0612 22.998 13.9686 22.8591L13.5752 22.1417C13.4826 22.026 13.5289 21.8408 13.6678 21.7714C14.4315 21.3317 15.1952 20.8688 15.959 20.4291L14.0149 19.3182C13.8992 19.2488 13.8529 19.0636 13.9224 18.9248L14.3389 18.1842C14.4315 18.0685 14.5935 18.0222 14.7324 18.0916L16.6533 19.2025V16.5641C16.6533 16.4021 16.7921 16.2864 16.931 16.2864H17.7642C17.9262 16.2864 18.0419 16.4021 18.0419 16.5641C18.0419 17.6982 18.065 18.8553 18.065 20.0125L20.5182 21.4242C20.5182 15.9624 19.6388 16.4947 24.4063 19.2256V16.4021C23.388 15.8235 22.3928 15.2218 21.3977 14.6432C21.2588 14.5738 21.2125 14.4118 21.282 14.2729L21.6985 13.5555C21.768 13.4166 21.9531 13.3704 22.092 13.4398C22.8326 13.8795 23.6194 14.3192 24.4063 14.7821V12.514C24.4063 12.352 24.522 12.2363 24.684 12.2363H25.5403C25.6792 12.2363 25.8181 12.352 25.8181 12.514V14.7358C26.5818 14.2961 27.3224 13.8795 28.0861 13.4398C28.225 13.3704 28.387 13.4166 28.4795 13.5324L28.873 14.2498C28.9655 14.3887 28.9193 14.5738 28.7804 14.6432C27.8084 15.1987 26.8132 15.8004 25.8181 16.379V19.1793C30.5624 16.4484 29.6598 15.9624 29.6598 21.4474L32.0668 20.0588C32.0668 18.8785 32.113 17.6982 32.113 16.5873C32.113 16.4253 32.2288 16.2864 32.3908 16.2864H33.2008C33.3628 16.2864 33.5016 16.4253 33.5016 16.5873C33.5016 17.4667 33.5016 18.3462 33.5016 19.2256L35.4688 18.0916C35.6077 18.0222 35.7928 18.0685 35.8623 18.1842L36.2789 18.9248C36.3714 19.0636 36.3251 19.2488 36.1863 19.3182L34.2191 20.4522C34.9828 20.8919 35.7466 21.3317 36.5103 21.7714C36.6491 21.8408 36.6954 22.026 36.6029 22.1648L36.1863 22.8591C36.1168 22.998 35.9548 23.0443 35.816 22.9748C34.8208 22.3963 33.8257 21.8408 32.8073 21.2622L30.3773 22.674C35.0754 25.3818 35.0754 24.3635 30.331 27.0944L32.7842 28.5061ZM21.2357 26.3075L23.6889 24.8957L21.2357 23.484L18.7825 24.8957L21.2357 26.3075ZM25.8181 23.6691L28.2481 22.2574V19.4108L25.8181 20.8225V23.6691ZM28.9655 23.484L26.5124 24.8957L28.9193 26.2844L31.3725 24.8726L28.9655 23.484ZM24.4063 26.1223L21.9068 27.5572V30.3576L24.4063 28.9227V26.1223ZM21.93 22.2343L24.4063 23.6691V20.8688L21.93 19.4339V22.2343ZM28.225 27.5109L25.8181 26.1223V28.9227L28.225 30.3344V27.5109Z"/>
</g>
<!--heat-->
	<g class="array-2">
<path id="Vector_4" d="M25.3171 31.0326C28.6921 31.0326 31.4399 28.2849 31.4399 24.9099C31.4399 21.5349 28.6921 18.7871 25.3171 18.7871C21.9421 18.7871 19.1943 21.5349 19.1943 24.9099C19.1943 28.2849 21.9421 31.0326 25.3171 31.0326Z"/>
<path id="Vector_5" d="M32.5443 25.6559L37.5321 24.9093L32.6936 24.1924L40.1007 21.0564L31.9171 21.9524L35.8894 18.8164L31.3496 20.6084L36.1881 14.1869L29.5576 19.0553L31.4392 14.3363L28.3928 18.1593L29.3784 10.1847L26.0631 17.7113L25.3165 12.7234L24.5996 17.5619L21.4636 10.125L22.3596 18.3086L19.2236 14.3363L21.0156 18.8761L14.5942 14.0376L19.4625 20.6681L14.7435 18.7865L18.5665 21.8329L10.592 20.8473L18.1185 24.1626L13.1307 24.9093L17.9691 25.6261L10.5322 28.7621L18.7158 27.8661L14.7435 31.0022L19.2833 29.2101L14.4448 35.6316L21.0753 30.7632L19.1937 35.4822L22.2401 31.6592L21.2844 39.6338L24.5996 32.1072L25.3463 37.0951L26.0631 32.2566L29.1992 39.6636L28.3032 31.48L31.4392 35.4524L29.6472 30.9126L36.0686 35.751L31.2003 29.1205L35.9193 31.0022L32.0963 27.9557L40.0708 28.9413L32.5443 25.6559ZM25.3165 31.8384C21.4935 31.8384 18.3873 28.7323 18.3873 24.9093C18.3873 21.0863 21.4935 17.9801 25.3165 17.9801C29.1395 17.9801 32.2456 21.0863 32.2456 24.9093C32.2456 28.7323 29.1395 31.8384 25.3165 31.8384Z"/>
</g>
<!--auto-->
	<g class="array-4">
<path id="Vector_6" fill-rule="evenodd" clip-rule="evenodd" d="M14.0392 22.7331L12.9682 26.0036H14.9572L14.0392 22.7331ZM12.8764 21.1398H15.2326L17.9866 29.2182H15.8752L15.355 27.4012H12.5092L11.989 29.2182H10L12.8764 21.1398ZM18.4762 21.1398H20.5264V26.3111C20.5264 26.926 20.6182 27.3733 20.8018 27.6249C20.9548 27.8485 21.2608 27.9883 21.7198 27.9883C22.1482 27.9883 22.4542 27.8485 22.6378 27.5969C22.8214 27.3733 22.9132 26.926 22.9132 26.3111V21.1398H24.841V26.0874C24.841 27.2056 24.5962 28.0162 24.076 28.5473C23.5558 29.0784 22.7296 29.33 21.6586 29.33C20.5876 29.33 19.792 29.0784 19.2718 28.5473C18.7516 28.0162 18.4762 27.2056 18.4762 26.0874V21.1398ZM25.8814 21.1398H31.7872V22.5654H29.8594V29.2182H27.8092V22.5654H25.8814V21.1398ZM36.2242 22.3417C35.704 22.3417 35.3368 22.5933 35.0614 23.0965C34.786 23.5717 34.633 24.2705 34.633 25.165C34.633 26.0595 34.786 26.7583 35.0614 27.2335C35.3368 27.7367 35.704 27.9883 36.2242 27.9883C36.7444 27.9883 37.1422 27.7367 37.4176 27.2335C37.693 26.7583 37.8154 26.0595 37.8154 25.165C37.8154 24.2705 37.693 23.5717 37.4176 23.0965C37.1422 22.5933 36.7444 22.3417 36.2242 22.3417ZM36.2242 21C37.4176 21 38.3356 21.3634 38.9782 22.0902C39.6514 22.8169 39.988 23.8512 39.988 25.165C39.988 26.4788 39.6514 27.5131 38.9782 28.2398C38.3356 28.9666 37.4176 29.33 36.2242 29.33C35.0308 29.33 34.1128 28.9666 33.4702 28.2398C32.797 27.5131 32.491 26.4788 32.491 25.165C32.491 23.8512 32.797 22.8169 33.4702 22.0902C34.1434 21.3634 35.0614 21 36.2242 21Z"/>
</g>
</g>
</svg>
