<svg width="56" height="40" viewBox="0 0 56 40" fill="none" xmlns="http://www.w3.org/2000/svg">
<g id="on-off">
<g id="INACTIVE">
<g id="13">
<rect id="Rectangle 2.1" x="52" y="35.999" width="48" height="32" rx="5" transform="rotate(180 52 35.999)" fill="url(#FON-paint0_linear)"/>
<path id="Shape" fill-rule="evenodd" clip-rule="evenodd" d="M6.83691 19.9191C6.83691 26.9132 12.5068 32.583 19.5009 32.583H35.8414C42.8356 32.583 48.5054 26.9132 48.5054 19.9191V19.9191C48.5054 12.9249 42.8356 7.2551 35.8415 7.2551L19.5009 7.2551C12.5068 7.2551 6.83691 12.9249 6.83691 19.9191V19.9191Z" fill="url(#FON-paint1_linear)"/>
<path id="Shape_2" fill-rule="evenodd" clip-rule="evenodd" d="M46.3311 19.9178C46.3311 13.723 41.3092 8.70117 35.1144 8.70117H20.6413C14.4465 8.70117 9.42468 13.723 9.42468 19.9178V19.9178C9.42468 26.1126 14.4465 31.1345 20.6413 31.1345H35.1144C41.3092 31.1345 46.3311 26.1126 46.3311 19.9178V19.9178Z" fill="#007AFF"/>
</g>
<g id="11">
<path id="flage" d="M31.926 17.2363C31.926 15.8691 32.1721 14.9303 32.6643 14.4199C33.0517 14.0189 33.6145 13.8184 34.3528 13.8184C35.4283 13.8184 36.1165 14.2604 36.4173 15.1445C36.595 15.6686 36.6839 16.3659 36.6839 17.2363V22.541C36.6839 23.7943 36.5084 24.708 36.1575 25.2822C35.8066 25.8519 35.1913 26.1367 34.3118 26.1367C33.4368 26.1367 32.8193 25.8496 32.4593 25.2754C32.1038 24.7012 31.926 23.7897 31.926 22.541V17.2363ZM35.2688 17.1543C35.2688 16.3841 35.2073 15.8395 35.0843 15.5205C34.9612 15.1969 34.7128 15.0352 34.3391 15.0352C33.9654 15.0352 33.7057 15.1992 33.5598 15.5273C33.414 15.8555 33.3411 16.3955 33.3411 17.1475V22.5547C33.3411 23.4707 33.4049 24.0951 33.5325 24.4277C33.6601 24.7559 33.9176 24.9199 34.305 24.9199C34.6923 24.9199 34.9498 24.7536 35.0774 24.4209C35.205 24.0837 35.2688 23.4616 35.2688 22.5547V17.1543ZM42.2278 13.9688H43.4788V26H42.4397L39.7395 17.7422L39.8216 20.7773V26H38.5159V13.9688H39.5823L42.3714 22.1582L42.2278 18.6787V13.9688Z" fill="white"/>
<path id="flage_2" d="M11.0205 17.2363C11.0205 15.8691 11.2666 14.9303 11.7588 14.4199C12.1462 14.0189 12.709 13.8184 13.4473 13.8184C14.5228 13.8184 15.2109 14.2604 15.5117 15.1445C15.6895 15.6686 15.7783 16.3659 15.7783 17.2363V22.541C15.7783 23.7943 15.6029 24.708 15.252 25.2822C14.901 25.8519 14.2858 26.1367 13.4062 26.1367C12.5312 26.1367 11.9137 25.8496 11.5537 25.2754C11.1982 24.7012 11.0205 23.7897 11.0205 22.541V17.2363ZM14.3633 17.1543C14.3633 16.3841 14.3018 15.8395 14.1787 15.5205C14.0557 15.1969 13.8073 15.0352 13.4336 15.0352C13.0599 15.0352 12.8001 15.1992 12.6543 15.5273C12.5085 15.8555 12.4355 16.3955 12.4355 17.1475V22.5547C12.4355 23.4707 12.4993 24.0951 12.627 24.4277C12.7546 24.7559 13.012 24.9199 13.3994 24.9199C13.7868 24.9199 14.0443 24.7536 14.1719 24.4209C14.2995 24.0837 14.3633 23.4616 14.3633 22.5547V17.1543ZM17.6035 13.9688H21.2266V15.1514H19.0117V18.9521H21.0898V20.1484H19.0117V26H17.6035V13.9688ZM22.7031 13.9688H26.3262V15.1514H24.1113V18.9521H26.1895V20.1484H24.1113V26H22.7031V13.9688Z" fill="#5B5B5F"/>
</g>
</g>
<g id="fon">
<g id="FLAGE">
<rect id="Rectangle 2.1_2" x="2" y="38" width="2" height="26" rx="1" transform="rotate(-90 2 38)" fill="white"/>
<rect id="Rectangle 2.4" x="2" y="4" width="2" height="26" rx="1" transform="rotate(-90 2 4)" fill="white"/>
<rect id="Rectangle 2.3" x="2" y="2" width="2" height="36" rx="1" fill="white"/>
<rect id="Rectangle 3" x="26" y="2" width="2" height="2" fill="white"/>
<rect id="Rectangle 3.1" x="26" y="36" width="2" height="2" fill="white"/>
<path id="Rectangle 4" d="M4 4H9C9 4 7.04738 4.28595 5.66667 5.66667C4.28595 7.04738 4 9 4 9V4Z" fill="white"/>
<path id="Rectangle 4.1" d="M4 36L4 31C4 31 4.29412 33.388 5.71429 34.5714C7.13445 35.7549 10 36 10 36H4Z" fill="white"/>
</g>
<g id="FLAGE_2">
<rect id="Rectangle 3_2" x="28" y="2" width="2" height="2" fill="white"/>
<rect id="Rectangle 3.1_2" x="28" y="36" width="2" height="2" fill="white"/>
<rect id="Rectangle 2.3_2" x="52" y="2" width="2" height="36" rx="1" fill="white"/>
<rect id="Rectangle 2.1_3" x="28" y="38" width="2" height="26" rx="1" transform="rotate(-90 28 38)" fill="white"/>
<rect id="Rectangle 2.4_2" x="28" y="4" width="2" height="26" rx="1" transform="rotate(-90 28 4)" fill="white"/>
<path id="Rectangle 4_2" d="M52 4V9C52 9 51.714 6.61204 50.3333 5.42857C48.9526 4.2451 47 4 47 4L52 4Z" fill="white"/>
<path id="Rectangle 4.1_2" d="M52 36H46C46 36 48.8656 35.7549 50.2857 34.5714C51.7059 33.388 52 31 52 31V36Z" fill="white"/>
</g>
</g>
<g class="fault inactive" reference="OFF">
	<g class="animation-display">
<rect id="Rectangle 2" x="4" y="4" width="48" height="32" rx="5" fill="url(#FON-paint2_linear)"/>
<path id="Shape_3" fill-rule="evenodd" clip-rule="evenodd" d="M48.5059 19.9188C48.5059 12.9247 42.836 7.25488 35.8419 7.25488H19.5013C12.5072 7.25488 6.83737 12.9247 6.83737 19.9188C6.83737 26.9129 12.5072 32.5828 19.5013 32.5828H35.8419C42.836 32.5828 48.5059 26.9129 48.5059 19.9188Z" fill="url(#FON-paint3_linear)"/>
<path id="Shape_4" fill-rule="evenodd" clip-rule="evenodd" d="M46.3311 19.9178C46.3311 13.723 41.3092 8.70117 35.1144 8.70117H20.6413C14.4465 8.70117 9.42468 13.723 9.42468 19.9178C9.42468 26.1126 14.4465 31.1345 20.6413 31.1345H35.1144C41.3092 31.1345 46.3311 26.1126 46.3311 19.9178Z" fill="white"/>
<g id="Group">
<g id="Oval" filter="url(#filter0_d)">
<path fill-rule="evenodd" clip-rule="evenodd" d="M21 30C15.4772 30 11 25.5228 11 20C11 14.4772 15.4772 10 21 10C26.5228 10 31 14.4772 31 20C31 25.5228 26.5228 30 21 30Z" fill="#E5E5E5"/>
</g>
<path id="Oval_2" fill-rule="evenodd" clip-rule="evenodd" d="M21 29C16.0294 29 12 24.9706 12 20C12 15.0294 16.0294 11 21 11C25.9706 11 30 15.0294 30 20C30 24.9706 25.9706 29 21 29Z" fill="white"/>
</g>
<path id="flage_3" d="M31.5215 17.2363C31.5215 15.8691 31.7676 14.9303 32.2598 14.4199C32.6471 14.0189 33.21 13.8184 33.9482 13.8184C35.0238 13.8184 35.7119 14.2604 36.0127 15.1445C36.1904 15.6686 36.2793 16.3659 36.2793 17.2363V22.541C36.2793 23.7943 36.1038 24.708 35.7529 25.2822C35.402 25.8519 34.7868 26.1367 33.9072 26.1367C33.0322 26.1367 32.4147 25.8496 32.0547 25.2754C31.6992 24.7012 31.5215 23.7897 31.5215 22.541V17.2363ZM34.8643 17.1543C34.8643 16.3841 34.8027 15.8395 34.6797 15.5205C34.5566 15.1969 34.3083 15.0352 33.9346 15.0352C33.5609 15.0352 33.3011 15.1992 33.1553 15.5273C33.0094 15.8555 32.9365 16.3955 32.9365 17.1475V22.5547C32.9365 23.4707 33.0003 24.0951 33.1279 24.4277C33.2555 24.7559 33.513 24.9199 33.9004 24.9199C34.2878 24.9199 34.5452 24.7536 34.6729 24.4209C34.8005 24.0837 34.8643 23.4616 34.8643 22.5547V17.1543ZM38.1045 13.9688H41.7275V15.1514H39.5127V18.9521H41.5908V20.1484H39.5127V26H38.1045V13.9688ZM43.2041 13.9688H46.8271V15.1514H44.6123V18.9521H46.6904V20.1484H44.6123V26H43.2041V13.9688Z" fill="#5B5B5F"/>
<g id="FLAGE_3">
<rect id="Rectangle 2.1_4" x="2" y="38" width="2" height="26" rx="1" transform="rotate(-90 2 38)"/>
<rect id="Rectangle 2.4_3" x="2" y="4" width="2" height="26" rx="1" transform="rotate(-90 2 4)"/>
<rect id="Rectangle 2.3_3" x="2" y="2" width="2" height="36" rx="1"/>
<rect id="Rectangle 3_3" x="26" y="2" width="2" height="2"/>
<rect id="Rectangle 3.1_3" x="26" y="36" width="2" height="2"/>
<path id="Rectangle 4_3" d="M4 4H9C9 4 7.04738 4.28595 5.66667 5.66667C4.28595 7.04738 4 9 4 9V4Z"/>
<path id="Rectangle 4.1_3" d="M4 36L4 31C4 31 4.29412 33.388 5.71429 34.5714C7.13445 35.7549 10 36 10 36H4Z"/>
</g>
</g>
</g>
<g class="click fault inactive" reference="OFF">
<rect id="Rectangle" opacity="0.01" width="28" height="40" fill="#C4C4C4"/>
</g>
<g class="fault inactive" reference="ON">
	<g class="animation-display">
<rect id="Rectangle 2_2" x="52" y="35.999" width="48" height="32" rx="5" transform="rotate(180 52 35.999)" fill="url(#FON-paint4_linear)"/>
<path id="Shape_5" fill-rule="evenodd" clip-rule="evenodd" d="M6.83691 19.9191C6.83691 26.9132 12.5068 32.583 19.5009 32.583H35.8414C42.8356 32.583 48.5054 26.9132 48.5054 19.9191C48.5054 12.9249 42.8356 7.2551 35.8415 7.2551L19.5009 7.2551C12.5068 7.2551 6.83691 12.9249 6.83691 19.9191Z" fill="url(#FON-paint5_linear)"/>
<path id="Shape_6" fill-rule="evenodd" clip-rule="evenodd" d="M46.3311 19.9178C46.3311 13.723 41.3092 8.70117 35.1144 8.70117H20.6413C14.4465 8.70117 9.42468 13.723 9.42468 19.9178C9.42468 26.1126 14.4465 31.1345 20.6413 31.1345H35.1144C41.3092 31.1345 46.3311 26.1126 46.3311 19.9178Z" fill="#007AFF"/>
<g id="Group_2">
<g id="Oval_3" filter="url(#filter1_d)">
<path fill-rule="evenodd" clip-rule="evenodd" d="M35 30C29.4772 30 25 25.5228 25 20C25 14.4772 29.4772 10 35 10C40.5228 10 45 14.4772 45 20C45 25.5228 40.5228 30 35 30Z" fill="#E5E5E5"/>
</g>
<path id="Oval_4" fill-rule="evenodd" clip-rule="evenodd" d="M35 29C30.0294 29 26 24.9706 26 20C26 15.0294 30.0294 11 35 11C39.9706 11 44 15.0294 44 20C44 24.9706 39.9706 29 35 29Z" fill="white"/>
</g>
<path id="flage_4" d="M12.3362 16.8721C12.3362 15.5049 12.5823 14.5661 13.0745 14.0557C13.4619 13.6546 14.0247 13.4541 14.763 13.4541C15.8385 13.4541 16.5266 13.8962 16.8274 14.7803C17.0051 15.3044 17.094 16.0016 17.094 16.8721V22.1768C17.094 23.43 16.9186 24.3438 16.5676 24.918C16.2167 25.4876 15.6015 25.7725 14.7219 25.7725C13.8469 25.7725 13.2294 25.4854 12.8694 24.9111C12.5139 24.3369 12.3362 23.4255 12.3362 22.1768V16.8721ZM15.679 16.79C15.679 16.0199 15.6175 15.4753 15.4944 15.1562C15.3714 14.8327 15.123 14.6709 14.7493 14.6709C14.3756 14.6709 14.1158 14.835 13.97 15.1631C13.8242 15.4912 13.7512 16.0312 13.7512 16.7832V22.1904C13.7512 23.1064 13.815 23.7308 13.9426 24.0635C14.0703 24.3916 14.3277 24.5557 14.7151 24.5557C15.1025 24.5557 15.36 24.3893 15.4876 24.0566C15.6152 23.7194 15.679 23.0973 15.679 22.1904V16.79ZM22.638 13.6045H23.8889V25.6357H22.8499L20.1497 17.3779L20.2317 20.4131V25.6357H18.926V13.6045H19.9925L22.7815 21.7939L22.638 18.3145V13.6045Z" fill="white"/>
<g id="FLAGE_4">
<rect id="Rectangle 3_4" x="28" y="2" width="2" height="2"/>
<rect id="Rectangle 3.1_4" x="28" y="36" width="2" height="2"/>
<rect id="Rectangle 2.3_4" x="52" y="2" width="2" height="36" rx="1"/>
<rect id="Rectangle 2.1_5" x="28" y="38" width="2" height="26" rx="1" transform="rotate(-90 28 38)"/>
<rect id="Rectangle 2.4_4" x="28" y="4" width="2" height="26" rx="1" transform="rotate(-90 28 4)"/>
<path id="Rectangle 4_4" d="M52 4V9C52 9 51.714 6.61204 50.3333 5.42857C48.9526 4.2451 47 4 47 4L52 4Z"/>
<path id="Rectangle 4.1_4" d="M52 36H46C46 36 48.8656 35.7549 50.2857 34.5714C51.7059 33.388 52 31 52 31V36Z"/>
</g>
</g>
</g>
<g class="click fault inactive" reference="ON">
<rect id="onn" x="28" opacity="0.01" width="28" height="40" fill="#C4C4C4"/>
</g>
</g>
<defs>
<filter id="filter0_d" x="9" y="10" width="24" height="24" filterUnits="userSpaceOnUse" color-interpolation-filters="sRGB">
<feFlood flood-opacity="0" result="BackgroundImageFix"/>
<feColorMatrix in="SourceAlpha" type="matrix" values="0 0 0 0 0 0 0 0 0 0 0 0 0 0 0 0 0 0 127 0"/>
<feOffset dy="2"/>
<feGaussianBlur stdDeviation="1"/>
<feColorMatrix type="matrix" values="0 0 0 0 0 0 0 0 0 0 0 0 0 0 0 0 0 0 0.5 0"/>
<feBlend mode="normal" in2="BackgroundImageFix" result="effect1_dropShadow"/>
<feBlend mode="normal" in="SourceGraphic" in2="effect1_dropShadow" result="shape"/>
</filter>
<filter id="filter1_d" x="23" y="10" width="24" height="24" filterUnits="userSpaceOnUse" color-interpolation-filters="sRGB">
<feFlood flood-opacity="0" result="BackgroundImageFix"/>
<feColorMatrix in="SourceAlpha" type="matrix" values="0 0 0 0 0 0 0 0 0 0 0 0 0 0 0 0 0 0 127 0"/>
<feOffset dy="2"/>
<feGaussianBlur stdDeviation="1"/>
<feColorMatrix type="matrix" values="0 0 0 0 0 0 0 0 0 0 0 0 0 0 0 0 0 0 0.5 0"/>
<feBlend mode="normal" in2="BackgroundImageFix" result="effect1_dropShadow"/>
<feBlend mode="normal" in="SourceGraphic" in2="effect1_dropShadow" result="shape"/>
</filter>
<linearGradient id="FON-paint0_linear" x1="49.758" y1="52.0308" x2="107.064" y2="52.0308" gradientUnits="userSpaceOnUse">
<stop offset="0.1537" stop-color="white"/>
<stop offset="0.3915" stop-color="#F6F6F8"/>
<stop offset="0.77" stop-color="#DFDFE6"/>
<stop offset="1" stop-color="#CECED9"/>
</linearGradient>
<linearGradient id="FON-paint1_linear" x1="4.89068" y1="19.8939" x2="54.6373" y2="19.8939" gradientUnits="userSpaceOnUse">
<stop offset="0.1537" stop-color="white"/>
<stop offset="0.3915" stop-color="#F6F6F8"/>
<stop offset="0.77" stop-color="#DFDFE6"/>
<stop offset="1" stop-color="#CECED9"/>
</linearGradient>
<linearGradient id="FON-paint2_linear" x1="1.75804" y1="20.0317" x2="59.0636" y2="20.0317" gradientUnits="userSpaceOnUse">
<stop offset="0.1537" stop-color="white"/>
<stop offset="0.3915" stop-color="#F6F6F8"/>
<stop offset="0.77" stop-color="#DFDFE6"/>
<stop offset="1" stop-color="#CECED9"/>
</linearGradient>
<linearGradient id="FON-paint3_linear" x1="50.4521" y1="19.944" x2="0.705482" y2="19.944" gradientUnits="userSpaceOnUse">
<stop offset="0.1537" stop-color="white"/>
<stop offset="0.3915" stop-color="#F6F6F8"/>
<stop offset="0.77" stop-color="#DFDFE6"/>
<stop offset="1" stop-color="#CECED9"/>
</linearGradient>
<linearGradient id="FON-paint4_linear" x1="49.758" y1="52.0308" x2="107.064" y2="52.0308" gradientUnits="userSpaceOnUse">
<stop offset="0.1537" stop-color="white"/>
<stop offset="0.3915" stop-color="#F6F6F8"/>
<stop offset="0.77" stop-color="#DFDFE6"/>
<stop offset="1" stop-color="#CECED9"/>
</linearGradient>
<linearGradient id="FON-paint5_linear" x1="4.89068" y1="19.8939" x2="54.6373" y2="19.8939" gradientUnits="userSpaceOnUse">
<stop offset="0.1537" stop-color="white"/>
<stop offset="0.3915" stop-color="#F6F6F8"/>
<stop offset="0.77" stop-color="#DFDFE6"/>
<stop offset="1" stop-color="#CECED9"/>
</linearGradient>
</defs>
</svg>
