<svg width="50" height="50" viewBox="0 0 50 50" fill="none" xmlns="http://www.w3.org/2000/svg">
	<g class="click fault multi-state-1" reference="MODE">
<g id="flags">
<path id="Subtract" fill-rule="evenodd" clip-rule="evenodd" d="M50 25C50 38.8071 38.8071 50 25 50C11.1929 50 0 38.8071 0 25C0 11.1929 11.1929 0 25 0C38.8071 0 50 11.1929 50 25ZM46.682 24.9991C46.682 36.9747 36.9739 46.6828 24.9983 46.6828C13.0227 46.6828 3.31462 36.9747 3.31462 24.9991C3.31462 13.0235 13.0227 3.31543 24.9983 3.31543C36.9739 3.31543 46.682 13.0235 46.682 24.9991Z"/>
</g>

<!--RETURN-->
	<g class="array-2">
<path id="Vector_2" d="M8.5791 25.3467L7.99121 25.3193V31H6.15918V18.9688H9.1875C9.81641 18.9688 10.2858 19.0964 10.5957 19.3516C10.9056 19.6022 11.1084 19.9554 11.2041 20.4111C11.3044 20.8623 11.3545 21.4548 11.3545 22.1885C11.3545 22.9176 11.277 23.4736 11.1221 23.8564C10.9671 24.2393 10.68 24.4967 10.2607 24.6289C10.6755 24.7018 10.9648 24.9821 11.1289 25.4697C11.293 25.9574 11.375 26.9736 11.375 28.5186C11.375 30.0589 11.3978 30.8861 11.4434 31H9.61133C9.56576 30.9089 9.54297 29.471 9.54297 26.6865C9.54297 26.1533 9.47917 25.8001 9.35156 25.627C9.22396 25.4492 8.96647 25.3558 8.5791 25.3467ZM7.99805 23.8975H8.72949C8.96191 23.8975 9.13281 23.8451 9.24219 23.7402C9.35612 23.6354 9.43359 23.4554 9.47461 23.2002C9.52018 22.945 9.54297 22.5553 9.54297 22.0312V21.9561C9.54297 21.3044 9.48828 20.8783 9.37891 20.6777C9.26953 20.4772 9.0166 20.377 8.62012 20.377H7.99805V23.8975ZM13.0635 31V18.9688H17.0967V20.5479H14.8955V24.0479H16.9873V25.5928H14.8955V29.4209H17.1787V31H13.0635ZM19.2568 31V20.5547H17.8486V18.9688H22.4355V20.5547H21.082V31H19.2568ZM28.6904 27.9102C28.6904 29.0176 28.4808 29.8333 28.0615 30.3574C27.6423 30.877 26.9678 31.1367 26.0381 31.1367C25.113 31.1367 24.4385 30.8747 24.0146 30.3506C23.5954 29.8265 23.3857 29.013 23.3857 27.9102V18.9619H25.2178V27.876C25.2178 28.5094 25.2474 28.8945 25.3066 29.0312C25.3659 29.168 25.4365 29.2933 25.5186 29.4072C25.6051 29.5166 25.7806 29.5713 26.0449 29.5713C26.3092 29.5713 26.4984 29.4938 26.6123 29.3389C26.7262 29.1839 26.7946 28.9925 26.8174 28.7646C26.8447 28.5322 26.8584 28.236 26.8584 27.876V18.9619H28.6904V27.9102ZM32.8467 25.3467L32.2588 25.3193V31H30.4268V18.9688H33.4551C34.084 18.9688 34.5534 19.0964 34.8633 19.3516C35.1732 19.6022 35.376 19.9554 35.4717 20.4111C35.5719 20.8623 35.6221 21.4548 35.6221 22.1885C35.6221 22.9176 35.5446 23.4736 35.3896 23.8564C35.2347 24.2393 34.9476 24.4967 34.5283 24.6289C34.943 24.7018 35.2324 24.9821 35.3965 25.4697C35.5605 25.9574 35.6426 26.9736 35.6426 28.5186C35.6426 30.0589 35.6654 30.8861 35.7109 31H33.8789C33.8333 30.9089 33.8105 29.471 33.8105 26.6865C33.8105 26.1533 33.7467 25.8001 33.6191 25.627C33.4915 25.4492 33.234 25.3558 32.8467 25.3467ZM32.2656 23.8975H32.9971C33.2295 23.8975 33.4004 23.8451 33.5098 23.7402C33.6237 23.6354 33.7012 23.4554 33.7422 23.2002C33.7878 22.945 33.8105 22.5553 33.8105 22.0312V21.9561C33.8105 21.3044 33.7559 20.8783 33.6465 20.6777C33.5371 20.4772 33.2842 20.377 32.8877 20.377H32.2656V23.8975ZM37.3311 31V18.9688H38.7666L41.3164 26.1875L41.1865 22.9062V18.9688H42.834V31H41.5352L38.917 23.5283L39.0195 26.6865V31H37.3311Z"/>
</g>
<!--ROOM-->
	<g class="array-3">
<path id="Vector_3" d="M12.6875 25.3467L12.0996 25.3193V31H10.2676V18.9688H13.2959C13.9248 18.9688 14.3942 19.0964 14.7041 19.3516C15.014 19.6022 15.2168 19.9554 15.3125 20.4111C15.4128 20.8623 15.4629 21.4548 15.4629 22.1885C15.4629 22.9176 15.3854 23.4736 15.2305 23.8564C15.0755 24.2393 14.7884 24.4967 14.3691 24.6289C14.7839 24.7018 15.0732 24.9821 15.2373 25.4697C15.4014 25.9574 15.4834 26.9736 15.4834 28.5186C15.4834 30.0589 15.5062 30.8861 15.5518 31H13.7197C13.6742 30.9089 13.6514 29.471 13.6514 26.6865C13.6514 26.1533 13.5876 25.8001 13.46 25.627C13.3324 25.4492 13.0749 25.3558 12.6875 25.3467ZM12.1064 23.8975H12.8379C13.0703 23.8975 13.2412 23.8451 13.3506 23.7402C13.4645 23.6354 13.542 23.4554 13.583 23.2002C13.6286 22.945 13.6514 22.5553 13.6514 22.0312V21.9561C13.6514 21.3044 13.5967 20.8783 13.4873 20.6777C13.3779 20.4772 13.125 20.377 12.7285 20.377H12.1064V23.8975ZM18.8672 27.6572C18.8672 28.3636 18.9196 28.8558 19.0244 29.1338C19.1338 29.4118 19.3548 29.5508 19.6875 29.5508C20.0202 29.5508 20.2389 29.4095 20.3438 29.127C20.4486 28.8398 20.501 28.3499 20.501 27.6572V22.0518C20.501 21.4821 20.4463 21.0674 20.3369 20.8076C20.2321 20.5433 20.0225 20.4111 19.708 20.4111C19.3981 20.4111 19.1794 20.5433 19.0518 20.8076C18.9287 21.0674 18.8672 21.4798 18.8672 22.0449V27.6572ZM22.3398 27.6367C22.3398 28.8125 22.1302 29.6898 21.7109 30.2686C21.2917 30.8473 20.6195 31.1367 19.6943 31.1367C18.7738 31.1367 18.097 30.8473 17.6641 30.2686C17.2357 29.6852 17.0215 28.8079 17.0215 27.6367V22.1338C17.0215 19.9281 17.9215 18.8252 19.7217 18.8252C20.6514 18.8252 21.319 19.1055 21.7246 19.666C22.1348 20.2266 22.3398 21.0492 22.3398 22.1338V27.6367ZM25.7031 27.6572C25.7031 28.3636 25.7555 28.8558 25.8604 29.1338C25.9697 29.4118 26.1908 29.5508 26.5234 29.5508C26.8561 29.5508 27.0749 29.4095 27.1797 29.127C27.2845 28.8398 27.3369 28.3499 27.3369 27.6572V22.0518C27.3369 21.4821 27.2822 21.0674 27.1729 20.8076C27.068 20.5433 26.8584 20.4111 26.5439 20.4111C26.234 20.4111 26.0153 20.5433 25.8877 20.8076C25.7646 21.0674 25.7031 21.4798 25.7031 22.0449V27.6572ZM29.1758 27.6367C29.1758 28.8125 28.9661 29.6898 28.5469 30.2686C28.1276 30.8473 27.4554 31.1367 26.5303 31.1367C25.6097 31.1367 24.9329 30.8473 24.5 30.2686C24.0716 29.6852 23.8574 28.8079 23.8574 27.6367V22.1338C23.8574 19.9281 24.7575 18.8252 26.5576 18.8252C27.4873 18.8252 28.1549 19.1055 28.5605 19.666C28.9707 20.2266 29.1758 21.0492 29.1758 22.1338V27.6367ZM30.8438 31V18.9688H33.1201L34.8291 27.7598L36.4355 18.9688H38.7256V31H37.0918V26.5156L37.1602 22.4004L35.54 30.9453H34.084L32.3955 22.4004L32.4639 26.5156V31H30.8438Z"/>
</g>
<!--SUPPLY-->
	<g class="array-1">
<path id="Vector" d="M5.69922 27.6162V26.543H7.43555V27.7529C7.43555 28.4229 7.49251 28.8945 7.60645 29.168C7.72038 29.4368 7.93457 29.5713 8.24902 29.5713C8.56348 29.5713 8.77083 29.4596 8.87109 29.2363C8.97591 29.013 9.02832 28.6484 9.02832 28.1426C9.02832 27.6367 8.93717 27.1969 8.75488 26.8232C8.57259 26.445 8.2832 26.0508 7.88672 25.6406L6.99805 24.7246C6.58333 24.2917 6.25977 23.8428 6.02734 23.3779C5.79948 22.9131 5.68555 22.3753 5.68555 21.7646C5.68555 20.7712 5.87695 20.0329 6.25977 19.5498C6.64258 19.0667 7.30111 18.8252 8.23535 18.8252C9.1696 18.8252 9.80078 19.1077 10.1289 19.6729C10.4616 20.2334 10.6279 21.0537 10.6279 22.1338V22.8789H8.93945V22.0176C8.93945 21.4342 8.88932 21.0173 8.78906 20.7666C8.6888 20.5114 8.49512 20.3838 8.20801 20.3838C7.92546 20.3838 7.72038 20.4795 7.59277 20.6709C7.46973 20.8623 7.4082 21.1494 7.4082 21.5322C7.4082 21.915 7.47201 22.2204 7.59961 22.4482C7.72721 22.6761 7.95736 22.9678 8.29004 23.3232L9.28125 24.3965C9.77799 24.9342 10.1517 25.4788 10.4023 26.0303C10.6576 26.5817 10.7852 27.1833 10.7852 27.835C10.7852 28.9606 10.596 29.7923 10.2178 30.3301C9.83952 30.8678 9.17643 31.1367 8.22852 31.1367C7.28516 31.1367 6.62663 30.8382 6.25293 30.2412C5.88379 29.6396 5.69922 28.7646 5.69922 27.6162ZM17.3682 27.9102C17.3682 29.0176 17.1585 29.8333 16.7393 30.3574C16.32 30.877 15.6455 31.1367 14.7158 31.1367C13.7907 31.1367 13.1162 30.8747 12.6924 30.3506C12.2731 29.8265 12.0635 29.013 12.0635 27.9102V18.9619H13.8955V27.876C13.8955 28.5094 13.9251 28.8945 13.9844 29.0312C14.0436 29.168 14.1143 29.2933 14.1963 29.4072C14.2829 29.5166 14.4583 29.5713 14.7227 29.5713C14.987 29.5713 15.1761 29.4938 15.29 29.3389C15.404 29.1839 15.4723 28.9925 15.4951 28.7646C15.5225 28.5322 15.5361 28.236 15.5361 27.876V18.9619H17.3682V27.9102ZM19.1045 31V18.9688H21.8662C22.8005 18.9688 23.4385 19.2536 23.7803 19.8232C24.1266 20.3883 24.3089 21.2337 24.3271 22.3594V22.6123C24.3271 23.8063 24.1562 24.7132 23.8145 25.333C23.4772 25.9482 22.8483 26.2559 21.9277 26.2559H20.9365V31H19.1045ZM20.9365 24.7451H21.5654C21.9528 24.7451 22.2035 24.597 22.3174 24.3008C22.4359 24 22.4951 23.4303 22.4951 22.5918V22.3594C22.4906 21.6484 22.4268 21.1403 22.3037 20.835C22.1852 20.5296 21.9437 20.377 21.5791 20.377H20.9365V24.7451ZM25.5576 31V18.9688H28.3193C29.2536 18.9688 29.8916 19.2536 30.2334 19.8232C30.5798 20.3883 30.762 21.2337 30.7803 22.3594V22.6123C30.7803 23.8063 30.6094 24.7132 30.2676 25.333C29.9303 25.9482 29.3014 26.2559 28.3809 26.2559H27.3896V31H25.5576ZM27.3896 24.7451H28.0186C28.4059 24.7451 28.6566 24.597 28.7705 24.3008C28.889 24 28.9482 23.4303 28.9482 22.5918V22.3594C28.9437 21.6484 28.8799 21.1403 28.7568 20.835C28.6383 20.5296 28.3968 20.377 28.0322 20.377H27.3896V24.7451ZM32.0107 31V18.9688H33.8428V29.4414H36.1602V31H32.0107ZM38.1494 31V26.1943L36.1328 18.9688H37.8828L39.0723 23.4668H39.0996L40.1592 18.9688H41.9023L39.9814 26.1943V31H38.1494Z"/>
</g>
</g>
</svg>
