<svg width="45" height="95" viewBox="0 0 45 95" fill="none" xmlns="http://www.w3.org/2000/svg">

<g id="Group 5">
<rect id="Rectangle 2.1" y="3" width="45" height="92" fill="#848484"/>
<rect id="Rectangle 2" x="2" width="41" height="94" rx="3" fill="url(#SHIT-paint0_linear)"/>
<path id="Temp" d="M14.9023 8H14.3672V2.84766H12.5078V2.36328H16.7656V2.84766H14.9023V8ZM17.9648 4.32422C17.6029 4.32422 17.3047 4.45052 17.0703 4.70312C16.8385 4.95312 16.7122 5.27995 16.6914 5.68359H19.1992C19.194 5.27995 19.0781 4.95312 18.8516 4.70312C18.625 4.45052 18.3294 4.32422 17.9648 4.32422ZM19.168 6.84766H19.6797C19.6172 7.20443 19.4323 7.4974 19.125 7.72656C18.8203 7.95312 18.4466 8.06641 18.0039 8.06641C17.4336 8.06641 16.9831 7.88021 16.6523 7.50781C16.3216 7.13281 16.1562 6.6237 16.1562 5.98047C16.1562 5.34766 16.3216 4.83854 16.6523 4.45312C16.9831 4.0651 17.4232 3.87109 17.9727 3.87109C18.5091 3.87109 18.9362 4.05339 19.2539 4.41797C19.5716 4.78255 19.7305 5.26823 19.7305 5.875V6.09375H16.6875V6.125C16.6875 6.58333 16.8073 6.94661 17.0469 7.21484C17.2865 7.48047 17.6094 7.61328 18.0156 7.61328C18.3151 7.61328 18.5677 7.54297 18.7734 7.40234C18.9792 7.26172 19.1107 7.07682 19.168 6.84766ZM20.4219 8V3.9375H20.9102V4.6875H20.9219C21.013 4.4401 21.1615 4.24219 21.3672 4.09375C21.5729 3.94531 21.819 3.87109 22.1055 3.87109C22.3971 3.87109 22.6458 3.94922 22.8516 4.10547C23.0599 4.25911 23.2031 4.46615 23.2812 4.72656H23.293C23.3919 4.47135 23.5547 4.26562 23.7812 4.10938C24.0104 3.95052 24.2747 3.87109 24.5742 3.87109C24.9701 3.87109 25.2878 3.99479 25.5273 4.24219C25.7669 4.48698 25.8867 4.8138 25.8867 5.22266V8H25.3711V5.33984C25.3711 5.02474 25.2878 4.77865 25.1211 4.60156C24.9544 4.42188 24.724 4.33203 24.4297 4.33203C24.1302 4.33203 23.8854 4.4362 23.6953 4.64453C23.5078 4.85026 23.4141 5.11589 23.4141 5.44141V8H22.8945V5.29297C22.8945 5.00391 22.8086 4.77214 22.6367 4.59766C22.4674 4.42057 22.2435 4.33203 21.9648 4.33203C21.6654 4.33203 21.4193 4.44141 21.2266 4.66016C21.0339 4.87891 20.9375 5.16016 20.9375 5.50391V8H20.4219ZM28.6602 3.87109C29.1758 3.87109 29.5924 4.0638 29.9102 4.44922C30.2305 4.83203 30.3906 5.33854 30.3906 5.96875C30.3906 6.59896 30.2318 7.10677 29.9141 7.49219C29.599 7.875 29.1849 8.06641 28.6719 8.06641C28.3516 8.06641 28.0677 7.98438 27.8203 7.82031C27.5755 7.65365 27.3984 7.4349 27.2891 7.16406H27.2734V9.34375H26.7578V3.9375H27.2461V4.79688H27.2617C27.3763 4.52083 27.5573 4.29818 27.8047 4.12891C28.0521 3.95703 28.3372 3.87109 28.6602 3.87109ZM28.5703 7.60938C28.9635 7.60938 29.2773 7.46094 29.5117 7.16406C29.7461 6.86458 29.8633 6.46615 29.8633 5.96875C29.8633 5.47396 29.7448 5.07682 29.5078 4.77734C29.2734 4.47786 28.9609 4.32812 28.5703 4.32812C28.1849 4.32812 27.8724 4.48047 27.6328 4.78516C27.3932 5.08724 27.2734 5.48177 27.2734 5.96875C27.2734 6.45833 27.3932 6.85417 27.6328 7.15625C27.8724 7.45833 28.1849 7.60938 28.5703 7.60938Z" fill="#5B5B5F"/>

<path id="Redox" d="M13.1797 25.8398V28.2188H14.5938C15.0052 28.2188 15.3242 28.1146 15.5508 27.9062C15.7773 27.6979 15.8906 27.4049 15.8906 27.0273C15.8906 26.6549 15.7734 26.3646 15.5391 26.1562C15.3073 25.9453 14.9857 25.8398 14.5742 25.8398H13.1797ZM13.1797 28.6914V31H12.6484V25.3633H14.6367C15.1862 25.3633 15.6237 25.513 15.9492 25.8125C16.2773 26.1094 16.4414 26.5091 16.4414 27.0117C16.4414 27.4102 16.3346 27.7513 16.1211 28.0352C15.9076 28.319 15.612 28.5091 15.2344 28.6055L16.6016 31H15.9766L14.6797 28.6914H14.5938H13.1797ZM18.7578 27.3242C18.3958 27.3242 18.0977 27.4505 17.8633 27.7031C17.6315 27.9531 17.5052 28.2799 17.4844 28.6836H19.9922C19.987 28.2799 19.8711 27.9531 19.6445 27.7031C19.418 27.4505 19.1224 27.3242 18.7578 27.3242ZM19.9609 29.8477H20.4727C20.4102 30.2044 20.2253 30.4974 19.918 30.7266C19.6133 30.9531 19.2396 31.0664 18.7969 31.0664C18.2266 31.0664 17.776 30.8802 17.4453 30.5078C17.1146 30.1328 16.9492 29.6237 16.9492 28.9805C16.9492 28.3477 17.1146 27.8385 17.4453 27.4531C17.776 27.0651 18.2161 26.8711 18.7656 26.8711C19.3021 26.8711 19.7292 27.0534 20.0469 27.418C20.3646 27.7826 20.5234 28.2682 20.5234 28.875V29.0938H17.4805V29.125C17.4805 29.5833 17.6003 29.9466 17.8398 30.2148C18.0794 30.4805 18.4023 30.6133 18.8086 30.6133C19.1081 30.6133 19.3607 30.543 19.5664 30.4023C19.7721 30.2617 19.9036 30.0768 19.9609 29.8477ZM22.75 31.0664C22.2344 31.0664 21.8151 30.8737 21.4922 30.4883C21.1719 30.1029 21.0117 29.5964 21.0117 28.9688C21.0117 28.3385 21.1706 27.832 21.4883 27.4492C21.8086 27.0638 22.2253 26.8711 22.7383 26.8711C23.0586 26.8711 23.3424 26.9544 23.5898 27.1211C23.8398 27.2852 24.0195 27.5026 24.1289 27.7734H24.1406V25.3633H24.6602V31H24.168V30.1406H24.1562C24.0391 30.4193 23.8555 30.6432 23.6055 30.8125C23.3555 30.9818 23.0703 31.0664 22.75 31.0664ZM22.8398 27.3281C22.4492 27.3281 22.1354 27.4779 21.8984 27.7773C21.6615 28.0768 21.543 28.474 21.543 28.9688C21.543 29.4635 21.6615 29.8607 21.8984 30.1602C22.1354 30.4596 22.4492 30.6094 22.8398 30.6094C23.2279 30.6094 23.5417 30.4583 23.7812 30.1562C24.0234 29.8542 24.1445 29.4583 24.1445 28.9688C24.1445 28.4792 24.0234 28.0833 23.7812 27.7812C23.5417 27.4792 23.2279 27.3281 22.8398 27.3281ZM28.582 30.5C28.2435 30.8776 27.7956 31.0664 27.2383 31.0664C26.681 31.0664 26.2331 30.8776 25.8945 30.5C25.556 30.1198 25.3867 29.6094 25.3867 28.9688C25.3867 28.3281 25.556 27.819 25.8945 27.4414C26.2357 27.0612 26.6836 26.8711 27.2383 26.8711C27.7956 26.8711 28.2435 27.0612 28.582 27.4414C28.9206 27.819 29.0898 28.3281 29.0898 28.9688C29.0898 29.6094 28.9206 30.1198 28.582 30.5ZM26.2734 30.1719C26.513 30.4635 26.8346 30.6094 27.2383 30.6094C27.6419 30.6094 27.9635 30.4635 28.2031 30.1719C28.4453 29.8802 28.5664 29.4792 28.5664 28.9688C28.5664 28.4583 28.4453 28.0573 28.2031 27.7656C27.9635 27.474 27.6419 27.3281 27.2383 27.3281C26.8346 27.3281 26.513 27.474 26.2734 27.7656C26.0339 28.0573 25.9141 28.4583 25.9141 28.9688C25.9141 29.4792 26.0339 29.8802 26.2734 30.1719ZM31.0781 29.332H31.0664L29.9453 31H29.3672L30.793 28.957L29.3828 26.9375H29.9688L31.082 28.5664H31.0938L32.2031 26.9375H32.7852L31.3672 28.9375L32.7734 31H32.1914L31.0781 29.332Z" fill="#5B5B5F"/>

<path id="pH" d="M19.9727 49.8711C20.4883 49.8711 20.9049 50.0638 21.2227 50.4492C21.543 50.832 21.7031 51.3385 21.7031 51.9688C21.7031 52.599 21.5443 53.1068 21.2266 53.4922C20.9115 53.875 20.4974 54.0664 19.9844 54.0664C19.6641 54.0664 19.3802 53.9844 19.1328 53.8203C18.888 53.6536 18.7109 53.4349 18.6016 53.1641H18.5859V55.3438H18.0703V49.9375H18.5586V50.7969H18.5742C18.6888 50.5208 18.8698 50.2982 19.1172 50.1289C19.3646 49.957 19.6497 49.8711 19.9727 49.8711ZM19.8828 53.6094C20.276 53.6094 20.5898 53.4609 20.8242 53.1641C21.0586 52.8646 21.1758 52.4661 21.1758 51.9688C21.1758 51.474 21.0573 51.0768 20.8203 50.7773C20.5859 50.4779 20.2734 50.3281 19.8828 50.3281C19.4974 50.3281 19.1849 50.4805 18.9453 50.7852C18.7057 51.0872 18.5859 51.4818 18.5859 51.9688C18.5859 52.4583 18.7057 52.8542 18.9453 53.1562C19.1849 53.4583 19.4974 53.6094 19.8828 53.6094ZM26.8438 54H26.3086V51.3555H23.0117V54H22.4805V48.3633H23.0117V50.8711H26.3086V48.3633H26.8438V54Z" fill="#5B5B5F"/>

<path id="Chlor" d="M16.4844 77.0898C15.7161 77.0898 15.1055 76.8268 14.6523 76.3008C14.1992 75.7721 13.9727 75.0612 13.9727 74.168C13.9727 73.2852 14.1992 72.582 14.6523 72.0586C15.1081 71.5352 15.7188 71.2734 16.4844 71.2734C16.8776 71.2734 17.2383 71.3529 17.5664 71.5117C17.8971 71.6706 18.168 71.8932 18.3789 72.1797C18.5898 72.4661 18.7201 72.7904 18.7695 73.1523H18.2344C18.1562 72.7461 17.9544 72.4141 17.6289 72.1562C17.3034 71.8984 16.9219 71.7695 16.4844 71.7695C15.8854 71.7695 15.4076 71.987 15.0508 72.4219C14.6966 72.8542 14.5195 73.4362 14.5195 74.168C14.5195 74.9102 14.6966 75.5 15.0508 75.9375C15.4076 76.375 15.8867 76.5938 16.4883 76.5938C16.9388 76.5938 17.3216 76.4805 17.6367 76.2539C17.9518 76.0273 18.151 75.7201 18.2344 75.332H18.7695C18.6706 75.8815 18.418 76.3125 18.0117 76.625C17.6055 76.9349 17.0964 77.0898 16.4844 77.0898ZM19.5117 77V71.3633H20.0312V73.6875H20.043C20.1471 73.4349 20.3164 73.2357 20.5508 73.0898C20.7852 72.944 21.0625 72.8711 21.3828 72.8711C21.8255 72.8711 22.1784 73.0078 22.4414 73.2812C22.7044 73.5547 22.8359 73.9193 22.8359 74.375V77H22.3164V74.4609C22.3164 74.1068 22.2214 73.8307 22.0312 73.6328C21.8411 73.4323 21.5755 73.332 21.2344 73.332C20.8698 73.332 20.5781 73.4492 20.3594 73.6836C20.1406 73.918 20.0312 74.2266 20.0312 74.6094V77H19.5117ZM23.7383 77V71.3633H24.2539V77H23.7383ZM28.1719 76.5C27.8333 76.8776 27.3854 77.0664 26.8281 77.0664C26.2708 77.0664 25.8229 76.8776 25.4844 76.5C25.1458 76.1198 24.9766 75.6094 24.9766 74.9688C24.9766 74.3281 25.1458 73.819 25.4844 73.4414C25.8255 73.0612 26.2734 72.8711 26.8281 72.8711C27.3854 72.8711 27.8333 73.0612 28.1719 73.4414C28.5104 73.819 28.6797 74.3281 28.6797 74.9688C28.6797 75.6094 28.5104 76.1198 28.1719 76.5ZM25.8633 76.1719C26.1029 76.4635 26.4245 76.6094 26.8281 76.6094C27.2318 76.6094 27.5534 76.4635 27.793 76.1719C28.0352 75.8802 28.1562 75.4792 28.1562 74.9688C28.1562 74.4583 28.0352 74.0573 27.793 73.7656C27.5534 73.474 27.2318 73.3281 26.8281 73.3281C26.4245 73.3281 26.1029 73.474 25.8633 73.7656C25.6237 74.0573 25.5039 74.4583 25.5039 74.9688C25.5039 75.4792 25.6237 75.8802 25.8633 76.1719ZM29.3672 77V72.9375H29.8555V73.6602H29.8672C29.9427 73.4128 30.0703 73.2201 30.25 73.082C30.4297 72.9414 30.6445 72.8711 30.8945 72.8711C30.9935 72.8711 31.1003 72.8854 31.2148 72.9141V73.4219C31.1315 73.3828 31.0026 73.3633 30.8281 73.3633C30.5417 73.3633 30.3125 73.4648 30.1406 73.668C29.9688 73.8711 29.8828 74.138 29.8828 74.4688V77H29.3672Z" fill="#5B5B5F"/>

</g>
<g>
	<rect id="Rectangle" x="6.5" y="9.5" width="30" height="13" rx="3.5" fill="#5B5B5F" stroke="white"/>
	<g class="fault" format="%.0f" reference="TEMP">
	<text x="50%" y="20" font-size="12px" font-family="Antonio-Regular" text-anchor="middle">...</text>
	</g>
</g>
<g>
	<rect id="Rectangle_2" x="7.5" y="32.5" width="30" height="13" rx="3.5" fill="#5B5B5F" stroke="white"/>
	<g class="fault" format="%.0f" reference="REDOX">
	<text x="50%" y="43" font-size="12px" font-family="Antonio-Regular" text-anchor="middle">...</text>
	</g>
</g>
<g>
	<rect id="Rectangle_3" x="7.5" y="55.5" width="30" height="13" rx="3.5" fill="#5B5B5F" stroke="white"/>
	<g class="fault" format="%.0f" reference="PH">
	<text x="50%" y="67" font-size="12px" font-family="Antonio-Regular" text-anchor="middle">...</text>
	</g>
</g>
<g>
	<rect id="Rectangle_4" x="7.5" y="78.5" width="30" height="13" rx="3.5" fill="#5B5B5F" stroke="white"/>
	<g class="fault" format="%.0f" reference="CHLOR">
	<text x="50%" y="89" font-size="12px" font-family="Antonio-Regular" text-anchor="middle">...</text>
	</g>
</g>
<defs>
<linearGradient id="SHIT-paint0_linear" x1="2" y1="44.0253" x2="43" y2="44.0253" gradientUnits="userSpaceOnUse">
<stop stop-color="#848484"/>
<stop offset="0.220994" stop-color="white"/>
<stop offset="0.767956" stop-color="white"/>
<stop offset="1" stop-color="#5B5B5F"/>
</linearGradient>
</defs>
</svg>
