<svg width="40" height="40" viewBox="0 0 40 40" fill="none" xmlns="http://www.w3.org/2000/svg"><style>
        #TEM
        {
        	font-family: "Antonio-Regular";
			font-style: normal;
			font-weight: normal;
			font-size: 18px;
			text-align: center;
        }
   	</style>
<g id="TEM" class="click fault" format="%.1f" reference="TEMP-MIN">
<g id="flags">
<path id="Subtract" fill-rule="evenodd" clip-rule="evenodd" d="M40 20C40 31.0457 31.0457 40 20 40C8.9543 40 0 31.0457 0 20C0 8.95432 8.9543 0 20 0C31.0457 0 40 8.95432 40 20ZM37.3407 19.9946C37.3407 29.5751 29.5742 37.3415 19.9938 37.3415C10.4134 37.3415 2.64687 29.5751 2.64687 19.9946C2.64687 10.4141 10.4134 2.64766 19.9938 2.64766C29.5742 2.64766 37.3407 10.4141 37.3407 19.9946Z"/>
<path  d="M16.5527 29.0195C16.2044 28.7363 16.0303 28.3311 16.0303 27.8037C16.0303 27.2764 16.2028 26.8727 16.5479 26.5928C16.8962 26.3128 17.2982 26.1729 17.7539 26.1729C18.2129 26.1729 18.6149 26.3128 18.96 26.5928C19.3083 26.8727 19.4824 27.2764 19.4824 27.8037C19.4824 28.0641 19.432 28.3018 19.3311 28.5166C19.2334 28.7282 19.1032 28.8991 18.9404 29.0293C18.6051 29.3027 18.2096 29.4395 17.7539 29.4395C17.3014 29.4395 16.901 29.2995 16.5527 29.0195ZM18.5889 28.3799C18.6833 28.2236 18.7305 28.0462 18.7305 27.8477C18.7305 27.2715 18.4749 26.9167 17.9639 26.7832C17.8955 26.7637 17.8271 26.7539 17.7588 26.7539L17.5537 26.7832C17.0426 26.9167 16.7871 27.2633 16.7871 27.8232C16.7871 28.0316 16.8343 28.2155 16.9287 28.375C17.111 28.6875 17.3877 28.8438 17.7588 28.8438C17.762 28.8438 17.7653 28.8438 17.7686 28.8438C18.1331 28.8438 18.4066 28.6891 18.5889 28.3799ZM20.6006 27.8867C20.6006 27.2357 20.6543 26.7572 20.7617 26.4512C20.8691 26.1452 20.9863 25.9206 21.1133 25.7773C21.39 25.4648 21.7936 25.307 22.3242 25.3037C23.0664 25.307 23.5449 25.6341 23.7598 26.2852C23.8835 26.6595 23.9453 27.1576 23.9453 27.7793V28.7314H22.9541V27.7744C22.9541 27.2243 22.9232 26.8532 22.8613 26.6611C22.8027 26.4658 22.7311 26.3372 22.6465 26.2754C22.5618 26.2103 22.4544 26.1777 22.3242 26.1777C22.054 26.1777 21.8669 26.3063 21.7627 26.5635C21.6618 26.8174 21.6113 27.2194 21.6113 27.7695V31.4902C21.6113 32.1413 21.6569 32.597 21.748 32.8574C21.8424 33.1146 22.0215 33.2432 22.2852 33.2432C22.5521 33.2432 22.7295 33.113 22.8174 32.8525C22.9085 32.5921 22.9541 32.1364 22.9541 31.4854V30.5332H23.9551V31.4756C23.9551 32.3773 23.8314 33.0413 23.584 33.4678C23.3398 33.891 22.9118 34.1025 22.2998 34.1025C21.6878 34.1025 21.2516 33.8844 20.9912 33.4482C20.7308 33.0088 20.6006 32.348 20.6006 31.4658V27.8867Z"/>

</g>
<g>
<text x="50%" y="24" text-anchor="middle">...</text>
</g>
</g>
</svg>
