<svg width="40" height="40" viewBox="0 0 40 40" fill="none" xmlns="http://www.w3.org/2000/svg"><style>
        #TEM
        {
        	font-family: "Antonio-Regular";
			font-style: normal;
			font-weight: normal;
			font-size: 18px;
			text-align: center;
        }
   	</style>
<g id="TEM" class="click fault" format="%.0f" reference="TEMP-MIN">
<g id="flags">
<path id="Subtract" fill-rule="evenodd" clip-rule="evenodd" d="M40 20C40 31.0457 31.0457 40 20 40C8.9543 40 0 31.0457 0 20C0 8.95432 8.9543 0 20 0C31.0457 0 40 8.95432 40 20ZM37.3407 19.9946C37.3407 29.5751 29.5742 37.3415 19.9938 37.3415C10.4134 37.3415 2.64687 29.5751 2.64687 19.9946C2.64687 10.4141 10.4134 2.64766 19.9938 2.64766C29.5742 2.64766 37.3407 10.4141 37.3407 19.9946Z"/>
<path id="%" d="M21.3232 25.4062H22.1582L18.7402 34H17.8662L21.3232 25.4062ZM17.5684 27.0029C17.5684 26.6514 17.526 26.4105 17.4414 26.2803C17.3568 26.1501 17.1956 26.085 16.958 26.085C16.7204 26.085 16.5592 26.1517 16.4746 26.2852C16.39 26.4154 16.3477 26.6546 16.3477 27.0029V29.4248C16.3477 29.7829 16.39 30.0319 16.4746 30.1719C16.5625 30.3086 16.7236 30.377 16.958 30.377C17.1924 30.377 17.3519 30.3086 17.4365 30.1719C17.5244 30.0319 17.5684 29.7829 17.5684 29.4248V27.0029ZM15.4443 27.3398C15.4443 26.5781 15.555 26.0475 15.7764 25.748C15.9977 25.4486 16.3916 25.2988 16.958 25.2988C17.5277 25.2988 17.9232 25.4486 18.1445 25.748C18.3659 26.0475 18.4766 26.5781 18.4766 27.3398V29.0732C18.4766 29.848 18.3643 30.39 18.1396 30.6992C17.915 31.0085 17.5212 31.1631 16.958 31.1631C16.3981 31.1631 16.0059 31.0085 15.7812 30.6992C15.5566 30.39 15.4443 29.848 15.4443 29.0732V27.3398ZM21.5234 30.2744C21.5234 29.5127 21.6341 28.9821 21.8555 28.6826C22.0768 28.3831 22.4707 28.2334 23.0371 28.2334C23.6068 28.2334 24.0023 28.3831 24.2236 28.6826C24.445 28.9821 24.5557 29.5127 24.5557 30.2744V32.0078C24.5557 32.7826 24.4434 33.3245 24.2188 33.6338C23.9941 33.943 23.6003 34.0977 23.0371 34.0977C22.4772 34.0977 22.085 33.943 21.8604 33.6338C21.6357 33.3245 21.5234 32.7826 21.5234 32.0078V30.2744ZM23.6523 29.9375C23.6523 29.5859 23.61 29.3451 23.5254 29.2148C23.4408 29.0846 23.2796 29.0195 23.042 29.0195C22.8044 29.0195 22.6432 29.0863 22.5586 29.2197C22.474 29.3499 22.4316 29.5892 22.4316 29.9375V32.3594C22.4316 32.7174 22.474 32.9665 22.5586 33.1064C22.6465 33.2432 22.806 33.3115 23.0371 33.3115C23.2715 33.3115 23.4326 33.2432 23.5205 33.1064C23.6084 32.9665 23.6523 32.7174 23.6523 32.3594V29.9375Z"/>
</g>
<g>
<text x="50%" y="24" text-anchor="middle">...</text>
</g>
</g>
</svg>
