<svg width="102" height="150" viewBox="0 0 102 150" fill="none" xmlns="http://www.w3.org/2000/svg">
<g id="counter">
<g id="Group 2">
<path d="M7.64697 77L6.86572 74.8418H3.90674L3.12549 77H2.41748L5.0542 69.9541H5.71826L8.3501 77H7.64697ZM5.37158 70.7793L4.10693 74.2656H6.66553L5.40088 70.7793H5.37158ZM10.4399 74.3389L13.106 77H12.2563L9.78564 74.5244H9.75635V77H9.1167V71.9219H9.75635V74.2021H9.78564L12.1929 71.9219H13.0083L10.4399 74.3389ZM17.3833 71.9219V72.459H15.6548V77H15.0151V72.459H13.2866V71.9219H17.3833ZM18.8188 77H18.1792V71.9219H18.8188V76.0039H18.853L21.6802 71.9219H22.3198V77H21.6802V72.918H21.6509L18.8188 77ZM25.4937 72.4541H24.1606V74.1094H25.4009C25.7492 74.1094 26.0145 74.0361 26.1968 73.8896C26.3823 73.7432 26.4751 73.5316 26.4751 73.2549C26.4751 73.001 26.3888 72.804 26.2163 72.6641C26.047 72.5241 25.8062 72.4541 25.4937 72.4541ZM25.4497 74.6367H24.1606V76.4678H25.5669C25.9412 76.4678 26.2261 76.3896 26.4214 76.2334C26.6167 76.0771 26.7144 75.8477 26.7144 75.5449C26.7144 75.2454 26.6053 75.0192 26.3872 74.8662C26.1724 74.7132 25.8599 74.6367 25.4497 74.6367ZM23.521 77V71.9219H25.5718C26.047 71.9219 26.4214 72.0358 26.6948 72.2637C26.9683 72.4883 27.105 72.7992 27.105 73.1963C27.105 73.4762 27.0203 73.722 26.8511 73.9336C26.6851 74.1452 26.4735 74.2754 26.2163 74.3242V74.3584C26.5516 74.3975 26.8234 74.5244 27.0317 74.7393C27.2433 74.9541 27.3491 75.2275 27.3491 75.5596C27.3491 76.012 27.1929 76.3652 26.8804 76.6191C26.5711 76.873 26.1431 77 25.5962 77H23.521ZM31.7485 77V74.6367H28.9556V77H28.3159V71.9219H28.9556V74.0996H31.7485V71.9219H32.3882V77H31.7485ZM35.2397 76.5264C35.6857 76.5264 36.0617 76.388 36.3677 76.1113C36.6737 75.8346 36.8267 75.4945 36.8267 75.0908V74.5293L35.3228 74.6318C34.9224 74.6579 34.6147 74.7555 34.3999 74.9248C34.1851 75.0908 34.0776 75.3138 34.0776 75.5938C34.0776 75.8704 34.1851 76.0951 34.3999 76.2676C34.6147 76.4401 34.8947 76.5264 35.2397 76.5264ZM35.1079 77.083C34.6066 77.083 34.1997 76.9463 33.8872 76.6729C33.578 76.3962 33.4233 76.0365 33.4233 75.5938C33.4233 75.1576 33.5796 74.8125 33.8921 74.5586C34.2078 74.3047 34.6587 74.1582 35.2446 74.1191L36.8267 74.0215V73.582C36.8267 73.2142 36.716 72.9277 36.4946 72.7227C36.2733 72.5143 35.9657 72.4102 35.5718 72.4102C35.2007 72.4102 34.8979 72.4964 34.6636 72.6689C34.4325 72.8415 34.2892 73.0824 34.2339 73.3916H33.6089C33.6447 72.9294 33.84 72.555 34.1948 72.2686C34.5529 71.9821 35.0168 71.8389 35.5864 71.8389C36.1659 71.8389 36.6248 71.9902 36.9634 72.293C37.3019 72.5957 37.4712 73.0059 37.4712 73.5234V77H36.856V76.0332H36.8413C36.7013 76.349 36.4718 76.6029 36.1528 76.7949C35.8338 76.987 35.4855 77.083 35.1079 77.083ZM40.3618 74.5537H41.4995V72.459H40.3618C39.9907 72.459 39.6961 72.555 39.478 72.7471C39.2599 72.9391 39.1509 73.2012 39.1509 73.5332C39.1509 73.8359 39.2616 74.0817 39.4829 74.2705C39.7043 74.4593 39.9972 74.5537 40.3618 74.5537ZM41.4995 77V75.0908H40.4351L39.0435 77H38.2964L39.7759 74.9834C39.382 74.902 39.0728 74.7344 38.8481 74.4805C38.6235 74.2266 38.5112 73.9141 38.5112 73.543C38.5112 73.0449 38.6772 72.651 39.0093 72.3613C39.3446 72.0684 39.7938 71.9219 40.3569 71.9219H42.1392V77H41.4995Z" fill="#FF9500"></path>
<path d="M3.19385 107.954H5.59131C6.26514 107.954 6.81038 108.156 7.22705 108.56C7.64372 108.963 7.85205 109.492 7.85205 110.146C7.85205 110.801 7.64209 111.331 7.22217 111.738C6.80225 112.142 6.257 112.344 5.58643 112.344H3.85791V115H3.19385V107.954ZM3.85791 108.55V111.748H5.43506C5.97542 111.748 6.3986 111.606 6.70459 111.323C7.01383 111.04 7.16846 110.648 7.16846 110.146C7.16846 109.645 7.01546 109.255 6.70947 108.975C6.40348 108.691 5.97868 108.55 5.43506 108.55H3.85791ZM10.6743 110.405C10.2218 110.405 9.84912 110.563 9.55615 110.879C9.26644 111.191 9.10856 111.6 9.08252 112.104H12.2173C12.2108 111.6 12.0659 111.191 11.7827 110.879C11.4995 110.563 11.13 110.405 10.6743 110.405ZM12.1782 113.56H12.8179C12.7397 114.006 12.5086 114.372 12.1245 114.658C11.7437 114.941 11.2765 115.083 10.7231 115.083C10.0103 115.083 9.4471 114.85 9.03369 114.385C8.62028 113.916 8.41357 113.28 8.41357 112.476C8.41357 111.685 8.62028 111.048 9.03369 110.566C9.4471 110.081 9.99723 109.839 10.6841 109.839C11.3547 109.839 11.8885 110.067 12.2856 110.522C12.6828 110.978 12.8813 111.585 12.8813 112.344V112.617H9.07764V112.656C9.07764 113.229 9.22738 113.683 9.52686 114.019C9.82633 114.351 10.23 114.517 10.7378 114.517C11.1121 114.517 11.4279 114.429 11.6851 114.253C11.9422 114.077 12.1066 113.846 12.1782 113.56ZM15.479 114.526C15.925 114.526 16.3009 114.388 16.6069 114.111C16.9129 113.835 17.0659 113.494 17.0659 113.091V112.529L15.562 112.632C15.1616 112.658 14.854 112.756 14.6392 112.925C14.4243 113.091 14.3169 113.314 14.3169 113.594C14.3169 113.87 14.4243 114.095 14.6392 114.268C14.854 114.44 15.134 114.526 15.479 114.526ZM15.3472 115.083C14.8459 115.083 14.439 114.946 14.1265 114.673C13.8172 114.396 13.6626 114.036 13.6626 113.594C13.6626 113.158 13.8188 112.812 14.1313 112.559C14.4471 112.305 14.8979 112.158 15.4839 112.119L17.0659 112.021V111.582C17.0659 111.214 16.9552 110.928 16.7339 110.723C16.5125 110.514 16.2049 110.41 15.811 110.41C15.4399 110.41 15.1372 110.496 14.9028 110.669C14.6717 110.841 14.5285 111.082 14.4731 111.392H13.8481C13.884 110.929 14.0793 110.555 14.4341 110.269C14.7922 109.982 15.256 109.839 15.8257 109.839C16.4051 109.839 16.8641 109.99 17.2026 110.293C17.5412 110.596 17.7104 111.006 17.7104 111.523V115H17.0952V114.033H17.0806C16.9406 114.349 16.7111 114.603 16.3921 114.795C16.0731 114.987 15.7248 115.083 15.3472 115.083ZM20.2104 112.339L22.8765 115H22.0269L19.5562 112.524H19.5269V115H18.8872V109.922H19.5269V112.202H19.5562L21.9634 109.922H22.7788L20.2104 112.339ZM27.1538 109.922V110.459H25.4253V115H24.7856V110.459H23.0571V109.922H27.1538ZM28.5894 115H27.9497V109.922H28.5894V114.004H28.6235L31.4507 109.922H32.0903V115H31.4507V110.918H31.4214L28.5894 115ZM35.2642 110.454H33.9312V112.109H35.1714C35.5197 112.109 35.785 112.036 35.9673 111.89C36.1528 111.743 36.2456 111.532 36.2456 111.255C36.2456 111.001 36.1593 110.804 35.9868 110.664C35.8175 110.524 35.5767 110.454 35.2642 110.454ZM35.2202 112.637H33.9312V114.468H35.3374C35.7118 114.468 35.9966 114.39 36.1919 114.233C36.3872 114.077 36.4849 113.848 36.4849 113.545C36.4849 113.245 36.3758 113.019 36.1577 112.866C35.9429 112.713 35.6304 112.637 35.2202 112.637ZM33.2915 115V109.922H35.3423C35.8175 109.922 36.1919 110.036 36.4653 110.264C36.7388 110.488 36.8755 110.799 36.8755 111.196C36.8755 111.476 36.7909 111.722 36.6216 111.934C36.4556 112.145 36.244 112.275 35.9868 112.324V112.358C36.3221 112.397 36.5939 112.524 36.8022 112.739C37.0138 112.954 37.1196 113.228 37.1196 113.56C37.1196 114.012 36.9634 114.365 36.6509 114.619C36.3416 114.873 35.9136 115 35.3667 115H33.2915ZM41.519 115V112.637H38.7261V115H38.0864V109.922H38.7261V112.1H41.519V109.922H42.1587V115H41.519ZM45.0103 114.526C45.4562 114.526 45.8322 114.388 46.1382 114.111C46.4442 113.835 46.5972 113.494 46.5972 113.091V112.529L45.0933 112.632C44.6929 112.658 44.3853 112.756 44.1704 112.925C43.9556 113.091 43.8481 113.314 43.8481 113.594C43.8481 113.87 43.9556 114.095 44.1704 114.268C44.3853 114.44 44.6652 114.526 45.0103 114.526ZM44.8784 115.083C44.3771 115.083 43.9702 114.946 43.6577 114.673C43.3485 114.396 43.1938 114.036 43.1938 113.594C43.1938 113.158 43.3501 112.812 43.6626 112.559C43.9784 112.305 44.4292 112.158 45.0151 112.119L46.5972 112.021V111.582C46.5972 111.214 46.4865 110.928 46.2651 110.723C46.0438 110.514 45.7362 110.41 45.3423 110.41C44.9712 110.41 44.6685 110.496 44.4341 110.669C44.203 110.841 44.0597 111.082 44.0044 111.392H43.3794C43.4152 110.929 43.6105 110.555 43.9653 110.269C44.3234 109.982 44.7873 109.839 45.3569 109.839C45.9364 109.839 46.3953 109.99 46.7339 110.293C47.0724 110.596 47.2417 111.006 47.2417 111.523V115H46.6265V114.033H46.6118C46.4718 114.349 46.2424 114.603 45.9233 114.795C45.6043 114.987 45.256 115.083 44.8784 115.083ZM50.1323 112.554H51.27V110.459H50.1323C49.7612 110.459 49.4666 110.555 49.2485 110.747C49.0304 110.939 48.9214 111.201 48.9214 111.533C48.9214 111.836 49.0321 112.082 49.2534 112.271C49.4748 112.459 49.7677 112.554 50.1323 112.554ZM51.27 115V113.091H50.2056L48.814 115H48.0669L49.5464 112.983C49.1525 112.902 48.8433 112.734 48.6187 112.48C48.394 112.227 48.2817 111.914 48.2817 111.543C48.2817 111.045 48.4478 110.651 48.7798 110.361C49.1151 110.068 49.5643 109.922 50.1274 109.922H51.9097V115H51.27Z" fill="#FF9500"></path>
<path id="Vector" d="M2.7116 24.8809H39.5116C40.2227 24.8809 40.9338 25.192 41.4227 25.6809C41.9116 26.1697 42.2227 26.8809 42.2227 27.592V64.392C42.2227 65.1031 41.9116 65.8142 41.4227 66.3031C40.9338 66.792 40.2227 67.1031 39.5116 67.1031H2.7116C2.00049 67.1031 1.28938 66.792 0.800488 66.3031C0.311599 65.8142 0.000488281 65.1031 0.000488281 64.392V27.592C0.000488281 26.8809 0.311599 26.1697 0.800488 25.6809C1.28938 25.192 2.00049 24.8809 2.7116 24.8809ZM26.0005 38.5697H16.5783C16.2227 38.5697 15.956 38.4364 15.7338 38.2142C15.5116 37.992 15.3338 37.6809 15.3338 37.3697C15.3338 37.0142 15.5116 36.7031 15.7338 36.4809C15.9116 36.2586 16.2227 36.1253 16.5783 36.1253H26.0005C26.3116 36.1253 26.6227 36.2586 26.8449 36.4809C27.0672 36.7031 27.2005 37.0142 27.2005 37.3697C27.2005 37.6809 27.0672 37.992 26.8449 38.2142C26.6227 38.4364 26.3116 38.5697 26.0005 38.5697ZM27.7338 41.6364H14.8449C14.0449 41.6364 13.3783 41.3253 12.8449 40.792C12.356 40.3031 12.0449 39.592 12.0449 38.8364V35.8586C12.0449 35.1031 12.356 34.392 12.8449 33.9031C13.3783 33.4142 14.0449 33.1031 14.8449 33.1031H27.7338C28.4894 33.1031 29.2005 33.4142 29.7338 33.9031C30.2227 34.392 30.5338 35.1031 30.5338 35.8586V38.8364C30.5338 39.592 30.2227 40.3031 29.7338 40.792C29.2005 41.3253 28.4894 41.6364 27.7338 41.6364ZM14.8449 39.5475H27.7338C27.9116 39.5475 28.0894 39.4586 28.2227 39.3253C28.356 39.192 28.4449 39.0142 28.4449 38.8364V35.8586C28.4449 35.6809 28.356 35.5031 28.2227 35.3697C28.0894 35.2364 27.9116 35.192 27.7338 35.192H14.8449C14.6227 35.192 14.4449 35.2364 14.356 35.3697C14.2227 35.5031 14.1338 35.6809 14.1338 35.8586V38.8364C14.1338 39.0142 14.2227 39.192 14.356 39.3253C14.4449 39.4586 14.6227 39.5475 14.8449 39.5475ZM29.3338 55.1475H12.8894C12.5783 55.1475 12.2672 55.0142 12.0449 54.792C11.8227 54.5697 11.6894 54.2586 11.6894 53.9475C11.6894 53.592 11.8227 53.2809 12.0449 53.0586C12.2672 52.8364 12.5783 52.7031 12.8894 52.7031H29.3338C29.6449 52.7031 29.956 52.8364 30.1783 53.0586C30.4005 53.2809 30.5338 53.592 30.5338 53.9475C30.5338 54.2586 30.4005 54.5697 30.1783 54.792C29.956 55.0142 29.6449 55.1475 29.3338 55.1475ZM25.8227 58.7475H16.4005C16.0449 58.7475 15.7783 58.5697 15.556 58.3475C15.3338 58.1697 15.2005 57.8586 15.2005 57.5031C15.2005 57.192 15.3338 56.8809 15.556 56.6586C15.7783 56.4364 16.0449 56.3031 16.4005 56.3031H25.8227C26.1783 56.3031 26.4449 56.4364 26.6672 56.6586C26.8894 56.8809 27.0227 57.192 27.0227 57.5031C27.0227 57.8586 26.8894 58.1253 26.6672 58.3475C26.4449 58.5697 26.1783 58.7475 25.8227 58.7475ZM19.4227 48.5697H17.7783C17.556 48.5697 17.3338 48.4809 17.156 48.3475C16.9783 48.1697 16.8894 47.9475 16.8894 47.6809V44.3031C16.8894 44.0809 16.9783 43.8586 17.156 43.6809C17.3338 43.5031 17.556 43.4142 17.7783 43.4142H19.4227C19.6449 43.4142 19.8672 43.5031 20.0449 43.6809C20.1783 43.8586 20.3116 44.0809 20.3116 44.3031V47.6809C20.3116 47.9475 20.1783 48.1697 20.0449 48.3475C19.8672 48.4809 19.6449 48.5697 19.4227 48.5697ZM14.3116 48.5697H12.6672C12.4449 48.5697 12.2227 48.4809 12.0449 48.3475C11.9116 48.1697 11.7783 47.9475 11.7783 47.6809V44.3031C11.7783 44.0809 11.9116 43.8586 12.0449 43.6809C12.2227 43.5031 12.4449 43.4142 12.6672 43.4142H14.3116C14.5338 43.4142 14.756 43.5031 14.9338 43.6809C15.1116 43.8586 15.2005 44.0809 15.2005 44.3031V47.6809C15.2005 47.9475 15.1116 48.1697 14.9338 48.3475C14.756 48.4809 14.5338 48.5697 14.3116 48.5697ZM9.20049 48.5697H7.60049C7.33382 48.5697 7.1116 48.4809 6.93382 48.3475C6.80049 48.1697 6.7116 47.9475 6.7116 47.6809V44.3031C6.7116 44.0809 6.80049 43.8586 6.93382 43.6809H6.97827C7.1116 43.5031 7.33382 43.4142 7.60049 43.4142H9.20049C9.46715 43.4142 9.68938 43.5031 9.82271 43.6809C10.0005 43.8586 10.0894 44.0809 10.0894 44.3031V47.6809C10.0894 47.9475 10.0005 48.1697 9.82271 48.3475C9.64493 48.4809 9.42271 48.5697 9.20049 48.5697ZM34.7116 48.5697H33.1116C32.8449 48.5697 32.6227 48.4809 32.4449 48.3475C32.3116 48.1697 32.2227 47.9475 32.2227 47.6809V44.3031C32.2227 44.0809 32.3116 43.8586 32.4449 43.6809H32.4894C32.6227 43.5031 32.8449 43.4142 33.1116 43.4142H34.7116C34.9783 43.4142 35.2005 43.5031 35.3338 43.6809C35.5116 43.8586 35.6005 44.0809 35.6005 44.3031V47.6809C35.6005 47.9475 35.5116 48.1697 35.3338 48.3475C35.156 48.4809 34.9338 48.5697 34.7116 48.5697ZM29.6005 48.5697H28.0005C27.7338 48.5697 27.5116 48.4809 27.3783 48.3475C27.2005 48.1697 27.1116 47.9475 27.1116 47.6809V44.3031C27.1116 44.0809 27.2005 43.8586 27.3338 43.6809H27.3783C27.5116 43.5031 27.7338 43.4142 28.0005 43.4142H29.6005C29.8672 43.4142 30.0894 43.5031 30.2227 43.6809C30.4005 43.8586 30.4894 44.0809 30.4894 44.3031V47.6809C30.4894 47.9475 30.4005 48.1697 30.2227 48.3475C30.0894 48.4809 29.8227 48.5697 29.6005 48.5697ZM24.4894 48.5697H22.8894C22.6227 48.5697 22.4005 48.4809 22.2672 48.3475C22.0894 48.1697 22.0005 47.9475 22.0005 47.6809V44.3031C22.0005 44.0809 22.0894 43.8586 22.2672 43.6809C22.4449 43.5031 22.6672 43.4142 22.8894 43.4142H24.4894C24.756 43.4142 24.9783 43.5031 25.156 43.6809C25.2894 43.8586 25.3783 44.0809 25.3783 44.3031V47.6809C25.3783 47.9475 25.2894 48.1697 25.1116 48.3475C24.9783 48.4809 24.756 48.5697 24.4894 48.5697ZM21.1116 63.9475C16.1338 63.9475 11.6449 61.9475 8.40049 58.7031C5.15604 55.4586 3.15604 50.9697 3.15604 45.992C3.15604 41.0142 5.15604 36.5253 8.40049 33.2809C11.6449 30.0364 16.1338 28.0364 21.1116 28.0364C26.0894 28.0364 30.5783 30.0364 33.8227 33.2809C37.0672 36.5253 39.0672 41.0142 39.0672 45.992C39.0672 50.9697 37.0672 55.4586 33.8227 58.7031C30.5783 61.9475 26.0894 63.9475 21.1116 63.9475ZM9.86715 57.2364C12.756 60.0809 16.7116 61.8586 21.1116 61.8586C25.5116 61.8586 29.4672 60.0809 32.356 57.2364C35.2005 54.3475 36.9783 50.392 36.9783 45.992C36.9783 41.592 35.2005 37.6364 32.356 34.7475C29.4672 31.9031 25.5116 30.1253 21.1116 30.1253C16.7116 30.1253 12.756 31.9031 9.86715 34.7475C7.02271 37.6364 5.24493 41.592 5.24493 45.992C5.24493 50.392 7.02271 54.3475 9.86715 57.2364ZM39.5116 26.9697H2.7116C2.57827 26.9697 2.40049 27.0586 2.26715 27.1475C2.17827 27.2809 2.08938 27.4586 2.08938 27.592V64.392C2.08938 64.5253 2.17827 64.7031 2.26715 64.8364C2.40049 64.9253 2.57827 65.0142 2.7116 65.0142H39.5116C39.6449 65.0142 39.8227 64.9253 39.956 64.8364C40.0449 64.7031 40.1338 64.5253 40.1338 64.392V27.592C40.1338 27.4586 40.0449 27.2809 39.956 27.1475C39.8227 27.0586 39.6449 26.9697 39.5116 26.9697Z" fill="#BDBDBD"></path>
<line id="Line 2.1" x1="22.6118" y1="25" x2="22.6118" stroke="#BDBDBD"></line>
</g>
<g class="fault" format="%.1f" reference="COUNTER-A">
<text x="50%" y="100" font-size="18px" font-family="Antonio-Regular" text-anchor="middle">...</text>
</g>
<g class="fault" format="%.1f" reference="COUNTER-R">
<text x="50%" y="135" font-size="18px" font-family="Antonio-Regular" text-anchor="middle">...</text>
</g>
</g>
</svg>