<svg width="99" height="69" viewBox="0 0 99 69" fill="none" xmlns="http://www.w3.org/2000/svg">
<g id="elect">
<g id="Group">
<path d="M15.1621 10V2.9541H14.4932V6.08887H10.3721V2.9541H9.70801V10H10.3721V6.69434H14.4932V10H15.1621ZM18.1162 9.52637C17.4277 9.52637 16.9541 9.14551 16.9541 8.59375C16.9541 8.03223 17.3984 7.68555 18.1992 7.63184L19.7031 7.5293V8.09082C19.7031 8.89648 19.0049 9.52637 18.1162 9.52637ZM17.9844 10.083C18.7412 10.083 19.4346 9.66309 19.7178 9.0332H19.7324V10H20.3477V6.52344C20.3477 5.48828 19.6201 4.83887 18.4629 4.83887C17.3057 4.83887 16.5586 5.4834 16.4854 6.3916H17.1104C17.2227 5.77637 17.7012 5.41016 18.4482 5.41016C19.2393 5.41016 19.7031 5.84961 19.7031 6.58203V7.02148L18.1211 7.11914C16.9492 7.19727 16.2998 7.72461 16.2998 8.59375C16.2998 9.48242 16.9834 10.083 17.9844 10.083ZM24.9131 10H25.5527V4.92188H21.5244V10H22.1641V5.45898H24.9131V10ZM29.1416 4.83887C28.3164 4.83887 27.6719 5.32227 27.3936 5.99609H27.374V4.92188H26.7637V11.6797H27.4082V8.95508H27.4277C27.6963 9.61426 28.3359 10.083 29.1562 10.083C30.4307 10.083 31.3047 9.04297 31.3047 7.46094C31.3047 5.88379 30.4258 4.83887 29.1416 4.83887ZM29.0293 9.51172C28.0674 9.51172 27.4082 8.68652 27.4082 7.46094C27.4082 6.24023 28.0674 5.41016 29.0293 5.41016C30.0107 5.41016 30.6455 6.22559 30.6455 7.46094C30.6455 8.70117 30.0107 9.51172 29.0293 9.51172ZM33.9316 7.55371C33.1992 7.55371 32.7207 7.13867 32.7207 6.5332C32.7207 5.86914 33.1943 5.45898 33.9316 5.45898H35.0693V7.55371H33.9316ZM35.0693 10H35.709V4.92188H33.9268C32.8037 4.92188 32.0811 5.54199 32.0811 6.54297C32.0811 7.29004 32.5596 7.82227 33.3457 7.9834L31.8662 10H32.6133L34.0049 8.09082H35.0693V10ZM40.8506 7.33398L43.209 4.92188H42.4082L40.2109 7.20215H40.1816V4.92188H39.542V7.20215H39.5176L37.3203 4.92188H36.5098L38.8779 7.34375L36.4316 10H37.2617L39.5176 7.52441H39.542V10H40.1816V7.52441H40.2109L42.4668 10H43.3115L40.8506 7.33398ZM45.8701 5.40527C46.7881 5.40527 47.3984 6.10352 47.4131 7.10449H44.2783C44.332 6.10352 44.9619 5.40527 45.8701 5.40527ZM47.374 8.55957C47.2324 9.11621 46.7002 9.5166 45.9336 9.5166C44.9229 9.5166 44.2734 8.80371 44.2734 7.65625V7.61719H48.0771V7.34375C48.0771 5.83008 47.2275 4.83887 45.8799 4.83887C44.5029 4.83887 43.6094 5.89844 43.6094 7.47559C43.6094 9.08691 44.4932 10.083 45.9189 10.083C47.0371 10.083 47.8623 9.43848 48.0137 8.55957H47.374ZM52.4668 10H53.1064V4.92188H52.4668V7.09961H49.6738V4.92188H49.0342V10H49.6738V7.63672H52.4668V10ZM54.957 10L57.7891 5.91797H57.8184V10H58.458V4.92188H57.8184L54.9912 9.00391H54.957V4.92188H54.3174V10H54.957ZM61.6709 5.40527C62.5889 5.40527 63.1992 6.10352 63.2139 7.10449H60.0791C60.1328 6.10352 60.7627 5.40527 61.6709 5.40527ZM63.1748 8.55957C63.0332 9.11621 62.501 9.5166 61.7344 9.5166C60.7236 9.5166 60.0742 8.80371 60.0742 7.65625V7.61719H63.8779V7.34375C63.8779 5.83008 63.0283 4.83887 61.6807 4.83887C60.3037 4.83887 59.4102 5.89844 59.4102 7.47559C59.4102 9.08691 60.2939 10.083 61.7197 10.083C62.8379 10.083 63.6631 9.43848 63.8145 8.55957H63.1748Z" fill="#FF9500"></path>
<path id="L1" d="M4.85352 29.3945H1.32324V22.9541H0.65918V30H4.85352V29.3945ZM6.86035 30H7.50488V22.9541H6.85059C6.64062 23.0811 5.14648 24.1357 4.95117 24.2578V24.9707C5.15625 24.8438 6.68457 23.7695 6.84082 23.6719H6.86035V30Z" fill="#FF9500"></path>
<path id="L2" d="M4.85352 46.3945H1.32324V39.9541H0.65918V47H4.85352V46.3945ZM5.69824 41.9268V41.9316H6.34277V41.9268C6.35254 41.0674 7.03125 40.4277 7.93457 40.4277C8.79883 40.4277 9.48242 41.0332 9.48242 41.8047C9.48242 42.4199 9.22852 42.8398 8.22266 43.8994L5.73242 46.5312V47H10.3271V46.4043H6.66504V46.3848L8.62793 44.334C9.7998 43.1182 10.1465 42.5371 10.1465 41.7656C10.1465 40.6865 9.18457 39.8418 7.9541 39.8418C6.66504 39.8418 5.70801 40.7256 5.69824 41.9268Z" fill="#FF9500"></path>
<path id="L3" d="M4.85352 65.3945H1.32324V58.9541H0.65918V66H4.85352V65.3945ZM7.08496 62.6455H7.93457C9.06738 62.6455 9.76074 63.1924 9.76074 64.0908C9.76074 64.9258 9.01855 65.5264 7.99805 65.5264C6.98242 65.5264 6.27441 64.96 6.2207 64.1738H5.57617C5.62012 65.3018 6.58203 66.1123 8.00293 66.1123C9.375 66.1123 10.4395 65.2627 10.4395 64.0713C10.4395 63.0752 9.74609 62.4062 8.66699 62.3428V62.3232C9.56543 62.1621 10.1367 61.5273 10.1367 60.6436C10.1367 59.5986 9.2041 58.8418 7.96387 58.8418C6.69434 58.8418 5.80566 59.6035 5.72266 60.7363H6.36719C6.44043 59.9551 7.06055 59.4277 7.93457 59.4277C8.88672 59.4277 9.46289 59.9648 9.46289 60.7266C9.46289 61.5127 8.82812 62.0791 7.90527 62.0791H7.08496V62.6455Z" fill="#FF9500"></path>
</g>
<g class="fault" format="%.1f" reference="ELECT-L1">
<text x="60%" y="29" font-size="18px" font-family="Antonio-Regular" text-anchor="middle">...</text>
</g>
<g class="fault" format="%.1f" reference="ELECT-L2">
<text x="60%" y="48" font-size="18px" font-family="Antonio-Regular" text-anchor="middle">...</text>
</g>
<g class="fault" format="%.1f" reference="ELECT-L3">
<text x="60%" y="67" font-size="18px" font-family="Antonio-Regular" text-anchor="middle">...</text>
</g>
</g>
</svg>