<svg width="40" height="257" viewBox="0 0 40 257" fill="none" xmlns="http://www.w3.org/2000/svg">
<g id="km">
<g class="fault inactive" reference="KM-STATUS">
<g class="animation-display">
<path id="Vector" d="M9 117H31V119H21V127.347V253H22L20 257L18 253H19V127.347V119H9V117Z" fill="#BEBEBE"/>
<path id="Vector_2" fill-rule="evenodd" clip-rule="evenodd" d="M21 80H19V89H5V119H19V128V129H21V128V119H35V89H21V80ZM33 91.0001H6.99999V117H33V91.0001Z" fill="#BEBEBE"/>
<path id="Vector_3" d="M31 93H9V115H31V93Z" fill="#BEBEBE"/>
</g>
<g class="animation-hide">
<path id="Vector_4" d="M9 117H31V119H21V127.347V253H22L20 257L18 253H19V127.347V119H9V117Z" fill="white"/>
<path id="Vector_5" fill-rule="evenodd" clip-rule="evenodd" d="M21 80H19V89H5V119H19V128V129H21V128V119H35V89H21V80ZM33 91.0001H6.99999V117H33V91.0001Z" fill="white"/>
</g>
</g>
<g class="fault inactive" reference="KM-ALARM">
	<g class="animation-fail">
<path id="Vector_6" fill-rule="evenodd" clip-rule="evenodd" d="M21 80H19V89H5V119H19V128V129H21V128V119H35V89H21V80ZM8.99999 91.0001L33 115V91.0001H8.99999ZM6.99999 117H31L6.99999 93.0001V104V117Z"/>
</g>
</g>
<g class="click fault inactive" reference="KM-CONTROL">
<g id="flags">
<path id="Subtract" fill-rule="evenodd" clip-rule="evenodd" d="M40 20C40 31.0457 31.0457 40 20 40C8.9543 40 0 31.0457 0 20C0 8.95432 8.9543 0 20 0C31.0457 0 40 8.95432 40 20ZM37.3406 19.9946C37.3406 29.5751 29.5741 37.3416 19.9937 37.3416C10.4132 37.3416 2.64672 29.5751 2.64672 19.9946C2.64672 10.4142 10.4132 2.64768 19.9937 2.64768C29.5741 2.64768 37.3406 10.4142 37.3406 19.9946Z"/>
</g>
<g class="animation-display">
<path id="ON_2" d="M12.4854 16.7324C12.4854 14.9746 12.8018 13.7676 13.4346 13.1113C13.9326 12.5957 14.6562 12.3379 15.6055 12.3379C16.9883 12.3379 17.873 12.9062 18.2598 14.043C18.4883 14.7168 18.6025 15.6133 18.6025 16.7324V23.5527C18.6025 25.1641 18.377 26.3389 17.9258 27.0771C17.4746 27.8096 16.6836 28.1758 15.5527 28.1758C14.4277 28.1758 13.6338 27.8066 13.1709 27.0684C12.7139 26.3301 12.4854 25.1582 12.4854 23.5527V16.7324ZM16.7832 16.627C16.7832 15.6367 16.7041 14.9365 16.5459 14.5264C16.3877 14.1104 16.0684 13.9023 15.5879 13.9023C15.1074 13.9023 14.7734 14.1133 14.5859 14.5352C14.3984 14.957 14.3047 15.6514 14.3047 16.6182V23.5703C14.3047 24.748 14.3867 25.5508 14.5508 25.9785C14.7148 26.4004 15.0459 26.6113 15.5439 26.6113C16.042 26.6113 16.373 26.3975 16.5371 25.9697C16.7012 25.5361 16.7832 24.7363 16.7832 23.5703V16.627ZM25.7305 12.5312H27.3389V28H26.0029L22.5312 17.3828L22.6367 21.2852V28H20.958V12.5312H22.3291L25.915 23.0605L25.7305 18.5869V12.5312Z"/>
</g>
<g class="animation-hide">
<path id="OFF_2" d="M10.3848 16.7324C10.3848 14.9746 10.7012 13.7676 11.334 13.1113C11.832 12.5957 12.5557 12.3379 13.5049 12.3379C14.8877 12.3379 15.7725 12.9062 16.1592 14.043C16.3877 14.7168 16.502 15.6133 16.502 16.7324V23.5527C16.502 25.1641 16.2764 26.3389 15.8252 27.0771C15.374 27.8096 14.583 28.1758 13.4521 28.1758C12.3271 28.1758 11.5332 27.8066 11.0703 27.0684C10.6133 26.3301 10.3848 25.1582 10.3848 23.5527V16.7324ZM14.6826 16.627C14.6826 15.6367 14.6035 14.9365 14.4453 14.5264C14.2871 14.1104 13.9678 13.9023 13.4873 13.9023C13.0068 13.9023 12.6729 14.1133 12.4854 14.5352C12.2979 14.957 12.2041 15.6514 12.2041 16.6182V23.5703C12.2041 24.748 12.2861 25.5508 12.4502 25.9785C12.6143 26.4004 12.9453 26.6113 13.4434 26.6113C13.9414 26.6113 14.2725 26.3975 14.4365 25.9697C14.6006 25.5361 14.6826 24.7363 14.6826 23.5703V16.627ZM18.8486 12.5312H23.5068V14.0518H20.6592V18.9385H23.3311V20.4766H20.6592V28H18.8486V12.5312ZM25.4053 12.5312H30.0635V14.0518H27.2158V18.9385H29.8877V20.4766H27.2158V28H25.4053V12.5312Z"/>
</g>
</g>
<g class="fault inactive" reference="KM-HAND">
<g class="animation-hide">
<g id="Flade">
<path id="Subtract_2" fill-rule="evenodd" clip-rule="evenodd" d="M32.1004 128.108C29.8426 128.108 28.0123 126.293 28.0123 124.054C28.0123 121.815 29.8426 120 32.1004 120C34.3582 120 36.1885 121.815 36.1885 124.054C36.1885 126.293 34.3582 128.108 32.1004 128.108ZM32.1 127.095C30.4066 127.095 29.0339 125.734 29.0339 124.054C29.0339 122.375 30.4066 121.014 32.1 121.014C33.7933 121.014 35.166 122.375 35.166 124.054C35.166 125.734 33.7933 127.095 32.1 127.095Z"/>
</g>
<g id="Group">
<path id="Vector_7" d="M30.875 123.36C30.875 122.749 31.4172 122.253 32.0859 122.253C32.7547 122.253 33.2969 122.749 33.2969 123.36V132.542C33.2969 133.153 32.96 131.783 32.2912 131.783C31.6224 131.783 30.875 132.171 30.875 131.56V123.36Z" fill="white"/>
<path id="Vector_8" d="M28.2861 129.045C28.2861 128.433 28.8283 127.938 29.4971 127.938C30.1659 127.938 30.708 128.433 30.708 129.045V131.687C30.708 132.298 30.1659 132.491 29.4971 132.491C28.8283 132.491 28.2861 133.102 28.2861 132.491V129.045Z" fill="white"/>
<path id="Vector_9" d="M25.6602 129.983C25.6602 129.372 26.2023 128.876 26.8711 128.876C27.5399 128.876 28.082 129.372 28.082 129.983V132.67C28.082 133.282 27.5399 133.072 26.8711 133.072C26.2023 133.072 25.6602 133.996 25.6602 133.384V129.983Z" fill="white"/>
<path id="Vector_10" d="M22.9996 130.956C22.9996 130.344 23.5418 129.849 24.2106 129.849C24.8794 129.849 25.4215 130.344 25.4215 130.956V133.576C25.4215 134.187 26.8908 141.454 26.222 141.454C24.6669 141.399 22.9996 137.571 22.9996 136.834V130.956Z" fill="white"/>
<g id="Vector_11">
<mask id="path-15-inside-1" fill="white">
<path d="M35.4895 130.314C35.812 129.813 36.5175 129.745 37.0653 130.163C37.6132 130.58 37.7958 131.324 37.4734 131.825L36.1896 134.518C36.0012 135.668 32.9878 142.196 31.8384 141.549C30.689 140.902 32.9321 132.966 33.2546 132.465L35.4895 130.314Z"/>
</mask>
<path d="M35.4895 130.314C35.812 129.813 36.5175 129.745 37.0653 130.163C37.6132 130.58 37.7958 131.324 37.4734 131.825L36.1896 134.518C36.0012 135.668 32.9878 142.196 31.8384 141.549C30.689 140.902 32.9321 132.966 33.2546 132.465L35.4895 130.314Z" fill="white"/>
<path d="M35.4895 130.314L39.4676 133.343L39.1562 133.827L38.7491 134.219L35.4895 130.314ZM33.2546 132.465L29.2765 129.436L29.5879 128.952L29.995 128.561L33.2546 132.465ZM31.8384 141.549L33.9773 136.971L33.9773 136.971L31.8384 141.549ZM36.1896 134.518L31.4503 133.486L31.5738 132.732L31.8963 132.055L36.1896 134.518ZM37.4734 131.825L33.1801 129.362L33.3205 129.067L33.4953 128.796L37.4734 131.825ZM34.3584 134.367C35.4468 135.195 37.9401 135.715 39.4676 133.343L31.5114 127.285C33.6839 123.911 37.5882 124.296 39.7722 125.959L34.3584 134.367ZM38.7491 134.219L36.5141 136.369L29.995 128.561L32.2299 126.41L38.7491 134.219ZM37.2326 135.494C37.4139 135.213 37.5194 134.982 37.5424 134.932C37.5813 134.847 37.6041 134.79 37.6091 134.777C37.6194 134.751 37.6104 134.772 37.5809 134.859C37.5243 135.027 37.4389 135.299 37.3345 135.661C37.1266 136.382 36.8833 137.321 36.6838 138.249C36.4742 139.224 36.3577 139.983 36.3299 140.42C36.3139 140.67 36.347 140.535 36.2869 140.185C36.2555 140.002 36.164 139.548 35.89 138.997C35.6033 138.42 35.0227 137.56 33.9773 136.971L29.6995 146.127C27.3871 144.824 26.9253 142.385 26.8252 141.802C26.6689 140.891 26.6913 140.026 26.729 139.434C26.8085 138.185 27.0575 136.808 27.3053 135.655C27.5632 134.456 27.8693 133.276 28.1368 132.348C28.27 131.886 28.4038 131.451 28.5271 131.086C28.5875 130.907 28.6587 130.706 28.7367 130.508C28.7636 130.44 28.953 129.938 29.2765 129.436L37.2326 135.494ZM33.9773 136.971C31.9426 135.825 30.2356 136.743 29.8739 136.965C29.4314 137.238 29.2549 137.491 29.3503 137.376C29.4904 137.207 29.7974 136.752 30.2043 136.003C30.583 135.306 30.9442 134.547 31.2127 133.92C31.3469 133.607 31.4421 133.363 31.4989 133.204C31.5922 132.943 31.5122 133.108 31.4503 133.486L40.9289 135.551C40.8198 136.216 40.6045 136.837 40.4924 137.15C40.3439 137.566 40.1638 138.016 39.9711 138.466C39.5856 139.366 39.0864 140.415 38.5445 141.412C38.0308 142.358 37.3571 143.485 36.6031 144.394C36.2513 144.818 35.6494 145.484 34.8214 145.994C34.0741 146.454 32.0216 147.434 29.6995 146.127L33.9773 136.971ZM31.8963 132.055L33.1801 129.362L41.7666 134.288L40.4828 136.981L31.8963 132.055ZM33.4953 128.796C31.9678 131.168 33.27 133.538 34.3584 134.367L39.7722 125.959C41.9563 127.622 43.6239 131.48 41.4514 134.854L33.4953 128.796Z" fill="white" mask="url(#path-15-inside-1)"/>
</g>
<path id="Vector_12" d="M26.9517 141.52C24.798 141.52 24.0168 137.445 24.0168 134.733C25.2072 132.814 28.9837 131.81 32.5959 131.497C34.5759 131.691 32.5641 140.691 32.3702 141.206C32.1763 141.721 28.648 141.923 26.9517 141.52Z" fill="white"/>
</g>
</g>
</g>
</g>
</svg>
