<svg width="23" height="99" viewBox="0 0 23 99" fill="none" xmlns="http://www.w3.org/2000/svg">
<g class="fault inactive" reference="QF-STATUS">
<g  class="animation-display">
<path id="Vector" d="M22.001 11H0.000976562V9H10.001V0.653099V0H12.001V0.653099V9H22.001V11Z" fill="#FF0000"/>
<path id="Vector_2" d="M1.39385 29.9489L16.9502 14.3926L19.7786 17.221L16.9502 20.0494L19.7786 22.8779L14.1218 28.5347L11.2933 25.7063L7.75781 29.2418L4.22228 32.7774L1.39385 29.9489Z" fill="#FF0000"/>
<path id="Vector_3" d="M0.000976562 37H22.001V39H12.001V47.3469V95H13.001L11.001 99L9.00098 95H10.001V47.3469V39H0.000976562V37Z" fill="#FF0000"/>
</g>
<g  class="animation-hide">
<path id="Vector_4" d="M22.001 11H0.000976562V9H10.001V0.653099V0H12.001V0.653099V9H22.001V11Z" fill="#BEBEBE"/>
<path id="Vector_5" d="M22.001 13.002H0.000976562V35.002H22.001V13.002Z" fill="white"/>
<path id="Vector_6" d="M5.78613 20.5059H7.79003C7.91893 18.8301 9.04393 17.7872 10.8134 17.7872C12.5595 17.7872 13.6845 18.8536 13.6845 20.3067C13.6845 21.5606 13.1571 22.2989 11.7978 23.1309C10.1923 24.0919 9.44233 25.1465 9.45403 26.6934V27.7715H11.5048V27.0098C11.5048 25.7793 11.9267 25.1231 13.415 24.2442C14.915 23.3419 15.8642 22.0411 15.8642 20.2012C15.8642 17.7872 13.8486 15.959 10.8954 15.959C7.60253 15.959 5.91503 17.9747 5.78613 20.5059ZM10.4853 33.1153C11.247 33.1153 11.8212 32.5293 11.8212 31.7793C11.8212 31.0176 11.247 30.4434 10.4853 30.4434C9.73533 30.4434 9.14933 31.0176 9.14933 31.7793C9.14933 32.5293 9.73533 33.1153 10.4853 33.1153Z" fill="#BEBEBE"/>
<path id="Vector_7" d="M0.000976562 37H22.001V39H12.001V47.3469V95H13.001L11.001 99L9.00098 95H10.001V47.3469V39H0.000976562V37Z" fill="#BEBEBE"/>
</g>
</g>
</svg>
