<svg width="23" height="48" viewBox="0 0 23 48" fill="none" xmlns="http://www.w3.org/2000/svg">
<g class="fault inactive" reference="QF-ALARM">
	<g class="animation-display">
		<path id="Vector_4" d="M0 37H22V39H12L12 47.3469V48H10V47.3469L10 39H0V37Z" fill="#FF0000"/>
	<g class="animation-fail">
		<path id="Vector_5" d="M1.39287 29.9499L16.9492 14.3936L19.7776 17.222L16.9492 20.0504L19.7776 22.8788L14.1208 28.5357L11.2924 25.7073L7.75683 29.2428L4.2213 32.7783L1.39287 29.9499Z" fill="#FF0000"/>
	</g>
		<path id="Vector_6" d="M22 11H0V9H10V0.653099V0H12V0.653099V9H22V11Z" fill="#FF0000"/>
	</g>
	
	 <g id="o" class='animation-hide'>
     <g class="fault inactive" reference="QF-ON">
     <g class="animation-display">	
		<path id="Vector" d="M22 11H0V9H10V0.653099V0H12V0.653099V9H22V11Z" fill="#BEBEBE"/>
		<path id="Vector_2" d="M0 37H22V39H12L12 47.3469V48H10V47.3469L10 39H0V37Z" fill="#BEBEBE"/>
		<path id="Vector_3" d="M9 35V13H13V17H17V25H13V30V35H9Z" fill="#BEBEBE"/>
	</g>
	</g>
	</g>
	
	<g id="oo" class='animation-hide'>
    <g class="fault inactive" reference="QF-ON">
    <g class="qf-hide">
		<path id="Vector_4" d="M0 37H22V39H12L12 47.3469V48H10V47.3469L10 39H0V37Z" fill="white"/>
		<path id="Vector_5" d="M0 22H22V26H18V30H10V26H5H0V22Z" fill="white"/>
		<path id="Vector_6" d="M22 11H0V9H10V0.653099V0H12V0.653099V9H22V11Z" fill="white"/>
	</g>
	</g>
	</g>
</g>
</svg>

	
	
	
	
	
	
	
	
	
	
	
	
	
	
	
	
	
	
	
	
	
	

