<svg width="23" height="48" viewBox="0 0 23 48" fill="none" xmlns="http://www.w3.org/2000/svg">
<g class="fault inactive" reference="QF-STATUS">
<g  class="animation-display">
<path id="Vector" d="M0 37H22V39H12L12 47.3469V48H10V47.3469L10 39H0V37Z" fill="#FF0000"/>
<path id="Vector_2" d="M1.39287 29.9499L16.9492 14.3936L19.7776 17.222L16.9492 20.0504L19.7776 22.8788L14.1208 28.5357L11.2924 25.7073L7.75683 29.2428L4.2213 32.7783L1.39287 29.9499Z" fill="#FF0000"/>
<path id="Vector_3" d="M22 11H0V9H10V0.653099V0H12V0.653099V9H22V11Z" fill="#FF0000"/>
</g>
<g  class="animation-hide">
<path id="Vector_4" d="M22 11H0V9H10V0.653099V0H12V0.653099V9H22V11Z" fill="#BEBEBE"/>
<path id="Vector_5" d="M0 37H22V39H12L12 47.3469V48H10V47.3469L10 39H0V37Z" fill="#BEBEBE"/>
<path id="Vector_6" d="M22 13H0V35H22V13Z" fill="white"/>
<path id="Vector_7" d="M5.78516 20.5078H7.78906C7.91796 18.832 9.04296 17.7891 10.8125 17.7891C12.5586 17.7891 13.6836 18.8555 13.6836 20.3086C13.6836 21.5625 13.1562 22.3008 11.7969 23.1328C10.1914 24.0938 9.44136 25.1484 9.45306 26.6953V27.7734H11.5039V27.0117C11.5039 25.7812 11.9258 25.125 13.4141 24.2461C14.9141 23.3438 15.8633 22.043 15.8633 20.2031C15.8633 17.7891 13.8477 15.9609 10.8945 15.9609C7.60156 15.9609 5.91406 17.9766 5.78516 20.5078ZM10.4844 33.1172C11.2461 33.1172 11.8203 32.5312 11.8203 31.7812C11.8203 31.0195 11.2461 30.4453 10.4844 30.4453C9.73436 30.4453 9.14836 31.0195 9.14836 31.7812C9.14836 32.5312 9.73436 33.1172 10.4844 33.1172Z" fill="#BEBEBE"/>
</g>
</g>
</svg>
