<svg width="48" height="22" viewBox="0 0 48 22" fill="none" xmlns="http://www.w3.org/2000/svg">
<!-- off-->
<g class="fault inactive" reference="QF_OFF">
<g class='animation-display'>
<path d="M37 22L37 -4.80825e-07L39 -3.93402e-07L39 10L47.3469 10L48 10L48 12L47.3469 12L39 12L39 22L37 22Z" fill="white"/>
<path d="M26 0L26 22L22 22L22 18L18 18L18 10L22 10L22 5L22 -1.74846e-07L26 0Z" fill="white"/>
<path d="M11 0L11 22L9 22L9 12L0.653099 12L0.653099 10L9 10L9 -8.74228e-08L11 0Z" fill="white"/>
</g>
</g>
<!-- on-->
<g class="fault inactive" reference="QF_ON">
<g class='animation-display'>
<path d="M37 22L37 -4.80825e-07L39 -3.93402e-07L39 10L47.3469 10L48 10L48 12L47.3469 12L39 12L39 22L37 22Z" fill="#4CD964"/>
<path d="M11 0L11 22L9 22L9 12L0.653099 12L-5.24537e-07 12L-4.80825e-07 11L-4.37114e-07 10L0.653099 10L9 10L9 -8.74228e-08L11 0Z" fill="#4CD964"/>
<path d="M13 9L35 9L35 13L31 13L31 17L23 17L23 13L18 13L13 13L13 9Z" fill="#4CD964"/>
</g>
</g>
<!-- alarm-->

<g class="fault inactive" reference="QF_ALARM">
<g class='animation-fail'>
<path d="M37 22L37 -4.80825e-07L39 -3.93402e-07L39 10L47.3469 10L48 10L48 12L47.3469 12L39 12L39 22L37 22Z" fill="#FF0000"/>
<path d="M18.0501 1.39282L33.6064 16.9492L30.778 19.7776L27.9496 16.9492L25.1212 19.7776L19.4643 14.1208L22.2927 11.2924L18.7572 7.75678L15.2217 4.22125L18.0501 1.39282Z" fill="#FF0000"/>
<path d="M11 0L11 22L9 22L9 12L0.653099 12L-5.24537e-07 12L-4.80825e-07 11L-4.37114e-07 10L0.653099 10L9 10L9 -8.74228e-08L11 0Z" fill="#FF0000"/>
</g>
</g>
<!-- fault-->
<!--FAULT-->
<g class="fault" reference="QF_FAULT">
<g class='qf'>
<path d="M37 22L37 -4.80825e-07L39 -3.93402e-07L39 10L47.3469 10L48 10L48 12L47.3469 12L39 12L39 22L37 22Z" fill="white"/>
<path d="M35 22L35 0L13 -9.6165e-07L13 22L35 22Z" fill="white"/>
<path d="M19.4238 7.18704H21.4277C21.5566 5.51124 22.6816 4.46834 24.4511 4.46834C26.1972 4.46834 27.3222 5.53474 27.3222 6.98784C27.3222 8.24174 26.7948 8.98004 25.4355 9.81204C23.83 10.773 23.08 11.8276 23.0917 13.3745V14.4526H25.1425V13.6909C25.1425 12.4604 25.5644 11.8042 27.0527 10.9253C28.5527 10.023 29.5019 8.72224 29.5019 6.88234C29.5019 4.46834 27.4863 2.64014 24.5331 2.64014C21.2402 2.64014 19.5527 4.65584 19.4238 7.18704ZM24.123 19.7964C24.8847 19.7964 25.4589 19.2104 25.4589 18.4604C25.4589 17.6987 24.8847 17.1245 24.123 17.1245C23.373 17.1245 22.787 17.6987 22.787 18.4604C22.787 19.2104 23.373 19.7964 24.123 19.7964Z" fill="#BDBDBD"/>
<path d="M11 0L11 22L9 22L9 12L-5.24537e-07 12L-4.80825e-07 11L-4.37114e-07 10L9 10L9 -8.74228e-08L11 0Z" fill="white"/>
</g>
</g>
</svg>
