<svg width="1280" height="720" viewBox="0 0 1280 720" fill="none" xmlns="http://www.w3.org/2000/svg">
<path d="M134.477 364H1103L1070.31 398H103L134.477 364Z" fill="url(#paint0_linear)"/>
<rect x="136" y="296" width="967" height="68" fill="#848484"/>
<path d="M195 306V335H198V306H195Z" fill="url(#paint1_linear)"/>
<path d="M888.183 329.83L888.198 329.845H888.219H908.646C910.547 329.845 912.141 331.366 912.141 333.264V394.859C912.141 395.847 911.755 396.582 911.133 397.072C910.51 397.562 909.647 397.809 908.692 397.809H897.192H886.192C880.977 397.81 876.689 397.809 871.86 397.809C868.355 397.809 864.565 397.809 859.929 397.809C848.92 397.809 838.989 393.344 831.752 386.107C824.515 378.87 820.05 368.939 820.05 357.93C820.05 346.921 824.515 336.913 831.752 329.753L831.752 329.753C838.989 322.516 848.92 318.051 859.929 318.051C870.938 318.051 880.946 322.516 888.106 329.753L888.106 329.753L888.183 329.83ZM885.248 332.612L885.248 332.611C878.764 326.205 869.81 322.191 859.929 322.191C850.049 322.191 841.095 326.205 834.688 332.612C828.204 339.096 824.19 348.05 824.19 357.93C824.19 367.81 828.204 376.765 834.688 383.172C841.095 389.656 850.049 393.67 859.929 393.67C869.81 393.67 878.764 389.656 885.248 383.172C891.655 376.765 895.669 367.811 895.669 357.93C895.669 348.05 891.655 339.096 885.248 332.612Z" fill="url(#paint2_linear)" stroke="#848484" stroke-width="0.1"/>
<circle cx="860.191" cy="357.859" r="36" transform="rotate(-180 860.191 357.859)" fill="#808080"/>
<path d="M494 328.5L526 296V365L494 398V328.5Z" fill="#007AFF"/>
<path d="M526 296H536L504 328H494L526 296Z" fill="#A9A9A9"/>
<path d="M526 365H536L504 397.5H494L526 365Z" fill="#3592F7"/>
<path d="M504 328L536 296V365L504 398V328Z" fill="#848484"/>
<path d="M506 328L535 299V364L506 394V328Z" fill="#BB5F5F"/>
<rect x="494" y="328" width="10" height="70" fill="#A1A1A1"/>
<path d="M552.238 356.139C553.432 356.139 554.599 355.889 555.765 355.361C556.627 354.972 557.46 354.778 558.293 354.778C558.515 354.778 558.71 354.805 558.877 354.833C558.765 354.944 558.015 355.694 558.015 355.778C558.015 356.028 558.404 356.083 558.543 356.083C559.238 356.083 561.515 354.639 562.099 354.333C562.293 354.222 562.293 353.944 562.099 353.833C561.488 353.5 559.127 352.111 558.543 352.111C558.404 352.111 558.015 352.166 558.015 352.389C558.015 352.5 558.904 353.389 558.988 353.444C558.738 353.444 558.488 353.444 558.293 353.444C557.099 353.444 555.932 353.694 554.765 354.222C553.904 354.583 553.071 354.778 552.238 354.778C550.182 354.778 550.154 353.722 549.21 354.778C548.21 355.916 551.043 356.139 552.238 356.139ZM552.238 344.583C553.432 344.583 554.599 344.333 555.765 343.805C556.627 343.416 557.46 343.222 558.293 343.222C558.515 343.222 558.71 343.25 558.877 343.278C558.765 343.389 558.015 344.139 558.015 344.25C558.015 344.472 558.404 344.528 558.543 344.528C559.238 344.528 561.515 343.083 562.099 342.778C562.293 342.666 562.293 342.389 562.099 342.278C561.488 341.972 559.127 340.555 558.543 340.555C558.404 340.555 558.015 340.611 558.015 340.833C558.015 340.944 558.904 341.833 558.988 341.889C558.738 341.889 558.488 341.889 558.293 341.889C557.099 341.889 555.932 342.139 554.765 342.666C553.904 343.055 553.071 343.222 552.238 343.222C550.182 343.222 550.154 342.194 549.21 343.25C548.21 344.361 551.043 344.583 552.238 344.583ZM552.238 350.389C553.432 350.389 554.599 350.111 555.765 349.611C556.627 349.222 557.46 349.028 558.293 349.028C558.515 349.028 558.71 349.028 558.877 349.055C558.765 349.194 558.015 349.916 558.015 350.028C558.015 350.25 558.404 350.305 558.543 350.305C559.238 350.305 561.515 348.889 562.099 348.583C562.293 348.472 562.293 348.166 562.099 348.055C561.488 347.75 559.127 346.333 558.543 346.333C558.404 346.333 558.015 346.416 558.015 346.639C558.015 346.75 558.904 347.611 558.988 347.694C558.738 347.666 558.488 347.666 558.293 347.666C557.099 347.666 555.932 347.944 554.765 348.444C553.904 348.833 553.071 349.028 552.238 349.028C550.182 349.028 550.154 347.972 549.21 349.028C548.21 350.166 551.043 350.389 552.238 350.389Z" fill="#00BFFF"/>
<path d="M541.082 349.402L546.992 348.518L541.259 347.668L550.035 343.952L540.339 345.014L545.045 341.298L539.666 343.422L545.399 335.813L537.543 341.581L539.772 335.99L536.163 340.52L537.331 331.071L533.402 339.989L532.518 334.079L531.668 339.812L527.952 331L529.014 340.697L525.298 335.99L527.422 341.369L519.813 335.636L525.581 343.492L519.99 341.263L524.52 344.873L515.071 343.705L523.989 347.633L518.079 348.518L523.812 349.367L515 353.083L524.697 352.021L519.99 355.737L525.369 353.614L519.636 361.222L527.492 355.454L525.263 361.045L528.873 356.516L527.74 365.965L531.668 357.047L532.553 362.957L533.402 357.223L537.118 366L536.057 356.303L539.772 361.01L537.649 355.631L545.258 361.364L539.489 353.508L545.081 355.737L540.551 352.127L550 353.295L541.082 349.402ZM532.518 356.728C527.988 356.728 524.307 353.048 524.307 348.518C524.307 343.988 527.988 340.307 532.518 340.307C537.047 340.307 540.728 343.988 540.728 348.518C540.728 353.048 537.047 356.728 532.518 356.728Z" fill="#00BFFF"/>
<path d="M540 348.5C540 352.642 536.642 356 532.5 356C528.358 356 525 352.642 525 348.5C525 344.358 528.358 341 532.5 341C536.642 341 540 344.358 540 348.5Z" fill="#00BFFF"/>
<path d="M459 347.151V460H465V347.151C463 346.95 461.5 346.95 459 347.151Z" fill="url(#paint3_linear)"/>
<path d="M450 547L450 527L444 527L444 547L450 547Z" fill="url(#paint4_linear)"/>
<path d="M500.579 340H466V346H500.579C503.598 343.967 504.009 342.463 500.579 340Z" fill="url(#paint5_linear)"/>
<path d="M465.224 340.037L465.001 346L463.668 340.037H465.224Z" fill="url(#paint6_linear)"/>
<path d="M463.668 340.037L465 346L460.558 340.811C461.671 340.073 462.305 339.916 463.668 340.037Z" fill="url(#paint7_linear)"/>
<path d="M459 347V346H465V347H459Z" fill="url(#paint8_linear)"/>
<path d="M466 346H465V340H466V346Z" fill="url(#paint9_linear)"/>
<path d="M459.003 346.227L465.001 346L459.003 344.679V346.227Z" fill="url(#paint10_linear)"/>
<path d="M459.002 344.679L465 346L460.557 340.811C459.231 341.727 458.976 342.645 459.002 344.679Z" fill="url(#paint11_linear)"/>
<path d="M500.661 386H486V392H500.661C503.12 389.852 504.376 388.974 500.661 386Z" fill="url(#paint12_linear)"/>
<path d="M485.223 386.037L485 392L483.667 386.037H485.223Z" fill="url(#paint13_linear)"/>
<path d="M483.667 386.037L484.999 392L480.557 386.811C481.67 386.073 482.304 385.916 483.667 386.037Z" fill="url(#paint14_linear)"/>
<path d="M479 393V392H485V393H479Z" fill="url(#paint15_linear)"/>
<path d="M486 392H485V386H486V392Z" fill="url(#paint16_linear)"/>
<path d="M479.002 392.227L485 392L479.002 390.679V392.227Z" fill="url(#paint17_linear)"/>
<path d="M479.002 390.679L485 392L480.557 386.811C479.231 387.727 478.976 388.645 479.002 390.679Z" fill="url(#paint18_linear)"/>
<path d="M479 393V547H485V393H479Z" fill="url(#paint19_linear)"/>
<path d="M292 328.5L324 296V365L292 398V328.5Z" fill="#007AFF"/>
<path d="M324 296H334L302 328H292L324 296Z" fill="#A9A9A9"/>
<path d="M324 365H334L302 397.5H292L324 365Z" fill="#3592F7"/>
<path d="M302 328L334 296V365L302 398V328Z" fill="#848484"/>
<path d="M304 328L333 299V364L304 394V328Z" fill="#C0A57F"/>
<rect x="292" y="328" width="10" height="70" fill="#A1A1A1"/>
<path d="M329.155 333.278C328.849 342.306 328.849 351.361 329.155 360.389C329.155 360.75 330.099 361.278 330.127 360.917C330.433 351.528 330.433 342.139 330.127 332.75C330.099 332.389 329.155 332.917 329.155 333.278ZM317.738 331.833C317.738 330.278 318.877 331.528 320.349 332.333C323.683 330.556 321.155 330.556 324.488 332.333C327.794 330.556 325.294 330.556 328.599 332.333C330.072 331.528 331.211 330.278 331.211 331.833C331.211 341.833 331.488 351.833 331.211 361.833C331.183 363.056 328.988 361.556 328.599 361.333C325.183 363.167 327.905 363.167 324.488 361.333C321.072 363.167 323.766 363.167 320.349 361.333C318.461 362.361 317.738 363.583 317.738 361.833V331.833ZM319.794 333.278C319.794 332.917 318.849 332.389 318.849 332.75C318.516 342.139 318.516 351.528 318.849 360.917C318.849 361.278 319.794 360.75 319.794 360.389C320.127 351.361 320.127 342.306 319.794 333.278ZM321.849 360.917C322.183 351.528 322.183 342.139 321.849 332.75C321.849 332.389 320.905 332.917 320.905 333.278C320.572 342.306 320.599 351.361 320.905 360.389C320.905 360.75 321.849 361.278 321.849 360.917ZM323.933 333.278C323.905 332.917 322.988 332.389 322.961 332.75C322.627 342.139 322.627 351.528 322.961 360.917C322.988 361.278 323.905 360.75 323.933 360.389C324.238 351.361 324.238 342.306 323.933 333.278ZM325.988 360.917C326.322 351.528 326.322 342.139 325.988 332.75C325.988 332.389 325.044 332.917 325.016 333.278C324.711 342.306 324.711 351.361 325.016 360.389C325.044 360.75 325.988 361.278 325.988 360.917ZM328.044 333.278C328.044 332.917 327.099 332.389 327.099 332.75C326.766 342.139 326.766 351.528 327.099 360.917C327.099 361.278 328.044 360.75 328.044 360.389C328.377 351.361 328.377 342.306 328.044 333.278Z" fill="#00BFFF"/>
<path d="M336.238 355.139C337.432 355.139 338.599 354.889 339.765 354.361C340.627 353.972 341.46 353.778 342.293 353.778C342.515 353.778 342.71 353.805 342.877 353.833C342.765 353.944 342.015 354.694 342.015 354.778C342.015 355.028 342.404 355.083 342.543 355.083C343.238 355.083 345.515 353.639 346.099 353.333C346.293 353.222 346.293 352.944 346.099 352.833C345.488 352.5 343.127 351.111 342.543 351.111C342.404 351.111 342.015 351.166 342.015 351.389C342.015 351.5 342.904 352.389 342.988 352.444C342.738 352.444 342.488 352.444 342.293 352.444C341.099 352.444 339.932 352.694 338.765 353.222C337.904 353.583 337.071 353.778 336.238 353.778C334.182 353.778 334.154 352.722 333.21 353.778C332.21 354.916 335.043 355.139 336.238 355.139ZM336.238 343.583C337.432 343.583 338.599 343.333 339.765 342.805C340.627 342.416 341.46 342.222 342.293 342.222C342.515 342.222 342.71 342.25 342.877 342.278C342.765 342.389 342.015 343.139 342.015 343.25C342.015 343.472 342.404 343.528 342.543 343.528C343.238 343.528 345.515 342.083 346.099 341.778C346.293 341.666 346.293 341.389 346.099 341.278C345.488 340.972 343.127 339.555 342.543 339.555C342.404 339.555 342.015 339.611 342.015 339.833C342.015 339.944 342.904 340.833 342.988 340.889C342.738 340.889 342.488 340.889 342.293 340.889C341.099 340.889 339.932 341.139 338.765 341.666C337.904 342.055 337.071 342.222 336.238 342.222C334.182 342.222 334.154 341.194 333.21 342.25C332.21 343.361 335.043 343.583 336.238 343.583ZM336.238 349.389C337.432 349.389 338.599 349.111 339.765 348.611C340.627 348.222 341.46 348.028 342.293 348.028C342.515 348.028 342.71 348.028 342.877 348.055C342.765 348.194 342.015 348.916 342.015 349.028C342.015 349.25 342.404 349.305 342.543 349.305C343.238 349.305 345.515 347.889 346.099 347.583C346.293 347.472 346.293 347.166 346.099 347.055C345.488 346.75 343.127 345.333 342.543 345.333C342.404 345.333 342.015 345.416 342.015 345.639C342.015 345.75 342.904 346.611 342.988 346.694C342.738 346.666 342.488 346.666 342.293 346.666C341.099 346.666 339.932 346.944 338.765 347.444C337.904 347.833 337.071 348.028 336.238 348.028C334.182 348.028 334.154 346.972 333.21 348.028C332.21 349.166 335.043 349.389 336.238 349.389Z" fill="#00BFFF"/>
<rect x="255" y="297" width="5" height="68" fill="#A9C7C9"/>
<rect x="247" y="297" width="5" height="68" fill="#A9C7C9"/>
<path d="M247 297H252L221 329H216L247 297Z" fill="#C4C4C4"/>
<path d="M255 297H260L229 329H224L255 297Z" fill="#C4C4C4"/>
<path d="M247 358H260L229 390H216L247 358Z" fill="url(#paint20_linear)"/>
<path d="M247 326H260L229 358H216L247 326Z" fill="url(#paint21_linear)"/>
<path d="M247 342H260L229 374H216L247 342Z" fill="url(#paint22_linear)"/>
<path d="M247 310H260L229 342H216L247 310Z" fill="url(#paint23_linear)"/>
<rect x="216" y="358" width="13" height="1" fill="#BEBEBE"/>
<rect x="216" y="342" width="13" height="1" fill="#BEBEBE"/>
<rect x="216" y="390" width="13" height="1" fill="#BEBEBE"/>
<rect x="216" y="374" width="13" height="1" fill="#BEBEBE"/>
<rect x="224" y="329" width="5" height="70" fill="#CFE2E9"/>
<rect x="216" y="329" width="5" height="70" fill="#CFE2E9"/>
<circle cx="218.5" cy="342.5" r="1.5" fill="#C4C4C4"/>
<circle cx="226.5" cy="342.5" r="1.5" fill="#C4C4C4"/>
<circle cx="218.5" cy="358.5" r="1.5" fill="#C4C4C4"/>
<circle cx="226.5" cy="358.5" r="1.5" fill="#C4C4C4"/>
<circle cx="218.5" cy="390.5" r="1.5" fill="#C4C4C4"/>
<circle cx="226.5" cy="390.5" r="1.5" fill="#C4C4C4"/>
<circle cx="218.5" cy="374.5" r="1.5" fill="#C4C4C4"/>
<circle cx="226.5" cy="374.5" r="1.5" fill="#C4C4C4"/>
<path d="M134.477 296H1103L1070.31 328H103L134.477 296Z" fill="white" fill-opacity="0.5"/>
<defs>
<linearGradient id="paint0_linear" x1="603" y1="364" x2="603" y2="409.333" gradientUnits="userSpaceOnUse">
<stop stop-color="#A6A5A5"/>
<stop offset="1" stop-color="white"/>
</linearGradient>
<linearGradient id="paint1_linear" x1="195" y1="320.5" x2="198" y2="320.5" gradientUnits="userSpaceOnUse">
<stop stop-color="#4F4F4F"/>
<stop offset="0.519337" stop-color="#BDBDBD"/>
<stop offset="1" stop-color="#4F4F4F"/>
</linearGradient>
<linearGradient id="paint2_linear" x1="897.546" y1="329.642" x2="898.317" y2="385.527" gradientUnits="userSpaceOnUse">
<stop stop-color="#848484"/>
<stop offset="0.499267" stop-color="white"/>
<stop offset="1" stop-color="#848484"/>
</linearGradient>
<linearGradient id="paint3_linear" x1="459" y1="403.575" x2="465" y2="403.575" gradientUnits="userSpaceOnUse">
<stop stop-color="#848484"/>
<stop offset="0.519337" stop-color="white"/>
<stop offset="1" stop-color="#848484"/>
</linearGradient>
<linearGradient id="paint4_linear" x1="450" y1="536.987" x2="444" y2="536.987" gradientUnits="userSpaceOnUse">
<stop stop-color="#848484"/>
<stop offset="0.519337" stop-color="white"/>
<stop offset="1" stop-color="#848484"/>
</linearGradient>
<linearGradient id="paint5_linear" x1="483.29" y1="340" x2="483.29" y2="346" gradientUnits="userSpaceOnUse">
<stop stop-color="#848484"/>
<stop offset="0.519337" stop-color="white"/>
<stop offset="1" stop-color="#848484"/>
</linearGradient>
<linearGradient id="paint6_linear" x1="465.224" y1="340.037" x2="465.224" y2="346.226" gradientUnits="userSpaceOnUse">
<stop stop-color="#848484"/>
<stop offset="0.478645" stop-color="white"/>
<stop offset="1" stop-color="#848484"/>
</linearGradient>
<linearGradient id="paint7_linear" x1="462.89" y1="340.037" x2="463.66" y2="346.227" gradientUnits="userSpaceOnUse">
<stop stop-color="#848484"/>
<stop offset="0.491713" stop-color="white"/>
<stop offset="1" stop-color="#848484"/>
</linearGradient>
<linearGradient id="paint8_linear" x1="459" y1="346.5" x2="465" y2="346.5" gradientUnits="userSpaceOnUse">
<stop stop-color="#848484"/>
<stop offset="0.476897" stop-color="white"/>
<stop offset="1" stop-color="#848484"/>
</linearGradient>
<linearGradient id="paint9_linear" x1="465.5" y1="346" x2="465.5" y2="340" gradientUnits="userSpaceOnUse">
<stop stop-color="#848484"/>
<stop offset="0.508099" stop-color="white"/>
<stop offset="1" stop-color="#848484"/>
</linearGradient>
<linearGradient id="paint10_linear" x1="459.003" y1="346.227" x2="464.44" y2="344.275" gradientUnits="userSpaceOnUse">
<stop stop-color="#848484"/>
<stop offset="0.526042" stop-color="white"/>
<stop offset="1" stop-color="#848484"/>
</linearGradient>
<linearGradient id="paint11_linear" x1="459.002" y1="343.906" x2="464.521" y2="346.297" gradientUnits="userSpaceOnUse">
<stop stop-color="#848484"/>
<stop offset="0.491713" stop-color="white"/>
<stop offset="1" stop-color="#848484"/>
</linearGradient>
<linearGradient id="paint12_linear" x1="493.331" y1="386" x2="493.331" y2="392" gradientUnits="userSpaceOnUse">
<stop stop-color="#848484"/>
<stop offset="0.519337" stop-color="white"/>
<stop offset="1" stop-color="#848484"/>
</linearGradient>
<linearGradient id="paint13_linear" x1="485.223" y1="386.037" x2="485.223" y2="392.226" gradientUnits="userSpaceOnUse">
<stop stop-color="#848484"/>
<stop offset="0.478645" stop-color="white"/>
<stop offset="1" stop-color="#848484"/>
</linearGradient>
<linearGradient id="paint14_linear" x1="482.889" y1="386.037" x2="483.659" y2="392.227" gradientUnits="userSpaceOnUse">
<stop stop-color="#848484"/>
<stop offset="0.491713" stop-color="white"/>
<stop offset="1" stop-color="#848484"/>
</linearGradient>
<linearGradient id="paint15_linear" x1="479" y1="392.5" x2="485" y2="392.5" gradientUnits="userSpaceOnUse">
<stop stop-color="#848484"/>
<stop offset="0.476897" stop-color="white"/>
<stop offset="1" stop-color="#848484"/>
</linearGradient>
<linearGradient id="paint16_linear" x1="485.5" y1="392" x2="485.5" y2="386" gradientUnits="userSpaceOnUse">
<stop stop-color="#848484"/>
<stop offset="0.508099" stop-color="white"/>
<stop offset="1" stop-color="#848484"/>
</linearGradient>
<linearGradient id="paint17_linear" x1="479.002" y1="392.227" x2="484.439" y2="390.275" gradientUnits="userSpaceOnUse">
<stop stop-color="#848484"/>
<stop offset="0.526042" stop-color="white"/>
<stop offset="1" stop-color="#848484"/>
</linearGradient>
<linearGradient id="paint18_linear" x1="479.002" y1="389.906" x2="484.521" y2="392.297" gradientUnits="userSpaceOnUse">
<stop stop-color="#848484"/>
<stop offset="0.491713" stop-color="white"/>
<stop offset="1" stop-color="#848484"/>
</linearGradient>
<linearGradient id="paint19_linear" x1="479" y1="470.103" x2="485" y2="470.103" gradientUnits="userSpaceOnUse">
<stop stop-color="#848484"/>
<stop offset="0.519337" stop-color="white"/>
<stop offset="1" stop-color="#848484"/>
</linearGradient>
<linearGradient id="paint20_linear" x1="232" y1="374" x2="238.5" y2="380.5" gradientUnits="userSpaceOnUse">
<stop stop-color="#C4C4C4"/>
<stop offset="0.494792" stop-color="white"/>
<stop offset="1" stop-color="#BEBEBE"/>
</linearGradient>
<linearGradient id="paint21_linear" x1="232" y1="342" x2="238.5" y2="348.5" gradientUnits="userSpaceOnUse">
<stop stop-color="#C4C4C4"/>
<stop offset="0.494792" stop-color="white"/>
<stop offset="1" stop-color="#BEBEBE"/>
</linearGradient>
<linearGradient id="paint22_linear" x1="232" y1="358" x2="238.5" y2="364.5" gradientUnits="userSpaceOnUse">
<stop stop-color="#C4C4C4"/>
<stop offset="0.494792" stop-color="white"/>
<stop offset="1" stop-color="#BEBEBE"/>
</linearGradient>
<linearGradient id="paint23_linear" x1="232" y1="326" x2="238.5" y2="332.5" gradientUnits="userSpaceOnUse">
<stop stop-color="#C4C4C4"/>
<stop offset="0.494792" stop-color="white"/>
<stop offset="1" stop-color="#BEBEBE"/>
</linearGradient>
</defs>
</svg>
