<svg width="1280" height="720" viewBox="0 0 1280 720" fill="none" xmlns="http://www.w3.org/2000/svg">
<path d="M134.477 364H1103L1070.31 398H103L134.477 364Z" fill="url(#paint0_linear)"/>
<rect x="136" y="296" width="967" height="68" fill="#848484"/>
<path d="M989 309V338H992V309H989Z" fill="url(#paint1_linear)"/>
<path d="M940 329.5L972 297V366L940 399V329.5Z" fill="#007AFF"/>
<path d="M972 297H982L950 329H940L972 297Z" fill="#A9A9A9"/>
<path d="M972 366H982L950 398.5H940L972 366Z" fill="#3592F7"/>
<path d="M950 329L982 297V366L950 399V329Z" fill="#848484"/>
<path d="M952 329L981 300V365L952 395V329Z" fill="#C0A57F"/>
<rect x="940" y="329" width="10" height="70" fill="#A1A1A1"/>
<path d="M977.155 334.278C976.849 343.306 976.849 352.361 977.155 361.389C977.155 361.75 978.099 362.278 978.127 361.917C978.433 352.528 978.433 343.139 978.127 333.75C978.099 333.389 977.155 333.917 977.155 334.278ZM965.738 332.833C965.738 331.278 966.877 332.528 968.349 333.333C971.683 331.556 969.155 331.556 972.488 333.333C975.794 331.556 973.294 331.556 976.599 333.333C978.072 332.528 979.211 331.278 979.211 332.833C979.211 342.833 979.488 352.833 979.211 362.833C979.183 364.056 976.988 362.556 976.599 362.333C973.183 364.167 975.905 364.167 972.488 362.333C969.072 364.167 971.766 364.167 968.349 362.333C966.461 363.361 965.738 364.583 965.738 362.833V332.833ZM967.794 334.278C967.794 333.917 966.849 333.389 966.849 333.75C966.516 343.139 966.516 352.528 966.849 361.917C966.849 362.278 967.794 361.75 967.794 361.389C968.127 352.361 968.127 343.306 967.794 334.278ZM969.849 361.917C970.183 352.528 970.183 343.139 969.849 333.75C969.849 333.389 968.905 333.917 968.905 334.278C968.572 343.306 968.599 352.361 968.905 361.389C968.905 361.75 969.849 362.278 969.849 361.917ZM971.933 334.278C971.905 333.917 970.988 333.389 970.961 333.75C970.627 343.139 970.627 352.528 970.961 361.917C970.988 362.278 971.905 361.75 971.933 361.389C972.238 352.361 972.238 343.306 971.933 334.278ZM973.988 361.917C974.322 352.528 974.322 343.139 973.988 333.75C973.988 333.389 973.044 333.917 973.016 334.278C972.711 343.306 972.711 352.361 973.016 361.389C973.044 361.75 973.988 362.278 973.988 361.917ZM976.044 334.278C976.044 333.917 975.099 333.389 975.099 333.75C974.766 343.139 974.766 352.528 975.099 361.917C975.099 362.278 976.044 361.75 976.044 361.389C976.377 352.361 976.377 343.306 976.044 334.278Z" fill="#00BFFF"/>
<path d="M984.238 356.139C985.432 356.139 986.599 355.889 987.765 355.361C988.627 354.972 989.46 354.778 990.293 354.778C990.515 354.778 990.71 354.805 990.877 354.833C990.765 354.944 990.015 355.694 990.015 355.778C990.015 356.028 990.404 356.083 990.543 356.083C991.238 356.083 993.515 354.639 994.099 354.333C994.293 354.222 994.293 353.944 994.099 353.833C993.488 353.5 991.127 352.111 990.543 352.111C990.404 352.111 990.015 352.166 990.015 352.389C990.015 352.5 990.904 353.389 990.988 353.444C990.738 353.444 990.488 353.444 990.293 353.444C989.099 353.444 987.932 353.694 986.765 354.222C985.904 354.583 985.071 354.778 984.238 354.778C982.182 354.778 982.154 353.722 981.21 354.778C980.21 355.916 983.043 356.139 984.238 356.139ZM984.238 344.583C985.432 344.583 986.599 344.333 987.765 343.805C988.627 343.416 989.46 343.222 990.293 343.222C990.515 343.222 990.71 343.25 990.877 343.278C990.765 343.389 990.015 344.139 990.015 344.25C990.015 344.472 990.404 344.528 990.543 344.528C991.238 344.528 993.515 343.083 994.099 342.778C994.293 342.666 994.293 342.389 994.099 342.278C993.488 341.972 991.127 340.555 990.543 340.555C990.404 340.555 990.015 340.611 990.015 340.833C990.015 340.944 990.904 341.833 990.988 341.889C990.738 341.889 990.488 341.889 990.293 341.889C989.099 341.889 987.932 342.139 986.765 342.666C985.904 343.055 985.071 343.222 984.238 343.222C982.182 343.222 982.154 342.194 981.21 343.25C980.21 344.361 983.043 344.583 984.238 344.583ZM984.238 350.389C985.432 350.389 986.599 350.111 987.765 349.611C988.627 349.222 989.46 349.028 990.293 349.028C990.515 349.028 990.71 349.028 990.877 349.055C990.765 349.194 990.015 349.916 990.015 350.028C990.015 350.25 990.404 350.305 990.543 350.305C991.238 350.305 993.515 348.889 994.099 348.583C994.293 348.472 994.293 348.166 994.099 348.055C993.488 347.75 991.127 346.333 990.543 346.333C990.404 346.333 990.015 346.416 990.015 346.639C990.015 346.75 990.904 347.611 990.988 347.694C990.738 347.666 990.488 347.666 990.293 347.666C989.099 347.666 987.932 347.944 986.765 348.444C985.904 348.833 985.071 349.028 984.238 349.028C982.182 349.028 982.154 347.972 981.21 349.028C980.21 350.166 983.043 350.389 984.238 350.389Z" fill="#00BFFF"/>
<path d="M888.183 329.83L888.198 329.845H888.219H908.646C910.547 329.845 912.141 331.366 912.141 333.264V394.859C912.141 395.847 911.755 396.582 911.133 397.072C910.51 397.562 909.647 397.809 908.692 397.809H897.192H886.192C880.977 397.81 876.689 397.809 871.86 397.809C868.355 397.809 864.565 397.809 859.929 397.809C848.92 397.809 838.989 393.344 831.752 386.107C824.515 378.87 820.05 368.939 820.05 357.93C820.05 346.921 824.515 336.913 831.752 329.753L831.752 329.753C838.989 322.516 848.92 318.051 859.929 318.051C870.938 318.051 880.946 322.516 888.106 329.753L888.106 329.753L888.183 329.83ZM885.248 332.612L885.248 332.611C878.764 326.205 869.81 322.191 859.929 322.191C850.049 322.191 841.095 326.205 834.688 332.612C828.204 339.096 824.19 348.05 824.19 357.93C824.19 367.81 828.204 376.765 834.688 383.172C841.095 389.656 850.049 393.67 859.929 393.67C869.81 393.67 878.764 389.656 885.248 383.172C891.655 376.765 895.669 367.811 895.669 357.93C895.669 348.05 891.655 339.096 885.248 332.612Z" fill="url(#paint2_linear)" stroke="#848484" stroke-width="0.1"/>
<circle cx="860.191" cy="357.859" r="36" transform="rotate(-180 860.191 357.859)" fill="#808080"/>
<path d="M648 328.5L680 296V365L648 398V328.5Z" fill="#007AFF"/>
<path d="M680 296H690L658 328H648L680 296Z" fill="#A9A9A9"/>
<path d="M680 365H690L658 397.5H648L680 365Z" fill="#3592F7"/>
<path d="M658 328L690 296V365L658 398V328Z" fill="#848484"/>
<path d="M660 328L689 299V364L660 394V328Z" fill="#5C82B5"/>
<path d="M703.238 356.139C704.432 356.139 705.599 355.889 706.765 355.361C707.627 354.972 708.46 354.778 709.293 354.778C709.515 354.778 709.71 354.805 709.877 354.833C709.765 354.944 709.015 355.694 709.015 355.778C709.015 356.028 709.404 356.083 709.543 356.083C710.238 356.083 712.515 354.639 713.099 354.333C713.293 354.222 713.293 353.944 713.099 353.833C712.488 353.5 710.127 352.111 709.543 352.111C709.404 352.111 709.015 352.166 709.015 352.389C709.015 352.5 709.904 353.389 709.988 353.444C709.738 353.444 709.488 353.444 709.293 353.444C708.099 353.444 706.932 353.694 705.765 354.222C704.904 354.583 704.071 354.778 703.238 354.778C701.182 354.778 701.154 353.722 700.21 354.778C699.21 355.916 702.043 356.139 703.238 356.139ZM703.238 344.583C704.432 344.583 705.599 344.333 706.765 343.805C707.627 343.416 708.46 343.222 709.293 343.222C709.515 343.222 709.71 343.25 709.877 343.278C709.765 343.389 709.015 344.139 709.015 344.25C709.015 344.472 709.404 344.528 709.543 344.528C710.238 344.528 712.515 343.083 713.099 342.778C713.293 342.666 713.293 342.389 713.099 342.278C712.488 341.972 710.127 340.555 709.543 340.555C709.404 340.555 709.015 340.611 709.015 340.833C709.015 340.944 709.904 341.833 709.988 341.889C709.738 341.889 709.488 341.889 709.293 341.889C708.099 341.889 706.932 342.139 705.765 342.666C704.904 343.055 704.071 343.222 703.238 343.222C701.182 343.222 701.154 342.194 700.21 343.25C699.21 344.361 702.043 344.583 703.238 344.583ZM703.238 350.389C704.432 350.389 705.599 350.111 706.765 349.611C707.627 349.222 708.46 349.028 709.293 349.028C709.515 349.028 709.71 349.028 709.877 349.055C709.765 349.194 709.015 349.916 709.015 350.028C709.015 350.25 709.404 350.305 709.543 350.305C710.238 350.305 712.515 348.889 713.099 348.583C713.293 348.472 713.293 348.166 713.099 348.055C712.488 347.75 710.127 346.333 709.543 346.333C709.404 346.333 709.015 346.416 709.015 346.639C709.015 346.75 709.904 347.611 709.988 347.694C709.738 347.666 709.488 347.666 709.293 347.666C708.099 347.666 706.932 347.944 705.765 348.444C704.904 348.833 704.071 349.028 703.238 349.028C701.182 349.028 701.154 347.972 700.21 349.028C699.21 350.166 702.043 350.389 703.238 350.389Z" fill="#00BFFF"/>
<path d="M693.788 351.278C694.995 350.62 696.202 349.934 697.353 349.276C697.518 349.194 697.71 349.249 697.819 349.413L698.286 350.263C698.395 350.4 698.34 350.62 698.176 350.702L695.489 352.265L697.819 353.609C697.984 353.691 698.039 353.91 697.929 354.075L697.436 354.952C697.353 355.09 697.134 355.144 696.969 355.062L694.638 353.718V356.872C694.638 357.064 694.474 357.201 694.309 357.201H693.322C693.13 357.201 692.993 357.064 692.993 356.872C692.993 355.528 692.966 354.13 692.966 352.731L690.059 351.086C690.059 357.53 691.101 356.927 685.534 353.718V357.064C686.713 357.75 687.893 358.49 689.017 359.148C689.181 359.23 689.236 359.422 689.154 359.587L688.66 360.437C688.578 360.601 688.359 360.656 688.194 360.574L685.534 359.011V361.671C685.534 361.863 685.37 362 685.205 362H684.191C683.999 362 683.861 361.863 683.861 361.671V358.984L681.092 360.574C680.927 360.656 680.735 360.601 680.626 360.464L680.159 359.614C680.05 359.45 680.105 359.23 680.269 359.148C681.421 358.49 682.655 357.722 683.861 357.037V353.691C678.212 356.954 679.227 357.612 679.227 351.113L676.348 352.786C676.348 354.13 676.32 355.528 676.32 356.845C676.32 357.037 676.183 357.201 675.991 357.201H675.032C674.84 357.201 674.675 357.037 674.675 356.845C674.675 355.83 674.675 354.788 674.675 353.746L672.399 355.062C672.234 355.144 672.042 355.09 671.933 354.952L671.439 354.075C671.357 353.91 671.412 353.691 671.549 353.609L673.852 352.293L671.11 350.702C670.946 350.62 670.891 350.4 671 350.236L671.494 349.413C671.576 349.249 671.768 349.194 671.933 349.276C673.112 349.962 674.346 350.62 675.553 351.305L678.432 349.633C672.81 346.397 672.81 347.603 678.432 344.367L675.525 342.667C674.319 343.353 673.139 344.038 671.96 344.724C671.796 344.806 671.604 344.751 671.494 344.587L671.028 343.737C670.918 343.6 670.973 343.38 671.138 343.298C672.042 342.777 672.947 342.229 673.852 341.707L671.549 340.391C671.412 340.309 671.357 340.09 671.439 339.925L671.933 339.048C672.042 338.91 672.234 338.856 672.399 338.938L674.675 340.254V337.128C674.675 336.936 674.84 336.799 675.004 336.799H675.991C676.183 336.799 676.32 336.936 676.32 337.128C676.32 338.472 676.348 339.843 676.348 341.214L679.255 342.887C679.255 336.415 678.212 337.046 683.861 340.282V336.936C682.655 336.25 681.476 335.537 680.297 334.852C680.132 334.77 680.077 334.578 680.159 334.413L680.653 333.563C680.735 333.399 680.955 333.344 681.119 333.426C681.997 333.947 682.929 334.468 683.861 335.016V332.329C683.861 332.137 683.999 332 684.191 332H685.205C685.37 332 685.534 332.137 685.534 332.329V334.962C686.439 334.441 687.317 333.947 688.222 333.426C688.386 333.344 688.578 333.399 688.688 333.536L689.154 334.386C689.264 334.55 689.209 334.77 689.044 334.852C687.893 335.51 686.713 336.223 685.534 336.909V340.227C691.156 336.991 690.086 336.415 690.086 342.914L692.938 341.269C692.938 339.87 692.993 338.472 692.993 337.155C692.993 336.963 693.13 336.799 693.322 336.799H694.282C694.474 336.799 694.638 336.963 694.638 337.155C694.638 338.197 694.638 339.239 694.638 340.282L696.969 338.938C697.134 338.856 697.353 338.91 697.436 339.048L697.929 339.925C698.039 340.09 697.984 340.309 697.819 340.391L695.489 341.735C696.393 342.256 697.298 342.777 698.203 343.298C698.368 343.38 698.423 343.6 698.313 343.764L697.819 344.587C697.737 344.751 697.545 344.806 697.381 344.724C696.202 344.038 695.022 343.38 693.816 342.695L690.936 344.367C696.503 347.576 696.503 346.369 690.882 349.605L693.788 351.278ZM680.105 348.673L683.011 347L680.105 345.327L677.198 347L680.105 348.673ZM685.534 345.547L688.414 343.874V340.501L685.534 342.174V345.547ZM689.264 345.327L686.357 347L689.209 348.645L692.116 346.973L689.264 345.327ZM683.861 348.453L680.9 350.154V353.472L683.861 351.771V348.453ZM680.927 343.846L683.861 345.547V342.229L680.927 340.528V343.846ZM688.386 350.099L685.534 348.453V351.771L688.386 353.444V350.099Z" fill="#00BFFF"/>
<rect x="648" y="328" width="10" height="70" fill="#A1A1A1"/>
<path d="M613 347.266V547H619V347.266C617 346.911 615.5 346.911 613 347.266Z" fill="url(#paint3_linear)"/>
<path d="M654.579 340H620V346H654.579C657.598 343.967 658.009 342.463 654.579 340Z" fill="url(#paint4_linear)"/>
<path d="M619.224 340.037L619.001 346L617.668 340.037H619.224Z" fill="url(#paint5_linear)"/>
<path d="M617.668 340.037L619 346L614.558 340.811C615.671 340.073 616.305 339.916 617.668 340.037Z" fill="url(#paint6_linear)"/>
<path d="M613 347V346H619V347H613Z" fill="url(#paint7_linear)"/>
<path d="M620 346H619V340H620V346Z" fill="url(#paint8_linear)"/>
<path d="M613.003 346.227L619.001 346L613.003 344.679V346.227Z" fill="url(#paint9_linear)"/>
<path d="M613.002 344.679L619 346L614.557 340.811C613.231 341.727 612.976 342.645 613.002 344.679Z" fill="url(#paint10_linear)"/>
<path d="M654.661 386H640V392H654.661C657.12 389.852 658.376 388.974 654.661 386Z" fill="url(#paint11_linear)"/>
<path d="M639.223 386.037L639 392L637.667 386.037H639.223Z" fill="url(#paint12_linear)"/>
<path d="M637.667 386.037L638.999 392L634.557 386.811C635.671 386.073 636.304 385.916 637.667 386.037Z" fill="url(#paint13_linear)"/>
<path d="M633 393V392H639V393H633Z" fill="url(#paint14_linear)"/>
<path d="M640 392H639V386H640V392Z" fill="url(#paint15_linear)"/>
<path d="M633.002 392.227L639 392L633.002 390.679V392.227Z" fill="url(#paint16_linear)"/>
<path d="M633.002 390.679L639 392L634.557 386.811C633.231 387.727 632.976 388.645 633.002 390.679Z" fill="url(#paint17_linear)"/>
<path d="M633 393V547H639V393H633Z" fill="url(#paint18_linear)"/>
<path d="M494 328.5L526 296V365L494 398V328.5Z" fill="#007AFF"/>
<path d="M526 296H536L504 328H494L526 296Z" fill="#A9A9A9"/>
<path d="M526 365H536L504 397.5H494L526 365Z" fill="#3592F7"/>
<path d="M504 328L536 296V365L504 398V328Z" fill="#848484"/>
<path d="M506 328L535 299V364L506 394V328Z" fill="#BB5F5F"/>
<rect x="494" y="328" width="10" height="70" fill="#A1A1A1"/>
<path d="M552.238 356.139C553.432 356.139 554.599 355.889 555.765 355.361C556.627 354.972 557.46 354.778 558.293 354.778C558.515 354.778 558.71 354.805 558.877 354.833C558.765 354.944 558.015 355.694 558.015 355.778C558.015 356.028 558.404 356.083 558.543 356.083C559.238 356.083 561.515 354.639 562.099 354.333C562.293 354.222 562.293 353.944 562.099 353.833C561.488 353.5 559.127 352.111 558.543 352.111C558.404 352.111 558.015 352.166 558.015 352.389C558.015 352.5 558.904 353.389 558.988 353.444C558.738 353.444 558.488 353.444 558.293 353.444C557.099 353.444 555.932 353.694 554.765 354.222C553.904 354.583 553.071 354.778 552.238 354.778C550.182 354.778 550.154 353.722 549.21 354.778C548.21 355.916 551.043 356.139 552.238 356.139ZM552.238 344.583C553.432 344.583 554.599 344.333 555.765 343.805C556.627 343.416 557.46 343.222 558.293 343.222C558.515 343.222 558.71 343.25 558.877 343.278C558.765 343.389 558.015 344.139 558.015 344.25C558.015 344.472 558.404 344.528 558.543 344.528C559.238 344.528 561.515 343.083 562.099 342.778C562.293 342.666 562.293 342.389 562.099 342.278C561.488 341.972 559.127 340.555 558.543 340.555C558.404 340.555 558.015 340.611 558.015 340.833C558.015 340.944 558.904 341.833 558.988 341.889C558.738 341.889 558.488 341.889 558.293 341.889C557.099 341.889 555.932 342.139 554.765 342.666C553.904 343.055 553.071 343.222 552.238 343.222C550.182 343.222 550.154 342.194 549.21 343.25C548.21 344.361 551.043 344.583 552.238 344.583ZM552.238 350.389C553.432 350.389 554.599 350.111 555.765 349.611C556.627 349.222 557.46 349.028 558.293 349.028C558.515 349.028 558.71 349.028 558.877 349.055C558.765 349.194 558.015 349.916 558.015 350.028C558.015 350.25 558.404 350.305 558.543 350.305C559.238 350.305 561.515 348.889 562.099 348.583C562.293 348.472 562.293 348.166 562.099 348.055C561.488 347.75 559.127 346.333 558.543 346.333C558.404 346.333 558.015 346.416 558.015 346.639C558.015 346.75 558.904 347.611 558.988 347.694C558.738 347.666 558.488 347.666 558.293 347.666C557.099 347.666 555.932 347.944 554.765 348.444C553.904 348.833 553.071 349.028 552.238 349.028C550.182 349.028 550.154 347.972 549.21 349.028C548.21 350.166 551.043 350.389 552.238 350.389Z" fill="#00BFFF"/>
<path d="M541.082 349.402L546.992 348.518L541.259 347.668L550.035 343.952L540.339 345.014L545.045 341.298L539.666 343.422L545.399 335.813L537.543 341.581L539.772 335.99L536.163 340.52L537.331 331.071L533.402 339.989L532.518 334.079L531.668 339.812L527.952 331L529.014 340.697L525.298 335.99L527.422 341.369L519.813 335.636L525.581 343.492L519.99 341.263L524.52 344.873L515.071 343.705L523.989 347.633L518.079 348.518L523.812 349.367L515 353.083L524.697 352.021L519.99 355.737L525.369 353.614L519.636 361.222L527.492 355.454L525.263 361.045L528.873 356.516L527.74 365.965L531.668 357.047L532.553 362.957L533.402 357.223L537.118 366L536.057 356.303L539.772 361.01L537.649 355.631L545.258 361.364L539.489 353.508L545.081 355.737L540.551 352.127L550 353.295L541.082 349.402ZM532.518 356.728C527.988 356.728 524.307 353.048 524.307 348.518C524.307 343.988 527.988 340.307 532.518 340.307C537.047 340.307 540.728 343.988 540.728 348.518C540.728 353.048 537.047 356.728 532.518 356.728Z" fill="#00BFFF"/>
<path d="M540 348.5C540 352.642 536.642 356 532.5 356C528.358 356 525 352.642 525 348.5C525 344.358 528.358 341 532.5 341C536.642 341 540 344.358 540 348.5Z" fill="#00BFFF"/>
<path d="M459 347.266V547H465V347.266C463 346.911 461.5 346.911 459 347.266Z" fill="url(#paint19_linear)"/>
<path d="M500.579 340H466V346H500.579C503.598 343.967 504.009 342.463 500.579 340Z" fill="url(#paint20_linear)"/>
<path d="M465.224 340.037L465.001 346L463.668 340.037H465.224Z" fill="url(#paint21_linear)"/>
<path d="M463.668 340.037L465 346L460.558 340.811C461.671 340.073 462.305 339.916 463.668 340.037Z" fill="url(#paint22_linear)"/>
<path d="M459 347V346H465V347H459Z" fill="url(#paint23_linear)"/>
<path d="M466 346H465V340H466V346Z" fill="url(#paint24_linear)"/>
<path d="M459.003 346.227L465.001 346L459.003 344.679V346.227Z" fill="url(#paint25_linear)"/>
<path d="M459.002 344.679L465 346L460.557 340.811C459.231 341.727 458.976 342.645 459.002 344.679Z" fill="url(#paint26_linear)"/>
<path d="M500.661 386H486V392H500.661C503.12 389.852 504.376 388.974 500.661 386Z" fill="url(#paint27_linear)"/>
<path d="M485.223 386.037L485 392L483.667 386.037H485.223Z" fill="url(#paint28_linear)"/>
<path d="M483.667 386.037L484.999 392L480.557 386.811C481.671 386.073 482.304 385.916 483.667 386.037Z" fill="url(#paint29_linear)"/>
<path d="M479 393V392H485V393H479Z" fill="url(#paint30_linear)"/>
<path d="M486 392H485V386H486V392Z" fill="url(#paint31_linear)"/>
<path d="M479.002 392.227L485 392L479.002 390.679V392.227Z" fill="url(#paint32_linear)"/>
<path d="M479.002 390.679L485 392L480.557 386.811C479.231 387.727 478.976 388.645 479.002 390.679Z" fill="url(#paint33_linear)"/>
<path d="M479 393V547H485V393H479Z" fill="url(#paint34_linear)"/>
<path d="M292 328.5L324 296V365L292 398V328.5Z" fill="#007AFF"/>
<path d="M324 296H334L302 328H292L324 296Z" fill="#A9A9A9"/>
<path d="M324 365H334L302 397.5H292L324 365Z" fill="#3592F7"/>
<path d="M302 328L334 296V365L302 398V328Z" fill="#848484"/>
<path d="M304 328L333 299V364L304 394V328Z" fill="#C0A57F"/>
<rect x="292" y="328" width="10" height="70" fill="#A1A1A1"/>
<path d="M329.155 333.278C328.849 342.306 328.849 351.361 329.155 360.389C329.155 360.75 330.099 361.278 330.127 360.917C330.433 351.528 330.433 342.139 330.127 332.75C330.099 332.389 329.155 332.917 329.155 333.278ZM317.738 331.833C317.738 330.278 318.877 331.528 320.349 332.333C323.683 330.556 321.155 330.556 324.488 332.333C327.794 330.556 325.294 330.556 328.599 332.333C330.072 331.528 331.211 330.278 331.211 331.833C331.211 341.833 331.488 351.833 331.211 361.833C331.183 363.056 328.988 361.556 328.599 361.333C325.183 363.167 327.905 363.167 324.488 361.333C321.072 363.167 323.766 363.167 320.349 361.333C318.461 362.361 317.738 363.583 317.738 361.833V331.833ZM319.794 333.278C319.794 332.917 318.849 332.389 318.849 332.75C318.516 342.139 318.516 351.528 318.849 360.917C318.849 361.278 319.794 360.75 319.794 360.389C320.127 351.361 320.127 342.306 319.794 333.278ZM321.849 360.917C322.183 351.528 322.183 342.139 321.849 332.75C321.849 332.389 320.905 332.917 320.905 333.278C320.572 342.306 320.599 351.361 320.905 360.389C320.905 360.75 321.849 361.278 321.849 360.917ZM323.933 333.278C323.905 332.917 322.988 332.389 322.961 332.75C322.627 342.139 322.627 351.528 322.961 360.917C322.988 361.278 323.905 360.75 323.933 360.389C324.238 351.361 324.238 342.306 323.933 333.278ZM325.988 360.917C326.322 351.528 326.322 342.139 325.988 332.75C325.988 332.389 325.044 332.917 325.016 333.278C324.711 342.306 324.711 351.361 325.016 360.389C325.044 360.75 325.988 361.278 325.988 360.917ZM328.044 333.278C328.044 332.917 327.099 332.389 327.099 332.75C326.766 342.139 326.766 351.528 327.099 360.917C327.099 361.278 328.044 360.75 328.044 360.389C328.377 351.361 328.377 342.306 328.044 333.278Z" fill="#00BFFF"/>
<path d="M336.238 355.139C337.432 355.139 338.599 354.889 339.765 354.361C340.627 353.972 341.46 353.778 342.293 353.778C342.515 353.778 342.71 353.805 342.877 353.833C342.765 353.944 342.015 354.694 342.015 354.778C342.015 355.028 342.404 355.083 342.543 355.083C343.238 355.083 345.515 353.639 346.099 353.333C346.293 353.222 346.293 352.944 346.099 352.833C345.488 352.5 343.127 351.111 342.543 351.111C342.404 351.111 342.015 351.166 342.015 351.389C342.015 351.5 342.904 352.389 342.988 352.444C342.738 352.444 342.488 352.444 342.293 352.444C341.099 352.444 339.932 352.694 338.765 353.222C337.904 353.583 337.071 353.778 336.238 353.778C334.182 353.778 334.154 352.722 333.21 353.778C332.21 354.916 335.043 355.139 336.238 355.139ZM336.238 343.583C337.432 343.583 338.599 343.333 339.765 342.805C340.627 342.416 341.46 342.222 342.293 342.222C342.515 342.222 342.71 342.25 342.877 342.278C342.765 342.389 342.015 343.139 342.015 343.25C342.015 343.472 342.404 343.528 342.543 343.528C343.238 343.528 345.515 342.083 346.099 341.778C346.293 341.666 346.293 341.389 346.099 341.278C345.488 340.972 343.127 339.555 342.543 339.555C342.404 339.555 342.015 339.611 342.015 339.833C342.015 339.944 342.904 340.833 342.988 340.889C342.738 340.889 342.488 340.889 342.293 340.889C341.099 340.889 339.932 341.139 338.765 341.666C337.904 342.055 337.071 342.222 336.238 342.222C334.182 342.222 334.154 341.194 333.21 342.25C332.21 343.361 335.043 343.583 336.238 343.583ZM336.238 349.389C337.432 349.389 338.599 349.111 339.765 348.611C340.627 348.222 341.46 348.028 342.293 348.028C342.515 348.028 342.71 348.028 342.877 348.055C342.765 348.194 342.015 348.916 342.015 349.028C342.015 349.25 342.404 349.305 342.543 349.305C343.238 349.305 345.515 347.889 346.099 347.583C346.293 347.472 346.293 347.166 346.099 347.055C345.488 346.75 343.127 345.333 342.543 345.333C342.404 345.333 342.015 345.416 342.015 345.639C342.015 345.75 342.904 346.611 342.988 346.694C342.738 346.666 342.488 346.666 342.293 346.666C341.099 346.666 339.932 346.944 338.765 347.444C337.904 347.833 337.071 348.028 336.238 348.028C334.182 348.028 334.154 346.972 333.21 348.028C332.21 349.166 335.043 349.389 336.238 349.389Z" fill="#00BFFF"/>
<path d="M351 328.5L383 296V365L351 398V328.5Z" fill="#007AFF"/>
<path d="M383 296H393L361 328H351L383 296Z" fill="#A9A9A9"/>
<path d="M383 365H393L361 397.5H351L383 365Z" fill="#3592F7"/>
<path d="M361 328L393 296V365L361 398V328Z" fill="#848484"/>
<path d="M363 328L392 299V364L363 394V328Z" fill="#C0A57F"/>
<rect x="351" y="328" width="10" height="70" fill="#A1A1A1"/>
<path d="M388.155 333.278C387.849 342.306 387.849 351.361 388.155 360.389C388.155 360.75 389.099 361.278 389.127 360.917C389.433 351.528 389.433 342.139 389.127 332.75C389.099 332.389 388.155 332.917 388.155 333.278ZM376.738 331.833C376.738 330.278 377.877 331.528 379.349 332.333C382.683 330.556 380.155 330.556 383.488 332.333C386.794 330.556 384.294 330.556 387.599 332.333C389.072 331.528 390.211 330.278 390.211 331.833C390.211 341.833 390.488 351.833 390.211 361.833C390.183 363.056 387.988 361.556 387.599 361.333C384.183 363.167 386.905 363.167 383.488 361.333C380.072 363.167 382.766 363.167 379.349 361.333C377.461 362.361 376.738 363.583 376.738 361.833V331.833ZM378.794 333.278C378.794 332.917 377.849 332.389 377.849 332.75C377.516 342.139 377.516 351.528 377.849 360.917C377.849 361.278 378.794 360.75 378.794 360.389C379.127 351.361 379.127 342.306 378.794 333.278ZM380.849 360.917C381.183 351.528 381.183 342.139 380.849 332.75C380.849 332.389 379.905 332.917 379.905 333.278C379.572 342.306 379.599 351.361 379.905 360.389C379.905 360.75 380.849 361.278 380.849 360.917ZM382.933 333.278C382.905 332.917 381.988 332.389 381.961 332.75C381.627 342.139 381.627 351.528 381.961 360.917C381.988 361.278 382.905 360.75 382.933 360.389C383.238 351.361 383.238 342.306 382.933 333.278ZM384.988 360.917C385.322 351.528 385.322 342.139 384.988 332.75C384.988 332.389 384.044 332.917 384.016 333.278C383.711 342.306 383.711 351.361 384.016 360.389C384.044 360.75 384.988 361.278 384.988 360.917ZM387.044 333.278C387.044 332.917 386.099 332.389 386.099 332.75C385.766 342.139 385.766 351.528 386.099 360.917C386.099 361.278 387.044 360.75 387.044 360.389C387.377 351.361 387.377 342.306 387.044 333.278Z" fill="#00BFFF"/>
<path d="M395.238 355.139C396.432 355.139 397.599 354.889 398.765 354.361C399.627 353.972 400.46 353.778 401.293 353.778C401.515 353.778 401.71 353.805 401.877 353.833C401.765 353.944 401.015 354.694 401.015 354.778C401.015 355.028 401.404 355.083 401.543 355.083C402.238 355.083 404.515 353.639 405.099 353.333C405.293 353.222 405.293 352.944 405.099 352.833C404.488 352.5 402.127 351.111 401.543 351.111C401.404 351.111 401.015 351.166 401.015 351.389C401.015 351.5 401.904 352.389 401.988 352.444C401.738 352.444 401.488 352.444 401.293 352.444C400.099 352.444 398.932 352.694 397.765 353.222C396.904 353.583 396.071 353.778 395.238 353.778C393.182 353.778 393.154 352.722 392.21 353.778C391.21 354.916 394.043 355.139 395.238 355.139ZM395.238 343.583C396.432 343.583 397.599 343.333 398.765 342.805C399.627 342.416 400.46 342.222 401.293 342.222C401.515 342.222 401.71 342.25 401.877 342.278C401.765 342.389 401.015 343.139 401.015 343.25C401.015 343.472 401.404 343.528 401.543 343.528C402.238 343.528 404.515 342.083 405.099 341.778C405.293 341.666 405.293 341.389 405.099 341.278C404.488 340.972 402.127 339.555 401.543 339.555C401.404 339.555 401.015 339.611 401.015 339.833C401.015 339.944 401.904 340.833 401.988 340.889C401.738 340.889 401.488 340.889 401.293 340.889C400.099 340.889 398.932 341.139 397.765 341.666C396.904 342.055 396.071 342.222 395.238 342.222C393.182 342.222 393.154 341.194 392.21 342.25C391.21 343.361 394.043 343.583 395.238 343.583ZM395.238 349.389C396.432 349.389 397.599 349.111 398.765 348.611C399.627 348.222 400.46 348.028 401.293 348.028C401.515 348.028 401.71 348.028 401.877 348.055C401.765 348.194 401.015 348.916 401.015 349.028C401.015 349.25 401.404 349.305 401.543 349.305C402.238 349.305 404.515 347.889 405.099 347.583C405.293 347.472 405.293 347.166 405.099 347.055C404.488 346.75 402.127 345.333 401.543 345.333C401.404 345.333 401.015 345.416 401.015 345.639C401.015 345.75 401.904 346.611 401.988 346.694C401.738 346.666 401.488 346.666 401.293 346.666C400.099 346.666 398.932 346.944 397.765 347.444C396.904 347.833 396.071 348.028 395.238 348.028C393.182 348.028 393.154 346.972 392.21 348.028C391.21 349.166 394.043 349.389 395.238 349.389Z" fill="#00BFFF"/>
<rect x="255" y="297" width="5" height="68" fill="#A9C7C9"/>
<rect x="247" y="297" width="5" height="68" fill="#A9C7C9"/>
<path d="M247 297H252L221 329H216L247 297Z" fill="#C4C4C4"/>
<path d="M255 297H260L229 329H224L255 297Z" fill="#C4C4C4"/>
<path d="M247 358H260L229 390H216L247 358Z" fill="url(#paint35_linear)"/>
<path d="M247 326H260L229 358H216L247 326Z" fill="url(#paint36_linear)"/>
<path d="M247 342H260L229 374H216L247 342Z" fill="url(#paint37_linear)"/>
<path d="M247 310H260L229 342H216L247 310Z" fill="url(#paint38_linear)"/>
<rect x="216" y="358" width="13" height="1" fill="#BEBEBE"/>
<rect x="216" y="342" width="13" height="1" fill="#BEBEBE"/>
<rect x="216" y="390" width="13" height="1" fill="#BEBEBE"/>
<rect x="216" y="374" width="13" height="1" fill="#BEBEBE"/>
<rect x="224" y="329" width="5" height="70" fill="#CFE2E9"/>
<rect x="216" y="329" width="5" height="70" fill="#CFE2E9"/>
<circle cx="218.5" cy="342.5" r="1.5" fill="#C4C4C4"/>
<circle cx="226.5" cy="342.5" r="1.5" fill="#C4C4C4"/>
<circle cx="218.5" cy="358.5" r="1.5" fill="#C4C4C4"/>
<circle cx="226.5" cy="358.5" r="1.5" fill="#C4C4C4"/>
<circle cx="218.5" cy="390.5" r="1.5" fill="#C4C4C4"/>
<circle cx="226.5" cy="390.5" r="1.5" fill="#C4C4C4"/>
<circle cx="218.5" cy="374.5" r="1.5" fill="#C4C4C4"/>
<circle cx="226.5" cy="374.5" r="1.5" fill="#C4C4C4"/>
<path d="M134.477 296H1103L1070.31 328H103L134.477 296Z" fill="white" fill-opacity="0.5"/>
<defs>
<linearGradient id="paint0_linear" x1="603" y1="364" x2="603" y2="409.333" gradientUnits="userSpaceOnUse">
<stop stop-color="#A6A5A5"/>
<stop offset="1" stop-color="white"/>
</linearGradient>
<linearGradient id="paint1_linear" x1="989" y1="323.5" x2="992" y2="323.5" gradientUnits="userSpaceOnUse">
<stop stop-color="#4F4F4F"/>
<stop offset="0.519337" stop-color="#BDBDBD"/>
<stop offset="1" stop-color="#4F4F4F"/>
</linearGradient>
<linearGradient id="paint2_linear" x1="897.546" y1="329.642" x2="898.317" y2="385.527" gradientUnits="userSpaceOnUse">
<stop stop-color="#848484"/>
<stop offset="0.499267" stop-color="white"/>
<stop offset="1" stop-color="#848484"/>
</linearGradient>
<linearGradient id="paint3_linear" x1="613" y1="447.133" x2="619" y2="447.133" gradientUnits="userSpaceOnUse">
<stop stop-color="#848484"/>
<stop offset="0.519337" stop-color="white"/>
<stop offset="1" stop-color="#848484"/>
</linearGradient>
<linearGradient id="paint4_linear" x1="637.29" y1="340" x2="637.29" y2="346" gradientUnits="userSpaceOnUse">
<stop stop-color="#848484"/>
<stop offset="0.519337" stop-color="white"/>
<stop offset="1" stop-color="#848484"/>
</linearGradient>
<linearGradient id="paint5_linear" x1="619.224" y1="340.037" x2="619.224" y2="346.226" gradientUnits="userSpaceOnUse">
<stop stop-color="#848484"/>
<stop offset="0.478645" stop-color="white"/>
<stop offset="1" stop-color="#848484"/>
</linearGradient>
<linearGradient id="paint6_linear" x1="616.89" y1="340.037" x2="617.66" y2="346.227" gradientUnits="userSpaceOnUse">
<stop stop-color="#848484"/>
<stop offset="0.491713" stop-color="white"/>
<stop offset="1" stop-color="#848484"/>
</linearGradient>
<linearGradient id="paint7_linear" x1="613" y1="346.5" x2="619" y2="346.5" gradientUnits="userSpaceOnUse">
<stop stop-color="#848484"/>
<stop offset="0.476897" stop-color="white"/>
<stop offset="1" stop-color="#848484"/>
</linearGradient>
<linearGradient id="paint8_linear" x1="619.5" y1="346" x2="619.5" y2="340" gradientUnits="userSpaceOnUse">
<stop stop-color="#848484"/>
<stop offset="0.508099" stop-color="white"/>
<stop offset="1" stop-color="#848484"/>
</linearGradient>
<linearGradient id="paint9_linear" x1="613.003" y1="346.227" x2="618.44" y2="344.275" gradientUnits="userSpaceOnUse">
<stop stop-color="#848484"/>
<stop offset="0.526042" stop-color="white"/>
<stop offset="1" stop-color="#848484"/>
</linearGradient>
<linearGradient id="paint10_linear" x1="613.002" y1="343.906" x2="618.521" y2="346.297" gradientUnits="userSpaceOnUse">
<stop stop-color="#848484"/>
<stop offset="0.491713" stop-color="white"/>
<stop offset="1" stop-color="#848484"/>
</linearGradient>
<linearGradient id="paint11_linear" x1="647.331" y1="386" x2="647.331" y2="392" gradientUnits="userSpaceOnUse">
<stop stop-color="#848484"/>
<stop offset="0.519337" stop-color="white"/>
<stop offset="1" stop-color="#848484"/>
</linearGradient>
<linearGradient id="paint12_linear" x1="639.223" y1="386.037" x2="639.223" y2="392.226" gradientUnits="userSpaceOnUse">
<stop stop-color="#848484"/>
<stop offset="0.478645" stop-color="white"/>
<stop offset="1" stop-color="#848484"/>
</linearGradient>
<linearGradient id="paint13_linear" x1="636.89" y1="386.037" x2="637.659" y2="392.227" gradientUnits="userSpaceOnUse">
<stop stop-color="#848484"/>
<stop offset="0.491713" stop-color="white"/>
<stop offset="1" stop-color="#848484"/>
</linearGradient>
<linearGradient id="paint14_linear" x1="633" y1="392.5" x2="639" y2="392.5" gradientUnits="userSpaceOnUse">
<stop stop-color="#848484"/>
<stop offset="0.476897" stop-color="white"/>
<stop offset="1" stop-color="#848484"/>
</linearGradient>
<linearGradient id="paint15_linear" x1="639.5" y1="392" x2="639.5" y2="386" gradientUnits="userSpaceOnUse">
<stop stop-color="#848484"/>
<stop offset="0.508099" stop-color="white"/>
<stop offset="1" stop-color="#848484"/>
</linearGradient>
<linearGradient id="paint16_linear" x1="633.002" y1="392.227" x2="638.439" y2="390.275" gradientUnits="userSpaceOnUse">
<stop stop-color="#848484"/>
<stop offset="0.526042" stop-color="white"/>
<stop offset="1" stop-color="#848484"/>
</linearGradient>
<linearGradient id="paint17_linear" x1="633.002" y1="389.906" x2="638.521" y2="392.297" gradientUnits="userSpaceOnUse">
<stop stop-color="#848484"/>
<stop offset="0.491713" stop-color="white"/>
<stop offset="1" stop-color="#848484"/>
</linearGradient>
<linearGradient id="paint18_linear" x1="633" y1="470.103" x2="639" y2="470.103" gradientUnits="userSpaceOnUse">
<stop stop-color="#848484"/>
<stop offset="0.519337" stop-color="white"/>
<stop offset="1" stop-color="#848484"/>
</linearGradient>
<linearGradient id="paint19_linear" x1="459" y1="447.133" x2="465" y2="447.133" gradientUnits="userSpaceOnUse">
<stop stop-color="#848484"/>
<stop offset="0.519337" stop-color="white"/>
<stop offset="1" stop-color="#848484"/>
</linearGradient>
<linearGradient id="paint20_linear" x1="483.29" y1="340" x2="483.29" y2="346" gradientUnits="userSpaceOnUse">
<stop stop-color="#848484"/>
<stop offset="0.519337" stop-color="white"/>
<stop offset="1" stop-color="#848484"/>
</linearGradient>
<linearGradient id="paint21_linear" x1="465.224" y1="340.037" x2="465.224" y2="346.226" gradientUnits="userSpaceOnUse">
<stop stop-color="#848484"/>
<stop offset="0.478645" stop-color="white"/>
<stop offset="1" stop-color="#848484"/>
</linearGradient>
<linearGradient id="paint22_linear" x1="462.89" y1="340.037" x2="463.66" y2="346.227" gradientUnits="userSpaceOnUse">
<stop stop-color="#848484"/>
<stop offset="0.491713" stop-color="white"/>
<stop offset="1" stop-color="#848484"/>
</linearGradient>
<linearGradient id="paint23_linear" x1="459" y1="346.5" x2="465" y2="346.5" gradientUnits="userSpaceOnUse">
<stop stop-color="#848484"/>
<stop offset="0.476897" stop-color="white"/>
<stop offset="1" stop-color="#848484"/>
</linearGradient>
<linearGradient id="paint24_linear" x1="465.5" y1="346" x2="465.5" y2="340" gradientUnits="userSpaceOnUse">
<stop stop-color="#848484"/>
<stop offset="0.508099" stop-color="white"/>
<stop offset="1" stop-color="#848484"/>
</linearGradient>
<linearGradient id="paint25_linear" x1="459.003" y1="346.227" x2="464.44" y2="344.275" gradientUnits="userSpaceOnUse">
<stop stop-color="#848484"/>
<stop offset="0.526042" stop-color="white"/>
<stop offset="1" stop-color="#848484"/>
</linearGradient>
<linearGradient id="paint26_linear" x1="459.002" y1="343.906" x2="464.521" y2="346.297" gradientUnits="userSpaceOnUse">
<stop stop-color="#848484"/>
<stop offset="0.491713" stop-color="white"/>
<stop offset="1" stop-color="#848484"/>
</linearGradient>
<linearGradient id="paint27_linear" x1="493.331" y1="386" x2="493.331" y2="392" gradientUnits="userSpaceOnUse">
<stop stop-color="#848484"/>
<stop offset="0.519337" stop-color="white"/>
<stop offset="1" stop-color="#848484"/>
</linearGradient>
<linearGradient id="paint28_linear" x1="485.223" y1="386.037" x2="485.223" y2="392.226" gradientUnits="userSpaceOnUse">
<stop stop-color="#848484"/>
<stop offset="0.478645" stop-color="white"/>
<stop offset="1" stop-color="#848484"/>
</linearGradient>
<linearGradient id="paint29_linear" x1="482.89" y1="386.037" x2="483.659" y2="392.227" gradientUnits="userSpaceOnUse">
<stop stop-color="#848484"/>
<stop offset="0.491713" stop-color="white"/>
<stop offset="1" stop-color="#848484"/>
</linearGradient>
<linearGradient id="paint30_linear" x1="479" y1="392.5" x2="485" y2="392.5" gradientUnits="userSpaceOnUse">
<stop stop-color="#848484"/>
<stop offset="0.476897" stop-color="white"/>
<stop offset="1" stop-color="#848484"/>
</linearGradient>
<linearGradient id="paint31_linear" x1="485.5" y1="392" x2="485.5" y2="386" gradientUnits="userSpaceOnUse">
<stop stop-color="#848484"/>
<stop offset="0.508099" stop-color="white"/>
<stop offset="1" stop-color="#848484"/>
</linearGradient>
<linearGradient id="paint32_linear" x1="479.002" y1="392.227" x2="484.439" y2="390.275" gradientUnits="userSpaceOnUse">
<stop stop-color="#848484"/>
<stop offset="0.526042" stop-color="white"/>
<stop offset="1" stop-color="#848484"/>
</linearGradient>
<linearGradient id="paint33_linear" x1="479.002" y1="389.906" x2="484.521" y2="392.297" gradientUnits="userSpaceOnUse">
<stop stop-color="#848484"/>
<stop offset="0.491713" stop-color="white"/>
<stop offset="1" stop-color="#848484"/>
</linearGradient>
<linearGradient id="paint34_linear" x1="479" y1="470.103" x2="485" y2="470.103" gradientUnits="userSpaceOnUse">
<stop stop-color="#848484"/>
<stop offset="0.519337" stop-color="white"/>
<stop offset="1" stop-color="#848484"/>
</linearGradient>
<linearGradient id="paint35_linear" x1="232" y1="374" x2="238.5" y2="380.5" gradientUnits="userSpaceOnUse">
<stop stop-color="#C4C4C4"/>
<stop offset="0.494792" stop-color="white"/>
<stop offset="1" stop-color="#BEBEBE"/>
</linearGradient>
<linearGradient id="paint36_linear" x1="232" y1="342" x2="238.5" y2="348.5" gradientUnits="userSpaceOnUse">
<stop stop-color="#C4C4C4"/>
<stop offset="0.494792" stop-color="white"/>
<stop offset="1" stop-color="#BEBEBE"/>
</linearGradient>
<linearGradient id="paint37_linear" x1="232" y1="358" x2="238.5" y2="364.5" gradientUnits="userSpaceOnUse">
<stop stop-color="#C4C4C4"/>
<stop offset="0.494792" stop-color="white"/>
<stop offset="1" stop-color="#BEBEBE"/>
</linearGradient>
<linearGradient id="paint38_linear" x1="232" y1="326" x2="238.5" y2="332.5" gradientUnits="userSpaceOnUse">
<stop stop-color="#C4C4C4"/>
<stop offset="0.494792" stop-color="white"/>
<stop offset="1" stop-color="#BEBEBE"/>
</linearGradient>
</defs>
</svg>
