<svg width="1280" height="720" viewBox="0 0 1280 720" fill="none" xmlns="http://www.w3.org/2000/svg">
<path d="M141.477 473H1110L1077.31 507H110L141.477 473Z" fill="url(#paint0_linear)"/>
<rect x="143" y="405" width="967" height="68" fill="#848484"/>
<path d="M895.183 438.83L895.198 438.845H895.219H915.646C917.546 438.845 919.141 440.366 919.141 442.264V503.859C919.141 504.847 918.755 505.582 918.133 506.072C917.51 506.562 916.647 506.809 915.692 506.809H904.192H893.192C887.977 506.81 883.689 506.809 878.86 506.809C875.355 506.809 871.565 506.809 866.929 506.809C855.92 506.809 845.989 502.344 838.752 495.107C831.515 487.87 827.05 477.939 827.05 466.93C827.05 455.921 831.515 445.913 838.752 438.753L838.752 438.753C845.989 431.516 855.92 427.051 866.929 427.051C877.938 427.051 887.946 431.516 895.106 438.753L895.106 438.753L895.183 438.83ZM892.248 441.612L892.247 441.611C885.764 435.205 876.81 431.191 866.929 431.191C857.049 431.191 848.095 435.205 841.688 441.612C835.204 448.096 831.19 457.05 831.19 466.93C831.19 476.81 835.204 485.765 841.688 492.172C848.095 498.656 857.049 502.67 866.929 502.67C876.81 502.67 885.764 498.656 892.248 492.172C898.655 485.765 902.669 476.811 902.669 466.93C902.669 457.05 898.655 448.096 892.248 441.612Z" fill="url(#paint1_linear)" stroke="#848484" stroke-width="0.1"/>
<circle cx="867.191" cy="466.859" r="36" transform="rotate(-180 867.191 466.859)" fill="#808080"/>
<path d="M219 437.5L251 405V474L219 507V437.5Z" fill="#007AFF"/>
<path d="M251 405H261L229 437H219L251 405Z" fill="#A9A9A9"/>
<path d="M251 474H261L229 506.5H219L251 474Z" fill="#3592F7"/>
<path d="M229 437L261 405V474L229 507V437Z" fill="#848484"/>
<path d="M231 437L260 408V473L231 503V437Z" fill="#C0A57F"/>
<rect x="219" y="437" width="10" height="70" fill="#A1A1A1"/>
<path d="M256.155 442.278C255.849 451.306 255.849 460.361 256.155 469.389C256.155 469.75 257.099 470.278 257.127 469.917C257.433 460.528 257.433 451.139 257.127 441.75C257.099 441.389 256.155 441.917 256.155 442.278ZM244.738 440.833C244.738 439.278 245.877 440.528 247.349 441.333C250.683 439.556 248.155 439.556 251.488 441.333C254.794 439.556 252.294 439.556 255.599 441.333C257.072 440.528 258.211 439.278 258.211 440.833C258.211 450.833 258.488 460.833 258.211 470.833C258.183 472.056 255.988 470.556 255.599 470.333C252.183 472.167 254.905 472.167 251.488 470.333C248.072 472.167 250.766 472.167 247.349 470.333C245.461 471.361 244.738 472.583 244.738 470.833V440.833ZM246.794 442.278C246.794 441.917 245.849 441.389 245.849 441.75C245.516 451.139 245.516 460.528 245.849 469.917C245.849 470.278 246.794 469.75 246.794 469.389C247.127 460.361 247.127 451.306 246.794 442.278ZM248.849 469.917C249.183 460.528 249.183 451.139 248.849 441.75C248.849 441.389 247.905 441.917 247.905 442.278C247.572 451.306 247.599 460.361 247.905 469.389C247.905 469.75 248.849 470.278 248.849 469.917ZM250.933 442.278C250.905 441.917 249.988 441.389 249.961 441.75C249.627 451.139 249.627 460.528 249.961 469.917C249.988 470.278 250.905 469.75 250.933 469.389C251.238 460.361 251.238 451.306 250.933 442.278ZM252.988 469.917C253.322 460.528 253.322 451.139 252.988 441.75C252.988 441.389 252.044 441.917 252.016 442.278C251.711 451.306 251.711 460.361 252.016 469.389C252.044 469.75 252.988 470.278 252.988 469.917ZM255.044 442.278C255.044 441.917 254.099 441.389 254.099 441.75C253.766 451.139 253.766 460.528 254.099 469.917C254.099 470.278 255.044 469.75 255.044 469.389C255.377 460.361 255.377 451.306 255.044 442.278Z" fill="#00BFFF"/>
<path d="M263.238 464.139C264.432 464.139 265.599 463.889 266.765 463.361C267.627 462.972 268.46 462.778 269.293 462.778C269.515 462.778 269.71 462.805 269.877 462.833C269.765 462.944 269.015 463.694 269.015 463.778C269.015 464.028 269.404 464.083 269.543 464.083C270.238 464.083 272.515 462.639 273.099 462.333C273.293 462.222 273.293 461.944 273.099 461.833C272.488 461.5 270.127 460.111 269.543 460.111C269.404 460.111 269.015 460.166 269.015 460.389C269.015 460.5 269.904 461.389 269.988 461.444C269.738 461.444 269.488 461.444 269.293 461.444C268.099 461.444 266.932 461.694 265.765 462.222C264.904 462.583 264.071 462.778 263.238 462.778C261.182 462.778 261.154 461.722 260.21 462.778C259.21 463.916 262.043 464.139 263.238 464.139ZM263.238 452.583C264.432 452.583 265.599 452.333 266.765 451.805C267.627 451.416 268.46 451.222 269.293 451.222C269.515 451.222 269.71 451.25 269.877 451.278C269.765 451.389 269.015 452.139 269.015 452.25C269.015 452.472 269.404 452.528 269.543 452.528C270.238 452.528 272.515 451.083 273.099 450.778C273.293 450.666 273.293 450.389 273.099 450.278C272.488 449.972 270.127 448.555 269.543 448.555C269.404 448.555 269.015 448.611 269.015 448.833C269.015 448.944 269.904 449.833 269.988 449.889C269.738 449.889 269.488 449.889 269.293 449.889C268.099 449.889 266.932 450.139 265.765 450.666C264.904 451.055 264.071 451.222 263.238 451.222C261.182 451.222 261.154 450.194 260.21 451.25C259.21 452.361 262.043 452.583 263.238 452.583ZM263.238 458.389C264.432 458.389 265.599 458.111 266.765 457.611C267.627 457.222 268.46 457.028 269.293 457.028C269.515 457.028 269.71 457.028 269.877 457.055C269.765 457.194 269.015 457.916 269.015 458.028C269.015 458.25 269.404 458.305 269.543 458.305C270.238 458.305 272.515 456.889 273.099 456.583C273.293 456.472 273.293 456.166 273.099 456.055C272.488 455.75 270.127 454.333 269.543 454.333C269.404 454.333 269.015 454.416 269.015 454.639C269.015 454.75 269.904 455.611 269.988 455.694C269.738 455.666 269.488 455.666 269.293 455.666C268.099 455.666 266.932 455.944 265.765 456.444C264.904 456.833 264.071 457.028 263.238 457.028C261.182 457.028 261.154 455.972 260.21 457.028C259.21 458.166 262.043 458.389 263.238 458.389Z" fill="#00BFFF"/>
<path d="M483 437.5L515 405V474L483 507V437.5Z" fill="#007AFF"/>
<path d="M515 405H525L493 437H483L515 405Z" fill="#A9A9A9"/>
<path d="M515 474H525L493 506.5H483L515 474Z" fill="#3592F7"/>
<path d="M493 437L525 405V474L493 507V437Z" fill="#848484"/>
<path d="M495 437L524 408V473L495 503V437Z" fill="#BB5F5F"/>
<path d="M497.706 454.244C498.335 454.244 498.95 454.376 499.564 454.654C500.018 454.859 500.457 454.961 500.896 454.961C501.013 454.961 501.116 454.946 501.203 454.932C501.145 454.873 500.75 454.478 500.75 454.434C500.75 454.303 500.955 454.273 501.028 454.273C501.394 454.273 502.594 455.034 502.901 455.195C503.003 455.254 503.003 455.4 502.901 455.459C502.579 455.634 501.335 456.366 501.028 456.366C500.955 456.366 500.75 456.337 500.75 456.22C500.75 456.161 501.218 455.693 501.262 455.664C501.13 455.664 500.998 455.664 500.896 455.664C500.267 455.664 499.652 455.532 499.037 455.254C498.584 455.064 498.145 454.961 497.706 454.961C496.623 454.961 496.608 455.517 496.111 454.961C495.584 454.361 497.076 454.244 497.706 454.244ZM509.779 451.2C509.618 455.956 509.618 460.727 509.779 465.483C509.779 465.674 510.277 465.952 510.291 465.761C510.452 460.815 510.452 455.868 510.291 450.922C510.277 450.732 509.779 451.01 509.779 451.2ZM503.764 450.439C503.764 449.62 504.364 450.278 505.14 450.702C506.896 449.766 505.564 449.766 507.321 450.702C509.062 449.766 507.745 449.766 509.486 450.702C510.262 450.278 510.862 449.62 510.862 450.439C510.862 455.707 511.008 460.976 510.862 466.244C510.848 466.888 509.691 466.098 509.486 465.981C507.686 466.947 509.121 466.947 507.321 465.981C505.521 466.947 506.94 466.947 505.14 465.981C504.145 466.522 503.764 467.166 503.764 466.244V450.439ZM504.847 451.2C504.847 451.01 504.35 450.732 504.35 450.922C504.174 455.868 504.174 460.815 504.35 465.761C504.35 465.952 504.847 465.674 504.847 465.483C505.023 460.727 505.023 455.956 504.847 451.2ZM505.93 465.761C506.106 460.815 506.106 455.868 505.93 450.922C505.93 450.732 505.433 451.01 505.433 451.2C505.257 455.956 505.272 460.727 505.433 465.483C505.433 465.674 505.93 465.952 505.93 465.761ZM507.028 451.2C507.013 451.01 506.53 450.732 506.516 450.922C506.34 455.868 506.34 460.815 506.516 465.761C506.53 465.952 507.013 465.674 507.028 465.483C507.189 460.727 507.189 455.956 507.028 451.2ZM508.111 465.761C508.286 460.815 508.286 455.868 508.111 450.922C508.111 450.732 507.613 451.01 507.599 451.2C507.438 455.956 507.438 460.727 507.599 465.483C507.613 465.674 508.111 465.952 508.111 465.761ZM509.194 451.2C509.194 451.01 508.696 450.732 508.696 450.922C508.521 455.868 508.521 460.815 508.696 465.761C508.696 465.952 509.194 465.674 509.194 465.483C509.369 460.727 509.369 455.956 509.194 451.2ZM497.706 460.332C498.335 460.332 498.95 460.464 499.564 460.742C500.018 460.947 500.457 461.049 500.896 461.049C501.013 461.049 501.116 461.034 501.203 461.02C501.145 460.961 500.75 460.566 500.75 460.508C500.75 460.39 500.955 460.361 501.028 460.361C501.394 460.361 502.594 461.122 502.901 461.283C503.003 461.342 503.003 461.488 502.901 461.547C502.579 461.708 501.335 462.454 501.028 462.454C500.955 462.454 500.75 462.425 500.75 462.308C500.75 462.249 501.218 461.781 501.262 461.751C501.13 461.751 500.998 461.751 500.896 461.751C500.267 461.751 499.652 461.62 499.037 461.342C498.584 461.137 498.145 461.049 497.706 461.049C496.623 461.049 496.608 461.591 496.111 461.034C495.584 460.449 497.076 460.332 497.706 460.332ZM497.706 457.273C498.335 457.273 498.95 457.42 499.564 457.683C500.018 457.888 500.457 457.99 500.896 457.99C501.013 457.99 501.116 457.99 501.203 457.976C501.145 457.903 500.75 457.522 500.75 457.464C500.75 457.347 500.955 457.317 501.028 457.317C501.394 457.317 502.594 458.064 502.901 458.225C503.003 458.283 503.003 458.444 502.901 458.503C502.579 458.664 501.335 459.41 501.028 459.41C500.955 459.41 500.75 459.366 500.75 459.249C500.75 459.19 501.218 458.737 501.262 458.693C501.13 458.708 500.998 458.708 500.896 458.708C500.267 458.708 499.652 458.561 499.037 458.298C498.584 458.093 498.145 457.99 497.706 457.99C496.623 457.99 496.608 458.547 496.111 457.99C495.584 457.39 497.076 457.273 497.706 457.273Z" fill="#007AFF"/>
<path d="M518.119 432.336L518.764 431.239C518.793 431.19 518.793 431.129 518.764 431.08C518.735 431.03 518.681 431 518.623 431H515.5C515.434 431 515.374 431.04 515.349 431.1L515.177 431.522C512.828 431.686 511 433.606 511 435.929C511 437.633 511.996 439.178 513.552 439.912L513.266 440.64C513.238 440.713 513.267 440.796 513.336 440.835C513.361 440.85 513.39 440.857 513.418 440.857C513.465 440.857 513.511 440.837 513.543 440.8L514.11 440.131C514.558 440.274 515.025 440.346 515.5 440.346C517.981 440.346 520 438.364 520 435.929C520 434.5 519.299 433.166 518.119 432.336ZM517.903 435.52C517.876 435.464 517.819 435.428 517.755 435.428H516.302L517.607 433.209C518.469 433.854 518.981 434.86 518.981 435.929C518.981 437.813 517.419 439.346 515.5 439.346C515.275 439.346 515.05 439.324 514.831 439.282L517.88 435.69C517.921 435.643 517.929 435.576 517.903 435.52ZM515.61 431.319H518.341L515.88 435.508C515.851 435.558 515.851 435.618 515.88 435.668C515.909 435.717 515.962 435.748 516.02 435.748H517.408L513.938 439.835C513.938 439.829 513.938 439.823 513.937 439.818L515.305 436.327C515.324 436.277 515.317 436.222 515.287 436.179C515.257 436.135 515.207 436.11 515.153 436.11H513.658L515.61 431.319ZM513.283 436.359C513.314 436.403 513.364 436.429 513.418 436.429H514.916L513.919 438.973C512.76 438.392 512.019 437.214 512.019 435.929C512.019 435.108 512.32 434.315 512.865 433.696C513.356 433.138 514.015 432.752 514.741 432.593L513.267 436.21C513.247 436.259 513.253 436.315 513.283 436.359ZM511.325 435.929C511.325 433.827 512.94 432.08 515.042 431.855L514.884 432.241C514.007 432.381 513.204 432.823 512.619 433.487C512.023 434.165 511.694 435.032 511.694 435.929C511.694 437.346 512.517 438.643 513.802 439.273L513.669 439.613C512.239 438.927 511.325 437.501 511.325 435.929ZM515.5 440.027C515.103 440.027 514.713 439.972 514.336 439.865L514.597 439.559C514.891 439.629 515.194 439.665 515.5 439.665C517.599 439.665 519.306 437.989 519.306 435.929C519.306 434.747 518.734 433.634 517.77 432.93L517.956 432.614C519.035 433.386 519.675 434.614 519.675 435.929C519.675 438.188 517.802 440.027 515.5 440.027Z" fill="#1E90FF"/>
<path d="M497.706 473.244C498.335 473.244 498.95 473.376 499.564 473.654C500.018 473.859 500.457 473.961 500.896 473.961C501.013 473.961 501.116 473.946 501.203 473.932C501.145 473.873 500.75 473.478 500.75 473.434C500.75 473.303 500.955 473.273 501.028 473.273C501.394 473.273 502.594 474.034 502.901 474.195C503.003 474.254 503.003 474.4 502.901 474.459C502.579 474.634 501.335 475.366 501.028 475.366C500.955 475.366 500.75 475.337 500.75 475.22C500.75 475.161 501.218 474.693 501.262 474.664C501.13 474.664 500.998 474.664 500.896 474.664C500.267 474.664 499.652 474.532 499.037 474.254C498.584 474.064 498.145 473.961 497.706 473.961C496.623 473.961 496.608 474.517 496.111 473.961C495.584 473.361 497.076 473.244 497.706 473.244ZM509.779 470.2C509.618 474.956 509.618 479.727 509.779 484.483C509.779 484.674 510.277 484.952 510.291 484.761C510.452 479.815 510.452 474.868 510.291 469.922C510.277 469.732 509.779 470.01 509.779 470.2ZM503.764 469.439C503.764 468.62 504.364 469.278 505.14 469.702C506.896 468.766 505.564 468.766 507.321 469.702C509.062 468.766 507.745 468.766 509.486 469.702C510.262 469.278 510.862 468.62 510.862 469.439C510.862 474.707 511.008 479.976 510.862 485.244C510.848 485.888 509.691 485.098 509.486 484.981C507.686 485.947 509.121 485.947 507.321 484.981C505.521 485.947 506.94 485.947 505.14 484.981C504.145 485.522 503.764 486.166 503.764 485.244V469.439ZM504.847 470.2C504.847 470.01 504.35 469.732 504.35 469.922C504.174 474.868 504.174 479.815 504.35 484.761C504.35 484.952 504.847 484.674 504.847 484.483C505.023 479.727 505.023 474.956 504.847 470.2ZM505.93 484.761C506.106 479.815 506.106 474.868 505.93 469.922C505.93 469.732 505.433 470.01 505.433 470.2C505.257 474.956 505.272 479.727 505.433 484.483C505.433 484.674 505.93 484.952 505.93 484.761ZM507.028 470.2C507.013 470.01 506.53 469.732 506.516 469.922C506.34 474.868 506.34 479.815 506.516 484.761C506.53 484.952 507.013 484.674 507.028 484.483C507.189 479.727 507.189 474.956 507.028 470.2ZM508.111 484.761C508.286 479.815 508.286 474.868 508.111 469.922C508.111 469.732 507.613 470.01 507.599 470.2C507.438 474.956 507.438 479.727 507.599 484.483C507.613 484.674 508.111 484.952 508.111 484.761ZM509.194 470.2C509.194 470.01 508.696 469.732 508.696 469.922C508.521 474.868 508.521 479.815 508.696 484.761C508.696 484.952 509.194 484.674 509.194 484.483C509.369 479.727 509.369 474.956 509.194 470.2ZM497.706 479.332C498.335 479.332 498.95 479.464 499.564 479.742C500.018 479.947 500.457 480.049 500.896 480.049C501.013 480.049 501.116 480.034 501.203 480.02C501.145 479.961 500.75 479.566 500.75 479.508C500.75 479.39 500.955 479.361 501.028 479.361C501.394 479.361 502.594 480.122 502.901 480.283C503.003 480.342 503.003 480.488 502.901 480.547C502.579 480.708 501.335 481.454 501.028 481.454C500.955 481.454 500.75 481.425 500.75 481.308C500.75 481.249 501.218 480.781 501.262 480.751C501.13 480.751 500.998 480.751 500.896 480.751C500.267 480.751 499.652 480.62 499.037 480.342C498.584 480.137 498.145 480.049 497.706 480.049C496.623 480.049 496.608 480.591 496.111 480.034C495.584 479.449 497.076 479.332 497.706 479.332ZM497.706 476.273C498.335 476.273 498.95 476.42 499.564 476.683C500.018 476.888 500.457 476.99 500.896 476.99C501.013 476.99 501.116 476.99 501.203 476.976C501.145 476.903 500.75 476.522 500.75 476.464C500.75 476.347 500.955 476.317 501.028 476.317C501.394 476.317 502.594 477.064 502.901 477.225C503.003 477.283 503.003 477.444 502.901 477.503C502.579 477.664 501.335 478.41 501.028 478.41C500.955 478.41 500.75 478.366 500.75 478.249C500.75 478.19 501.218 477.737 501.262 477.693C501.13 477.708 500.998 477.708 500.896 477.708C500.267 477.708 499.652 477.561 499.037 477.298C498.584 477.093 498.145 476.99 497.706 476.99C496.623 476.99 496.608 477.547 496.111 476.99C495.584 476.39 497.076 476.273 497.706 476.273Z" fill="#007AFF"/>
<rect x="483" y="437" width="10" height="70" fill="#A1A1A1"/>
<path d="M544.238 465.139C545.432 465.139 546.599 464.889 547.765 464.361C548.627 463.972 549.46 463.778 550.293 463.778C550.515 463.778 550.71 463.805 550.877 463.833C550.765 463.944 550.015 464.694 550.015 464.778C550.015 465.028 550.404 465.083 550.543 465.083C551.238 465.083 553.515 463.639 554.099 463.333C554.293 463.222 554.293 462.944 554.099 462.833C553.488 462.5 551.127 461.111 550.543 461.111C550.404 461.111 550.015 461.166 550.015 461.389C550.015 461.5 550.904 462.389 550.988 462.444C550.738 462.444 550.488 462.444 550.293 462.444C549.099 462.444 547.932 462.694 546.765 463.222C545.904 463.583 545.071 463.778 544.238 463.778C542.182 463.778 542.154 462.722 541.21 463.778C540.21 464.916 543.043 465.139 544.238 465.139ZM544.238 453.583C545.432 453.583 546.599 453.333 547.765 452.805C548.627 452.416 549.46 452.222 550.293 452.222C550.515 452.222 550.71 452.25 550.877 452.278C550.765 452.389 550.015 453.139 550.015 453.25C550.015 453.472 550.404 453.528 550.543 453.528C551.238 453.528 553.515 452.083 554.099 451.778C554.293 451.666 554.293 451.389 554.099 451.278C553.488 450.972 551.127 449.555 550.543 449.555C550.404 449.555 550.015 449.611 550.015 449.833C550.015 449.944 550.904 450.833 550.988 450.889C550.738 450.889 550.488 450.889 550.293 450.889C549.099 450.889 547.932 451.139 546.765 451.666C545.904 452.055 545.071 452.222 544.238 452.222C542.182 452.222 542.154 451.194 541.21 452.25C540.21 453.361 543.043 453.583 544.238 453.583ZM544.238 459.389C545.432 459.389 546.599 459.111 547.765 458.611C548.627 458.222 549.46 458.028 550.293 458.028C550.515 458.028 550.71 458.028 550.877 458.055C550.765 458.194 550.015 458.916 550.015 459.028C550.015 459.25 550.404 459.305 550.543 459.305C551.238 459.305 553.515 457.889 554.099 457.583C554.293 457.472 554.293 457.166 554.099 457.055C553.488 456.75 551.127 455.333 550.543 455.333C550.404 455.333 550.015 455.416 550.015 455.639C550.015 455.75 550.904 456.611 550.988 456.694C550.738 456.666 550.488 456.666 550.293 456.666C549.099 456.666 547.932 456.944 546.765 457.444C545.904 457.833 545.071 458.028 544.238 458.028C542.182 458.028 542.154 456.972 541.21 458.028C540.21 459.166 543.043 459.389 544.238 459.389Z" fill="#00BFFF"/>
<path d="M533.082 458.402L538.992 457.518L533.259 456.668L542.035 452.952L532.339 454.014L537.045 450.298L531.666 452.422L537.399 444.813L529.543 450.581L531.772 444.99L528.163 449.52L529.331 440.071L525.402 448.989L524.518 443.079L523.668 448.812L519.952 440L521.014 449.697L517.298 444.99L519.422 450.369L511.813 444.636L517.581 452.492L511.99 450.263L516.52 453.873L507.071 452.705L515.989 456.633L510.079 457.518L515.812 458.367L507 462.083L516.697 461.021L511.99 464.737L517.369 462.614L511.636 470.222L519.492 464.454L517.263 470.045L520.873 465.516L519.74 474.965L523.668 466.047L524.553 471.957L525.402 466.223L529.118 475L528.057 465.303L531.772 470.01L529.649 464.631L537.258 470.364L531.489 462.508L537.081 464.737L532.551 461.127L542 462.295L533.082 458.402ZM524.518 465.728C519.988 465.728 516.307 462.048 516.307 457.518C516.307 452.988 519.988 449.307 524.518 449.307C529.047 449.307 532.728 452.988 532.728 457.518C532.728 462.048 529.047 465.728 524.518 465.728Z" fill="#00BFFF"/>
<path d="M532 457.5C532 461.642 528.642 465 524.5 465C520.358 465 517 461.642 517 457.5C517 453.358 520.358 450 524.5 450C528.642 450 532 453.358 532 457.5Z" fill="#00BFFF"/>
<path d="M518.119 470.336L518.764 469.239C518.793 469.19 518.793 469.129 518.764 469.08C518.735 469.03 518.681 469 518.623 469H515.5C515.434 469 515.374 469.04 515.349 469.1L515.177 469.522C512.828 469.686 511 471.606 511 473.929C511 475.633 511.996 477.178 513.552 477.912L513.266 478.64C513.238 478.713 513.267 478.796 513.336 478.835C513.361 478.85 513.39 478.857 513.418 478.857C513.465 478.857 513.511 478.837 513.543 478.8L514.11 478.131C514.558 478.274 515.025 478.346 515.5 478.346C517.981 478.346 520 476.364 520 473.929C520 472.5 519.299 471.166 518.119 470.336ZM517.903 473.52C517.876 473.464 517.819 473.428 517.755 473.428H516.302L517.607 471.209C518.469 471.854 518.981 472.86 518.981 473.929C518.981 475.813 517.419 477.346 515.5 477.346C515.275 477.346 515.05 477.324 514.831 477.282L517.88 473.69C517.921 473.643 517.929 473.576 517.903 473.52ZM515.61 469.319H518.341L515.88 473.508C515.851 473.558 515.851 473.618 515.88 473.668C515.909 473.717 515.962 473.748 516.02 473.748H517.408L513.938 477.835C513.938 477.829 513.938 477.823 513.937 477.818L515.305 474.327C515.324 474.277 515.317 474.222 515.287 474.179C515.257 474.135 515.207 474.11 515.153 474.11H513.658L515.61 469.319ZM513.283 474.359C513.314 474.403 513.364 474.429 513.418 474.429H514.916L513.919 476.973C512.76 476.392 512.019 475.214 512.019 473.929C512.019 473.108 512.32 472.315 512.865 471.696C513.356 471.138 514.015 470.752 514.741 470.593L513.267 474.21C513.247 474.259 513.253 474.315 513.283 474.359ZM511.325 473.929C511.325 471.827 512.94 470.08 515.042 469.855L514.884 470.241C514.007 470.381 513.204 470.823 512.619 471.487C512.023 472.165 511.694 473.032 511.694 473.929C511.694 475.346 512.517 476.643 513.802 477.273L513.669 477.613C512.239 476.927 511.325 475.501 511.325 473.929ZM515.5 478.027C515.103 478.027 514.713 477.972 514.336 477.865L514.597 477.559C514.891 477.629 515.194 477.665 515.5 477.665C517.599 477.665 519.306 475.989 519.306 473.929C519.306 472.747 518.734 471.634 517.77 470.93L517.956 470.614C519.035 471.386 519.675 472.614 519.675 473.929C519.675 476.188 517.802 478.027 515.5 478.027Z" fill="#1E90FF"/>
<path d="M497.706 435.244C498.335 435.244 498.95 435.376 499.564 435.654C500.018 435.859 500.457 435.961 500.896 435.961C501.013 435.961 501.116 435.946 501.203 435.932C501.145 435.873 500.75 435.478 500.75 435.434C500.75 435.303 500.955 435.273 501.028 435.273C501.394 435.273 502.594 436.034 502.901 436.195C503.003 436.254 503.003 436.4 502.901 436.459C502.579 436.634 501.335 437.366 501.028 437.366C500.955 437.366 500.75 437.337 500.75 437.22C500.75 437.161 501.218 436.693 501.262 436.664C501.13 436.664 500.998 436.664 500.896 436.664C500.267 436.664 499.652 436.532 499.037 436.254C498.584 436.064 498.145 435.961 497.706 435.961C496.623 435.961 496.608 436.517 496.111 435.961C495.584 435.361 497.076 435.244 497.706 435.244ZM509.779 432.2C509.618 436.956 509.618 441.727 509.779 446.483C509.779 446.674 510.277 446.952 510.291 446.761C510.452 441.815 510.452 436.868 510.291 431.922C510.277 431.732 509.779 432.01 509.779 432.2ZM503.764 431.439C503.764 430.62 504.364 431.278 505.14 431.702C506.896 430.766 505.564 430.766 507.321 431.702C509.062 430.766 507.745 430.766 509.486 431.702C510.262 431.278 510.862 430.62 510.862 431.439C510.862 436.707 511.008 441.976 510.862 447.244C510.848 447.888 509.691 447.098 509.486 446.981C507.686 447.947 509.121 447.947 507.321 446.981C505.521 447.947 506.94 447.947 505.14 446.981C504.145 447.522 503.764 448.166 503.764 447.244V431.439ZM504.847 432.2C504.847 432.01 504.35 431.732 504.35 431.922C504.174 436.868 504.174 441.815 504.35 446.761C504.35 446.952 504.847 446.674 504.847 446.483C505.023 441.727 505.023 436.956 504.847 432.2ZM505.93 446.761C506.106 441.815 506.106 436.868 505.93 431.922C505.93 431.732 505.433 432.01 505.433 432.2C505.257 436.956 505.272 441.727 505.433 446.483C505.433 446.674 505.93 446.952 505.93 446.761ZM507.028 432.2C507.013 432.01 506.53 431.732 506.516 431.922C506.34 436.868 506.34 441.815 506.516 446.761C506.53 446.952 507.013 446.674 507.028 446.483C507.189 441.727 507.189 436.956 507.028 432.2ZM508.111 446.761C508.286 441.815 508.286 436.868 508.111 431.922C508.111 431.732 507.613 432.01 507.599 432.2C507.438 436.956 507.438 441.727 507.599 446.483C507.613 446.674 508.111 446.952 508.111 446.761ZM509.194 432.2C509.194 432.01 508.696 431.732 508.696 431.922C508.521 436.868 508.521 441.815 508.696 446.761C508.696 446.952 509.194 446.674 509.194 446.483C509.369 441.727 509.369 436.956 509.194 432.2ZM497.706 441.332C498.335 441.332 498.95 441.464 499.564 441.742C500.018 441.947 500.457 442.049 500.896 442.049C501.013 442.049 501.116 442.034 501.203 442.02C501.145 441.961 500.75 441.566 500.75 441.508C500.75 441.39 500.955 441.361 501.028 441.361C501.394 441.361 502.594 442.122 502.901 442.283C503.003 442.342 503.003 442.488 502.901 442.547C502.579 442.708 501.335 443.454 501.028 443.454C500.955 443.454 500.75 443.425 500.75 443.308C500.75 443.249 501.218 442.781 501.262 442.751C501.13 442.751 500.998 442.751 500.896 442.751C500.267 442.751 499.652 442.62 499.037 442.342C498.584 442.137 498.145 442.049 497.706 442.049C496.623 442.049 496.608 442.591 496.111 442.034C495.584 441.449 497.076 441.332 497.706 441.332ZM497.706 438.273C498.335 438.273 498.95 438.42 499.564 438.683C500.018 438.888 500.457 438.99 500.896 438.99C501.013 438.99 501.116 438.99 501.203 438.976C501.145 438.903 500.75 438.522 500.75 438.464C500.75 438.347 500.955 438.317 501.028 438.317C501.394 438.317 502.594 439.064 502.901 439.225C503.003 439.283 503.003 439.444 502.901 439.503C502.579 439.664 501.335 440.41 501.028 440.41C500.955 440.41 500.75 440.366 500.75 440.249C500.75 440.19 501.218 439.737 501.262 439.693C501.13 439.708 500.998 439.708 500.896 439.708C500.267 439.708 499.652 439.561 499.037 439.298C498.584 439.093 498.145 438.99 497.706 438.99C496.623 438.99 496.608 439.547 496.111 438.99C495.584 438.39 497.076 438.273 497.706 438.273Z" fill="#007AFF"/>
<rect x="181" y="405" width="5" height="68" fill="#A9C7C9"/>
<rect x="173" y="405" width="5" height="68" fill="#A9C7C9"/>
<path d="M173 405H178L147 437H142L173 405Z" fill="#C4C4C4"/>
<path d="M181 405H186L155 437H150L181 405Z" fill="#C4C4C4"/>
<path d="M173 466H186L155 498H142L173 466Z" fill="url(#paint2_linear)"/>
<path d="M173 434H186L155 466H142L173 434Z" fill="url(#paint3_linear)"/>
<path d="M173 450H186L155 482H142L173 450Z" fill="url(#paint4_linear)"/>
<path d="M173 418H186L155 450H142L173 418Z" fill="url(#paint5_linear)"/>
<rect x="142" y="466" width="13" height="1" fill="#BEBEBE"/>
<rect x="142" y="450" width="13" height="1" fill="#BEBEBE"/>
<rect x="142" y="498" width="13" height="1" fill="#BEBEBE"/>
<rect x="142" y="482" width="13" height="1" fill="#BEBEBE"/>
<rect x="150" y="437" width="5" height="70" fill="#CFE2E9"/>
<rect x="142" y="437" width="5" height="70" fill="#CFE2E9"/>
<circle cx="144.5" cy="450.5" r="1.5" fill="#C4C4C4"/>
<circle cx="152.5" cy="450.5" r="1.5" fill="#C4C4C4"/>
<circle cx="144.5" cy="466.5" r="1.5" fill="#C4C4C4"/>
<circle cx="152.5" cy="466.5" r="1.5" fill="#C4C4C4"/>
<circle cx="144.5" cy="498.5" r="1.5" fill="#C4C4C4"/>
<circle cx="152.5" cy="498.5" r="1.5" fill="#C4C4C4"/>
<circle cx="144.5" cy="482.5" r="1.5" fill="#C4C4C4"/>
<circle cx="152.5" cy="482.5" r="1.5" fill="#C4C4C4"/>
<path d="M141.477 405H1110L1077.31 437H110L141.477 405Z" fill="white" fill-opacity="0.5"/>
<path d="M141.477 275H1110L1077.31 309H110L141.477 275Z" fill="url(#paint6_linear)"/>
<rect x="142" y="207" width="968" height="68" fill="#848484"/>
<rect x="182" y="207" width="5" height="68" fill="#A9C7C9"/>
<rect x="174" y="207" width="5" height="68" fill="#A9C7C9"/>
<path d="M174 207H179L148 239H143L174 207Z" fill="#C4C4C4"/>
<path d="M182 207H187L156 239H151L182 207Z" fill="#C4C4C4"/>
<path d="M174 268H187L156 300H143L174 268Z" fill="url(#paint7_linear)"/>
<path d="M174 236H187L156 268H143L174 236Z" fill="url(#paint8_linear)"/>
<path d="M174 252H187L156 284H143L174 252Z" fill="url(#paint9_linear)"/>
<path d="M174 220H187L156 252H143L174 220Z" fill="url(#paint10_linear)"/>
<rect x="143" y="268" width="13" height="1" fill="#BEBEBE"/>
<rect x="143" y="252" width="13" height="1" fill="#BEBEBE"/>
<rect x="143" y="300" width="13" height="1" fill="#BEBEBE"/>
<rect x="143" y="284" width="13" height="1" fill="#BEBEBE"/>
<rect x="151" y="239" width="5" height="70" fill="#CFE2E9"/>
<rect x="143" y="239" width="5" height="70" fill="#CFE2E9"/>
<circle cx="145.5" cy="252.5" r="1.5" fill="#C4C4C4"/>
<circle cx="153.5" cy="252.5" r="1.5" fill="#C4C4C4"/>
<circle cx="145.5" cy="268.5" r="1.5" fill="#C4C4C4"/>
<circle cx="153.5" cy="268.5" r="1.5" fill="#C4C4C4"/>
<circle cx="145.5" cy="300.5" r="1.5" fill="#C4C4C4"/>
<circle cx="153.5" cy="300.5" r="1.5" fill="#C4C4C4"/>
<circle cx="145.5" cy="284.5" r="1.5" fill="#C4C4C4"/>
<circle cx="153.5" cy="284.5" r="1.5" fill="#C4C4C4"/>
<path d="M755.008 239.83L754.994 239.845H754.973H734.546C732.645 239.845 731.05 241.366 731.05 243.264V304.859C731.05 305.847 731.437 306.582 732.058 307.072C732.681 307.562 733.544 307.809 734.5 307.809H746H757C762.215 307.81 766.503 307.809 771.332 307.809C774.837 307.809 778.626 307.809 783.262 307.809C794.271 307.809 804.202 303.344 811.439 296.107C818.676 288.87 823.141 278.939 823.141 267.93C823.141 256.921 818.676 246.913 811.44 239.753L811.439 239.753C804.202 232.516 794.271 228.051 783.262 228.051C772.253 228.051 762.245 232.516 755.085 239.753L755.085 239.753L755.008 239.83ZM757.944 242.612L757.944 242.611C764.428 236.205 773.382 232.191 783.262 232.191C793.143 232.191 802.097 236.205 808.504 242.612C814.988 249.096 819.002 258.05 819.002 267.93C819.002 277.81 814.988 286.765 808.504 293.172C802.097 299.656 793.143 303.67 783.262 303.67C773.382 303.67 764.428 299.656 757.944 293.172C751.537 286.765 747.523 277.811 747.523 267.93C747.523 258.05 751.537 249.096 757.944 242.612Z" fill="url(#paint11_linear)" stroke="#848484" stroke-width="0.1"/>
<circle r="36" transform="matrix(1 0 0 -1 783 267.859)" fill="#808080"/>
<path d="M576 239.5L608 207V276L576 309V239.5Z" fill="#007AFF"/>
<path d="M608 207H618L586 239H576L608 207Z" fill="#A9A9A9"/>
<path d="M608 276H618L586 308.5H576L608 276Z" fill="#3592F7"/>
<path d="M586 239L618 207V276L586 309V239Z" fill="#848484"/>
<path d="M588 239L617 210V275L588 305V239Z" fill="#C0A57F"/>
<rect x="576" y="239" width="10" height="70" fill="#A1A1A1"/>
<path d="M622.095 250.056C620.901 250.056 619.734 250.306 618.568 250.833C617.706 251.222 616.873 251.417 616.04 251.417C615.818 251.417 615.623 251.389 615.456 251.361C615.568 251.25 616.318 250.5 616.318 250.417C616.318 250.167 615.929 250.111 615.79 250.111C615.095 250.111 612.818 251.556 612.234 251.861C612.04 251.972 612.04 252.25 612.234 252.361C612.845 252.694 615.206 254.083 615.79 254.083C615.929 254.083 616.318 254.028 616.318 253.806C616.318 253.694 615.429 252.806 615.345 252.75C615.595 252.75 615.845 252.75 616.04 252.75C617.234 252.75 618.401 252.5 619.568 251.972C620.429 251.611 621.262 251.417 622.095 251.417C624.151 251.417 624.179 252.472 625.123 251.417C626.123 250.278 623.29 250.056 622.095 250.056ZM599.179 244.278C599.484 253.306 599.484 262.361 599.179 271.389C599.179 271.75 598.234 272.278 598.206 271.917C597.901 262.528 597.901 253.139 598.206 243.75C598.234 243.389 599.179 243.917 599.179 244.278ZM610.595 242.833C610.595 241.278 609.456 242.528 607.984 243.333C604.651 241.556 607.179 241.556 603.845 243.333C600.54 241.556 603.04 241.556 599.734 243.333C598.262 242.528 597.123 241.278 597.123 242.833C597.123 252.833 596.845 262.833 597.123 272.833C597.151 274.056 599.345 272.556 599.734 272.333C603.151 274.167 600.429 274.167 603.845 272.333C607.262 274.167 604.568 274.167 607.984 272.333C609.873 273.361 610.595 274.583 610.595 272.833V242.833ZM608.54 244.278C608.54 243.917 609.484 243.389 609.484 243.75C609.818 253.139 609.818 262.528 609.484 271.917C609.484 272.278 608.54 271.75 608.54 271.389C608.206 262.361 608.206 253.306 608.54 244.278ZM606.484 271.917C606.151 262.528 606.151 253.139 606.484 243.75C606.484 243.389 607.429 243.917 607.429 244.278C607.762 253.306 607.734 262.361 607.429 271.389C607.429 271.75 606.484 272.278 606.484 271.917ZM604.401 244.278C604.429 243.917 605.345 243.389 605.373 243.75C605.706 253.139 605.706 262.528 605.373 271.917C605.345 272.278 604.429 271.75 604.401 271.389C604.095 262.361 604.095 253.306 604.401 244.278ZM602.345 271.917C602.012 262.528 602.012 253.139 602.345 243.75C602.345 243.389 603.29 243.917 603.318 244.278C603.623 253.306 603.623 262.361 603.318 271.389C603.29 271.75 602.345 272.278 602.345 271.917ZM600.29 244.278C600.29 243.917 601.234 243.389 601.234 243.75C601.568 253.139 601.568 262.528 601.234 271.917C601.234 272.278 600.29 271.75 600.29 271.389C599.956 262.361 599.956 253.306 600.29 244.278ZM622.095 261.611C620.901 261.611 619.734 261.861 618.568 262.389C617.706 262.778 616.873 262.972 616.04 262.972C615.818 262.972 615.623 262.944 615.456 262.917C615.568 262.806 616.318 262.056 616.318 261.944C616.318 261.722 615.929 261.667 615.79 261.667C615.095 261.667 612.818 263.111 612.234 263.417C612.04 263.528 612.04 263.806 612.234 263.917C612.845 264.222 615.206 265.639 615.79 265.639C615.929 265.639 616.318 265.583 616.318 265.361C616.318 265.25 615.429 264.361 615.345 264.306C615.595 264.306 615.845 264.306 616.04 264.306C617.234 264.306 618.401 264.056 619.568 263.528C620.429 263.139 621.262 262.972 622.095 262.972C624.151 262.972 624.179 264 625.123 262.944C626.123 261.833 623.29 261.611 622.095 261.611ZM622.095 255.806C620.901 255.806 619.734 256.083 618.568 256.583C617.706 256.972 616.873 257.167 616.04 257.167C615.818 257.167 615.623 257.167 615.456 257.139C615.568 257 616.318 256.278 616.318 256.167C616.318 255.944 615.929 255.889 615.79 255.889C615.095 255.889 612.818 257.306 612.234 257.611C612.04 257.722 612.04 258.028 612.234 258.139C612.845 258.444 615.206 259.861 615.79 259.861C615.929 259.861 616.318 259.778 616.318 259.556C616.318 259.444 615.429 258.583 615.345 258.5C615.595 258.528 615.845 258.528 616.04 258.528C617.234 258.528 618.401 258.25 619.568 257.75C620.429 257.361 621.262 257.167 622.095 257.167C624.151 257.167 624.179 258.222 625.123 257.167C626.123 256.028 623.29 255.806 622.095 255.806Z" fill="#00BFFF"/>
<path d="M141.477 207H1110L1077.31 239H110L141.477 207Z" fill="white" fill-opacity="0.5"/>
<defs>
<linearGradient id="paint0_linear" x1="610" y1="473" x2="610" y2="518.333" gradientUnits="userSpaceOnUse">
<stop stop-color="#A6A5A5"/>
<stop offset="1" stop-color="white"/>
</linearGradient>
<linearGradient id="paint1_linear" x1="904.546" y1="438.642" x2="905.317" y2="494.527" gradientUnits="userSpaceOnUse">
<stop stop-color="#848484"/>
<stop offset="0.499267" stop-color="white"/>
<stop offset="1" stop-color="#848484"/>
</linearGradient>
<linearGradient id="paint2_linear" x1="158" y1="482" x2="164.5" y2="488.5" gradientUnits="userSpaceOnUse">
<stop stop-color="#C4C4C4"/>
<stop offset="0.494792" stop-color="white"/>
<stop offset="1" stop-color="#BEBEBE"/>
</linearGradient>
<linearGradient id="paint3_linear" x1="158" y1="450" x2="164.5" y2="456.5" gradientUnits="userSpaceOnUse">
<stop stop-color="#C4C4C4"/>
<stop offset="0.494792" stop-color="white"/>
<stop offset="1" stop-color="#BEBEBE"/>
</linearGradient>
<linearGradient id="paint4_linear" x1="158" y1="466" x2="164.5" y2="472.5" gradientUnits="userSpaceOnUse">
<stop stop-color="#C4C4C4"/>
<stop offset="0.494792" stop-color="white"/>
<stop offset="1" stop-color="#BEBEBE"/>
</linearGradient>
<linearGradient id="paint5_linear" x1="158" y1="434" x2="164.5" y2="440.5" gradientUnits="userSpaceOnUse">
<stop stop-color="#C4C4C4"/>
<stop offset="0.494792" stop-color="white"/>
<stop offset="1" stop-color="#BEBEBE"/>
</linearGradient>
<linearGradient id="paint6_linear" x1="610" y1="275.16" x2="610" y2="320.064" gradientUnits="userSpaceOnUse">
<stop stop-color="#A6A5A5"/>
<stop offset="1" stop-color="white"/>
</linearGradient>
<linearGradient id="paint7_linear" x1="159" y1="284" x2="165.5" y2="290.5" gradientUnits="userSpaceOnUse">
<stop stop-color="#C4C4C4"/>
<stop offset="0.494792" stop-color="white"/>
<stop offset="1" stop-color="#BEBEBE"/>
</linearGradient>
<linearGradient id="paint8_linear" x1="159" y1="252" x2="165.5" y2="258.5" gradientUnits="userSpaceOnUse">
<stop stop-color="#C4C4C4"/>
<stop offset="0.494792" stop-color="white"/>
<stop offset="1" stop-color="#BEBEBE"/>
</linearGradient>
<linearGradient id="paint9_linear" x1="159" y1="268" x2="165.5" y2="274.5" gradientUnits="userSpaceOnUse">
<stop stop-color="#C4C4C4"/>
<stop offset="0.494792" stop-color="white"/>
<stop offset="1" stop-color="#BEBEBE"/>
</linearGradient>
<linearGradient id="paint10_linear" x1="159" y1="236" x2="165.5" y2="242.5" gradientUnits="userSpaceOnUse">
<stop stop-color="#C4C4C4"/>
<stop offset="0.494792" stop-color="white"/>
<stop offset="1" stop-color="#BEBEBE"/>
</linearGradient>
<linearGradient id="paint11_linear" x1="745.646" y1="239.642" x2="744.875" y2="295.527" gradientUnits="userSpaceOnUse">
<stop stop-color="#848484"/>
<stop offset="0.499267" stop-color="white"/>
<stop offset="1" stop-color="#848484"/>
</linearGradient>
</defs>
</svg>
