<svg width="1280" height="720" viewBox="0 0 1280 720" fill="none" xmlns="http://www.w3.org/2000/svg">
<path d="M727 493.998H1138L1124.11 527.998H713L727 493.998Z" fill="url(#paint0_linear)"/>
<path d="M149.458 493.998H572L547.238 525.998H138L149.458 493.998Z" fill="url(#paint1_linear)"/>
<path d="M678 425.998H1138V493.998H727L678 425.998Z" fill="#848484"/>
<path d="M877 461.5L909 429V498L877 531V461.5Z" fill="#007AFF"/>
<path d="M909 429H919L887 461H877L909 429Z" fill="#A9A9A9"/>
<path d="M909 498H919L887 530.5H877L909 498Z" fill="#3592F7"/>
<path d="M887 461L919 429V498L887 531V461Z" fill="#848484"/>
<path d="M889 461L918 432V497L889 527V461Z" fill="#BB5F5F"/>
<rect x="877" y="461" width="10" height="70" fill="#A1A1A1"/>
<path d="M935.238 489.139C936.432 489.139 937.599 488.889 938.766 488.361C939.627 487.972 940.46 487.778 941.293 487.778C941.516 487.778 941.71 487.805 941.877 487.833C941.766 487.944 941.016 488.694 941.016 488.778C941.016 489.028 941.405 489.083 941.543 489.083C942.238 489.083 944.516 487.639 945.099 487.333C945.293 487.222 945.293 486.944 945.099 486.833C944.488 486.5 942.127 485.111 941.543 485.111C941.405 485.111 941.016 485.166 941.016 485.389C941.016 485.5 941.905 486.389 941.988 486.444C941.738 486.444 941.488 486.444 941.293 486.444C940.099 486.444 938.932 486.694 937.766 487.222C936.905 487.583 936.071 487.778 935.238 487.778C933.182 487.778 933.155 486.722 932.21 487.778C931.21 488.916 934.043 489.139 935.238 489.139ZM935.238 477.583C936.432 477.583 937.599 477.333 938.766 476.805C939.627 476.416 940.46 476.222 941.293 476.222C941.516 476.222 941.71 476.25 941.877 476.278C941.766 476.389 941.016 477.139 941.016 477.25C941.016 477.472 941.405 477.528 941.543 477.528C942.238 477.528 944.516 476.083 945.099 475.778C945.293 475.666 945.293 475.389 945.099 475.278C944.488 474.972 942.127 473.555 941.543 473.555C941.405 473.555 941.016 473.611 941.016 473.833C941.016 473.944 941.905 474.833 941.988 474.889C941.738 474.889 941.488 474.889 941.293 474.889C940.099 474.889 938.932 475.139 937.766 475.666C936.905 476.055 936.071 476.222 935.238 476.222C933.182 476.222 933.155 475.194 932.21 476.25C931.21 477.361 934.043 477.583 935.238 477.583ZM935.238 483.389C936.432 483.389 937.599 483.111 938.766 482.611C939.627 482.222 940.46 482.028 941.293 482.028C941.516 482.028 941.71 482.028 941.877 482.055C941.766 482.194 941.016 482.916 941.016 483.028C941.016 483.25 941.405 483.305 941.543 483.305C942.238 483.305 944.516 481.889 945.099 481.583C945.293 481.472 945.293 481.166 945.099 481.055C944.488 480.75 942.127 479.333 941.543 479.333C941.405 479.333 941.016 479.416 941.016 479.639C941.016 479.75 941.905 480.611 941.988 480.694C941.738 480.666 941.488 480.666 941.293 480.666C940.099 480.666 938.932 480.944 937.766 481.444C936.905 481.833 936.071 482.028 935.238 482.028C933.182 482.028 933.155 480.972 932.21 482.028C931.21 483.166 934.043 483.389 935.238 483.389Z" fill="#00BFFF"/>
<path d="M924.082 482.402L929.992 481.518L924.259 480.668L933.036 476.952L923.339 478.014L928.046 474.298L922.667 476.422L928.4 468.813L920.543 474.581L922.773 468.99L919.163 473.52L920.331 464.071L916.403 472.989L915.518 467.079L914.669 472.812L910.953 464L912.014 473.697L908.299 468.99L910.422 474.369L902.813 468.636L908.582 476.492L902.99 474.263L907.52 477.873L898.071 476.705L906.989 480.633L901.079 481.518L906.812 482.367L898 486.083L907.697 485.021L902.99 488.737L908.369 486.614L902.636 494.222L910.493 488.454L908.263 494.045L911.873 489.516L910.74 498.965L914.669 490.047L915.553 495.957L916.403 490.223L920.119 499L919.057 489.303L922.773 494.01L920.649 488.631L928.258 494.364L922.49 486.508L928.081 488.737L923.551 485.127L933 486.295L924.082 482.402ZM915.518 489.728C910.988 489.728 907.308 486.048 907.308 481.518C907.308 476.988 910.988 473.307 915.518 473.307C920.048 473.307 923.728 476.988 923.728 481.518C923.728 486.048 920.048 489.728 915.518 489.728Z" fill="#00BFFF"/>
<path d="M923 481.5C923 485.642 919.642 489 915.5 489C911.358 489 908 485.642 908 481.5C908 477.358 911.358 474 915.5 474C919.642 474 923 477.358 923 481.5Z" fill="#00BFFF"/>
<path d="M842 480.129V577H848V480.129C846 479.957 844.5 479.957 842 480.129Z" fill="url(#paint2_linear)"/>
<path d="M826.074 675.21L825.94 695.045L831.914 695.085L832.048 675.25C829.932 671.909 829.069 670.203 826.074 675.21Z" fill="url(#paint3_linear)"/>
<path d="M883.579 473H849V479H883.579C886.598 476.967 887.01 475.463 883.579 473Z" fill="url(#paint4_linear)"/>
<path d="M848.224 473.037L848.002 479L846.669 473.037H848.224Z" fill="url(#paint5_linear)"/>
<path d="M846.668 473.037L848 479L843.558 473.811C844.672 473.073 845.305 472.916 846.668 473.037Z" fill="url(#paint6_linear)"/>
<path d="M842 480V479H848V480H842Z" fill="url(#paint7_linear)"/>
<path d="M849 479H848V473H849V479Z" fill="url(#paint8_linear)"/>
<path d="M842.003 479.227L848.002 479L842.003 477.679V479.227Z" fill="url(#paint9_linear)"/>
<path d="M842.002 477.679L848 479L843.557 473.811C842.231 474.727 841.976 475.645 842.002 477.679Z" fill="url(#paint10_linear)"/>
<path d="M883.661 519H869V525H883.661C886.12 522.852 887.377 521.974 883.661 519Z" fill="url(#paint11_linear)"/>
<path d="M868.223 519.037L868.001 525L866.668 519.037H868.223Z" fill="url(#paint12_linear)"/>
<path d="M866.667 519.037L867.999 525L863.557 519.811C864.671 519.073 865.304 518.916 866.667 519.037Z" fill="url(#paint13_linear)"/>
<path d="M862 526V525H868V526H862Z" fill="url(#paint14_linear)"/>
<path d="M869 525H868V519H869V525Z" fill="url(#paint15_linear)"/>
<path d="M862.002 525.227L868.001 525L862.002 523.679V525.227Z" fill="url(#paint16_linear)"/>
<path d="M862.002 523.679L868 525L863.557 519.811C862.231 520.727 861.976 521.645 862.002 523.679Z" fill="url(#paint17_linear)"/>
<path d="M862 526V695H868V526H862Z" fill="url(#paint18_linear)"/>
<path d="M150 422.998L549.5 424L495 493.998H150V422.998Z" fill="#848484"/>
<rect x="224" y="424" width="5" height="68" fill="#A9C7C9"/>
<rect x="216" y="424" width="5" height="68" fill="#A9C7C9"/>
<path d="M216 424H221L190 456H185L216 424Z" fill="#C4C4C4"/>
<path d="M224 424H229L198 456H193L224 424Z" fill="#C4C4C4"/>
<path d="M216 485H229L198 517H185L216 485Z" fill="url(#paint19_linear)"/>
<path d="M216 453H229L198 485H185L216 453Z" fill="url(#paint20_linear)"/>
<path d="M216 469H229L198 501H185L216 469Z" fill="url(#paint21_linear)"/>
<path d="M216 437H229L198 469H185L216 437Z" fill="url(#paint22_linear)"/>
<rect x="185" y="485" width="13" height="1" fill="#BEBEBE"/>
<rect x="185" y="469" width="13" height="1" fill="#BEBEBE"/>
<rect x="185" y="517" width="13" height="1" fill="#BEBEBE"/>
<rect x="185" y="501" width="13" height="1" fill="#BEBEBE"/>
<rect x="193" y="456" width="5" height="70" fill="#CFE2E9"/>
<rect x="185" y="456" width="5" height="70" fill="#CFE2E9"/>
<circle cx="187.5" cy="469.5" r="1.5" fill="#C4C4C4"/>
<circle cx="195.5" cy="469.5" r="1.5" fill="#C4C4C4"/>
<circle cx="187.5" cy="485.5" r="1.5" fill="#C4C4C4"/>
<circle cx="195.5" cy="485.5" r="1.5" fill="#C4C4C4"/>
<circle cx="187.5" cy="517.5" r="1.5" fill="#C4C4C4"/>
<circle cx="195.5" cy="517.5" r="1.5" fill="#C4C4C4"/>
<circle cx="187.5" cy="501.5" r="1.5" fill="#C4C4C4"/>
<circle cx="195.5" cy="501.5" r="1.5" fill="#C4C4C4"/>
<path d="M1063.18 457.83L1063.2 457.845H1063.22H1083.65C1085.55 457.845 1087.14 459.366 1087.14 461.264V522.859C1087.14 523.847 1086.75 524.582 1086.13 525.072C1085.51 525.562 1084.65 525.809 1083.69 525.809H1072.19H1061.19C1055.98 525.81 1051.69 525.809 1046.86 525.809C1043.35 525.809 1039.56 525.809 1034.93 525.809C1023.92 525.809 1013.99 521.344 1006.75 514.107C999.515 506.87 995.05 496.939 995.05 485.93C995.05 474.921 999.515 464.913 1006.75 457.753L1006.75 457.753C1013.99 450.516 1023.92 446.051 1034.93 446.051C1045.94 446.051 1055.95 450.516 1063.11 457.753L1063.11 457.753L1063.18 457.83ZM1060.25 460.612L1060.25 460.611C1053.76 454.205 1044.81 450.191 1034.93 450.191C1025.05 450.191 1016.09 454.205 1009.69 460.612C1003.2 467.096 999.19 476.05 999.19 485.93C999.19 495.81 1003.2 504.765 1009.69 511.172C1016.09 517.656 1025.05 521.67 1034.93 521.67C1044.81 521.67 1053.76 517.656 1060.25 511.172C1066.65 504.765 1070.67 495.811 1070.67 485.93C1070.67 476.05 1066.65 467.096 1060.25 460.612Z" fill="url(#paint23_linear)" stroke="#848484" stroke-width="0.1"/>
<circle cx="1035.19" cy="485.859" r="36" transform="rotate(-180 1035.19 485.859)" fill="#808080"/>
<path d="M764 426H1138L1125.38 458H752L764 426Z" fill="white" fill-opacity="0.5"/>
<path d="M147 212L523.5 210.998L506 242.998H138L147 212Z" fill="url(#paint24_linear)"/>
<path d="M523.5 210.998L727 493.998L713 527.998L506 242.998L523.5 210.998Z" fill="white" fill-opacity="0.5"/>
<path d="M147 141H548L536.976 212H147V141Z" fill="#848484"/>
<path d="M354.266 173.5L386.266 141V210L354.266 243V173.5Z" fill="#007AFF"/>
<path d="M386.266 141H396.266L364.266 173H354.266L386.266 141Z" fill="#A9A9A9"/>
<path d="M386.266 210H396.266L364.266 242.5H354.266L386.266 210Z" fill="#3592F7"/>
<path d="M364.266 173L396.266 141V210L364.266 243V173Z" fill="#848484"/>
<path d="M366.266 173L395.266 144V209L366.266 239V173Z" fill="#BB5F5F"/>
<rect x="354.266" y="173" width="10" height="70" fill="#A1A1A1"/>
<path d="M412.503 201.139C413.698 201.139 414.865 200.889 416.031 200.361C416.892 199.972 417.726 199.778 418.559 199.778C418.781 199.778 418.976 199.805 419.142 199.833C419.031 199.944 418.281 200.694 418.281 200.778C418.281 201.028 418.67 201.083 418.809 201.083C419.503 201.083 421.781 199.639 422.365 199.333C422.559 199.222 422.559 198.944 422.365 198.833C421.753 198.5 419.392 197.111 418.809 197.111C418.67 197.111 418.281 197.166 418.281 197.389C418.281 197.5 419.17 198.389 419.253 198.444C419.003 198.444 418.753 198.444 418.559 198.444C417.365 198.444 416.198 198.694 415.031 199.222C414.17 199.583 413.337 199.778 412.503 199.778C410.448 199.778 410.42 198.722 409.476 199.778C408.476 200.916 411.309 201.139 412.503 201.139ZM412.503 189.583C413.698 189.583 414.865 189.333 416.031 188.805C416.892 188.416 417.726 188.222 418.559 188.222C418.781 188.222 418.976 188.25 419.142 188.278C419.031 188.389 418.281 189.139 418.281 189.25C418.281 189.472 418.67 189.528 418.809 189.528C419.503 189.528 421.781 188.083 422.365 187.778C422.559 187.666 422.559 187.389 422.365 187.278C421.753 186.972 419.392 185.555 418.809 185.555C418.67 185.555 418.281 185.611 418.281 185.833C418.281 185.944 419.17 186.833 419.253 186.889C419.003 186.889 418.753 186.889 418.559 186.889C417.365 186.889 416.198 187.139 415.031 187.666C414.17 188.055 413.337 188.222 412.503 188.222C410.448 188.222 410.42 187.194 409.476 188.25C408.476 189.361 411.309 189.583 412.503 189.583ZM412.503 195.389C413.698 195.389 414.865 195.111 416.031 194.611C416.892 194.222 417.726 194.028 418.559 194.028C418.781 194.028 418.976 194.028 419.142 194.055C419.031 194.194 418.281 194.916 418.281 195.028C418.281 195.25 418.67 195.305 418.809 195.305C419.503 195.305 421.781 193.889 422.365 193.583C422.559 193.472 422.559 193.166 422.365 193.055C421.753 192.75 419.392 191.333 418.809 191.333C418.67 191.333 418.281 191.416 418.281 191.639C418.281 191.75 419.17 192.611 419.253 192.694C419.003 192.666 418.753 192.666 418.559 192.666C417.365 192.666 416.198 192.944 415.031 193.444C414.17 193.833 413.337 194.028 412.503 194.028C410.448 194.028 410.42 192.972 409.476 194.028C408.476 195.166 411.309 195.389 412.503 195.389Z" fill="#00BFFF"/>
<path d="M401.348 194.402L407.258 193.518L401.525 192.668L410.301 188.952L400.604 190.014L405.311 186.298L399.932 188.422L405.665 180.813L397.809 186.581L400.038 180.99L396.429 185.52L397.596 176.071L393.668 184.989L392.783 179.079L391.934 184.812L388.218 176L389.28 185.697L385.564 180.99L387.687 186.369L380.079 180.636L385.847 188.492L380.256 186.263L384.785 189.873L375.337 188.705L384.255 192.633L378.345 193.518L384.078 194.367L375.266 198.083L384.962 197.021L380.256 200.737L385.635 198.614L379.902 206.222L387.758 200.454L385.529 206.045L389.138 201.516L388.006 210.965L391.934 202.047L392.819 207.957L393.668 202.223L397.384 211L396.322 201.303L400.038 206.01L397.915 200.631L405.524 206.364L399.755 198.508L405.347 200.737L400.817 197.127L410.266 198.295L401.348 194.402ZM392.783 201.728C388.254 201.728 384.573 198.048 384.573 193.518C384.573 188.988 388.254 185.307 392.783 185.307C397.313 185.307 400.994 188.988 400.994 193.518C400.994 198.048 397.313 201.728 392.783 201.728Z" fill="#00BFFF"/>
<path d="M400.266 193.5C400.266 197.642 396.908 201 392.766 201C388.624 201 385.266 197.642 385.266 193.5C385.266 189.358 388.624 186 392.766 186C396.908 186 400.266 189.358 400.266 193.5Z" fill="#00BFFF"/>
<path d="M319.266 192.196V339H325.266V192.196C323.266 191.935 321.766 191.935 319.266 192.196Z" fill="url(#paint25_linear)"/>
<path d="M303.46 390.097L303 409.928L308.998 410.067L309.458 390.237C307.388 386.861 306.549 385.141 303.46 390.097Z" fill="url(#paint26_linear)"/>
<path d="M360.845 185H326.266V191H360.845C363.864 188.967 364.275 187.463 360.845 185Z" fill="url(#paint27_linear)"/>
<path d="M325.489 185.037L325.267 191L323.934 185.037H325.489Z" fill="url(#paint28_linear)"/>
<path d="M323.934 185.037L325.266 191L320.823 185.811C321.937 185.073 322.571 184.916 323.934 185.037Z" fill="url(#paint29_linear)"/>
<path d="M319.266 192V191H325.266V192H319.266Z" fill="url(#paint30_linear)"/>
<path d="M326.266 191H325.266V185H326.266V191Z" fill="url(#paint31_linear)"/>
<path d="M319.269 191.227L325.267 191L319.269 189.679V191.227Z" fill="url(#paint32_linear)"/>
<path d="M319.268 189.679L325.266 191L320.823 185.811C319.497 186.727 319.241 187.645 319.268 189.679Z" fill="url(#paint33_linear)"/>
<path d="M360.927 231H346.266V237H360.927C363.386 234.852 364.642 233.974 360.927 231Z" fill="url(#paint34_linear)"/>
<path d="M345.488 231.037L345.266 237L343.933 231.037H345.488Z" fill="url(#paint35_linear)"/>
<path d="M343.933 231.037L345.265 237L340.822 231.811C341.936 231.073 342.57 230.916 343.933 231.037Z" fill="url(#paint36_linear)"/>
<path d="M339.266 238V237H345.266V238H339.266Z" fill="url(#paint37_linear)"/>
<path d="M346.266 237H345.266V231H346.266V237Z" fill="url(#paint38_linear)"/>
<path d="M339.268 237.227L345.266 237L339.268 235.679V237.227Z" fill="url(#paint39_linear)"/>
<path d="M339.268 235.679L345.266 237L340.823 231.811C339.497 232.727 339.241 233.645 339.268 235.679Z" fill="url(#paint40_linear)"/>
<path d="M339.266 238V410H345.266V238H339.266Z" fill="url(#paint41_linear)"/>
<rect x="224" y="141" width="5" height="68" fill="#A9C7C9"/>
<rect x="216" y="141" width="5" height="68" fill="#A9C7C9"/>
<path d="M216 141H221L190 173H185L216 141Z" fill="#C4C4C4"/>
<path d="M224 141H229L198 173H193L224 141Z" fill="#C4C4C4"/>
<path d="M216 202H229L198 234H185L216 202Z" fill="url(#paint42_linear)"/>
<path d="M216 170H229L198 202H185L216 170Z" fill="url(#paint43_linear)"/>
<path d="M216 186H229L198 218H185L216 186Z" fill="url(#paint44_linear)"/>
<path d="M216 154H229L198 186H185L216 154Z" fill="url(#paint45_linear)"/>
<rect x="185" y="202" width="13" height="1" fill="#BEBEBE"/>
<rect x="185" y="186" width="13" height="1" fill="#BEBEBE"/>
<rect x="185" y="234" width="13" height="1" fill="#BEBEBE"/>
<rect x="185" y="218" width="13" height="1" fill="#BEBEBE"/>
<rect x="193" y="173" width="5" height="70" fill="#CFE2E9"/>
<rect x="185" y="173" width="5" height="70" fill="#CFE2E9"/>
<circle cx="187.5" cy="186.5" r="1.5" fill="#C4C4C4"/>
<circle cx="195.5" cy="186.5" r="1.5" fill="#C4C4C4"/>
<circle cx="187.5" cy="202.5" r="1.5" fill="#C4C4C4"/>
<circle cx="195.5" cy="202.5" r="1.5" fill="#C4C4C4"/>
<circle cx="187.5" cy="234.5" r="1.5" fill="#C4C4C4"/>
<circle cx="195.5" cy="234.5" r="1.5" fill="#C4C4C4"/>
<circle cx="187.5" cy="218.5" r="1.5" fill="#C4C4C4"/>
<circle cx="195.5" cy="218.5" r="1.5" fill="#C4C4C4"/>
<path d="M548 141L764 425.998L727 493.998L522.438 211.299L548 141Z" fill="#848484"/>
<path d="M845 143.998H1138V213L792 211.998L845 143.998Z" fill="#848484"/>
<path d="M383.008 457.828L382.994 457.843H382.973H362.546C360.645 457.843 359.05 459.364 359.05 461.262V522.857C359.05 523.845 359.437 524.58 360.058 525.07C360.681 525.56 361.544 525.807 362.5 525.807H374H385C390.215 525.808 394.503 525.807 399.332 525.807C402.837 525.807 406.626 525.807 411.262 525.807C422.271 525.807 432.202 521.342 439.439 514.105C446.676 506.868 451.141 496.937 451.141 485.928C451.141 474.919 446.676 464.911 439.44 457.751L439.439 457.751C432.202 450.514 422.271 446.049 411.262 446.049C400.253 446.049 390.245 450.514 383.085 457.751L383.085 457.751L383.008 457.828ZM385.944 460.61L385.944 460.609C392.428 454.203 401.382 450.189 411.262 450.189C421.143 450.189 430.097 454.203 436.504 460.61C442.988 467.094 447.002 476.048 447.002 485.928C447.002 495.808 442.988 504.763 436.504 511.17C430.097 517.654 421.143 521.668 411.262 521.668C401.382 521.668 392.428 517.654 385.944 511.17C379.537 504.763 375.523 495.809 375.523 485.928C375.523 476.048 379.537 467.094 385.944 460.61Z" fill="url(#paint46_linear)" stroke="#848484" stroke-width="0.1"/>
<circle r="36" transform="matrix(1 0 0 -1 411 485.857)" fill="#808080"/>
<path d="M262 173.5L294 141V210L262 243V173.5Z" fill="#007AFF"/>
<path d="M294 141H304L272 173H262L294 141Z" fill="#A9A9A9"/>
<path d="M294 210H304L272 242.5H262L294 210Z" fill="#3592F7"/>
<path d="M272 173L304 141V210L272 243V173Z" fill="#848484"/>
<path d="M274 173L303 144V209L274 239V173Z" fill="#C0A57F"/>
<rect x="262" y="173" width="10" height="70" fill="#A1A1A1"/>
<path d="M308.095 184.056C306.901 184.056 305.734 184.306 304.568 184.833C303.706 185.222 302.873 185.417 302.04 185.417C301.818 185.417 301.623 185.389 301.456 185.361C301.568 185.25 302.318 184.5 302.318 184.417C302.318 184.167 301.929 184.111 301.79 184.111C301.095 184.111 298.818 185.556 298.234 185.861C298.04 185.972 298.04 186.25 298.234 186.361C298.845 186.694 301.206 188.083 301.79 188.083C301.929 188.083 302.318 188.028 302.318 187.806C302.318 187.694 301.429 186.806 301.345 186.75C301.595 186.75 301.845 186.75 302.04 186.75C303.234 186.75 304.401 186.5 305.568 185.972C306.429 185.611 307.262 185.417 308.095 185.417C310.151 185.417 310.179 186.472 311.123 185.417C312.123 184.278 309.29 184.056 308.095 184.056ZM285.179 178.278C285.484 187.306 285.484 196.361 285.179 205.389C285.179 205.75 284.234 206.278 284.206 205.917C283.901 196.528 283.901 187.139 284.206 177.75C284.234 177.389 285.179 177.917 285.179 178.278ZM296.595 176.833C296.595 175.278 295.456 176.528 293.984 177.333C290.651 175.556 293.179 175.556 289.845 177.333C286.54 175.556 289.04 175.556 285.734 177.333C284.262 176.528 283.123 175.278 283.123 176.833C283.123 186.833 282.845 196.833 283.123 206.833C283.151 208.056 285.345 206.556 285.734 206.333C289.151 208.167 286.429 208.167 289.845 206.333C293.262 208.167 290.568 208.167 293.984 206.333C295.873 207.361 296.595 208.583 296.595 206.833V176.833ZM294.54 178.278C294.54 177.917 295.484 177.389 295.484 177.75C295.818 187.139 295.818 196.528 295.484 205.917C295.484 206.278 294.54 205.75 294.54 205.389C294.206 196.361 294.206 187.306 294.54 178.278ZM292.484 205.917C292.151 196.528 292.151 187.139 292.484 177.75C292.484 177.389 293.429 177.917 293.429 178.278C293.762 187.306 293.734 196.361 293.429 205.389C293.429 205.75 292.484 206.278 292.484 205.917ZM290.401 178.278C290.429 177.917 291.345 177.389 291.373 177.75C291.706 187.139 291.706 196.528 291.373 205.917C291.345 206.278 290.429 205.75 290.401 205.389C290.095 196.361 290.095 187.306 290.401 178.278ZM288.345 205.917C288.012 196.528 288.012 187.139 288.345 177.75C288.345 177.389 289.29 177.917 289.318 178.278C289.623 187.306 289.623 196.361 289.318 205.389C289.29 205.75 288.345 206.278 288.345 205.917ZM286.29 178.278C286.29 177.917 287.234 177.389 287.234 177.75C287.568 187.139 287.568 196.528 287.234 205.917C287.234 206.278 286.29 205.75 286.29 205.389C285.956 196.361 285.956 187.306 286.29 178.278ZM308.095 195.611C306.901 195.611 305.734 195.861 304.568 196.389C303.706 196.778 302.873 196.972 302.04 196.972C301.818 196.972 301.623 196.944 301.456 196.917C301.568 196.806 302.318 196.056 302.318 195.944C302.318 195.722 301.929 195.667 301.79 195.667C301.095 195.667 298.818 197.111 298.234 197.417C298.04 197.528 298.04 197.806 298.234 197.917C298.845 198.222 301.206 199.639 301.79 199.639C301.929 199.639 302.318 199.583 302.318 199.361C302.318 199.25 301.429 198.361 301.345 198.306C301.595 198.306 301.845 198.306 302.04 198.306C303.234 198.306 304.401 198.056 305.568 197.528C306.429 197.139 307.262 196.972 308.095 196.972C310.151 196.972 310.179 198 311.123 196.944C312.123 195.833 309.29 195.611 308.095 195.611ZM308.095 189.806C306.901 189.806 305.734 190.083 304.568 190.583C303.706 190.972 302.873 191.167 302.04 191.167C301.818 191.167 301.623 191.167 301.456 191.139C301.568 191 302.318 190.278 302.318 190.167C302.318 189.944 301.929 189.889 301.79 189.889C301.095 189.889 298.818 191.306 298.234 191.611C298.04 191.722 298.04 192.028 298.234 192.139C298.845 192.444 301.206 193.861 301.79 193.861C301.929 193.861 302.318 193.778 302.318 193.556C302.318 193.444 301.429 192.583 301.345 192.5C301.595 192.528 301.845 192.528 302.04 192.528C303.234 192.528 304.401 192.25 305.568 191.75C306.429 191.361 307.262 191.167 308.095 191.167C310.151 191.167 310.179 192.222 311.123 191.167C312.123 190.028 309.29 189.806 308.095 189.806Z" fill="#00BFFF"/>
<path d="M147 141H548L531.531 173H135L147 141Z" fill="white" fill-opacity="0.5"/>
<path d="M792 212L1138 212.998L1126.49 246.998L766 245L792 212Z" fill="url(#paint47_linear)"/>
<path d="M951 176.5L983 144V213L951 246V176.5Z" fill="#007AFF"/>
<path d="M983 144H993L961 176H951L983 144Z" fill="#A9A9A9"/>
<path d="M983 213H993L961 245.5H951L983 213Z" fill="#3592F7"/>
<path d="M961 176L993 144V213L961 246V176Z" fill="#848484"/>
<path d="M963 176L992 147V212L963 242V176Z" fill="#C0A57F"/>
<rect x="951" y="176" width="10" height="70" fill="#A1A1A1"/>
<path d="M990.09 209.437C990.395 200.409 990.395 191.354 990.09 182.326C990.09 181.965 989.145 181.437 989.117 181.798C988.812 191.187 988.812 200.576 989.117 209.965C989.145 210.326 990.09 209.798 990.09 209.437ZM1001.51 210.882C1001.51 212.437 1000.37 211.187 998.895 210.382C995.562 212.159 998.09 212.159 994.756 210.382C991.451 212.159 993.951 212.159 990.645 210.382C989.173 211.187 988.034 212.437 988.034 210.882C988.034 200.882 987.756 190.882 988.034 180.882C988.062 179.659 990.256 181.159 990.645 181.382C994.062 179.548 991.34 179.548 994.756 181.382C998.173 179.548 995.479 179.548 998.895 181.382C1000.78 180.354 1001.51 179.132 1001.51 180.882L1001.51 210.882ZM999.451 209.437C999.451 209.798 1000.4 210.326 1000.4 209.965C1000.73 200.576 1000.73 191.187 1000.4 181.798C1000.4 181.437 999.451 181.965 999.451 182.326C999.117 191.354 999.117 200.409 999.451 209.437ZM997.395 181.798C997.062 191.187 997.062 200.576 997.395 209.965C997.395 210.326 998.34 209.798 998.34 209.437C998.673 200.409 998.645 191.354 998.34 182.326C998.34 181.965 997.395 181.437 997.395 181.798ZM995.312 209.437C995.34 209.798 996.256 210.326 996.284 209.965C996.617 200.576 996.617 191.187 996.284 181.798C996.256 181.437 995.34 181.965 995.312 182.326C995.006 191.354 995.006 200.409 995.312 209.437ZM993.256 181.798C992.923 191.187 992.923 200.576 993.256 209.965C993.256 210.326 994.201 209.798 994.229 209.437C994.534 200.409 994.534 191.354 994.229 182.326C994.201 181.965 993.256 181.437 993.256 181.798ZM991.201 209.437C991.201 209.798 992.145 210.326 992.145 209.965C992.479 200.576 992.479 191.187 992.145 181.798C992.145 181.437 991.201 181.965 991.201 182.326C990.867 191.354 990.867 200.409 991.201 209.437Z" fill="#00BFFF"/>
<path d="M983.007 187.576C981.813 187.576 980.646 187.826 979.479 188.354C978.618 188.743 977.785 188.937 976.951 188.937C976.729 188.937 976.535 188.91 976.368 188.882C976.479 188.771 977.229 188.021 977.229 187.937C977.229 187.687 976.84 187.632 976.701 187.632C976.007 187.632 973.729 189.076 973.146 189.382C972.951 189.493 972.951 189.771 973.146 189.882C973.757 190.215 976.118 191.604 976.701 191.604C976.84 191.604 977.229 191.548 977.229 191.326C977.229 191.215 976.34 190.326 976.257 190.271C976.507 190.271 976.757 190.271 976.951 190.271C978.146 190.271 979.313 190.021 980.479 189.493C981.34 189.132 982.174 188.937 983.007 188.937C985.063 188.937 985.09 189.993 986.035 188.937C987.035 187.798 984.201 187.576 983.007 187.576ZM983.007 199.132C981.813 199.132 980.646 199.382 979.479 199.91C978.618 200.298 977.785 200.493 976.951 200.493C976.729 200.493 976.535 200.465 976.368 200.437C976.479 200.326 977.229 199.576 977.229 199.465C977.229 199.243 976.84 199.187 976.701 199.187C976.007 199.187 973.729 200.632 973.146 200.937C972.951 201.048 972.951 201.326 973.146 201.437C973.757 201.743 976.118 203.16 976.701 203.16C976.84 203.16 977.229 203.104 977.229 202.882C977.229 202.771 976.34 201.882 976.257 201.826C976.507 201.826 976.757 201.826 976.951 201.826C978.146 201.826 979.313 201.576 980.479 201.048C981.34 200.66 982.174 200.493 983.007 200.493C985.063 200.493 985.09 201.521 986.035 200.465C987.035 199.354 984.201 199.132 983.007 199.132ZM983.007 193.326C981.813 193.326 980.646 193.604 979.479 194.104C978.618 194.493 977.785 194.687 976.951 194.687C976.729 194.687 976.535 194.687 976.368 194.66C976.479 194.521 977.229 193.798 977.229 193.687C977.229 193.465 976.84 193.41 976.701 193.41C976.007 193.41 973.729 194.826 973.146 195.132C972.951 195.243 972.951 195.548 973.146 195.66C973.757 195.965 976.118 197.382 976.701 197.382C976.84 197.382 977.229 197.298 977.229 197.076C977.229 196.965 976.34 196.104 976.257 196.021C976.507 196.048 976.757 196.048 976.951 196.048C978.146 196.048 979.313 195.771 980.479 195.271C981.34 194.882 982.174 194.687 983.007 194.687C985.063 194.687 985.09 195.743 986.035 194.687C987.035 193.548 984.201 193.326 983.007 193.326Z" fill="#00BFFF"/>
<path d="M767 144H1138L1125.38 176H742.26L767 144Z" fill="white" fill-opacity="0.5"/>
<path d="M145.293 422.998L549.5 424L525 454.998H135L145.293 422.998Z" fill="url(#paint48_linear)"/>
<path d="M495 494L767 143.998L845 143.997L572 494L495 494Z" fill="white" fill-opacity="0.5"/>
<path d="M548 141L764 425.998L752 457.998L531.5 173L548 141Z" fill="white" fill-opacity="0.5"/>
<path d="M689.186 333.943L630.936 408.277L632.423 409.442L690.673 335.108L689.186 333.943Z" fill="url(#paint49_linear)"/>
<path d="M685.124 328.73L626.874 403.064L628.36 404.229L686.611 329.895L685.124 328.73Z" fill="url(#paint50_linear)"/>
<path d="M681.062 323.515L622.811 397.85L624.298 399.015L682.548 324.68L681.062 323.515Z" fill="url(#paint51_linear)"/>
<path d="M676.999 318.299L618.749 392.633L620.236 393.798L678.486 319.464L676.999 318.299Z" fill="url(#paint52_linear)"/>
<path d="M672.937 313.082L614.687 387.416L616.173 388.581L674.424 314.247L672.937 313.082Z" fill="url(#paint53_linear)"/>
<path d="M660.75 297.437L602.5 371.771L603.986 372.936L662.237 298.602L660.75 297.437Z" fill="url(#paint54_linear)"/>
<path d="M664.812 302.652L606.562 376.986L608.048 378.151L666.299 303.817L664.812 302.652Z" fill="url(#paint55_linear)"/>
<path d="M668.875 307.869L610.624 382.203L612.111 383.368L670.361 309.034L668.875 307.869Z" fill="url(#paint56_linear)"/>
<path d="M656.687 292.222L598.437 366.557L599.924 367.722L658.174 293.387L656.687 292.222Z" fill="url(#paint57_linear)"/>
<path d="M655.207 380.78L621.547 337.568L620.057 338.729L653.717 381.941L655.207 380.78Z" fill="url(#paint58_linear)"/>
<path d="M649.733 386.634L616.074 343.422L614.584 344.583L648.243 387.794L649.733 386.634Z" fill="url(#paint59_linear)"/>
<path d="M645.204 392.454L611.544 349.242L610.054 350.403L643.714 393.615L645.204 392.454Z" fill="url(#paint60_linear)"/>
<path d="M605.524 356.226L639.184 399.438L640.674 398.277L607.014 355.065L605.524 356.226Z" fill="url(#paint61_linear)"/>
<path d="M601.907 361.071L635.566 404.283L637.056 403.123L603.397 359.911L601.907 361.071Z" fill="url(#paint62_linear)"/>
<path d="M598.321 366.86L631.98 410.072L633.471 408.912L599.811 365.7L598.321 366.86Z" fill="url(#paint63_linear)"/>
<path d="M659.737 374.96L626.077 331.748L624.587 332.909L658.247 376.121L659.737 374.96Z" fill="url(#paint64_linear)"/>
<path d="M663.323 369.171L629.663 325.959L628.173 327.12L661.833 370.331L663.323 369.171Z" fill="url(#paint65_linear)"/>
<path d="M667.884 364.294L634.224 321.082L632.734 322.243L666.394 365.455L667.884 364.294Z" fill="url(#paint66_linear)"/>
<path d="M671.47 358.505L637.81 315.293L636.32 316.454L669.98 359.665L671.47 358.505Z" fill="url(#paint67_linear)"/>
<path d="M676.031 353.626L642.372 310.414L640.882 311.575L674.541 354.787L676.031 353.626Z" fill="url(#paint68_linear)"/>
<path d="M680.593 348.749L646.933 305.537L645.443 306.698L679.103 349.91L680.593 348.749Z" fill="url(#paint69_linear)"/>
<path d="M685.122 342.929L651.463 299.717L649.973 300.877L683.632 344.089L685.122 342.929Z" fill="url(#paint70_linear)"/>
<path d="M688.74 338.083L655.08 294.871L653.59 296.032L687.25 339.244L688.74 338.083Z" fill="url(#paint71_linear)"/>
<path d="M691.445 334.212L657.785 291L656.295 292.161L689.955 335.373L691.445 334.212Z" fill="url(#paint72_linear)"/>
<defs>
<linearGradient id="paint0_linear" x1="925.5" y1="493.998" x2="925.5" y2="539.331" gradientUnits="userSpaceOnUse">
<stop stop-color="#A6A5A5"/>
<stop offset="1" stop-color="white"/>
</linearGradient>
<linearGradient id="paint1_linear" x1="320" y1="493.998" x2="320" y2="536.665" gradientUnits="userSpaceOnUse">
<stop stop-color="#A6A5A5"/>
<stop offset="1" stop-color="white"/>
</linearGradient>
<linearGradient id="paint2_linear" x1="842" y1="528.565" x2="848" y2="528.565" gradientUnits="userSpaceOnUse">
<stop stop-color="#848484"/>
<stop offset="0.519337" stop-color="white"/>
<stop offset="1" stop-color="#848484"/>
</linearGradient>
<linearGradient id="paint3_linear" x1="826.007" y1="685.127" x2="831.981" y2="685.168" gradientUnits="userSpaceOnUse">
<stop stop-color="#848484"/>
<stop offset="0.519337" stop-color="white"/>
<stop offset="1" stop-color="#848484"/>
</linearGradient>
<linearGradient id="paint4_linear" x1="866.29" y1="473" x2="866.29" y2="479" gradientUnits="userSpaceOnUse">
<stop stop-color="#848484"/>
<stop offset="0.519337" stop-color="white"/>
<stop offset="1" stop-color="#848484"/>
</linearGradient>
<linearGradient id="paint5_linear" x1="848.224" y1="473.037" x2="848.224" y2="479.226" gradientUnits="userSpaceOnUse">
<stop stop-color="#848484"/>
<stop offset="0.478645" stop-color="white"/>
<stop offset="1" stop-color="#848484"/>
</linearGradient>
<linearGradient id="paint6_linear" x1="845.891" y1="473.037" x2="846.66" y2="479.227" gradientUnits="userSpaceOnUse">
<stop stop-color="#848484"/>
<stop offset="0.491713" stop-color="white"/>
<stop offset="1" stop-color="#848484"/>
</linearGradient>
<linearGradient id="paint7_linear" x1="842" y1="479.5" x2="848" y2="479.5" gradientUnits="userSpaceOnUse">
<stop stop-color="#848484"/>
<stop offset="0.476897" stop-color="white"/>
<stop offset="1" stop-color="#848484"/>
</linearGradient>
<linearGradient id="paint8_linear" x1="848.5" y1="479" x2="848.5" y2="473" gradientUnits="userSpaceOnUse">
<stop stop-color="#848484"/>
<stop offset="0.508099" stop-color="white"/>
<stop offset="1" stop-color="#848484"/>
</linearGradient>
<linearGradient id="paint9_linear" x1="842.003" y1="479.227" x2="847.44" y2="477.275" gradientUnits="userSpaceOnUse">
<stop stop-color="#848484"/>
<stop offset="0.526042" stop-color="white"/>
<stop offset="1" stop-color="#848484"/>
</linearGradient>
<linearGradient id="paint10_linear" x1="842.002" y1="476.906" x2="847.522" y2="479.297" gradientUnits="userSpaceOnUse">
<stop stop-color="#848484"/>
<stop offset="0.491713" stop-color="white"/>
<stop offset="1" stop-color="#848484"/>
</linearGradient>
<linearGradient id="paint11_linear" x1="876.331" y1="519" x2="876.331" y2="525" gradientUnits="userSpaceOnUse">
<stop stop-color="#848484"/>
<stop offset="0.519337" stop-color="white"/>
<stop offset="1" stop-color="#848484"/>
</linearGradient>
<linearGradient id="paint12_linear" x1="868.223" y1="519.037" x2="868.223" y2="525.226" gradientUnits="userSpaceOnUse">
<stop stop-color="#848484"/>
<stop offset="0.478645" stop-color="white"/>
<stop offset="1" stop-color="#848484"/>
</linearGradient>
<linearGradient id="paint13_linear" x1="865.89" y1="519.037" x2="866.66" y2="525.227" gradientUnits="userSpaceOnUse">
<stop stop-color="#848484"/>
<stop offset="0.491713" stop-color="white"/>
<stop offset="1" stop-color="#848484"/>
</linearGradient>
<linearGradient id="paint14_linear" x1="862" y1="525.5" x2="868" y2="525.5" gradientUnits="userSpaceOnUse">
<stop stop-color="#848484"/>
<stop offset="0.476897" stop-color="white"/>
<stop offset="1" stop-color="#848484"/>
</linearGradient>
<linearGradient id="paint15_linear" x1="868.5" y1="525" x2="868.5" y2="519" gradientUnits="userSpaceOnUse">
<stop stop-color="#848484"/>
<stop offset="0.508099" stop-color="white"/>
<stop offset="1" stop-color="#848484"/>
</linearGradient>
<linearGradient id="paint16_linear" x1="862.002" y1="525.227" x2="867.439" y2="523.275" gradientUnits="userSpaceOnUse">
<stop stop-color="#848484"/>
<stop offset="0.526042" stop-color="white"/>
<stop offset="1" stop-color="#848484"/>
</linearGradient>
<linearGradient id="paint17_linear" x1="862.002" y1="522.906" x2="867.522" y2="525.297" gradientUnits="userSpaceOnUse">
<stop stop-color="#848484"/>
<stop offset="0.491713" stop-color="white"/>
<stop offset="1" stop-color="#848484"/>
</linearGradient>
<linearGradient id="paint18_linear" x1="862" y1="610.613" x2="868" y2="610.613" gradientUnits="userSpaceOnUse">
<stop stop-color="#848484"/>
<stop offset="0.519337" stop-color="white"/>
<stop offset="1" stop-color="#848484"/>
</linearGradient>
<linearGradient id="paint19_linear" x1="201" y1="501" x2="207.5" y2="507.5" gradientUnits="userSpaceOnUse">
<stop stop-color="#C4C4C4"/>
<stop offset="0.494792" stop-color="white"/>
<stop offset="1" stop-color="#BEBEBE"/>
</linearGradient>
<linearGradient id="paint20_linear" x1="201" y1="469" x2="207.5" y2="475.5" gradientUnits="userSpaceOnUse">
<stop stop-color="#C4C4C4"/>
<stop offset="0.494792" stop-color="white"/>
<stop offset="1" stop-color="#BEBEBE"/>
</linearGradient>
<linearGradient id="paint21_linear" x1="201" y1="485" x2="207.5" y2="491.5" gradientUnits="userSpaceOnUse">
<stop stop-color="#C4C4C4"/>
<stop offset="0.494792" stop-color="white"/>
<stop offset="1" stop-color="#BEBEBE"/>
</linearGradient>
<linearGradient id="paint22_linear" x1="201" y1="453" x2="207.5" y2="459.5" gradientUnits="userSpaceOnUse">
<stop stop-color="#C4C4C4"/>
<stop offset="0.494792" stop-color="white"/>
<stop offset="1" stop-color="#BEBEBE"/>
</linearGradient>
<linearGradient id="paint23_linear" x1="1072.55" y1="457.642" x2="1073.32" y2="513.527" gradientUnits="userSpaceOnUse">
<stop stop-color="#848484"/>
<stop offset="0.499267" stop-color="white"/>
<stop offset="1" stop-color="#848484"/>
</linearGradient>
<linearGradient id="paint24_linear" x1="330.75" y1="211.167" x2="330.75" y2="258.716" gradientUnits="userSpaceOnUse">
<stop stop-color="#A6A5A5"/>
<stop offset="1" stop-color="white"/>
</linearGradient>
<linearGradient id="paint25_linear" x1="319.266" y1="265.598" x2="325.266" y2="265.598" gradientUnits="userSpaceOnUse">
<stop stop-color="#848484"/>
<stop offset="0.519337" stop-color="white"/>
<stop offset="1" stop-color="#848484"/>
</linearGradient>
<linearGradient id="paint26_linear" x1="303.23" y1="400.013" x2="309.228" y2="400.152" gradientUnits="userSpaceOnUse">
<stop stop-color="#848484"/>
<stop offset="0.519337" stop-color="white"/>
<stop offset="1" stop-color="#848484"/>
</linearGradient>
<linearGradient id="paint27_linear" x1="343.555" y1="185" x2="343.555" y2="191" gradientUnits="userSpaceOnUse">
<stop stop-color="#848484"/>
<stop offset="0.519337" stop-color="white"/>
<stop offset="1" stop-color="#848484"/>
</linearGradient>
<linearGradient id="paint28_linear" x1="325.489" y1="185.037" x2="325.489" y2="191.226" gradientUnits="userSpaceOnUse">
<stop stop-color="#848484"/>
<stop offset="0.478645" stop-color="white"/>
<stop offset="1" stop-color="#848484"/>
</linearGradient>
<linearGradient id="paint29_linear" x1="323.156" y1="185.037" x2="323.926" y2="191.227" gradientUnits="userSpaceOnUse">
<stop stop-color="#848484"/>
<stop offset="0.491713" stop-color="white"/>
<stop offset="1" stop-color="#848484"/>
</linearGradient>
<linearGradient id="paint30_linear" x1="319.266" y1="191.5" x2="325.266" y2="191.5" gradientUnits="userSpaceOnUse">
<stop stop-color="#848484"/>
<stop offset="0.476897" stop-color="white"/>
<stop offset="1" stop-color="#848484"/>
</linearGradient>
<linearGradient id="paint31_linear" x1="325.766" y1="191" x2="325.766" y2="185" gradientUnits="userSpaceOnUse">
<stop stop-color="#848484"/>
<stop offset="0.508099" stop-color="white"/>
<stop offset="1" stop-color="#848484"/>
</linearGradient>
<linearGradient id="paint32_linear" x1="319.269" y1="191.227" x2="324.706" y2="189.275" gradientUnits="userSpaceOnUse">
<stop stop-color="#848484"/>
<stop offset="0.526042" stop-color="white"/>
<stop offset="1" stop-color="#848484"/>
</linearGradient>
<linearGradient id="paint33_linear" x1="319.267" y1="188.906" x2="324.787" y2="191.297" gradientUnits="userSpaceOnUse">
<stop stop-color="#848484"/>
<stop offset="0.491713" stop-color="white"/>
<stop offset="1" stop-color="#848484"/>
</linearGradient>
<linearGradient id="paint34_linear" x1="353.596" y1="231" x2="353.596" y2="237" gradientUnits="userSpaceOnUse">
<stop stop-color="#848484"/>
<stop offset="0.519337" stop-color="white"/>
<stop offset="1" stop-color="#848484"/>
</linearGradient>
<linearGradient id="paint35_linear" x1="345.488" y1="231.037" x2="345.488" y2="237.226" gradientUnits="userSpaceOnUse">
<stop stop-color="#848484"/>
<stop offset="0.478645" stop-color="white"/>
<stop offset="1" stop-color="#848484"/>
</linearGradient>
<linearGradient id="paint36_linear" x1="343.155" y1="231.037" x2="343.925" y2="237.227" gradientUnits="userSpaceOnUse">
<stop stop-color="#848484"/>
<stop offset="0.491713" stop-color="white"/>
<stop offset="1" stop-color="#848484"/>
</linearGradient>
<linearGradient id="paint37_linear" x1="339.266" y1="237.5" x2="345.266" y2="237.5" gradientUnits="userSpaceOnUse">
<stop stop-color="#848484"/>
<stop offset="0.476897" stop-color="white"/>
<stop offset="1" stop-color="#848484"/>
</linearGradient>
<linearGradient id="paint38_linear" x1="345.766" y1="237" x2="345.766" y2="231" gradientUnits="userSpaceOnUse">
<stop stop-color="#848484"/>
<stop offset="0.508099" stop-color="white"/>
<stop offset="1" stop-color="#848484"/>
</linearGradient>
<linearGradient id="paint39_linear" x1="339.268" y1="237.227" x2="344.705" y2="235.275" gradientUnits="userSpaceOnUse">
<stop stop-color="#848484"/>
<stop offset="0.526042" stop-color="white"/>
<stop offset="1" stop-color="#848484"/>
</linearGradient>
<linearGradient id="paint40_linear" x1="339.267" y1="234.906" x2="344.787" y2="237.297" gradientUnits="userSpaceOnUse">
<stop stop-color="#848484"/>
<stop offset="0.491713" stop-color="white"/>
<stop offset="1" stop-color="#848484"/>
</linearGradient>
<linearGradient id="paint41_linear" x1="339.266" y1="324.115" x2="345.266" y2="324.115" gradientUnits="userSpaceOnUse">
<stop stop-color="#848484"/>
<stop offset="0.519337" stop-color="white"/>
<stop offset="1" stop-color="#848484"/>
</linearGradient>
<linearGradient id="paint42_linear" x1="201" y1="218" x2="207.5" y2="224.5" gradientUnits="userSpaceOnUse">
<stop stop-color="#C4C4C4"/>
<stop offset="0.494792" stop-color="white"/>
<stop offset="1" stop-color="#BEBEBE"/>
</linearGradient>
<linearGradient id="paint43_linear" x1="201" y1="186" x2="207.5" y2="192.5" gradientUnits="userSpaceOnUse">
<stop stop-color="#C4C4C4"/>
<stop offset="0.494792" stop-color="white"/>
<stop offset="1" stop-color="#BEBEBE"/>
</linearGradient>
<linearGradient id="paint44_linear" x1="201" y1="202" x2="207.5" y2="208.5" gradientUnits="userSpaceOnUse">
<stop stop-color="#C4C4C4"/>
<stop offset="0.494792" stop-color="white"/>
<stop offset="1" stop-color="#BEBEBE"/>
</linearGradient>
<linearGradient id="paint45_linear" x1="201" y1="170" x2="207.5" y2="176.5" gradientUnits="userSpaceOnUse">
<stop stop-color="#C4C4C4"/>
<stop offset="0.494792" stop-color="white"/>
<stop offset="1" stop-color="#BEBEBE"/>
</linearGradient>
<linearGradient id="paint46_linear" x1="373.646" y1="457.64" x2="372.875" y2="513.525" gradientUnits="userSpaceOnUse">
<stop stop-color="#848484"/>
<stop offset="0.499267" stop-color="white"/>
<stop offset="1" stop-color="#848484"/>
</linearGradient>
<linearGradient id="paint47_linear" x1="986.347" y1="212.167" x2="986.347" y2="258.389" gradientUnits="userSpaceOnUse">
<stop stop-color="#A6A5A5"/>
<stop offset="1" stop-color="white"/>
</linearGradient>
<linearGradient id="paint48_linear" x1="353.03" y1="423.15" x2="353.03" y2="465.413" gradientUnits="userSpaceOnUse">
<stop stop-color="#A6A5A5"/>
<stop offset="1" stop-color="white"/>
</linearGradient>
<linearGradient id="paint49_linear" x1="660.022" y1="371.16" x2="661.509" y2="372.325" gradientUnits="userSpaceOnUse">
<stop offset="0.239583" stop-color="#FF0000"/>
<stop offset="0.519337" stop-color="white"/>
<stop offset="0.755208" stop-color="#FF0000"/>
</linearGradient>
<linearGradient id="paint50_linear" x1="655.96" y1="365.947" x2="657.447" y2="367.112" gradientUnits="userSpaceOnUse">
<stop offset="0.239583" stop-color="#007AFF"/>
<stop offset="0.519337" stop-color="white"/>
<stop offset="0.755208" stop-color="#007AFF"/>
</linearGradient>
<linearGradient id="paint51_linear" x1="651.898" y1="360.732" x2="653.384" y2="361.897" gradientUnits="userSpaceOnUse">
<stop offset="0.239583" stop-color="#FF0000"/>
<stop offset="0.519337" stop-color="white"/>
<stop offset="0.755208" stop-color="#FF0000"/>
</linearGradient>
<linearGradient id="paint52_linear" x1="647.835" y1="355.515" x2="649.322" y2="356.68" gradientUnits="userSpaceOnUse">
<stop offset="0.239583" stop-color="#007AFF"/>
<stop offset="0.519337" stop-color="white"/>
<stop offset="0.755208" stop-color="#007AFF"/>
</linearGradient>
<linearGradient id="paint53_linear" x1="643.773" y1="350.298" x2="645.26" y2="351.463" gradientUnits="userSpaceOnUse">
<stop offset="0.239583" stop-color="#FF0000"/>
<stop offset="0.519337" stop-color="white"/>
<stop offset="0.755208" stop-color="#FF0000"/>
</linearGradient>
<linearGradient id="paint54_linear" x1="631.586" y1="334.654" x2="633.073" y2="335.819" gradientUnits="userSpaceOnUse">
<stop offset="0.239583" stop-color="#007AFF"/>
<stop offset="0.519337" stop-color="white"/>
<stop offset="0.755208" stop-color="#007AFF"/>
</linearGradient>
<linearGradient id="paint55_linear" x1="635.648" y1="339.869" x2="637.135" y2="341.034" gradientUnits="userSpaceOnUse">
<stop offset="0.239583" stop-color="#FF0000"/>
<stop offset="0.519337" stop-color="white"/>
<stop offset="0.755208" stop-color="#FF0000"/>
</linearGradient>
<linearGradient id="paint56_linear" x1="639.711" y1="345.086" x2="641.197" y2="346.251" gradientUnits="userSpaceOnUse">
<stop offset="0.239583" stop-color="#007AFF"/>
<stop offset="0.519337" stop-color="white"/>
<stop offset="0.755208" stop-color="#007AFF"/>
</linearGradient>
<linearGradient id="paint57_linear" x1="627.523" y1="329.439" x2="629.01" y2="330.604" gradientUnits="userSpaceOnUse">
<stop offset="0.239583" stop-color="#FF0000"/>
<stop offset="0.519337" stop-color="white"/>
<stop offset="0.755208" stop-color="#FF0000"/>
</linearGradient>
<linearGradient id="paint58_linear" x1="638.355" y1="359.145" x2="636.865" y2="360.306" gradientUnits="userSpaceOnUse">
<stop offset="0.239583" stop-color="#FF0000"/>
<stop offset="0.519337" stop-color="white"/>
<stop offset="0.755208" stop-color="#FF0000"/>
</linearGradient>
<linearGradient id="paint59_linear" x1="632.881" y1="364.999" x2="631.391" y2="366.16" gradientUnits="userSpaceOnUse">
<stop offset="0.239583" stop-color="#007AFF"/>
<stop offset="0.519337" stop-color="white"/>
<stop offset="0.755208" stop-color="#007AFF"/>
</linearGradient>
<linearGradient id="paint60_linear" x1="628.351" y1="370.819" x2="626.861" y2="371.98" gradientUnits="userSpaceOnUse">
<stop offset="0.239583" stop-color="#FF0000"/>
<stop offset="0.519337" stop-color="white"/>
<stop offset="0.755208" stop-color="#FF0000"/>
</linearGradient>
<linearGradient id="paint61_linear" x1="622.376" y1="377.86" x2="623.866" y2="376.7" gradientUnits="userSpaceOnUse">
<stop offset="0.239583" stop-color="#007AFF"/>
<stop offset="0.519337" stop-color="white"/>
<stop offset="0.755208" stop-color="#007AFF"/>
</linearGradient>
<linearGradient id="paint62_linear" x1="618.759" y1="382.706" x2="620.249" y2="381.545" gradientUnits="userSpaceOnUse">
<stop offset="0.239583" stop-color="#FF0000"/>
<stop offset="0.519337" stop-color="white"/>
<stop offset="0.755208" stop-color="#FF0000"/>
</linearGradient>
<linearGradient id="paint63_linear" x1="615.173" y1="388.495" x2="616.663" y2="387.334" gradientUnits="userSpaceOnUse">
<stop offset="0.239583" stop-color="#007AFF"/>
<stop offset="0.519337" stop-color="white"/>
<stop offset="0.755208" stop-color="#007AFF"/>
</linearGradient>
<linearGradient id="paint64_linear" x1="642.885" y1="353.325" x2="641.394" y2="354.486" gradientUnits="userSpaceOnUse">
<stop offset="0.239583" stop-color="#007AFF"/>
<stop offset="0.519337" stop-color="white"/>
<stop offset="0.755208" stop-color="#007AFF"/>
</linearGradient>
<linearGradient id="paint65_linear" x1="646.47" y1="347.536" x2="644.98" y2="348.697" gradientUnits="userSpaceOnUse">
<stop offset="0.239583" stop-color="#FF0000"/>
<stop offset="0.519337" stop-color="white"/>
<stop offset="0.755208" stop-color="#FF0000"/>
</linearGradient>
<linearGradient id="paint66_linear" x1="651.032" y1="342.659" x2="649.542" y2="343.82" gradientUnits="userSpaceOnUse">
<stop offset="0.239583" stop-color="#007AFF"/>
<stop offset="0.519337" stop-color="white"/>
<stop offset="0.755208" stop-color="#007AFF"/>
</linearGradient>
<linearGradient id="paint67_linear" x1="654.618" y1="336.87" x2="653.128" y2="338.031" gradientUnits="userSpaceOnUse">
<stop offset="0.239583" stop-color="#FF0000"/>
<stop offset="0.519337" stop-color="white"/>
<stop offset="0.755208" stop-color="#FF0000"/>
</linearGradient>
<linearGradient id="paint68_linear" x1="659.179" y1="331.991" x2="657.689" y2="333.152" gradientUnits="userSpaceOnUse">
<stop offset="0.239583" stop-color="#007AFF"/>
<stop offset="0.519337" stop-color="white"/>
<stop offset="0.755208" stop-color="#007AFF"/>
</linearGradient>
<linearGradient id="paint69_linear" x1="663.74" y1="327.114" x2="662.25" y2="328.275" gradientUnits="userSpaceOnUse">
<stop offset="0.239583" stop-color="#FF0000"/>
<stop offset="0.519337" stop-color="white"/>
<stop offset="0.755208" stop-color="#FF0000"/>
</linearGradient>
<linearGradient id="paint70_linear" x1="668.27" y1="321.294" x2="666.78" y2="322.455" gradientUnits="userSpaceOnUse">
<stop offset="0.239583" stop-color="#007AFF"/>
<stop offset="0.519337" stop-color="white"/>
<stop offset="0.755208" stop-color="#007AFF"/>
</linearGradient>
<linearGradient id="paint71_linear" x1="671.888" y1="316.448" x2="670.398" y2="317.609" gradientUnits="userSpaceOnUse">
<stop offset="0.239583" stop-color="#FF0000"/>
<stop offset="0.519337" stop-color="white"/>
<stop offset="0.755208" stop-color="#FF0000"/>
</linearGradient>
<linearGradient id="paint72_linear" x1="674.593" y1="312.577" x2="673.103" y2="313.738" gradientUnits="userSpaceOnUse">
<stop offset="0.239583" stop-color="#007AFF"/>
<stop offset="0.519337" stop-color="white"/>
<stop offset="0.755208" stop-color="#007AFF"/>
</linearGradient>
</defs>
</svg>
