<svg width="1280" height="720" viewBox="0 0 1280 720" fill="none" xmlns="http://www.w3.org/2000/svg">
<path d="M719 507.998H1130L1116.11 541.998H705L719 507.998Z" fill="url(#paint0_linear)"/>
<path d="M141.458 507.998H564L539.238 539.998H130L141.458 507.998Z" fill="url(#paint1_linear)"/>
<path d="M670 439.998H1130V507.998H719L670 439.998Z" fill="#848484"/>
<path d="M898 472.5L930 440V509L898 542V472.5Z" fill="#007AFF"/>
<path d="M930 440H940L908 472H898L930 440Z" fill="#A9A9A9"/>
<path d="M930 509H940L908 541.5H898L930 509Z" fill="#3592F7"/>
<path d="M908 472L940 440V509L908 542V472Z" fill="#848484"/>
<path d="M910 472L939 443V508L910 538V472Z" fill="#5C82B5"/>
<path d="M953.238 500.139C954.432 500.139 955.599 499.889 956.765 499.361C957.627 498.972 958.46 498.778 959.293 498.778C959.515 498.778 959.71 498.805 959.877 498.833C959.765 498.944 959.015 499.694 959.015 499.778C959.015 500.028 959.404 500.083 959.543 500.083C960.238 500.083 962.515 498.639 963.099 498.333C963.293 498.222 963.293 497.944 963.099 497.833C962.488 497.5 960.127 496.111 959.543 496.111C959.404 496.111 959.015 496.166 959.015 496.389C959.015 496.5 959.904 497.389 959.988 497.444C959.738 497.444 959.488 497.444 959.293 497.444C958.099 497.444 956.932 497.694 955.765 498.222C954.904 498.583 954.071 498.778 953.238 498.778C951.182 498.778 951.154 497.722 950.21 498.778C949.21 499.916 952.043 500.139 953.238 500.139ZM953.238 488.583C954.432 488.583 955.599 488.333 956.765 487.805C957.627 487.416 958.46 487.222 959.293 487.222C959.515 487.222 959.71 487.25 959.877 487.278C959.765 487.389 959.015 488.139 959.015 488.25C959.015 488.472 959.404 488.528 959.543 488.528C960.238 488.528 962.515 487.083 963.099 486.778C963.293 486.666 963.293 486.389 963.099 486.278C962.488 485.972 960.127 484.555 959.543 484.555C959.404 484.555 959.015 484.611 959.015 484.833C959.015 484.944 959.904 485.833 959.988 485.889C959.738 485.889 959.488 485.889 959.293 485.889C958.099 485.889 956.932 486.139 955.765 486.666C954.904 487.055 954.071 487.222 953.238 487.222C951.182 487.222 951.154 486.194 950.21 487.25C949.21 488.361 952.043 488.583 953.238 488.583ZM953.238 494.389C954.432 494.389 955.599 494.111 956.765 493.611C957.627 493.222 958.46 493.028 959.293 493.028C959.515 493.028 959.71 493.028 959.877 493.055C959.765 493.194 959.015 493.916 959.015 494.028C959.015 494.25 959.404 494.305 959.543 494.305C960.238 494.305 962.515 492.889 963.099 492.583C963.293 492.472 963.293 492.166 963.099 492.055C962.488 491.75 960.127 490.333 959.543 490.333C959.404 490.333 959.015 490.416 959.015 490.639C959.015 490.75 959.904 491.611 959.988 491.694C959.738 491.666 959.488 491.666 959.293 491.666C958.099 491.666 956.932 491.944 955.765 492.444C954.904 492.833 954.071 493.028 953.238 493.028C951.182 493.028 951.154 491.972 950.21 493.028C949.21 494.166 952.043 494.389 953.238 494.389Z" fill="#00BFFF"/>
<path d="M943.788 495.278C944.995 494.62 946.202 493.934 947.353 493.276C947.518 493.194 947.71 493.249 947.819 493.413L948.286 494.263C948.395 494.4 948.34 494.62 948.176 494.702L945.489 496.265L947.819 497.609C947.984 497.691 948.039 497.91 947.929 498.075L947.436 498.952C947.353 499.09 947.134 499.144 946.969 499.062L944.638 497.718V500.872C944.638 501.064 944.474 501.201 944.309 501.201H943.322C943.13 501.201 942.993 501.064 942.993 500.872C942.993 499.528 942.966 498.13 942.966 496.731L940.059 495.086C940.059 501.53 941.101 500.927 935.534 497.718V501.064C936.713 501.75 937.893 502.49 939.017 503.148C939.181 503.23 939.236 503.422 939.154 503.587L938.66 504.437C938.578 504.601 938.359 504.656 938.194 504.574L935.534 503.011V505.671C935.534 505.863 935.37 506 935.205 506H934.191C933.999 506 933.861 505.863 933.861 505.671V502.984L931.092 504.574C930.927 504.656 930.735 504.601 930.626 504.464L930.159 503.614C930.05 503.45 930.105 503.23 930.269 503.148C931.421 502.49 932.655 501.722 933.861 501.037V497.691C928.212 500.954 929.227 501.612 929.227 495.113L926.348 496.786C926.348 498.13 926.32 499.528 926.32 500.845C926.32 501.037 926.183 501.201 925.991 501.201H925.032C924.84 501.201 924.675 501.037 924.675 500.845C924.675 499.83 924.675 498.788 924.675 497.746L922.399 499.062C922.234 499.144 922.042 499.09 921.933 498.952L921.439 498.075C921.357 497.91 921.412 497.691 921.549 497.609L923.852 496.293L921.11 494.702C920.946 494.62 920.891 494.4 921 494.236L921.494 493.413C921.576 493.249 921.768 493.194 921.933 493.276C923.112 493.962 924.346 494.62 925.553 495.305L928.432 493.633C922.81 490.397 922.81 491.603 928.432 488.367L925.525 486.667C924.319 487.353 923.139 488.038 921.96 488.724C921.796 488.806 921.604 488.751 921.494 488.587L921.028 487.737C920.918 487.6 920.973 487.38 921.138 487.298C922.042 486.777 922.947 486.229 923.852 485.707L921.549 484.391C921.412 484.309 921.357 484.09 921.439 483.925L921.933 483.048C922.042 482.91 922.234 482.856 922.399 482.938L924.675 484.254V481.128C924.675 480.936 924.84 480.799 925.004 480.799H925.991C926.183 480.799 926.32 480.936 926.32 481.128C926.32 482.472 926.348 483.843 926.348 485.214L929.255 486.887C929.255 480.415 928.212 481.046 933.861 484.282V480.936C932.655 480.25 931.476 479.537 930.297 478.852C930.132 478.77 930.077 478.578 930.159 478.413L930.653 477.563C930.735 477.399 930.955 477.344 931.119 477.426C931.997 477.947 932.929 478.468 933.861 479.016V476.329C933.861 476.137 933.999 476 934.191 476H935.205C935.37 476 935.534 476.137 935.534 476.329V478.962C936.439 478.441 937.317 477.947 938.222 477.426C938.386 477.344 938.578 477.399 938.688 477.536L939.154 478.386C939.264 478.55 939.209 478.77 939.044 478.852C937.893 479.51 936.713 480.223 935.534 480.909V484.227C941.156 480.991 940.086 480.415 940.086 486.914L942.938 485.269C942.938 483.87 942.993 482.472 942.993 481.155C942.993 480.963 943.13 480.799 943.322 480.799H944.282C944.474 480.799 944.638 480.963 944.638 481.155C944.638 482.197 944.638 483.239 944.638 484.282L946.969 482.938C947.134 482.856 947.353 482.91 947.436 483.048L947.929 483.925C948.039 484.09 947.984 484.309 947.819 484.391L945.489 485.735C946.393 486.256 947.298 486.777 948.203 487.298C948.368 487.38 948.423 487.6 948.313 487.764L947.819 488.587C947.737 488.751 947.545 488.806 947.381 488.724C946.202 488.038 945.022 487.38 943.816 486.695L940.936 488.367C946.503 491.576 946.503 490.369 940.882 493.605L943.788 495.278ZM930.105 492.673L933.011 491L930.105 489.327L927.198 491L930.105 492.673ZM935.534 489.547L938.414 487.874V484.501L935.534 486.174V489.547ZM939.264 489.327L936.357 491L939.209 492.645L942.116 490.973L939.264 489.327ZM933.861 492.453L930.9 494.154V497.472L933.861 495.771V492.453ZM930.927 487.846L933.861 489.547V486.229L930.927 484.528V487.846ZM938.386 494.099L935.534 492.453V495.771L938.386 497.444V494.099Z" fill="#00BFFF"/>
<rect x="898" y="472" width="10" height="70" fill="#A1A1A1"/>
<path d="M863 491.266V691H869V491.266C867 490.911 865.5 490.911 863 491.266Z" fill="url(#paint2_linear)"/>
<path d="M904.579 484H870V490H904.579C907.598 487.967 908.009 486.463 904.579 484Z" fill="url(#paint3_linear)"/>
<path d="M869.224 484.037L869.001 490L867.668 484.037H869.224Z" fill="url(#paint4_linear)"/>
<path d="M867.668 484.037L869 490L864.558 484.811C865.671 484.073 866.305 483.916 867.668 484.037Z" fill="url(#paint5_linear)"/>
<path d="M863 491V490H869V491H863Z" fill="url(#paint6_linear)"/>
<path d="M870 490H869V484H870V490Z" fill="url(#paint7_linear)"/>
<path d="M863.003 490.227L869.001 490L863.003 488.679V490.227Z" fill="url(#paint8_linear)"/>
<path d="M863.002 488.679L869 490L864.557 484.811C863.231 485.727 862.976 486.645 863.002 488.679Z" fill="url(#paint9_linear)"/>
<path d="M904.661 530H890V536H904.661C907.12 533.852 908.376 532.974 904.661 530Z" fill="url(#paint10_linear)"/>
<path d="M889.223 530.037L889 536L887.667 530.037H889.223Z" fill="url(#paint11_linear)"/>
<path d="M887.667 530.037L888.999 536L884.557 530.811C885.67 530.073 886.304 529.916 887.667 530.037Z" fill="url(#paint12_linear)"/>
<path d="M883 537V536H889V537H883Z" fill="url(#paint13_linear)"/>
<path d="M890 536H889V530H890V536Z" fill="url(#paint14_linear)"/>
<path d="M883.002 536.227L889 536L883.002 534.679V536.227Z" fill="url(#paint15_linear)"/>
<path d="M883.002 534.679L889 536L884.557 530.811C883.231 531.727 882.976 532.645 883.002 534.679Z" fill="url(#paint16_linear)"/>
<path d="M883 537V691H889V537H883Z" fill="url(#paint17_linear)"/>
<path d="M779 472.5L811 440V509L779 542V472.5Z" fill="#007AFF"/>
<path d="M811 440H821L789 472H779L811 440Z" fill="#A9A9A9"/>
<path d="M811 509H821L789 541.5H779L811 509Z" fill="#3592F7"/>
<path d="M789 472L821 440V509L789 542V472Z" fill="#848484"/>
<path d="M791 472L820 443V508L791 538V472Z" fill="#BB5F5F"/>
<rect x="779" y="472" width="10" height="70" fill="#A1A1A1"/>
<path d="M837.238 500.139C838.432 500.139 839.599 499.889 840.765 499.361C841.627 498.972 842.46 498.778 843.293 498.778C843.515 498.778 843.71 498.805 843.877 498.833C843.765 498.944 843.015 499.694 843.015 499.778C843.015 500.028 843.404 500.083 843.543 500.083C844.238 500.083 846.515 498.639 847.099 498.333C847.293 498.222 847.293 497.944 847.099 497.833C846.488 497.5 844.127 496.111 843.543 496.111C843.404 496.111 843.015 496.166 843.015 496.389C843.015 496.5 843.904 497.389 843.988 497.444C843.738 497.444 843.488 497.444 843.293 497.444C842.099 497.444 840.932 497.694 839.765 498.222C838.904 498.583 838.071 498.778 837.238 498.778C835.182 498.778 835.154 497.722 834.21 498.778C833.21 499.916 836.043 500.139 837.238 500.139ZM837.238 488.583C838.432 488.583 839.599 488.333 840.765 487.805C841.627 487.416 842.46 487.222 843.293 487.222C843.515 487.222 843.71 487.25 843.877 487.278C843.765 487.389 843.015 488.139 843.015 488.25C843.015 488.472 843.404 488.528 843.543 488.528C844.238 488.528 846.515 487.083 847.099 486.778C847.293 486.666 847.293 486.389 847.099 486.278C846.488 485.972 844.127 484.555 843.543 484.555C843.404 484.555 843.015 484.611 843.015 484.833C843.015 484.944 843.904 485.833 843.988 485.889C843.738 485.889 843.488 485.889 843.293 485.889C842.099 485.889 840.932 486.139 839.765 486.666C838.904 487.055 838.071 487.222 837.238 487.222C835.182 487.222 835.154 486.194 834.21 487.25C833.21 488.361 836.043 488.583 837.238 488.583ZM837.238 494.389C838.432 494.389 839.599 494.111 840.765 493.611C841.627 493.222 842.46 493.028 843.293 493.028C843.515 493.028 843.71 493.028 843.877 493.055C843.765 493.194 843.015 493.916 843.015 494.028C843.015 494.25 843.404 494.305 843.543 494.305C844.238 494.305 846.515 492.889 847.099 492.583C847.293 492.472 847.293 492.166 847.099 492.055C846.488 491.75 844.127 490.333 843.543 490.333C843.404 490.333 843.015 490.416 843.015 490.639C843.015 490.75 843.904 491.611 843.988 491.694C843.738 491.666 843.488 491.666 843.293 491.666C842.099 491.666 840.932 491.944 839.765 492.444C838.904 492.833 838.071 493.028 837.238 493.028C835.182 493.028 835.154 491.972 834.21 493.028C833.21 494.166 836.043 494.389 837.238 494.389Z" fill="#00BFFF"/>
<path d="M826.082 493.402L831.992 492.518L826.259 491.668L835.035 487.952L825.339 489.014L830.045 485.298L824.666 487.422L830.399 479.813L822.543 485.581L824.772 479.99L821.163 484.52L822.331 475.071L818.402 483.989L817.518 478.079L816.668 483.812L812.952 475L814.014 484.697L810.298 479.99L812.422 485.369L804.813 479.636L810.581 487.492L804.99 485.263L809.52 488.873L800.071 487.705L808.989 491.633L803.079 492.518L808.812 493.367L800 497.083L809.697 496.021L804.99 499.737L810.369 497.614L804.636 505.222L812.492 499.454L810.263 505.045L813.873 500.516L812.74 509.965L816.668 501.047L817.553 506.957L818.402 501.223L822.118 510L821.057 500.303L824.772 505.01L822.649 499.631L830.258 505.364L824.489 497.508L830.081 499.737L825.551 496.127L835 497.295L826.082 493.402ZM817.518 500.728C812.988 500.728 809.307 497.048 809.307 492.518C809.307 487.988 812.988 484.307 817.518 484.307C822.047 484.307 825.728 487.988 825.728 492.518C825.728 497.048 822.047 500.728 817.518 500.728Z" fill="#00BFFF"/>
<path d="M825 492.5C825 496.642 821.642 500 817.5 500C813.358 500 810 496.642 810 492.5C810 488.358 813.358 485 817.5 485C821.642 485 825 488.358 825 492.5Z" fill="#00BFFF"/>
<path d="M744 491.266V691H750V491.266C748 490.911 746.5 490.911 744 491.266Z" fill="url(#paint18_linear)"/>
<path d="M785.579 484H751V490H785.579C788.598 487.967 789.009 486.463 785.579 484Z" fill="url(#paint19_linear)"/>
<path d="M750.224 484.037L750.001 490L748.668 484.037H750.224Z" fill="url(#paint20_linear)"/>
<path d="M748.668 484.037L750 490L745.558 484.811C746.671 484.073 747.305 483.916 748.668 484.037Z" fill="url(#paint21_linear)"/>
<path d="M744 491V490H750V491H744Z" fill="url(#paint22_linear)"/>
<path d="M751 490H750V484H751V490Z" fill="url(#paint23_linear)"/>
<path d="M744.003 490.227L750.001 490L744.003 488.679V490.227Z" fill="url(#paint24_linear)"/>
<path d="M744.002 488.679L750 490L745.557 484.811C744.231 485.727 743.976 486.645 744.002 488.679Z" fill="url(#paint25_linear)"/>
<path d="M785.661 530H771V536H785.661C788.12 533.852 789.376 532.974 785.661 530Z" fill="url(#paint26_linear)"/>
<path d="M770.223 530.037L770 536L768.667 530.037H770.223Z" fill="url(#paint27_linear)"/>
<path d="M768.667 530.037L769.999 536L765.557 530.811C766.67 530.073 767.304 529.916 768.667 530.037Z" fill="url(#paint28_linear)"/>
<path d="M764 537V536H770V537H764Z" fill="url(#paint29_linear)"/>
<path d="M771 536H770V530H771V536Z" fill="url(#paint30_linear)"/>
<path d="M764.002 536.227L770 536L764.002 534.679V536.227Z" fill="url(#paint31_linear)"/>
<path d="M764.002 534.679L770 536L765.557 530.811C764.231 531.727 763.976 532.645 764.002 534.679Z" fill="url(#paint32_linear)"/>
<path d="M764 537V691H770V537H764Z" fill="url(#paint33_linear)"/>
<path d="M142 436.998L541.5 438L487 507.998H142V436.998Z" fill="#848484"/>
<rect x="216" y="438" width="5" height="68" fill="#A9C7C9"/>
<rect x="208" y="438" width="5" height="68" fill="#A9C7C9"/>
<path d="M208 438H213L182 470H177L208 438Z" fill="#C4C4C4"/>
<path d="M216 438H221L190 470H185L216 438Z" fill="#C4C4C4"/>
<path d="M208 499H221L190 531H177L208 499Z" fill="url(#paint34_linear)"/>
<path d="M208 467H221L190 499H177L208 467Z" fill="url(#paint35_linear)"/>
<path d="M208 483H221L190 515H177L208 483Z" fill="url(#paint36_linear)"/>
<path d="M208 451H221L190 483H177L208 451Z" fill="url(#paint37_linear)"/>
<rect x="177" y="499" width="13" height="1" fill="#BEBEBE"/>
<rect x="177" y="483" width="13" height="1" fill="#BEBEBE"/>
<rect x="177" y="531" width="13" height="1" fill="#BEBEBE"/>
<rect x="177" y="515" width="13" height="1" fill="#BEBEBE"/>
<rect x="185" y="470" width="5" height="70" fill="#CFE2E9"/>
<rect x="177" y="470" width="5" height="70" fill="#CFE2E9"/>
<circle cx="179.5" cy="483.5" r="1.5" fill="#C4C4C4"/>
<circle cx="187.5" cy="483.5" r="1.5" fill="#C4C4C4"/>
<circle cx="179.5" cy="499.5" r="1.5" fill="#C4C4C4"/>
<circle cx="187.5" cy="499.5" r="1.5" fill="#C4C4C4"/>
<circle cx="179.5" cy="531.5" r="1.5" fill="#C4C4C4"/>
<circle cx="187.5" cy="531.5" r="1.5" fill="#C4C4C4"/>
<circle cx="179.5" cy="515.5" r="1.5" fill="#C4C4C4"/>
<circle cx="187.5" cy="515.5" r="1.5" fill="#C4C4C4"/>
<path d="M1055.18 471.828L1055.2 471.843H1055.22H1075.65C1077.55 471.843 1079.14 473.364 1079.14 475.262V536.857C1079.14 537.845 1078.75 538.58 1078.13 539.07C1077.51 539.56 1076.65 539.807 1075.69 539.807H1064.19H1053.19C1047.98 539.808 1043.69 539.807 1038.86 539.807C1035.35 539.807 1031.56 539.807 1026.93 539.807C1015.92 539.807 1005.99 535.342 998.752 528.105C991.515 520.868 987.05 510.937 987.05 499.928C987.05 488.919 991.515 478.911 998.752 471.751L998.752 471.751C1005.99 464.514 1015.92 460.049 1026.93 460.049C1037.94 460.049 1047.95 464.514 1055.11 471.751L1055.11 471.751L1055.18 471.828ZM1052.25 474.61L1052.25 474.609C1045.76 468.203 1036.81 464.189 1026.93 464.189C1017.05 464.189 1008.09 468.203 1001.69 474.61C995.204 481.094 991.19 490.048 991.19 499.928C991.19 509.808 995.203 518.763 1001.69 525.17C1008.09 531.654 1017.05 535.668 1026.93 535.668C1036.81 535.668 1045.76 531.654 1052.25 525.17C1058.65 518.763 1062.67 509.809 1062.67 499.928C1062.67 490.048 1058.65 481.094 1052.25 474.61Z" fill="url(#paint38_linear)" stroke="#848484" stroke-width="0.1"/>
<circle cx="1027.19" cy="499.857" r="36" transform="rotate(-180 1027.19 499.857)" fill="#808080"/>
<path d="M756 440H1130L1117.38 472H744L756 440Z" fill="white" fill-opacity="0.5"/>
<path d="M139 226L515.5 224.998L498 256.998H130L139 226Z" fill="url(#paint39_linear)"/>
<path d="M515.5 224.998L719 507.998L705 541.998L498 256.998L515.5 224.998Z" fill="white" fill-opacity="0.5"/>
<path d="M139 155H540L528.976 226H139V155Z" fill="#848484"/>
<rect x="216" y="155" width="5" height="68" fill="#A9C7C9"/>
<rect x="208" y="155" width="5" height="68" fill="#A9C7C9"/>
<path d="M208 155H213L182 187H177L208 155Z" fill="#C4C4C4"/>
<path d="M216 155H221L190 187H185L216 155Z" fill="#C4C4C4"/>
<path d="M208 216H221L190 248H177L208 216Z" fill="url(#paint40_linear)"/>
<path d="M208 184H221L190 216H177L208 184Z" fill="url(#paint41_linear)"/>
<path d="M208 200H221L190 232H177L208 200Z" fill="url(#paint42_linear)"/>
<path d="M208 168H221L190 200H177L208 168Z" fill="url(#paint43_linear)"/>
<rect x="177" y="216" width="13" height="1" fill="#BEBEBE"/>
<rect x="177" y="200" width="13" height="1" fill="#BEBEBE"/>
<rect x="177" y="248" width="13" height="1" fill="#BEBEBE"/>
<rect x="177" y="232" width="13" height="1" fill="#BEBEBE"/>
<rect x="185" y="187" width="5" height="70" fill="#CFE2E9"/>
<rect x="177" y="187" width="5" height="70" fill="#CFE2E9"/>
<circle cx="179.5" cy="200.5" r="1.5" fill="#C4C4C4"/>
<circle cx="187.5" cy="200.5" r="1.5" fill="#C4C4C4"/>
<circle cx="179.5" cy="216.5" r="1.5" fill="#C4C4C4"/>
<circle cx="187.5" cy="216.5" r="1.5" fill="#C4C4C4"/>
<circle cx="179.5" cy="248.5" r="1.5" fill="#C4C4C4"/>
<circle cx="187.5" cy="248.5" r="1.5" fill="#C4C4C4"/>
<circle cx="179.5" cy="232.5" r="1.5" fill="#C4C4C4"/>
<circle cx="187.5" cy="232.5" r="1.5" fill="#C4C4C4"/>
<path d="M540 155L756 439.998L719 507.998L514.438 225.299L540 155Z" fill="#848484"/>
<path d="M837 157.998H1130V227L784 225.998L837 157.998Z" fill="#848484"/>
<path d="M375.008 471.828L374.994 471.843H374.973H354.546C352.645 471.843 351.05 473.364 351.05 475.262V536.857C351.05 537.845 351.437 538.58 352.058 539.07C352.681 539.56 353.544 539.807 354.5 539.807H366H377C382.215 539.808 386.503 539.807 391.332 539.807C394.837 539.807 398.626 539.807 403.262 539.807C414.271 539.807 424.202 535.342 431.439 528.105C438.676 520.868 443.141 510.937 443.141 499.928C443.141 488.919 438.676 478.911 431.44 471.751L431.439 471.751C424.202 464.514 414.271 460.049 403.262 460.049C392.253 460.049 382.245 464.514 375.085 471.751L375.085 471.751L375.008 471.828ZM377.944 474.61L377.944 474.609C384.428 468.203 393.382 464.189 403.262 464.189C413.143 464.189 422.097 468.203 428.504 474.61C434.988 481.094 439.002 490.048 439.002 499.928C439.002 509.808 434.988 518.763 428.504 525.17C422.097 531.654 413.143 535.668 403.262 535.668C393.382 535.668 384.428 531.654 377.944 525.17C371.537 518.763 367.523 509.809 367.523 499.928C367.523 490.048 371.537 481.094 377.944 474.61Z" fill="url(#paint44_linear)" stroke="#848484" stroke-width="0.1"/>
<circle r="36" transform="matrix(1 0 0 -1 403 499.857)" fill="#808080"/>
<path d="M294 187.5L326 155V224L294 257V187.5Z" fill="#007AFF"/>
<path d="M326 155H336L304 187H294L326 155Z" fill="#A9A9A9"/>
<path d="M326 224H336L304 256.5H294L326 224Z" fill="#3592F7"/>
<path d="M304 187L336 155V224L304 257V187Z" fill="#848484"/>
<path d="M306 187L335 158V223L306 253V187Z" fill="#C0A57F"/>
<rect x="294" y="187" width="10" height="70" fill="#A1A1A1"/>
<path d="M340.095 198.056C338.901 198.056 337.734 198.306 336.568 198.833C335.706 199.222 334.873 199.417 334.04 199.417C333.818 199.417 333.623 199.389 333.456 199.361C333.568 199.25 334.318 198.5 334.318 198.417C334.318 198.167 333.929 198.111 333.79 198.111C333.095 198.111 330.818 199.556 330.234 199.861C330.04 199.972 330.04 200.25 330.234 200.361C330.845 200.694 333.206 202.083 333.79 202.083C333.929 202.083 334.318 202.028 334.318 201.806C334.318 201.694 333.429 200.806 333.345 200.75C333.595 200.75 333.845 200.75 334.04 200.75C335.234 200.75 336.401 200.5 337.568 199.972C338.429 199.611 339.262 199.417 340.095 199.417C342.151 199.417 342.179 200.472 343.123 199.417C344.123 198.278 341.29 198.056 340.095 198.056ZM317.179 192.278C317.484 201.306 317.484 210.361 317.179 219.389C317.179 219.75 316.234 220.278 316.206 219.917C315.901 210.528 315.901 201.139 316.206 191.75C316.234 191.389 317.179 191.917 317.179 192.278ZM328.595 190.833C328.595 189.278 327.456 190.528 325.984 191.333C322.651 189.556 325.179 189.556 321.845 191.333C318.54 189.556 321.04 189.556 317.734 191.333C316.262 190.528 315.123 189.278 315.123 190.833C315.123 200.833 314.845 210.833 315.123 220.833C315.151 222.056 317.345 220.556 317.734 220.333C321.151 222.167 318.429 222.167 321.845 220.333C325.262 222.167 322.568 222.167 325.984 220.333C327.873 221.361 328.595 222.583 328.595 220.833V190.833ZM326.54 192.278C326.54 191.917 327.484 191.389 327.484 191.75C327.818 201.139 327.818 210.528 327.484 219.917C327.484 220.278 326.54 219.75 326.54 219.389C326.206 210.361 326.206 201.306 326.54 192.278ZM324.484 219.917C324.151 210.528 324.151 201.139 324.484 191.75C324.484 191.389 325.429 191.917 325.429 192.278C325.762 201.306 325.734 210.361 325.429 219.389C325.429 219.75 324.484 220.278 324.484 219.917ZM322.401 192.278C322.429 191.917 323.345 191.389 323.373 191.75C323.706 201.139 323.706 210.528 323.373 219.917C323.345 220.278 322.429 219.75 322.401 219.389C322.095 210.361 322.095 201.306 322.401 192.278ZM320.345 219.917C320.012 210.528 320.012 201.139 320.345 191.75C320.345 191.389 321.29 191.917 321.318 192.278C321.623 201.306 321.623 210.361 321.318 219.389C321.29 219.75 320.345 220.278 320.345 219.917ZM318.29 192.278C318.29 191.917 319.234 191.389 319.234 191.75C319.568 201.139 319.568 210.528 319.234 219.917C319.234 220.278 318.29 219.75 318.29 219.389C317.956 210.361 317.956 201.306 318.29 192.278ZM340.095 209.611C338.901 209.611 337.734 209.861 336.568 210.389C335.706 210.778 334.873 210.972 334.04 210.972C333.818 210.972 333.623 210.944 333.456 210.917C333.568 210.806 334.318 210.056 334.318 209.944C334.318 209.722 333.929 209.667 333.79 209.667C333.095 209.667 330.818 211.111 330.234 211.417C330.04 211.528 330.04 211.806 330.234 211.917C330.845 212.222 333.206 213.639 333.79 213.639C333.929 213.639 334.318 213.583 334.318 213.361C334.318 213.25 333.429 212.361 333.345 212.306C333.595 212.306 333.845 212.306 334.04 212.306C335.234 212.306 336.401 212.056 337.568 211.528C338.429 211.139 339.262 210.972 340.095 210.972C342.151 210.972 342.179 212 343.123 210.944C344.123 209.833 341.29 209.611 340.095 209.611ZM340.095 203.806C338.901 203.806 337.734 204.083 336.568 204.583C335.706 204.972 334.873 205.167 334.04 205.167C333.818 205.167 333.623 205.167 333.456 205.139C333.568 205 334.318 204.278 334.318 204.167C334.318 203.944 333.929 203.889 333.79 203.889C333.095 203.889 330.818 205.306 330.234 205.611C330.04 205.722 330.04 206.028 330.234 206.139C330.845 206.444 333.206 207.861 333.79 207.861C333.929 207.861 334.318 207.778 334.318 207.556C334.318 207.444 333.429 206.583 333.345 206.5C333.595 206.528 333.845 206.528 334.04 206.528C335.234 206.528 336.401 206.25 337.568 205.75C338.429 205.361 339.262 205.167 340.095 205.167C342.151 205.167 342.179 206.222 343.123 205.167C344.123 204.028 341.29 203.806 340.095 203.806Z" fill="#00BFFF"/>
<path d="M139 155H540L523.531 187H127L139 155Z" fill="white" fill-opacity="0.5"/>
<path d="M784 226L1130 226.998L1118.49 260.998L758 259L784 226Z" fill="url(#paint45_linear)"/>
<path d="M943 190.5L975 158V227L943 260V190.5Z" fill="#007AFF"/>
<path d="M975 158H985L953 190H943L975 158Z" fill="#A9A9A9"/>
<path d="M975 227H985L953 259.5H943L975 227Z" fill="#3592F7"/>
<path d="M953 190L985 158V227L953 260V190Z" fill="#848484"/>
<path d="M955 190L984 161V226L955 256V190Z" fill="#C0A57F"/>
<rect x="943" y="190" width="10" height="70" fill="#A1A1A1"/>
<path d="M982.09 223.437C982.395 214.409 982.395 205.354 982.09 196.326C982.09 195.965 981.145 195.437 981.117 195.798C980.812 205.187 980.812 214.576 981.117 223.965C981.145 224.326 982.09 223.798 982.09 223.437ZM993.506 224.882C993.506 226.437 992.367 225.187 990.895 224.382C987.562 226.159 990.09 226.159 986.756 224.382C983.451 226.159 985.951 226.159 982.645 224.382C981.173 225.187 980.034 226.437 980.034 224.882C980.034 214.882 979.756 204.882 980.034 194.882C980.062 193.659 982.256 195.159 982.645 195.382C986.062 193.548 983.34 193.548 986.756 195.382C990.173 193.548 987.479 193.548 990.895 195.382C992.784 194.354 993.506 193.132 993.506 194.882L993.506 224.882ZM991.451 223.437C991.451 223.798 992.395 224.326 992.395 223.965C992.729 214.576 992.729 205.187 992.395 195.798C992.395 195.437 991.451 195.965 991.451 196.326C991.117 205.354 991.117 214.409 991.451 223.437ZM989.395 195.798C989.062 205.187 989.062 214.576 989.395 223.965C989.395 224.326 990.34 223.798 990.34 223.437C990.673 214.409 990.645 205.354 990.34 196.326C990.34 195.965 989.395 195.437 989.395 195.798ZM987.312 223.437C987.34 223.798 988.256 224.326 988.284 223.965C988.617 214.576 988.617 205.187 988.284 195.798C988.256 195.437 987.34 195.965 987.312 196.326C987.006 205.354 987.006 214.409 987.312 223.437ZM985.256 195.798C984.923 205.187 984.923 214.576 985.256 223.965C985.256 224.326 986.201 223.798 986.229 223.437C986.534 214.409 986.534 205.354 986.229 196.326C986.201 195.965 985.256 195.437 985.256 195.798ZM983.201 223.437C983.201 223.798 984.145 224.326 984.145 223.965C984.479 214.576 984.479 205.187 984.145 195.798C984.145 195.437 983.201 195.965 983.201 196.326C982.867 205.354 982.867 214.409 983.201 223.437Z" fill="#00BFFF"/>
<path d="M975.007 201.576C973.813 201.576 972.646 201.826 971.479 202.354C970.618 202.743 969.785 202.937 968.951 202.937C968.729 202.937 968.535 202.91 968.368 202.882C968.479 202.771 969.229 202.021 969.229 201.937C969.229 201.687 968.84 201.632 968.701 201.632C968.007 201.632 965.729 203.076 965.146 203.382C964.951 203.493 964.951 203.771 965.146 203.882C965.757 204.215 968.118 205.604 968.701 205.604C968.84 205.604 969.229 205.548 969.229 205.326C969.229 205.215 968.34 204.326 968.257 204.271C968.507 204.271 968.757 204.271 968.951 204.271C970.146 204.271 971.313 204.021 972.479 203.493C973.34 203.132 974.174 202.937 975.007 202.937C977.063 202.937 977.09 203.993 978.035 202.937C979.035 201.798 976.201 201.576 975.007 201.576ZM975.007 213.132C973.813 213.132 972.646 213.382 971.479 213.91C970.618 214.298 969.785 214.493 968.951 214.493C968.729 214.493 968.535 214.465 968.368 214.437C968.479 214.326 969.229 213.576 969.229 213.465C969.229 213.243 968.84 213.187 968.701 213.187C968.007 213.187 965.729 214.632 965.146 214.937C964.951 215.048 964.951 215.326 965.146 215.437C965.757 215.743 968.118 217.16 968.701 217.16C968.84 217.16 969.229 217.104 969.229 216.882C969.229 216.771 968.34 215.882 968.257 215.826C968.507 215.826 968.757 215.826 968.951 215.826C970.146 215.826 971.313 215.576 972.479 215.048C973.34 214.66 974.174 214.493 975.007 214.493C977.063 214.493 977.09 215.521 978.035 214.465C979.035 213.354 976.201 213.132 975.007 213.132ZM975.007 207.326C973.813 207.326 972.646 207.604 971.479 208.104C970.618 208.493 969.785 208.687 968.951 208.687C968.729 208.687 968.535 208.687 968.368 208.66C968.479 208.521 969.229 207.798 969.229 207.687C969.229 207.465 968.84 207.41 968.701 207.41C968.007 207.41 965.729 208.826 965.146 209.132C964.951 209.243 964.951 209.548 965.146 209.66C965.757 209.965 968.118 211.382 968.701 211.382C968.84 211.382 969.229 211.298 969.229 211.076C969.229 210.965 968.34 210.104 968.257 210.021C968.507 210.048 968.757 210.048 968.951 210.048C970.146 210.048 971.313 209.771 972.479 209.271C973.34 208.882 974.174 208.687 975.007 208.687C977.063 208.687 977.09 209.743 978.035 208.687C979.035 207.548 976.201 207.326 975.007 207.326Z" fill="#00BFFF"/>
<path d="M759 158H1130L1117.38 190H734.26L759 158Z" fill="white" fill-opacity="0.5"/>
<path d="M137.293 436.998L541.5 438L517 468.998H127L137.293 436.998Z" fill="url(#paint46_linear)"/>
<path d="M487 508L759 157.998L837 157.997L564 508L487 508Z" fill="white" fill-opacity="0.5"/>
<path d="M540 155L756 439.998L744 471.998L523.5 187L540 155Z" fill="white" fill-opacity="0.5"/>
<path d="M681.186 347.943L622.936 422.277L624.423 423.442L682.673 349.108L681.186 347.943Z" fill="url(#paint47_linear)"/>
<path d="M677.124 342.73L618.874 417.064L620.36 418.229L678.611 343.895L677.124 342.73Z" fill="url(#paint48_linear)"/>
<path d="M673.062 337.515L614.811 411.85L616.298 413.015L674.548 338.68L673.062 337.515Z" fill="url(#paint49_linear)"/>
<path d="M668.999 332.299L610.749 406.633L612.236 407.798L670.486 333.464L668.999 332.299Z" fill="url(#paint50_linear)"/>
<path d="M664.937 327.082L606.687 401.416L608.173 402.581L666.424 328.247L664.937 327.082Z" fill="url(#paint51_linear)"/>
<path d="M652.75 311.437L594.499 385.771L595.986 386.936L654.236 312.602L652.75 311.437Z" fill="url(#paint52_linear)"/>
<path d="M656.812 316.652L598.562 390.986L600.049 392.151L658.299 317.817L656.812 316.652Z" fill="url(#paint53_linear)"/>
<path d="M660.875 321.869L602.624 396.203L604.111 397.368L662.361 323.034L660.875 321.869Z" fill="url(#paint54_linear)"/>
<path d="M648.687 306.222L590.437 380.557L591.924 381.722L650.174 307.387L648.687 306.222Z" fill="url(#paint55_linear)"/>
<path d="M647.207 394.78L613.547 351.568L612.057 352.729L645.717 395.941L647.207 394.78Z" fill="url(#paint56_linear)"/>
<path d="M641.733 400.634L608.074 357.422L606.583 358.583L640.243 401.794L641.733 400.634Z" fill="url(#paint57_linear)"/>
<path d="M637.204 406.454L603.544 363.242L602.054 364.403L635.714 407.615L637.204 406.454Z" fill="url(#paint58_linear)"/>
<path d="M597.524 370.226L631.184 413.438L632.674 412.277L599.014 369.065L597.524 370.226Z" fill="url(#paint59_linear)"/>
<path d="M593.906 375.071L627.566 418.283L629.056 417.123L595.397 373.911L593.906 375.071Z" fill="url(#paint60_linear)"/>
<path d="M590.321 380.86L623.98 424.072L625.47 422.912L591.811 379.7L590.321 380.86Z" fill="url(#paint61_linear)"/>
<path d="M651.737 388.96L618.077 345.748L616.587 346.909L650.247 390.121L651.737 388.96Z" fill="url(#paint62_linear)"/>
<path d="M655.323 383.171L621.663 339.959L620.173 341.12L653.833 384.331L655.323 383.171Z" fill="url(#paint63_linear)"/>
<path d="M659.884 378.294L626.224 335.082L624.734 336.243L658.394 379.455L659.884 378.294Z" fill="url(#paint64_linear)"/>
<path d="M663.47 372.505L629.81 329.293L628.32 330.454L661.98 373.665L663.47 372.505Z" fill="url(#paint65_linear)"/>
<path d="M668.031 367.626L634.372 324.414L632.881 325.575L666.541 368.787L668.031 367.626Z" fill="url(#paint66_linear)"/>
<path d="M672.593 362.749L638.933 319.537L637.443 320.698L671.103 363.91L672.593 362.749Z" fill="url(#paint67_linear)"/>
<path d="M677.122 356.929L643.463 313.717L641.973 314.877L675.632 358.089L677.122 356.929Z" fill="url(#paint68_linear)"/>
<path d="M680.74 352.083L647.08 308.871L645.59 310.032L679.25 353.244L680.74 352.083Z" fill="url(#paint69_linear)"/>
<path d="M683.445 348.212L649.785 305L648.295 306.161L681.955 349.373L683.445 348.212Z" fill="url(#paint70_linear)"/>
<defs>
<linearGradient id="paint0_linear" x1="917.5" y1="507.998" x2="917.5" y2="553.331" gradientUnits="userSpaceOnUse">
<stop stop-color="#A6A5A5"/>
<stop offset="1" stop-color="white"/>
</linearGradient>
<linearGradient id="paint1_linear" x1="312" y1="507.998" x2="312" y2="550.665" gradientUnits="userSpaceOnUse">
<stop stop-color="#A6A5A5"/>
<stop offset="1" stop-color="white"/>
</linearGradient>
<linearGradient id="paint2_linear" x1="863" y1="591.133" x2="869" y2="591.133" gradientUnits="userSpaceOnUse">
<stop stop-color="#848484"/>
<stop offset="0.519337" stop-color="white"/>
<stop offset="1" stop-color="#848484"/>
</linearGradient>
<linearGradient id="paint3_linear" x1="887.29" y1="484" x2="887.29" y2="490" gradientUnits="userSpaceOnUse">
<stop stop-color="#848484"/>
<stop offset="0.519337" stop-color="white"/>
<stop offset="1" stop-color="#848484"/>
</linearGradient>
<linearGradient id="paint4_linear" x1="869.224" y1="484.037" x2="869.224" y2="490.226" gradientUnits="userSpaceOnUse">
<stop stop-color="#848484"/>
<stop offset="0.478645" stop-color="white"/>
<stop offset="1" stop-color="#848484"/>
</linearGradient>
<linearGradient id="paint5_linear" x1="866.89" y1="484.037" x2="867.66" y2="490.227" gradientUnits="userSpaceOnUse">
<stop stop-color="#848484"/>
<stop offset="0.491713" stop-color="white"/>
<stop offset="1" stop-color="#848484"/>
</linearGradient>
<linearGradient id="paint6_linear" x1="863" y1="490.5" x2="869" y2="490.5" gradientUnits="userSpaceOnUse">
<stop stop-color="#848484"/>
<stop offset="0.476897" stop-color="white"/>
<stop offset="1" stop-color="#848484"/>
</linearGradient>
<linearGradient id="paint7_linear" x1="869.5" y1="490" x2="869.5" y2="484" gradientUnits="userSpaceOnUse">
<stop stop-color="#848484"/>
<stop offset="0.508099" stop-color="white"/>
<stop offset="1" stop-color="#848484"/>
</linearGradient>
<linearGradient id="paint8_linear" x1="863.003" y1="490.227" x2="868.44" y2="488.275" gradientUnits="userSpaceOnUse">
<stop stop-color="#848484"/>
<stop offset="0.526042" stop-color="white"/>
<stop offset="1" stop-color="#848484"/>
</linearGradient>
<linearGradient id="paint9_linear" x1="863.002" y1="487.906" x2="868.521" y2="490.297" gradientUnits="userSpaceOnUse">
<stop stop-color="#848484"/>
<stop offset="0.491713" stop-color="white"/>
<stop offset="1" stop-color="#848484"/>
</linearGradient>
<linearGradient id="paint10_linear" x1="897.331" y1="530" x2="897.331" y2="536" gradientUnits="userSpaceOnUse">
<stop stop-color="#848484"/>
<stop offset="0.519337" stop-color="white"/>
<stop offset="1" stop-color="#848484"/>
</linearGradient>
<linearGradient id="paint11_linear" x1="889.223" y1="530.037" x2="889.223" y2="536.226" gradientUnits="userSpaceOnUse">
<stop stop-color="#848484"/>
<stop offset="0.478645" stop-color="white"/>
<stop offset="1" stop-color="#848484"/>
</linearGradient>
<linearGradient id="paint12_linear" x1="886.889" y1="530.037" x2="887.659" y2="536.227" gradientUnits="userSpaceOnUse">
<stop stop-color="#848484"/>
<stop offset="0.491713" stop-color="white"/>
<stop offset="1" stop-color="#848484"/>
</linearGradient>
<linearGradient id="paint13_linear" x1="883" y1="536.5" x2="889" y2="536.5" gradientUnits="userSpaceOnUse">
<stop stop-color="#848484"/>
<stop offset="0.476897" stop-color="white"/>
<stop offset="1" stop-color="#848484"/>
</linearGradient>
<linearGradient id="paint14_linear" x1="889.5" y1="536" x2="889.5" y2="530" gradientUnits="userSpaceOnUse">
<stop stop-color="#848484"/>
<stop offset="0.508099" stop-color="white"/>
<stop offset="1" stop-color="#848484"/>
</linearGradient>
<linearGradient id="paint15_linear" x1="883.002" y1="536.227" x2="888.439" y2="534.275" gradientUnits="userSpaceOnUse">
<stop stop-color="#848484"/>
<stop offset="0.526042" stop-color="white"/>
<stop offset="1" stop-color="#848484"/>
</linearGradient>
<linearGradient id="paint16_linear" x1="883.002" y1="533.906" x2="888.521" y2="536.297" gradientUnits="userSpaceOnUse">
<stop stop-color="#848484"/>
<stop offset="0.491713" stop-color="white"/>
<stop offset="1" stop-color="#848484"/>
</linearGradient>
<linearGradient id="paint17_linear" x1="883" y1="614.103" x2="889" y2="614.103" gradientUnits="userSpaceOnUse">
<stop stop-color="#848484"/>
<stop offset="0.519337" stop-color="white"/>
<stop offset="1" stop-color="#848484"/>
</linearGradient>
<linearGradient id="paint18_linear" x1="744" y1="591.133" x2="750" y2="591.133" gradientUnits="userSpaceOnUse">
<stop stop-color="#848484"/>
<stop offset="0.519337" stop-color="white"/>
<stop offset="1" stop-color="#848484"/>
</linearGradient>
<linearGradient id="paint19_linear" x1="768.29" y1="484" x2="768.29" y2="490" gradientUnits="userSpaceOnUse">
<stop stop-color="#848484"/>
<stop offset="0.519337" stop-color="white"/>
<stop offset="1" stop-color="#848484"/>
</linearGradient>
<linearGradient id="paint20_linear" x1="750.224" y1="484.037" x2="750.224" y2="490.226" gradientUnits="userSpaceOnUse">
<stop stop-color="#848484"/>
<stop offset="0.478645" stop-color="white"/>
<stop offset="1" stop-color="#848484"/>
</linearGradient>
<linearGradient id="paint21_linear" x1="747.89" y1="484.037" x2="748.66" y2="490.227" gradientUnits="userSpaceOnUse">
<stop stop-color="#848484"/>
<stop offset="0.491713" stop-color="white"/>
<stop offset="1" stop-color="#848484"/>
</linearGradient>
<linearGradient id="paint22_linear" x1="744" y1="490.5" x2="750" y2="490.5" gradientUnits="userSpaceOnUse">
<stop stop-color="#848484"/>
<stop offset="0.476897" stop-color="white"/>
<stop offset="1" stop-color="#848484"/>
</linearGradient>
<linearGradient id="paint23_linear" x1="750.5" y1="490" x2="750.5" y2="484" gradientUnits="userSpaceOnUse">
<stop stop-color="#848484"/>
<stop offset="0.508099" stop-color="white"/>
<stop offset="1" stop-color="#848484"/>
</linearGradient>
<linearGradient id="paint24_linear" x1="744.003" y1="490.227" x2="749.44" y2="488.275" gradientUnits="userSpaceOnUse">
<stop stop-color="#848484"/>
<stop offset="0.526042" stop-color="white"/>
<stop offset="1" stop-color="#848484"/>
</linearGradient>
<linearGradient id="paint25_linear" x1="744.002" y1="487.906" x2="749.521" y2="490.297" gradientUnits="userSpaceOnUse">
<stop stop-color="#848484"/>
<stop offset="0.491713" stop-color="white"/>
<stop offset="1" stop-color="#848484"/>
</linearGradient>
<linearGradient id="paint26_linear" x1="778.331" y1="530" x2="778.331" y2="536" gradientUnits="userSpaceOnUse">
<stop stop-color="#848484"/>
<stop offset="0.519337" stop-color="white"/>
<stop offset="1" stop-color="#848484"/>
</linearGradient>
<linearGradient id="paint27_linear" x1="770.223" y1="530.037" x2="770.223" y2="536.226" gradientUnits="userSpaceOnUse">
<stop stop-color="#848484"/>
<stop offset="0.478645" stop-color="white"/>
<stop offset="1" stop-color="#848484"/>
</linearGradient>
<linearGradient id="paint28_linear" x1="767.889" y1="530.037" x2="768.659" y2="536.227" gradientUnits="userSpaceOnUse">
<stop stop-color="#848484"/>
<stop offset="0.491713" stop-color="white"/>
<stop offset="1" stop-color="#848484"/>
</linearGradient>
<linearGradient id="paint29_linear" x1="764" y1="536.5" x2="770" y2="536.5" gradientUnits="userSpaceOnUse">
<stop stop-color="#848484"/>
<stop offset="0.476897" stop-color="white"/>
<stop offset="1" stop-color="#848484"/>
</linearGradient>
<linearGradient id="paint30_linear" x1="770.5" y1="536" x2="770.5" y2="530" gradientUnits="userSpaceOnUse">
<stop stop-color="#848484"/>
<stop offset="0.508099" stop-color="white"/>
<stop offset="1" stop-color="#848484"/>
</linearGradient>
<linearGradient id="paint31_linear" x1="764.002" y1="536.227" x2="769.439" y2="534.275" gradientUnits="userSpaceOnUse">
<stop stop-color="#848484"/>
<stop offset="0.526042" stop-color="white"/>
<stop offset="1" stop-color="#848484"/>
</linearGradient>
<linearGradient id="paint32_linear" x1="764.002" y1="533.906" x2="769.521" y2="536.297" gradientUnits="userSpaceOnUse">
<stop stop-color="#848484"/>
<stop offset="0.491713" stop-color="white"/>
<stop offset="1" stop-color="#848484"/>
</linearGradient>
<linearGradient id="paint33_linear" x1="764" y1="614.103" x2="770" y2="614.103" gradientUnits="userSpaceOnUse">
<stop stop-color="#848484"/>
<stop offset="0.519337" stop-color="white"/>
<stop offset="1" stop-color="#848484"/>
</linearGradient>
<linearGradient id="paint34_linear" x1="193" y1="515" x2="199.5" y2="521.5" gradientUnits="userSpaceOnUse">
<stop stop-color="#C4C4C4"/>
<stop offset="0.494792" stop-color="white"/>
<stop offset="1" stop-color="#BEBEBE"/>
</linearGradient>
<linearGradient id="paint35_linear" x1="193" y1="483" x2="199.5" y2="489.5" gradientUnits="userSpaceOnUse">
<stop stop-color="#C4C4C4"/>
<stop offset="0.494792" stop-color="white"/>
<stop offset="1" stop-color="#BEBEBE"/>
</linearGradient>
<linearGradient id="paint36_linear" x1="193" y1="499" x2="199.5" y2="505.5" gradientUnits="userSpaceOnUse">
<stop stop-color="#C4C4C4"/>
<stop offset="0.494792" stop-color="white"/>
<stop offset="1" stop-color="#BEBEBE"/>
</linearGradient>
<linearGradient id="paint37_linear" x1="193" y1="467" x2="199.5" y2="473.5" gradientUnits="userSpaceOnUse">
<stop stop-color="#C4C4C4"/>
<stop offset="0.494792" stop-color="white"/>
<stop offset="1" stop-color="#BEBEBE"/>
</linearGradient>
<linearGradient id="paint38_linear" x1="1064.55" y1="471.64" x2="1065.32" y2="527.525" gradientUnits="userSpaceOnUse">
<stop stop-color="#848484"/>
<stop offset="0.499267" stop-color="white"/>
<stop offset="1" stop-color="#848484"/>
</linearGradient>
<linearGradient id="paint39_linear" x1="322.75" y1="225.167" x2="322.75" y2="272.716" gradientUnits="userSpaceOnUse">
<stop stop-color="#A6A5A5"/>
<stop offset="1" stop-color="white"/>
</linearGradient>
<linearGradient id="paint40_linear" x1="193" y1="232" x2="199.5" y2="238.5" gradientUnits="userSpaceOnUse">
<stop stop-color="#C4C4C4"/>
<stop offset="0.494792" stop-color="white"/>
<stop offset="1" stop-color="#BEBEBE"/>
</linearGradient>
<linearGradient id="paint41_linear" x1="193" y1="200" x2="199.5" y2="206.5" gradientUnits="userSpaceOnUse">
<stop stop-color="#C4C4C4"/>
<stop offset="0.494792" stop-color="white"/>
<stop offset="1" stop-color="#BEBEBE"/>
</linearGradient>
<linearGradient id="paint42_linear" x1="193" y1="216" x2="199.5" y2="222.5" gradientUnits="userSpaceOnUse">
<stop stop-color="#C4C4C4"/>
<stop offset="0.494792" stop-color="white"/>
<stop offset="1" stop-color="#BEBEBE"/>
</linearGradient>
<linearGradient id="paint43_linear" x1="193" y1="184" x2="199.5" y2="190.5" gradientUnits="userSpaceOnUse">
<stop stop-color="#C4C4C4"/>
<stop offset="0.494792" stop-color="white"/>
<stop offset="1" stop-color="#BEBEBE"/>
</linearGradient>
<linearGradient id="paint44_linear" x1="365.646" y1="471.64" x2="364.875" y2="527.525" gradientUnits="userSpaceOnUse">
<stop stop-color="#848484"/>
<stop offset="0.499267" stop-color="white"/>
<stop offset="1" stop-color="#848484"/>
</linearGradient>
<linearGradient id="paint45_linear" x1="978.347" y1="226.167" x2="978.347" y2="272.389" gradientUnits="userSpaceOnUse">
<stop stop-color="#A6A5A5"/>
<stop offset="1" stop-color="white"/>
</linearGradient>
<linearGradient id="paint46_linear" x1="345.03" y1="437.15" x2="345.03" y2="479.413" gradientUnits="userSpaceOnUse">
<stop stop-color="#A6A5A5"/>
<stop offset="1" stop-color="white"/>
</linearGradient>
<linearGradient id="paint47_linear" x1="652.022" y1="385.16" x2="653.509" y2="386.325" gradientUnits="userSpaceOnUse">
<stop offset="0.239583" stop-color="#FF0000"/>
<stop offset="0.519337" stop-color="white"/>
<stop offset="0.755208" stop-color="#FF0000"/>
</linearGradient>
<linearGradient id="paint48_linear" x1="647.96" y1="379.947" x2="649.447" y2="381.112" gradientUnits="userSpaceOnUse">
<stop offset="0.239583" stop-color="#007AFF"/>
<stop offset="0.519337" stop-color="white"/>
<stop offset="0.755208" stop-color="#007AFF"/>
</linearGradient>
<linearGradient id="paint49_linear" x1="643.898" y1="374.732" x2="645.384" y2="375.897" gradientUnits="userSpaceOnUse">
<stop offset="0.239583" stop-color="#FF0000"/>
<stop offset="0.519337" stop-color="white"/>
<stop offset="0.755208" stop-color="#FF0000"/>
</linearGradient>
<linearGradient id="paint50_linear" x1="639.835" y1="369.515" x2="641.322" y2="370.68" gradientUnits="userSpaceOnUse">
<stop offset="0.239583" stop-color="#007AFF"/>
<stop offset="0.519337" stop-color="white"/>
<stop offset="0.755208" stop-color="#007AFF"/>
</linearGradient>
<linearGradient id="paint51_linear" x1="635.773" y1="364.298" x2="637.26" y2="365.463" gradientUnits="userSpaceOnUse">
<stop offset="0.239583" stop-color="#FF0000"/>
<stop offset="0.519337" stop-color="white"/>
<stop offset="0.755208" stop-color="#FF0000"/>
</linearGradient>
<linearGradient id="paint52_linear" x1="623.586" y1="348.654" x2="625.072" y2="349.819" gradientUnits="userSpaceOnUse">
<stop offset="0.239583" stop-color="#007AFF"/>
<stop offset="0.519337" stop-color="white"/>
<stop offset="0.755208" stop-color="#007AFF"/>
</linearGradient>
<linearGradient id="paint53_linear" x1="627.648" y1="353.869" x2="629.135" y2="355.034" gradientUnits="userSpaceOnUse">
<stop offset="0.239583" stop-color="#FF0000"/>
<stop offset="0.519337" stop-color="white"/>
<stop offset="0.755208" stop-color="#FF0000"/>
</linearGradient>
<linearGradient id="paint54_linear" x1="631.711" y1="359.086" x2="633.197" y2="360.251" gradientUnits="userSpaceOnUse">
<stop offset="0.239583" stop-color="#007AFF"/>
<stop offset="0.519337" stop-color="white"/>
<stop offset="0.755208" stop-color="#007AFF"/>
</linearGradient>
<linearGradient id="paint55_linear" x1="619.523" y1="343.439" x2="621.01" y2="344.604" gradientUnits="userSpaceOnUse">
<stop offset="0.239583" stop-color="#FF0000"/>
<stop offset="0.519337" stop-color="white"/>
<stop offset="0.755208" stop-color="#FF0000"/>
</linearGradient>
<linearGradient id="paint56_linear" x1="630.355" y1="373.145" x2="628.865" y2="374.306" gradientUnits="userSpaceOnUse">
<stop offset="0.239583" stop-color="#FF0000"/>
<stop offset="0.519337" stop-color="white"/>
<stop offset="0.755208" stop-color="#FF0000"/>
</linearGradient>
<linearGradient id="paint57_linear" x1="624.881" y1="378.999" x2="623.391" y2="380.16" gradientUnits="userSpaceOnUse">
<stop offset="0.239583" stop-color="#007AFF"/>
<stop offset="0.519337" stop-color="white"/>
<stop offset="0.755208" stop-color="#007AFF"/>
</linearGradient>
<linearGradient id="paint58_linear" x1="620.351" y1="384.819" x2="618.861" y2="385.98" gradientUnits="userSpaceOnUse">
<stop offset="0.239583" stop-color="#FF0000"/>
<stop offset="0.519337" stop-color="white"/>
<stop offset="0.755208" stop-color="#FF0000"/>
</linearGradient>
<linearGradient id="paint59_linear" x1="614.376" y1="391.86" x2="615.866" y2="390.7" gradientUnits="userSpaceOnUse">
<stop offset="0.239583" stop-color="#007AFF"/>
<stop offset="0.519337" stop-color="white"/>
<stop offset="0.755208" stop-color="#007AFF"/>
</linearGradient>
<linearGradient id="paint60_linear" x1="610.759" y1="396.706" x2="612.249" y2="395.545" gradientUnits="userSpaceOnUse">
<stop offset="0.239583" stop-color="#FF0000"/>
<stop offset="0.519337" stop-color="white"/>
<stop offset="0.755208" stop-color="#FF0000"/>
</linearGradient>
<linearGradient id="paint61_linear" x1="607.173" y1="402.495" x2="608.663" y2="401.334" gradientUnits="userSpaceOnUse">
<stop offset="0.239583" stop-color="#007AFF"/>
<stop offset="0.519337" stop-color="white"/>
<stop offset="0.755208" stop-color="#007AFF"/>
</linearGradient>
<linearGradient id="paint62_linear" x1="634.884" y1="367.325" x2="633.394" y2="368.486" gradientUnits="userSpaceOnUse">
<stop offset="0.239583" stop-color="#007AFF"/>
<stop offset="0.519337" stop-color="white"/>
<stop offset="0.755208" stop-color="#007AFF"/>
</linearGradient>
<linearGradient id="paint63_linear" x1="638.47" y1="361.536" x2="636.98" y2="362.697" gradientUnits="userSpaceOnUse">
<stop offset="0.239583" stop-color="#FF0000"/>
<stop offset="0.519337" stop-color="white"/>
<stop offset="0.755208" stop-color="#FF0000"/>
</linearGradient>
<linearGradient id="paint64_linear" x1="643.032" y1="356.659" x2="641.542" y2="357.82" gradientUnits="userSpaceOnUse">
<stop offset="0.239583" stop-color="#007AFF"/>
<stop offset="0.519337" stop-color="white"/>
<stop offset="0.755208" stop-color="#007AFF"/>
</linearGradient>
<linearGradient id="paint65_linear" x1="646.618" y1="350.87" x2="645.128" y2="352.031" gradientUnits="userSpaceOnUse">
<stop offset="0.239583" stop-color="#FF0000"/>
<stop offset="0.519337" stop-color="white"/>
<stop offset="0.755208" stop-color="#FF0000"/>
</linearGradient>
<linearGradient id="paint66_linear" x1="651.179" y1="345.991" x2="649.689" y2="347.152" gradientUnits="userSpaceOnUse">
<stop offset="0.239583" stop-color="#007AFF"/>
<stop offset="0.519337" stop-color="white"/>
<stop offset="0.755208" stop-color="#007AFF"/>
</linearGradient>
<linearGradient id="paint67_linear" x1="655.74" y1="341.114" x2="654.25" y2="342.275" gradientUnits="userSpaceOnUse">
<stop offset="0.239583" stop-color="#FF0000"/>
<stop offset="0.519337" stop-color="white"/>
<stop offset="0.755208" stop-color="#FF0000"/>
</linearGradient>
<linearGradient id="paint68_linear" x1="660.27" y1="335.294" x2="658.78" y2="336.455" gradientUnits="userSpaceOnUse">
<stop offset="0.239583" stop-color="#007AFF"/>
<stop offset="0.519337" stop-color="white"/>
<stop offset="0.755208" stop-color="#007AFF"/>
</linearGradient>
<linearGradient id="paint69_linear" x1="663.888" y1="330.448" x2="662.397" y2="331.609" gradientUnits="userSpaceOnUse">
<stop offset="0.239583" stop-color="#FF0000"/>
<stop offset="0.519337" stop-color="white"/>
<stop offset="0.755208" stop-color="#FF0000"/>
</linearGradient>
<linearGradient id="paint70_linear" x1="666.593" y1="326.577" x2="665.103" y2="327.738" gradientUnits="userSpaceOnUse">
<stop offset="0.239583" stop-color="#007AFF"/>
<stop offset="0.519337" stop-color="white"/>
<stop offset="0.755208" stop-color="#007AFF"/>
</linearGradient>
</defs>
</svg>
