<svg width="1280" height="758" viewBox="0 0 1280 758" fill="none" xmlns="http://www.w3.org/2000/svg">
<g>
<text transform="translate(170,44)" font-size="36px" font-family="SF-Pro-Display" text-anchor="left" fill="#FFFFFF">Приточно-вытяжная установка № 1</text>
</g>
<path d="M141.477 511H1110L1077.31 545H110L141.477 511Z" fill="url(#paint0_linear)"/>
<rect x="143" y="443" width="967" height="68" fill="#848484"/>
<path d="M645 475.5L677 443V512L645 545V475.5Z" fill="#007AFF"/>
<path d="M677 443H687L655 475H645L677 443Z" fill="#A9A9A9"/>
<path d="M677 512H687L655 544.5H645L677 512Z" fill="#3592F7"/>
<path d="M655 475L687 443V512L655 545V475Z" fill="#848484"/>
<path d="M657 475L686 446V511L657 541V475Z" fill="#5C82B5"/>
<path d="M700.238 503.139C701.432 503.139 702.599 502.889 703.765 502.361C704.627 501.972 705.46 501.778 706.293 501.778C706.515 501.778 706.71 501.805 706.877 501.833C706.765 501.944 706.015 502.694 706.015 502.778C706.015 503.028 706.404 503.083 706.543 503.083C707.238 503.083 709.515 501.639 710.099 501.333C710.293 501.222 710.293 500.944 710.099 500.833C709.488 500.5 707.127 499.111 706.543 499.111C706.404 499.111 706.015 499.166 706.015 499.389C706.015 499.5 706.904 500.389 706.988 500.444C706.738 500.444 706.488 500.444 706.293 500.444C705.099 500.444 703.932 500.694 702.765 501.222C701.904 501.583 701.071 501.778 700.238 501.778C698.182 501.778 698.154 500.722 697.21 501.778C696.21 502.916 699.043 503.139 700.238 503.139ZM700.238 491.583C701.432 491.583 702.599 491.333 703.765 490.805C704.627 490.416 705.46 490.222 706.293 490.222C706.515 490.222 706.71 490.25 706.877 490.278C706.765 490.389 706.015 491.139 706.015 491.25C706.015 491.472 706.404 491.528 706.543 491.528C707.238 491.528 709.515 490.083 710.099 489.778C710.293 489.666 710.293 489.389 710.099 489.278C709.488 488.972 707.127 487.555 706.543 487.555C706.404 487.555 706.015 487.611 706.015 487.833C706.015 487.944 706.904 488.833 706.988 488.889C706.738 488.889 706.488 488.889 706.293 488.889C705.099 488.889 703.932 489.139 702.765 489.666C701.904 490.055 701.071 490.222 700.238 490.222C698.182 490.222 698.154 489.194 697.21 490.25C696.21 491.361 699.043 491.583 700.238 491.583ZM700.238 497.389C701.432 497.389 702.599 497.111 703.765 496.611C704.627 496.222 705.46 496.028 706.293 496.028C706.515 496.028 706.71 496.028 706.877 496.055C706.765 496.194 706.015 496.916 706.015 497.028C706.015 497.25 706.404 497.305 706.543 497.305C707.238 497.305 709.515 495.889 710.099 495.583C710.293 495.472 710.293 495.166 710.099 495.055C709.488 494.75 707.127 493.333 706.543 493.333C706.404 493.333 706.015 493.416 706.015 493.639C706.015 493.75 706.904 494.611 706.988 494.694C706.738 494.666 706.488 494.666 706.293 494.666C705.099 494.666 703.932 494.944 702.765 495.444C701.904 495.833 701.071 496.028 700.238 496.028C698.182 496.028 698.154 494.972 697.21 496.028C696.21 497.166 699.043 497.389 700.238 497.389Z" fill="#00BFFF"/>
<path d="M690.788 498.278C691.995 497.62 693.202 496.934 694.353 496.276C694.518 496.194 694.71 496.249 694.819 496.413L695.286 497.263C695.395 497.4 695.34 497.62 695.176 497.702L692.489 499.265L694.819 500.609C694.984 500.691 695.039 500.91 694.929 501.075L694.436 501.952C694.353 502.09 694.134 502.144 693.969 502.062L691.638 500.718V503.872C691.638 504.064 691.474 504.201 691.309 504.201H690.322C690.13 504.201 689.993 504.064 689.993 503.872C689.993 502.528 689.966 501.13 689.966 499.731L687.059 498.086C687.059 504.53 688.101 503.927 682.534 500.718V504.064C683.713 504.75 684.893 505.49 686.017 506.148C686.181 506.23 686.236 506.422 686.154 506.587L685.66 507.437C685.578 507.601 685.359 507.656 685.194 507.574L682.534 506.011V508.671C682.534 508.863 682.37 509 682.205 509H681.191C680.999 509 680.861 508.863 680.861 508.671V505.984L678.092 507.574C677.927 507.656 677.735 507.601 677.626 507.464L677.159 506.614C677.05 506.45 677.105 506.23 677.269 506.148C678.421 505.49 679.655 504.722 680.861 504.037V500.691C675.212 503.954 676.227 504.612 676.227 498.113L673.348 499.786C673.348 501.13 673.32 502.528 673.32 503.845C673.32 504.037 673.183 504.201 672.991 504.201H672.032C671.84 504.201 671.675 504.037 671.675 503.845C671.675 502.83 671.675 501.788 671.675 500.746L669.399 502.062C669.234 502.144 669.042 502.09 668.933 501.952L668.439 501.075C668.357 500.91 668.412 500.691 668.549 500.609L670.852 499.293L668.11 497.702C667.946 497.62 667.891 497.4 668 497.236L668.494 496.413C668.576 496.249 668.768 496.194 668.933 496.276C670.112 496.962 671.346 497.62 672.553 498.305L675.432 496.633C669.81 493.397 669.81 494.603 675.432 491.367L672.525 489.667C671.319 490.353 670.139 491.038 668.96 491.724C668.796 491.806 668.604 491.751 668.494 491.587L668.028 490.737C667.918 490.6 667.973 490.38 668.138 490.298C669.042 489.777 669.947 489.229 670.852 488.707L668.549 487.391C668.412 487.309 668.357 487.09 668.439 486.925L668.933 486.048C669.042 485.91 669.234 485.856 669.399 485.938L671.675 487.254V484.128C671.675 483.936 671.84 483.799 672.004 483.799H672.991C673.183 483.799 673.32 483.936 673.32 484.128C673.32 485.472 673.348 486.843 673.348 488.214L676.255 489.887C676.255 483.415 675.212 484.046 680.861 487.282V483.936C679.655 483.25 678.476 482.537 677.297 481.852C677.132 481.77 677.077 481.578 677.159 481.413L677.653 480.563C677.735 480.399 677.955 480.344 678.119 480.426C678.997 480.947 679.929 481.468 680.861 482.016V479.329C680.861 479.137 680.999 479 681.191 479H682.205C682.37 479 682.534 479.137 682.534 479.329V481.962C683.439 481.441 684.317 480.947 685.222 480.426C685.386 480.344 685.578 480.399 685.688 480.536L686.154 481.386C686.264 481.55 686.209 481.77 686.044 481.852C684.893 482.51 683.713 483.223 682.534 483.909V487.227C688.156 483.991 687.086 483.415 687.086 489.914L689.938 488.269C689.938 486.87 689.993 485.472 689.993 484.155C689.993 483.963 690.13 483.799 690.322 483.799H691.282C691.474 483.799 691.638 483.963 691.638 484.155C691.638 485.197 691.638 486.239 691.638 487.282L693.969 485.938C694.134 485.856 694.353 485.91 694.436 486.048L694.929 486.925C695.039 487.09 694.984 487.309 694.819 487.391L692.489 488.735C693.393 489.256 694.298 489.777 695.203 490.298C695.368 490.38 695.423 490.6 695.313 490.764L694.819 491.587C694.737 491.751 694.545 491.806 694.381 491.724C693.202 491.038 692.022 490.38 690.816 489.695L687.936 491.367C693.503 494.576 693.503 493.369 687.882 496.605L690.788 498.278ZM677.105 495.673L680.011 494L677.105 492.327L674.198 494L677.105 495.673ZM682.534 492.547L685.414 490.874V487.501L682.534 489.174V492.547ZM686.264 492.327L683.357 494L686.209 495.645L689.116 493.973L686.264 492.327ZM680.861 495.453L677.9 497.154V500.472L680.861 498.771V495.453ZM677.927 490.846L680.861 492.547V489.229L677.927 487.528V490.846ZM685.386 497.099L682.534 495.453V498.771L685.386 500.444V497.099Z" fill="#00BFFF"/>
<rect x="645" y="475" width="10" height="70" fill="#A1A1A1"/>
<path d="M610 494.089V561H616V494.089C614 493.97 612.5 493.97 610 494.089Z" fill="url(#paint1_linear)"/>
<path d="M651.579 487H617V493H651.579C654.598 490.967 655.009 489.463 651.579 487Z" fill="url(#paint2_linear)"/>
<path d="M616.224 487.037L616.001 493L614.668 487.037H616.224Z" fill="url(#paint3_linear)"/>
<path d="M614.668 487.037L616 493L611.558 487.811C612.671 487.073 613.305 486.916 614.668 487.037Z" fill="url(#paint4_linear)"/>
<path d="M610 494V493H616V494H610Z" fill="url(#paint5_linear)"/>
<path d="M617 493H616V487H617V493Z" fill="url(#paint6_linear)"/>
<path d="M610.003 493.227L616.001 493L610.003 491.679V493.227Z" fill="url(#paint7_linear)"/>
<path d="M610.002 491.679L616 493L611.557 487.811C610.231 488.727 609.976 489.645 610.002 491.679Z" fill="url(#paint8_linear)"/>
<path d="M651.661 533H637V539H651.661C654.12 536.852 655.376 535.974 651.661 533Z" fill="url(#paint9_linear)"/>
<path d="M636.223 533.037L636 539L634.667 533.037H636.223Z" fill="url(#paint10_linear)"/>
<path d="M634.667 533.037L635.999 539L631.557 533.811C632.67 533.073 633.304 532.916 634.667 533.037Z" fill="url(#paint11_linear)"/>
<path d="M630 540V539H636V540H630Z" fill="url(#paint12_linear)"/>
<path d="M637 539H636V533H637V539Z" fill="url(#paint13_linear)"/>
<path d="M630.002 539.227L636 539L630.002 537.679V539.227Z" fill="url(#paint14_linear)"/>
<path d="M630.002 537.679L636 539L631.557 533.811C630.231 534.727 629.976 535.645 630.002 537.679Z" fill="url(#paint15_linear)"/>
<path d="M630 540V694H636V540H630Z" fill="url(#paint16_linear)"/>
<path d="M510 475.5L542 443V512L510 545V475.5Z" fill="#007AFF"/>
<path d="M542 443H552L520 475H510L542 443Z" fill="#A9A9A9"/>
<path d="M542 512H552L520 544.5H510L542 512Z" fill="#3592F7"/>
<path d="M520 475L552 443V512L520 545V475Z" fill="#848484"/>
<path d="M522 475L551 446V511L522 541V475Z" fill="#BB5F5F"/>
<rect x="510" y="475" width="10" height="70" fill="#A1A1A1"/>
<path d="M568.238 503.139C569.432 503.139 570.599 502.889 571.765 502.361C572.627 501.972 573.46 501.778 574.293 501.778C574.515 501.778 574.71 501.805 574.877 501.833C574.765 501.944 574.015 502.694 574.015 502.778C574.015 503.028 574.404 503.083 574.543 503.083C575.238 503.083 577.515 501.639 578.099 501.333C578.293 501.222 578.293 500.944 578.099 500.833C577.488 500.5 575.127 499.111 574.543 499.111C574.404 499.111 574.015 499.166 574.015 499.389C574.015 499.5 574.904 500.389 574.988 500.444C574.738 500.444 574.488 500.444 574.293 500.444C573.099 500.444 571.932 500.694 570.765 501.222C569.904 501.583 569.071 501.778 568.238 501.778C566.182 501.778 566.154 500.722 565.21 501.778C564.21 502.916 567.043 503.139 568.238 503.139ZM568.238 491.583C569.432 491.583 570.599 491.333 571.765 490.805C572.627 490.416 573.46 490.222 574.293 490.222C574.515 490.222 574.71 490.25 574.877 490.278C574.765 490.389 574.015 491.139 574.015 491.25C574.015 491.472 574.404 491.528 574.543 491.528C575.238 491.528 577.515 490.083 578.099 489.778C578.293 489.666 578.293 489.389 578.099 489.278C577.488 488.972 575.127 487.555 574.543 487.555C574.404 487.555 574.015 487.611 574.015 487.833C574.015 487.944 574.904 488.833 574.988 488.889C574.738 488.889 574.488 488.889 574.293 488.889C573.099 488.889 571.932 489.139 570.765 489.666C569.904 490.055 569.071 490.222 568.238 490.222C566.182 490.222 566.154 489.194 565.21 490.25C564.21 491.361 567.043 491.583 568.238 491.583ZM568.238 497.389C569.432 497.389 570.599 497.111 571.765 496.611C572.627 496.222 573.46 496.028 574.293 496.028C574.515 496.028 574.71 496.028 574.877 496.055C574.765 496.194 574.015 496.916 574.015 497.028C574.015 497.25 574.404 497.305 574.543 497.305C575.238 497.305 577.515 495.889 578.099 495.583C578.293 495.472 578.293 495.166 578.099 495.055C577.488 494.75 575.127 493.333 574.543 493.333C574.404 493.333 574.015 493.416 574.015 493.639C574.015 493.75 574.904 494.611 574.988 494.694C574.738 494.666 574.488 494.666 574.293 494.666C573.099 494.666 571.932 494.944 570.765 495.444C569.904 495.833 569.071 496.028 568.238 496.028C566.182 496.028 566.154 494.972 565.21 496.028C564.21 497.166 567.043 497.389 568.238 497.389Z" fill="#00BFFF"/>
<path d="M557.082 496.402L562.992 495.518L557.259 494.668L566.035 490.952L556.339 492.014L561.045 488.298L555.666 490.422L561.399 482.813L553.543 488.581L555.772 482.99L552.163 487.52L553.331 478.071L549.402 486.989L548.518 481.079L547.668 486.812L543.952 478L545.014 487.697L541.298 482.99L543.422 488.369L535.813 482.636L541.581 490.492L535.99 488.263L540.52 491.873L531.071 490.705L539.989 494.633L534.079 495.518L539.812 496.367L531 500.083L540.697 499.021L535.99 502.737L541.369 500.614L535.636 508.222L543.492 502.454L541.263 508.045L544.873 503.516L543.74 512.965L547.668 504.047L548.553 509.957L549.402 504.223L553.118 513L552.057 503.303L555.772 508.01L553.649 502.631L561.258 508.364L555.489 500.508L561.081 502.737L556.551 499.127L566 500.295L557.082 496.402ZM548.518 503.728C543.988 503.728 540.307 500.048 540.307 495.518C540.307 490.988 543.988 487.307 548.518 487.307C553.047 487.307 556.728 490.988 556.728 495.518C556.728 500.048 553.047 503.728 548.518 503.728Z" fill="#00BFFF"/>
<path d="M556 495.5C556 499.642 552.642 503 548.5 503C544.358 503 541 499.642 541 495.5C541 491.358 544.358 488 548.5 488C552.642 488 556 491.358 556 495.5Z" fill="#00BFFF"/>
<path d="M475 494.116V581H481V494.116C479 493.961 477.5 493.961 475 494.116Z" fill="url(#paint17_linear)"/>
<path d="M516.579 487H482V493H516.579C519.598 490.967 520.009 489.463 516.579 487Z" fill="url(#paint18_linear)"/>
<path d="M481.224 487.037L481.001 493L479.668 487.037H481.224Z" fill="url(#paint19_linear)"/>
<path d="M479.668 487.037L481 493L476.558 487.811C477.671 487.073 478.305 486.916 479.668 487.037Z" fill="url(#paint20_linear)"/>
<path d="M475 494V493H481V494H475Z" fill="url(#paint21_linear)"/>
<path d="M482 493H481V487H482V493Z" fill="url(#paint22_linear)"/>
<path d="M475.003 493.227L481.001 493L475.003 491.679V493.227Z" fill="url(#paint23_linear)"/>
<path d="M475.002 491.679L481 493L476.557 487.811C475.231 488.727 474.976 489.645 475.002 491.679Z" fill="url(#paint24_linear)"/>
<path d="M516.661 533H502V539H516.661C519.12 536.852 520.376 535.974 516.661 533Z" fill="url(#paint25_linear)"/>
<path d="M501.223 533.037L501 539L499.667 533.037H501.223Z" fill="url(#paint26_linear)"/>
<path d="M499.667 533.037L500.999 539L496.557 533.811C497.67 533.073 498.304 532.916 499.667 533.037Z" fill="url(#paint27_linear)"/>
<path d="M495 540V539H501V540H495Z" fill="url(#paint28_linear)"/>
<path d="M502 539H501V533H502V539Z" fill="url(#paint29_linear)"/>
<path d="M495.002 539.227L501 539L495.002 537.679V539.227Z" fill="url(#paint30_linear)"/>
<path d="M495.002 537.679L501 539L496.557 533.811C495.231 534.727 494.976 535.645 495.002 537.679Z" fill="url(#paint31_linear)"/>
<path d="M459 674V694H467V674H459Z" fill="url(#paint32_linear)"/>
<path d="M593 674V694H601V674H593Z" fill="url(#paint33_linear)"/>
<path d="M495 540V694H501V540H495Z" fill="url(#paint34_linear)"/>
<path d="M996 456V485H999V456H996Z" fill="url(#paint35_linear)"/>
<path d="M895.183 476.83L895.198 476.845H895.218H915.645C917.546 476.845 919.141 478.366 919.141 480.264V541.859C919.141 542.847 918.755 543.582 918.133 544.072C917.51 544.562 916.647 544.809 915.691 544.809H904.191H893.191C887.977 544.81 883.688 544.809 878.86 544.809C875.355 544.809 871.565 544.809 866.929 544.809C855.92 544.809 845.989 540.344 838.752 533.107C831.515 525.87 827.05 515.939 827.05 504.93C827.05 493.921 831.515 483.913 838.752 476.753L838.752 476.753C845.989 469.516 855.92 465.051 866.929 465.051C877.938 465.051 887.946 469.516 895.106 476.753L895.106 476.753L895.183 476.83ZM892.248 479.612L892.247 479.611C885.763 473.205 876.809 469.191 866.929 469.191C857.049 469.191 848.094 473.205 841.687 479.612C835.204 486.096 831.19 495.05 831.19 504.93C831.19 514.81 835.203 523.765 841.687 530.172C848.094 536.656 857.049 540.67 866.929 540.67C876.809 540.67 885.764 536.656 892.248 530.172C898.654 523.765 902.668 514.811 902.668 504.93C902.668 495.05 898.654 486.096 892.248 479.612Z" fill="url(#paint36_linear)" stroke="#848484" stroke-width="0.1"/>
<circle cx="867.191" cy="504.859" r="36" transform="rotate(-180 867.191 504.859)" fill="#808080"/>
<path d="M908.123 437V424.317H898.464V437H899.668V425.416H906.937V437H908.123ZM913.669 437H914.829V424.317H913.651C913.273 424.546 910.584 426.444 910.232 426.664V427.947C910.602 427.719 913.353 425.785 913.634 425.609H913.669V437Z" fill="#FF9500"/>
<path d="M238 475.5L270 443V512L238 545V475.5Z" fill="#007AFF"/>
<path d="M270 443H280L248 475H238L270 443Z" fill="#A9A9A9"/>
<path d="M270 512H280L248 544.5H238L270 512Z" fill="#3592F7"/>
<path d="M248 475L280 443V512L248 545V475Z" fill="#848484"/>
<path d="M250 475L279 446V511L250 541V475Z" fill="#C0A57F"/>
<rect x="238" y="475" width="10" height="70" fill="#A1A1A1"/>
<path d="M275.155 480.278C274.849 489.306 274.849 498.361 275.155 507.389C275.155 507.75 276.099 508.278 276.127 507.917C276.433 498.528 276.433 489.139 276.127 479.75C276.099 479.389 275.155 479.917 275.155 480.278ZM263.738 478.833C263.738 477.278 264.877 478.528 266.349 479.333C269.683 477.556 267.155 477.556 270.488 479.333C273.794 477.556 271.294 477.556 274.599 479.333C276.072 478.528 277.211 477.278 277.211 478.833C277.211 488.833 277.488 498.833 277.211 508.833C277.183 510.056 274.988 508.556 274.599 508.333C271.183 510.167 273.905 510.167 270.488 508.333C267.072 510.167 269.766 510.167 266.349 508.333C264.461 509.361 263.738 510.583 263.738 508.833V478.833ZM265.794 480.278C265.794 479.917 264.849 479.389 264.849 479.75C264.516 489.139 264.516 498.528 264.849 507.917C264.849 508.278 265.794 507.75 265.794 507.389C266.127 498.361 266.127 489.306 265.794 480.278ZM267.849 507.917C268.183 498.528 268.183 489.139 267.849 479.75C267.849 479.389 266.905 479.917 266.905 480.278C266.572 489.306 266.599 498.361 266.905 507.389C266.905 507.75 267.849 508.278 267.849 507.917ZM269.933 480.278C269.905 479.917 268.988 479.389 268.961 479.75C268.627 489.139 268.627 498.528 268.961 507.917C268.988 508.278 269.905 507.75 269.933 507.389C270.238 498.361 270.238 489.306 269.933 480.278ZM271.988 507.917C272.322 498.528 272.322 489.139 271.988 479.75C271.988 479.389 271.044 479.917 271.016 480.278C270.711 489.306 270.711 498.361 271.016 507.389C271.044 507.75 271.988 508.278 271.988 507.917ZM274.044 480.278C274.044 479.917 273.099 479.389 273.099 479.75C272.766 489.139 272.766 498.528 273.099 507.917C273.099 508.278 274.044 507.75 274.044 507.389C274.377 498.361 274.377 489.306 274.044 480.278Z" fill="#00BFFF"/>
<path d="M282.238 502.139C283.432 502.139 284.599 501.889 285.765 501.361C286.627 500.972 287.46 500.778 288.293 500.778C288.515 500.778 288.71 500.805 288.877 500.833C288.765 500.944 288.015 501.694 288.015 501.778C288.015 502.028 288.404 502.083 288.543 502.083C289.238 502.083 291.515 500.639 292.099 500.333C292.293 500.222 292.293 499.944 292.099 499.833C291.488 499.5 289.127 498.111 288.543 498.111C288.404 498.111 288.015 498.166 288.015 498.389C288.015 498.5 288.904 499.389 288.988 499.444C288.738 499.444 288.488 499.444 288.293 499.444C287.099 499.444 285.932 499.694 284.765 500.222C283.904 500.583 283.071 500.778 282.238 500.778C280.182 500.778 280.154 499.722 279.21 500.778C278.21 501.916 281.043 502.139 282.238 502.139ZM282.238 490.583C283.432 490.583 284.599 490.333 285.765 489.805C286.627 489.416 287.46 489.222 288.293 489.222C288.515 489.222 288.71 489.25 288.877 489.278C288.765 489.389 288.015 490.139 288.015 490.25C288.015 490.472 288.404 490.528 288.543 490.528C289.238 490.528 291.515 489.083 292.099 488.778C292.293 488.666 292.293 488.389 292.099 488.278C291.488 487.972 289.127 486.555 288.543 486.555C288.404 486.555 288.015 486.611 288.015 486.833C288.015 486.944 288.904 487.833 288.988 487.889C288.738 487.889 288.488 487.889 288.293 487.889C287.099 487.889 285.932 488.139 284.765 488.666C283.904 489.055 283.071 489.222 282.238 489.222C280.182 489.222 280.154 488.194 279.21 489.25C278.21 490.361 281.043 490.583 282.238 490.583ZM282.238 496.389C283.432 496.389 284.599 496.111 285.765 495.611C286.627 495.222 287.46 495.028 288.293 495.028C288.515 495.028 288.71 495.028 288.877 495.055C288.765 495.194 288.015 495.916 288.015 496.028C288.015 496.25 288.404 496.305 288.543 496.305C289.238 496.305 291.515 494.889 292.099 494.583C292.293 494.472 292.293 494.166 292.099 494.055C291.488 493.75 289.127 492.333 288.543 492.333C288.404 492.333 288.015 492.416 288.015 492.639C288.015 492.75 288.904 493.611 288.988 493.694C288.738 493.666 288.488 493.666 288.293 493.666C287.099 493.666 285.932 493.944 284.765 494.444C283.904 494.833 283.071 495.028 282.238 495.028C280.182 495.028 280.154 493.972 279.21 495.028C278.21 496.166 281.043 496.389 282.238 496.389Z" fill="#00BFFF"/>
<path d="M265.849 434.715C263.106 434.662 261.384 433.089 261.384 430.628C261.384 428.185 263.098 426.603 265.849 426.541V434.715ZM271.491 430.628C271.491 433.071 269.769 434.653 267.035 434.715V426.541C269.769 426.594 271.491 428.176 271.491 430.628ZM265.849 435.796V437.149H267.035V435.796C270.516 435.734 272.704 433.739 272.704 430.628C272.704 427.508 270.516 425.513 267.035 425.46V424.168H265.849V425.46C262.351 425.53 260.171 427.517 260.171 430.628C260.171 433.748 262.359 435.743 265.849 435.796ZM274.4 427.868V427.877H275.561V427.868C275.578 426.321 276.8 425.17 278.426 425.17C279.981 425.17 281.212 426.26 281.212 427.648C281.212 428.756 280.755 429.512 278.944 431.419L274.462 436.156V437H282.732V435.928H276.141V435.893L279.674 432.201C281.783 430.013 282.407 428.967 282.407 427.578C282.407 425.636 280.676 424.115 278.461 424.115C276.141 424.115 274.418 425.706 274.4 427.868Z" fill="#FF9500"/>
<path d="M764 476.5L796 444V513L764 546V476.5Z" fill="#007AFF"/>
<path d="M796 444H806L774 476H764L796 444Z" fill="#A9A9A9"/>
<path d="M796 513H806L774 545.5H764L796 513Z" fill="#3592F7"/>
<path d="M774 476L806 444V513L774 546V476Z" fill="#848484"/>
<path d="M776 476L805 447V512L776 542V476Z" fill="#C0A57F"/>
<rect x="764" y="476" width="10" height="70" fill="#A1A1A1"/>
<path d="M801.155 481.278C800.849 490.306 800.849 499.361 801.155 508.389C801.155 508.75 802.099 509.278 802.127 508.917C802.433 499.528 802.433 490.139 802.127 480.75C802.099 480.389 801.155 480.917 801.155 481.278ZM789.738 479.833C789.738 478.278 790.877 479.528 792.349 480.333C795.683 478.556 793.155 478.556 796.488 480.333C799.794 478.556 797.294 478.556 800.599 480.333C802.072 479.528 803.211 478.278 803.211 479.833C803.211 489.833 803.488 499.833 803.211 509.833C803.183 511.056 800.988 509.556 800.599 509.333C797.183 511.167 799.905 511.167 796.488 509.333C793.072 511.167 795.766 511.167 792.349 509.333C790.461 510.361 789.738 511.583 789.738 509.833V479.833ZM791.794 481.278C791.794 480.917 790.849 480.389 790.849 480.75C790.516 490.139 790.516 499.528 790.849 508.917C790.849 509.278 791.794 508.75 791.794 508.389C792.127 499.361 792.127 490.306 791.794 481.278ZM793.849 508.917C794.183 499.528 794.183 490.139 793.849 480.75C793.849 480.389 792.905 480.917 792.905 481.278C792.572 490.306 792.599 499.361 792.905 508.389C792.905 508.75 793.849 509.278 793.849 508.917ZM795.933 481.278C795.905 480.917 794.988 480.389 794.961 480.75C794.627 490.139 794.627 499.528 794.961 508.917C794.988 509.278 795.905 508.75 795.933 508.389C796.238 499.361 796.238 490.306 795.933 481.278ZM797.988 508.917C798.322 499.528 798.322 490.139 797.988 480.75C797.988 480.389 797.044 480.917 797.016 481.278C796.711 490.306 796.711 499.361 797.016 508.389C797.044 508.75 797.988 509.278 797.988 508.917ZM800.044 481.278C800.044 480.917 799.099 480.389 799.099 480.75C798.766 490.139 798.766 499.528 799.099 508.917C799.099 509.278 800.044 508.75 800.044 508.389C800.377 499.361 800.377 490.306 800.044 481.278Z" fill="#00BFFF"/>
<path d="M808.238 503.139C809.432 503.139 810.599 502.889 811.765 502.361C812.627 501.972 813.46 501.778 814.293 501.778C814.515 501.778 814.71 501.805 814.877 501.833C814.765 501.944 814.015 502.694 814.015 502.778C814.015 503.028 814.404 503.083 814.543 503.083C815.238 503.083 817.515 501.639 818.099 501.333C818.293 501.222 818.293 500.944 818.099 500.833C817.488 500.5 815.127 499.111 814.543 499.111C814.404 499.111 814.015 499.166 814.015 499.389C814.015 499.5 814.904 500.389 814.988 500.444C814.738 500.444 814.488 500.444 814.293 500.444C813.099 500.444 811.932 500.694 810.765 501.222C809.904 501.583 809.071 501.778 808.238 501.778C806.182 501.778 806.154 500.722 805.21 501.778C804.21 502.916 807.043 503.139 808.238 503.139ZM808.238 491.583C809.432 491.583 810.599 491.333 811.765 490.805C812.627 490.416 813.46 490.222 814.293 490.222C814.515 490.222 814.71 490.25 814.877 490.278C814.765 490.389 814.015 491.139 814.015 491.25C814.015 491.472 814.404 491.528 814.543 491.528C815.238 491.528 817.515 490.083 818.099 489.778C818.293 489.666 818.293 489.389 818.099 489.278C817.488 488.972 815.127 487.555 814.543 487.555C814.404 487.555 814.015 487.611 814.015 487.833C814.015 487.944 814.904 488.833 814.988 488.889C814.738 488.889 814.488 488.889 814.293 488.889C813.099 488.889 811.932 489.139 810.765 489.666C809.904 490.055 809.071 490.222 808.238 490.222C806.182 490.222 806.154 489.194 805.21 490.25C804.21 491.361 807.043 491.583 808.238 491.583ZM808.238 497.389C809.432 497.389 810.599 497.111 811.765 496.611C812.627 496.222 813.46 496.028 814.293 496.028C814.515 496.028 814.71 496.028 814.877 496.055C814.765 496.194 814.015 496.916 814.015 497.028C814.015 497.25 814.404 497.305 814.543 497.305C815.238 497.305 817.515 495.889 818.099 495.583C818.293 495.472 818.293 495.166 818.099 495.055C817.488 494.75 815.127 493.333 814.543 493.333C814.404 493.333 814.015 493.416 814.015 493.639C814.015 493.75 814.904 494.611 814.988 494.694C814.738 494.666 814.488 494.666 814.293 494.666C813.099 494.666 811.932 494.944 810.765 495.444C809.904 495.833 809.071 496.028 808.238 496.028C806.182 496.028 806.154 494.972 805.21 496.028C804.21 497.166 807.043 497.389 808.238 497.389Z" fill="#00BFFF"/>
<path d="M793.114 435.715V427.541C791.743 427.57 790.656 427.954 789.854 428.692C789.051 429.425 788.649 430.403 788.649 431.628C788.649 432.858 789.051 433.84 789.854 434.572C790.656 435.305 791.743 435.686 793.114 435.715ZM797.553 434.572C798.355 433.834 798.757 432.853 798.757 431.628C798.757 430.403 798.355 429.422 797.553 428.684C796.75 427.945 795.666 427.564 794.301 427.541V435.715C795.666 435.686 796.75 435.305 797.553 434.572ZM793.114 436.796C791.368 436.772 789.985 436.295 788.966 435.363C787.946 434.432 787.437 433.187 787.437 431.628C787.437 430.069 787.946 428.827 788.966 427.901C789.985 426.976 791.368 426.495 793.114 426.46V425.168H794.301V426.46C796.041 426.483 797.421 426.961 798.44 427.893C799.46 428.824 799.97 430.069 799.97 431.628C799.97 433.187 799.46 434.432 798.44 435.363C797.421 436.289 796.041 436.767 794.301 436.796V438.149H793.114V436.796ZM804.918 438V426.609H804.883C804.801 426.662 804.247 427.046 803.222 427.761C802.196 428.47 801.616 428.865 801.481 428.947V427.664C801.587 427.6 802.149 427.213 803.169 426.504C804.188 425.795 804.766 425.399 804.9 425.317H806.078V438H804.918Z" fill="#FF9500"/>
<rect x="181" y="443" width="5" height="68" fill="#A9C7C9"/>
<rect x="173" y="443" width="5" height="68" fill="#A9C7C9"/>
<path d="M173 443H178L147 475H142L173 443Z" fill="#C4C4C4"/>
<path d="M181 443H186L155 475H150L181 443Z" fill="#C4C4C4"/>
<path d="M173 504H186L155 536H142L173 504Z" fill="url(#paint37_linear)"/>
<path d="M173 472H186L155 504H142L173 472Z" fill="url(#paint38_linear)"/>
<path d="M173 488H186L155 520H142L173 488Z" fill="url(#paint39_linear)"/>
<path d="M173 456H186L155 488H142L173 456Z" fill="url(#paint40_linear)"/>
<rect x="142" y="504" width="13" height="1" fill="#BEBEBE"/>
<rect x="142" y="488" width="13" height="1" fill="#BEBEBE"/>
<rect x="142" y="536" width="13" height="1" fill="#BEBEBE"/>
<rect x="142" y="520" width="13" height="1" fill="#BEBEBE"/>
<rect x="150" y="475" width="5" height="70" fill="#CFE2E9"/>
<rect x="142" y="475" width="5" height="70" fill="#CFE2E9"/>
<circle cx="144.5" cy="488.5" r="1.5" fill="#C4C4C4"/>
<circle cx="152.5" cy="488.5" r="1.5" fill="#C4C4C4"/>
<circle cx="144.5" cy="504.5" r="1.5" fill="#C4C4C4"/>
<circle cx="152.5" cy="504.5" r="1.5" fill="#C4C4C4"/>
<circle cx="144.5" cy="536.5" r="1.5" fill="#C4C4C4"/>
<circle cx="152.5" cy="536.5" r="1.5" fill="#C4C4C4"/>
<circle cx="144.5" cy="520.5" r="1.5" fill="#C4C4C4"/>
<circle cx="152.5" cy="520.5" r="1.5" fill="#C4C4C4"/>
<path d="M155.168 508.377H142V513.644H155.168V508.377Z" fill="#1E90FF"/>
<path d="M149.901 507.061H147.267C144.358 507.061 142 507.65 142 508.377C142 509.105 144.358 509.694 147.267 509.694H149.901C152.81 509.694 155.168 509.105 155.168 508.377C155.168 507.65 152.81 507.061 149.901 507.061Z" fill="#007AFF"/>
<path d="M155.168 497.844H142V508.378H155.168V497.844Z" fill="#007AFF"/>
<path d="M148.711 507.06C147.184 507.06 145.945 507.65 145.945 508.377H151.476C151.476 507.65 150.238 507.06 148.711 507.06Z" fill="#007AFF"/>
<path d="M149.901 496.527H147.267C144.358 496.527 142 497.117 142 497.844C142 498.571 144.358 499.161 147.267 499.161H149.901C152.81 499.161 155.168 498.571 155.168 497.844C155.168 497.117 152.81 496.527 149.901 496.527Z" fill="#007AFF"/>
<path d="M149.901 512.326H147.267C144.358 512.326 142 512.916 142 513.643C142 514.37 144.358 514.96 147.267 514.96H149.901C152.81 514.96 155.168 514.37 155.168 513.643C155.168 512.916 152.81 512.326 149.901 512.326Z" fill="#1E90FF"/>
<path d="M148.586 513.377C150.041 513.377 151.22 512.198 151.22 510.743C151.22 509.288 150.041 508.109 148.586 508.109C147.132 508.109 145.953 509.288 145.953 510.743C145.953 512.198 147.132 513.377 148.586 513.377Z" fill="#808080"/>
<path d="M148.59 504.952C148.881 504.952 149.116 504.716 149.116 504.425C149.116 504.134 148.881 503.898 148.59 503.898C148.299 503.898 148.063 504.134 148.063 504.425C148.063 504.716 148.299 504.952 148.59 504.952Z" fill="url(#paint41_linear)"/>
<path d="M148.59 504.952C148.881 504.952 149.116 504.716 149.116 504.425C149.116 504.134 148.881 503.898 148.59 503.898C148.299 503.898 148.063 504.134 148.063 504.425C148.063 504.716 148.299 504.952 148.59 504.952Z" fill="url(#paint42_linear)"/>
<path d="M143.849 513.383C144.285 513.383 144.639 513.029 144.639 512.593C144.639 512.156 144.285 511.803 143.849 511.803C143.412 511.803 143.059 512.156 143.059 512.593C143.059 513.029 143.412 513.383 143.849 513.383Z" fill="url(#paint43_linear)"/>
<path d="M143.849 513.383C144.285 513.383 144.639 513.029 144.639 512.593C144.639 512.156 144.285 511.803 143.849 511.803C143.412 511.803 143.059 512.156 143.059 512.593C143.059 513.029 143.412 513.383 143.849 513.383Z" fill="url(#paint44_linear)"/>
<path d="M153.328 513.383C153.765 513.383 154.118 513.029 154.118 512.593C154.118 512.156 153.765 511.803 153.328 511.803C152.892 511.803 152.538 512.156 152.538 512.593C152.538 513.029 152.892 513.383 153.328 513.383Z" fill="url(#paint45_linear)"/>
<path d="M153.328 513.383C153.765 513.383 154.118 513.029 154.118 512.593C154.118 512.156 153.765 511.803 153.328 511.803C152.892 511.803 152.538 512.156 152.538 512.593C152.538 513.029 152.892 513.383 153.328 513.383Z" fill="url(#paint46_linear)"/>
<path d="M170.643 431.015H172.321C174.457 431.015 175.635 431.955 175.635 433.546C175.635 435.084 174.352 436.183 172.427 436.183C170.555 436.183 169.219 435.163 169.087 433.757H167.927C168.041 435.796 169.852 437.264 172.427 437.264C175.002 437.264 176.865 435.655 176.865 433.572C176.865 431.823 175.775 430.61 173.956 430.417V430.355C175.477 430.013 176.452 428.835 176.452 427.385C176.452 425.478 174.826 424.054 172.471 424.054C170.054 424.054 168.463 425.407 168.287 427.481H169.456C169.614 426.058 170.739 425.126 172.427 425.126C174.158 425.126 175.239 426.102 175.239 427.481C175.239 428.932 174.062 429.942 172.269 429.942H170.643V431.015ZM188.414 437V424.317H178.755V437H179.959V425.416H187.228V437H188.414Z" fill="#FF9500"/>
<path fill-rule="evenodd" clip-rule="evenodd" d="M453 475L487 443L1110 443L1077.31 475H110L141.477 443L419 443L385 475H453Z" fill="white" fill-opacity="0.5"/>
<rect x="836" y="450" width="4" height="3" fill="white"/>
<rect x="837" y="446" width="2" height="4" fill="white"/>
<rect x="756" y="451" width="4" height="3" fill="white"/>
<rect x="757" y="447" width="2" height="4" fill="white"/>
<path d="M783 413.129H813V407.042H783V413.129Z" fill="url(#paint47_linear)"/>
<path d="M787.005 413.187V408C787.005 405.791 788.796 404 791.005 404H805.005C807.214 404 809.005 405.791 809.005 408V413.187C809.005 415.396 807.214 417.187 805.005 417.187H791.005C788.796 417.187 787.005 415.396 787.005 413.187Z" fill="#2F80ED"/>
<path d="M810 417.188H812V404H810V417.188Z" fill="#2F80ED"/>
<path d="M784 417.188H786V404H784V417.188Z" fill="#2F80ED"/>
<path fill-rule="evenodd" clip-rule="evenodd" d="M793.005 413.709V415.426H794.236H794.302V416.174H794.83H795.798V415.426H799.888V416.174H800.856H801.384V415.426H802.681V413.709H801.384V412.961H799.888V413.709H799.251V413.095C800.834 412.504 801.956 410.965 801.956 409.158C801.956 406.86 800.108 404.975 797.843 404.975C795.567 404.975 793.72 406.86 793.72 409.158C793.72 410.965 794.841 412.504 796.425 413.095V413.709H795.798V412.961H794.302V413.709H794.236H793.005ZM798.316 412.091H797.359H797.348C797.227 412.08 797.128 411.98 797.128 411.857C797.128 411.734 797.227 411.623 797.359 411.623H798.316C798.448 411.623 798.547 411.734 798.547 411.857C798.547 411.98 798.448 412.08 798.327 412.091H798.316ZM798.36 409.37C798.25 409.66 797.92 409.805 797.634 409.682C797.337 409.57 797.205 409.236 797.315 408.946C797.381 408.79 797.513 408.667 797.667 408.622C798.789 406.414 799.009 406.503 798.327 408.89C798.404 409.035 798.426 409.213 798.36 409.37ZM796.139 410.887C796.227 410.976 796.227 411.121 796.139 411.21L795.611 411.746C795.523 411.835 795.369 411.835 795.281 411.746C793.874 410.318 793.874 407.998 795.281 406.57C796.689 405.142 798.987 405.142 800.394 406.57C801.802 407.998 801.802 410.318 800.394 411.746C800.35 411.79 800.284 411.812 800.229 411.812C800.174 411.812 800.119 411.79 800.075 411.746L799.537 411.21C799.449 411.121 799.449 410.976 799.537 410.887C799.624 410.797 799.767 410.797 799.866 410.887L800.229 411.255C800.68 410.719 800.933 410.061 800.988 409.392H800.493C800.372 409.392 800.273 409.292 800.273 409.158C800.273 409.035 800.372 408.935 800.493 408.935H800.988C800.933 408.265 800.68 407.607 800.229 407.061L799.866 407.429C799.822 407.473 799.756 407.496 799.701 407.496C799.646 407.496 799.58 407.473 799.537 407.429C799.449 407.339 799.449 407.194 799.537 407.105L799.899 406.737C799.372 406.269 798.723 406.012 798.063 405.967V406.469C798.063 406.592 797.964 406.693 797.843 406.693C797.711 406.693 797.612 406.592 797.612 406.469V405.967C796.952 406.012 796.304 406.269 795.776 406.737L796.139 407.105C796.227 407.194 796.227 407.339 796.139 407.429C796.095 407.473 796.029 407.496 795.974 407.496C795.919 407.496 795.864 407.473 795.82 407.429L795.457 407.061C794.995 407.607 794.742 408.265 794.687 408.935H795.182C795.303 408.935 795.402 409.035 795.402 409.158C795.402 409.292 795.303 409.392 795.182 409.392H794.687C794.742 410.061 794.995 410.719 795.457 411.255L795.82 410.887C795.908 410.797 796.051 410.797 796.139 410.887Z" fill="white"/>
<path d="M760 454L760 413L756 413L756 454L760 454Z" fill="url(#paint48_linear)"/>
<path d="M840 453L840 413L836 413L836 453L840 453Z" fill="url(#paint49_linear)"/>
<path d="M761 412L783 412L783 408L761 408L761 412Z" fill="url(#paint50_linear)"/>
<path d="M813 412L835 412L835 408L813 408L813 412Z" fill="url(#paint51_linear)"/>
<path d="M756.026 412.51L760.286 412.349L756.026 411.383V412.51Z" fill="url(#paint52_linear)"/>
<path d="M756.026 411.382L760.286 412.348L756.579 409.129C756.052 409.936 755.94 410.395 756.026 411.382Z" fill="url(#paint53_linear)"/>
<path d="M761 408H760.286V412.347H761V408Z" fill="url(#paint54_linear)"/>
<path d="M760.286 413.072V412.348H756V413.072H760.286Z" fill="url(#paint55_linear)"/>
<path d="M760.447 408.002L760.285 412.348L759.342 408.002H760.447Z" fill="url(#paint56_linear)"/>
<path d="M759.342 408.001L760.286 412.347L756.579 409.128C757.233 408.167 757.889 407.982 759.342 408.001Z" fill="url(#paint57_linear)"/>
<path d="M835.563 408.027L835.724 412.287L836.69 408.027L835.563 408.027Z" fill="url(#paint58_linear)"/>
<path d="M836.69 408.026L835.725 412.286L838.944 408.579C838.136 408.052 837.678 407.94 836.69 408.026Z" fill="url(#paint59_linear)"/>
<path d="M840.072 412.999L840.072 412.285L835.725 412.285L835.725 412.999L840.072 412.999Z" fill="url(#paint60_linear)"/>
<path d="M835 412.285L835.725 412.285L835.725 407.999L835 407.999L835 412.285Z" fill="url(#paint61_linear)"/>
<path d="M840.071 412.447L835.724 412.285L840.071 411.342L840.071 412.447Z" fill="url(#paint62_linear)"/>
<path d="M840.071 411.342L835.724 412.285L838.944 408.579C839.904 409.233 840.089 409.889 840.071 411.342Z" fill="url(#paint63_linear)"/>
<rect x="754" y="454" width="8" height="2" rx="1" fill="white"/>
<rect x="834" y="453" width="8" height="2" rx="1" fill="white"/>
<path d="M385 346L419 313V443L385 475V346Z" fill="url(#paint64_linear)"/>
<rect x="419" y="313" width="68" height="130" fill="#848484"/>
<path d="M470 406H441V409H470V406Z" fill="url(#paint65_linear)"/>
<rect width="5" height="68" transform="matrix(0 -1 -1 0 487 359)" fill="#A9C7C9"/>
<rect width="5" height="68" transform="matrix(0 -1 -1 0 487 367)" fill="#A9C7C9"/>
<path d="M487 367V362L455 393V398L487 367Z" fill="#C4C4C4"/>
<path d="M487 359V354L455 385V390L487 359Z" fill="#C4C4C4"/>
<path d="M426 367V354L394 385V398L426 367Z" fill="url(#paint66_linear)"/>
<path d="M458 367V354L426 385V398L458 367Z" fill="url(#paint67_linear)"/>
<path d="M442 367V354L410 385V398L442 367Z" fill="url(#paint68_linear)"/>
<path d="M474 367V354L442 385V398L474 367Z" fill="url(#paint69_linear)"/>
<rect width="13" height="1" transform="matrix(0 -1 -1 0 426 398)" fill="#BEBEBE"/>
<rect width="13" height="1" transform="matrix(0 -1 -1 0 442 398)" fill="#BEBEBE"/>
<rect width="13" height="1" transform="matrix(0 -1 -1 0 394 398)" fill="#BEBEBE"/>
<rect width="13" height="1" transform="matrix(0 -1 -1 0 410 398)" fill="#BEBEBE"/>
<rect width="5" height="70" transform="matrix(0 -1 -1 0 455 390)" fill="#CFE2E9"/>
<rect width="5" height="70" transform="matrix(0 -1 -1 0 455 398)" fill="#CFE2E9"/>
<circle r="1.5" transform="matrix(0 -1 -1 0 441.5 395.5)" fill="#C4C4C4"/>
<circle r="1.5" transform="matrix(0 -1 -1 0 441.5 387.5)" fill="#C4C4C4"/>
<circle r="1.5" transform="matrix(0 -1 -1 0 425.5 395.5)" fill="#C4C4C4"/>
<circle r="1.5" transform="matrix(0 -1 -1 0 425.5 387.5)" fill="#C4C4C4"/>
<circle r="1.5" transform="matrix(0 -1 -1 0 393.5 395.5)" fill="#C4C4C4"/>
<circle r="1.5" transform="matrix(0 -1 -1 0 393.5 387.5)" fill="#C4C4C4"/>
<circle r="1.5" transform="matrix(0 -1 -1 0 409.5 395.5)" fill="#C4C4C4"/>
<circle r="1.5" transform="matrix(0 -1 -1 0 409.5 387.5)" fill="#C4C4C4"/>
<path d="M421.622 384.832V398H416.355V384.832H421.622Z" fill="#1E90FF"/>
<path d="M422.939 390.099V392.733C422.939 395.642 422.35 398 421.623 398C420.895 398 420.306 395.642 420.306 392.733V390.099C420.306 387.19 420.895 384.832 421.623 384.832C422.35 384.832 422.939 387.19 422.939 390.099Z" fill="#007AFF"/>
<path d="M432.157 384.832V398H421.622V384.832H432.157Z" fill="#007AFF"/>
<path d="M422.939 391.289C422.939 392.816 422.349 394.054 421.622 394.054V388.523C422.349 388.523 422.939 389.762 422.939 391.289Z" fill="#007AFF"/>
<path d="M433.472 390.099V392.733C433.472 395.642 432.883 398 432.155 398C431.428 398 430.839 395.642 430.839 392.733V390.099C430.839 387.19 431.428 384.832 432.155 384.832C432.883 384.832 433.472 387.19 433.472 390.099Z" fill="#007AFF"/>
<path d="M417.673 390.099V392.733C417.673 395.642 417.084 398 416.357 398C415.629 398 415.04 395.642 415.04 392.733V390.099C415.04 387.19 415.629 384.832 416.357 384.832C417.084 384.832 417.673 387.19 417.673 390.099Z" fill="#1E90FF"/>
<path d="M416.623 391.413C416.623 389.959 417.802 388.78 419.257 388.78C420.711 388.78 421.89 389.959 421.89 391.413C421.89 392.868 420.711 394.047 419.257 394.047C417.802 394.047 416.623 392.868 416.623 391.413Z" fill="#808080"/>
<path d="M425.048 391.411C425.048 391.12 425.283 390.884 425.574 390.884C425.865 390.884 426.101 391.12 426.101 391.411C426.101 391.702 425.865 391.938 425.574 391.938C425.283 391.938 425.048 391.702 425.048 391.411Z" fill="url(#paint70_linear)"/>
<path d="M425.048 391.411C425.048 391.12 425.283 390.884 425.574 390.884C425.865 390.884 426.101 391.12 426.101 391.411C426.101 391.702 425.865 391.938 425.574 391.938C425.283 391.938 425.048 391.702 425.048 391.411Z" fill="url(#paint71_linear)"/>
<path d="M416.617 396.151C416.617 395.715 416.971 395.361 417.407 395.361C417.844 395.361 418.197 395.715 418.197 396.151C418.197 396.588 417.844 396.941 417.407 396.941C416.971 396.941 416.617 396.588 416.617 396.151Z" fill="url(#paint72_linear)"/>
<path d="M416.617 396.151C416.617 395.715 416.971 395.361 417.407 395.361C417.844 395.361 418.197 395.715 418.197 396.151C418.197 396.588 417.844 396.941 417.407 396.941C416.971 396.941 416.617 396.588 416.617 396.151Z" fill="url(#paint73_linear)"/>
<path d="M416.617 386.671C416.617 386.234 416.971 385.881 417.407 385.881C417.844 385.881 418.197 386.234 418.197 386.671C418.197 387.107 417.844 387.461 417.407 387.461C416.971 387.461 416.617 387.107 416.617 386.671Z" fill="url(#paint74_linear)"/>
<path d="M416.617 386.671C416.617 386.234 416.971 385.881 417.407 385.881C417.844 385.881 418.197 386.234 418.197 386.671C418.197 387.107 417.844 387.461 417.407 387.461C416.971 387.461 416.617 387.107 416.617 386.671Z" fill="url(#paint75_linear)"/>
<path d="M453 347L487 313V443L453 475V347Z" fill="url(#paint76_linear)" fill-opacity="0.8"/>
<path d="M342.269 392.015H343.947C346.083 392.015 347.261 392.955 347.261 394.546C347.261 396.084 345.978 397.183 344.053 397.183C342.181 397.183 340.845 396.163 340.713 394.757H339.553C339.667 396.796 341.478 398.264 344.053 398.264C346.628 398.264 348.491 396.655 348.491 394.572C348.491 392.823 347.401 391.61 345.582 391.417V391.355C347.103 391.013 348.078 389.835 348.078 388.385C348.078 386.478 346.452 385.054 344.097 385.054C341.68 385.054 340.089 386.407 339.913 388.481H341.082C341.24 387.058 342.365 386.126 344.053 386.126C345.784 386.126 346.865 387.102 346.865 388.481C346.865 389.932 345.688 390.942 343.895 390.942H342.269V392.015ZM355.522 398.202C358.229 398.202 360.154 396.77 360.638 394.388H359.416C359.012 396.058 357.509 397.086 355.531 397.086C352.833 397.086 351.102 394.968 351.102 391.628C351.102 388.332 352.833 386.231 355.522 386.231C357.447 386.231 359.038 387.453 359.425 389.193H360.646C360.26 386.794 358.159 385.115 355.522 385.115C352.077 385.115 349.871 387.655 349.871 391.628C349.871 395.645 352.068 398.202 355.522 398.202ZM374.797 398V385.317H373.408L368.715 396.418H368.662L363.96 385.317H362.58V398H363.705V387.594H363.758L368.161 397.938H369.207L373.619 387.594H373.672V398H374.797Z" fill="#FF9500"/>
<path fill-rule="evenodd" clip-rule="evenodd" d="M1110 313H141.477L110 347H385L419 313H487L453.001 347H1077.31L1110 313Z" fill="url(#paint77_linear)"/>
<rect x="142" y="245" width="968" height="68" fill="#848484"/>
<rect x="182" y="245" width="5" height="68" fill="#A9C7C9"/>
<rect x="174" y="245" width="5" height="68" fill="#A9C7C9"/>
<path d="M174 245H179L148 277H143L174 245Z" fill="#C4C4C4"/>
<path d="M182 245H187L156 277H151L182 245Z" fill="#C4C4C4"/>
<path d="M174 306H187L156 338H143L174 306Z" fill="url(#paint78_linear)"/>
<path d="M174 274H187L156 306H143L174 274Z" fill="url(#paint79_linear)"/>
<path d="M174 290H187L156 322H143L174 290Z" fill="url(#paint80_linear)"/>
<path d="M174 258H187L156 290H143L174 258Z" fill="url(#paint81_linear)"/>
<rect x="143" y="306" width="13" height="1" fill="#BEBEBE"/>
<rect x="143" y="290" width="13" height="1" fill="#BEBEBE"/>
<rect x="143" y="338" width="13" height="1" fill="#BEBEBE"/>
<rect x="143" y="322" width="13" height="1" fill="#BEBEBE"/>
<rect x="151" y="277" width="5" height="70" fill="#CFE2E9"/>
<rect x="143" y="277" width="5" height="70" fill="#CFE2E9"/>
<circle cx="145.5" cy="290.5" r="1.5" fill="#C4C4C4"/>
<circle cx="153.5" cy="290.5" r="1.5" fill="#C4C4C4"/>
<circle cx="145.5" cy="306.5" r="1.5" fill="#C4C4C4"/>
<circle cx="153.5" cy="306.5" r="1.5" fill="#C4C4C4"/>
<circle cx="145.5" cy="338.5" r="1.5" fill="#C4C4C4"/>
<circle cx="153.5" cy="338.5" r="1.5" fill="#C4C4C4"/>
<circle cx="145.5" cy="322.5" r="1.5" fill="#C4C4C4"/>
<circle cx="153.5" cy="322.5" r="1.5" fill="#C4C4C4"/>
<path d="M156.168 310.377H143V315.644H156.168V310.377Z" fill="#1E90FF"/>
<path d="M150.901 309.061H148.267C145.358 309.061 143 309.65 143 310.377C143 311.105 145.358 311.694 148.267 311.694H150.901C153.81 311.694 156.168 311.105 156.168 310.377C156.168 309.65 153.81 309.061 150.901 309.061Z" fill="#007AFF"/>
<path d="M156.168 299.844H143V310.378H156.168V299.844Z" fill="#007AFF"/>
<path d="M149.711 309.06C148.184 309.06 146.945 309.65 146.945 310.377H152.476C152.476 309.65 151.238 309.06 149.711 309.06Z" fill="#007AFF"/>
<path d="M150.901 298.527H148.267C145.358 298.527 143 299.117 143 299.844C143 300.571 145.358 301.161 148.267 301.161H150.901C153.81 301.161 156.168 300.571 156.168 299.844C156.168 299.117 153.81 298.527 150.901 298.527Z" fill="#007AFF"/>
<path d="M150.901 314.326H148.267C145.358 314.326 143 314.916 143 315.643C143 316.37 145.358 316.96 148.267 316.96H150.901C153.81 316.96 156.168 316.37 156.168 315.643C156.168 314.916 153.81 314.326 150.901 314.326Z" fill="#1E90FF"/>
<path d="M149.586 315.377C151.041 315.377 152.22 314.198 152.22 312.743C152.22 311.288 151.041 310.109 149.586 310.109C148.132 310.109 146.953 311.288 146.953 312.743C146.953 314.198 148.132 315.377 149.586 315.377Z" fill="#808080"/>
<path d="M149.59 306.952C149.881 306.952 150.116 306.716 150.116 306.425C150.116 306.134 149.881 305.898 149.59 305.898C149.299 305.898 149.063 306.134 149.063 306.425C149.063 306.716 149.299 306.952 149.59 306.952Z" fill="url(#paint82_linear)"/>
<path d="M149.59 306.952C149.881 306.952 150.116 306.716 150.116 306.425C150.116 306.134 149.881 305.898 149.59 305.898C149.299 305.898 149.063 306.134 149.063 306.425C149.063 306.716 149.299 306.952 149.59 306.952Z" fill="url(#paint83_linear)"/>
<path d="M144.849 315.383C145.285 315.383 145.639 315.029 145.639 314.593C145.639 314.156 145.285 313.803 144.849 313.803C144.412 313.803 144.059 314.156 144.059 314.593C144.059 315.029 144.412 315.383 144.849 315.383Z" fill="url(#paint84_linear)"/>
<path d="M144.849 315.383C145.285 315.383 145.639 315.029 145.639 314.593C145.639 314.156 145.285 313.803 144.849 313.803C144.412 313.803 144.059 314.156 144.059 314.593C144.059 315.029 144.412 315.383 144.849 315.383Z" fill="url(#paint85_linear)"/>
<path d="M154.328 315.383C154.765 315.383 155.118 315.029 155.118 314.593C155.118 314.156 154.765 313.803 154.328 313.803C153.892 313.803 153.538 314.156 153.538 314.593C153.538 315.029 153.892 315.383 154.328 315.383Z" fill="url(#paint86_linear)"/>
<path d="M154.328 315.383C154.765 315.383 155.118 315.029 155.118 314.593C155.118 314.156 154.765 313.803 154.328 313.803C153.892 313.803 153.538 314.156 153.538 314.593C153.538 315.029 153.892 315.383 154.328 315.383Z" fill="url(#paint87_linear)"/>
<path d="M755.008 277.83L754.994 277.845H754.973H734.546C732.645 277.845 731.05 279.366 731.05 281.264V342.859C731.05 343.847 731.437 344.582 732.058 345.072C732.681 345.562 733.544 345.809 734.5 345.809H746H757C762.215 345.81 766.503 345.809 771.332 345.809C774.837 345.809 778.627 345.809 783.262 345.809C794.271 345.809 804.203 341.344 811.439 334.107C818.676 326.87 823.141 316.939 823.141 305.93C823.141 294.921 818.676 284.913 811.44 277.753L811.439 277.753C804.203 270.516 794.271 266.051 783.262 266.051C772.253 266.051 762.245 270.516 755.086 277.753L755.085 277.753L755.008 277.83ZM757.944 280.612L757.944 280.611C764.428 274.205 773.382 270.191 783.262 270.191C793.143 270.191 802.097 274.205 808.504 280.612C814.988 287.096 819.002 296.05 819.002 305.93C819.002 315.81 814.988 324.765 808.504 331.172C802.097 337.656 793.143 341.67 783.262 341.67C773.382 341.67 764.428 337.656 757.944 331.172C751.537 324.765 747.523 315.811 747.523 305.93C747.523 296.05 751.537 287.096 757.944 280.612Z" fill="url(#paint88_linear)" stroke="#848484" stroke-width="0.1"/>
<circle r="36" transform="matrix(1 0 0 -1 783 305.859)" fill="#808080"/>
<path d="M740.493 238C743.174 238 744.782 236.682 744.782 234.52C744.782 232.762 743.561 231.575 741.803 231.364V231.303C743.156 231.057 744.123 229.853 744.123 228.446C744.123 226.574 742.646 225.317 740.467 225.317H735.905V238H740.493ZM737.101 226.381H740.212C741.899 226.381 742.91 227.198 742.91 228.578C742.91 230.072 741.785 230.951 739.86 230.951H737.101V226.381ZM737.101 236.937V231.988H740.168C742.356 231.988 743.552 232.876 743.552 234.458C743.552 236.031 742.4 236.937 740.326 236.937H737.101ZM749.669 238H750.829V225.317H749.651C749.273 225.546 746.584 227.444 746.232 227.664V228.947C746.602 228.719 749.353 226.785 749.634 226.609H749.669V238Z" fill="#FF9500"/>
<path d="M919 258V287H922V258H919Z" fill="url(#paint89_linear)"/>
<path d="M990 258V287H993V258H990Z" fill="url(#paint90_linear)"/>
<path d="M141.477 245H1110L1077.31 277H110L141.477 245Z" fill="white" fill-opacity="0.5"/>
<defs>
<linearGradient id="paint0_linear" x1="610" y1="511" x2="610" y2="556.333" gradientUnits="userSpaceOnUse">
<stop stop-color="#A6A5A5"/>
<stop offset="1" stop-color="white"/>
</linearGradient>
<linearGradient id="paint1_linear" x1="610" y1="527.545" x2="616" y2="527.545" gradientUnits="userSpaceOnUse">
<stop stop-color="#848484"/>
<stop offset="0.519337" stop-color="white"/>
<stop offset="1" stop-color="#848484"/>
</linearGradient>
<linearGradient id="paint2_linear" x1="634.29" y1="487" x2="634.29" y2="493" gradientUnits="userSpaceOnUse">
<stop stop-color="#848484"/>
<stop offset="0.519337" stop-color="white"/>
<stop offset="1" stop-color="#848484"/>
</linearGradient>
<linearGradient id="paint3_linear" x1="616.224" y1="487.037" x2="616.224" y2="493.226" gradientUnits="userSpaceOnUse">
<stop stop-color="#848484"/>
<stop offset="0.478645" stop-color="white"/>
<stop offset="1" stop-color="#848484"/>
</linearGradient>
<linearGradient id="paint4_linear" x1="613.89" y1="487.037" x2="614.66" y2="493.227" gradientUnits="userSpaceOnUse">
<stop stop-color="#848484"/>
<stop offset="0.491713" stop-color="white"/>
<stop offset="1" stop-color="#848484"/>
</linearGradient>
<linearGradient id="paint5_linear" x1="610" y1="493.5" x2="616" y2="493.5" gradientUnits="userSpaceOnUse">
<stop stop-color="#848484"/>
<stop offset="0.476897" stop-color="white"/>
<stop offset="1" stop-color="#848484"/>
</linearGradient>
<linearGradient id="paint6_linear" x1="616.5" y1="493" x2="616.5" y2="487" gradientUnits="userSpaceOnUse">
<stop stop-color="#848484"/>
<stop offset="0.508099" stop-color="white"/>
<stop offset="1" stop-color="#848484"/>
</linearGradient>
<linearGradient id="paint7_linear" x1="610.003" y1="493.227" x2="615.44" y2="491.275" gradientUnits="userSpaceOnUse">
<stop stop-color="#848484"/>
<stop offset="0.526042" stop-color="white"/>
<stop offset="1" stop-color="#848484"/>
</linearGradient>
<linearGradient id="paint8_linear" x1="610.002" y1="490.906" x2="615.521" y2="493.297" gradientUnits="userSpaceOnUse">
<stop stop-color="#848484"/>
<stop offset="0.491713" stop-color="white"/>
<stop offset="1" stop-color="#848484"/>
</linearGradient>
<linearGradient id="paint9_linear" x1="644.331" y1="533" x2="644.331" y2="539" gradientUnits="userSpaceOnUse">
<stop stop-color="#848484"/>
<stop offset="0.519337" stop-color="white"/>
<stop offset="1" stop-color="#848484"/>
</linearGradient>
<linearGradient id="paint10_linear" x1="636.223" y1="533.037" x2="636.223" y2="539.226" gradientUnits="userSpaceOnUse">
<stop stop-color="#848484"/>
<stop offset="0.478645" stop-color="white"/>
<stop offset="1" stop-color="#848484"/>
</linearGradient>
<linearGradient id="paint11_linear" x1="633.889" y1="533.037" x2="634.659" y2="539.227" gradientUnits="userSpaceOnUse">
<stop stop-color="#848484"/>
<stop offset="0.491713" stop-color="white"/>
<stop offset="1" stop-color="#848484"/>
</linearGradient>
<linearGradient id="paint12_linear" x1="630" y1="539.5" x2="636" y2="539.5" gradientUnits="userSpaceOnUse">
<stop stop-color="#848484"/>
<stop offset="0.476897" stop-color="white"/>
<stop offset="1" stop-color="#848484"/>
</linearGradient>
<linearGradient id="paint13_linear" x1="636.5" y1="539" x2="636.5" y2="533" gradientUnits="userSpaceOnUse">
<stop stop-color="#848484"/>
<stop offset="0.508099" stop-color="white"/>
<stop offset="1" stop-color="#848484"/>
</linearGradient>
<linearGradient id="paint14_linear" x1="630.002" y1="539.227" x2="635.439" y2="537.275" gradientUnits="userSpaceOnUse">
<stop stop-color="#848484"/>
<stop offset="0.526042" stop-color="white"/>
<stop offset="1" stop-color="#848484"/>
</linearGradient>
<linearGradient id="paint15_linear" x1="630.002" y1="536.906" x2="635.521" y2="539.297" gradientUnits="userSpaceOnUse">
<stop stop-color="#848484"/>
<stop offset="0.491713" stop-color="white"/>
<stop offset="1" stop-color="#848484"/>
</linearGradient>
<linearGradient id="paint16_linear" x1="630" y1="617.103" x2="636" y2="617.103" gradientUnits="userSpaceOnUse">
<stop stop-color="#848484"/>
<stop offset="0.519337" stop-color="white"/>
<stop offset="1" stop-color="#848484"/>
</linearGradient>
<linearGradient id="paint17_linear" x1="475" y1="537.558" x2="481" y2="537.558" gradientUnits="userSpaceOnUse">
<stop stop-color="#848484"/>
<stop offset="0.519337" stop-color="white"/>
<stop offset="1" stop-color="#848484"/>
</linearGradient>
<linearGradient id="paint18_linear" x1="499.29" y1="487" x2="499.29" y2="493" gradientUnits="userSpaceOnUse">
<stop stop-color="#848484"/>
<stop offset="0.519337" stop-color="white"/>
<stop offset="1" stop-color="#848484"/>
</linearGradient>
<linearGradient id="paint19_linear" x1="481.224" y1="487.037" x2="481.224" y2="493.226" gradientUnits="userSpaceOnUse">
<stop stop-color="#848484"/>
<stop offset="0.478645" stop-color="white"/>
<stop offset="1" stop-color="#848484"/>
</linearGradient>
<linearGradient id="paint20_linear" x1="478.89" y1="487.037" x2="479.66" y2="493.227" gradientUnits="userSpaceOnUse">
<stop stop-color="#848484"/>
<stop offset="0.491713" stop-color="white"/>
<stop offset="1" stop-color="#848484"/>
</linearGradient>
<linearGradient id="paint21_linear" x1="475" y1="493.5" x2="481" y2="493.5" gradientUnits="userSpaceOnUse">
<stop stop-color="#848484"/>
<stop offset="0.476897" stop-color="white"/>
<stop offset="1" stop-color="#848484"/>
</linearGradient>
<linearGradient id="paint22_linear" x1="481.5" y1="493" x2="481.5" y2="487" gradientUnits="userSpaceOnUse">
<stop stop-color="#848484"/>
<stop offset="0.508099" stop-color="white"/>
<stop offset="1" stop-color="#848484"/>
</linearGradient>
<linearGradient id="paint23_linear" x1="475.003" y1="493.227" x2="480.44" y2="491.275" gradientUnits="userSpaceOnUse">
<stop stop-color="#848484"/>
<stop offset="0.526042" stop-color="white"/>
<stop offset="1" stop-color="#848484"/>
</linearGradient>
<linearGradient id="paint24_linear" x1="475.002" y1="490.906" x2="480.521" y2="493.297" gradientUnits="userSpaceOnUse">
<stop stop-color="#848484"/>
<stop offset="0.491713" stop-color="white"/>
<stop offset="1" stop-color="#848484"/>
</linearGradient>
<linearGradient id="paint25_linear" x1="509.331" y1="533" x2="509.331" y2="539" gradientUnits="userSpaceOnUse">
<stop stop-color="#848484"/>
<stop offset="0.519337" stop-color="white"/>
<stop offset="1" stop-color="#848484"/>
</linearGradient>
<linearGradient id="paint26_linear" x1="501.223" y1="533.037" x2="501.223" y2="539.226" gradientUnits="userSpaceOnUse">
<stop stop-color="#848484"/>
<stop offset="0.478645" stop-color="white"/>
<stop offset="1" stop-color="#848484"/>
</linearGradient>
<linearGradient id="paint27_linear" x1="498.889" y1="533.037" x2="499.659" y2="539.227" gradientUnits="userSpaceOnUse">
<stop stop-color="#848484"/>
<stop offset="0.491713" stop-color="white"/>
<stop offset="1" stop-color="#848484"/>
</linearGradient>
<linearGradient id="paint28_linear" x1="495" y1="539.5" x2="501" y2="539.5" gradientUnits="userSpaceOnUse">
<stop stop-color="#848484"/>
<stop offset="0.476897" stop-color="white"/>
<stop offset="1" stop-color="#848484"/>
</linearGradient>
<linearGradient id="paint29_linear" x1="501.5" y1="539" x2="501.5" y2="533" gradientUnits="userSpaceOnUse">
<stop stop-color="#848484"/>
<stop offset="0.508099" stop-color="white"/>
<stop offset="1" stop-color="#848484"/>
</linearGradient>
<linearGradient id="paint30_linear" x1="495.002" y1="539.227" x2="500.439" y2="537.275" gradientUnits="userSpaceOnUse">
<stop stop-color="#848484"/>
<stop offset="0.526042" stop-color="white"/>
<stop offset="1" stop-color="#848484"/>
</linearGradient>
<linearGradient id="paint31_linear" x1="495.002" y1="536.906" x2="500.521" y2="539.297" gradientUnits="userSpaceOnUse">
<stop stop-color="#848484"/>
<stop offset="0.491713" stop-color="white"/>
<stop offset="1" stop-color="#848484"/>
</linearGradient>
<linearGradient id="paint32_linear" x1="459" y1="684.013" x2="467" y2="684.013" gradientUnits="userSpaceOnUse">
<stop stop-color="#848484"/>
<stop offset="0.519337" stop-color="white"/>
<stop offset="1" stop-color="#848484"/>
</linearGradient>
<linearGradient id="paint33_linear" x1="593" y1="684.013" x2="601" y2="684.013" gradientUnits="userSpaceOnUse">
<stop stop-color="#848484"/>
<stop offset="0.519337" stop-color="white"/>
<stop offset="1" stop-color="#848484"/>
</linearGradient>
<linearGradient id="paint34_linear" x1="495" y1="617.103" x2="501" y2="617.103" gradientUnits="userSpaceOnUse">
<stop stop-color="#848484"/>
<stop offset="0.519337" stop-color="white"/>
<stop offset="1" stop-color="#848484"/>
</linearGradient>
<linearGradient id="paint35_linear" x1="996" y1="470.5" x2="999" y2="470.5" gradientUnits="userSpaceOnUse">
<stop stop-color="#4F4F4F"/>
<stop offset="0.519337" stop-color="#BDBDBD"/>
<stop offset="1" stop-color="#4F4F4F"/>
</linearGradient>
<linearGradient id="paint36_linear" x1="904.546" y1="476.642" x2="905.316" y2="532.527" gradientUnits="userSpaceOnUse">
<stop stop-color="#848484"/>
<stop offset="0.499267" stop-color="white"/>
<stop offset="1" stop-color="#848484"/>
</linearGradient>
<linearGradient id="paint37_linear" x1="158" y1="520" x2="164.5" y2="526.5" gradientUnits="userSpaceOnUse">
<stop stop-color="#C4C4C4"/>
<stop offset="0.494792" stop-color="white"/>
<stop offset="1" stop-color="#BEBEBE"/>
</linearGradient>
<linearGradient id="paint38_linear" x1="158" y1="488" x2="164.5" y2="494.5" gradientUnits="userSpaceOnUse">
<stop stop-color="#C4C4C4"/>
<stop offset="0.494792" stop-color="white"/>
<stop offset="1" stop-color="#BEBEBE"/>
</linearGradient>
<linearGradient id="paint39_linear" x1="158" y1="504" x2="164.5" y2="510.5" gradientUnits="userSpaceOnUse">
<stop stop-color="#C4C4C4"/>
<stop offset="0.494792" stop-color="white"/>
<stop offset="1" stop-color="#BEBEBE"/>
</linearGradient>
<linearGradient id="paint40_linear" x1="158" y1="472" x2="164.5" y2="478.5" gradientUnits="userSpaceOnUse">
<stop stop-color="#C4C4C4"/>
<stop offset="0.494792" stop-color="white"/>
<stop offset="1" stop-color="#BEBEBE"/>
</linearGradient>
<linearGradient id="paint41_linear" x1="148.063" y1="503.898" x2="200.735" y2="503.898" gradientUnits="userSpaceOnUse">
<stop offset="1" stop-color="white" stop-opacity="0.6"/>
</linearGradient>
<linearGradient id="paint42_linear" x1="148.063" y1="503.898" x2="148.063" y2="556.571" gradientUnits="userSpaceOnUse">
<stop offset="1" stop-color="white" stop-opacity="0.6"/>
</linearGradient>
<linearGradient id="paint43_linear" x1="143.059" y1="511.803" x2="222.067" y2="511.803" gradientUnits="userSpaceOnUse">
<stop offset="1" stop-color="white" stop-opacity="0.6"/>
</linearGradient>
<linearGradient id="paint44_linear" x1="143.059" y1="511.803" x2="143.059" y2="590.811" gradientUnits="userSpaceOnUse">
<stop offset="1" stop-color="white" stop-opacity="0.6"/>
</linearGradient>
<linearGradient id="paint45_linear" x1="152.538" y1="511.803" x2="231.547" y2="511.803" gradientUnits="userSpaceOnUse">
<stop offset="1" stop-color="white" stop-opacity="0.6"/>
</linearGradient>
<linearGradient id="paint46_linear" x1="152.538" y1="511.803" x2="152.538" y2="590.811" gradientUnits="userSpaceOnUse">
<stop offset="1" stop-color="white" stop-opacity="0.6"/>
</linearGradient>
<linearGradient id="paint47_linear" x1="798" y1="413.129" x2="798" y2="407.042" gradientUnits="userSpaceOnUse">
<stop stop-color="#4F4F4F"/>
<stop offset="0.519337" stop-color="#BDBDBD"/>
<stop offset="1" stop-color="#4F4F4F"/>
</linearGradient>
<linearGradient id="paint48_linear" x1="760" y1="433.5" x2="756" y2="433.5" gradientUnits="userSpaceOnUse">
<stop offset="0.296875" stop-color="#848484" stop-opacity="0.3"/>
<stop offset="0.505208" stop-color="white" stop-opacity="0.3"/>
<stop offset="0.770833" stop-color="#848484" stop-opacity="0.3"/>
</linearGradient>
<linearGradient id="paint49_linear" x1="840" y1="433" x2="836" y2="433" gradientUnits="userSpaceOnUse">
<stop offset="0.296875" stop-color="#848484" stop-opacity="0.3"/>
<stop offset="0.505208" stop-color="white" stop-opacity="0.3"/>
<stop offset="0.770833" stop-color="#848484" stop-opacity="0.3"/>
</linearGradient>
<linearGradient id="paint50_linear" x1="772" y1="412" x2="772" y2="408" gradientUnits="userSpaceOnUse">
<stop offset="0.296875" stop-color="#848484" stop-opacity="0.3"/>
<stop offset="0.505208" stop-color="white" stop-opacity="0.3"/>
<stop offset="0.770833" stop-color="#848484" stop-opacity="0.3"/>
</linearGradient>
<linearGradient id="paint51_linear" x1="824" y1="412" x2="824" y2="408" gradientUnits="userSpaceOnUse">
<stop offset="0.296875" stop-color="#848484" stop-opacity="0.3"/>
<stop offset="0.505208" stop-color="white" stop-opacity="0.3"/>
<stop offset="0.770833" stop-color="#848484" stop-opacity="0.3"/>
</linearGradient>
<linearGradient id="paint52_linear" x1="756.026" y1="412.51" x2="760.447" y2="412.51" gradientUnits="userSpaceOnUse">
<stop stop-color="#848484" stop-opacity="0.3"/>
<stop offset="0.478645" stop-color="white" stop-opacity="0.3"/>
<stop offset="1" stop-color="#848484" stop-opacity="0.3"/>
</linearGradient>
<linearGradient id="paint53_linear" x1="756.026" y1="410.819" x2="760.45" y2="411.361" gradientUnits="userSpaceOnUse">
<stop stop-color="#848484" stop-opacity="0.3"/>
<stop offset="0.491713" stop-color="white" stop-opacity="0.3"/>
<stop offset="1" stop-color="#848484" stop-opacity="0.3"/>
</linearGradient>
<linearGradient id="paint54_linear" x1="760.643" y1="408" x2="760.643" y2="412.347" gradientUnits="userSpaceOnUse">
<stop stop-color="#848484" stop-opacity="0.3"/>
<stop offset="0.476897" stop-color="white" stop-opacity="0.3"/>
<stop offset="1" stop-color="#848484" stop-opacity="0.3"/>
</linearGradient>
<linearGradient id="paint55_linear" x1="760.286" y1="412.71" x2="756" y2="412.71" gradientUnits="userSpaceOnUse">
<stop stop-color="#848484" stop-opacity="0.3"/>
<stop offset="0.508099" stop-color="white" stop-opacity="0.3"/>
<stop offset="1" stop-color="#848484" stop-opacity="0.3"/>
</linearGradient>
<linearGradient id="paint56_linear" x1="760.447" y1="408.002" x2="759.017" y2="411.928" gradientUnits="userSpaceOnUse">
<stop stop-color="#848484" stop-opacity="0.3"/>
<stop offset="0.526042" stop-color="white" stop-opacity="0.3"/>
<stop offset="1" stop-color="#848484" stop-opacity="0.3"/>
</linearGradient>
<linearGradient id="paint57_linear" x1="758.79" y1="408.001" x2="760.54" y2="411.982" gradientUnits="userSpaceOnUse">
<stop stop-color="#848484" stop-opacity="0.3"/>
<stop offset="0.491713" stop-color="white" stop-opacity="0.3"/>
<stop offset="1" stop-color="#848484" stop-opacity="0.3"/>
</linearGradient>
<linearGradient id="paint58_linear" x1="835.563" y1="408.027" x2="835.563" y2="412.448" gradientUnits="userSpaceOnUse">
<stop stop-color="#848484" stop-opacity="0.3"/>
<stop offset="0.478645" stop-color="white" stop-opacity="0.3"/>
<stop offset="1" stop-color="#848484" stop-opacity="0.3"/>
</linearGradient>
<linearGradient id="paint59_linear" x1="837.253" y1="408.026" x2="836.711" y2="412.45" gradientUnits="userSpaceOnUse">
<stop stop-color="#848484" stop-opacity="0.3"/>
<stop offset="0.491713" stop-color="white" stop-opacity="0.3"/>
<stop offset="1" stop-color="#848484" stop-opacity="0.3"/>
</linearGradient>
<linearGradient id="paint60_linear" x1="840.072" y1="412.642" x2="835.725" y2="412.642" gradientUnits="userSpaceOnUse">
<stop stop-color="#848484" stop-opacity="0.3"/>
<stop offset="0.476897" stop-color="white" stop-opacity="0.3"/>
<stop offset="1" stop-color="#848484" stop-opacity="0.3"/>
</linearGradient>
<linearGradient id="paint61_linear" x1="835.362" y1="412.285" x2="835.362" y2="407.999" gradientUnits="userSpaceOnUse">
<stop stop-color="#848484" stop-opacity="0.3"/>
<stop offset="0.508099" stop-color="white" stop-opacity="0.3"/>
<stop offset="1" stop-color="#848484" stop-opacity="0.3"/>
</linearGradient>
<linearGradient id="paint62_linear" x1="840.071" y1="412.447" x2="836.144" y2="411.017" gradientUnits="userSpaceOnUse">
<stop stop-color="#848484" stop-opacity="0.3"/>
<stop offset="0.526042" stop-color="white" stop-opacity="0.3"/>
<stop offset="1" stop-color="#848484" stop-opacity="0.3"/>
</linearGradient>
<linearGradient id="paint63_linear" x1="840.071" y1="410.789" x2="836.089" y2="412.539" gradientUnits="userSpaceOnUse">
<stop stop-color="#848484" stop-opacity="0.3"/>
<stop offset="0.491713" stop-color="white" stop-opacity="0.3"/>
<stop offset="1" stop-color="#848484" stop-opacity="0.3"/>
</linearGradient>
<linearGradient id="paint64_linear" x1="402.025" y1="313.155" x2="402.025" y2="529.459" gradientUnits="userSpaceOnUse">
<stop stop-color="#A6A5A5"/>
<stop offset="1" stop-color="white"/>
</linearGradient>
<linearGradient id="paint65_linear" x1="455.5" y1="406" x2="455.5" y2="409" gradientUnits="userSpaceOnUse">
<stop stop-color="#4F4F4F"/>
<stop offset="0.519337" stop-color="#BDBDBD"/>
<stop offset="1" stop-color="#4F4F4F"/>
</linearGradient>
<linearGradient id="paint66_linear" x1="410" y1="382" x2="403.5" y2="375.5" gradientUnits="userSpaceOnUse">
<stop stop-color="#C4C4C4"/>
<stop offset="0.494792" stop-color="white"/>
<stop offset="1" stop-color="#BEBEBE"/>
</linearGradient>
<linearGradient id="paint67_linear" x1="442" y1="382" x2="435.5" y2="375.5" gradientUnits="userSpaceOnUse">
<stop stop-color="#C4C4C4"/>
<stop offset="0.494792" stop-color="white"/>
<stop offset="1" stop-color="#BEBEBE"/>
</linearGradient>
<linearGradient id="paint68_linear" x1="426" y1="382" x2="419.5" y2="375.5" gradientUnits="userSpaceOnUse">
<stop stop-color="#C4C4C4"/>
<stop offset="0.494792" stop-color="white"/>
<stop offset="1" stop-color="#BEBEBE"/>
</linearGradient>
<linearGradient id="paint69_linear" x1="458" y1="382" x2="451.5" y2="375.5" gradientUnits="userSpaceOnUse">
<stop stop-color="#C4C4C4"/>
<stop offset="0.494792" stop-color="white"/>
<stop offset="1" stop-color="#BEBEBE"/>
</linearGradient>
<linearGradient id="paint70_linear" x1="426.101" y1="391.938" x2="426.101" y2="339.265" gradientUnits="userSpaceOnUse">
<stop offset="1" stop-color="white" stop-opacity="0.6"/>
</linearGradient>
<linearGradient id="paint71_linear" x1="426.101" y1="391.938" x2="373.429" y2="391.938" gradientUnits="userSpaceOnUse">
<stop offset="1" stop-color="white" stop-opacity="0.6"/>
</linearGradient>
<linearGradient id="paint72_linear" x1="418.197" y1="396.941" x2="418.197" y2="317.933" gradientUnits="userSpaceOnUse">
<stop offset="1" stop-color="white" stop-opacity="0.6"/>
</linearGradient>
<linearGradient id="paint73_linear" x1="418.197" y1="396.941" x2="339.189" y2="396.941" gradientUnits="userSpaceOnUse">
<stop offset="1" stop-color="white" stop-opacity="0.6"/>
</linearGradient>
<linearGradient id="paint74_linear" x1="418.197" y1="387.461" x2="418.197" y2="308.452" gradientUnits="userSpaceOnUse">
<stop offset="1" stop-color="white" stop-opacity="0.6"/>
</linearGradient>
<linearGradient id="paint75_linear" x1="418.197" y1="387.461" x2="339.189" y2="387.461" gradientUnits="userSpaceOnUse">
<stop offset="1" stop-color="white" stop-opacity="0.6"/>
</linearGradient>
<linearGradient id="paint76_linear" x1="469.982" y1="313.154" x2="469.982" y2="529.458" gradientUnits="userSpaceOnUse">
<stop stop-color="#A6A5A5"/>
<stop offset="1" stop-color="white"/>
</linearGradient>
<linearGradient id="paint77_linear" x1="610" y1="313.16" x2="610" y2="358.064" gradientUnits="userSpaceOnUse">
<stop stop-color="#A6A5A5"/>
<stop offset="1" stop-color="white"/>
</linearGradient>
<linearGradient id="paint78_linear" x1="159" y1="322" x2="165.5" y2="328.5" gradientUnits="userSpaceOnUse">
<stop stop-color="#C4C4C4"/>
<stop offset="0.494792" stop-color="white"/>
<stop offset="1" stop-color="#BEBEBE"/>
</linearGradient>
<linearGradient id="paint79_linear" x1="159" y1="290" x2="165.5" y2="296.5" gradientUnits="userSpaceOnUse">
<stop stop-color="#C4C4C4"/>
<stop offset="0.494792" stop-color="white"/>
<stop offset="1" stop-color="#BEBEBE"/>
</linearGradient>
<linearGradient id="paint80_linear" x1="159" y1="306" x2="165.5" y2="312.5" gradientUnits="userSpaceOnUse">
<stop stop-color="#C4C4C4"/>
<stop offset="0.494792" stop-color="white"/>
<stop offset="1" stop-color="#BEBEBE"/>
</linearGradient>
<linearGradient id="paint81_linear" x1="159" y1="274" x2="165.5" y2="280.5" gradientUnits="userSpaceOnUse">
<stop stop-color="#C4C4C4"/>
<stop offset="0.494792" stop-color="white"/>
<stop offset="1" stop-color="#BEBEBE"/>
</linearGradient>
<linearGradient id="paint82_linear" x1="149.063" y1="305.898" x2="201.735" y2="305.898" gradientUnits="userSpaceOnUse">
<stop offset="1" stop-color="white" stop-opacity="0.6"/>
</linearGradient>
<linearGradient id="paint83_linear" x1="149.063" y1="305.898" x2="149.063" y2="358.571" gradientUnits="userSpaceOnUse">
<stop offset="1" stop-color="white" stop-opacity="0.6"/>
</linearGradient>
<linearGradient id="paint84_linear" x1="144.059" y1="313.803" x2="223.067" y2="313.803" gradientUnits="userSpaceOnUse">
<stop offset="1" stop-color="white" stop-opacity="0.6"/>
</linearGradient>
<linearGradient id="paint85_linear" x1="144.059" y1="313.803" x2="144.059" y2="392.811" gradientUnits="userSpaceOnUse">
<stop offset="1" stop-color="white" stop-opacity="0.6"/>
</linearGradient>
<linearGradient id="paint86_linear" x1="153.538" y1="313.803" x2="232.547" y2="313.803" gradientUnits="userSpaceOnUse">
<stop offset="1" stop-color="white" stop-opacity="0.6"/>
</linearGradient>
<linearGradient id="paint87_linear" x1="153.538" y1="313.803" x2="153.538" y2="392.811" gradientUnits="userSpaceOnUse">
<stop offset="1" stop-color="white" stop-opacity="0.6"/>
</linearGradient>
<linearGradient id="paint88_linear" x1="745.646" y1="277.642" x2="744.875" y2="333.527" gradientUnits="userSpaceOnUse">
<stop stop-color="#848484"/>
<stop offset="0.499267" stop-color="white"/>
<stop offset="1" stop-color="#848484"/>
</linearGradient>
<linearGradient id="paint89_linear" x1="919" y1="272.5" x2="922" y2="272.5" gradientUnits="userSpaceOnUse">
<stop stop-color="#4F4F4F"/>
<stop offset="0.519337" stop-color="#BDBDBD"/>
<stop offset="1" stop-color="#4F4F4F"/>
</linearGradient>
<linearGradient id="paint90_linear" x1="990" y1="272.5" x2="993" y2="272.5" gradientUnits="userSpaceOnUse">
<stop stop-color="#4F4F4F"/>
<stop offset="0.519337" stop-color="#BDBDBD"/>
<stop offset="1" stop-color="#4F4F4F"/>
</linearGradient>
</defs>
</svg>
