<svg width="1280" height="720" viewBox="0 0 1280 720" fill="none" xmlns="http://www.w3.org/2000/svg">
<g>
<text transform="translate(170,44)" font-size="36px" font-family="SF-Pro-Display" text-anchor="left" fill="#FFFFFF">Приточно-вытяжная установка № 2</text>
</g>
<path d="M134.477 364H1103L1070.31 398H103L134.477 364Z" fill="url(#paint0_linear)"/>
<rect x="136" y="296" width="967" height="68" fill="#848484"/>
<path d="M640 328.5L672 296V365L640 398V328.5Z" fill="#007AFF"/>
<path d="M672 296H682L650 328H640L672 296Z" fill="#A9A9A9"/>
<path d="M672 365H682L650 397.5H640L672 365Z" fill="#3592F7"/>
<path d="M650 328L682 296V365L650 398V328Z" fill="#848484"/>
<path d="M652 328L681 299V364L652 394V328Z" fill="#5C82B5"/>
<path d="M695.238 356.139C696.432 356.139 697.599 355.889 698.765 355.361C699.627 354.972 700.46 354.778 701.293 354.778C701.515 354.778 701.71 354.805 701.877 354.833C701.765 354.944 701.015 355.694 701.015 355.778C701.015 356.028 701.404 356.083 701.543 356.083C702.238 356.083 704.515 354.639 705.099 354.333C705.293 354.222 705.293 353.944 705.099 353.833C704.488 353.5 702.127 352.111 701.543 352.111C701.404 352.111 701.015 352.166 701.015 352.389C701.015 352.5 701.904 353.389 701.988 353.444C701.738 353.444 701.488 353.444 701.293 353.444C700.099 353.444 698.932 353.694 697.765 354.222C696.904 354.583 696.071 354.778 695.238 354.778C693.182 354.778 693.154 353.722 692.21 354.778C691.21 355.916 694.043 356.139 695.238 356.139ZM695.238 344.583C696.432 344.583 697.599 344.333 698.765 343.805C699.627 343.416 700.46 343.222 701.293 343.222C701.515 343.222 701.71 343.25 701.877 343.278C701.765 343.389 701.015 344.139 701.015 344.25C701.015 344.472 701.404 344.528 701.543 344.528C702.238 344.528 704.515 343.083 705.099 342.778C705.293 342.666 705.293 342.389 705.099 342.278C704.488 341.972 702.127 340.555 701.543 340.555C701.404 340.555 701.015 340.611 701.015 340.833C701.015 340.944 701.904 341.833 701.988 341.889C701.738 341.889 701.488 341.889 701.293 341.889C700.099 341.889 698.932 342.139 697.765 342.666C696.904 343.055 696.071 343.222 695.238 343.222C693.182 343.222 693.154 342.194 692.21 343.25C691.21 344.361 694.043 344.583 695.238 344.583ZM695.238 350.389C696.432 350.389 697.599 350.111 698.765 349.611C699.627 349.222 700.46 349.028 701.293 349.028C701.515 349.028 701.71 349.028 701.877 349.055C701.765 349.194 701.015 349.916 701.015 350.028C701.015 350.25 701.404 350.305 701.543 350.305C702.238 350.305 704.515 348.889 705.099 348.583C705.293 348.472 705.293 348.166 705.099 348.055C704.488 347.75 702.127 346.333 701.543 346.333C701.404 346.333 701.015 346.416 701.015 346.639C701.015 346.75 701.904 347.611 701.988 347.694C701.738 347.666 701.488 347.666 701.293 347.666C700.099 347.666 698.932 347.944 697.765 348.444C696.904 348.833 696.071 349.028 695.238 349.028C693.182 349.028 693.154 347.972 692.21 349.028C691.21 350.166 694.043 350.389 695.238 350.389Z" fill="#00BFFF"/>
<path d="M685.788 351.278C686.995 350.62 688.202 349.934 689.353 349.276C689.518 349.194 689.71 349.249 689.819 349.413L690.286 350.263C690.395 350.4 690.34 350.62 690.176 350.702L687.489 352.265L689.819 353.609C689.984 353.691 690.039 353.91 689.929 354.075L689.436 354.952C689.353 355.09 689.134 355.144 688.969 355.062L686.638 353.718V356.872C686.638 357.064 686.474 357.201 686.309 357.201H685.322C685.13 357.201 684.993 357.064 684.993 356.872C684.993 355.528 684.966 354.13 684.966 352.731L682.059 351.086C682.059 357.53 683.101 356.927 677.534 353.718V357.064C678.713 357.75 679.893 358.49 681.017 359.148C681.181 359.23 681.236 359.422 681.154 359.587L680.66 360.437C680.578 360.601 680.359 360.656 680.194 360.574L677.534 359.011V361.671C677.534 361.863 677.37 362 677.205 362H676.191C675.999 362 675.861 361.863 675.861 361.671V358.984L673.092 360.574C672.927 360.656 672.735 360.601 672.626 360.464L672.159 359.614C672.05 359.45 672.105 359.23 672.269 359.148C673.421 358.49 674.655 357.722 675.861 357.037V353.691C670.212 356.954 671.227 357.612 671.227 351.113L668.348 352.786C668.348 354.13 668.32 355.528 668.32 356.845C668.32 357.037 668.183 357.201 667.991 357.201H667.032C666.84 357.201 666.675 357.037 666.675 356.845C666.675 355.83 666.675 354.788 666.675 353.746L664.399 355.062C664.234 355.144 664.042 355.09 663.933 354.952L663.439 354.075C663.357 353.91 663.412 353.691 663.549 353.609L665.852 352.293L663.11 350.702C662.946 350.62 662.891 350.4 663 350.236L663.494 349.413C663.576 349.249 663.768 349.194 663.933 349.276C665.112 349.962 666.346 350.62 667.553 351.305L670.432 349.633C664.81 346.397 664.81 347.603 670.432 344.367L667.525 342.667C666.319 343.353 665.139 344.038 663.96 344.724C663.796 344.806 663.604 344.751 663.494 344.587L663.028 343.737C662.918 343.6 662.973 343.38 663.138 343.298C664.042 342.777 664.947 342.229 665.852 341.707L663.549 340.391C663.412 340.309 663.357 340.09 663.439 339.925L663.933 339.048C664.042 338.91 664.234 338.856 664.399 338.938L666.675 340.254V337.128C666.675 336.936 666.84 336.799 667.004 336.799H667.991C668.183 336.799 668.32 336.936 668.32 337.128C668.32 338.472 668.348 339.843 668.348 341.214L671.255 342.887C671.255 336.415 670.212 337.046 675.861 340.282V336.936C674.655 336.25 673.476 335.537 672.297 334.852C672.132 334.77 672.077 334.578 672.159 334.413L672.653 333.563C672.735 333.399 672.955 333.344 673.119 333.426C673.997 333.947 674.929 334.468 675.861 335.016V332.329C675.861 332.137 675.999 332 676.191 332H677.205C677.37 332 677.534 332.137 677.534 332.329V334.962C678.439 334.441 679.317 333.947 680.222 333.426C680.386 333.344 680.578 333.399 680.688 333.536L681.154 334.386C681.264 334.55 681.209 334.77 681.044 334.852C679.893 335.51 678.713 336.223 677.534 336.909V340.227C683.156 336.991 682.086 336.415 682.086 342.914L684.938 341.269C684.938 339.87 684.993 338.472 684.993 337.155C684.993 336.963 685.13 336.799 685.322 336.799H686.282C686.474 336.799 686.638 336.963 686.638 337.155C686.638 338.197 686.638 339.239 686.638 340.282L688.969 338.938C689.134 338.856 689.353 338.91 689.436 339.048L689.929 339.925C690.039 340.09 689.984 340.309 689.819 340.391L687.489 341.735C688.393 342.256 689.298 342.777 690.203 343.298C690.368 343.38 690.423 343.6 690.313 343.764L689.819 344.587C689.737 344.751 689.545 344.806 689.381 344.724C688.202 344.038 687.022 343.38 685.816 342.695L682.936 344.367C688.503 347.576 688.503 346.369 682.882 349.605L685.788 351.278ZM672.105 348.673L675.011 347L672.105 345.327L669.198 347L672.105 348.673ZM677.534 345.547L680.414 343.874V340.501L677.534 342.174V345.547ZM681.264 345.327L678.357 347L681.209 348.645L684.116 346.973L681.264 345.327ZM675.861 348.453L672.9 350.154V353.472L675.861 351.771V348.453ZM672.927 343.846L675.861 345.547V342.229L672.927 340.528V343.846ZM680.386 350.099L677.534 348.453V351.771L680.386 353.444V350.099Z" fill="#00BFFF"/>
<rect x="640" y="328" width="10" height="70" fill="#A1A1A1"/>
<path d="M451 328.5L483 296V365L451 398V328.5Z" fill="#007AFF"/>
<path d="M483 296H493L461 328H451L483 296Z" fill="#A9A9A9"/>
<path d="M483 365H493L461 397.5H451L483 365Z" fill="#3592F7"/>
<path d="M461 328L493 296V365L461 398V328Z" fill="#848484"/>
<path d="M463 328L492 299V364L463 394V328Z" fill="#BB5F5F"/>
<rect x="451" y="328" width="10" height="70" fill="#A1A1A1"/>
<path d="M509.238 356.139C510.432 356.139 511.599 355.889 512.765 355.361C513.627 354.972 514.46 354.778 515.293 354.778C515.515 354.778 515.71 354.805 515.877 354.833C515.765 354.944 515.015 355.694 515.015 355.778C515.015 356.028 515.404 356.083 515.543 356.083C516.238 356.083 518.515 354.639 519.099 354.333C519.293 354.222 519.293 353.944 519.099 353.833C518.488 353.5 516.127 352.111 515.543 352.111C515.404 352.111 515.015 352.166 515.015 352.389C515.015 352.5 515.904 353.389 515.988 353.444C515.738 353.444 515.488 353.444 515.293 353.444C514.099 353.444 512.932 353.694 511.765 354.222C510.904 354.583 510.071 354.778 509.238 354.778C507.182 354.778 507.154 353.722 506.21 354.778C505.21 355.916 508.043 356.139 509.238 356.139ZM509.238 344.583C510.432 344.583 511.599 344.333 512.765 343.805C513.627 343.416 514.46 343.222 515.293 343.222C515.515 343.222 515.71 343.25 515.877 343.278C515.765 343.389 515.015 344.139 515.015 344.25C515.015 344.472 515.404 344.528 515.543 344.528C516.238 344.528 518.515 343.083 519.099 342.778C519.293 342.666 519.293 342.389 519.099 342.278C518.488 341.972 516.127 340.555 515.543 340.555C515.404 340.555 515.015 340.611 515.015 340.833C515.015 340.944 515.904 341.833 515.988 341.889C515.738 341.889 515.488 341.889 515.293 341.889C514.099 341.889 512.932 342.139 511.765 342.666C510.904 343.055 510.071 343.222 509.238 343.222C507.182 343.222 507.154 342.194 506.21 343.25C505.21 344.361 508.043 344.583 509.238 344.583ZM509.238 350.389C510.432 350.389 511.599 350.111 512.765 349.611C513.627 349.222 514.46 349.028 515.293 349.028C515.515 349.028 515.71 349.028 515.877 349.055C515.765 349.194 515.015 349.916 515.015 350.028C515.015 350.25 515.404 350.305 515.543 350.305C516.238 350.305 518.515 348.889 519.099 348.583C519.293 348.472 519.293 348.166 519.099 348.055C518.488 347.75 516.127 346.333 515.543 346.333C515.404 346.333 515.015 346.416 515.015 346.639C515.015 346.75 515.904 347.611 515.988 347.694C515.738 347.666 515.488 347.666 515.293 347.666C514.099 347.666 512.932 347.944 511.765 348.444C510.904 348.833 510.071 349.028 509.238 349.028C507.182 349.028 507.154 347.972 506.21 349.028C505.21 350.166 508.043 350.389 509.238 350.389Z" fill="#00BFFF"/>
<path d="M498.082 349.402L503.992 348.518L498.259 347.668L507.035 343.952L497.339 345.014L502.045 341.298L496.666 343.422L502.399 335.813L494.543 341.581L496.772 335.99L493.163 340.52L494.331 331.071L490.402 339.989L489.518 334.079L488.668 339.812L484.952 331L486.014 340.697L482.298 335.99L484.422 341.369L476.813 335.636L482.581 343.492L476.99 341.263L481.52 344.873L472.071 343.705L480.989 347.633L475.079 348.518L480.812 349.367L472 353.083L481.697 352.021L476.99 355.737L482.369 353.614L476.636 361.222L484.492 355.454L482.263 361.045L485.873 356.516L484.74 365.965L488.668 357.047L489.553 362.957L490.402 357.223L494.118 366L493.057 356.303L496.772 361.01L494.649 355.631L502.258 361.364L496.489 353.508L502.081 355.737L497.551 352.127L507 353.295L498.082 349.402ZM489.518 356.728C484.988 356.728 481.307 353.048 481.307 348.518C481.307 343.988 484.988 340.307 489.518 340.307C494.047 340.307 497.728 343.988 497.728 348.518C497.728 353.048 494.047 356.728 489.518 356.728Z" fill="#00BFFF"/>
<path d="M497 348.5C497 352.642 493.642 356 489.5 356C485.358 356 482 352.642 482 348.5C482 344.358 485.358 341 489.5 341C493.642 341 497 344.358 497 348.5Z" fill="#00BFFF"/>
<path d="M416 347.116V434H422V347.116C420 346.961 418.5 346.961 416 347.116Z" fill="url(#paint1_linear)"/>
<path d="M457.579 340H423V346H457.579C460.598 343.967 461.009 342.463 457.579 340Z" fill="url(#paint2_linear)"/>
<path d="M422.224 340.037L422.001 346L420.668 340.037H422.224Z" fill="url(#paint3_linear)"/>
<path d="M420.668 340.037L422 346L417.558 340.811C418.671 340.073 419.305 339.916 420.668 340.037Z" fill="url(#paint4_linear)"/>
<path d="M416 347V346H422V347H416Z" fill="url(#paint5_linear)"/>
<path d="M423 346H422V340H423V346Z" fill="url(#paint6_linear)"/>
<path d="M416.003 346.227L422.001 346L416.003 344.679V346.227Z" fill="url(#paint7_linear)"/>
<path d="M416.002 344.679L422 346L417.557 340.811C416.231 341.727 415.976 342.645 416.002 344.679Z" fill="url(#paint8_linear)"/>
<path d="M457.661 386H443V392H457.661C460.12 389.852 461.376 388.974 457.661 386Z" fill="url(#paint9_linear)"/>
<path d="M442.223 386.037L442 392L440.667 386.037H442.223Z" fill="url(#paint10_linear)"/>
<path d="M440.667 386.037L441.999 392L437.557 386.811C438.67 386.073 439.304 385.916 440.667 386.037Z" fill="url(#paint11_linear)"/>
<path d="M436 393V392H442V393H436Z" fill="url(#paint12_linear)"/>
<path d="M443 392H442V386H443V392Z" fill="url(#paint13_linear)"/>
<path d="M436.002 392.227L442 392L436.002 390.679V392.227Z" fill="url(#paint14_linear)"/>
<path d="M436.002 390.679L442 392L437.557 386.811C436.231 387.727 435.976 388.645 436.002 390.679Z" fill="url(#paint15_linear)"/>
<path d="M400 527V547H408V527H400Z" fill="url(#paint16_linear)"/>
<path d="M436 393V547H442V393H436Z" fill="url(#paint17_linear)"/>
<path d="M606 347.116V434H612V347.116C610 346.961 608.5 346.961 606 347.116Z" fill="url(#paint18_linear)"/>
<path d="M647.579 340H613V346H647.579C650.598 343.967 651.009 342.463 647.579 340Z" fill="url(#paint19_linear)"/>
<path d="M612.224 340.037L612.001 346L610.668 340.037H612.224Z" fill="url(#paint20_linear)"/>
<path d="M610.668 340.037L612 346L607.558 340.811C608.671 340.073 609.305 339.916 610.668 340.037Z" fill="url(#paint21_linear)"/>
<path d="M606 347V346H612V347H606Z" fill="url(#paint22_linear)"/>
<path d="M613 346H612V340H613V346Z" fill="url(#paint23_linear)"/>
<path d="M606.003 346.227L612.001 346L606.003 344.679V346.227Z" fill="url(#paint24_linear)"/>
<path d="M606.002 344.679L612 346L607.557 340.811C606.231 341.727 605.976 342.645 606.002 344.679Z" fill="url(#paint25_linear)"/>
<path d="M647.661 386H633V392H647.661C650.12 389.852 651.376 388.974 647.661 386Z" fill="url(#paint26_linear)"/>
<path d="M632.223 386.037L632 392L630.667 386.037H632.223Z" fill="url(#paint27_linear)"/>
<path d="M630.667 386.037L631.999 392L627.557 386.811C628.67 386.073 629.304 385.916 630.667 386.037Z" fill="url(#paint28_linear)"/>
<path d="M626 393V392H632V393H626Z" fill="url(#paint29_linear)"/>
<path d="M633 392H632V386H633V392Z" fill="url(#paint30_linear)"/>
<path d="M626.002 392.227L632 392L626.002 390.679V392.227Z" fill="url(#paint31_linear)"/>
<path d="M626.002 390.679L632 392L627.557 386.811C626.231 387.727 625.976 388.645 626.002 390.679Z" fill="url(#paint32_linear)"/>
<path d="M590 527V547H598V527H590Z" fill="url(#paint33_linear)"/>
<path d="M626 393V547H632V393H626Z" fill="url(#paint34_linear)"/>
<path d="M195 306V335H198V306H195Z" fill="url(#paint35_linear)"/>
<path d="M888.183 329.83L888.198 329.845H888.218H908.645C910.546 329.845 912.141 331.366 912.141 333.264V394.859C912.141 395.847 911.755 396.582 911.133 397.072C910.51 397.562 909.647 397.809 908.691 397.809H897.191H886.191C880.977 397.81 876.688 397.809 871.86 397.809C868.355 397.809 864.565 397.809 859.929 397.809C848.92 397.809 838.989 393.344 831.752 386.107C824.515 378.87 820.05 368.939 820.05 357.93C820.05 346.921 824.515 336.913 831.752 329.753L831.752 329.753C838.989 322.516 848.92 318.051 859.929 318.051C870.938 318.051 880.946 322.516 888.106 329.753L888.106 329.753L888.183 329.83ZM885.248 332.612L885.247 332.611C878.763 326.205 869.809 322.191 859.929 322.191C850.049 322.191 841.094 326.205 834.687 332.612C828.204 339.096 824.19 348.05 824.19 357.93C824.19 367.81 828.203 376.765 834.687 383.172C841.094 389.656 850.049 393.67 859.929 393.67C869.809 393.67 878.764 389.656 885.248 383.172C891.654 376.765 895.668 367.811 895.668 357.93C895.668 348.05 891.654 339.096 885.248 332.612Z" fill="url(#paint36_linear)" stroke="#848484" stroke-width="0.1"/>
<circle cx="860.191" cy="357.859" r="36" transform="rotate(-180 860.191 357.859)" fill="#808080"/>
<path d="M292 328.5L324 296V365L292 398V328.5Z" fill="#007AFF"/>
<path d="M324 296H334L302 328H292L324 296Z" fill="#A9A9A9"/>
<path d="M324 365H334L302 397.5H292L324 365Z" fill="#3592F7"/>
<path d="M302 328L334 296V365L302 398V328Z" fill="#848484"/>
<path d="M304 328L333 299V364L304 394V328Z" fill="#C0A57F"/>
<rect x="292" y="328" width="10" height="70" fill="#A1A1A1"/>
<path d="M329.155 333.278C328.849 342.306 328.849 351.361 329.155 360.389C329.155 360.75 330.099 361.278 330.127 360.917C330.433 351.528 330.433 342.139 330.127 332.75C330.099 332.389 329.155 332.917 329.155 333.278ZM317.738 331.833C317.738 330.278 318.877 331.528 320.349 332.333C323.683 330.556 321.155 330.556 324.488 332.333C327.794 330.556 325.294 330.556 328.599 332.333C330.072 331.528 331.211 330.278 331.211 331.833C331.211 341.833 331.488 351.833 331.211 361.833C331.183 363.056 328.988 361.556 328.599 361.333C325.183 363.167 327.905 363.167 324.488 361.333C321.072 363.167 323.766 363.167 320.349 361.333C318.461 362.361 317.738 363.583 317.738 361.833V331.833ZM319.794 333.278C319.794 332.917 318.849 332.389 318.849 332.75C318.516 342.139 318.516 351.528 318.849 360.917C318.849 361.278 319.794 360.75 319.794 360.389C320.127 351.361 320.127 342.306 319.794 333.278ZM321.849 360.917C322.183 351.528 322.183 342.139 321.849 332.75C321.849 332.389 320.905 332.917 320.905 333.278C320.572 342.306 320.599 351.361 320.905 360.389C320.905 360.75 321.849 361.278 321.849 360.917ZM323.933 333.278C323.905 332.917 322.988 332.389 322.961 332.75C322.627 342.139 322.627 351.528 322.961 360.917C322.988 361.278 323.905 360.75 323.933 360.389C324.238 351.361 324.238 342.306 323.933 333.278ZM325.988 360.917C326.322 351.528 326.322 342.139 325.988 332.75C325.988 332.389 325.044 332.917 325.016 333.278C324.711 342.306 324.711 351.361 325.016 360.389C325.044 360.75 325.988 361.278 325.988 360.917ZM328.044 333.278C328.044 332.917 327.099 332.389 327.099 332.75C326.766 342.139 326.766 351.528 327.099 360.917C327.099 361.278 328.044 360.75 328.044 360.389C328.377 351.361 328.377 342.306 328.044 333.278Z" fill="#00BFFF"/>
<path d="M336.238 355.139C337.432 355.139 338.599 354.889 339.765 354.361C340.627 353.972 341.46 353.778 342.293 353.778C342.515 353.778 342.71 353.805 342.877 353.833C342.765 353.944 342.015 354.694 342.015 354.778C342.015 355.028 342.404 355.083 342.543 355.083C343.238 355.083 345.515 353.639 346.099 353.333C346.293 353.222 346.293 352.944 346.099 352.833C345.488 352.5 343.127 351.111 342.543 351.111C342.404 351.111 342.015 351.166 342.015 351.389C342.015 351.5 342.904 352.389 342.988 352.444C342.738 352.444 342.488 352.444 342.293 352.444C341.099 352.444 339.932 352.694 338.765 353.222C337.904 353.583 337.071 353.778 336.238 353.778C334.182 353.778 334.154 352.722 333.21 353.778C332.21 354.916 335.043 355.139 336.238 355.139ZM336.238 343.583C337.432 343.583 338.599 343.333 339.765 342.805C340.627 342.416 341.46 342.222 342.293 342.222C342.515 342.222 342.71 342.25 342.877 342.278C342.765 342.389 342.015 343.139 342.015 343.25C342.015 343.472 342.404 343.528 342.543 343.528C343.238 343.528 345.515 342.083 346.099 341.778C346.293 341.666 346.293 341.389 346.099 341.278C345.488 340.972 343.127 339.555 342.543 339.555C342.404 339.555 342.015 339.611 342.015 339.833C342.015 339.944 342.904 340.833 342.988 340.889C342.738 340.889 342.488 340.889 342.293 340.889C341.099 340.889 339.932 341.139 338.765 341.666C337.904 342.055 337.071 342.222 336.238 342.222C334.182 342.222 334.154 341.194 333.21 342.25C332.21 343.361 335.043 343.583 336.238 343.583ZM336.238 349.389C337.432 349.389 338.599 349.111 339.765 348.611C340.627 348.222 341.46 348.028 342.293 348.028C342.515 348.028 342.71 348.028 342.877 348.055C342.765 348.194 342.015 348.916 342.015 349.028C342.015 349.25 342.404 349.305 342.543 349.305C343.238 349.305 345.515 347.889 346.099 347.583C346.293 347.472 346.293 347.166 346.099 347.055C345.488 346.75 343.127 345.333 342.543 345.333C342.404 345.333 342.015 345.416 342.015 345.639C342.015 345.75 342.904 346.611 342.988 346.694C342.738 346.666 342.488 346.666 342.293 346.666C341.099 346.666 339.932 346.944 338.765 347.444C337.904 347.833 337.071 348.028 336.238 348.028C334.182 348.028 334.154 346.972 333.21 348.028C332.21 349.166 335.043 349.389 336.238 349.389Z" fill="#00BFFF"/>
<rect x="255" y="297" width="5" height="68" fill="#A9C7C9"/>
<rect x="247" y="297" width="5" height="68" fill="#A9C7C9"/>
<path d="M247 297H252L221 329H216L247 297Z" fill="#C4C4C4"/>
<path d="M255 297H260L229 329H224L255 297Z" fill="#C4C4C4"/>
<path d="M247 358H260L229 390H216L247 358Z" fill="url(#paint37_linear)"/>
<path d="M247 326H260L229 358H216L247 326Z" fill="url(#paint38_linear)"/>
<path d="M247 342H260L229 374H216L247 342Z" fill="url(#paint39_linear)"/>
<path d="M247 310H260L229 342H216L247 310Z" fill="url(#paint40_linear)"/>
<rect x="216" y="358" width="13" height="1" fill="#BEBEBE"/>
<rect x="216" y="342" width="13" height="1" fill="#BEBEBE"/>
<rect x="216" y="390" width="13" height="1" fill="#BEBEBE"/>
<rect x="216" y="374" width="13" height="1" fill="#BEBEBE"/>
<rect x="224" y="329" width="5" height="70" fill="#CFE2E9"/>
<rect x="216" y="329" width="5" height="70" fill="#CFE2E9"/>
<circle cx="218.5" cy="342.5" r="1.5" fill="#C4C4C4"/>
<circle cx="226.5" cy="342.5" r="1.5" fill="#C4C4C4"/>
<circle cx="218.5" cy="358.5" r="1.5" fill="#C4C4C4"/>
<circle cx="226.5" cy="358.5" r="1.5" fill="#C4C4C4"/>
<circle cx="218.5" cy="390.5" r="1.5" fill="#C4C4C4"/>
<circle cx="226.5" cy="390.5" r="1.5" fill="#C4C4C4"/>
<circle cx="218.5" cy="374.5" r="1.5" fill="#C4C4C4"/>
<circle cx="226.5" cy="374.5" r="1.5" fill="#C4C4C4"/>
<path d="M134.477 296H1103L1070.31 328H103L134.477 296Z" fill="white" fill-opacity="0.5"/>
<defs>
<linearGradient id="paint0_linear" x1="603" y1="364" x2="603" y2="409.333" gradientUnits="userSpaceOnUse">
<stop stop-color="#A6A5A5"/>
<stop offset="1" stop-color="white"/>
</linearGradient>
<linearGradient id="paint1_linear" x1="416" y1="390.558" x2="422" y2="390.558" gradientUnits="userSpaceOnUse">
<stop stop-color="#848484"/>
<stop offset="0.519337" stop-color="white"/>
<stop offset="1" stop-color="#848484"/>
</linearGradient>
<linearGradient id="paint2_linear" x1="440.29" y1="340" x2="440.29" y2="346" gradientUnits="userSpaceOnUse">
<stop stop-color="#848484"/>
<stop offset="0.519337" stop-color="white"/>
<stop offset="1" stop-color="#848484"/>
</linearGradient>
<linearGradient id="paint3_linear" x1="422.224" y1="340.037" x2="422.224" y2="346.226" gradientUnits="userSpaceOnUse">
<stop stop-color="#848484"/>
<stop offset="0.478645" stop-color="white"/>
<stop offset="1" stop-color="#848484"/>
</linearGradient>
<linearGradient id="paint4_linear" x1="419.89" y1="340.037" x2="420.66" y2="346.227" gradientUnits="userSpaceOnUse">
<stop stop-color="#848484"/>
<stop offset="0.491713" stop-color="white"/>
<stop offset="1" stop-color="#848484"/>
</linearGradient>
<linearGradient id="paint5_linear" x1="416" y1="346.5" x2="422" y2="346.5" gradientUnits="userSpaceOnUse">
<stop stop-color="#848484"/>
<stop offset="0.476897" stop-color="white"/>
<stop offset="1" stop-color="#848484"/>
</linearGradient>
<linearGradient id="paint6_linear" x1="422.5" y1="346" x2="422.5" y2="340" gradientUnits="userSpaceOnUse">
<stop stop-color="#848484"/>
<stop offset="0.508099" stop-color="white"/>
<stop offset="1" stop-color="#848484"/>
</linearGradient>
<linearGradient id="paint7_linear" x1="416.003" y1="346.227" x2="421.44" y2="344.275" gradientUnits="userSpaceOnUse">
<stop stop-color="#848484"/>
<stop offset="0.526042" stop-color="white"/>
<stop offset="1" stop-color="#848484"/>
</linearGradient>
<linearGradient id="paint8_linear" x1="416.002" y1="343.906" x2="421.521" y2="346.297" gradientUnits="userSpaceOnUse">
<stop stop-color="#848484"/>
<stop offset="0.491713" stop-color="white"/>
<stop offset="1" stop-color="#848484"/>
</linearGradient>
<linearGradient id="paint9_linear" x1="450.331" y1="386" x2="450.331" y2="392" gradientUnits="userSpaceOnUse">
<stop stop-color="#848484"/>
<stop offset="0.519337" stop-color="white"/>
<stop offset="1" stop-color="#848484"/>
</linearGradient>
<linearGradient id="paint10_linear" x1="442.223" y1="386.037" x2="442.223" y2="392.226" gradientUnits="userSpaceOnUse">
<stop stop-color="#848484"/>
<stop offset="0.478645" stop-color="white"/>
<stop offset="1" stop-color="#848484"/>
</linearGradient>
<linearGradient id="paint11_linear" x1="439.889" y1="386.037" x2="440.659" y2="392.227" gradientUnits="userSpaceOnUse">
<stop stop-color="#848484"/>
<stop offset="0.491713" stop-color="white"/>
<stop offset="1" stop-color="#848484"/>
</linearGradient>
<linearGradient id="paint12_linear" x1="436" y1="392.5" x2="442" y2="392.5" gradientUnits="userSpaceOnUse">
<stop stop-color="#848484"/>
<stop offset="0.476897" stop-color="white"/>
<stop offset="1" stop-color="#848484"/>
</linearGradient>
<linearGradient id="paint13_linear" x1="442.5" y1="392" x2="442.5" y2="386" gradientUnits="userSpaceOnUse">
<stop stop-color="#848484"/>
<stop offset="0.508099" stop-color="white"/>
<stop offset="1" stop-color="#848484"/>
</linearGradient>
<linearGradient id="paint14_linear" x1="436.002" y1="392.227" x2="441.439" y2="390.275" gradientUnits="userSpaceOnUse">
<stop stop-color="#848484"/>
<stop offset="0.526042" stop-color="white"/>
<stop offset="1" stop-color="#848484"/>
</linearGradient>
<linearGradient id="paint15_linear" x1="436.002" y1="389.906" x2="441.521" y2="392.297" gradientUnits="userSpaceOnUse">
<stop stop-color="#848484"/>
<stop offset="0.491713" stop-color="white"/>
<stop offset="1" stop-color="#848484"/>
</linearGradient>
<linearGradient id="paint16_linear" x1="400" y1="537.013" x2="408" y2="537.013" gradientUnits="userSpaceOnUse">
<stop stop-color="#848484"/>
<stop offset="0.519337" stop-color="white"/>
<stop offset="1" stop-color="#848484"/>
</linearGradient>
<linearGradient id="paint17_linear" x1="436" y1="470.103" x2="442" y2="470.103" gradientUnits="userSpaceOnUse">
<stop stop-color="#848484"/>
<stop offset="0.519337" stop-color="white"/>
<stop offset="1" stop-color="#848484"/>
</linearGradient>
<linearGradient id="paint18_linear" x1="606" y1="390.558" x2="612" y2="390.558" gradientUnits="userSpaceOnUse">
<stop stop-color="#848484"/>
<stop offset="0.519337" stop-color="white"/>
<stop offset="1" stop-color="#848484"/>
</linearGradient>
<linearGradient id="paint19_linear" x1="630.29" y1="340" x2="630.29" y2="346" gradientUnits="userSpaceOnUse">
<stop stop-color="#848484"/>
<stop offset="0.519337" stop-color="white"/>
<stop offset="1" stop-color="#848484"/>
</linearGradient>
<linearGradient id="paint20_linear" x1="612.224" y1="340.037" x2="612.224" y2="346.226" gradientUnits="userSpaceOnUse">
<stop stop-color="#848484"/>
<stop offset="0.478645" stop-color="white"/>
<stop offset="1" stop-color="#848484"/>
</linearGradient>
<linearGradient id="paint21_linear" x1="609.89" y1="340.037" x2="610.66" y2="346.227" gradientUnits="userSpaceOnUse">
<stop stop-color="#848484"/>
<stop offset="0.491713" stop-color="white"/>
<stop offset="1" stop-color="#848484"/>
</linearGradient>
<linearGradient id="paint22_linear" x1="606" y1="346.5" x2="612" y2="346.5" gradientUnits="userSpaceOnUse">
<stop stop-color="#848484"/>
<stop offset="0.476897" stop-color="white"/>
<stop offset="1" stop-color="#848484"/>
</linearGradient>
<linearGradient id="paint23_linear" x1="612.5" y1="346" x2="612.5" y2="340" gradientUnits="userSpaceOnUse">
<stop stop-color="#848484"/>
<stop offset="0.508099" stop-color="white"/>
<stop offset="1" stop-color="#848484"/>
</linearGradient>
<linearGradient id="paint24_linear" x1="606.003" y1="346.227" x2="611.44" y2="344.275" gradientUnits="userSpaceOnUse">
<stop stop-color="#848484"/>
<stop offset="0.526042" stop-color="white"/>
<stop offset="1" stop-color="#848484"/>
</linearGradient>
<linearGradient id="paint25_linear" x1="606.002" y1="343.906" x2="611.521" y2="346.297" gradientUnits="userSpaceOnUse">
<stop stop-color="#848484"/>
<stop offset="0.491713" stop-color="white"/>
<stop offset="1" stop-color="#848484"/>
</linearGradient>
<linearGradient id="paint26_linear" x1="640.331" y1="386" x2="640.331" y2="392" gradientUnits="userSpaceOnUse">
<stop stop-color="#848484"/>
<stop offset="0.519337" stop-color="white"/>
<stop offset="1" stop-color="#848484"/>
</linearGradient>
<linearGradient id="paint27_linear" x1="632.223" y1="386.037" x2="632.223" y2="392.226" gradientUnits="userSpaceOnUse">
<stop stop-color="#848484"/>
<stop offset="0.478645" stop-color="white"/>
<stop offset="1" stop-color="#848484"/>
</linearGradient>
<linearGradient id="paint28_linear" x1="629.889" y1="386.037" x2="630.659" y2="392.227" gradientUnits="userSpaceOnUse">
<stop stop-color="#848484"/>
<stop offset="0.491713" stop-color="white"/>
<stop offset="1" stop-color="#848484"/>
</linearGradient>
<linearGradient id="paint29_linear" x1="626" y1="392.5" x2="632" y2="392.5" gradientUnits="userSpaceOnUse">
<stop stop-color="#848484"/>
<stop offset="0.476897" stop-color="white"/>
<stop offset="1" stop-color="#848484"/>
</linearGradient>
<linearGradient id="paint30_linear" x1="632.5" y1="392" x2="632.5" y2="386" gradientUnits="userSpaceOnUse">
<stop stop-color="#848484"/>
<stop offset="0.508099" stop-color="white"/>
<stop offset="1" stop-color="#848484"/>
</linearGradient>
<linearGradient id="paint31_linear" x1="626.002" y1="392.227" x2="631.439" y2="390.275" gradientUnits="userSpaceOnUse">
<stop stop-color="#848484"/>
<stop offset="0.526042" stop-color="white"/>
<stop offset="1" stop-color="#848484"/>
</linearGradient>
<linearGradient id="paint32_linear" x1="626.002" y1="389.906" x2="631.521" y2="392.297" gradientUnits="userSpaceOnUse">
<stop stop-color="#848484"/>
<stop offset="0.491713" stop-color="white"/>
<stop offset="1" stop-color="#848484"/>
</linearGradient>
<linearGradient id="paint33_linear" x1="590" y1="537.013" x2="598" y2="537.013" gradientUnits="userSpaceOnUse">
<stop stop-color="#848484"/>
<stop offset="0.519337" stop-color="white"/>
<stop offset="1" stop-color="#848484"/>
</linearGradient>
<linearGradient id="paint34_linear" x1="626" y1="470.103" x2="632" y2="470.103" gradientUnits="userSpaceOnUse">
<stop stop-color="#848484"/>
<stop offset="0.519337" stop-color="white"/>
<stop offset="1" stop-color="#848484"/>
</linearGradient>
<linearGradient id="paint35_linear" x1="195" y1="320.5" x2="198" y2="320.5" gradientUnits="userSpaceOnUse">
<stop stop-color="#4F4F4F"/>
<stop offset="0.519337" stop-color="#BDBDBD"/>
<stop offset="1" stop-color="#4F4F4F"/>
</linearGradient>
<linearGradient id="paint36_linear" x1="897.546" y1="329.642" x2="898.316" y2="385.527" gradientUnits="userSpaceOnUse">
<stop stop-color="#848484"/>
<stop offset="0.499267" stop-color="white"/>
<stop offset="1" stop-color="#848484"/>
</linearGradient>
<linearGradient id="paint37_linear" x1="232" y1="374" x2="238.5" y2="380.5" gradientUnits="userSpaceOnUse">
<stop stop-color="#C4C4C4"/>
<stop offset="0.494792" stop-color="white"/>
<stop offset="1" stop-color="#BEBEBE"/>
</linearGradient>
<linearGradient id="paint38_linear" x1="232" y1="342" x2="238.5" y2="348.5" gradientUnits="userSpaceOnUse">
<stop stop-color="#C4C4C4"/>
<stop offset="0.494792" stop-color="white"/>
<stop offset="1" stop-color="#BEBEBE"/>
</linearGradient>
<linearGradient id="paint39_linear" x1="232" y1="358" x2="238.5" y2="364.5" gradientUnits="userSpaceOnUse">
<stop stop-color="#C4C4C4"/>
<stop offset="0.494792" stop-color="white"/>
<stop offset="1" stop-color="#BEBEBE"/>
</linearGradient>
<linearGradient id="paint40_linear" x1="232" y1="326" x2="238.5" y2="332.5" gradientUnits="userSpaceOnUse">
<stop stop-color="#C4C4C4"/>
<stop offset="0.494792" stop-color="white"/>
<stop offset="1" stop-color="#BEBEBE"/>
</linearGradient>
</defs>
</svg>
