<svg width="1280" height="720" viewBox="0 0 1280 720" fill="none" xmlns="http://www.w3.org/2000/svg">
<path d="M141.477 451H1110L1077.31 485H110L141.477 451Z" fill="url(#paint0_linear)"/>
<rect x="143" y="383" width="967" height="68" fill="#848484"/>
<path d="M895.183 416.83L895.198 416.845H895.219H915.646C917.546 416.845 919.141 418.366 919.141 420.264V481.859C919.141 482.847 918.755 483.582 918.133 484.072C917.51 484.562 916.647 484.809 915.692 484.809H904.192H893.192C887.977 484.81 883.689 484.809 878.86 484.809C875.355 484.809 871.565 484.809 866.929 484.809C855.92 484.809 845.989 480.344 838.752 473.107C831.515 465.87 827.05 455.939 827.05 444.93C827.05 433.921 831.515 423.913 838.752 416.753L838.752 416.753C845.989 409.516 855.92 405.051 866.929 405.051C877.938 405.051 887.946 409.516 895.106 416.753L895.106 416.753L895.183 416.83ZM892.248 419.612L892.247 419.611C885.764 413.205 876.81 409.191 866.929 409.191C857.049 409.191 848.095 413.205 841.688 419.612C835.204 426.096 831.19 435.05 831.19 444.93C831.19 454.81 835.204 463.765 841.688 470.172C848.095 476.656 857.049 480.67 866.929 480.67C876.81 480.67 885.764 476.656 892.248 470.172C898.655 463.765 902.669 454.811 902.669 444.93C902.669 435.05 898.655 426.096 892.248 419.612Z" fill="url(#paint1_linear)" stroke="#848484" stroke-width="0.1"/>
<circle cx="867.191" cy="444.859" r="36" transform="rotate(-180 867.191 444.859)" fill="#808080"/>
<path d="M655 415.5L687 383V452L655 485V415.5Z" fill="#007AFF"/>
<path d="M687 383H697L665 415H655L687 383Z" fill="#A9A9A9"/>
<path d="M687 452H697L665 484.5H655L687 452Z" fill="#3592F7"/>
<path d="M665 415L697 383V452L665 485V415Z" fill="#848484"/>
<path d="M667 415L696 386V451L667 481V415Z" fill="#5C82B5"/>
<path d="M710.238 443.139C711.432 443.139 712.599 442.889 713.765 442.361C714.627 441.972 715.46 441.778 716.293 441.778C716.515 441.778 716.71 441.805 716.877 441.833C716.765 441.944 716.015 442.694 716.015 442.778C716.015 443.028 716.404 443.083 716.543 443.083C717.238 443.083 719.515 441.639 720.099 441.333C720.293 441.222 720.293 440.944 720.099 440.833C719.488 440.5 717.127 439.111 716.543 439.111C716.404 439.111 716.015 439.166 716.015 439.389C716.015 439.5 716.904 440.389 716.988 440.444C716.738 440.444 716.488 440.444 716.293 440.444C715.099 440.444 713.932 440.694 712.765 441.222C711.904 441.583 711.071 441.778 710.238 441.778C708.182 441.778 708.154 440.722 707.21 441.778C706.21 442.916 709.043 443.139 710.238 443.139ZM710.238 431.583C711.432 431.583 712.599 431.333 713.765 430.805C714.627 430.416 715.46 430.222 716.293 430.222C716.515 430.222 716.71 430.25 716.877 430.278C716.765 430.389 716.015 431.139 716.015 431.25C716.015 431.472 716.404 431.528 716.543 431.528C717.238 431.528 719.515 430.083 720.099 429.778C720.293 429.666 720.293 429.389 720.099 429.278C719.488 428.972 717.127 427.555 716.543 427.555C716.404 427.555 716.015 427.611 716.015 427.833C716.015 427.944 716.904 428.833 716.988 428.889C716.738 428.889 716.488 428.889 716.293 428.889C715.099 428.889 713.932 429.139 712.765 429.666C711.904 430.055 711.071 430.222 710.238 430.222C708.182 430.222 708.154 429.194 707.21 430.25C706.21 431.361 709.043 431.583 710.238 431.583ZM710.238 437.389C711.432 437.389 712.599 437.111 713.765 436.611C714.627 436.222 715.46 436.028 716.293 436.028C716.515 436.028 716.71 436.028 716.877 436.055C716.765 436.194 716.015 436.916 716.015 437.028C716.015 437.25 716.404 437.305 716.543 437.305C717.238 437.305 719.515 435.889 720.099 435.583C720.293 435.472 720.293 435.166 720.099 435.055C719.488 434.75 717.127 433.333 716.543 433.333C716.404 433.333 716.015 433.416 716.015 433.639C716.015 433.75 716.904 434.611 716.988 434.694C716.738 434.666 716.488 434.666 716.293 434.666C715.099 434.666 713.932 434.944 712.765 435.444C711.904 435.833 711.071 436.028 710.238 436.028C708.182 436.028 708.154 434.972 707.21 436.028C706.21 437.166 709.043 437.389 710.238 437.389Z" fill="#00BFFF"/>
<path d="M700.788 438.278C701.995 437.62 703.202 436.934 704.353 436.276C704.518 436.194 704.71 436.249 704.819 436.413L705.286 437.263C705.395 437.4 705.34 437.62 705.176 437.702L702.489 439.265L704.819 440.609C704.984 440.691 705.039 440.91 704.929 441.075L704.436 441.952C704.353 442.09 704.134 442.144 703.969 442.062L701.638 440.718V443.872C701.638 444.064 701.474 444.201 701.309 444.201H700.322C700.13 444.201 699.993 444.064 699.993 443.872C699.993 442.528 699.966 441.13 699.966 439.731L697.059 438.086C697.059 444.53 698.101 443.927 692.534 440.718V444.064C693.713 444.75 694.893 445.49 696.017 446.148C696.181 446.23 696.236 446.422 696.154 446.587L695.66 447.437C695.578 447.601 695.359 447.656 695.194 447.574L692.534 446.011V448.671C692.534 448.863 692.37 449 692.205 449H691.191C690.999 449 690.861 448.863 690.861 448.671V445.984L688.092 447.574C687.927 447.656 687.735 447.601 687.626 447.464L687.159 446.614C687.05 446.45 687.105 446.23 687.269 446.148C688.421 445.49 689.655 444.722 690.861 444.037V440.691C685.212 443.954 686.227 444.612 686.227 438.113L683.348 439.786C683.348 441.13 683.32 442.528 683.32 443.845C683.32 444.037 683.183 444.201 682.991 444.201H682.032C681.84 444.201 681.675 444.037 681.675 443.845C681.675 442.83 681.675 441.788 681.675 440.746L679.399 442.062C679.234 442.144 679.042 442.09 678.933 441.952L678.439 441.075C678.357 440.91 678.412 440.691 678.549 440.609L680.852 439.293L678.11 437.702C677.946 437.62 677.891 437.4 678 437.236L678.494 436.413C678.576 436.249 678.768 436.194 678.933 436.276C680.112 436.962 681.346 437.62 682.553 438.305L685.432 436.633C679.81 433.397 679.81 434.603 685.432 431.367L682.525 429.667C681.319 430.353 680.139 431.038 678.96 431.724C678.796 431.806 678.604 431.751 678.494 431.587L678.028 430.737C677.918 430.6 677.973 430.38 678.138 430.298C679.042 429.777 679.947 429.229 680.852 428.707L678.549 427.391C678.412 427.309 678.357 427.09 678.439 426.925L678.933 426.048C679.042 425.91 679.234 425.856 679.399 425.938L681.675 427.254V424.128C681.675 423.936 681.84 423.799 682.004 423.799H682.991C683.183 423.799 683.32 423.936 683.32 424.128C683.32 425.472 683.348 426.843 683.348 428.214L686.255 429.887C686.255 423.415 685.212 424.046 690.861 427.282V423.936C689.655 423.25 688.476 422.537 687.297 421.852C687.132 421.77 687.077 421.578 687.159 421.413L687.653 420.563C687.735 420.399 687.955 420.344 688.119 420.426C688.997 420.947 689.929 421.468 690.861 422.016V419.329C690.861 419.137 690.999 419 691.191 419H692.205C692.37 419 692.534 419.137 692.534 419.329V421.962C693.439 421.441 694.317 420.947 695.222 420.426C695.386 420.344 695.578 420.399 695.688 420.536L696.154 421.386C696.264 421.55 696.209 421.77 696.044 421.852C694.893 422.51 693.713 423.223 692.534 423.909V427.227C698.156 423.991 697.086 423.415 697.086 429.914L699.938 428.269C699.938 426.87 699.993 425.472 699.993 424.155C699.993 423.963 700.13 423.799 700.322 423.799H701.282C701.474 423.799 701.638 423.963 701.638 424.155C701.638 425.197 701.638 426.239 701.638 427.282L703.969 425.938C704.134 425.856 704.353 425.91 704.436 426.048L704.929 426.925C705.039 427.09 704.984 427.309 704.819 427.391L702.489 428.735C703.393 429.256 704.298 429.777 705.203 430.298C705.368 430.38 705.423 430.6 705.313 430.764L704.819 431.587C704.737 431.751 704.545 431.806 704.381 431.724C703.202 431.038 702.022 430.38 700.816 429.695L697.936 431.367C703.503 434.576 703.503 433.369 697.882 436.605L700.788 438.278ZM687.105 435.673L690.011 434L687.105 432.327L684.198 434L687.105 435.673ZM692.534 432.547L695.414 430.874V427.501L692.534 429.174V432.547ZM696.264 432.327L693.357 434L696.209 435.645L699.116 433.973L696.264 432.327ZM690.861 435.453L687.9 437.154V440.472L690.861 438.771V435.453ZM687.927 430.846L690.861 432.547V429.229L687.927 427.528V430.846ZM695.386 437.099L692.534 435.453V438.771L695.386 440.444V437.099Z" fill="#00BFFF"/>
<rect x="655" y="415" width="10" height="70" fill="#A1A1A1"/>
<path d="M620 434.266V634H626V434.266C624 433.911 622.5 433.911 620 434.266Z" fill="url(#paint2_linear)"/>
<path d="M661.579 427H627V433H661.579C664.598 430.967 665.009 429.463 661.579 427Z" fill="url(#paint3_linear)"/>
<path d="M626.224 427.037L626.001 433L624.668 427.037H626.224Z" fill="url(#paint4_linear)"/>
<path d="M624.668 427.037L626 433L621.558 427.811C622.671 427.073 623.305 426.916 624.668 427.037Z" fill="url(#paint5_linear)"/>
<path d="M620 434V433H626V434H620Z" fill="url(#paint6_linear)"/>
<path d="M627 433H626V427H627V433Z" fill="url(#paint7_linear)"/>
<path d="M620.003 433.227L626.001 433L620.003 431.679V433.227Z" fill="url(#paint8_linear)"/>
<path d="M620.002 431.679L626 433L621.557 427.811C620.231 428.727 619.976 429.645 620.002 431.679Z" fill="url(#paint9_linear)"/>
<path d="M661.661 473H647V479H661.661C664.12 476.852 665.376 475.974 661.661 473Z" fill="url(#paint10_linear)"/>
<path d="M646.223 473.037L646 479L644.667 473.037H646.223Z" fill="url(#paint11_linear)"/>
<path d="M644.667 473.037L645.999 479L641.557 473.811C642.67 473.073 643.304 472.916 644.667 473.037Z" fill="url(#paint12_linear)"/>
<path d="M640 480V479H646V480H640Z" fill="url(#paint13_linear)"/>
<path d="M647 479H646V473H647V479Z" fill="url(#paint14_linear)"/>
<path d="M640.002 479.227L646 479L640.002 477.679V479.227Z" fill="url(#paint15_linear)"/>
<path d="M640.002 477.679L646 479L641.557 473.811C640.231 474.727 639.976 475.645 640.002 477.679Z" fill="url(#paint16_linear)"/>
<path d="M640 480V634H646V480H640Z" fill="url(#paint17_linear)"/>
<path d="M501 415.5L533 383V452L501 485V415.5Z" fill="#007AFF"/>
<path d="M533 383H543L511 415H501L533 383Z" fill="#A9A9A9"/>
<path d="M533 452H543L511 484.5H501L533 452Z" fill="#3592F7"/>
<path d="M511 415L543 383V452L511 485V415Z" fill="#848484"/>
<path d="M513 415L542 386V451L513 481V415Z" fill="#BB5F5F"/>
<rect x="501" y="415" width="10" height="70" fill="#A1A1A1"/>
<path d="M559.238 443.139C560.432 443.139 561.599 442.889 562.765 442.361C563.627 441.972 564.46 441.778 565.293 441.778C565.515 441.778 565.71 441.805 565.877 441.833C565.765 441.944 565.015 442.694 565.015 442.778C565.015 443.028 565.404 443.083 565.543 443.083C566.238 443.083 568.515 441.639 569.099 441.333C569.293 441.222 569.293 440.944 569.099 440.833C568.488 440.5 566.127 439.111 565.543 439.111C565.404 439.111 565.015 439.166 565.015 439.389C565.015 439.5 565.904 440.389 565.988 440.444C565.738 440.444 565.488 440.444 565.293 440.444C564.099 440.444 562.932 440.694 561.765 441.222C560.904 441.583 560.071 441.778 559.238 441.778C557.182 441.778 557.154 440.722 556.21 441.778C555.21 442.916 558.043 443.139 559.238 443.139ZM559.238 431.583C560.432 431.583 561.599 431.333 562.765 430.805C563.627 430.416 564.46 430.222 565.293 430.222C565.515 430.222 565.71 430.25 565.877 430.278C565.765 430.389 565.015 431.139 565.015 431.25C565.015 431.472 565.404 431.528 565.543 431.528C566.238 431.528 568.515 430.083 569.099 429.778C569.293 429.666 569.293 429.389 569.099 429.278C568.488 428.972 566.127 427.555 565.543 427.555C565.404 427.555 565.015 427.611 565.015 427.833C565.015 427.944 565.904 428.833 565.988 428.889C565.738 428.889 565.488 428.889 565.293 428.889C564.099 428.889 562.932 429.139 561.765 429.666C560.904 430.055 560.071 430.222 559.238 430.222C557.182 430.222 557.154 429.194 556.21 430.25C555.21 431.361 558.043 431.583 559.238 431.583ZM559.238 437.389C560.432 437.389 561.599 437.111 562.765 436.611C563.627 436.222 564.46 436.028 565.293 436.028C565.515 436.028 565.71 436.028 565.877 436.055C565.765 436.194 565.015 436.916 565.015 437.028C565.015 437.25 565.404 437.305 565.543 437.305C566.238 437.305 568.515 435.889 569.099 435.583C569.293 435.472 569.293 435.166 569.099 435.055C568.488 434.75 566.127 433.333 565.543 433.333C565.404 433.333 565.015 433.416 565.015 433.639C565.015 433.75 565.904 434.611 565.988 434.694C565.738 434.666 565.488 434.666 565.293 434.666C564.099 434.666 562.932 434.944 561.765 435.444C560.904 435.833 560.071 436.028 559.238 436.028C557.182 436.028 557.154 434.972 556.21 436.028C555.21 437.166 558.043 437.389 559.238 437.389Z" fill="#00BFFF"/>
<path d="M548.082 436.402L553.992 435.518L548.259 434.668L557.035 430.952L547.339 432.014L552.045 428.298L546.666 430.422L552.399 422.813L544.543 428.581L546.772 422.99L543.163 427.52L544.331 418.071L540.402 426.989L539.518 421.079L538.668 426.812L534.952 418L536.014 427.697L532.298 422.99L534.422 428.369L526.813 422.636L532.581 430.492L526.99 428.263L531.52 431.873L522.071 430.705L530.989 434.633L525.079 435.518L530.812 436.367L522 440.083L531.697 439.021L526.99 442.737L532.369 440.614L526.636 448.222L534.492 442.454L532.263 448.045L535.873 443.516L534.74 452.965L538.668 444.047L539.553 449.957L540.402 444.223L544.118 453L543.057 443.303L546.772 448.01L544.649 442.631L552.258 448.364L546.489 440.508L552.081 442.737L547.551 439.127L557 440.295L548.082 436.402ZM539.518 443.728C534.988 443.728 531.307 440.048 531.307 435.518C531.307 430.988 534.988 427.307 539.518 427.307C544.047 427.307 547.728 430.988 547.728 435.518C547.728 440.048 544.047 443.728 539.518 443.728Z" fill="#00BFFF"/>
<path d="M547 435.5C547 439.642 543.642 443 539.5 443C535.358 443 532 439.642 532 435.5C532 431.358 535.358 428 539.5 428C543.642 428 547 431.358 547 435.5Z" fill="#00BFFF"/>
<path d="M466 434.266V634H472V434.266C470 433.911 468.5 433.911 466 434.266Z" fill="url(#paint18_linear)"/>
<path d="M507.579 427H473V433H507.579C510.598 430.967 511.009 429.463 507.579 427Z" fill="url(#paint19_linear)"/>
<path d="M472.224 427.037L472.001 433L470.668 427.037H472.224Z" fill="url(#paint20_linear)"/>
<path d="M470.668 427.037L472 433L467.557 427.811C468.671 427.073 469.305 426.916 470.668 427.037Z" fill="url(#paint21_linear)"/>
<path d="M466 434V433H472V434H466Z" fill="url(#paint22_linear)"/>
<path d="M473 433H472V427H473V433Z" fill="url(#paint23_linear)"/>
<path d="M466.003 433.227L472.001 433L466.003 431.679V433.227Z" fill="url(#paint24_linear)"/>
<path d="M466.002 431.679L472 433L467.557 427.811C466.231 428.727 465.975 429.645 466.002 431.679Z" fill="url(#paint25_linear)"/>
<path d="M507.661 473H493V479H507.661C510.12 476.852 511.376 475.974 507.661 473Z" fill="url(#paint26_linear)"/>
<path d="M492.223 473.037L492 479L490.667 473.037H492.223Z" fill="url(#paint27_linear)"/>
<path d="M490.667 473.037L491.999 479L487.557 473.811C488.67 473.073 489.304 472.916 490.667 473.037Z" fill="url(#paint28_linear)"/>
<path d="M486 480V479H492V480H486Z" fill="url(#paint29_linear)"/>
<path d="M493 479H492V473H493V479Z" fill="url(#paint30_linear)"/>
<path d="M486.002 479.227L492 479L486.002 477.679V479.227Z" fill="url(#paint31_linear)"/>
<path d="M486.002 477.679L492 479L487.557 473.811C486.231 474.727 485.975 475.645 486.002 477.679Z" fill="url(#paint32_linear)"/>
<path d="M486 480V634H492V480H486Z" fill="url(#paint33_linear)"/>
<path d="M219 415.5L251 383V452L219 485V415.5Z" fill="#007AFF"/>
<path d="M251 383H261L229 415H219L251 383Z" fill="#A9A9A9"/>
<path d="M251 452H261L229 484.5H219L251 452Z" fill="#3592F7"/>
<path d="M229 415L261 383V452L229 485V415Z" fill="#848484"/>
<path d="M231 415L260 386V451L231 481V415Z" fill="#C0A57F"/>
<rect x="219" y="415" width="10" height="70" fill="#A1A1A1"/>
<path d="M256.155 420.278C255.849 429.306 255.849 438.361 256.155 447.389C256.155 447.75 257.099 448.278 257.127 447.917C257.433 438.528 257.433 429.139 257.127 419.75C257.099 419.389 256.155 419.917 256.155 420.278ZM244.738 418.833C244.738 417.278 245.877 418.528 247.349 419.333C250.683 417.556 248.155 417.556 251.488 419.333C254.794 417.556 252.294 417.556 255.599 419.333C257.072 418.528 258.211 417.278 258.211 418.833C258.211 428.833 258.488 438.833 258.211 448.833C258.183 450.056 255.988 448.556 255.599 448.333C252.183 450.167 254.905 450.167 251.488 448.333C248.072 450.167 250.766 450.167 247.349 448.333C245.461 449.361 244.738 450.583 244.738 448.833V418.833ZM246.794 420.278C246.794 419.917 245.849 419.389 245.849 419.75C245.516 429.139 245.516 438.528 245.849 447.917C245.849 448.278 246.794 447.75 246.794 447.389C247.127 438.361 247.127 429.306 246.794 420.278ZM248.849 447.917C249.183 438.528 249.183 429.139 248.849 419.75C248.849 419.389 247.905 419.917 247.905 420.278C247.572 429.306 247.599 438.361 247.905 447.389C247.905 447.75 248.849 448.278 248.849 447.917ZM250.933 420.278C250.905 419.917 249.988 419.389 249.961 419.75C249.627 429.139 249.627 438.528 249.961 447.917C249.988 448.278 250.905 447.75 250.933 447.389C251.238 438.361 251.238 429.306 250.933 420.278ZM252.988 447.917C253.322 438.528 253.322 429.139 252.988 419.75C252.988 419.389 252.044 419.917 252.016 420.278C251.711 429.306 251.711 438.361 252.016 447.389C252.044 447.75 252.988 448.278 252.988 447.917ZM255.044 420.278C255.044 419.917 254.099 419.389 254.099 419.75C253.766 429.139 253.766 438.528 254.099 447.917C254.099 448.278 255.044 447.75 255.044 447.389C255.377 438.361 255.377 429.306 255.044 420.278Z" fill="#00BFFF"/>
<path d="M263.238 442.139C264.432 442.139 265.599 441.889 266.765 441.361C267.627 440.972 268.46 440.778 269.293 440.778C269.515 440.778 269.71 440.805 269.877 440.833C269.765 440.944 269.015 441.694 269.015 441.778C269.015 442.028 269.404 442.083 269.543 442.083C270.238 442.083 272.515 440.639 273.099 440.333C273.293 440.222 273.293 439.944 273.099 439.833C272.488 439.5 270.127 438.111 269.543 438.111C269.404 438.111 269.015 438.166 269.015 438.389C269.015 438.5 269.904 439.389 269.988 439.444C269.738 439.444 269.488 439.444 269.293 439.444C268.099 439.444 266.932 439.694 265.765 440.222C264.904 440.583 264.071 440.778 263.238 440.778C261.182 440.778 261.154 439.722 260.21 440.778C259.21 441.916 262.043 442.139 263.238 442.139ZM263.238 430.583C264.432 430.583 265.599 430.333 266.765 429.805C267.627 429.416 268.46 429.222 269.293 429.222C269.515 429.222 269.71 429.25 269.877 429.278C269.765 429.389 269.015 430.139 269.015 430.25C269.015 430.472 269.404 430.528 269.543 430.528C270.238 430.528 272.515 429.083 273.099 428.778C273.293 428.666 273.293 428.389 273.099 428.278C272.488 427.972 270.127 426.555 269.543 426.555C269.404 426.555 269.015 426.611 269.015 426.833C269.015 426.944 269.904 427.833 269.988 427.889C269.738 427.889 269.488 427.889 269.293 427.889C268.099 427.889 266.932 428.139 265.765 428.666C264.904 429.055 264.071 429.222 263.238 429.222C261.182 429.222 261.154 428.194 260.21 429.25C259.21 430.361 262.043 430.583 263.238 430.583ZM263.238 436.389C264.432 436.389 265.599 436.111 266.765 435.611C267.627 435.222 268.46 435.028 269.293 435.028C269.515 435.028 269.71 435.028 269.877 435.055C269.765 435.194 269.015 435.916 269.015 436.028C269.015 436.25 269.404 436.305 269.543 436.305C270.238 436.305 272.515 434.889 273.099 434.583C273.293 434.472 273.293 434.166 273.099 434.055C272.488 433.75 270.127 432.333 269.543 432.333C269.404 432.333 269.015 432.416 269.015 432.639C269.015 432.75 269.904 433.611 269.988 433.694C269.738 433.666 269.488 433.666 269.293 433.666C268.099 433.666 266.932 433.944 265.765 434.444C264.904 434.833 264.071 435.028 263.238 435.028C261.182 435.028 261.154 433.972 260.21 435.028C259.21 436.166 262.043 436.389 263.238 436.389Z" fill="#00BFFF"/>
<rect x="181" y="383" width="5" height="68" fill="#A9C7C9"/>
<rect x="173" y="383" width="5" height="68" fill="#A9C7C9"/>
<path d="M173 383H178L147 415H142L173 383Z" fill="#C4C4C4"/>
<path d="M181 383H186L155 415H150L181 383Z" fill="#C4C4C4"/>
<path d="M173 444H186L155 476H142L173 444Z" fill="url(#paint34_linear)"/>
<path d="M173 412H186L155 444H142L173 412Z" fill="url(#paint35_linear)"/>
<path d="M173 428H186L155 460H142L173 428Z" fill="url(#paint36_linear)"/>
<path d="M173 396H186L155 428H142L173 396Z" fill="url(#paint37_linear)"/>
<rect x="142" y="444" width="13" height="1" fill="#BEBEBE"/>
<rect x="142" y="428" width="13" height="1" fill="#BEBEBE"/>
<rect x="142" y="476" width="13" height="1" fill="#BEBEBE"/>
<rect x="142" y="460" width="13" height="1" fill="#BEBEBE"/>
<rect x="150" y="415" width="5" height="70" fill="#CFE2E9"/>
<rect x="142" y="415" width="5" height="70" fill="#CFE2E9"/>
<circle cx="144.5" cy="428.5" r="1.5" fill="#C4C4C4"/>
<circle cx="152.5" cy="428.5" r="1.5" fill="#C4C4C4"/>
<circle cx="144.5" cy="444.5" r="1.5" fill="#C4C4C4"/>
<circle cx="152.5" cy="444.5" r="1.5" fill="#C4C4C4"/>
<circle cx="144.5" cy="476.5" r="1.5" fill="#C4C4C4"/>
<circle cx="152.5" cy="476.5" r="1.5" fill="#C4C4C4"/>
<circle cx="144.5" cy="460.5" r="1.5" fill="#C4C4C4"/>
<circle cx="152.5" cy="460.5" r="1.5" fill="#C4C4C4"/>
<path fill-rule="evenodd" clip-rule="evenodd" d="M374 383H141.477L110 415H374V383ZM476 383L442 415H1077.31L1110 383H476Z" fill="white" fill-opacity="0.5"/>
<path d="M364.183 319.828L364.198 319.843L364.218 319.843L384.645 319.843C386.546 319.843 388.141 321.364 388.141 323.262L388.141 384.857C388.141 385.845 387.755 386.58 387.133 387.07C386.51 387.56 385.647 387.807 384.691 387.807L373.191 387.807L362.191 387.807C356.977 387.808 352.688 387.807 347.86 387.807C344.355 387.807 340.565 387.807 335.929 387.807C324.92 387.807 314.989 383.342 307.752 376.105C300.515 368.868 296.05 358.937 296.05 347.928C296.05 336.919 300.515 326.911 307.752 319.751L307.752 319.751C314.989 312.514 324.92 308.049 335.929 308.049C346.938 308.049 356.946 312.514 364.106 319.751L364.106 319.751L364.183 319.828ZM361.248 322.61L361.247 322.609C354.763 316.203 345.809 312.189 335.929 312.189C326.049 312.189 317.094 316.203 310.688 322.61C304.204 329.094 300.19 338.048 300.19 347.928C300.19 357.808 304.203 366.763 310.687 373.17C317.094 379.654 326.049 383.668 335.929 383.668C345.809 383.668 354.764 379.654 361.248 373.17C367.654 366.763 371.668 357.809 371.668 347.928C371.668 338.048 367.654 329.094 361.248 322.61Z" fill="url(#paint38_linear)" stroke="#848484" stroke-width="0.1"/>
<circle cx="336.191" cy="347.857" r="36" transform="rotate(-180 336.191 347.857)" fill="#808080"/>
<path d="M408 275H476.5L476 383H408V275Z" fill="#848484"/>
<path d="M374 287L408 253V383L374 415V287Z" fill="url(#paint39_linear)" fill-opacity="0.8"/>
<path fill-rule="evenodd" clip-rule="evenodd" d="M408 275H141.477L110 309H374L408 275ZM476.5 275L442.025 309H1077.31L1110 275H476.5Z" fill="url(#paint40_linear)"/>
<rect x="142" y="207" width="968" height="68" fill="#848484"/>
<path d="M447.5 349C447.5 392.907 444.941 453 435 453C425.059 453 435 392.907 435 349C435 305.093 425.059 243 435 243C444.941 243 447.5 305.093 447.5 349Z" fill="#C4C4C4"/>
<path d="M446.95 320.002L435 321.463L435.121 322.456L447.072 320.995C447.053 320.661 447.022 320.413 446.95 320.002Z" fill="#FF6600"/>
<path d="M446.5 306L435 307.462L435.121 308.455L446.5 306.999C446.5 306.5 446.572 306.411 446.5 306Z" fill="#FF6600"/>
<path d="M438 249.264L438 447L439 447L439 249.264C438.667 248.912 438.417 248.912 438 249.264Z" fill="#3592F6"/>
<path d="M444.95 278.002L433 279.463L433.121 280.456L445.072 278.995C445.053 278.661 445.022 278.413 444.95 278.002Z" fill="#FF6600"/>
<path d="M445.95 292.002L434 293.463L434.121 294.456L446.072 292.995C446.053 292.661 446.022 292.413 445.95 292.002Z" fill="#FF6600"/>
<path d="M437 451.723L437 244L436 244L436 451.723C436.333 452.092 436.583 452.092 437 451.723Z" fill="#FF6600"/>
<path d="M443.833 271.004L425 273.316L425.122 274.309L443.955 271.997C443.948 271.662 443.918 271.413 443.833 271.004Z" fill="#3592F6"/>
<path d="M442.95 264.002L431 265.463L431.121 266.456L443.072 264.995C443.053 264.661 443.022 264.413 442.95 264.002Z" fill="#FF6600"/>
<path d="M439.95 250.002L428 251.463L428.121 252.456L440.072 250.995C440.053 250.661 440.022 250.413 439.95 250.002Z" fill="#FF6600"/>
<path d="M439.95 446.002L428 447.463L428.121 448.456L439.95 447C439.931 446.667 440.022 446.413 439.95 446.002Z" fill="#FF6600"/>
<path d="M442.95 432.002L431 433.463L431.121 434.456L443.072 432.995C443.053 432.661 443.022 432.413 442.95 432.002Z" fill="#FF6600"/>
<path d="M447.5 341L428 343.316L428.122 344.309L437.538 343.153L447.5 342C447.493 341.665 447.584 341.409 447.5 341Z" fill="#3592F6"/>
<path d="M441.833 439.004L423 441.316L423.122 442.309L441.833 440C441.826 439.665 441.918 439.413 441.833 439.004Z" fill="#3592F6"/>
<path d="M445.5 411.001L427 413.316L427.122 414.309L445.5 412C445.493 411.665 445.5 411.5 445.5 411.001Z" fill="#3592F6"/>
<path d="M446.833 383.004L428 385.316L428.122 386.309L446.955 383.997C446.948 383.662 446.918 383.413 446.833 383.004Z" fill="#3592F6"/>
<path d="M443.833 425.004L425 427.316L425.122 428.309L443.955 425.997C443.948 425.662 443.918 425.413 443.833 425.004Z" fill="#3592F6"/>
<path d="M442 263.228L442 434L443 434L443 263.228C442.667 262.924 442.417 262.924 442 263.228Z" fill="#3592F6"/>
<path d="M445 417.815L445 279L444 279L444 417.815C444.333 418.062 444.583 418.062 445 417.815Z" fill="#FF6600"/>
<path d="M446 313.099L446 387L447 387L447 313.099C446.667 312.967 446.417 312.967 446 313.099Z" fill="#3592F6"/>
<path d="M441 443.745L441 253L440 253L440 443.745C440.333 444.085 440.583 444.085 441 443.745Z" fill="#FF6600"/>
<path d="M446.833 313.004L428 315.316L428.122 316.309L446.955 313.997C446.948 313.662 446.918 313.413 446.833 313.004Z" fill="#3592F6"/>
<path d="M445.5 285.001L427 287.316L427.122 288.309L445.5 286C445.493 285.665 445.584 285.411 445.5 285.001Z" fill="#3592F6"/>
<path d="M441.833 257.004L423 259.316L423.122 260.309L441.955 257.997C441.948 257.662 441.918 257.413 441.833 257.004Z" fill="#3592F6"/>
<path d="M446.5 299.001L428 301.316L428.122 302.308L446.5 300C446.493 299.665 446.584 299.411 446.5 299.001Z" fill="#3592F6"/>
<path d="M447.5 355L428 357.316L428.122 358.309L447.5 356C447.493 355.665 447.584 355.409 447.5 355Z" fill="#3592F6"/>
<path d="M446 397L427 399.316L427.122 400.309L436.538 399.153L446 398C446 398 446.5 397 446 397Z" fill="#3592F6"/>
<path d="M447 327L428 329.316L428.122 330.309L446.955 327.997C447.5 327.5 447.5 327.5 447 327Z" fill="#3592F6"/>
<path d="M447 369L428 371.316L428.122 372.309L447 370C447.5 369.5 447 369 447 369Z" fill="#3592F6"/>
<path d="M444.95 418.002L433 419.463L433.121 420.456L444.95 419C444.931 418.667 445.022 418.413 444.95 418.002Z" fill="#FF6600"/>
<path d="M445.95 404.002L434 405.463L434.121 406.456L445.95 405C445.931 404.667 446.022 404.413 445.95 404.002Z" fill="#FF6600"/>
<path d="M446.5 390L435 391.462L435.121 392.454L446.5 390.999C446.5 390.999 447 390.5 446.5 390Z" fill="#FF6600"/>
<path d="M446.95 376.002L435 377.463L435.121 378.456L447.072 376.995C447.053 376.661 447.022 376.413 446.95 376.002Z" fill="#FF6600"/>
<path d="M446.95 362.002L435 363.463L435.121 364.456L447 363C447.5 363 447.5 362 446.95 362.002Z" fill="#FF6600"/>
<path d="M447.5 348L435 349.463L435.121 350.456L447.5 349C447.481 348.667 447.572 348.411 447.5 348Z" fill="#FF6600"/>
<path d="M447 334L435 335.463L435.121 336.456L447.072 334.995C447.5 334.5 447.5 334 447 334Z" fill="#FF6600"/>
<path d="M434.932 243L385.37 243L384.948 260.872L384.632 274.277L384.316 289.915L384.105 310.021L384 327.894L384 341.298L384 354.702L384 370.34L384.105 385.979L384.211 401.617L384.316 415.021L384.632 430.66L384.948 444.064L385.37 453L434.932 453C435.023 383 435.023 330.5 434.932 243Z" fill="url(#paint41_linear)"/>
<path d="M442 308.5L476.5 275L476 383L442 415V308.5Z" fill="url(#paint42_linear)" fill-opacity="0.8"/>
<rect x="182" y="207" width="5" height="68" fill="#A9C7C9"/>
<rect x="174" y="207" width="5" height="68" fill="#A9C7C9"/>
<path d="M174 207H179L148 239H143L174 207Z" fill="#C4C4C4"/>
<path d="M182 207H187L156 239H151L182 207Z" fill="#C4C4C4"/>
<path d="M174 268H187L156 300H143L174 268Z" fill="url(#paint43_linear)"/>
<path d="M174 236H187L156 268H143L174 236Z" fill="url(#paint44_linear)"/>
<path d="M174 252H187L156 284H143L174 252Z" fill="url(#paint45_linear)"/>
<path d="M174 220H187L156 252H143L174 220Z" fill="url(#paint46_linear)"/>
<rect x="143" y="268" width="13" height="1" fill="#BEBEBE"/>
<rect x="143" y="252" width="13" height="1" fill="#BEBEBE"/>
<rect x="143" y="300" width="13" height="1" fill="#BEBEBE"/>
<rect x="143" y="284" width="13" height="1" fill="#BEBEBE"/>
<rect x="151" y="239" width="5" height="70" fill="#CFE2E9"/>
<rect x="143" y="239" width="5" height="70" fill="#CFE2E9"/>
<circle cx="145.5" cy="252.5" r="1.5" fill="#C4C4C4"/>
<circle cx="153.5" cy="252.5" r="1.5" fill="#C4C4C4"/>
<circle cx="145.5" cy="268.5" r="1.5" fill="#C4C4C4"/>
<circle cx="153.5" cy="268.5" r="1.5" fill="#C4C4C4"/>
<circle cx="145.5" cy="300.5" r="1.5" fill="#C4C4C4"/>
<circle cx="153.5" cy="300.5" r="1.5" fill="#C4C4C4"/>
<circle cx="145.5" cy="284.5" r="1.5" fill="#C4C4C4"/>
<circle cx="153.5" cy="284.5" r="1.5" fill="#C4C4C4"/>
<path d="M755.008 239.83L754.994 239.845H754.973H734.546C732.645 239.845 731.05 241.366 731.05 243.264V304.859C731.05 305.847 731.437 306.582 732.058 307.072C732.681 307.562 733.544 307.809 734.5 307.809H746H757C762.215 307.81 766.503 307.809 771.332 307.809C774.837 307.809 778.626 307.809 783.262 307.809C794.271 307.809 804.202 303.344 811.439 296.107C818.676 288.87 823.141 278.939 823.141 267.93C823.141 256.921 818.676 246.913 811.44 239.753L811.439 239.753C804.202 232.516 794.271 228.051 783.262 228.051C772.253 228.051 762.245 232.516 755.085 239.753L755.085 239.753L755.008 239.83ZM757.944 242.612L757.944 242.611C764.428 236.205 773.382 232.191 783.262 232.191C793.143 232.191 802.097 236.205 808.504 242.612C814.988 249.096 819.002 258.05 819.002 267.93C819.002 277.81 814.988 286.765 808.504 293.172C802.097 299.656 793.143 303.67 783.262 303.67C773.382 303.67 764.428 299.656 757.944 293.172C751.537 286.765 747.523 277.811 747.523 267.93C747.523 258.05 751.537 249.096 757.944 242.612Z" fill="url(#paint47_linear)" stroke="#848484" stroke-width="0.1"/>
<circle r="36" transform="matrix(1 0 0 -1 783 267.859)" fill="#808080"/>
<path d="M576 239.5L608 207V276L576 309V239.5Z" fill="#007AFF"/>
<path d="M608 207H618L586 239H576L608 207Z" fill="#A9A9A9"/>
<path d="M608 276H618L586 308.5H576L608 276Z" fill="#3592F7"/>
<path d="M586 239L618 207V276L586 309V239Z" fill="#848484"/>
<path d="M588 239L617 210V275L588 305V239Z" fill="#C0A57F"/>
<rect x="576" y="239" width="10" height="70" fill="#A1A1A1"/>
<path d="M622.095 250.056C620.901 250.056 619.734 250.306 618.568 250.833C617.706 251.222 616.873 251.417 616.04 251.417C615.818 251.417 615.623 251.389 615.456 251.361C615.568 251.25 616.318 250.5 616.318 250.417C616.318 250.167 615.929 250.111 615.79 250.111C615.095 250.111 612.818 251.556 612.234 251.861C612.04 251.972 612.04 252.25 612.234 252.361C612.845 252.694 615.206 254.083 615.79 254.083C615.929 254.083 616.318 254.028 616.318 253.806C616.318 253.694 615.429 252.806 615.345 252.75C615.595 252.75 615.845 252.75 616.04 252.75C617.234 252.75 618.401 252.5 619.568 251.972C620.429 251.611 621.262 251.417 622.095 251.417C624.151 251.417 624.179 252.472 625.123 251.417C626.123 250.278 623.29 250.056 622.095 250.056ZM599.179 244.278C599.484 253.306 599.484 262.361 599.179 271.389C599.179 271.75 598.234 272.278 598.206 271.917C597.901 262.528 597.901 253.139 598.206 243.75C598.234 243.389 599.179 243.917 599.179 244.278ZM610.595 242.833C610.595 241.278 609.456 242.528 607.984 243.333C604.651 241.556 607.179 241.556 603.845 243.333C600.54 241.556 603.04 241.556 599.734 243.333C598.262 242.528 597.123 241.278 597.123 242.833C597.123 252.833 596.845 262.833 597.123 272.833C597.151 274.056 599.345 272.556 599.734 272.333C603.151 274.167 600.429 274.167 603.845 272.333C607.262 274.167 604.568 274.167 607.984 272.333C609.873 273.361 610.595 274.583 610.595 272.833V242.833ZM608.54 244.278C608.54 243.917 609.484 243.389 609.484 243.75C609.818 253.139 609.818 262.528 609.484 271.917C609.484 272.278 608.54 271.75 608.54 271.389C608.206 262.361 608.206 253.306 608.54 244.278ZM606.484 271.917C606.151 262.528 606.151 253.139 606.484 243.75C606.484 243.389 607.429 243.917 607.429 244.278C607.762 253.306 607.734 262.361 607.429 271.389C607.429 271.75 606.484 272.278 606.484 271.917ZM604.401 244.278C604.429 243.917 605.345 243.389 605.373 243.75C605.706 253.139 605.706 262.528 605.373 271.917C605.345 272.278 604.429 271.75 604.401 271.389C604.095 262.361 604.095 253.306 604.401 244.278ZM602.345 271.917C602.012 262.528 602.012 253.139 602.345 243.75C602.345 243.389 603.29 243.917 603.318 244.278C603.623 253.306 603.623 262.361 603.318 271.389C603.29 271.75 602.345 272.278 602.345 271.917ZM600.29 244.278C600.29 243.917 601.234 243.389 601.234 243.75C601.568 253.139 601.568 262.528 601.234 271.917C601.234 272.278 600.29 271.75 600.29 271.389C599.956 262.361 599.956 253.306 600.29 244.278ZM622.095 261.611C620.901 261.611 619.734 261.861 618.568 262.389C617.706 262.778 616.873 262.972 616.04 262.972C615.818 262.972 615.623 262.944 615.456 262.917C615.568 262.806 616.318 262.056 616.318 261.944C616.318 261.722 615.929 261.667 615.79 261.667C615.095 261.667 612.818 263.111 612.234 263.417C612.04 263.528 612.04 263.806 612.234 263.917C612.845 264.222 615.206 265.639 615.79 265.639C615.929 265.639 616.318 265.583 616.318 265.361C616.318 265.25 615.429 264.361 615.345 264.306C615.595 264.306 615.845 264.306 616.04 264.306C617.234 264.306 618.401 264.056 619.568 263.528C620.429 263.139 621.262 262.972 622.095 262.972C624.151 262.972 624.179 264 625.123 262.944C626.123 261.833 623.29 261.611 622.095 261.611ZM622.095 255.806C620.901 255.806 619.734 256.083 618.568 256.583C617.706 256.972 616.873 257.167 616.04 257.167C615.818 257.167 615.623 257.167 615.456 257.139C615.568 257 616.318 256.278 616.318 256.167C616.318 255.944 615.929 255.889 615.79 255.889C615.095 255.889 612.818 257.306 612.234 257.611C612.04 257.722 612.04 258.028 612.234 258.139C612.845 258.444 615.206 259.861 615.79 259.861C615.929 259.861 616.318 259.778 616.318 259.556C616.318 259.444 615.429 258.583 615.345 258.5C615.595 258.528 615.845 258.528 616.04 258.528C617.234 258.528 618.401 258.25 619.568 257.75C620.429 257.361 621.262 257.167 622.095 257.167C624.151 257.167 624.179 258.222 625.123 257.167C626.123 256.028 623.29 255.806 622.095 255.806Z" fill="#00BFFF"/>
<path d="M141.477 207H1110L1077.31 239H110L141.477 207Z" fill="white" fill-opacity="0.5"/>
<defs>
<linearGradient id="paint0_linear" x1="610" y1="451" x2="610" y2="496.333" gradientUnits="userSpaceOnUse">
<stop stop-color="#A6A5A5"/>
<stop offset="1" stop-color="white"/>
</linearGradient>
<linearGradient id="paint1_linear" x1="904.546" y1="416.642" x2="905.317" y2="472.527" gradientUnits="userSpaceOnUse">
<stop stop-color="#848484"/>
<stop offset="0.499267" stop-color="white"/>
<stop offset="1" stop-color="#848484"/>
</linearGradient>
<linearGradient id="paint2_linear" x1="620" y1="534.133" x2="626" y2="534.133" gradientUnits="userSpaceOnUse">
<stop stop-color="#848484"/>
<stop offset="0.519337" stop-color="white"/>
<stop offset="1" stop-color="#848484"/>
</linearGradient>
<linearGradient id="paint3_linear" x1="644.29" y1="427" x2="644.29" y2="433" gradientUnits="userSpaceOnUse">
<stop stop-color="#848484"/>
<stop offset="0.519337" stop-color="white"/>
<stop offset="1" stop-color="#848484"/>
</linearGradient>
<linearGradient id="paint4_linear" x1="626.224" y1="427.037" x2="626.224" y2="433.226" gradientUnits="userSpaceOnUse">
<stop stop-color="#848484"/>
<stop offset="0.478645" stop-color="white"/>
<stop offset="1" stop-color="#848484"/>
</linearGradient>
<linearGradient id="paint5_linear" x1="623.89" y1="427.037" x2="624.66" y2="433.227" gradientUnits="userSpaceOnUse">
<stop stop-color="#848484"/>
<stop offset="0.491713" stop-color="white"/>
<stop offset="1" stop-color="#848484"/>
</linearGradient>
<linearGradient id="paint6_linear" x1="620" y1="433.5" x2="626" y2="433.5" gradientUnits="userSpaceOnUse">
<stop stop-color="#848484"/>
<stop offset="0.476897" stop-color="white"/>
<stop offset="1" stop-color="#848484"/>
</linearGradient>
<linearGradient id="paint7_linear" x1="626.5" y1="433" x2="626.5" y2="427" gradientUnits="userSpaceOnUse">
<stop stop-color="#848484"/>
<stop offset="0.508099" stop-color="white"/>
<stop offset="1" stop-color="#848484"/>
</linearGradient>
<linearGradient id="paint8_linear" x1="620.003" y1="433.227" x2="625.44" y2="431.275" gradientUnits="userSpaceOnUse">
<stop stop-color="#848484"/>
<stop offset="0.526042" stop-color="white"/>
<stop offset="1" stop-color="#848484"/>
</linearGradient>
<linearGradient id="paint9_linear" x1="620.002" y1="430.906" x2="625.521" y2="433.297" gradientUnits="userSpaceOnUse">
<stop stop-color="#848484"/>
<stop offset="0.491713" stop-color="white"/>
<stop offset="1" stop-color="#848484"/>
</linearGradient>
<linearGradient id="paint10_linear" x1="654.331" y1="473" x2="654.331" y2="479" gradientUnits="userSpaceOnUse">
<stop stop-color="#848484"/>
<stop offset="0.519337" stop-color="white"/>
<stop offset="1" stop-color="#848484"/>
</linearGradient>
<linearGradient id="paint11_linear" x1="646.223" y1="473.037" x2="646.223" y2="479.226" gradientUnits="userSpaceOnUse">
<stop stop-color="#848484"/>
<stop offset="0.478645" stop-color="white"/>
<stop offset="1" stop-color="#848484"/>
</linearGradient>
<linearGradient id="paint12_linear" x1="643.889" y1="473.037" x2="644.659" y2="479.227" gradientUnits="userSpaceOnUse">
<stop stop-color="#848484"/>
<stop offset="0.491713" stop-color="white"/>
<stop offset="1" stop-color="#848484"/>
</linearGradient>
<linearGradient id="paint13_linear" x1="640" y1="479.5" x2="646" y2="479.5" gradientUnits="userSpaceOnUse">
<stop stop-color="#848484"/>
<stop offset="0.476897" stop-color="white"/>
<stop offset="1" stop-color="#848484"/>
</linearGradient>
<linearGradient id="paint14_linear" x1="646.5" y1="479" x2="646.5" y2="473" gradientUnits="userSpaceOnUse">
<stop stop-color="#848484"/>
<stop offset="0.508099" stop-color="white"/>
<stop offset="1" stop-color="#848484"/>
</linearGradient>
<linearGradient id="paint15_linear" x1="640.002" y1="479.227" x2="645.439" y2="477.275" gradientUnits="userSpaceOnUse">
<stop stop-color="#848484"/>
<stop offset="0.526042" stop-color="white"/>
<stop offset="1" stop-color="#848484"/>
</linearGradient>
<linearGradient id="paint16_linear" x1="640.002" y1="476.906" x2="645.521" y2="479.297" gradientUnits="userSpaceOnUse">
<stop stop-color="#848484"/>
<stop offset="0.491713" stop-color="white"/>
<stop offset="1" stop-color="#848484"/>
</linearGradient>
<linearGradient id="paint17_linear" x1="640" y1="557.103" x2="646" y2="557.103" gradientUnits="userSpaceOnUse">
<stop stop-color="#848484"/>
<stop offset="0.519337" stop-color="white"/>
<stop offset="1" stop-color="#848484"/>
</linearGradient>
<linearGradient id="paint18_linear" x1="466" y1="534.133" x2="472" y2="534.133" gradientUnits="userSpaceOnUse">
<stop stop-color="#848484"/>
<stop offset="0.519337" stop-color="white"/>
<stop offset="1" stop-color="#848484"/>
</linearGradient>
<linearGradient id="paint19_linear" x1="490.289" y1="427" x2="490.289" y2="433" gradientUnits="userSpaceOnUse">
<stop stop-color="#848484"/>
<stop offset="0.519337" stop-color="white"/>
<stop offset="1" stop-color="#848484"/>
</linearGradient>
<linearGradient id="paint20_linear" x1="472.224" y1="427.037" x2="472.224" y2="433.226" gradientUnits="userSpaceOnUse">
<stop stop-color="#848484"/>
<stop offset="0.478645" stop-color="white"/>
<stop offset="1" stop-color="#848484"/>
</linearGradient>
<linearGradient id="paint21_linear" x1="469.89" y1="427.037" x2="470.66" y2="433.227" gradientUnits="userSpaceOnUse">
<stop stop-color="#848484"/>
<stop offset="0.491713" stop-color="white"/>
<stop offset="1" stop-color="#848484"/>
</linearGradient>
<linearGradient id="paint22_linear" x1="466" y1="433.5" x2="472" y2="433.5" gradientUnits="userSpaceOnUse">
<stop stop-color="#848484"/>
<stop offset="0.476897" stop-color="white"/>
<stop offset="1" stop-color="#848484"/>
</linearGradient>
<linearGradient id="paint23_linear" x1="472.5" y1="433" x2="472.5" y2="427" gradientUnits="userSpaceOnUse">
<stop stop-color="#848484"/>
<stop offset="0.508099" stop-color="white"/>
<stop offset="1" stop-color="#848484"/>
</linearGradient>
<linearGradient id="paint24_linear" x1="466.003" y1="433.227" x2="471.44" y2="431.275" gradientUnits="userSpaceOnUse">
<stop stop-color="#848484"/>
<stop offset="0.526042" stop-color="white"/>
<stop offset="1" stop-color="#848484"/>
</linearGradient>
<linearGradient id="paint25_linear" x1="466.001" y1="430.906" x2="471.521" y2="433.297" gradientUnits="userSpaceOnUse">
<stop stop-color="#848484"/>
<stop offset="0.491713" stop-color="white"/>
<stop offset="1" stop-color="#848484"/>
</linearGradient>
<linearGradient id="paint26_linear" x1="500.33" y1="473" x2="500.33" y2="479" gradientUnits="userSpaceOnUse">
<stop stop-color="#848484"/>
<stop offset="0.519337" stop-color="white"/>
<stop offset="1" stop-color="#848484"/>
</linearGradient>
<linearGradient id="paint27_linear" x1="492.223" y1="473.037" x2="492.223" y2="479.226" gradientUnits="userSpaceOnUse">
<stop stop-color="#848484"/>
<stop offset="0.478645" stop-color="white"/>
<stop offset="1" stop-color="#848484"/>
</linearGradient>
<linearGradient id="paint28_linear" x1="489.889" y1="473.037" x2="490.659" y2="479.227" gradientUnits="userSpaceOnUse">
<stop stop-color="#848484"/>
<stop offset="0.491713" stop-color="white"/>
<stop offset="1" stop-color="#848484"/>
</linearGradient>
<linearGradient id="paint29_linear" x1="486" y1="479.5" x2="492" y2="479.5" gradientUnits="userSpaceOnUse">
<stop stop-color="#848484"/>
<stop offset="0.476897" stop-color="white"/>
<stop offset="1" stop-color="#848484"/>
</linearGradient>
<linearGradient id="paint30_linear" x1="492.5" y1="479" x2="492.5" y2="473" gradientUnits="userSpaceOnUse">
<stop stop-color="#848484"/>
<stop offset="0.508099" stop-color="white"/>
<stop offset="1" stop-color="#848484"/>
</linearGradient>
<linearGradient id="paint31_linear" x1="486.002" y1="479.227" x2="491.439" y2="477.275" gradientUnits="userSpaceOnUse">
<stop stop-color="#848484"/>
<stop offset="0.526042" stop-color="white"/>
<stop offset="1" stop-color="#848484"/>
</linearGradient>
<linearGradient id="paint32_linear" x1="486.001" y1="476.906" x2="491.521" y2="479.297" gradientUnits="userSpaceOnUse">
<stop stop-color="#848484"/>
<stop offset="0.491713" stop-color="white"/>
<stop offset="1" stop-color="#848484"/>
</linearGradient>
<linearGradient id="paint33_linear" x1="486" y1="557.103" x2="492" y2="557.103" gradientUnits="userSpaceOnUse">
<stop stop-color="#848484"/>
<stop offset="0.519337" stop-color="white"/>
<stop offset="1" stop-color="#848484"/>
</linearGradient>
<linearGradient id="paint34_linear" x1="158" y1="460" x2="164.5" y2="466.5" gradientUnits="userSpaceOnUse">
<stop stop-color="#C4C4C4"/>
<stop offset="0.494792" stop-color="white"/>
<stop offset="1" stop-color="#BEBEBE"/>
</linearGradient>
<linearGradient id="paint35_linear" x1="158" y1="428" x2="164.5" y2="434.5" gradientUnits="userSpaceOnUse">
<stop stop-color="#C4C4C4"/>
<stop offset="0.494792" stop-color="white"/>
<stop offset="1" stop-color="#BEBEBE"/>
</linearGradient>
<linearGradient id="paint36_linear" x1="158" y1="444" x2="164.5" y2="450.5" gradientUnits="userSpaceOnUse">
<stop stop-color="#C4C4C4"/>
<stop offset="0.494792" stop-color="white"/>
<stop offset="1" stop-color="#BEBEBE"/>
</linearGradient>
<linearGradient id="paint37_linear" x1="158" y1="412" x2="164.5" y2="418.5" gradientUnits="userSpaceOnUse">
<stop stop-color="#C4C4C4"/>
<stop offset="0.494792" stop-color="white"/>
<stop offset="1" stop-color="#BEBEBE"/>
</linearGradient>
<linearGradient id="paint38_linear" x1="373.546" y1="319.64" x2="374.316" y2="375.525" gradientUnits="userSpaceOnUse">
<stop stop-color="#848484"/>
<stop offset="0.499267" stop-color="white"/>
<stop offset="1" stop-color="#848484"/>
</linearGradient>
<linearGradient id="paint39_linear" x1="390.982" y1="253.154" x2="390.982" y2="469.458" gradientUnits="userSpaceOnUse">
<stop stop-color="#A6A5A5"/>
<stop offset="1" stop-color="white"/>
</linearGradient>
<linearGradient id="paint40_linear" x1="610" y1="275.16" x2="610" y2="320.064" gradientUnits="userSpaceOnUse">
<stop stop-color="#A6A5A5"/>
<stop offset="1" stop-color="white"/>
</linearGradient>
<linearGradient id="paint41_linear" x1="409.572" y1="243" x2="409.572" y2="453" gradientUnits="userSpaceOnUse">
<stop offset="0.208333" stop-color="#3592F7"/>
<stop offset="0.519337" stop-color="white"/>
<stop offset="0.755208" stop-color="#FF6600"/>
</linearGradient>
<linearGradient id="paint42_linear" x1="458.982" y1="253.154" x2="458.982" y2="469.458" gradientUnits="userSpaceOnUse">
<stop stop-color="#A6A5A5"/>
<stop offset="1" stop-color="white"/>
</linearGradient>
<linearGradient id="paint43_linear" x1="159" y1="284" x2="165.5" y2="290.5" gradientUnits="userSpaceOnUse">
<stop stop-color="#C4C4C4"/>
<stop offset="0.494792" stop-color="white"/>
<stop offset="1" stop-color="#BEBEBE"/>
</linearGradient>
<linearGradient id="paint44_linear" x1="159" y1="252" x2="165.5" y2="258.5" gradientUnits="userSpaceOnUse">
<stop stop-color="#C4C4C4"/>
<stop offset="0.494792" stop-color="white"/>
<stop offset="1" stop-color="#BEBEBE"/>
</linearGradient>
<linearGradient id="paint45_linear" x1="159" y1="268" x2="165.5" y2="274.5" gradientUnits="userSpaceOnUse">
<stop stop-color="#C4C4C4"/>
<stop offset="0.494792" stop-color="white"/>
<stop offset="1" stop-color="#BEBEBE"/>
</linearGradient>
<linearGradient id="paint46_linear" x1="159" y1="236" x2="165.5" y2="242.5" gradientUnits="userSpaceOnUse">
<stop stop-color="#C4C4C4"/>
<stop offset="0.494792" stop-color="white"/>
<stop offset="1" stop-color="#BEBEBE"/>
</linearGradient>
<linearGradient id="paint47_linear" x1="745.646" y1="239.642" x2="744.875" y2="295.527" gradientUnits="userSpaceOnUse">
<stop stop-color="#848484"/>
<stop offset="0.499267" stop-color="white"/>
<stop offset="1" stop-color="#848484"/>
</linearGradient>
</defs>
</svg>
