<svg width="1281" height="758" viewBox="0 0 1281 758" fill="none" xmlns="http://www.w3.org/2000/svg">
<g>
<text transform="translate(170,44)" font-size="36px" font-family="SF-Pro-Display" text-anchor="left" fill="#FFFFFF">Автозаправочная станция №1</text>
</g>
<path d="M159 143.909L159 349.037C113.311 363.322 87.6884 362.5 42.0001 349.037L42.0001 342.077L42.0001 143.909C56 129.577 120 121.577 159 143.909Z" fill="url(#paint0_linear)"/>
<rect x="152.612" y="154.577" width="192" height="102.211" transform="rotate(90 152.612 154.577)" fill="#333333"/>
<path d="M85.3253 147.577L84.5973 145.197H80.9573L80.2293 147.577H77.9473L81.4753 137.539H84.0653L87.6073 147.577H85.3253ZM84.0933 143.419L83.3653 141.095C83.3186 140.936 83.2579 140.736 83.1833 140.493C83.1086 140.25 83.0339 140.003 82.9593 139.751C82.8846 139.499 82.8239 139.28 82.7773 139.093C82.7306 139.28 82.6653 139.513 82.5813 139.793C82.5066 140.064 82.4319 140.325 82.3573 140.577C82.2919 140.82 82.2406 140.992 82.2033 141.095L81.4893 143.419H84.0933ZM88.8733 137.581H90.7773V142.411C90.7773 142.644 90.7726 142.906 90.7633 143.195C90.7539 143.484 90.7446 143.769 90.7353 144.049C90.7259 144.32 90.7166 144.558 90.7073 144.763C90.6979 144.959 90.6886 145.094 90.6793 145.169H90.7213L95.3413 137.581H97.8753V147.577H95.9853V142.775C95.9853 142.523 95.9899 142.248 95.9993 141.949C96.0086 141.641 96.0179 141.347 96.0273 141.067C96.0459 140.787 96.0599 140.544 96.0693 140.339C96.0879 140.124 96.1019 139.984 96.1113 139.919H96.0553L91.4213 147.577H88.8733V137.581ZM99.7471 143.059V141.862H103.015V143.059H99.7471ZM108.719 144.472C108.719 145.64 108.545 146.47 108.197 146.962C107.85 147.45 107.309 147.694 106.574 147.694C105.84 147.694 105.303 147.493 104.963 147.091C104.623 146.688 104.451 146.024 104.447 145.099V144.536H105.93V144.753C105.934 145.39 105.977 145.815 106.059 146.03C106.145 146.241 106.305 146.347 106.539 146.347C106.773 146.347 106.918 146.3 106.973 146.206C107.027 146.108 107.072 146.015 107.107 145.925C107.143 145.831 107.16 145.526 107.16 145.011V143.47C106.945 143.614 106.627 143.686 106.205 143.686C105.51 143.686 105.016 143.435 104.723 142.931C104.434 142.427 104.289 141.663 104.289 140.64V140.265C104.289 138.983 104.51 138.122 104.951 137.681C105.311 137.321 105.822 137.142 106.486 137.142C107.154 137.142 107.645 137.27 107.957 137.528C108.273 137.782 108.479 138.136 108.572 138.589C108.67 139.042 108.719 139.63 108.719 140.352V144.472ZM106.498 142.397C106.885 142.397 107.105 142.229 107.16 141.893V139.936C107.16 139.429 107.113 139.063 107.02 138.841C106.93 138.618 106.754 138.507 106.492 138.507C106.234 138.507 106.059 138.62 105.965 138.847C105.871 139.073 105.824 139.442 105.824 139.954V140.874C105.824 141.444 105.869 141.841 105.959 142.063C106.053 142.286 106.232 142.397 106.498 142.397ZM112.234 147.694C110.871 147.694 110.189 146.985 110.189 145.567V144.272H111.66V145.403C111.66 145.88 111.752 146.175 111.936 146.288C112.006 146.331 112.117 146.352 112.27 146.352C112.277 146.352 112.289 146.352 112.305 146.352C112.648 146.352 112.82 146.015 112.82 145.339V142.702C112.82 142.327 112.781 142.048 112.703 141.864C112.625 141.677 112.473 141.583 112.246 141.583C111.84 141.583 111.637 141.917 111.637 142.585L110.254 142.526V137.265H114.068V138.671H111.701V140.763C111.775 140.618 111.908 140.501 112.1 140.411C112.295 140.321 112.508 140.276 112.738 140.276C113.34 140.276 113.758 140.542 113.992 141.073C114.227 141.601 114.344 142.44 114.344 143.593C114.344 144.741 114.303 145.54 114.221 145.989C114.143 146.435 114.025 146.774 113.869 147.009C113.568 147.466 113.023 147.694 112.234 147.694Z" fill="#FF9500"/>
<path d="M159 143.909L159 349.037C113.311 363.322 87.6884 362.5 42.0001 349.037L42.0001 342.077L42.0001 143.909C56 129.577 120 121.577 159 143.909Z" fill="url(#paint1_linear)"/>
<rect x="152.612" y="154.577" width="192" height="102.211" transform="rotate(90 152.612 154.577)" fill="#333333"/>
<path d="M85.3253 147.577L84.5973 145.197H80.9573L80.2293 147.577H77.9473L81.4753 137.539H84.0653L87.6073 147.577H85.3253ZM84.0933 143.419L83.3653 141.095C83.3186 140.936 83.2579 140.736 83.1833 140.493C83.1086 140.25 83.0339 140.003 82.9593 139.751C82.8846 139.499 82.8239 139.28 82.7773 139.093C82.7306 139.28 82.6653 139.513 82.5813 139.793C82.5066 140.064 82.4319 140.325 82.3573 140.577C82.2919 140.82 82.2406 140.992 82.2033 141.095L81.4893 143.419H84.0933ZM88.8733 137.581H90.7773V142.411C90.7773 142.644 90.7726 142.906 90.7633 143.195C90.7539 143.484 90.7446 143.769 90.7353 144.049C90.7259 144.32 90.7166 144.558 90.7073 144.763C90.6979 144.959 90.6886 145.094 90.6793 145.169H90.7213L95.3413 137.581H97.8753V147.577H95.9853V142.775C95.9853 142.523 95.9899 142.248 95.9993 141.949C96.0086 141.641 96.0179 141.347 96.0273 141.067C96.0459 140.787 96.0599 140.544 96.0693 140.339C96.0879 140.124 96.1019 139.984 96.1113 139.919H96.0553L91.4213 147.577H88.8733V137.581ZM99.7471 143.059V141.862H103.015V143.059H99.7471ZM108.719 144.472C108.719 145.64 108.545 146.47 108.197 146.962C107.85 147.45 107.309 147.694 106.574 147.694C105.84 147.694 105.303 147.493 104.963 147.091C104.623 146.688 104.451 146.024 104.447 145.099V144.536H105.93V144.753C105.934 145.39 105.977 145.815 106.059 146.03C106.145 146.241 106.305 146.347 106.539 146.347C106.773 146.347 106.918 146.3 106.973 146.206C107.027 146.108 107.072 146.015 107.107 145.925C107.143 145.831 107.16 145.526 107.16 145.011V143.47C106.945 143.614 106.627 143.686 106.205 143.686C105.51 143.686 105.016 143.435 104.723 142.931C104.434 142.427 104.289 141.663 104.289 140.64V140.265C104.289 138.983 104.51 138.122 104.951 137.681C105.311 137.321 105.822 137.142 106.486 137.142C107.154 137.142 107.645 137.27 107.957 137.528C108.273 137.782 108.479 138.136 108.572 138.589C108.67 139.042 108.719 139.63 108.719 140.352V144.472ZM106.498 142.397C106.885 142.397 107.105 142.229 107.16 141.893V139.936C107.16 139.429 107.113 139.063 107.02 138.841C106.93 138.618 106.754 138.507 106.492 138.507C106.234 138.507 106.059 138.62 105.965 138.847C105.871 139.073 105.824 139.442 105.824 139.954V140.874C105.824 141.444 105.869 141.841 105.959 142.063C106.053 142.286 106.232 142.397 106.498 142.397ZM112.234 147.694C110.871 147.694 110.189 146.985 110.189 145.567V144.272H111.66V145.403C111.66 145.88 111.752 146.175 111.936 146.288C112.006 146.331 112.117 146.352 112.27 146.352C112.277 146.352 112.289 146.352 112.305 146.352C112.648 146.352 112.82 146.015 112.82 145.339V142.702C112.82 142.327 112.781 142.048 112.703 141.864C112.625 141.677 112.473 141.583 112.246 141.583C111.84 141.583 111.637 141.917 111.637 142.585L110.254 142.526V137.265H114.068V138.671H111.701V140.763C111.775 140.618 111.908 140.501 112.1 140.411C112.295 140.321 112.508 140.276 112.738 140.276C113.34 140.276 113.758 140.542 113.992 141.073C114.227 141.601 114.344 142.44 114.344 143.593C114.344 144.741 114.303 145.54 114.221 145.989C114.143 146.435 114.025 146.774 113.869 147.009C113.568 147.466 113.023 147.694 112.234 147.694Z" fill="#FF9500"/>
<path d="M159 143.909L159 349.037C113.311 363.322 87.6884 362.5 42.0001 349.037L42.0001 342.077L42.0001 143.909C56 129.577 120 121.577 159 143.909Z" fill="url(#paint2_linear)"/>
<rect x="152.612" y="154.577" width="192" height="102.211" transform="rotate(90 152.612 154.577)" fill="#333333"/>
<path d="M85.3253 147.577L84.5973 145.197H80.9573L80.2293 147.577H77.9473L81.4753 137.539H84.0653L87.6073 147.577H85.3253ZM83.3653 141.095C83.3186 140.936 83.2579 140.736 83.1833 140.493C83.1086 140.25 83.0339 140.003 82.9593 139.751C82.8846 139.499 82.8239 139.28 82.7773 139.093C82.7306 139.28 82.6653 139.513 82.5813 139.793C82.5066 140.064 82.4319 140.325 82.3573 140.577C82.2919 140.82 82.2406 140.992 82.2033 141.095L81.4893 143.419H84.0933L83.3653 141.095ZM88.8733 137.581H90.7773V142.411C90.7773 142.644 90.7726 142.906 90.7633 143.195C90.7539 143.484 90.7446 143.769 90.7353 144.049C90.7259 144.32 90.7166 144.558 90.7073 144.763C90.6979 144.959 90.6886 145.094 90.6793 145.169H90.7213L95.3413 137.581H97.8753V147.577H95.9853V142.775C95.9853 142.523 95.9899 142.248 95.9993 141.949C96.0086 141.641 96.0179 141.347 96.0273 141.067C96.0459 140.787 96.0599 140.544 96.0693 140.339C96.0879 140.124 96.1019 139.984 96.1113 139.919H96.0553L91.4213 147.577H88.8733V137.581ZM99.7471 143.059V141.862H103.015V143.059H99.7471ZM108.719 144.472C108.719 145.64 108.545 146.47 108.197 146.962C107.85 147.45 107.309 147.694 106.574 147.694C105.84 147.694 105.303 147.493 104.963 147.091C104.623 146.688 104.451 146.024 104.447 145.099V144.536H105.93V144.753C105.934 145.39 105.977 145.815 106.059 146.03C106.145 146.241 106.305 146.347 106.539 146.347C106.773 146.347 106.918 146.3 106.973 146.206C107.027 146.108 107.072 146.015 107.107 145.925C107.143 145.831 107.16 145.526 107.16 145.011V143.47C106.945 143.614 106.627 143.686 106.205 143.686C105.51 143.686 105.016 143.435 104.723 142.931C104.434 142.427 104.289 141.663 104.289 140.64V140.265C104.289 138.983 104.51 138.122 104.951 137.681C105.311 137.321 105.822 137.142 106.486 137.142C107.154 137.142 107.645 137.27 107.957 137.528C108.273 137.782 108.479 138.136 108.572 138.589C108.67 139.042 108.719 139.63 108.719 140.352V144.472ZM106.498 142.397C106.885 142.397 107.105 142.229 107.16 141.893V139.936C107.16 139.429 107.113 139.063 107.02 138.841C106.93 138.618 106.754 138.507 106.492 138.507C106.234 138.507 106.059 138.62 105.965 138.847C105.871 139.073 105.824 139.442 105.824 139.954V140.874C105.824 141.444 105.869 141.841 105.959 142.063C106.053 142.286 106.232 142.397 106.498 142.397ZM113.945 147.044C113.586 147.481 113.031 147.7 112.281 147.7C111.531 147.7 110.969 147.483 110.594 147.05C110.223 146.612 110.031 145.946 110.02 145.052C110.016 145.024 110.014 144.763 110.014 144.267C110.014 143.767 110.092 143.302 110.248 142.872C110.404 142.442 110.617 142.134 110.887 141.946C110.336 141.556 110.061 140.813 110.061 139.72C110.061 138.817 110.234 138.163 110.582 137.757C110.934 137.347 111.502 137.142 112.287 137.142C113.076 137.142 113.641 137.341 113.98 137.739C114.32 138.138 114.49 138.798 114.49 139.72C114.49 140.825 114.217 141.567 113.67 141.946C113.928 142.134 114.131 142.444 114.279 142.878C114.428 143.311 114.502 143.79 114.502 144.313V145.022C114.494 145.933 114.309 146.606 113.945 147.044ZM111.584 145.011C111.588 145.515 111.635 145.866 111.725 146.065C111.814 146.261 111.998 146.358 112.275 146.358C112.557 146.358 112.736 146.261 112.814 146.065C112.893 145.866 112.932 145.507 112.932 144.987V144.143C112.932 143.089 112.717 142.561 112.287 142.561C112.072 142.561 111.9 142.698 111.771 142.972C111.646 143.245 111.584 143.638 111.584 144.149V145.011ZM111.924 141.39C112.01 141.476 112.127 141.518 112.275 141.518C112.275 141.522 112.277 141.524 112.281 141.524C112.426 141.524 112.541 141.479 112.627 141.39C112.717 141.3 112.789 141.132 112.844 140.886C112.898 140.64 112.926 140.298 112.926 139.86C112.926 139.427 112.902 139.102 112.855 138.888C112.812 138.669 112.748 138.526 112.662 138.46C112.576 138.393 112.449 138.36 112.281 138.36C112.113 138.36 111.986 138.397 111.9 138.472C111.721 138.62 111.631 139.095 111.631 139.895C111.631 140.696 111.729 141.194 111.924 141.39Z" fill="#BA4545"/>
<path d="M50 175H153V347H50V175Z" fill="#2D9CDB" fill-opacity="0.3"/>
<path d="M307 143.909L307 349.037C261.311 363.322 235.688 362.5 190 349.037L190 342.077L190 143.909C204 129.577 268 121.577 307 143.909Z" fill="url(#paint3_linear)"/>
<rect x="300.612" y="154.577" width="192" height="102.211" transform="rotate(90 300.612 154.577)" fill="#333333"/>
<path d="M233.325 147.577L232.597 145.197H228.957L228.229 147.577H225.947L229.475 137.539H232.065L235.607 147.577H233.325ZM232.093 143.419L231.365 141.095C231.319 140.936 231.258 140.736 231.183 140.493C231.109 140.25 231.034 140.003 230.959 139.751C230.885 139.499 230.824 139.28 230.777 139.093C230.731 139.28 230.665 139.513 230.581 139.793C230.507 140.064 230.432 140.325 230.357 140.577C230.292 140.82 230.241 140.992 230.203 141.095L229.489 143.419H232.093ZM236.873 137.581H238.777V142.411C238.777 142.644 238.773 142.906 238.763 143.195C238.754 143.484 238.745 143.769 238.735 144.049C238.726 144.32 238.717 144.558 238.707 144.763C238.698 144.959 238.689 145.094 238.679 145.169H238.721L243.341 137.581H245.875V147.577H243.985V142.775C243.985 142.523 243.99 142.248 243.999 141.949C244.009 141.641 244.018 141.347 244.027 141.067C244.046 140.787 244.06 140.544 244.069 140.339C244.088 140.124 244.102 139.984 244.111 139.919H244.055L239.421 147.577H236.873V137.581ZM247.747 143.059V141.862H251.015V143.059H247.747ZM256.719 144.472C256.719 145.64 256.545 146.47 256.197 146.962C255.85 147.45 255.309 147.694 254.574 147.694C253.84 147.694 253.303 147.493 252.963 147.091C252.623 146.688 252.451 146.024 252.447 145.099V144.536H253.93V144.753C253.934 145.39 253.977 145.815 254.059 146.03C254.145 146.241 254.305 146.347 254.539 146.347C254.773 146.347 254.918 146.3 254.973 146.206C255.027 146.108 255.072 146.015 255.107 145.925C255.143 145.831 255.16 145.526 255.16 145.011V143.47C254.945 143.614 254.627 143.686 254.205 143.686C253.51 143.686 253.016 143.435 252.723 142.931C252.434 142.427 252.289 141.663 252.289 140.64V140.265C252.289 138.983 252.51 138.122 252.951 137.681C253.311 137.321 253.822 137.142 254.486 137.142C255.154 137.142 255.645 137.27 255.957 137.528C256.273 137.782 256.479 138.136 256.572 138.589C256.67 139.042 256.719 139.63 256.719 140.352V144.472ZM254.498 142.397C254.885 142.397 255.105 142.229 255.16 141.893V139.936C255.16 139.429 255.113 139.063 255.02 138.841C254.93 138.618 254.754 138.507 254.492 138.507C254.234 138.507 254.059 138.62 253.965 138.847C253.871 139.073 253.824 139.442 253.824 139.954V140.874C253.824 141.444 253.869 141.841 253.959 142.063C254.053 142.286 254.232 142.397 254.498 142.397ZM260.234 147.694C258.871 147.694 258.189 146.985 258.189 145.567V144.272H259.66V145.403C259.66 145.88 259.752 146.175 259.936 146.288C260.006 146.331 260.117 146.352 260.27 146.352C260.277 146.352 260.289 146.352 260.305 146.352C260.648 146.352 260.82 146.015 260.82 145.339V142.702C260.82 142.327 260.781 142.048 260.703 141.864C260.625 141.677 260.473 141.583 260.246 141.583C259.84 141.583 259.637 141.917 259.637 142.585L258.254 142.526V137.265H262.068V138.671H259.701V140.763C259.775 140.618 259.908 140.501 260.1 140.411C260.295 140.321 260.508 140.276 260.738 140.276C261.34 140.276 261.758 140.542 261.992 141.073C262.227 141.601 262.344 142.44 262.344 143.593C262.344 144.741 262.303 145.54 262.221 145.989C262.143 146.435 262.025 146.774 261.869 147.009C261.568 147.466 261.023 147.694 260.234 147.694Z" fill="#FF9500"/>
<path d="M307 143.909L307 349.037C261.311 363.322 235.688 362.5 190 349.037L190 342.077L190 143.909C204 129.577 268 121.577 307 143.909Z" fill="url(#paint4_linear)"/>
<rect x="300.612" y="154.577" width="192" height="102.211" transform="rotate(90 300.612 154.577)" fill="#333333"/>
<path d="M233.325 147.577L232.597 145.197H228.957L228.229 147.577H225.947L229.475 137.539H232.065L235.607 147.577H233.325ZM232.093 143.419L231.365 141.095C231.319 140.936 231.258 140.736 231.183 140.493C231.109 140.25 231.034 140.003 230.959 139.751C230.885 139.499 230.824 139.28 230.777 139.093C230.731 139.28 230.665 139.513 230.581 139.793C230.507 140.064 230.432 140.325 230.357 140.577C230.292 140.82 230.241 140.992 230.203 141.095L229.489 143.419H232.093ZM236.873 137.581H238.777V142.411C238.777 142.644 238.773 142.906 238.763 143.195C238.754 143.484 238.745 143.769 238.735 144.049C238.726 144.32 238.717 144.558 238.707 144.763C238.698 144.959 238.689 145.094 238.679 145.169H238.721L243.341 137.581H245.875V147.577H243.985V142.775C243.985 142.523 243.99 142.248 243.999 141.949C244.009 141.641 244.018 141.347 244.027 141.067C244.046 140.787 244.06 140.544 244.069 140.339C244.088 140.124 244.102 139.984 244.111 139.919H244.055L239.421 147.577H236.873V137.581ZM247.747 143.059V141.862H251.015V143.059H247.747ZM256.719 144.472C256.719 145.64 256.545 146.47 256.197 146.962C255.85 147.45 255.309 147.694 254.574 147.694C253.84 147.694 253.303 147.493 252.963 147.091C252.623 146.688 252.451 146.024 252.447 145.099V144.536H253.93V144.753C253.934 145.39 253.977 145.815 254.059 146.03C254.145 146.241 254.305 146.347 254.539 146.347C254.773 146.347 254.918 146.3 254.973 146.206C255.027 146.108 255.072 146.015 255.107 145.925C255.143 145.831 255.16 145.526 255.16 145.011V143.47C254.945 143.614 254.627 143.686 254.205 143.686C253.51 143.686 253.016 143.435 252.723 142.931C252.434 142.427 252.289 141.663 252.289 140.64V140.265C252.289 138.983 252.51 138.122 252.951 137.681C253.311 137.321 253.822 137.142 254.486 137.142C255.154 137.142 255.645 137.27 255.957 137.528C256.273 137.782 256.479 138.136 256.572 138.589C256.67 139.042 256.719 139.63 256.719 140.352V144.472ZM254.498 142.397C254.885 142.397 255.105 142.229 255.16 141.893V139.936C255.16 139.429 255.113 139.063 255.02 138.841C254.93 138.618 254.754 138.507 254.492 138.507C254.234 138.507 254.059 138.62 253.965 138.847C253.871 139.073 253.824 139.442 253.824 139.954V140.874C253.824 141.444 253.869 141.841 253.959 142.063C254.053 142.286 254.232 142.397 254.498 142.397ZM260.234 147.694C258.871 147.694 258.189 146.985 258.189 145.567V144.272H259.66V145.403C259.66 145.88 259.752 146.175 259.936 146.288C260.006 146.331 260.117 146.352 260.27 146.352C260.277 146.352 260.289 146.352 260.305 146.352C260.648 146.352 260.82 146.015 260.82 145.339V142.702C260.82 142.327 260.781 142.048 260.703 141.864C260.625 141.677 260.473 141.583 260.246 141.583C259.84 141.583 259.637 141.917 259.637 142.585L258.254 142.526V137.265H262.068V138.671H259.701V140.763C259.775 140.618 259.908 140.501 260.1 140.411C260.295 140.321 260.508 140.276 260.738 140.276C261.34 140.276 261.758 140.542 261.992 141.073C262.227 141.601 262.344 142.44 262.344 143.593C262.344 144.741 262.303 145.54 262.221 145.989C262.143 146.435 262.025 146.774 261.869 147.009C261.568 147.466 261.023 147.694 260.234 147.694Z" fill="#FF9500"/>
<path d="M307 143.909L307 349.037C261.311 363.322 235.688 362.5 190 349.037L190 342.077L190 143.909C204 129.577 268 121.577 307 143.909Z" fill="url(#paint5_linear)"/>
<rect x="300.612" y="154.577" width="192" height="102.211" transform="rotate(90 300.612 154.577)" fill="#333333"/>
<path d="M233.325 147.577L232.597 145.197H228.957L228.229 147.577H225.947L229.475 137.539H232.065L235.607 147.577H233.325ZM231.365 141.095C231.319 140.936 231.258 140.736 231.183 140.493C231.109 140.25 231.034 140.003 230.959 139.751C230.885 139.499 230.824 139.28 230.777 139.093C230.731 139.28 230.665 139.513 230.581 139.793C230.507 140.064 230.432 140.325 230.357 140.577C230.292 140.82 230.241 140.992 230.203 141.095L229.489 143.419H232.093L231.365 141.095ZM236.873 137.581H238.777V142.411C238.777 142.644 238.773 142.906 238.763 143.195C238.754 143.484 238.745 143.769 238.735 144.049C238.726 144.32 238.717 144.558 238.707 144.763C238.698 144.959 238.689 145.094 238.679 145.169H238.721L243.341 137.581H245.875V147.577H243.985V142.775C243.985 142.523 243.99 142.248 243.999 141.949C244.009 141.641 244.018 141.347 244.027 141.067C244.046 140.787 244.06 140.544 244.069 140.339C244.088 140.124 244.102 139.984 244.111 139.919H244.055L239.421 147.577H236.873V137.581ZM247.747 143.059V141.862H251.015V143.059H247.747ZM256.719 144.472C256.719 145.64 256.545 146.47 256.197 146.962C255.85 147.45 255.309 147.694 254.574 147.694C253.84 147.694 253.303 147.493 252.963 147.091C252.623 146.688 252.451 146.024 252.447 145.099V144.536H253.93V144.753C253.934 145.39 253.977 145.815 254.059 146.03C254.145 146.241 254.305 146.347 254.539 146.347C254.773 146.347 254.918 146.3 254.973 146.206C255.027 146.108 255.072 146.015 255.107 145.925C255.143 145.831 255.16 145.526 255.16 145.011V143.47C254.945 143.614 254.627 143.686 254.205 143.686C253.51 143.686 253.016 143.435 252.723 142.931C252.434 142.427 252.289 141.663 252.289 140.64V140.265C252.289 138.983 252.51 138.122 252.951 137.681C253.311 137.321 253.822 137.142 254.486 137.142C255.154 137.142 255.645 137.27 255.957 137.528C256.273 137.782 256.479 138.136 256.572 138.589C256.67 139.042 256.719 139.63 256.719 140.352V144.472ZM254.498 142.397C254.885 142.397 255.105 142.229 255.16 141.893V139.936C255.16 139.429 255.113 139.063 255.02 138.841C254.93 138.618 254.754 138.507 254.492 138.507C254.234 138.507 254.059 138.62 253.965 138.847C253.871 139.073 253.824 139.442 253.824 139.954V140.874C253.824 141.444 253.869 141.841 253.959 142.063C254.053 142.286 254.232 142.397 254.498 142.397ZM260.234 147.694C258.871 147.694 258.189 146.985 258.189 145.567V144.272H259.66V145.403C259.66 145.88 259.752 146.175 259.936 146.288C260.006 146.331 260.117 146.352 260.27 146.352C260.277 146.352 260.289 146.352 260.305 146.352C260.648 146.352 260.82 146.015 260.82 145.339V142.702C260.82 142.327 260.781 142.048 260.703 141.864C260.625 141.677 260.473 141.583 260.246 141.583C259.84 141.583 259.637 141.917 259.637 142.585L258.254 142.526V137.265H262.068V138.671H259.701V140.763C259.775 140.618 259.908 140.501 260.1 140.411C260.295 140.321 260.508 140.276 260.738 140.276C261.34 140.276 261.758 140.542 261.992 141.073C262.227 141.601 262.344 142.44 262.344 143.593C262.344 144.741 262.303 145.54 262.221 145.989C262.143 146.435 262.025 146.774 261.869 147.009C261.568 147.466 261.023 147.694 260.234 147.694Z" fill="#4E87C5"/>
<path d="M198 175H301V347H198V175Z" fill="#2D9CDB" fill-opacity="0.3"/>
<path d="M453 142.909L453 348.037C407.311 362.322 381.688 361.5 336 348.037L336 341.077L336 142.909C350 128.577 414 120.577 453 142.909Z" fill="url(#paint6_linear)"/>
<rect x="446.612" y="153.577" width="192" height="102.211" transform="rotate(90 446.612 153.577)" fill="#333333"/>
<path d="M379.325 146.577L378.597 144.197H374.957L374.229 146.577H371.947L375.475 136.539H378.065L381.607 146.577H379.325ZM378.093 142.419L377.365 140.095C377.319 139.936 377.258 139.736 377.183 139.493C377.109 139.25 377.034 139.003 376.959 138.751C376.885 138.499 376.824 138.28 376.777 138.093C376.731 138.28 376.665 138.513 376.581 138.793C376.507 139.064 376.432 139.325 376.357 139.577C376.292 139.82 376.241 139.992 376.203 140.095L375.489 142.419H378.093ZM382.873 136.581H384.777V141.411C384.777 141.644 384.773 141.906 384.763 142.195C384.754 142.484 384.745 142.769 384.735 143.049C384.726 143.32 384.717 143.558 384.707 143.763C384.698 143.959 384.689 144.094 384.679 144.169H384.721L389.341 136.581H391.875V146.577H389.985V141.775C389.985 141.523 389.99 141.248 389.999 140.949C390.009 140.641 390.018 140.347 390.027 140.067C390.046 139.787 390.06 139.544 390.069 139.339C390.088 139.124 390.102 138.984 390.111 138.919H390.055L385.421 146.577H382.873V136.581ZM393.747 142.059V140.862H397.015V142.059H393.747ZM402.719 143.472C402.719 144.64 402.545 145.47 402.197 145.962C401.85 146.45 401.309 146.694 400.574 146.694C399.84 146.694 399.303 146.493 398.963 146.091C398.623 145.688 398.451 145.024 398.447 144.099V143.536H399.93V143.753C399.934 144.39 399.977 144.815 400.059 145.03C400.145 145.241 400.305 145.347 400.539 145.347C400.773 145.347 400.918 145.3 400.973 145.206C401.027 145.108 401.072 145.015 401.107 144.925C401.143 144.831 401.16 144.526 401.16 144.011V142.47C400.945 142.614 400.627 142.686 400.205 142.686C399.51 142.686 399.016 142.435 398.723 141.931C398.434 141.427 398.289 140.663 398.289 139.64V139.265C398.289 137.983 398.51 137.122 398.951 136.681C399.311 136.321 399.822 136.142 400.486 136.142C401.154 136.142 401.645 136.27 401.957 136.528C402.273 136.782 402.479 137.136 402.572 137.589C402.67 138.042 402.719 138.63 402.719 139.352V143.472ZM400.498 141.397C400.885 141.397 401.105 141.229 401.16 140.893V138.936C401.16 138.429 401.113 138.063 401.02 137.841C400.93 137.618 400.754 137.507 400.492 137.507C400.234 137.507 400.059 137.62 399.965 137.847C399.871 138.073 399.824 138.442 399.824 138.954V139.874C399.824 140.444 399.869 140.841 399.959 141.063C400.053 141.286 400.232 141.397 400.498 141.397ZM406.234 146.694C404.871 146.694 404.189 145.985 404.189 144.567V143.272H405.66V144.403C405.66 144.88 405.752 145.175 405.936 145.288C406.006 145.331 406.117 145.352 406.27 145.352C406.277 145.352 406.289 145.352 406.305 145.352C406.648 145.352 406.82 145.015 406.82 144.339V141.702C406.82 141.327 406.781 141.048 406.703 140.864C406.625 140.677 406.473 140.583 406.246 140.583C405.84 140.583 405.637 140.917 405.637 141.585L404.254 141.526V136.265H408.068V137.671H405.701V139.763C405.775 139.618 405.908 139.501 406.1 139.411C406.295 139.321 406.508 139.276 406.738 139.276C407.34 139.276 407.758 139.542 407.992 140.073C408.227 140.601 408.344 141.44 408.344 142.593C408.344 143.741 408.303 144.54 408.221 144.989C408.143 145.435 408.025 145.774 407.869 146.009C407.568 146.466 407.023 146.694 406.234 146.694Z" fill="#FF9500"/>
<path d="M453 142.909L453 348.037C407.311 362.322 381.688 361.5 336 348.037L336 341.077L336 142.909C350 128.577 414 120.577 453 142.909Z" fill="url(#paint7_linear)"/>
<rect x="446.612" y="153.577" width="192" height="102.211" transform="rotate(90 446.612 153.577)" fill="#333333"/>
<path d="M379.325 146.577L378.597 144.197H374.957L374.229 146.577H371.947L375.475 136.539H378.065L381.607 146.577H379.325ZM378.093 142.419L377.365 140.095C377.319 139.936 377.258 139.736 377.183 139.493C377.109 139.25 377.034 139.003 376.959 138.751C376.885 138.499 376.824 138.28 376.777 138.093C376.731 138.28 376.665 138.513 376.581 138.793C376.507 139.064 376.432 139.325 376.357 139.577C376.292 139.82 376.241 139.992 376.203 140.095L375.489 142.419H378.093ZM382.873 136.581H384.777V141.411C384.777 141.644 384.773 141.906 384.763 142.195C384.754 142.484 384.745 142.769 384.735 143.049C384.726 143.32 384.717 143.558 384.707 143.763C384.698 143.959 384.689 144.094 384.679 144.169H384.721L389.341 136.581H391.875V146.577H389.985V141.775C389.985 141.523 389.99 141.248 389.999 140.949C390.009 140.641 390.018 140.347 390.027 140.067C390.046 139.787 390.06 139.544 390.069 139.339C390.088 139.124 390.102 138.984 390.111 138.919H390.055L385.421 146.577H382.873V136.581ZM393.747 142.059V140.862H397.015V142.059H393.747ZM402.719 143.472C402.719 144.64 402.545 145.47 402.197 145.962C401.85 146.45 401.309 146.694 400.574 146.694C399.84 146.694 399.303 146.493 398.963 146.091C398.623 145.688 398.451 145.024 398.447 144.099V143.536H399.93V143.753C399.934 144.39 399.977 144.815 400.059 145.03C400.145 145.241 400.305 145.347 400.539 145.347C400.773 145.347 400.918 145.3 400.973 145.206C401.027 145.108 401.072 145.015 401.107 144.925C401.143 144.831 401.16 144.526 401.16 144.011V142.47C400.945 142.614 400.627 142.686 400.205 142.686C399.51 142.686 399.016 142.435 398.723 141.931C398.434 141.427 398.289 140.663 398.289 139.64V139.265C398.289 137.983 398.51 137.122 398.951 136.681C399.311 136.321 399.822 136.142 400.486 136.142C401.154 136.142 401.645 136.27 401.957 136.528C402.273 136.782 402.479 137.136 402.572 137.589C402.67 138.042 402.719 138.63 402.719 139.352V143.472ZM400.498 141.397C400.885 141.397 401.105 141.229 401.16 140.893V138.936C401.16 138.429 401.113 138.063 401.02 137.841C400.93 137.618 400.754 137.507 400.492 137.507C400.234 137.507 400.059 137.62 399.965 137.847C399.871 138.073 399.824 138.442 399.824 138.954V139.874C399.824 140.444 399.869 140.841 399.959 141.063C400.053 141.286 400.232 141.397 400.498 141.397ZM406.234 146.694C404.871 146.694 404.189 145.985 404.189 144.567V143.272H405.66V144.403C405.66 144.88 405.752 145.175 405.936 145.288C406.006 145.331 406.117 145.352 406.27 145.352C406.277 145.352 406.289 145.352 406.305 145.352C406.648 145.352 406.82 145.015 406.82 144.339V141.702C406.82 141.327 406.781 141.048 406.703 140.864C406.625 140.677 406.473 140.583 406.246 140.583C405.84 140.583 405.637 140.917 405.637 141.585L404.254 141.526V136.265H408.068V137.671H405.701V139.763C405.775 139.618 405.908 139.501 406.1 139.411C406.295 139.321 406.508 139.276 406.738 139.276C407.34 139.276 407.758 139.542 407.992 140.073C408.227 140.601 408.344 141.44 408.344 142.593C408.344 143.741 408.303 144.54 408.221 144.989C408.143 145.435 408.025 145.774 407.869 146.009C407.568 146.466 407.023 146.694 406.234 146.694Z" fill="#FF9500"/>
<path d="M453 142.909L453 348.037C407.311 362.322 381.688 361.5 336 348.037L336 341.077L336 142.909C350 128.577 414 120.577 453 142.909Z" fill="url(#paint8_linear)"/>
<rect x="446.612" y="153.577" width="192" height="102.211" transform="rotate(90 446.612 153.577)" fill="#333333"/>
<path d="M393.187 136.581V144.813H394.517V149.489H392.473V146.577H386.215V149.489H384.171V144.813H384.941C385.295 144.113 385.627 143.366 385.935 142.573C386.243 141.77 386.518 140.879 386.761 139.899C387.013 138.919 387.213 137.813 387.363 136.581H393.187ZM389.043 138.345C388.959 138.989 388.823 139.689 388.637 140.445C388.459 141.192 388.245 141.943 387.993 142.699C387.741 143.446 387.465 144.15 387.167 144.813H391.073V138.345H389.043ZM399.902 146.577H397.788V138.345H395.072V136.581H402.618V138.345H399.902V146.577Z" fill="#4F4F4F"/>
<path d="M344 175H447V346H344V175Z" fill="#2D9CDB" fill-opacity="0.3"/>
<rect x="654" y="391" width="103" height="182" fill="#C4C4C4"/>
<rect x="536" y="168" width="118" height="405" fill="#5F6263"/>
<rect x="544" y="168" width="30" height="317" fill="#C4C4C4"/>
<rect x="580" y="168" width="30" height="317" fill="#C4C4C4"/>
<rect x="616" y="168" width="30" height="317" fill="#C4C4C4"/>
<rect x="658" y="398" width="94" height="77" fill="#333333"/>
<rect x="538" y="168" width="116" height="14" fill="#5F6263"/>
<path d="M565 225.587L562.62 226.315V229.955L565 230.683V232.965L554.962 229.437V226.847L565 223.305V225.587ZM558.518 227.547C558.359 227.594 558.159 227.654 557.916 227.729C557.673 227.804 557.426 227.878 557.174 227.953C556.922 228.028 556.703 228.088 556.516 228.135C556.703 228.182 556.936 228.247 557.216 228.331C557.487 228.406 557.748 228.48 558 228.555C558.243 228.62 558.415 228.672 558.518 228.709L560.842 229.423V226.819L558.518 227.547ZM555.004 222.039V220.135H559.834C560.067 220.135 560.329 220.139 560.618 220.149C560.907 220.158 561.192 220.167 561.472 220.177C561.743 220.186 561.981 220.195 562.186 220.205C562.382 220.214 562.517 220.223 562.592 220.233V220.191L555.004 215.571V213.037H565V214.927H560.198C559.946 214.927 559.671 214.922 559.372 214.913C559.064 214.903 558.77 214.894 558.49 214.885C558.21 214.866 557.967 214.852 557.762 214.843C557.547 214.824 557.407 214.81 557.342 214.801V214.857L565 219.491V222.039H555.004ZM560.481 211.165H559.285V207.897H560.481V211.165ZM561.377 201.39C562.74 201.39 563.708 201.592 564.282 201.998C564.852 202.404 565.137 203.035 565.137 203.892C565.137 204.748 564.902 205.375 564.433 205.771C563.963 206.168 563.188 206.368 562.108 206.373H561.452V204.644H561.705C562.448 204.639 562.945 204.589 563.195 204.493C563.441 204.393 563.564 204.206 563.564 203.933C563.564 203.659 563.51 203.491 563.4 203.427C563.286 203.363 563.177 203.311 563.072 203.27C562.963 203.229 562.607 203.208 562.006 203.208H560.208C560.377 203.459 560.461 203.83 560.461 204.322C560.461 205.133 560.167 205.71 559.579 206.052C558.991 206.389 558.1 206.558 556.906 206.558H556.469C554.974 206.558 553.969 206.3 553.454 205.785C553.035 205.366 552.825 204.769 552.825 203.994C552.825 203.215 552.976 202.643 553.276 202.278C553.573 201.909 553.985 201.67 554.514 201.561C555.042 201.447 555.728 201.39 556.571 201.39H561.377ZM558.957 203.98C558.957 203.529 558.761 203.272 558.369 203.208H556.086C555.493 203.208 555.067 203.263 554.808 203.372C554.548 203.477 554.418 203.682 554.418 203.987C554.418 204.288 554.55 204.493 554.814 204.603C555.079 204.712 555.509 204.767 556.106 204.767H557.18C557.845 204.767 558.308 204.714 558.567 204.609C558.827 204.5 558.957 204.29 558.957 203.98ZM564.378 195.292C564.888 195.711 565.144 196.358 565.144 197.233C565.144 198.108 564.891 198.765 564.385 199.202C563.874 199.635 563.097 199.858 562.054 199.872C562.022 199.877 561.716 199.879 561.138 199.879C560.554 199.879 560.012 199.788 559.511 199.605C559.009 199.423 558.649 199.175 558.431 198.86C557.975 199.503 557.109 199.824 555.833 199.824C554.78 199.824 554.017 199.621 553.543 199.216C553.064 198.806 552.825 198.143 552.825 197.227C552.825 196.306 553.058 195.647 553.522 195.251C553.987 194.854 554.757 194.656 555.833 194.656C557.123 194.656 557.989 194.975 558.431 195.613C558.649 195.312 559.012 195.076 559.518 194.902C560.023 194.729 560.582 194.643 561.192 194.643H562.02C563.081 194.652 563.868 194.868 564.378 195.292ZM562.006 198.047C562.594 198.042 563.004 197.988 563.236 197.883C563.464 197.778 563.578 197.564 563.578 197.24C563.578 196.912 563.464 196.702 563.236 196.611C563.004 196.52 562.585 196.475 561.979 196.475H560.994C559.764 196.475 559.148 196.725 559.148 197.227C559.148 197.477 559.308 197.678 559.627 197.828C559.946 197.974 560.404 198.047 561.001 198.047H562.006ZM557.781 197.65C557.882 197.55 557.932 197.413 557.932 197.24C557.936 197.24 557.938 197.238 557.938 197.233C557.938 197.065 557.886 196.93 557.781 196.83C557.676 196.725 557.48 196.641 557.193 196.577C556.906 196.513 556.507 196.481 555.997 196.481C555.491 196.481 555.113 196.509 554.862 196.563C554.607 196.614 554.441 196.689 554.363 196.789C554.286 196.889 554.247 197.037 554.247 197.233C554.247 197.429 554.29 197.577 554.377 197.678C554.55 197.887 555.104 197.992 556.038 197.992C556.972 197.992 557.553 197.878 557.781 197.65Z" fill="#BA4545"/>
<path d="M601 224.587L598.62 225.315V228.955L601 229.683V231.965L590.962 228.437V225.847L601 222.305V224.587ZM594.518 226.547C594.359 226.594 594.159 226.654 593.916 226.729C593.673 226.804 593.426 226.878 593.174 226.953C592.922 227.028 592.703 227.088 592.516 227.135C592.703 227.182 592.936 227.247 593.216 227.331C593.487 227.406 593.748 227.48 594 227.555C594.243 227.62 594.415 227.672 594.518 227.709L596.842 228.423V225.819L594.518 226.547ZM591.004 221.039V219.135H595.834C596.067 219.135 596.329 219.139 596.618 219.149C596.907 219.158 597.192 219.167 597.472 219.177C597.743 219.186 597.981 219.195 598.186 219.205C598.382 219.214 598.517 219.223 598.592 219.233V219.191L591.004 214.571V212.037H601V213.927H596.198C595.946 213.927 595.671 213.922 595.372 213.913C595.064 213.903 594.77 213.894 594.49 213.885C594.21 213.866 593.967 213.852 593.762 213.843C593.547 213.824 593.407 213.81 593.342 213.801V213.857L601 218.491V221.039H591.004ZM596.481 210.165H595.285V206.897H596.481V210.165ZM597.377 200.39C598.74 200.39 599.708 200.592 600.282 200.998C600.852 201.404 601.137 202.035 601.137 202.892C601.137 203.748 600.902 204.375 600.433 204.771C599.963 205.168 599.188 205.368 598.108 205.373H597.452V203.644H597.705C598.448 203.639 598.945 203.589 599.195 203.493C599.441 203.393 599.564 203.206 599.564 202.933C599.564 202.659 599.51 202.491 599.4 202.427C599.286 202.363 599.177 202.311 599.072 202.27C598.963 202.229 598.607 202.208 598.006 202.208H596.208C596.377 202.459 596.461 202.83 596.461 203.322C596.461 204.133 596.167 204.71 595.579 205.052C594.991 205.389 594.1 205.558 592.906 205.558H592.469C590.974 205.558 589.969 205.3 589.454 204.785C589.035 204.366 588.825 203.769 588.825 202.994C588.825 202.215 588.976 201.643 589.276 201.278C589.573 200.909 589.985 200.67 590.514 200.561C591.042 200.447 591.728 200.39 592.571 200.39H597.377ZM594.957 202.98C594.957 202.529 594.761 202.272 594.369 202.208H592.086C591.493 202.208 591.067 202.263 590.808 202.372C590.548 202.477 590.418 202.682 590.418 202.987C590.418 203.288 590.55 203.493 590.814 203.603C591.079 203.712 591.509 203.767 592.106 203.767H593.18C593.845 203.767 594.308 203.714 594.567 203.609C594.827 203.5 594.957 203.29 594.957 202.98ZM601.137 196.288C601.137 197.879 600.31 198.674 598.655 198.674H597.145V196.958H598.464C599.02 196.958 599.364 196.851 599.496 196.637C599.546 196.555 599.571 196.425 599.571 196.247C599.571 196.238 599.571 196.224 599.571 196.206C599.571 195.805 599.177 195.604 598.389 195.604H595.312C594.875 195.604 594.549 195.65 594.335 195.741C594.116 195.832 594.007 196.01 594.007 196.274C594.007 196.748 594.396 196.985 595.176 196.985L595.107 198.599H588.969V194.148H590.609V196.91H593.05C592.881 196.824 592.744 196.669 592.64 196.445C592.535 196.217 592.482 195.969 592.482 195.7C592.482 194.998 592.792 194.511 593.412 194.237C594.027 193.964 595.007 193.827 596.352 193.827C597.691 193.827 598.623 193.875 599.147 193.971C599.667 194.062 600.063 194.199 600.337 194.381C600.87 194.732 601.137 195.368 601.137 196.288Z" fill="#4E87C5"/>
<path d="M626.004 201.713H634.236V200.383H638.912V202.427H636V208.685H638.912V210.729H634.236V209.959C633.536 209.604 632.789 209.273 631.996 208.965C631.193 208.657 630.302 208.381 629.322 208.139C628.342 207.887 627.236 207.686 626.004 207.537V201.713ZM627.768 205.857C628.412 205.941 629.112 206.076 629.868 206.263C630.615 206.44 631.366 206.655 632.122 206.907C632.869 207.159 633.573 207.434 634.236 207.733V203.827H627.768V205.857ZM636 194.997V197.111H627.768V199.827H626.004V192.281H627.768V194.997H636Z" fill="#4F4F4F"/>
<rect x="548" y="300" width="22" height="73" fill="#75787A"/>
<rect x="620" y="300" width="22" height="73" fill="#75787A"/>
<rect x="658" y="485" width="94" height="73" fill="#75787A"/>
<path d="M701.125 538V504.531C700.594 505.172 699.844 505.672 698.875 506.031C697.906 506.375 696.953 506.547 696.016 506.547V501.883C697.344 501.695 698.602 501.156 699.789 500.266C700.992 499.375 701.906 498.195 702.531 496.727H707.406V538H701.125Z" fill="black"/>
<rect x="584" y="300" width="22" height="73" fill="#75787A"/>
<g opacity="0.8">
<path d="M574 564L574 551L545 551L545 564L574 564Z" fill="url(#paint9_linear)"/>
<path d="M567 509L567 485L551 485L551 509L567 509Z" fill="url(#paint10_linear)"/>
<rect x="577" y="534" width="36" height="25" rx="4" transform="rotate(-180 577 534)" fill="url(#paint11_linear)"/>
<rect x="577" y="555" width="36" height="25" rx="4" transform="rotate(-180 577 555)" fill="url(#paint12_linear)"/>
<circle cx="559.093" cy="531.206" r="17.7934" transform="rotate(90 559.093 531.206)" fill="url(#paint13_radial)"/>
<path d="M610 564L610 551L581 551L581 564L610 564Z" fill="url(#paint14_linear)"/>
<path d="M603 509L603 485L587 485L587 509L603 509Z" fill="url(#paint15_linear)"/>
<rect x="613" y="534" width="36" height="25" rx="4" transform="rotate(-180 613 534)" fill="url(#paint16_linear)"/>
<rect x="613" y="555" width="36" height="25" rx="4" transform="rotate(-180 613 555)" fill="url(#paint17_linear)"/>
<circle cx="595.093" cy="531.206" r="17.7934" transform="rotate(90 595.093 531.206)" fill="url(#paint18_radial)"/>
<path d="M646 564L646 551L617 551L617 564L646 564Z" fill="url(#paint19_linear)"/>
<path d="M639 509L639 485L623 485L623 509L639 509Z" fill="url(#paint20_linear)"/>
<rect x="649" y="534" width="36" height="25" rx="4" transform="rotate(-180 649 534)" fill="url(#paint21_linear)"/>
<rect x="649" y="555" width="36" height="25" rx="4" transform="rotate(-180 649 555)" fill="url(#paint22_linear)"/>
<circle cx="631.093" cy="531.206" r="17.7934" transform="rotate(90 631.093 531.206)" fill="url(#paint23_radial)"/>
</g>
<rect x="536" y="564" width="118" height="9" fill="#C4C4C4"/>
<rect x="908" y="387" width="103" height="182" fill="#C4C4C4"/>
<rect x="790" y="164" width="118" height="405" fill="#5F6263"/>
<rect x="798" y="164" width="30" height="317" fill="#C4C4C4"/>
<rect x="834" y="164" width="30" height="317" fill="#C4C4C4"/>
<rect x="870" y="164" width="30" height="317" fill="#C4C4C4"/>
<path d="M880.004 201.713H888.236V200.383H892.912V202.427H890V208.685H892.912V210.729H888.236V209.959C887.536 209.604 886.789 209.273 885.996 208.965C885.193 208.657 884.302 208.381 883.322 208.139C882.342 207.887 881.236 207.686 880.004 207.537V201.713ZM881.768 205.857C882.412 205.941 883.112 206.076 883.868 206.263C884.615 206.44 885.366 206.655 886.122 206.907C886.869 207.159 887.573 207.434 888.236 207.733V203.827H881.768V205.857ZM890 194.997V197.111H881.768V199.827H880.004V192.281H881.768V194.997H890Z" fill="#4F4F4F"/>
<rect x="912" y="394" width="94" height="77" fill="#333333"/>
<rect x="792" y="164" width="116" height="14" fill="#5F6263"/>
<path d="M819 225.587L816.62 226.315V229.955L819 230.683V232.965L808.962 229.437V226.847L819 223.305V225.587ZM812.518 227.547C812.359 227.594 812.159 227.654 811.916 227.729C811.673 227.804 811.426 227.878 811.174 227.953C810.922 228.028 810.703 228.088 810.516 228.135C810.703 228.182 810.936 228.247 811.216 228.331C811.487 228.406 811.748 228.48 812 228.555C812.243 228.62 812.415 228.672 812.518 228.709L814.842 229.423V226.819L812.518 227.547ZM809.004 222.039V220.135H813.834C814.067 220.135 814.329 220.139 814.618 220.149C814.907 220.158 815.192 220.167 815.472 220.177C815.743 220.186 815.981 220.195 816.186 220.205C816.382 220.214 816.517 220.223 816.592 220.233V220.191L809.004 215.571V213.037H819V214.927H814.198C813.946 214.927 813.671 214.922 813.372 214.913C813.064 214.903 812.77 214.894 812.49 214.885C812.21 214.866 811.967 214.852 811.762 214.843C811.547 214.824 811.407 214.81 811.342 214.801V214.857L819 219.491V222.039H809.004ZM814.481 211.165H813.285V207.897H814.481V211.165ZM815.377 201.39C816.74 201.39 817.708 201.592 818.282 201.998C818.852 202.404 819.137 203.035 819.137 203.892C819.137 204.748 818.902 205.375 818.433 205.771C817.963 206.168 817.188 206.368 816.108 206.373H815.452V204.644H815.705C816.448 204.639 816.945 204.589 817.195 204.493C817.441 204.393 817.564 204.206 817.564 203.933C817.564 203.659 817.51 203.491 817.4 203.427C817.286 203.363 817.177 203.311 817.072 203.27C816.963 203.229 816.607 203.208 816.006 203.208H814.208C814.377 203.459 814.461 203.83 814.461 204.322C814.461 205.133 814.167 205.71 813.579 206.052C812.991 206.389 812.1 206.558 810.906 206.558H810.469C808.974 206.558 807.969 206.3 807.454 205.785C807.035 205.366 806.825 204.769 806.825 203.994C806.825 203.215 806.976 202.643 807.276 202.278C807.573 201.909 807.985 201.67 808.514 201.561C809.042 201.447 809.728 201.39 810.571 201.39H815.377ZM812.957 203.98C812.957 203.529 812.761 203.272 812.369 203.208H810.086C809.493 203.208 809.067 203.263 808.808 203.372C808.548 203.477 808.418 203.682 808.418 203.987C808.418 204.288 808.55 204.493 808.814 204.603C809.079 204.712 809.509 204.767 810.106 204.767H811.18C811.845 204.767 812.308 204.714 812.567 204.609C812.827 204.5 812.957 204.29 812.957 203.98ZM818.378 195.292C818.888 195.711 819.144 196.358 819.144 197.233C819.144 198.108 818.891 198.765 818.385 199.202C817.874 199.635 817.097 199.858 816.054 199.872C816.022 199.877 815.716 199.879 815.138 199.879C814.554 199.879 814.012 199.788 813.511 199.605C813.009 199.423 812.649 199.175 812.431 198.86C811.975 199.503 811.109 199.824 809.833 199.824C808.78 199.824 808.017 199.621 807.543 199.216C807.064 198.806 806.825 198.143 806.825 197.227C806.825 196.306 807.058 195.647 807.522 195.251C807.987 194.854 808.757 194.656 809.833 194.656C811.123 194.656 811.989 194.975 812.431 195.613C812.649 195.312 813.012 195.076 813.518 194.902C814.023 194.729 814.582 194.643 815.192 194.643H816.02C817.081 194.652 817.868 194.868 818.378 195.292ZM816.006 198.047C816.594 198.042 817.004 197.988 817.236 197.883C817.464 197.778 817.578 197.564 817.578 197.24C817.578 196.912 817.464 196.702 817.236 196.611C817.004 196.52 816.585 196.475 815.979 196.475H814.994C813.764 196.475 813.148 196.725 813.148 197.227C813.148 197.477 813.308 197.678 813.627 197.828C813.946 197.974 814.404 198.047 815.001 198.047H816.006ZM811.781 197.65C811.882 197.55 811.932 197.413 811.932 197.24C811.936 197.24 811.938 197.238 811.938 197.233C811.938 197.065 811.886 196.93 811.781 196.83C811.676 196.725 811.48 196.641 811.193 196.577C810.906 196.513 810.507 196.481 809.997 196.481C809.491 196.481 809.113 196.509 808.862 196.563C808.607 196.614 808.441 196.689 808.363 196.789C808.286 196.889 808.247 197.037 808.247 197.233C808.247 197.429 808.29 197.577 808.377 197.678C808.55 197.887 809.104 197.992 810.038 197.992C810.972 197.992 811.553 197.878 811.781 197.65Z" fill="#BA4545"/>
<path d="M855 223.587L852.62 224.315V227.955L855 228.683V230.965L844.962 227.437V224.847L855 221.305V223.587ZM848.518 225.547C848.359 225.594 848.159 225.654 847.916 225.729C847.673 225.804 847.426 225.878 847.174 225.953C846.922 226.028 846.703 226.088 846.516 226.135C846.703 226.182 846.936 226.247 847.216 226.331C847.487 226.406 847.748 226.48 848 226.555C848.243 226.62 848.415 226.672 848.518 226.709L850.842 227.423V224.819L848.518 225.547ZM845.004 220.039V218.135H849.834C850.067 218.135 850.329 218.139 850.618 218.149C850.907 218.158 851.192 218.167 851.472 218.177C851.743 218.186 851.981 218.195 852.186 218.205C852.382 218.214 852.517 218.223 852.592 218.233V218.191L845.004 213.571V211.037H855V212.927H850.198C849.946 212.927 849.671 212.922 849.372 212.913C849.064 212.903 848.77 212.894 848.49 212.885C848.21 212.866 847.967 212.852 847.762 212.843C847.547 212.824 847.407 212.81 847.342 212.801V212.857L855 217.491V220.039H845.004ZM850.481 209.165H849.285V205.897H850.481V209.165ZM851.377 199.39C852.74 199.39 853.708 199.592 854.282 199.998C854.852 200.404 855.137 201.035 855.137 201.892C855.137 202.748 854.902 203.375 854.433 203.771C853.963 204.168 853.188 204.368 852.108 204.373H851.452V202.644H851.705C852.448 202.639 852.945 202.589 853.195 202.493C853.441 202.393 853.564 202.206 853.564 201.933C853.564 201.659 853.51 201.491 853.4 201.427C853.286 201.363 853.177 201.311 853.072 201.27C852.963 201.229 852.607 201.208 852.006 201.208H850.208C850.377 201.459 850.461 201.83 850.461 202.322C850.461 203.133 850.167 203.71 849.579 204.052C848.991 204.389 848.1 204.558 846.906 204.558H846.469C844.974 204.558 843.969 204.3 843.454 203.785C843.035 203.366 842.825 202.769 842.825 201.994C842.825 201.215 842.976 200.643 843.276 200.278C843.573 199.909 843.985 199.67 844.514 199.561C845.042 199.447 845.728 199.39 846.571 199.39H851.377ZM848.957 201.98C848.957 201.529 848.761 201.272 848.369 201.208H846.086C845.493 201.208 845.067 201.263 844.808 201.372C844.548 201.477 844.418 201.682 844.418 201.987C844.418 202.288 844.55 202.493 844.814 202.603C845.079 202.712 845.509 202.767 846.106 202.767H847.18C847.845 202.767 848.308 202.714 848.567 202.609C848.827 202.5 848.957 202.29 848.957 201.98ZM855.137 195.288C855.137 196.879 854.31 197.674 852.655 197.674H851.145V195.958H852.464C853.02 195.958 853.364 195.851 853.496 195.637C853.546 195.555 853.571 195.425 853.571 195.247C853.571 195.238 853.571 195.224 853.571 195.206C853.571 194.805 853.177 194.604 852.389 194.604H849.312C848.875 194.604 848.549 194.65 848.335 194.741C848.116 194.832 848.007 195.01 848.007 195.274C848.007 195.748 848.396 195.985 849.176 195.985L849.107 197.599H842.969V193.148H844.609V195.91H847.05C846.881 195.824 846.744 195.669 846.64 195.445C846.535 195.217 846.482 194.969 846.482 194.7C846.482 193.998 846.792 193.511 847.412 193.237C848.027 192.964 849.007 192.827 850.352 192.827C851.691 192.827 852.623 192.875 853.147 192.971C853.667 193.062 854.063 193.199 854.337 193.381C854.87 193.732 855.137 194.368 855.137 195.288Z" fill="#4E87C5"/>
<rect x="874" y="296" width="22" height="73" fill="#75787A"/>
<rect x="838" y="296" width="22" height="73" fill="#75787A"/>
<rect x="912" y="481" width="94" height="73" fill="#75787A"/>
<path d="M949.594 534V531.562C949.594 529.406 949.945 527.289 950.648 525.211C951.367 523.117 952.484 520.742 954 518.086C954.062 517.992 954.633 517.016 955.711 515.156C956.789 513.297 957.578 512.016 958.078 511.312C959.297 509.312 959.906 506.547 959.906 503.016C959.906 499.469 959.156 497.695 957.656 497.695C956.406 497.695 955.633 498.68 955.336 500.648C955.211 501.492 955.148 502.547 955.148 503.812V509.039H949.148V506.508C949.148 501.398 949.625 497.945 950.578 496.148C951.547 494.352 952.875 493.203 954.562 492.703C955.5 492.422 956.633 492.281 957.961 492.281C959.289 492.281 960.484 492.578 961.547 493.172C962.578 493.766 963.406 494.594 964.031 495.656C965.25 497.734 965.859 500.445 965.859 503.789C965.859 507.117 965.211 510.039 963.914 512.555C962.617 515.07 961.336 517.305 960.07 519.258C957.758 522.836 956.258 526.109 955.57 529.078H965.086V534H949.594Z" fill="black"/>
<rect x="802" y="296" width="22" height="73" fill="#75787A"/>
<g opacity="0.8">
<path d="M828 560L828 547L799 547L799 560L828 560Z" fill="url(#paint24_linear)"/>
<path d="M821 505L821 481L805 481L805 505L821 505Z" fill="url(#paint25_linear)"/>
<rect x="831" y="530" width="36" height="25" rx="4" transform="rotate(-180 831 530)" fill="url(#paint26_linear)"/>
<rect x="831" y="551" width="36" height="25" rx="4" transform="rotate(-180 831 551)" fill="url(#paint27_linear)"/>
<circle cx="813.093" cy="527.206" r="17.7934" transform="rotate(90 813.093 527.206)" fill="url(#paint28_radial)"/>
<path d="M864 560L864 547L835 547L835 560L864 560Z" fill="url(#paint29_linear)"/>
<path d="M857 505L857 481L841 481L841 505L857 505Z" fill="url(#paint30_linear)"/>
<rect x="867" y="530" width="36" height="25" rx="4" transform="rotate(-180 867 530)" fill="url(#paint31_linear)"/>
<rect x="867" y="551" width="36" height="25" rx="4" transform="rotate(-180 867 551)" fill="url(#paint32_linear)"/>
<circle cx="849.093" cy="527.206" r="17.7934" transform="rotate(90 849.093 527.206)" fill="url(#paint33_radial)"/>
<path d="M900 560L900 547L871 547L871 560L900 560Z" fill="url(#paint34_linear)"/>
<path d="M893 505L893 481L877 481L877 505L893 505Z" fill="url(#paint35_linear)"/>
<rect x="903" y="530" width="36" height="25" rx="4" transform="rotate(-180 903 530)" fill="url(#paint36_linear)"/>
<rect x="903" y="551" width="36" height="25" rx="4" transform="rotate(-180 903 551)" fill="url(#paint37_linear)"/>
<circle cx="885.093" cy="527.206" r="17.7934" transform="rotate(90 885.093 527.206)" fill="url(#paint38_radial)"/>
</g>
<rect x="790" y="560" width="118" height="9" fill="#C4C4C4"/>
<rect x="1160" y="387" width="103" height="182" fill="#C4C4C4"/>
<rect x="1042" y="164" width="118" height="405" fill="#5F6263"/>
<rect x="1050" y="164" width="30" height="317" fill="#C4C4C4"/>
<rect x="1086" y="164" width="30" height="317" fill="#C4C4C4"/>
<rect x="1122" y="164" width="30" height="317" fill="#C4C4C4"/>
<path d="M1132 201.713H1140.24V200.383H1144.91V202.427H1142V208.685H1144.91V210.729H1140.24V209.959C1139.54 209.604 1138.79 209.273 1138 208.965C1137.19 208.657 1136.3 208.381 1135.32 208.139C1134.34 207.887 1133.24 207.686 1132 207.537V201.713ZM1133.77 205.857C1134.41 205.941 1135.11 206.076 1135.87 206.263C1136.61 206.44 1137.37 206.655 1138.12 206.907C1138.87 207.159 1139.57 207.434 1140.24 207.733V203.827H1133.77V205.857ZM1142 194.997V197.111H1133.77V199.827H1132V192.281H1133.77V194.997H1142Z" fill="#4F4F4F"/>
<rect x="1164" y="394" width="94" height="77" fill="#333333"/>
<rect x="1044" y="164" width="116" height="14" fill="#5F6263"/>
<path d="M1071 225.587L1068.62 226.315V229.955L1071 230.683V232.965L1060.96 229.437V226.847L1071 223.305V225.587ZM1064.52 227.547C1064.36 227.594 1064.16 227.654 1063.92 227.729C1063.67 227.804 1063.43 227.878 1063.17 227.953C1062.92 228.028 1062.7 228.088 1062.52 228.135C1062.7 228.182 1062.94 228.247 1063.22 228.331C1063.49 228.406 1063.75 228.48 1064 228.555C1064.24 228.62 1064.42 228.672 1064.52 228.709L1066.84 229.423V226.819L1064.52 227.547ZM1061 222.039V220.135H1065.83C1066.07 220.135 1066.33 220.139 1066.62 220.149C1066.91 220.158 1067.19 220.167 1067.47 220.177C1067.74 220.186 1067.98 220.195 1068.19 220.205C1068.38 220.214 1068.52 220.223 1068.59 220.233V220.191L1061 215.571V213.037H1071V214.927H1066.2C1065.95 214.927 1065.67 214.922 1065.37 214.913C1065.06 214.903 1064.77 214.894 1064.49 214.885C1064.21 214.866 1063.97 214.852 1063.76 214.843C1063.55 214.824 1063.41 214.81 1063.34 214.801V214.857L1071 219.491V222.039H1061ZM1066.48 211.165H1065.29V207.897H1066.48V211.165ZM1067.38 201.39C1068.74 201.39 1069.71 201.592 1070.28 201.998C1070.85 202.404 1071.14 203.035 1071.14 203.892C1071.14 204.748 1070.9 205.375 1070.43 205.771C1069.96 206.168 1069.19 206.368 1068.11 206.373H1067.45V204.644H1067.71C1068.45 204.639 1068.94 204.589 1069.2 204.493C1069.44 204.393 1069.56 204.206 1069.56 203.933C1069.56 203.659 1069.51 203.491 1069.4 203.427C1069.29 203.363 1069.18 203.311 1069.07 203.27C1068.96 203.229 1068.61 203.208 1068.01 203.208H1066.21C1066.38 203.459 1066.46 203.83 1066.46 204.322C1066.46 205.133 1066.17 205.71 1065.58 206.052C1064.99 206.389 1064.1 206.558 1062.91 206.558H1062.47C1060.97 206.558 1059.97 206.3 1059.45 205.785C1059.03 205.366 1058.83 204.769 1058.83 203.994C1058.83 203.215 1058.98 202.643 1059.28 202.278C1059.57 201.909 1059.99 201.67 1060.51 201.561C1061.04 201.447 1061.73 201.39 1062.57 201.39H1067.38ZM1064.96 203.98C1064.96 203.529 1064.76 203.272 1064.37 203.208H1062.09C1061.49 203.208 1061.07 203.263 1060.81 203.372C1060.55 203.477 1060.42 203.682 1060.42 203.987C1060.42 204.288 1060.55 204.493 1060.81 204.603C1061.08 204.712 1061.51 204.767 1062.11 204.767H1063.18C1063.85 204.767 1064.31 204.714 1064.57 204.609C1064.83 204.5 1064.96 204.29 1064.96 203.98ZM1070.38 195.292C1070.89 195.711 1071.14 196.358 1071.14 197.233C1071.14 198.108 1070.89 198.765 1070.38 199.202C1069.87 199.635 1069.1 199.858 1068.05 199.872C1068.02 199.877 1067.72 199.879 1067.14 199.879C1066.55 199.879 1066.01 199.788 1065.51 199.605C1065.01 199.423 1064.65 199.175 1064.43 198.86C1063.97 199.503 1063.11 199.824 1061.83 199.824C1060.78 199.824 1060.02 199.621 1059.54 199.216C1059.06 198.806 1058.83 198.143 1058.83 197.227C1058.83 196.306 1059.06 195.647 1059.52 195.251C1059.99 194.854 1060.76 194.656 1061.83 194.656C1063.12 194.656 1063.99 194.975 1064.43 195.613C1064.65 195.312 1065.01 195.076 1065.52 194.902C1066.02 194.729 1066.58 194.643 1067.19 194.643H1068.02C1069.08 194.652 1069.87 194.868 1070.38 195.292ZM1068.01 198.047C1068.59 198.042 1069 197.988 1069.24 197.883C1069.46 197.778 1069.58 197.564 1069.58 197.24C1069.58 196.912 1069.46 196.702 1069.24 196.611C1069 196.52 1068.58 196.475 1067.98 196.475H1066.99C1065.76 196.475 1065.15 196.725 1065.15 197.227C1065.15 197.477 1065.31 197.678 1065.63 197.828C1065.95 197.974 1066.4 198.047 1067 198.047H1068.01ZM1063.78 197.65C1063.88 197.55 1063.93 197.413 1063.93 197.24C1063.94 197.24 1063.94 197.238 1063.94 197.233C1063.94 197.065 1063.89 196.93 1063.78 196.83C1063.68 196.725 1063.48 196.641 1063.19 196.577C1062.91 196.513 1062.51 196.481 1062 196.481C1061.49 196.481 1061.11 196.509 1060.86 196.563C1060.61 196.614 1060.44 196.689 1060.36 196.789C1060.29 196.889 1060.25 197.037 1060.25 197.233C1060.25 197.429 1060.29 197.577 1060.38 197.678C1060.55 197.887 1061.1 197.992 1062.04 197.992C1062.97 197.992 1063.55 197.878 1063.78 197.65Z" fill="#BA4545"/>
<path d="M1106 224.587L1103.62 225.315V228.955L1106 229.683V231.965L1095.96 228.437V225.847L1106 222.305V224.587ZM1099.52 226.547C1099.36 226.594 1099.16 226.654 1098.92 226.729C1098.67 226.804 1098.43 226.878 1098.17 226.953C1097.92 227.028 1097.7 227.088 1097.52 227.135C1097.7 227.182 1097.94 227.247 1098.22 227.331C1098.49 227.406 1098.75 227.48 1099 227.555C1099.24 227.62 1099.42 227.672 1099.52 227.709L1101.84 228.423V225.819L1099.52 226.547ZM1096 221.039V219.135H1100.83C1101.07 219.135 1101.33 219.139 1101.62 219.149C1101.91 219.158 1102.19 219.167 1102.47 219.177C1102.74 219.186 1102.98 219.195 1103.19 219.205C1103.38 219.214 1103.52 219.223 1103.59 219.233V219.191L1096 214.571V212.037H1106V213.927H1101.2C1100.95 213.927 1100.67 213.922 1100.37 213.913C1100.06 213.903 1099.77 213.894 1099.49 213.885C1099.21 213.866 1098.97 213.852 1098.76 213.843C1098.55 213.824 1098.41 213.81 1098.34 213.801V213.857L1106 218.491V221.039H1096ZM1101.48 210.165H1100.29V206.897H1101.48V210.165ZM1102.38 200.39C1103.74 200.39 1104.71 200.592 1105.28 200.998C1105.85 201.404 1106.14 202.035 1106.14 202.892C1106.14 203.748 1105.9 204.375 1105.43 204.771C1104.96 205.168 1104.19 205.368 1103.11 205.373H1102.45V203.644H1102.71C1103.45 203.639 1103.94 203.589 1104.2 203.493C1104.44 203.393 1104.56 203.206 1104.56 202.933C1104.56 202.659 1104.51 202.491 1104.4 202.427C1104.29 202.363 1104.18 202.311 1104.07 202.27C1103.96 202.229 1103.61 202.208 1103.01 202.208H1101.21C1101.38 202.459 1101.46 202.83 1101.46 203.322C1101.46 204.133 1101.17 204.71 1100.58 205.052C1099.99 205.389 1099.1 205.558 1097.91 205.558H1097.47C1095.97 205.558 1094.97 205.3 1094.45 204.785C1094.03 204.366 1093.83 203.769 1093.83 202.994C1093.83 202.215 1093.98 201.643 1094.28 201.278C1094.57 200.909 1094.99 200.67 1095.51 200.561C1096.04 200.447 1096.73 200.39 1097.57 200.39H1102.38ZM1099.96 202.98C1099.96 202.529 1099.76 202.272 1099.37 202.208H1097.09C1096.49 202.208 1096.07 202.263 1095.81 202.372C1095.55 202.477 1095.42 202.682 1095.42 202.987C1095.42 203.288 1095.55 203.493 1095.81 203.603C1096.08 203.712 1096.51 203.767 1097.11 203.767H1098.18C1098.85 203.767 1099.31 203.714 1099.57 203.609C1099.83 203.5 1099.96 203.29 1099.96 202.98ZM1106.14 196.288C1106.14 197.879 1105.31 198.674 1103.66 198.674H1102.14V196.958H1103.46C1104.02 196.958 1104.36 196.851 1104.5 196.637C1104.55 196.555 1104.57 196.425 1104.57 196.247C1104.57 196.238 1104.57 196.224 1104.57 196.206C1104.57 195.805 1104.18 195.604 1103.39 195.604H1100.31C1099.88 195.604 1099.55 195.65 1099.33 195.741C1099.12 195.832 1099.01 196.01 1099.01 196.274C1099.01 196.748 1099.4 196.985 1100.18 196.985L1100.11 198.599H1093.97V194.148H1095.61V196.91H1098.05C1097.88 196.824 1097.74 196.669 1097.64 196.445C1097.53 196.217 1097.48 195.969 1097.48 195.7C1097.48 194.998 1097.79 194.511 1098.41 194.237C1099.03 193.964 1100.01 193.827 1101.35 193.827C1102.69 193.827 1103.62 193.875 1104.15 193.971C1104.67 194.062 1105.06 194.199 1105.34 194.381C1105.87 194.732 1106.14 195.368 1106.14 196.288Z" fill="#4E87C5"/>
<rect x="1054" y="296" width="22" height="73" fill="#75787A"/>
<rect x="1126" y="296" width="22" height="73" fill="#75787A"/>
<rect x="1164" y="481" width="94" height="73" fill="#75787A"/>
<path d="M1218.07 522.211C1218.07 526.336 1217.34 529.414 1215.89 531.445C1214.44 533.461 1212.1 534.469 1208.88 534.469C1205.68 534.469 1203.43 533.547 1202.13 531.703C1200.85 529.844 1200.21 526.906 1200.21 522.891V520.195H1206.09V523.055C1206.09 525.32 1206.27 526.891 1206.61 527.766C1206.97 528.641 1207.74 529.078 1208.93 529.078C1210.12 529.078 1210.91 528.555 1211.3 527.508C1211.7 526.445 1211.91 524.594 1211.91 521.953C1211.91 519.297 1211.65 517.406 1211.13 516.281C1210.62 515.156 1209.61 514.594 1208.11 514.594H1206.33V509.812H1208.06C1209.53 509.812 1210.54 509.32 1211.09 508.336C1211.63 507.336 1211.91 505.703 1211.91 503.438C1211.91 501.172 1211.67 499.648 1211.2 498.867C1210.75 498.086 1210.02 497.695 1209.02 497.695C1208.02 497.695 1207.32 498.109 1206.91 498.938C1206.52 499.75 1206.33 501.172 1206.33 503.203V504.445H1200.26V503.156C1200.26 499.391 1200.92 496.641 1202.25 494.906C1203.58 493.156 1205.8 492.281 1208.91 492.281C1212.03 492.281 1214.33 493.18 1215.8 494.977C1217.27 496.773 1218 499.5 1218 503.156C1218 505.422 1217.65 507.328 1216.95 508.875C1216.24 510.406 1215.18 511.43 1213.76 511.945C1215.32 512.68 1216.43 513.898 1217.09 515.602C1217.74 517.305 1218.07 519.508 1218.07 522.211Z" fill="black"/>
<rect x="1090" y="296" width="22" height="73" fill="#75787A"/>
<g opacity="0.8">
<path d="M1080 560L1080 547L1051 547L1051 560L1080 560Z" fill="url(#paint39_linear)"/>
<path d="M1073 505L1073 481L1057 481L1057 505L1073 505Z" fill="url(#paint40_linear)"/>
<rect x="1083" y="530" width="36" height="25" rx="4" transform="rotate(-180 1083 530)" fill="url(#paint41_linear)"/>
<rect x="1083" y="551" width="36" height="25" rx="4" transform="rotate(-180 1083 551)" fill="url(#paint42_linear)"/>
<circle cx="1065.09" cy="527.206" r="17.7934" transform="rotate(90 1065.09 527.206)" fill="url(#paint43_radial)"/>
<path d="M1116 560L1116 547L1087 547L1087 560L1116 560Z" fill="url(#paint44_linear)"/>
<path d="M1109 505L1109 481L1093 481L1093 505L1109 505Z" fill="url(#paint45_linear)"/>
<rect x="1119" y="530" width="36" height="25" rx="4" transform="rotate(-180 1119 530)" fill="url(#paint46_linear)"/>
<rect x="1119" y="551" width="36" height="25" rx="4" transform="rotate(-180 1119 551)" fill="url(#paint47_linear)"/>
<circle cx="1101.09" cy="527.206" r="17.7934" transform="rotate(90 1101.09 527.206)" fill="url(#paint48_radial)"/>
<path d="M1152 560L1152 547L1123 547L1123 560L1152 560Z" fill="url(#paint49_linear)"/>
<path d="M1145 505L1145 481L1129 481L1129 505L1145 505Z" fill="url(#paint50_linear)"/>
<rect x="1155" y="530" width="36" height="25" rx="4" transform="rotate(-180 1155 530)" fill="url(#paint51_linear)"/>
<rect x="1155" y="551" width="36" height="25" rx="4" transform="rotate(-180 1155 551)" fill="url(#paint52_linear)"/>
<circle cx="1137.09" cy="527.206" r="17.7934" transform="rotate(90 1137.09 527.206)" fill="url(#paint53_radial)"/>
</g>
<rect x="1042" y="560" width="118" height="9" fill="#C4C4C4"/>
<path d="M555 384H563V472C560.006 473.025 558.28 473.209 555 472V384Z" fill="#5F6263"/>
<path d="M591 384H599V472C596.006 473.025 594.28 473.209 591 472V384Z" fill="#5F6263"/>
<path d="M627 384H635V472C632.006 473.025 630.28 473.209 627 472V384Z" fill="#5F6263"/>
<path d="M810 384H818V472C815.006 473.025 813.28 473.209 810 472V384Z" fill="#5F6263"/>
<path d="M846 384H854V472C851.006 473.025 849.28 473.209 846 472V384Z" fill="#5F6263"/>
<path d="M882 384H890V472C887.006 473.025 885.28 473.209 882 472V384Z" fill="#5F6263"/>
<path d="M1061 384H1069V472C1066.01 473.025 1064.28 473.209 1061 472V384Z" fill="#5F6263"/>
<path d="M1097 384H1105V472C1102.01 473.025 1100.28 473.209 1097 472V384Z" fill="#5F6263"/>
<path d="M1133 384H1141V472C1138.01 473.025 1136.28 473.209 1133 472V384Z" fill="#5F6263"/>
<defs>
<linearGradient id="paint0_linear" x1="159" y1="244.722" x2="42.0001" y2="244.722" gradientUnits="userSpaceOnUse">
<stop stop-color="#848484"/>
<stop offset="0.508287" stop-color="white"/>
<stop offset="1" stop-color="#848484"/>
</linearGradient>
<linearGradient id="paint1_linear" x1="159" y1="244.722" x2="42.0001" y2="244.722" gradientUnits="userSpaceOnUse">
<stop stop-color="#848484"/>
<stop offset="0.508287" stop-color="white"/>
<stop offset="1" stop-color="#848484"/>
</linearGradient>
<linearGradient id="paint2_linear" x1="159" y1="244.722" x2="42.0001" y2="244.722" gradientUnits="userSpaceOnUse">
<stop stop-color="#848484"/>
<stop offset="0.508287" stop-color="white"/>
<stop offset="1" stop-color="#848484"/>
</linearGradient>
<linearGradient id="paint3_linear" x1="307" y1="244.722" x2="190" y2="244.722" gradientUnits="userSpaceOnUse">
<stop stop-color="#848484"/>
<stop offset="0.508287" stop-color="white"/>
<stop offset="1" stop-color="#848484"/>
</linearGradient>
<linearGradient id="paint4_linear" x1="307" y1="244.722" x2="190" y2="244.722" gradientUnits="userSpaceOnUse">
<stop stop-color="#848484"/>
<stop offset="0.508287" stop-color="white"/>
<stop offset="1" stop-color="#848484"/>
</linearGradient>
<linearGradient id="paint5_linear" x1="307" y1="244.722" x2="190" y2="244.722" gradientUnits="userSpaceOnUse">
<stop stop-color="#848484"/>
<stop offset="0.508287" stop-color="white"/>
<stop offset="1" stop-color="#848484"/>
</linearGradient>
<linearGradient id="paint6_linear" x1="453" y1="243.722" x2="336" y2="243.722" gradientUnits="userSpaceOnUse">
<stop stop-color="#848484"/>
<stop offset="0.508287" stop-color="white"/>
<stop offset="1" stop-color="#848484"/>
</linearGradient>
<linearGradient id="paint7_linear" x1="453" y1="243.722" x2="336" y2="243.722" gradientUnits="userSpaceOnUse">
<stop stop-color="#848484"/>
<stop offset="0.508287" stop-color="white"/>
<stop offset="1" stop-color="#848484"/>
</linearGradient>
<linearGradient id="paint8_linear" x1="453" y1="243.722" x2="336" y2="243.722" gradientUnits="userSpaceOnUse">
<stop stop-color="#848484"/>
<stop offset="0.508287" stop-color="white"/>
<stop offset="1" stop-color="#848484"/>
</linearGradient>
<linearGradient id="paint9_linear" x1="574" y1="557.5" x2="545" y2="557.5" gradientUnits="userSpaceOnUse">
<stop stop-color="#4F4F4F"/>
<stop offset="0.519337" stop-color="white"/>
<stop offset="1" stop-color="#4F4F4F"/>
</linearGradient>
<linearGradient id="paint10_linear" x1="567" y1="497" x2="551" y2="497" gradientUnits="userSpaceOnUse">
<stop stop-color="#4F4F4F"/>
<stop offset="0.491713" stop-color="white"/>
<stop offset="1" stop-color="#4F4F4F"/>
</linearGradient>
<linearGradient id="paint11_linear" x1="613" y1="559" x2="577" y2="559" gradientUnits="userSpaceOnUse">
<stop stop-color="#4F4F4F"/>
<stop offset="0.513812" stop-color="white"/>
<stop offset="1" stop-color="#4F4F4F"/>
</linearGradient>
<linearGradient id="paint12_linear" x1="613" y1="580" x2="577" y2="580" gradientUnits="userSpaceOnUse">
<stop stop-color="#4F4F4F"/>
<stop offset="0.513812" stop-color="white"/>
<stop offset="1" stop-color="#4F4F4F"/>
</linearGradient>
<radialGradient id="paint13_radial" cx="0" cy="0" r="1" gradientUnits="userSpaceOnUse" gradientTransform="translate(559.094 530.884) rotate(90.002) scale(18.1149)">
<stop offset="0.872928" stop-color="#828282"/>
<stop offset="1" stop-color="#4F4F4F"/>
</radialGradient>
<linearGradient id="paint14_linear" x1="610" y1="557.5" x2="581" y2="557.5" gradientUnits="userSpaceOnUse">
<stop stop-color="#4F4F4F"/>
<stop offset="0.519337" stop-color="white"/>
<stop offset="1" stop-color="#4F4F4F"/>
</linearGradient>
<linearGradient id="paint15_linear" x1="603" y1="497" x2="587" y2="497" gradientUnits="userSpaceOnUse">
<stop stop-color="#4F4F4F"/>
<stop offset="0.491713" stop-color="white"/>
<stop offset="1" stop-color="#4F4F4F"/>
</linearGradient>
<linearGradient id="paint16_linear" x1="649" y1="559" x2="613" y2="559" gradientUnits="userSpaceOnUse">
<stop stop-color="#4F4F4F"/>
<stop offset="0.513812" stop-color="white"/>
<stop offset="1" stop-color="#4F4F4F"/>
</linearGradient>
<linearGradient id="paint17_linear" x1="649" y1="580" x2="613" y2="580" gradientUnits="userSpaceOnUse">
<stop stop-color="#4F4F4F"/>
<stop offset="0.513812" stop-color="white"/>
<stop offset="1" stop-color="#4F4F4F"/>
</linearGradient>
<radialGradient id="paint18_radial" cx="0" cy="0" r="1" gradientUnits="userSpaceOnUse" gradientTransform="translate(595.094 530.884) rotate(90.002) scale(18.1149)">
<stop offset="0.872928" stop-color="#828282"/>
<stop offset="1" stop-color="#4F4F4F"/>
</radialGradient>
<linearGradient id="paint19_linear" x1="646" y1="557.5" x2="617" y2="557.5" gradientUnits="userSpaceOnUse">
<stop stop-color="#4F4F4F"/>
<stop offset="0.519337" stop-color="white"/>
<stop offset="1" stop-color="#4F4F4F"/>
</linearGradient>
<linearGradient id="paint20_linear" x1="639" y1="497" x2="623" y2="497" gradientUnits="userSpaceOnUse">
<stop stop-color="#4F4F4F"/>
<stop offset="0.491713" stop-color="white"/>
<stop offset="1" stop-color="#4F4F4F"/>
</linearGradient>
<linearGradient id="paint21_linear" x1="685" y1="559" x2="649" y2="559" gradientUnits="userSpaceOnUse">
<stop stop-color="#4F4F4F"/>
<stop offset="0.513812" stop-color="white"/>
<stop offset="1" stop-color="#4F4F4F"/>
</linearGradient>
<linearGradient id="paint22_linear" x1="685" y1="580" x2="649" y2="580" gradientUnits="userSpaceOnUse">
<stop stop-color="#4F4F4F"/>
<stop offset="0.513812" stop-color="white"/>
<stop offset="1" stop-color="#4F4F4F"/>
</linearGradient>
<radialGradient id="paint23_radial" cx="0" cy="0" r="1" gradientUnits="userSpaceOnUse" gradientTransform="translate(631.094 530.884) rotate(90.002) scale(18.1149)">
<stop offset="0.872928" stop-color="#828282"/>
<stop offset="1" stop-color="#4F4F4F"/>
</radialGradient>
<linearGradient id="paint24_linear" x1="828" y1="553.5" x2="799" y2="553.5" gradientUnits="userSpaceOnUse">
<stop stop-color="#4F4F4F"/>
<stop offset="0.519337" stop-color="white"/>
<stop offset="1" stop-color="#4F4F4F"/>
</linearGradient>
<linearGradient id="paint25_linear" x1="821" y1="493" x2="805" y2="493" gradientUnits="userSpaceOnUse">
<stop stop-color="#4F4F4F"/>
<stop offset="0.491713" stop-color="white"/>
<stop offset="1" stop-color="#4F4F4F"/>
</linearGradient>
<linearGradient id="paint26_linear" x1="867" y1="555" x2="831" y2="555" gradientUnits="userSpaceOnUse">
<stop stop-color="#4F4F4F"/>
<stop offset="0.513812" stop-color="white"/>
<stop offset="1" stop-color="#4F4F4F"/>
</linearGradient>
<linearGradient id="paint27_linear" x1="867" y1="576" x2="831" y2="576" gradientUnits="userSpaceOnUse">
<stop stop-color="#4F4F4F"/>
<stop offset="0.513812" stop-color="white"/>
<stop offset="1" stop-color="#4F4F4F"/>
</linearGradient>
<radialGradient id="paint28_radial" cx="0" cy="0" r="1" gradientUnits="userSpaceOnUse" gradientTransform="translate(813.094 526.884) rotate(90.002) scale(18.1149)">
<stop offset="0.872928" stop-color="#828282"/>
<stop offset="1" stop-color="#4F4F4F"/>
</radialGradient>
<linearGradient id="paint29_linear" x1="864" y1="553.5" x2="835" y2="553.5" gradientUnits="userSpaceOnUse">
<stop stop-color="#4F4F4F"/>
<stop offset="0.519337" stop-color="white"/>
<stop offset="1" stop-color="#4F4F4F"/>
</linearGradient>
<linearGradient id="paint30_linear" x1="857" y1="493" x2="841" y2="493" gradientUnits="userSpaceOnUse">
<stop stop-color="#4F4F4F"/>
<stop offset="0.491713" stop-color="white"/>
<stop offset="1" stop-color="#4F4F4F"/>
</linearGradient>
<linearGradient id="paint31_linear" x1="903" y1="555" x2="867" y2="555" gradientUnits="userSpaceOnUse">
<stop stop-color="#4F4F4F"/>
<stop offset="0.513812" stop-color="white"/>
<stop offset="1" stop-color="#4F4F4F"/>
</linearGradient>
<linearGradient id="paint32_linear" x1="903" y1="576" x2="867" y2="576" gradientUnits="userSpaceOnUse">
<stop stop-color="#4F4F4F"/>
<stop offset="0.513812" stop-color="white"/>
<stop offset="1" stop-color="#4F4F4F"/>
</linearGradient>
<radialGradient id="paint33_radial" cx="0" cy="0" r="1" gradientUnits="userSpaceOnUse" gradientTransform="translate(849.094 526.884) rotate(90.002) scale(18.1149)">
<stop offset="0.872928" stop-color="#828282"/>
<stop offset="1" stop-color="#4F4F4F"/>
</radialGradient>
<linearGradient id="paint34_linear" x1="900" y1="553.5" x2="871" y2="553.5" gradientUnits="userSpaceOnUse">
<stop stop-color="#4F4F4F"/>
<stop offset="0.519337" stop-color="white"/>
<stop offset="1" stop-color="#4F4F4F"/>
</linearGradient>
<linearGradient id="paint35_linear" x1="893" y1="493" x2="877" y2="493" gradientUnits="userSpaceOnUse">
<stop stop-color="#4F4F4F"/>
<stop offset="0.491713" stop-color="white"/>
<stop offset="1" stop-color="#4F4F4F"/>
</linearGradient>
<linearGradient id="paint36_linear" x1="939" y1="555" x2="903" y2="555" gradientUnits="userSpaceOnUse">
<stop stop-color="#4F4F4F"/>
<stop offset="0.513812" stop-color="white"/>
<stop offset="1" stop-color="#4F4F4F"/>
</linearGradient>
<linearGradient id="paint37_linear" x1="939" y1="576" x2="903" y2="576" gradientUnits="userSpaceOnUse">
<stop stop-color="#4F4F4F"/>
<stop offset="0.513812" stop-color="white"/>
<stop offset="1" stop-color="#4F4F4F"/>
</linearGradient>
<radialGradient id="paint38_radial" cx="0" cy="0" r="1" gradientUnits="userSpaceOnUse" gradientTransform="translate(885.094 526.884) rotate(90.002) scale(18.1149)">
<stop offset="0.872928" stop-color="#828282"/>
<stop offset="1" stop-color="#4F4F4F"/>
</radialGradient>
<linearGradient id="paint39_linear" x1="1080" y1="553.5" x2="1051" y2="553.5" gradientUnits="userSpaceOnUse">
<stop stop-color="#4F4F4F"/>
<stop offset="0.519337" stop-color="white"/>
<stop offset="1" stop-color="#4F4F4F"/>
</linearGradient>
<linearGradient id="paint40_linear" x1="1073" y1="493" x2="1057" y2="493" gradientUnits="userSpaceOnUse">
<stop stop-color="#4F4F4F"/>
<stop offset="0.491713" stop-color="white"/>
<stop offset="1" stop-color="#4F4F4F"/>
</linearGradient>
<linearGradient id="paint41_linear" x1="1119" y1="555" x2="1083" y2="555" gradientUnits="userSpaceOnUse">
<stop stop-color="#4F4F4F"/>
<stop offset="0.513812" stop-color="white"/>
<stop offset="1" stop-color="#4F4F4F"/>
</linearGradient>
<linearGradient id="paint42_linear" x1="1119" y1="576" x2="1083" y2="576" gradientUnits="userSpaceOnUse">
<stop stop-color="#4F4F4F"/>
<stop offset="0.513812" stop-color="white"/>
<stop offset="1" stop-color="#4F4F4F"/>
</linearGradient>
<radialGradient id="paint43_radial" cx="0" cy="0" r="1" gradientUnits="userSpaceOnUse" gradientTransform="translate(1065.09 526.884) rotate(90.002) scale(18.1149)">
<stop offset="0.872928" stop-color="#828282"/>
<stop offset="1" stop-color="#4F4F4F"/>
</radialGradient>
<linearGradient id="paint44_linear" x1="1116" y1="553.5" x2="1087" y2="553.5" gradientUnits="userSpaceOnUse">
<stop stop-color="#4F4F4F"/>
<stop offset="0.519337" stop-color="white"/>
<stop offset="1" stop-color="#4F4F4F"/>
</linearGradient>
<linearGradient id="paint45_linear" x1="1109" y1="493" x2="1093" y2="493" gradientUnits="userSpaceOnUse">
<stop stop-color="#4F4F4F"/>
<stop offset="0.491713" stop-color="white"/>
<stop offset="1" stop-color="#4F4F4F"/>
</linearGradient>
<linearGradient id="paint46_linear" x1="1155" y1="555" x2="1119" y2="555" gradientUnits="userSpaceOnUse">
<stop stop-color="#4F4F4F"/>
<stop offset="0.513812" stop-color="white"/>
<stop offset="1" stop-color="#4F4F4F"/>
</linearGradient>
<linearGradient id="paint47_linear" x1="1155" y1="576" x2="1119" y2="576" gradientUnits="userSpaceOnUse">
<stop stop-color="#4F4F4F"/>
<stop offset="0.513812" stop-color="white"/>
<stop offset="1" stop-color="#4F4F4F"/>
</linearGradient>
<radialGradient id="paint48_radial" cx="0" cy="0" r="1" gradientUnits="userSpaceOnUse" gradientTransform="translate(1101.09 526.884) rotate(90.002) scale(18.1149)">
<stop offset="0.872928" stop-color="#828282"/>
<stop offset="1" stop-color="#4F4F4F"/>
</radialGradient>
<linearGradient id="paint49_linear" x1="1152" y1="553.5" x2="1123" y2="553.5" gradientUnits="userSpaceOnUse">
<stop stop-color="#4F4F4F"/>
<stop offset="0.519337" stop-color="white"/>
<stop offset="1" stop-color="#4F4F4F"/>
</linearGradient>
<linearGradient id="paint50_linear" x1="1145" y1="493" x2="1129" y2="493" gradientUnits="userSpaceOnUse">
<stop stop-color="#4F4F4F"/>
<stop offset="0.491713" stop-color="white"/>
<stop offset="1" stop-color="#4F4F4F"/>
</linearGradient>
<linearGradient id="paint51_linear" x1="1191" y1="555" x2="1155" y2="555" gradientUnits="userSpaceOnUse">
<stop stop-color="#4F4F4F"/>
<stop offset="0.513812" stop-color="white"/>
<stop offset="1" stop-color="#4F4F4F"/>
</linearGradient>
<linearGradient id="paint52_linear" x1="1191" y1="576" x2="1155" y2="576" gradientUnits="userSpaceOnUse">
<stop stop-color="#4F4F4F"/>
<stop offset="0.513812" stop-color="white"/>
<stop offset="1" stop-color="#4F4F4F"/>
</linearGradient>
<radialGradient id="paint53_radial" cx="0" cy="0" r="1" gradientUnits="userSpaceOnUse" gradientTransform="translate(1137.09 526.884) rotate(90.002) scale(18.1149)">
<stop offset="0.872928" stop-color="#828282"/>
<stop offset="1" stop-color="#4F4F4F"/>
</radialGradient>
</defs>
</svg>
