<svg width="1280" height="758" viewBox="0 0 1280 758" fill="none" xmlns="http://www.w3.org/2000/svg">
<path d="M61.192 92H56.44L42.228 76.072V92H38.268V60.584H42.228V75.808L56.088 60.584H60.576L46.936 75.852L61.192 92ZM85.4432 80.164C85.4432 84.0653 84.4459 87.0867 82.4512 89.228C80.4859 91.3693 77.8166 92.44 74.4432 92.44C72.3606 92.44 70.4979 91.9707 68.8552 91.032C67.2419 90.064 65.9659 88.6707 65.0272 86.852C64.0886 85.004 63.6192 82.7747 63.6192 80.164C63.6192 76.2627 64.6019 73.256 66.5672 71.144C68.5326 69.032 71.2019 67.976 74.5752 67.976C76.7166 67.976 78.5939 68.46 80.2072 69.428C81.8499 70.3667 83.1259 71.7453 84.0352 73.564C84.9739 75.3533 85.4432 77.5533 85.4432 80.164ZM67.6232 80.164C67.6232 82.9507 68.1659 85.1653 69.2512 86.808C70.3659 88.4213 72.1259 89.228 74.5312 89.228C76.9072 89.228 78.6526 88.4213 79.7672 86.808C80.8819 85.1653 81.4392 82.9507 81.4392 80.164C81.4392 77.3773 80.8819 75.192 79.7672 73.608C78.6526 72.024 76.8926 71.232 74.4872 71.232C72.0819 71.232 70.3366 72.024 69.2512 73.608C68.1659 75.192 67.6232 77.3773 67.6232 80.164ZM95.4518 68.416V78.228H108.256V68.416H112.128V92H108.256V81.484H95.4518V92H91.5798V68.416H95.4518ZM135.875 71.672H128.175V92H124.347V71.672H116.735V68.416H135.875V71.672ZM151.741 67.976C154.645 67.976 156.977 68.988 158.737 71.012C160.527 73.036 161.421 76.0867 161.421 80.164C161.421 84.1827 160.527 87.2333 158.737 89.316C156.977 91.3987 154.631 92.44 151.697 92.44C149.879 92.44 148.368 92.1027 147.165 91.428C145.992 90.724 145.068 89.9173 144.393 89.008H144.129C144.188 89.5067 144.247 90.1373 144.305 90.9C144.364 91.6627 144.393 92.3227 144.393 92.88V102.56H140.521V68.416H143.689L144.217 71.628H144.393C145.097 70.6013 146.021 69.736 147.165 69.032C148.309 68.328 149.835 67.976 151.741 67.976ZM151.037 71.232C148.632 71.232 146.931 71.9067 145.933 73.256C144.965 74.6053 144.452 76.6587 144.393 79.416V80.164C144.393 83.068 144.863 85.312 145.801 86.896C146.769 88.4507 148.544 89.228 151.125 89.228C152.563 89.228 153.736 88.832 154.645 88.04C155.584 87.248 156.273 86.1773 156.713 84.828C157.183 83.4493 157.417 81.88 157.417 80.12C157.417 77.4213 156.889 75.2653 155.833 73.652C154.807 72.0387 153.208 71.232 151.037 71.232ZM188.096 80.164C188.096 84.0653 187.098 87.0867 185.104 89.228C183.138 91.3693 180.469 92.44 177.096 92.44C175.013 92.44 173.15 91.9707 171.508 91.032C169.894 90.064 168.618 88.6707 167.68 86.852C166.741 85.004 166.272 82.7747 166.272 80.164C166.272 76.2627 167.254 73.256 169.22 71.144C171.185 69.032 173.854 67.976 177.228 67.976C179.369 67.976 181.246 68.46 182.86 69.428C184.502 70.3667 185.778 71.7453 186.688 73.564C187.626 75.3533 188.096 77.5533 188.096 80.164ZM170.276 80.164C170.276 82.9507 170.818 85.1653 171.904 86.808C173.018 88.4213 174.778 89.228 177.184 89.228C179.56 89.228 181.305 88.4213 182.42 86.808C183.534 85.1653 184.092 82.9507 184.092 80.164C184.092 77.3773 183.534 75.192 182.42 73.608C181.305 72.024 179.545 71.232 177.14 71.232C174.734 71.232 172.989 72.024 171.904 73.608C170.818 75.192 170.276 77.3773 170.276 80.164ZM212.184 92H208.268V71.628H201.316C200.935 76.5853 200.407 80.5893 199.732 83.64C199.058 86.6613 198.163 88.8613 197.048 90.24C195.934 91.6187 194.526 92.308 192.824 92.308C192.443 92.308 192.062 92.2787 191.68 92.22C191.328 92.1907 191.035 92.1173 190.8 92V89.096C190.976 89.1547 191.167 89.1987 191.372 89.228C191.578 89.2573 191.783 89.272 191.988 89.272C193.572 89.272 194.834 87.5853 195.772 84.212C196.74 80.8387 197.474 75.5733 197.972 68.416H212.184V92ZM230.538 78.096C236.668 78.096 239.734 80.3253 239.734 84.784C239.734 86.984 238.986 88.744 237.49 90.064C235.994 91.3547 233.618 92 230.362 92H219.67V68.416H223.542V78.096H230.538ZM235.862 85.004C235.862 83.5667 235.348 82.5987 234.322 82.1C233.324 81.572 231.916 81.308 230.098 81.308H223.542V88.876H230.186C231.828 88.876 233.178 88.5827 234.234 87.996C235.319 87.4093 235.862 86.412 235.862 85.004ZM268.122 68.416H272.346L262.27 79.768L273.182 92H268.694L258.046 80.032V92H254.174V68.416H258.046V79.856L268.122 68.416ZM286.395 68.02C289.269 68.02 291.396 68.6507 292.775 69.912C294.153 71.1733 294.843 73.1827 294.843 75.94V92H292.027L291.279 88.656H291.103C290.076 89.9467 288.991 90.9 287.847 91.516C286.732 92.132 285.177 92.44 283.183 92.44C281.041 92.44 279.267 91.8827 277.859 90.768C276.451 89.624 275.747 87.8493 275.747 85.444C275.747 83.0973 276.671 81.2933 278.519 80.032C280.367 78.7413 283.212 78.0373 287.055 77.92L291.059 77.788V76.38C291.059 74.4147 290.633 73.0507 289.783 72.288C288.932 71.5253 287.729 71.144 286.175 71.144C284.943 71.144 283.769 71.3347 282.655 71.716C281.54 72.068 280.499 72.4787 279.531 72.948L278.343 70.044C279.369 69.4867 280.587 69.0173 281.995 68.636C283.403 68.2253 284.869 68.02 286.395 68.02ZM287.539 80.604C284.605 80.7213 282.567 81.1907 281.423 82.012C280.308 82.8333 279.751 83.992 279.751 85.488C279.751 86.808 280.147 87.776 280.939 88.392C281.76 89.008 282.801 89.316 284.063 89.316C286.057 89.316 287.715 88.7733 289.035 87.688C290.355 86.5733 291.015 84.872 291.015 82.584V80.472L287.539 80.604ZM305.515 76.996C305.515 79.6947 307.025 81.044 310.047 81.044C311.513 81.044 312.848 80.824 314.051 80.384C315.253 79.9147 316.485 79.2987 317.747 78.536V68.416H321.619V92H317.747V81.484C316.427 82.3347 315.121 83.0093 313.831 83.508C312.569 83.9773 311.044 84.212 309.255 84.212C306.849 84.212 304.972 83.5813 303.623 82.32C302.303 81.0587 301.643 79.372 301.643 77.26V68.416H305.515V76.996ZM338.219 67.976C340.243 67.976 341.974 68.416 343.411 69.296C344.878 70.176 345.992 71.4227 346.755 73.036C347.547 74.62 347.943 76.4827 347.943 78.624V80.956H331.795C331.854 83.6253 332.528 85.664 333.819 87.072C335.139 88.4507 336.972 89.14 339.319 89.14C340.815 89.14 342.135 89.008 343.279 88.744C344.452 88.4507 345.655 88.04 346.887 87.512V90.9C345.684 91.428 344.496 91.8093 343.323 92.044C342.15 92.308 340.756 92.44 339.143 92.44C336.914 92.44 334.934 91.9853 333.203 91.076C331.502 90.1667 330.167 88.8173 329.199 87.028C328.26 85.2093 327.791 82.9947 327.791 80.384C327.791 77.8027 328.216 75.588 329.067 73.74C329.947 71.892 331.164 70.4693 332.719 69.472C334.303 68.4747 336.136 67.976 338.219 67.976ZM338.175 71.144C336.327 71.144 334.86 71.7453 333.775 72.948C332.719 74.1213 332.088 75.764 331.883 77.876H343.895C343.866 75.8813 343.396 74.268 342.487 73.036C341.578 71.7747 340.14 71.144 338.175 71.144ZM363.407 92.44C361.324 92.44 359.462 92.0147 357.819 91.164C356.206 90.3133 354.93 88.9933 353.991 87.204C353.082 85.4147 352.627 83.1267 352.627 80.34C352.627 77.436 353.111 75.0747 354.079 73.256C355.047 71.4373 356.352 70.1027 357.995 69.252C359.667 68.4013 361.559 67.976 363.671 67.976C364.874 67.976 366.032 68.108 367.147 68.372C368.262 68.6067 369.171 68.9 369.875 69.252L368.687 72.464C367.983 72.2 367.162 71.9507 366.223 71.716C365.284 71.4813 364.404 71.364 363.583 71.364C358.948 71.364 356.631 74.3413 356.631 80.296C356.631 83.1413 357.188 85.3267 358.303 86.852C359.447 88.348 361.134 89.096 363.363 89.096C364.654 89.096 365.783 88.964 366.751 88.7C367.748 88.436 368.658 88.1133 369.479 87.732V91.164C368.687 91.5747 367.807 91.8827 366.839 92.088C365.9 92.3227 364.756 92.44 363.407 92.44ZM391.368 71.672H383.668V92H379.84V71.672H372.228V68.416H391.368V71.672ZM414.977 74.356C414.977 75.8227 414.537 76.9667 413.657 77.788C412.777 78.6093 411.648 79.1667 410.269 79.46V79.636C411.736 79.8413 413.012 80.3693 414.097 81.22C415.183 82.0413 415.725 83.332 415.725 85.092C415.725 87.0867 414.977 88.744 413.481 90.064C412.015 91.3547 409.58 92 406.177 92H396.013V68.416H406.133C407.805 68.416 409.301 68.6067 410.621 68.988C411.971 69.34 413.027 69.956 413.789 70.836C414.581 71.6867 414.977 72.86 414.977 74.356ZM411.061 74.84C411.061 73.7253 410.651 72.9187 409.829 72.42C409.037 71.892 407.732 71.628 405.913 71.628H399.885V78.096H405.209C409.111 78.096 411.061 77.0107 411.061 74.84ZM411.721 85.092C411.721 83.7427 411.208 82.7747 410.181 82.188C409.155 81.6013 407.644 81.308 405.649 81.308H399.885V88.876H405.737C407.673 88.876 409.155 88.5973 410.181 88.04C411.208 87.4533 411.721 86.4707 411.721 85.092ZM430.297 68.02C433.172 68.02 435.298 68.6507 436.677 69.912C438.056 71.1733 438.745 73.1827 438.745 75.94V92H435.929L435.181 88.656H435.005C433.978 89.9467 432.893 90.9 431.749 91.516C430.634 92.132 429.08 92.44 427.085 92.44C424.944 92.44 423.169 91.8827 421.761 90.768C420.353 89.624 419.649 87.8493 419.649 85.444C419.649 83.0973 420.573 81.2933 422.421 80.032C424.269 78.7413 427.114 78.0373 430.957 77.92L434.961 77.788V76.38C434.961 74.4147 434.536 73.0507 433.685 72.288C432.834 71.5253 431.632 71.144 430.077 71.144C428.845 71.144 427.672 71.3347 426.557 71.716C425.442 72.068 424.401 72.4787 423.433 72.948L422.245 70.044C423.272 69.4867 424.489 69.0173 425.897 68.636C427.305 68.2253 428.772 68.02 430.297 68.02ZM431.441 80.604C428.508 80.7213 426.469 81.1907 425.325 82.012C424.21 82.8333 423.653 83.992 423.653 85.488C423.653 86.808 424.049 87.776 424.841 88.392C425.662 89.008 426.704 89.316 427.965 89.316C429.96 89.316 431.617 88.7733 432.937 87.688C434.257 86.5733 434.917 84.872 434.917 82.584V80.472L431.441 80.604ZM458.192 92.44C456.843 92.44 455.669 92.3227 454.672 92.088C453.704 91.8827 452.795 91.5747 451.944 91.164V87.82C452.824 88.172 453.777 88.48 454.804 88.744C455.831 89.008 456.989 89.14 458.28 89.14C460.568 89.14 462.387 88.524 463.736 87.292C465.085 86.06 465.833 84.1093 465.98 81.44H454.364V78.272H465.936C465.731 75.8667 465.041 74.1067 463.868 72.992C462.724 71.8773 461.037 71.32 458.808 71.32C457.957 71.32 457.019 71.4373 455.992 71.672C454.995 71.9067 454.1 72.1707 453.308 72.464L452.208 69.34C453.059 68.9587 454.071 68.636 455.244 68.372C456.417 68.108 457.591 67.976 458.764 67.976C460.964 67.976 462.9 68.3867 464.572 69.208C466.273 70.0293 467.593 71.3347 468.532 73.124C469.5 74.9133 469.984 77.2747 469.984 80.208C469.984 82.9947 469.471 85.2973 468.444 87.116C467.447 88.9347 466.053 90.284 464.264 91.164C462.504 92.0147 460.48 92.44 458.192 92.44ZM494.102 92H490.186V71.628H483.234C482.853 76.5853 482.325 80.5893 481.65 83.64C480.975 86.6613 480.081 88.8613 478.966 90.24C477.851 91.6187 476.443 92.308 474.742 92.308C474.361 92.308 473.979 92.2787 473.598 92.22C473.246 92.1907 472.953 92.1173 472.718 92V89.096C472.894 89.1547 473.085 89.1987 473.29 89.228C473.495 89.2573 473.701 89.272 473.906 89.272C475.49 89.272 476.751 87.5853 477.69 84.212C478.658 80.8387 479.391 75.5733 479.89 68.416H494.102V92ZM510.696 67.976C512.72 67.976 514.45 68.416 515.888 69.296C517.354 70.176 518.469 71.4227 519.232 73.036C520.024 74.62 520.42 76.4827 520.42 78.624V80.956H504.272C504.33 83.6253 505.005 85.664 506.296 87.072C507.616 88.4507 509.449 89.14 511.796 89.14C513.292 89.14 514.612 89.008 515.756 88.744C516.929 88.4507 518.132 88.04 519.364 87.512V90.9C518.161 91.428 516.973 91.8093 515.8 92.044C514.626 92.308 513.233 92.44 511.62 92.44C509.39 92.44 507.41 91.9853 505.68 91.076C503.978 90.1667 502.644 88.8173 501.676 87.028C500.737 85.2093 500.268 82.9947 500.268 80.384C500.268 77.8027 500.693 75.588 501.544 73.74C502.424 71.892 503.641 70.4693 505.196 69.472C506.78 68.4747 508.613 67.976 510.696 67.976ZM510.652 71.144C508.804 71.144 507.337 71.7453 506.252 72.948C505.196 74.1213 504.565 75.764 504.36 77.876H516.372C516.342 75.8813 515.873 74.268 514.964 73.036C514.054 71.7747 512.617 71.144 510.652 71.144ZM540.372 68.416H544.596L534.52 79.768L545.432 92H540.944L530.296 80.032V92H526.424V68.416H530.296V79.856L540.372 68.416ZM565.993 71.672H558.293V92H554.465V71.672H546.853V68.416H565.993V71.672ZM581.858 67.976C584.762 67.976 587.094 68.988 588.854 71.012C590.644 73.036 591.538 76.0867 591.538 80.164C591.538 84.1827 590.644 87.2333 588.854 89.316C587.094 91.3987 584.748 92.44 581.814 92.44C579.996 92.44 578.485 92.1027 577.282 91.428C576.109 90.724 575.185 89.9173 574.51 89.008H574.246C574.305 89.5067 574.364 90.1373 574.422 90.9C574.481 91.6627 574.51 92.3227 574.51 92.88V102.56H570.638V68.416H573.806L574.334 71.628H574.51C575.214 70.6013 576.138 69.736 577.282 69.032C578.426 68.328 579.952 67.976 581.858 67.976ZM581.154 71.232C578.749 71.232 577.048 71.9067 576.05 73.256C575.082 74.6053 574.569 76.6587 574.51 79.416V80.164C574.51 83.068 574.98 85.312 575.918 86.896C576.886 88.4507 578.661 89.228 581.242 89.228C582.68 89.228 583.853 88.832 584.762 88.04C585.701 87.248 586.39 86.1773 586.83 84.828C587.3 83.4493 587.534 81.88 587.534 80.12C587.534 77.4213 587.006 75.2653 585.95 73.652C584.924 72.0387 583.325 71.232 581.154 71.232ZM618.213 80.164C618.213 84.0653 617.215 87.0867 615.221 89.228C613.255 91.3693 610.586 92.44 607.213 92.44C605.13 92.44 603.267 91.9707 601.625 91.032C600.011 90.064 598.735 88.6707 597.797 86.852C596.858 85.004 596.389 82.7747 596.389 80.164C596.389 76.2627 597.371 73.256 599.337 71.144C601.302 69.032 603.971 67.976 607.345 67.976C609.486 67.976 611.363 68.46 612.977 69.428C614.619 70.3667 615.895 71.7453 616.805 73.564C617.743 75.3533 618.213 77.5533 618.213 80.164ZM600.393 80.164C600.393 82.9507 600.935 85.1653 602.021 86.808C603.135 88.4213 604.895 89.228 607.301 89.228C609.677 89.228 611.422 88.4213 612.537 86.808C613.651 85.1653 614.209 82.9507 614.209 80.164C614.209 77.3773 613.651 75.192 612.537 73.608C611.422 72.024 609.662 71.232 607.257 71.232C604.851 71.232 603.106 72.024 602.021 73.608C600.935 75.192 600.393 77.3773 600.393 80.164ZM628.133 92.44C626.784 92.44 625.611 92.3227 624.613 92.088C623.645 91.8827 622.736 91.5747 621.885 91.164V87.82C622.765 88.172 623.719 88.48 624.745 88.744C625.772 89.008 626.931 89.14 628.221 89.14C630.509 89.14 632.328 88.524 633.677 87.292C635.027 86.06 635.775 84.1093 635.921 81.44H624.305V78.272H635.877C635.672 75.8667 634.983 74.1067 633.809 72.992C632.665 71.8773 630.979 71.32 628.749 71.32C627.899 71.32 626.96 71.4373 625.933 71.672C624.936 71.9067 624.041 72.1707 623.249 72.464L622.149 69.34C623 68.9587 624.012 68.636 625.185 68.372C626.359 68.108 627.532 67.976 628.705 67.976C630.905 67.976 632.841 68.3867 634.513 69.208C636.215 70.0293 637.535 71.3347 638.473 73.124C639.441 74.9133 639.925 77.2747 639.925 80.208C639.925 82.9947 639.412 85.2973 638.385 87.116C637.388 88.9347 635.995 90.284 634.205 91.164C632.445 92.0147 630.421 92.44 628.133 92.44ZM649.964 68.416V78.228H662.768V68.416H666.64V92H662.768V81.484H649.964V92H646.092V68.416H649.964ZM683.215 67.976C685.239 67.976 686.97 68.416 688.407 69.296C689.874 70.176 690.989 71.4227 691.751 73.036C692.543 74.62 692.939 76.4827 692.939 78.624V80.956H676.791C676.85 83.6253 677.525 85.664 678.815 87.072C680.135 88.4507 681.969 89.14 684.315 89.14C685.811 89.14 687.131 89.008 688.275 88.744C689.449 88.4507 690.651 88.04 691.883 87.512V90.9C690.681 91.428 689.493 91.8093 688.319 92.044C687.146 92.308 685.753 92.44 684.139 92.44C681.91 92.44 679.93 91.9853 678.199 91.076C676.498 90.1667 675.163 88.8173 674.195 87.028C673.257 85.2093 672.787 82.9947 672.787 80.384C672.787 77.8027 673.213 75.588 674.063 73.74C674.943 71.892 676.161 70.4693 677.715 69.472C679.299 68.4747 681.133 67.976 683.215 67.976ZM683.171 71.144C681.323 71.144 679.857 71.7453 678.771 72.948C677.715 74.1213 677.085 75.764 676.879 77.876H688.891C688.862 75.8813 688.393 74.268 687.483 73.036C686.574 71.7747 685.137 71.144 683.171 71.144ZM710.163 67.976C713.067 67.976 715.399 68.988 717.159 71.012C718.948 73.036 719.843 76.0867 719.843 80.164C719.843 84.1827 718.948 87.2333 717.159 89.316C715.399 91.3987 713.052 92.44 710.119 92.44C708.3 92.44 706.79 92.1027 705.587 91.428C704.414 90.724 703.49 89.9173 702.815 89.008H702.551C702.61 89.5067 702.668 90.1373 702.727 90.9C702.786 91.6627 702.815 92.3227 702.815 92.88V102.56H698.943V68.416H702.111L702.639 71.628H702.815C703.519 70.6013 704.443 69.736 705.587 69.032C706.731 68.328 708.256 67.976 710.163 67.976ZM709.459 71.232C707.054 71.232 705.352 71.9067 704.355 73.256C703.387 74.6053 702.874 76.6587 702.815 79.416V80.164C702.815 83.068 703.284 85.312 704.223 86.896C705.191 88.4507 706.966 89.228 709.547 89.228C710.984 89.228 712.158 88.832 713.067 88.04C714.006 87.248 714.695 86.1773 715.135 84.828C715.604 83.4493 715.839 81.88 715.839 80.12C715.839 77.4213 715.311 75.2653 714.255 73.652C713.228 72.0387 711.63 71.232 709.459 71.232ZM740.401 68.416V71.672H729.885V92H726.013V68.416H740.401ZM748.701 82.804C748.701 83.156 748.686 83.684 748.657 84.388C748.627 85.092 748.583 85.796 748.525 86.5C748.495 87.204 748.466 87.7613 748.437 88.172L761.065 68.416H765.817V92H762.209V78.096C762.209 77.6267 762.209 77.0107 762.209 76.248C762.238 75.4853 762.267 74.7373 762.297 74.004C762.326 73.2413 762.355 72.6693 762.385 72.288L749.845 92H745.049V68.416H748.701V82.804ZM776.974 82.804C776.974 83.156 776.959 83.684 776.93 84.388C776.901 85.092 776.857 85.796 776.798 86.5C776.769 87.204 776.739 87.7613 776.71 88.172L789.338 68.416H794.09V92H790.482V78.096C790.482 77.6267 790.482 77.0107 790.482 76.248C790.511 75.4853 790.541 74.7373 790.57 74.004C790.599 73.2413 790.629 72.6693 790.658 72.288L778.118 92H773.322V68.416H776.974V82.804Z" fill="white"/>
</svg>
