<svg width="1280" height="720" viewBox="0 0 1280 720" fill="none" xmlns="http://www.w3.org/2000/svg">
<path d="M172.971 41V15.4062H181.338C184.115 15.4062 186.201 15.9805 187.596 17.1289C189.002 18.2773 189.705 19.9766 189.705 22.2266C189.705 23.4219 189.365 24.4824 188.686 25.4082C188.006 26.3223 187.08 27.0312 185.908 27.5352C187.291 27.9219 188.381 28.6602 189.178 29.75C189.986 30.8281 190.391 32.1172 190.391 33.6172C190.391 35.9141 189.646 37.7188 188.158 39.0312C186.67 40.3438 184.566 41 181.848 41H172.971ZM176.346 29.0293V38.2402H181.918C183.488 38.2402 184.725 37.8359 185.627 37.0273C186.541 36.207 186.998 35.082 186.998 33.6523C186.998 30.5703 185.322 29.0293 181.971 29.0293H176.346ZM176.346 26.3223H181.443C182.92 26.3223 184.098 25.9531 184.977 25.2148C185.867 24.4766 186.312 23.4746 186.312 22.209C186.312 20.8027 185.902 19.7832 185.082 19.1504C184.262 18.5059 183.014 18.1836 181.338 18.1836H176.346V26.3223ZM198.441 28.5371H203.381C205.537 28.5605 207.242 29.123 208.496 30.2246C209.75 31.3262 210.377 32.8203 210.377 34.707C210.377 36.6055 209.732 38.1289 208.443 39.2773C207.154 40.4258 205.42 41 203.24 41H195.189V21.9805H198.441V28.5371ZM217.162 41H213.893V21.9805H217.162V41ZM198.441 31.1914V38.3457H203.275C204.494 38.3457 205.438 38.0352 206.105 37.4141C206.773 36.7812 207.107 35.9199 207.107 34.8301C207.107 33.7754 206.779 32.9141 206.123 32.2461C205.479 31.5664 204.57 31.2148 203.398 31.1914H198.441ZM236.973 24.6172H230.592V41H227.34V24.6172H221.082V21.9805H236.973V24.6172ZM254.674 21.9805V41H251.404V33.5996H246.5L242.018 41H238.502L243.283 33.1074C242.064 32.6621 241.127 31.9766 240.471 31.0508C239.826 30.1133 239.504 29.0234 239.504 27.7812C239.504 26.0469 240.154 24.6523 241.455 23.5977C242.756 22.5312 244.496 21.9922 246.676 21.9805H254.674ZM242.773 27.8164C242.773 28.7422 243.09 29.4922 243.723 30.0664C244.355 30.6289 245.193 30.916 246.236 30.9277H251.404V24.6172H246.729C245.521 24.6172 244.561 24.916 243.846 25.5137C243.131 26.0996 242.773 26.8672 242.773 27.8164ZM275.064 32.7383H272.779V41H269.527V32.7383H267.242L261.916 41H257.803L264.605 31.1562L258.453 21.9805H262.391L267.295 29.8555H269.527V21.9805H272.779V29.8555H274.994L279.934 21.9805H283.871L277.701 31.1738L284.504 41H280.391L275.064 32.7383ZM302.996 41H299.744V32.8789H291.008V41H287.738V21.9805H291.008V30.2246H299.744V21.9805H302.996V41ZM311.785 28.5371H316.725C318.881 28.5605 320.586 29.123 321.84 30.2246C323.094 31.3262 323.721 32.8203 323.721 34.707C323.721 36.6055 323.076 38.1289 321.787 39.2773C320.498 40.4258 318.764 41 316.584 41H308.533V21.9805H311.785V28.5371ZM330.506 41H327.236V21.9805H330.506V41ZM311.785 31.1914V38.3457H316.619C317.838 38.3457 318.781 38.0352 319.449 37.4141C320.117 36.7812 320.451 35.9199 320.451 34.8301C320.451 33.7754 320.123 32.9141 319.467 32.2461C318.822 31.5664 317.914 31.2148 316.742 31.1914H311.785ZM344.076 41.3516C341.498 41.3516 339.4 40.5078 337.783 38.8203C336.166 37.1211 335.357 34.8535 335.357 32.0176V31.4199C335.357 29.5332 335.715 27.8516 336.43 26.375C337.156 24.8867 338.164 23.7266 339.453 22.8945C340.754 22.0508 342.16 21.6289 343.672 21.6289C346.145 21.6289 348.066 22.4434 349.438 24.0723C350.809 25.7012 351.494 28.0332 351.494 31.0684V32.4219H338.609C338.656 34.2969 339.201 35.8145 340.244 36.9746C341.299 38.123 342.635 38.6973 344.252 38.6973C345.4 38.6973 346.373 38.4629 347.17 37.9941C347.967 37.5254 348.664 36.9043 349.262 36.1309L351.248 37.6777C349.654 40.127 347.264 41.3516 344.076 41.3516ZM343.672 24.3008C342.359 24.3008 341.258 24.7812 340.367 25.7422C339.477 26.6914 338.926 28.0273 338.715 29.75H348.242V29.5039C348.148 27.8516 347.703 26.5742 346.906 25.6719C346.109 24.7578 345.031 24.3008 343.672 24.3008ZM364.502 41V21.9805H371.92C374.451 21.9805 376.391 22.4258 377.738 23.3164C379.098 24.1953 379.777 25.4902 379.777 27.2012C379.777 28.0801 379.514 28.877 378.986 29.5918C378.459 30.2949 377.68 30.834 376.648 31.209C377.797 31.4785 378.717 32.0059 379.408 32.791C380.111 33.5762 380.463 34.5137 380.463 35.6035C380.463 37.3496 379.818 38.6855 378.529 39.6113C377.252 40.5371 375.441 41 373.098 41H364.502ZM367.754 32.6504V38.3809H373.133C374.492 38.3809 375.506 38.1289 376.174 37.625C376.854 37.1211 377.193 36.4121 377.193 35.498C377.193 33.5996 375.799 32.6504 373.01 32.6504H367.754ZM367.754 30.0488H371.955C375.002 30.0488 376.525 29.1582 376.525 27.377C376.525 25.5957 375.084 24.6758 372.201 24.6172H367.754V30.0488ZM392.662 41.3516C390.084 41.3516 387.986 40.5078 386.369 38.8203C384.752 37.1211 383.943 34.8535 383.943 32.0176V31.4199C383.943 29.5332 384.301 27.8516 385.016 26.375C385.742 24.8867 386.75 23.7266 388.039 22.8945C389.34 22.0508 390.746 21.6289 392.258 21.6289C394.73 21.6289 396.652 22.4434 398.023 24.0723C399.395 25.7012 400.08 28.0332 400.08 31.0684V32.4219H387.195C387.242 34.2969 387.787 35.8145 388.83 36.9746C389.885 38.123 391.221 38.6973 392.838 38.6973C393.986 38.6973 394.959 38.4629 395.756 37.9941C396.553 37.5254 397.25 36.9043 397.848 36.1309L399.834 37.6777C398.24 40.127 395.85 41.3516 392.662 41.3516ZM392.258 24.3008C390.945 24.3008 389.844 24.7812 388.953 25.7422C388.062 26.6914 387.512 28.0273 387.301 29.75H396.828V29.5039C396.734 27.8516 396.289 26.5742 395.492 25.6719C394.695 24.7578 393.617 24.3008 392.258 24.3008ZM419.398 41H416.146V32.8789H407.41V41H404.141V21.9805H407.41V30.2246H416.146V21.9805H419.398V41ZM438.77 24.6172H432.389V41H429.137V24.6172H422.879V21.9805H438.77V24.6172ZM454.238 21.9805H457.49V41H454.238V27.1309L445.467 41H442.215V21.9805H445.467V35.8672L454.238 21.9805ZM478.303 21.9805V41H475.033V24.6699H468.564L468.178 31.7891C467.967 35.0586 467.416 37.3965 466.525 38.8027C465.646 40.209 464.246 40.9414 462.324 41H461.023V38.1348L461.955 38.0645C463.01 37.9473 463.766 37.3379 464.223 36.2363C464.68 35.1348 464.973 33.0957 465.102 30.1191L465.453 21.9805H478.303ZM498.061 21.9805V41H494.791V33.5996H489.887L485.404 41H481.889L486.67 33.1074C485.451 32.6621 484.514 31.9766 483.857 31.0508C483.213 30.1133 482.891 29.0234 482.891 27.7812C482.891 26.0469 483.541 24.6523 484.842 23.5977C486.143 22.5312 487.883 21.9922 490.062 21.9805H498.061ZM486.16 27.8164C486.16 28.7422 486.477 29.4922 487.109 30.0664C487.742 30.6289 488.58 30.916 489.623 30.9277H494.791V24.6172H490.115C488.908 24.6172 487.947 24.916 487.232 25.5137C486.518 26.0996 486.16 26.8672 486.16 27.8164ZM503.562 21.9805H506.832V38.3457H515.586V21.9805H518.838V38.3457H521.105L520.789 46.6426H517.871V41H503.562V21.9805ZM536.926 21.9805H540.178V41H536.926V27.1309L528.154 41H524.902V21.9805H528.154V35.8672L536.926 21.9805ZM544.537 31.3145C544.537 29.4512 544.9 27.7754 545.627 26.2871C546.365 24.7988 547.385 23.6504 548.686 22.8418C549.998 22.0332 551.492 21.6289 553.168 21.6289C555.758 21.6289 557.85 22.5254 559.443 24.3184C561.049 26.1113 561.852 28.4961 561.852 31.4727V31.7012C561.852 33.5527 561.494 35.2168 560.779 36.6934C560.076 38.1582 559.062 39.3008 557.738 40.1211C556.426 40.9414 554.914 41.3516 553.203 41.3516C550.625 41.3516 548.533 40.4551 546.928 38.6621C545.334 36.8691 544.537 34.4961 544.537 31.543V31.3145ZM547.807 31.7012C547.807 33.8105 548.293 35.5039 549.266 36.7812C550.25 38.0586 551.562 38.6973 553.203 38.6973C554.855 38.6973 556.168 38.0527 557.141 36.7637C558.113 35.4629 558.6 33.6465 558.6 31.3145C558.6 29.2285 558.102 27.541 557.105 26.252C556.121 24.9512 554.809 24.3008 553.168 24.3008C551.562 24.3008 550.268 24.9395 549.283 26.2168C548.299 27.4941 547.807 29.3223 547.807 31.7012ZM581.469 41H578.217V32.8789H569.48V41H566.211V21.9805H569.48V30.2246H578.217V21.9805H581.469V41ZM602.246 41H598.994V32.8789H590.258V41H586.988V21.9805H590.258V30.2246H598.994V21.9805H602.246V41ZM611.035 28.5371H615.975C618.131 28.5605 619.836 29.123 621.09 30.2246C622.344 31.3262 622.971 32.8203 622.971 34.707C622.971 36.6055 622.326 38.1289 621.037 39.2773C619.748 40.4258 618.014 41 615.834 41H607.783V21.9805H611.035V28.5371ZM629.756 41H626.486V21.9805H629.756V41ZM611.035 31.1914V38.3457H615.869C617.088 38.3457 618.031 38.0352 618.699 37.4141C619.367 36.7812 619.701 35.9199 619.701 34.8301C619.701 33.7754 619.373 32.9141 618.717 32.2461C618.072 31.5664 617.164 31.2148 615.992 31.1914H611.035ZM643.326 41.3516C640.748 41.3516 638.65 40.5078 637.033 38.8203C635.416 37.1211 634.607 34.8535 634.607 32.0176V31.4199C634.607 29.5332 634.965 27.8516 635.68 26.375C636.406 24.8867 637.414 23.7266 638.703 22.8945C640.004 22.0508 641.41 21.6289 642.922 21.6289C645.395 21.6289 647.316 22.4434 648.688 24.0723C650.059 25.7012 650.744 28.0332 650.744 31.0684V32.4219H637.859C637.906 34.2969 638.451 35.8145 639.494 36.9746C640.549 38.123 641.885 38.6973 643.502 38.6973C644.65 38.6973 645.623 38.4629 646.42 37.9941C647.217 37.5254 647.914 36.9043 648.512 36.1309L650.498 37.6777C648.904 40.127 646.514 41.3516 643.326 41.3516ZM642.922 24.3008C641.609 24.3008 640.508 24.7812 639.617 25.7422C638.727 26.6914 638.176 28.0273 637.965 29.75H647.492V29.5039C647.398 27.8516 646.953 26.5742 646.156 25.6719C645.359 24.7578 644.281 24.3008 642.922 24.3008ZM669.676 36.2363L674.105 21.9805H677.586L669.939 43.9355C668.756 47.0996 666.875 48.6816 664.297 48.6816L663.682 48.6289L662.469 48.4004V45.7637L663.348 45.834C664.449 45.834 665.305 45.6113 665.914 45.166C666.535 44.7207 667.045 43.9062 667.443 42.7227L668.164 40.7891L661.379 21.9805H664.93L669.676 36.2363ZM687.887 38.6973C689.047 38.6973 690.061 38.3457 690.928 37.6426C691.795 36.9395 692.275 36.0605 692.369 35.0059H695.445C695.387 36.0957 695.012 37.1328 694.32 38.1172C693.629 39.1016 692.703 39.8867 691.543 40.4727C690.395 41.0586 689.176 41.3516 687.887 41.3516C685.297 41.3516 683.234 40.4902 681.699 38.7676C680.176 37.0332 679.414 34.666 679.414 31.666V31.1211C679.414 29.2695 679.754 27.623 680.434 26.1816C681.113 24.7402 682.086 23.6211 683.352 22.8242C684.629 22.0273 686.135 21.6289 687.869 21.6289C690.002 21.6289 691.771 22.2676 693.178 23.5449C694.596 24.8223 695.352 26.4805 695.445 28.5195H692.369C692.275 27.2891 691.807 26.2812 690.963 25.4961C690.131 24.6992 689.1 24.3008 687.869 24.3008C686.217 24.3008 684.934 24.8984 684.02 26.0938C683.117 27.2773 682.666 28.9941 682.666 31.2441V31.8594C682.666 34.0508 683.117 35.7383 684.02 36.9219C684.922 38.1055 686.211 38.6973 687.887 38.6973ZM713.234 24.6172H706.854V41H703.602V24.6172H697.344V21.9805H713.234V24.6172ZM727.859 41C727.672 40.625 727.52 39.957 727.402 38.9961C725.891 40.5664 724.086 41.3516 721.988 41.3516C720.113 41.3516 718.572 40.8242 717.365 39.7695C716.17 38.7031 715.572 37.3555 715.572 35.7266C715.572 33.7461 716.322 32.2109 717.822 31.1211C719.334 30.0195 721.455 29.4688 724.186 29.4688H727.35V27.9746C727.35 26.8379 727.01 25.9355 726.33 25.2676C725.65 24.5879 724.648 24.248 723.324 24.248C722.164 24.248 721.191 24.541 720.406 25.127C719.621 25.7129 719.229 26.4219 719.229 27.2539H715.959C715.959 26.3047 716.293 25.3906 716.961 24.5117C717.641 23.6211 718.555 22.918 719.703 22.4023C720.863 21.8867 722.135 21.6289 723.518 21.6289C725.709 21.6289 727.426 22.1797 728.668 23.2812C729.91 24.3711 730.555 25.877 730.602 27.7988V36.5527C730.602 38.2988 730.824 39.6875 731.27 40.7188V41H727.859ZM722.463 38.5215C723.482 38.5215 724.449 38.2578 725.363 37.7305C726.277 37.2031 726.939 36.5176 727.35 35.6738V31.7715H724.801C720.816 31.7715 718.824 32.9375 718.824 35.2695C718.824 36.2891 719.164 37.0859 719.844 37.6602C720.523 38.2344 721.396 38.5215 722.463 38.5215ZM751.238 41H747.986V32.8789H739.25V41H735.98V21.9805H739.25V30.2246H747.986V21.9805H751.238V41ZM755.615 31.3145C755.615 29.4512 755.979 27.7754 756.705 26.2871C757.443 24.7988 758.463 23.6504 759.764 22.8418C761.076 22.0332 762.57 21.6289 764.246 21.6289C766.836 21.6289 768.928 22.5254 770.521 24.3184C772.127 26.1113 772.93 28.4961 772.93 31.4727V31.7012C772.93 33.5527 772.572 35.2168 771.857 36.6934C771.154 38.1582 770.141 39.3008 768.816 40.1211C767.504 40.9414 765.992 41.3516 764.281 41.3516C761.703 41.3516 759.611 40.4551 758.006 38.6621C756.412 36.8691 755.615 34.4961 755.615 31.543V31.3145ZM758.885 31.7012C758.885 33.8105 759.371 35.5039 760.344 36.7812C761.328 38.0586 762.641 38.6973 764.281 38.6973C765.934 38.6973 767.246 38.0527 768.219 36.7637C769.191 35.4629 769.678 33.6465 769.678 31.3145C769.678 29.2285 769.18 27.541 768.184 26.252C767.199 24.9512 765.887 24.3008 764.246 24.3008C762.641 24.3008 761.346 24.9395 760.361 26.2168C759.377 27.4941 758.885 29.3223 758.885 31.7012ZM777.307 41V21.9805H784.725C787.256 21.9805 789.195 22.4258 790.543 23.3164C791.902 24.1953 792.582 25.4902 792.582 27.2012C792.582 28.0801 792.318 28.877 791.791 29.5918C791.264 30.2949 790.484 30.834 789.453 31.209C790.602 31.4785 791.521 32.0059 792.213 32.791C792.916 33.5762 793.268 34.5137 793.268 35.6035C793.268 37.3496 792.623 38.6855 791.334 39.6113C790.057 40.5371 788.246 41 785.902 41H777.307ZM780.559 32.6504V38.3809H785.938C787.297 38.3809 788.311 38.1289 788.979 37.625C789.658 37.1211 789.998 36.4121 789.998 35.498C789.998 33.5996 788.604 32.6504 785.814 32.6504H780.559ZM780.559 30.0488H784.76C787.807 30.0488 789.33 29.1582 789.33 27.377C789.33 25.5957 787.889 24.6758 785.006 24.6172H780.559V30.0488ZM803.498 32.8965H801.125V41H797.855V21.9805H801.125V30.0312H803.252L809.65 21.9805H813.588L806.064 31.1211L814.221 41H810.09L803.498 32.8965ZM829.32 21.9805H832.572V41H829.32V27.1309L820.549 41H817.297V21.9805H820.549V35.8672L829.32 21.9805Z" fill="white"/>
<path d="M161 364H160V365H161V364Z" fill="#C4C4C4"/>
<path d="M124.56 399H120.991V389.136H124.539C125.387 389.136 126.073 389.359 126.597 389.806C127.121 390.252 127.383 390.84 127.383 391.569C127.383 392.116 127.212 392.599 126.87 393.019C126.533 393.438 126.102 393.695 125.578 393.791V393.839C126.271 393.921 126.829 394.183 127.253 394.625C127.681 395.062 127.896 395.618 127.896 396.293C127.896 397.136 127.599 397.799 127.007 398.282C126.414 398.761 125.599 399 124.56 399ZM121.921 389.963V393.518H124.067C124.815 393.518 125.396 393.356 125.811 393.032C126.23 392.709 126.439 392.255 126.439 391.672C126.439 391.134 126.253 390.715 125.879 390.414C125.51 390.113 124.997 389.963 124.341 389.963H121.921ZM121.921 398.173H124.43C125.232 398.173 125.849 398.007 126.282 397.674C126.72 397.337 126.938 396.86 126.938 396.245C126.938 395.63 126.711 395.156 126.255 394.823C125.804 394.491 125.154 394.324 124.307 394.324H121.921V398.173ZM135.292 399V391.891H136.188V399H135.292ZM131.648 395.056H130.117V398.248H131.648C132.163 398.248 132.574 398.102 132.879 397.811C133.189 397.519 133.344 397.132 133.344 396.648C133.344 396.165 133.189 395.78 132.879 395.493C132.574 395.201 132.163 395.056 131.648 395.056ZM129.222 399V391.891H130.117V394.304H131.662C132.446 394.304 133.07 394.516 133.535 394.939C134.005 395.359 134.239 395.928 134.239 396.648C134.239 397.368 134.005 397.94 133.535 398.364C133.07 398.788 132.446 399 131.662 399H129.222ZM143.037 391.891V392.643H140.617V399H139.722V392.643H137.302V391.891H143.037ZM146.318 395.575H147.911V392.643H146.318C145.799 392.643 145.386 392.777 145.081 393.046C144.776 393.315 144.623 393.682 144.623 394.146C144.623 394.57 144.778 394.914 145.088 395.179C145.398 395.443 145.808 395.575 146.318 395.575ZM147.911 399V396.327H146.421L144.473 399H143.427L145.498 396.177C144.947 396.063 144.514 395.828 144.199 395.473C143.885 395.117 143.728 394.68 143.728 394.16C143.728 393.463 143.96 392.911 144.425 392.506C144.894 392.096 145.523 391.891 146.312 391.891H148.807V399H147.911ZM156.005 395.268L159.45 399H158.268L155.109 395.534H155.068V399H154.173V395.534H154.139L150.98 399H149.818L153.243 395.281L149.928 391.891H151.062L154.139 395.083H154.173V391.891H155.068V395.083H155.109L158.186 391.891H159.307L156.005 395.268ZM162.314 395.274L166.047 399H164.857L161.398 395.534H161.357V399H160.462V391.891H161.357V395.083H161.398L164.769 391.891H165.91L162.314 395.274ZM169.157 398.337C169.782 398.337 170.308 398.143 170.736 397.756C171.165 397.368 171.379 396.892 171.379 396.327V395.541L169.273 395.685C168.713 395.721 168.282 395.858 167.981 396.095C167.681 396.327 167.53 396.639 167.53 397.031C167.53 397.419 167.681 397.733 167.981 397.975C168.282 398.216 168.674 398.337 169.157 398.337ZM168.973 399.116C168.271 399.116 167.701 398.925 167.264 398.542C166.831 398.155 166.614 397.651 166.614 397.031C166.614 396.421 166.833 395.938 167.271 395.582C167.713 395.227 168.344 395.021 169.164 394.967L171.379 394.83V394.215C171.379 393.7 171.224 393.299 170.914 393.012C170.604 392.72 170.174 392.574 169.622 392.574C169.103 392.574 168.679 392.695 168.351 392.937C168.027 393.178 167.826 393.515 167.749 393.948H166.874C166.924 393.301 167.198 392.777 167.694 392.376C168.196 391.975 168.845 391.774 169.643 391.774C170.454 391.774 171.096 391.986 171.57 392.41C172.044 392.834 172.281 393.408 172.281 394.133V399H171.42V397.646H171.399C171.203 398.089 170.882 398.444 170.436 398.713C169.989 398.982 169.501 399.116 168.973 399.116ZM180.519 399H176.95V389.136H180.498C181.346 389.136 182.032 389.359 182.556 389.806C183.08 390.252 183.342 390.84 183.342 391.569C183.342 392.116 183.171 392.599 182.829 393.019C182.492 393.438 182.061 393.695 181.537 393.791V393.839C182.23 393.921 182.788 394.183 183.212 394.625C183.64 395.062 183.854 395.618 183.854 396.293C183.854 397.136 183.558 397.799 182.966 398.282C182.373 398.761 181.558 399 180.519 399ZM177.88 389.963V393.518H180.026C180.774 393.518 181.355 393.356 181.77 393.032C182.189 392.709 182.398 392.255 182.398 391.672C182.398 391.134 182.212 390.715 181.838 390.414C181.469 390.113 180.956 389.963 180.3 389.963H177.88ZM177.88 398.173H180.389C181.191 398.173 181.808 398.007 182.241 397.674C182.679 397.337 182.897 396.86 182.897 396.245C182.897 395.63 182.67 395.156 182.214 394.823C181.763 394.491 181.113 394.324 180.266 394.324H177.88V398.173ZM189.569 395.438H185.085V394.591H189.569V395.438ZM193.343 399V390.141H193.315C193.252 390.182 192.821 390.48 192.023 391.036C191.226 391.588 190.775 391.895 190.67 391.959V390.961C190.752 390.911 191.189 390.61 191.982 390.059C192.775 389.507 193.224 389.2 193.329 389.136H194.245V399H193.343Z" fill="#FF9500"/>
<path d="M304.56 79.8643H300.991V70H304.539C305.387 70 306.073 70.2233 306.597 70.67C307.121 71.1166 307.383 71.7045 307.383 72.4336C307.383 72.9805 307.212 73.4636 306.87 73.8829C306.533 74.3021 306.102 74.5596 305.578 74.6553V74.7032C306.271 74.7852 306.829 75.0472 307.253 75.4893C307.681 75.9268 307.896 76.4828 307.896 77.1573C307.896 78.0004 307.599 78.6635 307.007 79.1465C306.414 79.625 305.599 79.8643 304.56 79.8643ZM301.921 70.8272V74.3819H304.067C304.815 74.3819 305.396 74.2201 305.811 73.8965C306.23 73.573 306.439 73.1195 306.439 72.5362C306.439 71.9984 306.253 71.5791 305.879 71.2784C305.51 70.9776 304.997 70.8272 304.341 70.8272H301.921ZM301.921 79.0372H304.43C305.232 79.0372 305.849 78.8708 306.282 78.5381C306.72 78.2009 306.938 77.7247 306.938 77.1094C306.938 76.4942 306.711 76.0202 306.255 75.6875C305.804 75.3549 305.154 75.1885 304.307 75.1885H301.921V79.0372ZM315.292 79.8643V72.7549H316.188V79.8643H315.292ZM311.648 75.92H310.117V79.1123H311.648C312.163 79.1123 312.574 78.9665 312.879 78.6748C313.189 78.3832 313.344 77.9958 313.344 77.5127C313.344 77.0297 313.189 76.6446 312.879 76.3575C312.574 76.0658 312.163 75.92 311.648 75.92ZM309.222 79.8643V72.7549H310.117V75.168H311.662C312.446 75.168 313.07 75.3799 313.535 75.8038C314.005 76.223 314.239 76.7927 314.239 77.5127C314.239 78.2328 314.005 78.8047 313.535 79.2286C313.07 79.6524 312.446 79.8643 311.662 79.8643H309.222ZM323.037 72.7549V73.5069H320.617V79.8643H319.722V73.5069H317.302V72.7549H323.037ZM326.318 76.4395H327.911V73.5069H326.318C325.799 73.5069 325.386 73.6413 325.081 73.9102C324.776 74.1791 324.623 74.5459 324.623 75.0108C324.623 75.4346 324.778 75.7787 325.088 76.043C325.398 76.3073 325.808 76.4395 326.318 76.4395ZM327.911 79.8643V77.1914H326.421L324.473 79.8643H323.427L325.498 77.0411C324.947 76.9271 324.514 76.6924 324.199 76.337C323.885 75.9815 323.728 75.544 323.728 75.0245C323.728 74.3272 323.96 73.7758 324.425 73.3702C324.894 72.96 325.523 72.7549 326.312 72.7549H328.807V79.8643H327.911ZM336.005 76.1319L339.45 79.8643H338.268L335.109 76.3985H335.068V79.8643H334.173V76.3985H334.139L330.98 79.8643H329.818L333.243 76.1455L329.928 72.7549H331.062L334.139 75.9473H334.173V72.7549H335.068V75.9473H335.109L338.186 72.7549H339.307L336.005 76.1319ZM342.314 76.1387L346.047 79.8643H344.857L341.398 76.3985H341.357V79.8643H340.462V72.7549H341.357V75.9473H341.398L344.769 72.7549H345.91L342.314 76.1387ZM349.157 79.2012C349.782 79.2012 350.308 79.0075 350.736 78.6202C351.165 78.2328 351.379 77.7566 351.379 77.1914V76.4053L349.273 76.5489C348.713 76.5853 348.282 76.722 347.981 76.959C347.681 77.1914 347.53 77.5036 347.53 77.8955C347.53 78.2829 347.681 78.5974 347.981 78.8389C348.282 79.0804 348.674 79.2012 349.157 79.2012ZM348.973 79.9805C348.271 79.9805 347.701 79.7891 347.264 79.4063C346.831 79.0189 346.614 78.5153 346.614 77.8955C346.614 77.2849 346.833 76.8018 347.271 76.4463C347.713 76.0909 348.344 75.8858 349.164 75.8311L351.379 75.6944V75.0791C351.379 74.5642 351.224 74.1631 350.914 73.876C350.604 73.5844 350.174 73.4385 349.622 73.4385C349.103 73.4385 348.679 73.5593 348.351 73.8008C348.027 74.0424 347.826 74.3796 347.749 74.8125H346.874C346.924 74.1654 347.198 73.6413 347.694 73.2403C348.196 72.8392 348.845 72.6387 349.643 72.6387C350.454 72.6387 351.096 72.8506 351.57 73.2745C352.044 73.6983 352.281 74.2725 352.281 74.9971V79.8643H351.42V78.5108H351.399C351.203 78.9528 350.882 79.3083 350.436 79.5772C349.989 79.8461 349.501 79.9805 348.973 79.9805ZM360.519 79.8643H356.95V70H360.498C361.346 70 362.032 70.2233 362.556 70.67C363.08 71.1166 363.342 71.7045 363.342 72.4336C363.342 72.9805 363.171 73.4636 362.829 73.8829C362.492 74.3021 362.061 74.5596 361.537 74.6553V74.7032C362.23 74.7852 362.788 75.0472 363.212 75.4893C363.64 75.9268 363.854 76.4828 363.854 77.1573C363.854 78.0004 363.558 78.6635 362.966 79.1465C362.373 79.625 361.558 79.8643 360.519 79.8643ZM357.88 70.8272V74.3819H360.026C360.774 74.3819 361.355 74.2201 361.77 73.8965C362.189 73.573 362.398 73.1195 362.398 72.5362C362.398 71.9984 362.212 71.5791 361.838 71.2784C361.469 70.9776 360.956 70.8272 360.3 70.8272H357.88ZM357.88 79.0372H360.389C361.191 79.0372 361.808 78.8708 362.241 78.5381C362.679 78.2009 362.897 77.7247 362.897 77.1094C362.897 76.4942 362.67 76.0202 362.214 75.6875C361.763 75.3549 361.113 75.1885 360.266 75.1885H357.88V79.0372ZM369.569 76.3028H365.085V75.4551H369.569V76.3028ZM374.45 80.0215C373.858 80.0215 373.315 79.9053 372.823 79.6729C372.336 79.4405 371.944 79.1169 371.647 78.7022C371.351 78.2875 371.183 77.8181 371.142 77.294H372.058C372.121 77.8454 372.379 78.3011 372.83 78.6612C373.281 79.0166 373.826 79.1944 374.464 79.1944C375.198 79.1944 375.799 78.962 376.269 78.4971C376.743 78.0277 376.979 77.4307 376.979 76.7061C376.979 75.986 376.745 75.389 376.275 74.9151C375.811 74.4411 375.22 74.2041 374.505 74.2041C374.008 74.2041 373.555 74.3158 373.145 74.5391C372.734 74.7624 372.415 75.07 372.188 75.462H371.292L371.853 70H377.321V70.834H372.625L372.256 74.4776H372.283C372.525 74.1403 372.855 73.876 373.274 73.6846C373.698 73.4886 374.159 73.3907 374.655 73.3907C375.594 73.3907 376.371 73.7028 376.986 74.3272C377.606 74.9515 377.916 75.7377 377.916 76.6856C377.916 77.6608 377.59 78.4607 376.938 79.085C376.287 79.7094 375.457 80.0215 374.45 80.0215Z" fill="#FF9500"/>
<path d="M904.56 230.021H900.991V220.157H904.539C905.387 220.157 906.073 220.38 906.597 220.827C907.121 221.273 907.383 221.861 907.383 222.59C907.383 223.137 907.212 223.62 906.87 224.04C906.533 224.459 906.102 224.716 905.578 224.812V224.86C906.271 224.942 906.829 225.204 907.253 225.646C907.681 226.083 907.896 226.639 907.896 227.314C907.896 228.157 907.599 228.82 907.007 229.303C906.414 229.782 905.599 230.021 904.56 230.021ZM901.921 220.984V224.539H904.067C904.815 224.539 905.396 224.377 905.811 224.053C906.23 223.73 906.439 223.276 906.439 222.693C906.439 222.155 906.253 221.736 905.879 221.435C905.51 221.134 904.997 220.984 904.341 220.984H901.921ZM901.921 229.194H904.43C905.232 229.194 905.849 229.028 906.282 228.695C906.72 228.358 906.938 227.881 906.938 227.266C906.938 226.651 906.711 226.177 906.255 225.844C905.804 225.512 905.154 225.345 904.307 225.345H901.921V229.194ZM915.292 230.021V222.912H916.188V230.021H915.292ZM911.648 226.077H910.117V229.269H911.648C912.163 229.269 912.574 229.123 912.879 228.832C913.189 228.54 913.344 228.153 913.344 227.669C913.344 227.186 913.189 226.801 912.879 226.514C912.574 226.222 912.163 226.077 911.648 226.077ZM909.222 230.021V222.912H910.117V225.325H911.662C912.446 225.325 913.07 225.537 913.535 225.96C914.005 226.38 914.239 226.949 914.239 227.669C914.239 228.389 914.005 228.961 913.535 229.385C913.07 229.809 912.446 230.021 911.662 230.021H909.222ZM923.037 222.912V223.664H920.617V230.021H919.722V223.664H917.302V222.912H923.037ZM926.318 226.596H927.911V223.664H926.318C925.799 223.664 925.386 223.798 925.081 224.067C924.776 224.336 924.623 224.703 924.623 225.167C924.623 225.591 924.778 225.935 925.088 226.2C925.398 226.464 925.808 226.596 926.318 226.596ZM927.911 230.021V227.348H926.421L924.473 230.021H923.427L925.498 227.198C924.947 227.084 924.514 226.849 924.199 226.494C923.885 226.138 923.728 225.701 923.728 225.181C923.728 224.484 923.96 223.932 924.425 223.527C924.894 223.117 925.523 222.912 926.312 222.912H928.807V230.021H927.911ZM936.005 226.289L939.45 230.021H938.268L935.109 226.555H935.068V230.021H934.173V226.555H934.139L930.98 230.021H929.818L933.243 226.302L929.928 222.912H931.062L934.139 226.104H934.173V222.912H935.068V226.104H935.109L938.186 222.912H939.307L936.005 226.289ZM942.314 226.295L946.047 230.021H944.857L941.398 226.555H941.357V230.021H940.462V222.912H941.357V226.104H941.398L944.769 222.912H945.91L942.314 226.295ZM949.157 229.358C949.782 229.358 950.308 229.164 950.736 228.777C951.165 228.389 951.379 227.913 951.379 227.348V226.562L949.273 226.706C948.713 226.742 948.282 226.879 947.981 227.116C947.681 227.348 947.53 227.66 947.53 228.052C947.53 228.44 947.681 228.754 947.981 228.996C948.282 229.237 948.674 229.358 949.157 229.358ZM948.973 230.137C948.271 230.137 947.701 229.946 947.264 229.563C946.831 229.176 946.614 228.672 946.614 228.052C946.614 227.442 946.833 226.959 947.271 226.603C947.713 226.248 948.344 226.042 949.164 225.988L951.379 225.851V225.236C951.379 224.721 951.224 224.32 950.914 224.033C950.604 223.741 950.174 223.595 949.622 223.595C949.103 223.595 948.679 223.716 948.351 223.958C948.027 224.199 947.826 224.536 947.749 224.969H946.874C946.924 224.322 947.198 223.798 947.694 223.397C948.196 222.996 948.845 222.795 949.643 222.795C950.454 222.795 951.096 223.007 951.57 223.431C952.044 223.855 952.281 224.429 952.281 225.154V230.021H951.42V228.667H951.399C951.203 229.11 950.882 229.465 950.436 229.734C949.989 230.003 949.501 230.137 948.973 230.137ZM960.519 230.021H956.95V220.157H960.498C961.346 220.157 962.032 220.38 962.556 220.827C963.08 221.273 963.342 221.861 963.342 222.59C963.342 223.137 963.171 223.62 962.829 224.04C962.492 224.459 962.061 224.716 961.537 224.812V224.86C962.23 224.942 962.788 225.204 963.212 225.646C963.64 226.083 963.854 226.639 963.854 227.314C963.854 228.157 963.558 228.82 962.966 229.303C962.373 229.782 961.558 230.021 960.519 230.021ZM957.88 220.984V224.539H960.026C960.774 224.539 961.355 224.377 961.77 224.053C962.189 223.73 962.398 223.276 962.398 222.693C962.398 222.155 962.212 221.736 961.838 221.435C961.469 221.134 960.956 220.984 960.3 220.984H957.88ZM957.88 229.194H960.389C961.191 229.194 961.808 229.028 962.241 228.695C962.679 228.358 962.897 227.881 962.897 227.266C962.897 226.651 962.67 226.177 962.214 225.844C961.763 225.512 961.113 225.345 960.266 225.345H957.88V229.194ZM969.569 226.459H965.085V225.612H969.569V226.459ZM973.343 230.021V221.162H973.315C973.252 221.203 972.821 221.501 972.023 222.057C971.226 222.609 970.775 222.916 970.67 222.98V221.982C970.752 221.932 971.189 221.631 971.982 221.08C972.775 220.528 973.224 220.221 973.329 220.157H974.245V230.021H973.343ZM980.083 230.178C978.966 230.178 978.091 229.722 977.458 228.811C976.825 227.895 976.508 226.653 976.508 225.085C976.508 223.527 976.827 222.29 977.465 221.374C978.103 220.458 978.976 220 980.083 220C981.195 220 982.068 220.458 982.701 221.374C983.335 222.285 983.651 223.52 983.651 225.079C983.651 226.646 983.335 227.888 982.701 228.804C982.068 229.72 981.195 230.178 980.083 230.178ZM978.148 228.209C978.613 228.975 979.258 229.358 980.083 229.358C980.908 229.358 981.553 228.975 982.018 228.209C982.482 227.444 982.715 226.403 982.715 225.085C982.715 223.778 982.48 222.741 982.011 221.975C981.546 221.209 980.903 220.827 980.083 220.827C979.267 220.827 978.625 221.212 978.155 221.982C977.686 222.752 977.451 223.784 977.451 225.079C977.451 226.4 977.684 227.444 978.148 228.209Z" fill="#FF9500"/>
<path d="M604.56 230.021H600.991V220.157H604.539C605.387 220.157 606.073 220.38 606.597 220.827C607.121 221.273 607.383 221.861 607.383 222.59C607.383 223.137 607.212 223.62 606.87 224.04C606.533 224.459 606.102 224.716 605.578 224.812V224.86C606.271 224.942 606.829 225.204 607.253 225.646C607.681 226.083 607.896 226.639 607.896 227.314C607.896 228.157 607.599 228.82 607.007 229.303C606.414 229.782 605.599 230.021 604.56 230.021ZM601.921 220.984V224.539H604.067C604.815 224.539 605.396 224.377 605.811 224.053C606.23 223.73 606.439 223.276 606.439 222.693C606.439 222.155 606.253 221.736 605.879 221.435C605.51 221.134 604.997 220.984 604.341 220.984H601.921ZM601.921 229.194H604.43C605.232 229.194 605.849 229.028 606.282 228.695C606.72 228.358 606.938 227.881 606.938 227.266C606.938 226.651 606.711 226.177 606.255 225.844C605.804 225.512 605.154 225.345 604.307 225.345H601.921V229.194ZM615.292 230.021V222.912H616.188V230.021H615.292ZM611.648 226.077H610.117V229.269H611.648C612.163 229.269 612.574 229.123 612.879 228.832C613.189 228.54 613.344 228.153 613.344 227.669C613.344 227.186 613.189 226.801 612.879 226.514C612.574 226.222 612.163 226.077 611.648 226.077ZM609.222 230.021V222.912H610.117V225.325H611.662C612.446 225.325 613.07 225.537 613.535 225.96C614.005 226.38 614.239 226.949 614.239 227.669C614.239 228.389 614.005 228.961 613.535 229.385C613.07 229.809 612.446 230.021 611.662 230.021H609.222ZM623.037 222.912V223.664H620.617V230.021H619.722V223.664H617.302V222.912H623.037ZM626.318 226.596H627.911V223.664H626.318C625.799 223.664 625.386 223.798 625.081 224.067C624.776 224.336 624.623 224.703 624.623 225.167C624.623 225.591 624.778 225.935 625.088 226.2C625.398 226.464 625.808 226.596 626.318 226.596ZM627.911 230.021V227.348H626.421L624.473 230.021H623.427L625.498 227.198C624.947 227.084 624.514 226.849 624.199 226.494C623.885 226.138 623.728 225.701 623.728 225.181C623.728 224.484 623.96 223.932 624.425 223.527C624.894 223.117 625.523 222.912 626.312 222.912H628.807V230.021H627.911ZM636.005 226.289L639.45 230.021H638.268L635.109 226.555H635.068V230.021H634.173V226.555H634.139L630.98 230.021H629.818L633.243 226.302L629.928 222.912H631.062L634.139 226.104H634.173V222.912H635.068V226.104H635.109L638.186 222.912H639.307L636.005 226.289ZM642.314 226.295L646.047 230.021H644.857L641.398 226.555H641.357V230.021H640.462V222.912H641.357V226.104H641.398L644.769 222.912H645.91L642.314 226.295ZM649.157 229.358C649.782 229.358 650.308 229.164 650.736 228.777C651.165 228.389 651.379 227.913 651.379 227.348V226.562L649.273 226.706C648.713 226.742 648.282 226.879 647.981 227.116C647.681 227.348 647.53 227.66 647.53 228.052C647.53 228.44 647.681 228.754 647.981 228.996C648.282 229.237 648.674 229.358 649.157 229.358ZM648.973 230.137C648.271 230.137 647.701 229.946 647.264 229.563C646.831 229.176 646.614 228.672 646.614 228.052C646.614 227.442 646.833 226.959 647.271 226.603C647.713 226.248 648.344 226.042 649.164 225.988L651.379 225.851V225.236C651.379 224.721 651.224 224.32 650.914 224.033C650.604 223.741 650.174 223.595 649.622 223.595C649.103 223.595 648.679 223.716 648.351 223.958C648.027 224.199 647.826 224.536 647.749 224.969H646.874C646.924 224.322 647.198 223.798 647.694 223.397C648.196 222.996 648.845 222.795 649.643 222.795C650.454 222.795 651.096 223.007 651.57 223.431C652.044 223.855 652.281 224.429 652.281 225.154V230.021H651.42V228.667H651.399C651.203 229.11 650.882 229.465 650.436 229.734C649.989 230.003 649.501 230.137 648.973 230.137ZM660.519 230.021H656.95V220.157H660.498C661.346 220.157 662.032 220.38 662.556 220.827C663.08 221.273 663.342 221.861 663.342 222.59C663.342 223.137 663.171 223.62 662.829 224.04C662.492 224.459 662.061 224.716 661.537 224.812V224.86C662.23 224.942 662.788 225.204 663.212 225.646C663.64 226.083 663.854 226.639 663.854 227.314C663.854 228.157 663.558 228.82 662.966 229.303C662.373 229.782 661.558 230.021 660.519 230.021ZM657.88 220.984V224.539H660.026C660.774 224.539 661.355 224.377 661.77 224.053C662.189 223.73 662.398 223.276 662.398 222.693C662.398 222.155 662.212 221.736 661.838 221.435C661.469 221.134 660.956 220.984 660.3 220.984H657.88ZM657.88 229.194H660.389C661.191 229.194 661.808 229.028 662.241 228.695C662.679 228.358 662.897 227.881 662.897 227.266C662.897 226.651 662.67 226.177 662.214 225.844C661.763 225.512 661.113 225.345 660.266 225.345H657.88V229.194ZM669.569 226.459H665.085V225.612H669.569V226.459ZM674.197 230.178C673.368 230.178 672.664 229.95 672.085 229.495C671.506 229.034 671.148 228.428 671.012 227.676H671.962C672.085 228.178 672.349 228.583 672.755 228.893C673.16 229.203 673.644 229.358 674.204 229.358C675.084 229.358 675.77 228.973 676.262 228.203C676.754 227.428 677.011 226.346 677.034 224.956C677.034 224.937 677.032 224.903 677.027 224.853C677.027 224.798 677.027 224.757 677.027 224.73H677.021H677.014C676.827 225.286 676.465 225.739 675.927 226.09C675.389 226.441 674.783 226.617 674.108 226.617C673.17 226.617 672.388 226.309 671.764 225.694C671.144 225.074 670.834 224.302 670.834 223.376C670.834 222.401 671.158 221.595 671.805 220.957C672.452 220.319 673.27 220 674.259 220C674.924 220 675.517 220.161 676.036 220.485C676.56 220.808 676.973 221.269 677.273 221.866C677.715 222.636 677.937 223.641 677.937 224.88C677.937 226.535 677.606 227.831 676.945 228.77C676.285 229.709 675.368 230.178 674.197 230.178ZM674.259 225.79C674.965 225.79 675.56 225.557 676.043 225.092C676.531 224.627 676.774 224.062 676.774 223.397C676.774 222.681 676.533 222.078 676.05 221.585C675.567 221.089 674.972 220.84 674.266 220.84C673.564 220.84 672.974 221.082 672.495 221.565C672.017 222.048 671.777 222.643 671.777 223.349C671.777 224.042 672.012 224.623 672.481 225.092C672.951 225.557 673.543 225.79 674.259 225.79Z" fill="#FF9500"/>
<path d="M304.56 230.021H300.991V220.157H304.539C305.387 220.157 306.073 220.38 306.597 220.827C307.121 221.273 307.383 221.861 307.383 222.59C307.383 223.137 307.212 223.62 306.87 224.04C306.533 224.459 306.102 224.716 305.578 224.812V224.86C306.271 224.942 306.829 225.204 307.253 225.646C307.681 226.083 307.896 226.639 307.896 227.314C307.896 228.157 307.599 228.82 307.007 229.303C306.414 229.782 305.599 230.021 304.56 230.021ZM301.921 220.984V224.539H304.067C304.815 224.539 305.396 224.377 305.811 224.053C306.23 223.73 306.439 223.276 306.439 222.693C306.439 222.155 306.253 221.736 305.879 221.435C305.51 221.134 304.997 220.984 304.341 220.984H301.921ZM301.921 229.194H304.43C305.232 229.194 305.849 229.028 306.282 228.695C306.72 228.358 306.938 227.881 306.938 227.266C306.938 226.651 306.711 226.177 306.255 225.844C305.804 225.512 305.154 225.345 304.307 225.345H301.921V229.194ZM315.292 230.021V222.912H316.188V230.021H315.292ZM311.648 226.077H310.117V229.269H311.648C312.163 229.269 312.574 229.123 312.879 228.832C313.189 228.54 313.344 228.153 313.344 227.669C313.344 227.186 313.189 226.801 312.879 226.514C312.574 226.222 312.163 226.077 311.648 226.077ZM309.222 230.021V222.912H310.117V225.325H311.662C312.446 225.325 313.07 225.537 313.535 225.96C314.005 226.38 314.239 226.949 314.239 227.669C314.239 228.389 314.005 228.961 313.535 229.385C313.07 229.809 312.446 230.021 311.662 230.021H309.222ZM323.037 222.912V223.664H320.617V230.021H319.722V223.664H317.302V222.912H323.037ZM326.318 226.596H327.911V223.664H326.318C325.799 223.664 325.386 223.798 325.081 224.067C324.776 224.336 324.623 224.703 324.623 225.167C324.623 225.591 324.778 225.935 325.088 226.2C325.398 226.464 325.808 226.596 326.318 226.596ZM327.911 230.021V227.348H326.421L324.473 230.021H323.427L325.498 227.198C324.947 227.084 324.514 226.849 324.199 226.494C323.885 226.138 323.728 225.701 323.728 225.181C323.728 224.484 323.96 223.932 324.425 223.527C324.894 223.117 325.523 222.912 326.312 222.912H328.807V230.021H327.911ZM336.005 226.289L339.45 230.021H338.268L335.109 226.555H335.068V230.021H334.173V226.555H334.139L330.98 230.021H329.818L333.243 226.302L329.928 222.912H331.062L334.139 226.104H334.173V222.912H335.068V226.104H335.109L338.186 222.912H339.307L336.005 226.289ZM342.314 226.295L346.047 230.021H344.857L341.398 226.555H341.357V230.021H340.462V222.912H341.357V226.104H341.398L344.769 222.912H345.91L342.314 226.295ZM349.157 229.358C349.782 229.358 350.308 229.164 350.736 228.777C351.165 228.389 351.379 227.913 351.379 227.348V226.562L349.273 226.706C348.713 226.742 348.282 226.879 347.981 227.116C347.681 227.348 347.53 227.66 347.53 228.052C347.53 228.44 347.681 228.754 347.981 228.996C348.282 229.237 348.674 229.358 349.157 229.358ZM348.973 230.137C348.271 230.137 347.701 229.946 347.264 229.563C346.831 229.176 346.614 228.672 346.614 228.052C346.614 227.442 346.833 226.959 347.271 226.603C347.713 226.248 348.344 226.042 349.164 225.988L351.379 225.851V225.236C351.379 224.721 351.224 224.32 350.914 224.033C350.604 223.741 350.174 223.595 349.622 223.595C349.103 223.595 348.679 223.716 348.351 223.958C348.027 224.199 347.826 224.536 347.749 224.969H346.874C346.924 224.322 347.198 223.798 347.694 223.397C348.196 222.996 348.845 222.795 349.643 222.795C350.454 222.795 351.096 223.007 351.57 223.431C352.044 223.855 352.281 224.429 352.281 225.154V230.021H351.42V228.667H351.399C351.203 229.11 350.882 229.465 350.436 229.734C349.989 230.003 349.501 230.137 348.973 230.137ZM360.519 230.021H356.95V220.157H360.498C361.346 220.157 362.032 220.38 362.556 220.827C363.08 221.273 363.342 221.861 363.342 222.59C363.342 223.137 363.171 223.62 362.829 224.04C362.492 224.459 362.061 224.716 361.537 224.812V224.86C362.23 224.942 362.788 225.204 363.212 225.646C363.64 226.083 363.854 226.639 363.854 227.314C363.854 228.157 363.558 228.82 362.966 229.303C362.373 229.782 361.558 230.021 360.519 230.021ZM357.88 220.984V224.539H360.026C360.774 224.539 361.355 224.377 361.77 224.053C362.189 223.73 362.398 223.276 362.398 222.693C362.398 222.155 362.212 221.736 361.838 221.435C361.469 221.134 360.956 220.984 360.3 220.984H357.88ZM357.88 229.194H360.389C361.191 229.194 361.808 229.028 362.241 228.695C362.679 228.358 362.897 227.881 362.897 227.266C362.897 226.651 362.67 226.177 362.214 225.844C361.763 225.512 361.113 225.345 360.266 225.345H357.88V229.194ZM369.569 226.459H365.085V225.612H369.569V226.459ZM374.45 230.178C373.42 230.178 372.577 229.912 371.921 229.378C371.265 228.845 370.937 228.166 370.937 227.341C370.937 226.722 371.139 226.179 371.545 225.714C371.951 225.25 372.481 224.946 373.138 224.805V224.785C372.577 224.63 372.133 224.356 371.805 223.964C371.477 223.568 371.312 223.105 371.312 222.577C371.312 221.829 371.609 221.214 372.201 220.731C372.794 220.243 373.543 220 374.45 220C375.362 220 376.111 220.243 376.699 220.731C377.287 221.214 377.581 221.829 377.581 222.577C377.581 223.096 377.417 223.554 377.089 223.951C376.761 224.347 376.319 224.625 375.763 224.785V224.805C376.419 224.946 376.95 225.25 377.355 225.714C377.761 226.179 377.964 226.722 377.964 227.341C377.964 228.171 377.636 228.852 376.979 229.385C376.328 229.914 375.485 230.178 374.45 230.178ZM372.598 228.777C373.076 229.164 373.694 229.358 374.45 229.358C375.207 229.358 375.822 229.164 376.296 228.777C376.774 228.385 377.014 227.888 377.014 227.287C377.014 226.694 376.774 226.209 376.296 225.831C375.822 225.452 375.207 225.263 374.45 225.263C373.698 225.263 373.083 225.452 372.604 225.831C372.126 226.209 371.887 226.694 371.887 227.287C371.887 227.888 372.124 228.385 372.598 228.777ZM374.45 224.429C375.093 224.429 375.619 224.263 376.029 223.93C376.444 223.597 376.651 223.171 376.651 222.652C376.651 222.119 376.446 221.679 376.036 221.333C375.631 220.986 375.102 220.813 374.45 220.813C373.799 220.813 373.268 220.986 372.857 221.333C372.447 221.679 372.242 222.119 372.242 222.652C372.242 223.171 372.447 223.597 372.857 223.93C373.272 224.263 373.803 224.429 374.45 224.429Z" fill="#FF9500"/>
<path d="M904.56 79.8643H900.991V70H904.539C905.387 70 906.073 70.2233 906.597 70.67C907.121 71.1166 907.383 71.7045 907.383 72.4336C907.383 72.9805 907.212 73.4636 906.87 73.8829C906.533 74.3021 906.102 74.5596 905.578 74.6553V74.7032C906.271 74.7852 906.829 75.0472 907.253 75.4893C907.681 75.9268 907.896 76.4828 907.896 77.1573C907.896 78.0004 907.599 78.6635 907.007 79.1465C906.414 79.625 905.599 79.8643 904.56 79.8643ZM901.921 70.8272V74.3819H904.067C904.815 74.3819 905.396 74.2201 905.811 73.8965C906.23 73.573 906.439 73.1195 906.439 72.5362C906.439 71.9984 906.253 71.5791 905.879 71.2784C905.51 70.9776 904.997 70.8272 904.341 70.8272H901.921ZM901.921 79.0372H904.43C905.232 79.0372 905.849 78.8708 906.282 78.5381C906.72 78.2009 906.938 77.7247 906.938 77.1094C906.938 76.4942 906.711 76.0202 906.255 75.6875C905.804 75.3549 905.154 75.1885 904.307 75.1885H901.921V79.0372ZM915.292 79.8643V72.7549H916.188V79.8643H915.292ZM911.648 75.92H910.117V79.1123H911.648C912.163 79.1123 912.574 78.9665 912.879 78.6748C913.189 78.3832 913.344 77.9958 913.344 77.5127C913.344 77.0297 913.189 76.6446 912.879 76.3575C912.574 76.0658 912.163 75.92 911.648 75.92ZM909.222 79.8643V72.7549H910.117V75.168H911.662C912.446 75.168 913.07 75.3799 913.535 75.8038C914.005 76.223 914.239 76.7927 914.239 77.5127C914.239 78.2328 914.005 78.8047 913.535 79.2286C913.07 79.6524 912.446 79.8643 911.662 79.8643H909.222ZM923.037 72.7549V73.5069H920.617V79.8643H919.722V73.5069H917.302V72.7549H923.037ZM926.318 76.4395H927.911V73.5069H926.318C925.799 73.5069 925.386 73.6413 925.081 73.9102C924.776 74.1791 924.623 74.5459 924.623 75.0108C924.623 75.4346 924.778 75.7787 925.088 76.043C925.398 76.3073 925.808 76.4395 926.318 76.4395ZM927.911 79.8643V77.1914H926.421L924.473 79.8643H923.427L925.498 77.0411C924.947 76.9271 924.514 76.6924 924.199 76.337C923.885 75.9815 923.728 75.544 923.728 75.0245C923.728 74.3272 923.96 73.7758 924.425 73.3702C924.894 72.96 925.523 72.7549 926.312 72.7549H928.807V79.8643H927.911ZM936.005 76.1319L939.45 79.8643H938.268L935.109 76.3985H935.068V79.8643H934.173V76.3985H934.139L930.98 79.8643H929.818L933.243 76.1455L929.928 72.7549H931.062L934.139 75.9473H934.173V72.7549H935.068V75.9473H935.109L938.186 72.7549H939.307L936.005 76.1319ZM942.314 76.1387L946.047 79.8643H944.857L941.398 76.3985H941.357V79.8643H940.462V72.7549H941.357V75.9473H941.398L944.769 72.7549H945.91L942.314 76.1387ZM949.157 79.2012C949.782 79.2012 950.308 79.0075 950.736 78.6202C951.165 78.2328 951.379 77.7566 951.379 77.1914V76.4053L949.273 76.5489C948.713 76.5853 948.282 76.722 947.981 76.959C947.681 77.1914 947.53 77.5036 947.53 77.8955C947.53 78.2829 947.681 78.5974 947.981 78.8389C948.282 79.0804 948.674 79.2012 949.157 79.2012ZM948.973 79.9805C948.271 79.9805 947.701 79.7891 947.264 79.4063C946.831 79.0189 946.614 78.5153 946.614 77.8955C946.614 77.2849 946.833 76.8018 947.271 76.4463C947.713 76.0909 948.344 75.8858 949.164 75.8311L951.379 75.6944V75.0791C951.379 74.5642 951.224 74.1631 950.914 73.876C950.604 73.5844 950.174 73.4385 949.622 73.4385C949.103 73.4385 948.679 73.5593 948.351 73.8008C948.027 74.0424 947.826 74.3796 947.749 74.8125H946.874C946.924 74.1654 947.198 73.6413 947.694 73.2403C948.196 72.8392 948.845 72.6387 949.643 72.6387C950.454 72.6387 951.096 72.8506 951.57 73.2745C952.044 73.6983 952.281 74.2725 952.281 74.9971V79.8643H951.42V78.5108H951.399C951.203 78.9528 950.882 79.3083 950.436 79.5772C949.989 79.8461 949.501 79.9805 948.973 79.9805ZM960.519 79.8643H956.95V70H960.498C961.346 70 962.032 70.2233 962.556 70.67C963.08 71.1166 963.342 71.7045 963.342 72.4336C963.342 72.9805 963.171 73.4636 962.829 73.8829C962.492 74.3021 962.061 74.5596 961.537 74.6553V74.7032C962.23 74.7852 962.788 75.0472 963.212 75.4893C963.64 75.9268 963.854 76.4828 963.854 77.1573C963.854 78.0004 963.558 78.6635 962.966 79.1465C962.373 79.625 961.558 79.8643 960.519 79.8643ZM957.88 70.8272V74.3819H960.026C960.774 74.3819 961.355 74.2201 961.77 73.8965C962.189 73.573 962.398 73.1195 962.398 72.5362C962.398 71.9984 962.212 71.5791 961.838 71.2784C961.469 70.9776 960.956 70.8272 960.3 70.8272H957.88ZM957.88 79.0372H960.389C961.191 79.0372 961.808 78.8708 962.241 78.5381C962.679 78.2009 962.897 77.7247 962.897 77.1094C962.897 76.4942 962.67 76.0202 962.214 75.6875C961.763 75.3549 961.113 75.1885 960.266 75.1885H957.88V79.0372ZM969.569 76.3028H965.085V75.4551H969.569V76.3028ZM971.771 79.8643L976.344 70.8614V70.834H970.854V70H977.28V70.875L972.762 79.8643H971.771Z" fill="#FF9500"/>
<path d="M604.56 80.0215H600.991V70.1572H604.539C605.387 70.1572 606.073 70.3805 606.597 70.8272C607.121 71.2738 607.383 71.8617 607.383 72.5908C607.383 73.1377 607.212 73.6208 606.87 74.0401C606.533 74.4593 606.102 74.7168 605.578 74.8125V74.8604C606.271 74.9424 606.829 75.2044 607.253 75.6465C607.681 76.084 607.896 76.64 607.896 77.3145C607.896 78.1576 607.599 78.8207 607.007 79.3037C606.414 79.7822 605.599 80.0215 604.56 80.0215ZM601.921 70.9844V74.5391H604.067C604.815 74.5391 605.396 74.3773 605.811 74.0537C606.23 73.7302 606.439 73.2767 606.439 72.6934C606.439 72.1556 606.253 71.7363 605.879 71.4356C605.51 71.1348 604.997 70.9844 604.341 70.9844H601.921ZM601.921 79.1944H604.43C605.232 79.1944 605.849 79.028 606.282 78.6953C606.72 78.3581 606.938 77.8819 606.938 77.2666C606.938 76.6514 606.711 76.1774 606.255 75.8447C605.804 75.5121 605.154 75.3457 604.307 75.3457H601.921V79.1944ZM615.292 80.0215V72.9121H616.188V80.0215H615.292ZM611.648 76.0772H610.117V79.2695H611.648C612.163 79.2695 612.574 79.1237 612.879 78.832C613.189 78.5404 613.344 78.153 613.344 77.6699C613.344 77.1869 613.189 76.8018 612.879 76.5147C612.574 76.223 612.163 76.0772 611.648 76.0772ZM609.222 80.0215V72.9121H610.117V75.3252H611.662C612.446 75.3252 613.07 75.5371 613.535 75.961C614.005 76.3802 614.239 76.9499 614.239 77.6699C614.239 78.39 614.005 78.9619 613.535 79.3858C613.07 79.8096 612.446 80.0215 611.662 80.0215H609.222ZM623.037 72.9121V73.6641H620.617V80.0215H619.722V73.6641H617.302V72.9121H623.037ZM626.318 76.5967H627.911V73.6641H626.318C625.799 73.6641 625.386 73.7985 625.081 74.0674C624.776 74.3363 624.623 74.7031 624.623 75.168C624.623 75.5918 624.778 75.9359 625.088 76.2002C625.398 76.4645 625.808 76.5967 626.318 76.5967ZM627.911 80.0215V77.3486H626.421L624.473 80.0215H623.427L625.498 77.1983C624.947 77.0843 624.514 76.8496 624.199 76.4942C623.885 76.1387 623.728 75.7012 623.728 75.1817C623.728 74.4844 623.96 73.933 624.425 73.5274C624.894 73.1172 625.523 72.9121 626.312 72.9121H628.807V80.0215H627.911ZM636.005 76.2891L639.45 80.0215H638.268L635.109 76.5557H635.068V80.0215H634.173V76.5557H634.139L630.98 80.0215H629.818L633.243 76.3027L629.928 72.9121H631.062L634.139 76.1045H634.173V72.9121H635.068V76.1045H635.109L638.186 72.9121H639.307L636.005 76.2891ZM642.314 76.2959L646.047 80.0215H644.857L641.398 76.5557H641.357V80.0215H640.462V72.9121H641.357V76.1045H641.398L644.769 72.9121H645.91L642.314 76.2959ZM649.157 79.3584C649.782 79.3584 650.308 79.1647 650.736 78.7774C651.165 78.39 651.379 77.9138 651.379 77.3486V76.5625L649.273 76.7061C648.713 76.7425 648.282 76.8792 647.981 77.1162C647.681 77.3486 647.53 77.6608 647.53 78.0527C647.53 78.4401 647.681 78.7546 647.981 78.9961C648.282 79.2376 648.674 79.3584 649.157 79.3584ZM648.973 80.1377C648.271 80.1377 647.701 79.9463 647.264 79.5635C646.831 79.1761 646.614 78.6725 646.614 78.0527C646.614 77.4421 646.833 76.959 647.271 76.6035C647.713 76.2481 648.344 76.043 649.164 75.9883L651.379 75.8516V75.2363C651.379 74.7214 651.224 74.3203 650.914 74.0332C650.604 73.7416 650.174 73.5957 649.622 73.5957C649.103 73.5957 648.679 73.7165 648.351 73.958C648.027 74.1996 647.826 74.5368 647.749 74.9697H646.874C646.924 74.3226 647.198 73.7985 647.694 73.3975C648.196 72.9964 648.845 72.7959 649.643 72.7959C650.454 72.7959 651.096 73.0078 651.57 73.4317C652.044 73.8555 652.281 74.4297 652.281 75.1543V80.0215H651.42V78.668H651.399C651.203 79.11 650.882 79.4655 650.436 79.7344C649.989 80.0033 649.501 80.1377 648.973 80.1377ZM660.519 80.0215H656.95V70.1572H660.498C661.346 70.1572 662.032 70.3805 662.556 70.8272C663.08 71.2738 663.342 71.8617 663.342 72.5908C663.342 73.1377 663.171 73.6208 662.829 74.0401C662.492 74.4593 662.061 74.7168 661.537 74.8125V74.8604C662.23 74.9424 662.788 75.2044 663.212 75.6465C663.64 76.084 663.854 76.64 663.854 77.3145C663.854 78.1576 663.558 78.8207 662.966 79.3037C662.373 79.7822 661.558 80.0215 660.519 80.0215ZM657.88 70.9844V74.5391H660.026C660.774 74.5391 661.355 74.3773 661.77 74.0537C662.189 73.7302 662.398 73.2767 662.398 72.6934C662.398 72.1556 662.212 71.7363 661.838 71.4356C661.469 71.1348 660.956 70.9844 660.3 70.9844H657.88ZM657.88 79.1944H660.389C661.191 79.1944 661.808 79.028 662.241 78.6953C662.679 78.3581 662.897 77.8819 662.897 77.2666C662.897 76.6514 662.67 76.1774 662.214 75.8447C661.763 75.5121 661.113 75.3457 660.266 75.3457H657.88V79.1944ZM669.569 76.46H665.085V75.6123H669.569V76.46ZM674.614 80.1787C673.953 80.1787 673.361 80.0169 672.837 79.6934C672.317 79.3698 671.905 78.9095 671.6 78.3125C671.158 77.5423 670.937 76.5375 670.937 75.2979C670.937 73.6436 671.267 72.347 671.928 71.4082C672.593 70.4694 673.511 70 674.683 70C675.503 70 676.202 70.2279 676.781 70.6836C677.36 71.1393 677.72 71.7455 677.861 72.502H676.918C676.795 72.0007 676.528 71.5973 676.118 71.292C675.708 70.9821 675.227 70.8272 674.676 70.8272C673.773 70.8272 673.074 71.2305 672.577 72.0371C672.085 72.8392 671.839 73.9717 671.839 75.4346H671.859C672.06 74.8786 672.427 74.4274 672.96 74.0811C673.498 73.7347 674.099 73.5615 674.765 73.5615C675.703 73.5615 676.483 73.8714 677.103 74.4912C677.727 75.111 678.039 75.888 678.039 76.8223C678.039 77.7884 677.715 78.5905 677.068 79.2285C676.421 79.862 675.603 80.1787 674.614 80.1787ZM674.607 79.3447C675.3 79.3447 675.886 79.1032 676.364 78.6201C676.847 78.1371 677.089 77.5469 677.089 76.8496C677.089 76.1432 676.854 75.5576 676.385 75.0928C675.92 74.6234 675.33 74.3887 674.614 74.3887C673.912 74.3887 673.318 74.6211 672.83 75.086C672.347 75.5462 672.105 76.1113 672.105 76.7813C672.105 77.5013 672.345 78.1097 672.823 78.6065C673.306 79.0986 673.901 79.3447 674.607 79.3447Z" fill="#FF9500"/>
<path d="M744.56 399H740.991V389.136H744.539C745.387 389.136 746.073 389.359 746.597 389.806C747.121 390.252 747.383 390.84 747.383 391.569C747.383 392.116 747.212 392.599 746.87 393.019C746.533 393.438 746.102 393.695 745.578 393.791V393.839C746.271 393.921 746.829 394.183 747.253 394.625C747.681 395.062 747.896 395.618 747.896 396.293C747.896 397.136 747.599 397.799 747.007 398.282C746.414 398.761 745.599 399 744.56 399ZM741.921 389.963V393.518H744.067C744.815 393.518 745.396 393.356 745.811 393.032C746.23 392.709 746.439 392.255 746.439 391.672C746.439 391.134 746.253 390.715 745.879 390.414C745.51 390.113 744.997 389.963 744.341 389.963H741.921ZM741.921 398.173H744.43C745.232 398.173 745.849 398.007 746.282 397.674C746.72 397.337 746.938 396.86 746.938 396.245C746.938 395.63 746.711 395.156 746.255 394.823C745.804 394.491 745.154 394.324 744.307 394.324H741.921V398.173ZM755.292 399V391.891H756.188V399H755.292ZM751.648 395.056H750.117V398.248H751.648C752.163 398.248 752.574 398.102 752.879 397.811C753.189 397.519 753.344 397.132 753.344 396.648C753.344 396.165 753.189 395.78 752.879 395.493C752.574 395.201 752.163 395.056 751.648 395.056ZM749.222 399V391.891H750.117V394.304H751.662C752.446 394.304 753.07 394.516 753.535 394.939C754.005 395.359 754.239 395.928 754.239 396.648C754.239 397.368 754.005 397.94 753.535 398.364C753.07 398.788 752.446 399 751.662 399H749.222ZM763.037 391.891V392.643H760.617V399H759.722V392.643H757.302V391.891H763.037ZM766.318 395.575H767.911V392.643H766.318C765.799 392.643 765.386 392.777 765.081 393.046C764.776 393.315 764.623 393.682 764.623 394.146C764.623 394.57 764.778 394.914 765.088 395.179C765.398 395.443 765.808 395.575 766.318 395.575ZM767.911 399V396.327H766.421L764.473 399H763.427L765.498 396.177C764.947 396.063 764.514 395.828 764.199 395.473C763.885 395.117 763.728 394.68 763.728 394.16C763.728 393.463 763.96 392.911 764.425 392.506C764.894 392.096 765.523 391.891 766.312 391.891H768.807V399H767.911ZM776.005 395.268L779.45 399H778.268L775.109 395.534H775.068V399H774.173V395.534H774.139L770.98 399H769.818L773.243 395.281L769.928 391.891H771.062L774.139 395.083H774.173V391.891H775.068V395.083H775.109L778.186 391.891H779.307L776.005 395.268ZM782.314 395.274L786.047 399H784.857L781.398 395.534H781.357V399H780.462V391.891H781.357V395.083H781.398L784.769 391.891H785.91L782.314 395.274ZM789.157 398.337C789.782 398.337 790.308 398.143 790.736 397.756C791.165 397.368 791.379 396.892 791.379 396.327V395.541L789.273 395.685C788.713 395.721 788.282 395.858 787.981 396.095C787.681 396.327 787.53 396.639 787.53 397.031C787.53 397.419 787.681 397.733 787.981 397.975C788.282 398.216 788.674 398.337 789.157 398.337ZM788.973 399.116C788.271 399.116 787.701 398.925 787.264 398.542C786.831 398.155 786.614 397.651 786.614 397.031C786.614 396.421 786.833 395.938 787.271 395.582C787.713 395.227 788.344 395.021 789.164 394.967L791.379 394.83V394.215C791.379 393.7 791.224 393.299 790.914 393.012C790.604 392.72 790.174 392.574 789.622 392.574C789.103 392.574 788.679 392.695 788.351 392.937C788.027 393.178 787.826 393.515 787.749 393.948H786.874C786.924 393.301 787.198 392.777 787.694 392.376C788.196 391.975 788.845 391.774 789.643 391.774C790.454 391.774 791.096 391.986 791.57 392.41C792.044 392.834 792.281 393.408 792.281 394.133V399H791.42V397.646H791.399C791.203 398.089 790.882 398.444 790.436 398.713C789.989 398.982 789.501 399.116 788.973 399.116ZM800.519 399H796.95V389.136H800.498C801.346 389.136 802.032 389.359 802.556 389.806C803.08 390.252 803.342 390.84 803.342 391.569C803.342 392.116 803.171 392.599 802.829 393.019C802.492 393.438 802.061 393.695 801.537 393.791V393.839C802.23 393.921 802.788 394.183 803.212 394.625C803.64 395.062 803.854 395.618 803.854 396.293C803.854 397.136 803.558 397.799 802.966 398.282C802.373 398.761 801.558 399 800.519 399ZM797.88 389.963V393.518H800.026C800.774 393.518 801.355 393.356 801.77 393.032C802.189 392.709 802.398 392.255 802.398 391.672C802.398 391.134 802.212 390.715 801.838 390.414C801.469 390.113 800.956 389.963 800.3 389.963H797.88ZM797.88 398.173H800.389C801.191 398.173 801.808 398.007 802.241 397.674C802.679 397.337 802.897 396.86 802.897 396.245C802.897 395.63 802.67 395.156 802.214 394.823C801.763 394.491 801.113 394.324 800.266 394.324H797.88V398.173ZM809.569 395.438H805.085V394.591H809.569V395.438ZM811.101 391.897C811.105 391.059 811.406 390.364 812.003 389.812C812.604 389.257 813.356 388.979 814.259 388.979C815.12 388.979 815.847 389.238 816.439 389.758C817.032 390.277 817.328 390.915 817.328 391.672C817.328 392.21 817.178 392.731 816.877 393.237C816.581 393.739 816.022 394.415 815.202 395.268L812.454 398.139V398.166H817.581V399H811.148V398.344L814.635 394.659C815.341 393.916 815.811 393.349 816.043 392.957C816.28 392.565 816.398 392.155 816.398 391.727C816.398 391.189 816.189 390.733 815.77 390.359C815.35 389.986 814.838 389.799 814.231 389.799C813.598 389.799 813.069 389.999 812.646 390.4C812.226 390.797 812.012 391.296 812.003 391.897V391.904H811.101V391.897Z" fill="#FF9500"/>
<path d="M434.56 399H430.991V389.136H434.539C435.387 389.136 436.073 389.359 436.597 389.806C437.121 390.252 437.383 390.84 437.383 391.569C437.383 392.116 437.212 392.599 436.87 393.019C436.533 393.438 436.102 393.695 435.578 393.791V393.839C436.271 393.921 436.829 394.183 437.253 394.625C437.681 395.062 437.896 395.618 437.896 396.293C437.896 397.136 437.599 397.799 437.007 398.282C436.414 398.761 435.599 399 434.56 399ZM431.921 389.963V393.518H434.067C434.815 393.518 435.396 393.356 435.811 393.032C436.23 392.709 436.439 392.255 436.439 391.672C436.439 391.134 436.253 390.715 435.879 390.414C435.51 390.113 434.997 389.963 434.341 389.963H431.921ZM431.921 398.173H434.43C435.232 398.173 435.849 398.007 436.282 397.674C436.72 397.337 436.938 396.86 436.938 396.245C436.938 395.63 436.711 395.156 436.255 394.823C435.804 394.491 435.154 394.324 434.307 394.324H431.921V398.173ZM445.292 399V391.891H446.188V399H445.292ZM441.648 395.056H440.117V398.248H441.648C442.163 398.248 442.574 398.102 442.879 397.811C443.189 397.519 443.344 397.132 443.344 396.648C443.344 396.165 443.189 395.78 442.879 395.493C442.574 395.201 442.163 395.056 441.648 395.056ZM439.222 399V391.891H440.117V394.304H441.662C442.446 394.304 443.07 394.516 443.535 394.939C444.005 395.359 444.239 395.928 444.239 396.648C444.239 397.368 444.005 397.94 443.535 398.364C443.07 398.788 442.446 399 441.662 399H439.222ZM453.037 391.891V392.643H450.617V399H449.722V392.643H447.302V391.891H453.037ZM456.318 395.575H457.911V392.643H456.318C455.799 392.643 455.386 392.777 455.081 393.046C454.776 393.315 454.623 393.682 454.623 394.146C454.623 394.57 454.778 394.914 455.088 395.179C455.398 395.443 455.808 395.575 456.318 395.575ZM457.911 399V396.327H456.421L454.473 399H453.427L455.498 396.177C454.947 396.063 454.514 395.828 454.199 395.473C453.885 395.117 453.728 394.68 453.728 394.16C453.728 393.463 453.96 392.911 454.425 392.506C454.894 392.096 455.523 391.891 456.312 391.891H458.807V399H457.911ZM466.005 395.268L469.45 399H468.268L465.109 395.534H465.068V399H464.173V395.534H464.139L460.98 399H459.818L463.243 395.281L459.928 391.891H461.062L464.139 395.083H464.173V391.891H465.068V395.083H465.109L468.186 391.891H469.307L466.005 395.268ZM472.314 395.274L476.047 399H474.857L471.398 395.534H471.357V399H470.462V391.891H471.357V395.083H471.398L474.769 391.891H475.91L472.314 395.274ZM479.157 398.337C479.782 398.337 480.308 398.143 480.736 397.756C481.165 397.368 481.379 396.892 481.379 396.327V395.541L479.273 395.685C478.713 395.721 478.282 395.858 477.981 396.095C477.681 396.327 477.53 396.639 477.53 397.031C477.53 397.419 477.681 397.733 477.981 397.975C478.282 398.216 478.674 398.337 479.157 398.337ZM478.973 399.116C478.271 399.116 477.701 398.925 477.264 398.542C476.831 398.155 476.614 397.651 476.614 397.031C476.614 396.421 476.833 395.938 477.271 395.582C477.713 395.227 478.344 395.021 479.164 394.967L481.379 394.83V394.215C481.379 393.7 481.224 393.299 480.914 393.012C480.604 392.72 480.174 392.574 479.622 392.574C479.103 392.574 478.679 392.695 478.351 392.937C478.027 393.178 477.826 393.515 477.749 393.948H476.874C476.924 393.301 477.198 392.777 477.694 392.376C478.196 391.975 478.845 391.774 479.643 391.774C480.454 391.774 481.096 391.986 481.57 392.41C482.044 392.834 482.281 393.408 482.281 394.133V399H481.42V397.646H481.399C481.203 398.089 480.882 398.444 480.436 398.713C479.989 398.982 479.501 399.116 478.973 399.116ZM490.519 399H486.95V389.136H490.498C491.346 389.136 492.032 389.359 492.556 389.806C493.08 390.252 493.342 390.84 493.342 391.569C493.342 392.116 493.171 392.599 492.829 393.019C492.492 393.438 492.061 393.695 491.537 393.791V393.839C492.23 393.921 492.788 394.183 493.212 394.625C493.64 395.062 493.854 395.618 493.854 396.293C493.854 397.136 493.558 397.799 492.966 398.282C492.373 398.761 491.558 399 490.519 399ZM487.88 389.963V393.518H490.026C490.774 393.518 491.355 393.356 491.77 393.032C492.189 392.709 492.398 392.255 492.398 391.672C492.398 391.134 492.212 390.715 491.838 390.414C491.469 390.113 490.956 389.963 490.3 389.963H487.88ZM487.88 398.173H490.389C491.191 398.173 491.808 398.007 492.241 397.674C492.679 397.337 492.897 396.86 492.897 396.245C492.897 395.63 492.67 395.156 492.214 394.823C491.763 394.491 491.113 394.324 490.266 394.324H487.88V398.173ZM499.569 395.438H495.085V394.591H499.569V395.438ZM503.042 394.304V393.511H504.19C504.833 393.511 505.357 393.333 505.763 392.978C506.168 392.622 506.371 392.169 506.371 391.617C506.371 391.075 506.177 390.637 505.79 390.305C505.407 389.967 504.888 389.799 504.231 389.799C503.621 389.799 503.115 389.967 502.714 390.305C502.313 390.642 502.087 391.084 502.037 391.631H501.135C501.194 390.838 501.508 390.198 502.078 389.71C502.652 389.222 503.384 388.979 504.272 388.979C505.143 388.979 505.868 389.218 506.446 389.696C507.025 390.17 507.314 390.772 507.314 391.501C507.314 392.116 507.13 392.633 506.761 393.053C506.392 393.472 505.89 393.739 505.257 393.853V393.88C506.013 393.925 506.615 394.167 507.062 394.604C507.513 395.037 507.738 395.603 507.738 396.3C507.738 396.847 507.588 397.339 507.287 397.776C506.986 398.214 506.576 398.553 506.057 398.795C505.537 399.036 504.961 399.157 504.327 399.157C503.343 399.157 502.538 398.904 501.914 398.398C501.29 397.893 500.962 397.241 500.93 396.443H501.832C501.868 396.999 502.115 397.455 502.57 397.811C503.031 398.161 503.614 398.337 504.32 398.337C505.036 398.337 505.626 398.148 506.091 397.77C506.556 397.391 506.788 396.91 506.788 396.327C506.788 395.698 506.56 395.204 506.104 394.844C505.649 394.484 505.024 394.304 504.231 394.304H503.042Z" fill="#FF9500"/>
<path d="M1054.56 399H1050.99V389.136H1054.54C1055.39 389.136 1056.07 389.359 1056.6 389.806C1057.12 390.252 1057.38 390.84 1057.38 391.569C1057.38 392.116 1057.21 392.599 1056.87 393.019C1056.53 393.438 1056.1 393.695 1055.58 393.791V393.839C1056.27 393.921 1056.83 394.183 1057.25 394.625C1057.68 395.062 1057.9 395.618 1057.9 396.293C1057.9 397.136 1057.6 397.799 1057.01 398.282C1056.41 398.761 1055.6 399 1054.56 399ZM1051.92 389.963V393.518H1054.07C1054.81 393.518 1055.4 393.356 1055.81 393.032C1056.23 392.709 1056.44 392.255 1056.44 391.672C1056.44 391.134 1056.25 390.715 1055.88 390.414C1055.51 390.113 1055 389.963 1054.34 389.963H1051.92ZM1051.92 398.173H1054.43C1055.23 398.173 1055.85 398.007 1056.28 397.674C1056.72 397.337 1056.94 396.86 1056.94 396.245C1056.94 395.63 1056.71 395.156 1056.25 394.823C1055.8 394.491 1055.15 394.324 1054.31 394.324H1051.92V398.173ZM1065.29 399V391.891H1066.19V399H1065.29ZM1061.65 395.056H1060.12V398.248H1061.65C1062.16 398.248 1062.57 398.102 1062.88 397.811C1063.19 397.519 1063.34 397.132 1063.34 396.648C1063.34 396.165 1063.19 395.78 1062.88 395.493C1062.57 395.201 1062.16 395.056 1061.65 395.056ZM1059.22 399V391.891H1060.12V394.304H1061.66C1062.45 394.304 1063.07 394.516 1063.54 394.939C1064 395.359 1064.24 395.928 1064.24 396.648C1064.24 397.368 1064 397.94 1063.54 398.364C1063.07 398.788 1062.45 399 1061.66 399H1059.22ZM1073.04 391.891V392.643H1070.62V399H1069.72V392.643H1067.3V391.891H1073.04ZM1076.32 395.575H1077.91V392.643H1076.32C1075.8 392.643 1075.39 392.777 1075.08 393.046C1074.78 393.315 1074.62 393.682 1074.62 394.146C1074.62 394.57 1074.78 394.914 1075.09 395.179C1075.4 395.443 1075.81 395.575 1076.32 395.575ZM1077.91 399V396.327H1076.42L1074.47 399H1073.43L1075.5 396.177C1074.95 396.063 1074.51 395.828 1074.2 395.473C1073.88 395.117 1073.73 394.68 1073.73 394.16C1073.73 393.463 1073.96 392.911 1074.42 392.506C1074.89 392.096 1075.52 391.891 1076.31 391.891H1078.81V399H1077.91ZM1086 395.268L1089.45 399H1088.27L1085.11 395.534H1085.07V399H1084.17V395.534H1084.14L1080.98 399H1079.82L1083.24 395.281L1079.93 391.891H1081.06L1084.14 395.083H1084.17V391.891H1085.07V395.083H1085.11L1088.19 391.891H1089.31L1086 395.268ZM1092.31 395.274L1096.05 399H1094.86L1091.4 395.534H1091.36V399H1090.46V391.891H1091.36V395.083H1091.4L1094.77 391.891H1095.91L1092.31 395.274ZM1099.16 398.337C1099.78 398.337 1100.31 398.143 1100.74 397.756C1101.16 397.368 1101.38 396.892 1101.38 396.327V395.541L1099.27 395.685C1098.71 395.721 1098.28 395.858 1097.98 396.095C1097.68 396.327 1097.53 396.639 1097.53 397.031C1097.53 397.419 1097.68 397.733 1097.98 397.975C1098.28 398.216 1098.67 398.337 1099.16 398.337ZM1098.97 399.116C1098.27 399.116 1097.7 398.925 1097.26 398.542C1096.83 398.155 1096.61 397.651 1096.61 397.031C1096.61 396.421 1096.83 395.938 1097.27 395.582C1097.71 395.227 1098.34 395.021 1099.16 394.967L1101.38 394.83V394.215C1101.38 393.7 1101.22 393.299 1100.91 393.012C1100.6 392.72 1100.17 392.574 1099.62 392.574C1099.1 392.574 1098.68 392.695 1098.35 392.937C1098.03 393.178 1097.83 393.515 1097.75 393.948H1096.87C1096.92 393.301 1097.2 392.777 1097.69 392.376C1098.2 391.975 1098.85 391.774 1099.64 391.774C1100.45 391.774 1101.1 391.986 1101.57 392.41C1102.04 392.834 1102.28 393.408 1102.28 394.133V399H1101.42V397.646H1101.4C1101.2 398.089 1100.88 398.444 1100.44 398.713C1099.99 398.982 1099.5 399.116 1098.97 399.116ZM1110.52 399H1106.95V389.136H1110.5C1111.35 389.136 1112.03 389.359 1112.56 389.806C1113.08 390.252 1113.34 390.84 1113.34 391.569C1113.34 392.116 1113.17 392.599 1112.83 393.019C1112.49 393.438 1112.06 393.695 1111.54 393.791V393.839C1112.23 393.921 1112.79 394.183 1113.21 394.625C1113.64 395.062 1113.85 395.618 1113.85 396.293C1113.85 397.136 1113.56 397.799 1112.97 398.282C1112.37 398.761 1111.56 399 1110.52 399ZM1107.88 389.963V393.518H1110.03C1110.77 393.518 1111.35 393.356 1111.77 393.032C1112.19 392.709 1112.4 392.255 1112.4 391.672C1112.4 391.134 1112.21 390.715 1111.84 390.414C1111.47 390.113 1110.96 389.963 1110.3 389.963H1107.88ZM1107.88 398.173H1110.39C1111.19 398.173 1111.81 398.007 1112.24 397.674C1112.68 397.337 1112.9 396.86 1112.9 396.245C1112.9 395.63 1112.67 395.156 1112.21 394.823C1111.76 394.491 1111.11 394.324 1110.27 394.324H1107.88V398.173ZM1119.57 395.438H1115.08V394.591H1119.57V395.438ZM1125.83 399V396.771H1120.83V395.917C1121.84 394.217 1123.35 391.952 1125.37 389.122H1126.74V395.944H1128.21V396.771H1126.74V399H1125.83ZM1121.77 395.917V395.944H1125.83V389.942H1125.82C1124.16 392.239 1122.81 394.231 1121.77 395.917Z" fill="#FF9500"/>
</svg>
