<svg width="1280" height="720" viewBox="0 0 1280 720" fill="none" xmlns="http://www.w3.org/2000/svg">
<path d="M161 364H160V365H161V364Z" fill="#C4C4C4"/>
<path d="M124.56 399H120.991V389.136H124.539C125.387 389.136 126.073 389.359 126.597 389.806C127.121 390.252 127.383 390.84 127.383 391.569C127.383 392.116 127.212 392.599 126.87 393.019C126.533 393.438 126.102 393.695 125.578 393.791V393.839C126.271 393.921 126.829 394.183 127.253 394.625C127.681 395.062 127.896 395.618 127.896 396.293C127.896 397.136 127.599 397.799 127.007 398.282C126.414 398.761 125.599 399 124.56 399ZM121.921 389.963V393.518H124.067C124.815 393.518 125.396 393.356 125.811 393.032C126.23 392.709 126.439 392.255 126.439 391.672C126.439 391.134 126.253 390.715 125.879 390.414C125.51 390.113 124.997 389.963 124.341 389.963H121.921ZM121.921 398.173H124.43C125.232 398.173 125.849 398.007 126.282 397.674C126.72 397.337 126.938 396.86 126.938 396.245C126.938 395.63 126.711 395.156 126.255 394.823C125.804 394.491 125.154 394.324 124.307 394.324H121.921V398.173ZM135.292 399V391.891H136.188V399H135.292ZM131.648 395.056H130.117V398.248H131.648C132.163 398.248 132.574 398.102 132.879 397.811C133.189 397.519 133.344 397.132 133.344 396.648C133.344 396.165 133.189 395.78 132.879 395.493C132.574 395.201 132.163 395.056 131.648 395.056ZM129.222 399V391.891H130.117V394.304H131.662C132.446 394.304 133.07 394.516 133.535 394.939C134.005 395.359 134.239 395.928 134.239 396.648C134.239 397.368 134.005 397.94 133.535 398.364C133.07 398.788 132.446 399 131.662 399H129.222ZM143.037 391.891V392.643H140.617V399H139.722V392.643H137.302V391.891H143.037ZM146.318 395.575H147.911V392.643H146.318C145.799 392.643 145.386 392.777 145.081 393.046C144.776 393.315 144.623 393.682 144.623 394.146C144.623 394.57 144.778 394.914 145.088 395.179C145.398 395.443 145.808 395.575 146.318 395.575ZM147.911 399V396.327H146.421L144.473 399H143.427L145.498 396.177C144.947 396.063 144.514 395.828 144.199 395.473C143.885 395.117 143.728 394.68 143.728 394.16C143.728 393.463 143.96 392.911 144.425 392.506C144.894 392.096 145.523 391.891 146.312 391.891H148.807V399H147.911ZM156.005 395.268L159.45 399H158.268L155.109 395.534H155.068V399H154.173V395.534H154.139L150.98 399H149.818L153.243 395.281L149.928 391.891H151.062L154.139 395.083H154.173V391.891H155.068V395.083H155.109L158.186 391.891H159.307L156.005 395.268ZM162.314 395.274L166.047 399H164.857L161.398 395.534H161.357V399H160.462V391.891H161.357V395.083H161.398L164.769 391.891H165.91L162.314 395.274ZM169.157 398.337C169.782 398.337 170.308 398.143 170.736 397.756C171.165 397.368 171.379 396.892 171.379 396.327V395.541L169.273 395.685C168.713 395.721 168.282 395.858 167.981 396.095C167.681 396.327 167.53 396.639 167.53 397.031C167.53 397.419 167.681 397.733 167.981 397.975C168.282 398.216 168.674 398.337 169.157 398.337ZM168.973 399.116C168.271 399.116 167.701 398.925 167.264 398.542C166.831 398.155 166.614 397.651 166.614 397.031C166.614 396.421 166.833 395.938 167.271 395.582C167.713 395.227 168.344 395.021 169.164 394.967L171.379 394.83V394.215C171.379 393.7 171.224 393.299 170.914 393.012C170.604 392.72 170.174 392.574 169.622 392.574C169.103 392.574 168.679 392.695 168.351 392.937C168.027 393.178 167.826 393.515 167.749 393.948H166.874C166.924 393.301 167.198 392.777 167.694 392.376C168.196 391.975 168.845 391.774 169.643 391.774C170.454 391.774 171.096 391.986 171.57 392.41C172.044 392.834 172.281 393.408 172.281 394.133V399H171.42V397.646H171.399C171.203 398.089 170.882 398.444 170.436 398.713C169.989 398.982 169.501 399.116 168.973 399.116ZM180.519 399H176.95V389.136H180.498C181.346 389.136 182.032 389.359 182.556 389.806C183.08 390.252 183.342 390.84 183.342 391.569C183.342 392.116 183.171 392.599 182.829 393.019C182.492 393.438 182.061 393.695 181.537 393.791V393.839C182.23 393.921 182.788 394.183 183.212 394.625C183.64 395.062 183.854 395.618 183.854 396.293C183.854 397.136 183.558 397.799 182.966 398.282C182.373 398.761 181.558 399 180.519 399ZM177.88 389.963V393.518H180.026C180.774 393.518 181.355 393.356 181.77 393.032C182.189 392.709 182.398 392.255 182.398 391.672C182.398 391.134 182.212 390.715 181.838 390.414C181.469 390.113 180.956 389.963 180.3 389.963H177.88ZM177.88 398.173H180.389C181.191 398.173 181.808 398.007 182.241 397.674C182.679 397.337 182.897 396.86 182.897 396.245C182.897 395.63 182.67 395.156 182.214 394.823C181.763 394.491 181.113 394.324 180.266 394.324H177.88V398.173ZM189.569 395.438H185.085V394.591H189.569V395.438ZM193.343 399V390.141H193.315C193.252 390.182 192.821 390.48 192.023 391.036C191.226 391.588 190.775 391.895 190.67 391.959V390.961C190.752 390.911 191.189 390.61 191.982 390.059C192.775 389.507 193.224 389.2 193.329 389.136H194.245V399H193.343Z" fill="#FF9500"/>
<path d="M304.56 43H300.991V33.1357H304.539C305.387 33.1357 306.073 33.359 306.597 33.8057C307.121 34.2523 307.383 34.8402 307.383 35.5693C307.383 36.1162 307.212 36.5993 306.87 37.0186C306.533 37.4378 306.102 37.6953 305.578 37.791V37.8389C306.271 37.9209 306.829 38.1829 307.253 38.625C307.681 39.0625 307.896 39.6185 307.896 40.293C307.896 41.1361 307.599 41.7992 307.007 42.2822C306.414 42.7607 305.599 43 304.56 43ZM301.921 33.9629V37.5176H304.067C304.815 37.5176 305.396 37.3558 305.811 37.0322C306.23 36.7087 306.439 36.2552 306.439 35.6719C306.439 35.1341 306.253 34.7148 305.879 34.4141C305.51 34.1133 304.997 33.9629 304.341 33.9629H301.921ZM301.921 42.1729H304.43C305.232 42.1729 305.849 42.0065 306.282 41.6738C306.72 41.3366 306.938 40.8604 306.938 40.2451C306.938 39.6299 306.711 39.1559 306.255 38.8232C305.804 38.4906 305.154 38.3242 304.307 38.3242H301.921V42.1729ZM315.292 43V35.8906H316.188V43H315.292ZM311.648 39.0557H310.117V42.248H311.648C312.163 42.248 312.574 42.1022 312.879 41.8105C313.189 41.5189 313.344 41.1315 313.344 40.6484C313.344 40.1654 313.189 39.7803 312.879 39.4932C312.574 39.2015 312.163 39.0557 311.648 39.0557ZM309.222 43V35.8906H310.117V38.3037H311.662C312.446 38.3037 313.07 38.5156 313.535 38.9395C314.005 39.3587 314.239 39.9284 314.239 40.6484C314.239 41.3685 314.005 41.9404 313.535 42.3643C313.07 42.7881 312.446 43 311.662 43H309.222ZM323.037 35.8906V36.6426H320.617V43H319.722V36.6426H317.302V35.8906H323.037ZM326.318 39.5752H327.911V36.6426H326.318C325.799 36.6426 325.386 36.777 325.081 37.0459C324.776 37.3148 324.623 37.6816 324.623 38.1465C324.623 38.5703 324.778 38.9144 325.088 39.1787C325.398 39.443 325.808 39.5752 326.318 39.5752ZM327.911 43V40.3271H326.421L324.473 43H323.427L325.498 40.1768C324.947 40.0628 324.514 39.8281 324.199 39.4727C323.885 39.1172 323.728 38.6797 323.728 38.1602C323.728 37.4629 323.96 36.9115 324.425 36.5059C324.894 36.0957 325.523 35.8906 326.312 35.8906H328.807V43H327.911ZM336.005 39.2676L339.45 43H338.268L335.109 39.5342H335.068V43H334.173V39.5342H334.139L330.98 43H329.818L333.243 39.2812L329.928 35.8906H331.062L334.139 39.083H334.173V35.8906H335.068V39.083H335.109L338.186 35.8906H339.307L336.005 39.2676ZM342.314 39.2744L346.047 43H344.857L341.398 39.5342H341.357V43H340.462V35.8906H341.357V39.083H341.398L344.769 35.8906H345.91L342.314 39.2744ZM349.157 42.3369C349.782 42.3369 350.308 42.1432 350.736 41.7559C351.165 41.3685 351.379 40.8923 351.379 40.3271V39.541L349.273 39.6846C348.713 39.721 348.282 39.8577 347.981 40.0947C347.681 40.3271 347.53 40.6393 347.53 41.0312C347.53 41.4186 347.681 41.7331 347.981 41.9746C348.282 42.2161 348.674 42.3369 349.157 42.3369ZM348.973 43.1162C348.271 43.1162 347.701 42.9248 347.264 42.542C346.831 42.1546 346.614 41.651 346.614 41.0312C346.614 40.4206 346.833 39.9375 347.271 39.582C347.713 39.2266 348.344 39.0215 349.164 38.9668L351.379 38.8301V38.2148C351.379 37.6999 351.224 37.2988 350.914 37.0117C350.604 36.7201 350.174 36.5742 349.622 36.5742C349.103 36.5742 348.679 36.695 348.351 36.9365C348.027 37.1781 347.826 37.5153 347.749 37.9482H346.874C346.924 37.3011 347.198 36.777 347.694 36.376C348.196 35.9749 348.845 35.7744 349.643 35.7744C350.454 35.7744 351.096 35.9863 351.57 36.4102C352.044 36.834 352.281 37.4082 352.281 38.1328V43H351.42V41.6465H351.399C351.203 42.0885 350.882 42.444 350.436 42.7129C349.989 42.9818 349.501 43.1162 348.973 43.1162ZM360.519 43H356.95V33.1357H360.498C361.346 33.1357 362.032 33.359 362.556 33.8057C363.08 34.2523 363.342 34.8402 363.342 35.5693C363.342 36.1162 363.171 36.5993 362.829 37.0186C362.492 37.4378 362.061 37.6953 361.537 37.791V37.8389C362.23 37.9209 362.788 38.1829 363.212 38.625C363.64 39.0625 363.854 39.6185 363.854 40.293C363.854 41.1361 363.558 41.7992 362.966 42.2822C362.373 42.7607 361.558 43 360.519 43ZM357.88 33.9629V37.5176H360.026C360.774 37.5176 361.355 37.3558 361.77 37.0322C362.189 36.7087 362.398 36.2552 362.398 35.6719C362.398 35.1341 362.212 34.7148 361.838 34.4141C361.469 34.1133 360.956 33.9629 360.3 33.9629H357.88ZM357.88 42.1729H360.389C361.191 42.1729 361.808 42.0065 362.241 41.6738C362.679 41.3366 362.897 40.8604 362.897 40.2451C362.897 39.6299 362.67 39.1559 362.214 38.8232C361.763 38.4906 361.113 38.3242 360.266 38.3242H357.88V42.1729ZM369.569 39.4385H365.085V38.5908H369.569V39.4385ZM374.45 43.1572C373.858 43.1572 373.315 43.041 372.823 42.8086C372.336 42.5762 371.944 42.2526 371.647 41.8379C371.351 41.4232 371.183 40.9538 371.142 40.4297H372.058C372.121 40.9811 372.379 41.4368 372.83 41.7969C373.281 42.1523 373.826 42.3301 374.464 42.3301C375.198 42.3301 375.799 42.0977 376.269 41.6328C376.743 41.1634 376.979 40.5664 376.979 39.8418C376.979 39.1217 376.745 38.5247 376.275 38.0508C375.811 37.5768 375.22 37.3398 374.505 37.3398C374.008 37.3398 373.555 37.4515 373.145 37.6748C372.734 37.8981 372.415 38.2057 372.188 38.5977H371.292L371.853 33.1357H377.321V33.9697H372.625L372.256 37.6133H372.283C372.525 37.276 372.855 37.0117 373.274 36.8203C373.698 36.6243 374.159 36.5264 374.655 36.5264C375.594 36.5264 376.371 36.8385 376.986 37.4629C377.606 38.0872 377.916 38.8734 377.916 39.8213C377.916 40.7965 377.59 41.5964 376.938 42.2207C376.287 42.8451 375.457 43.1572 374.45 43.1572Z" fill="#FF9500"/>
<path d="M904.56 213H900.991V203.136H904.539C905.387 203.136 906.073 203.359 906.597 203.806C907.121 204.252 907.383 204.84 907.383 205.569C907.383 206.116 907.212 206.599 906.87 207.019C906.533 207.438 906.102 207.695 905.578 207.791V207.839C906.271 207.921 906.829 208.183 907.253 208.625C907.681 209.062 907.896 209.618 907.896 210.293C907.896 211.136 907.599 211.799 907.007 212.282C906.414 212.761 905.599 213 904.56 213ZM901.921 203.963V207.518H904.067C904.815 207.518 905.396 207.356 905.811 207.032C906.23 206.709 906.439 206.255 906.439 205.672C906.439 205.134 906.253 204.715 905.879 204.414C905.51 204.113 904.997 203.963 904.341 203.963H901.921ZM901.921 212.173H904.43C905.232 212.173 905.849 212.007 906.282 211.674C906.72 211.337 906.938 210.86 906.938 210.245C906.938 209.63 906.711 209.156 906.255 208.823C905.804 208.491 905.154 208.324 904.307 208.324H901.921V212.173ZM915.292 213V205.891H916.188V213H915.292ZM911.648 209.056H910.117V212.248H911.648C912.163 212.248 912.574 212.102 912.879 211.811C913.189 211.519 913.344 211.132 913.344 210.648C913.344 210.165 913.189 209.78 912.879 209.493C912.574 209.201 912.163 209.056 911.648 209.056ZM909.222 213V205.891H910.117V208.304H911.662C912.446 208.304 913.07 208.516 913.535 208.939C914.005 209.359 914.239 209.928 914.239 210.648C914.239 211.368 914.005 211.94 913.535 212.364C913.07 212.788 912.446 213 911.662 213H909.222ZM923.037 205.891V206.643H920.617V213H919.722V206.643H917.302V205.891H923.037ZM926.318 209.575H927.911V206.643H926.318C925.799 206.643 925.386 206.777 925.081 207.046C924.776 207.315 924.623 207.682 924.623 208.146C924.623 208.57 924.778 208.914 925.088 209.179C925.398 209.443 925.808 209.575 926.318 209.575ZM927.911 213V210.327H926.421L924.473 213H923.427L925.498 210.177C924.947 210.063 924.514 209.828 924.199 209.473C923.885 209.117 923.728 208.68 923.728 208.16C923.728 207.463 923.96 206.911 924.425 206.506C924.894 206.096 925.523 205.891 926.312 205.891H928.807V213H927.911ZM936.005 209.268L939.45 213H938.268L935.109 209.534H935.068V213H934.173V209.534H934.139L930.98 213H929.818L933.243 209.281L929.928 205.891H931.062L934.139 209.083H934.173V205.891H935.068V209.083H935.109L938.186 205.891H939.307L936.005 209.268ZM942.314 209.274L946.047 213H944.857L941.398 209.534H941.357V213H940.462V205.891H941.357V209.083H941.398L944.769 205.891H945.91L942.314 209.274ZM949.157 212.337C949.782 212.337 950.308 212.143 950.736 211.756C951.165 211.368 951.379 210.892 951.379 210.327V209.541L949.273 209.685C948.713 209.721 948.282 209.858 947.981 210.095C947.681 210.327 947.53 210.639 947.53 211.031C947.53 211.419 947.681 211.733 947.981 211.975C948.282 212.216 948.674 212.337 949.157 212.337ZM948.973 213.116C948.271 213.116 947.701 212.925 947.264 212.542C946.831 212.155 946.614 211.651 946.614 211.031C946.614 210.421 946.833 209.938 947.271 209.582C947.713 209.227 948.344 209.021 949.164 208.967L951.379 208.83V208.215C951.379 207.7 951.224 207.299 950.914 207.012C950.604 206.72 950.174 206.574 949.622 206.574C949.103 206.574 948.679 206.695 948.351 206.937C948.027 207.178 947.826 207.515 947.749 207.948H946.874C946.924 207.301 947.198 206.777 947.694 206.376C948.196 205.975 948.845 205.774 949.643 205.774C950.454 205.774 951.096 205.986 951.57 206.41C952.044 206.834 952.281 207.408 952.281 208.133V213H951.42V211.646H951.399C951.203 212.089 950.882 212.444 950.436 212.713C949.989 212.982 949.501 213.116 948.973 213.116ZM960.519 213H956.95V203.136H960.498C961.346 203.136 962.032 203.359 962.556 203.806C963.08 204.252 963.342 204.84 963.342 205.569C963.342 206.116 963.171 206.599 962.829 207.019C962.492 207.438 962.061 207.695 961.537 207.791V207.839C962.23 207.921 962.788 208.183 963.212 208.625C963.64 209.062 963.854 209.618 963.854 210.293C963.854 211.136 963.558 211.799 962.966 212.282C962.373 212.761 961.558 213 960.519 213ZM957.88 203.963V207.518H960.026C960.774 207.518 961.355 207.356 961.77 207.032C962.189 206.709 962.398 206.255 962.398 205.672C962.398 205.134 962.212 204.715 961.838 204.414C961.469 204.113 960.956 203.963 960.3 203.963H957.88ZM957.88 212.173H960.389C961.191 212.173 961.808 212.007 962.241 211.674C962.679 211.337 962.897 210.86 962.897 210.245C962.897 209.63 962.67 209.156 962.214 208.823C961.763 208.491 961.113 208.324 960.266 208.324H957.88V212.173ZM969.569 209.438H965.085V208.591H969.569V209.438ZM973.343 213V204.141H973.315C973.252 204.182 972.821 204.48 972.023 205.036C971.226 205.588 970.775 205.895 970.67 205.959V204.961C970.752 204.911 971.189 204.61 971.982 204.059C972.775 203.507 973.224 203.2 973.329 203.136H974.245V213H973.343ZM980.083 213.157C978.966 213.157 978.091 212.701 977.458 211.79C976.825 210.874 976.508 209.632 976.508 208.064C976.508 206.506 976.827 205.269 977.465 204.353C978.103 203.437 978.976 202.979 980.083 202.979C981.195 202.979 982.068 203.437 982.701 204.353C983.335 205.264 983.651 206.499 983.651 208.058C983.651 209.625 983.335 210.867 982.701 211.783C982.068 212.699 981.195 213.157 980.083 213.157ZM978.148 211.188C978.613 211.954 979.258 212.337 980.083 212.337C980.908 212.337 981.553 211.954 982.018 211.188C982.482 210.423 982.715 209.382 982.715 208.064C982.715 206.757 982.48 205.72 982.011 204.954C981.546 204.188 980.903 203.806 980.083 203.806C979.267 203.806 978.625 204.191 978.155 204.961C977.686 205.731 977.451 206.763 977.451 208.058C977.451 209.379 977.684 210.423 978.148 211.188Z" fill="#FF9500"/>
<path d="M604.56 213H600.991V203.136H604.539C605.387 203.136 606.073 203.359 606.597 203.806C607.121 204.252 607.383 204.84 607.383 205.569C607.383 206.116 607.212 206.599 606.87 207.019C606.533 207.438 606.102 207.695 605.578 207.791V207.839C606.271 207.921 606.829 208.183 607.253 208.625C607.681 209.062 607.896 209.618 607.896 210.293C607.896 211.136 607.599 211.799 607.007 212.282C606.414 212.761 605.599 213 604.56 213ZM601.921 203.963V207.518H604.067C604.815 207.518 605.396 207.356 605.811 207.032C606.23 206.709 606.439 206.255 606.439 205.672C606.439 205.134 606.253 204.715 605.879 204.414C605.51 204.113 604.997 203.963 604.341 203.963H601.921ZM601.921 212.173H604.43C605.232 212.173 605.849 212.007 606.282 211.674C606.72 211.337 606.938 210.86 606.938 210.245C606.938 209.63 606.711 209.156 606.255 208.823C605.804 208.491 605.154 208.324 604.307 208.324H601.921V212.173ZM615.292 213V205.891H616.188V213H615.292ZM611.648 209.056H610.117V212.248H611.648C612.163 212.248 612.574 212.102 612.879 211.811C613.189 211.519 613.344 211.132 613.344 210.648C613.344 210.165 613.189 209.78 612.879 209.493C612.574 209.201 612.163 209.056 611.648 209.056ZM609.222 213V205.891H610.117V208.304H611.662C612.446 208.304 613.07 208.516 613.535 208.939C614.005 209.359 614.239 209.928 614.239 210.648C614.239 211.368 614.005 211.94 613.535 212.364C613.07 212.788 612.446 213 611.662 213H609.222ZM623.037 205.891V206.643H620.617V213H619.722V206.643H617.302V205.891H623.037ZM626.318 209.575H627.911V206.643H626.318C625.799 206.643 625.386 206.777 625.081 207.046C624.776 207.315 624.623 207.682 624.623 208.146C624.623 208.57 624.778 208.914 625.088 209.179C625.398 209.443 625.808 209.575 626.318 209.575ZM627.911 213V210.327H626.421L624.473 213H623.427L625.498 210.177C624.947 210.063 624.514 209.828 624.199 209.473C623.885 209.117 623.728 208.68 623.728 208.16C623.728 207.463 623.96 206.911 624.425 206.506C624.894 206.096 625.523 205.891 626.312 205.891H628.807V213H627.911ZM636.005 209.268L639.45 213H638.268L635.109 209.534H635.068V213H634.173V209.534H634.139L630.98 213H629.818L633.243 209.281L629.928 205.891H631.062L634.139 209.083H634.173V205.891H635.068V209.083H635.109L638.186 205.891H639.307L636.005 209.268ZM642.314 209.274L646.047 213H644.857L641.398 209.534H641.357V213H640.462V205.891H641.357V209.083H641.398L644.769 205.891H645.91L642.314 209.274ZM649.157 212.337C649.782 212.337 650.308 212.143 650.736 211.756C651.165 211.368 651.379 210.892 651.379 210.327V209.541L649.273 209.685C648.713 209.721 648.282 209.858 647.981 210.095C647.681 210.327 647.53 210.639 647.53 211.031C647.53 211.419 647.681 211.733 647.981 211.975C648.282 212.216 648.674 212.337 649.157 212.337ZM648.973 213.116C648.271 213.116 647.701 212.925 647.264 212.542C646.831 212.155 646.614 211.651 646.614 211.031C646.614 210.421 646.833 209.938 647.271 209.582C647.713 209.227 648.344 209.021 649.164 208.967L651.379 208.83V208.215C651.379 207.7 651.224 207.299 650.914 207.012C650.604 206.72 650.174 206.574 649.622 206.574C649.103 206.574 648.679 206.695 648.351 206.937C648.027 207.178 647.826 207.515 647.749 207.948H646.874C646.924 207.301 647.198 206.777 647.694 206.376C648.196 205.975 648.845 205.774 649.643 205.774C650.454 205.774 651.096 205.986 651.57 206.41C652.044 206.834 652.281 207.408 652.281 208.133V213H651.42V211.646H651.399C651.203 212.089 650.882 212.444 650.436 212.713C649.989 212.982 649.501 213.116 648.973 213.116ZM660.519 213H656.95V203.136H660.498C661.346 203.136 662.032 203.359 662.556 203.806C663.08 204.252 663.342 204.84 663.342 205.569C663.342 206.116 663.171 206.599 662.829 207.019C662.492 207.438 662.061 207.695 661.537 207.791V207.839C662.23 207.921 662.788 208.183 663.212 208.625C663.64 209.062 663.854 209.618 663.854 210.293C663.854 211.136 663.558 211.799 662.966 212.282C662.373 212.761 661.558 213 660.519 213ZM657.88 203.963V207.518H660.026C660.774 207.518 661.355 207.356 661.77 207.032C662.189 206.709 662.398 206.255 662.398 205.672C662.398 205.134 662.212 204.715 661.838 204.414C661.469 204.113 660.956 203.963 660.3 203.963H657.88ZM657.88 212.173H660.389C661.191 212.173 661.808 212.007 662.241 211.674C662.679 211.337 662.897 210.86 662.897 210.245C662.897 209.63 662.67 209.156 662.214 208.823C661.763 208.491 661.113 208.324 660.266 208.324H657.88V212.173ZM669.569 209.438H665.085V208.591H669.569V209.438ZM674.197 213.157C673.368 213.157 672.664 212.929 672.085 212.474C671.506 212.013 671.148 211.407 671.012 210.655H671.962C672.085 211.157 672.349 211.562 672.755 211.872C673.16 212.182 673.644 212.337 674.204 212.337C675.084 212.337 675.77 211.952 676.262 211.182C676.754 210.407 677.011 209.325 677.034 207.935C677.034 207.916 677.032 207.882 677.027 207.832C677.027 207.777 677.027 207.736 677.027 207.709H677.021H677.014C676.827 208.265 676.465 208.718 675.927 209.069C675.389 209.42 674.783 209.596 674.108 209.596C673.17 209.596 672.388 209.288 671.764 208.673C671.144 208.053 670.834 207.281 670.834 206.355C670.834 205.38 671.158 204.574 671.805 203.936C672.452 203.298 673.27 202.979 674.259 202.979C674.924 202.979 675.517 203.14 676.036 203.464C676.56 203.787 676.973 204.248 677.273 204.845C677.715 205.615 677.937 206.62 677.937 207.859C677.937 209.514 677.606 210.81 676.945 211.749C676.285 212.688 675.368 213.157 674.197 213.157ZM674.259 208.769C674.965 208.769 675.56 208.536 676.043 208.071C676.531 207.606 676.774 207.041 676.774 206.376C676.774 205.66 676.533 205.057 676.05 204.564C675.567 204.068 674.972 203.819 674.266 203.819C673.564 203.819 672.974 204.061 672.495 204.544C672.017 205.027 671.777 205.622 671.777 206.328C671.777 207.021 672.012 207.602 672.481 208.071C672.951 208.536 673.543 208.769 674.259 208.769Z" fill="#FF9500"/>
<path d="M304.56 213H300.991V203.136H304.539C305.387 203.136 306.073 203.359 306.597 203.806C307.121 204.252 307.383 204.84 307.383 205.569C307.383 206.116 307.212 206.599 306.87 207.019C306.533 207.438 306.102 207.695 305.578 207.791V207.839C306.271 207.921 306.829 208.183 307.253 208.625C307.681 209.062 307.896 209.618 307.896 210.293C307.896 211.136 307.599 211.799 307.007 212.282C306.414 212.761 305.599 213 304.56 213ZM301.921 203.963V207.518H304.067C304.815 207.518 305.396 207.356 305.811 207.032C306.23 206.709 306.439 206.255 306.439 205.672C306.439 205.134 306.253 204.715 305.879 204.414C305.51 204.113 304.997 203.963 304.341 203.963H301.921ZM301.921 212.173H304.43C305.232 212.173 305.849 212.007 306.282 211.674C306.72 211.337 306.938 210.86 306.938 210.245C306.938 209.63 306.711 209.156 306.255 208.823C305.804 208.491 305.154 208.324 304.307 208.324H301.921V212.173ZM315.292 213V205.891H316.188V213H315.292ZM311.648 209.056H310.117V212.248H311.648C312.163 212.248 312.574 212.102 312.879 211.811C313.189 211.519 313.344 211.132 313.344 210.648C313.344 210.165 313.189 209.78 312.879 209.493C312.574 209.201 312.163 209.056 311.648 209.056ZM309.222 213V205.891H310.117V208.304H311.662C312.446 208.304 313.07 208.516 313.535 208.939C314.005 209.359 314.239 209.928 314.239 210.648C314.239 211.368 314.005 211.94 313.535 212.364C313.07 212.788 312.446 213 311.662 213H309.222ZM323.037 205.891V206.643H320.617V213H319.722V206.643H317.302V205.891H323.037ZM326.318 209.575H327.911V206.643H326.318C325.799 206.643 325.386 206.777 325.081 207.046C324.776 207.315 324.623 207.682 324.623 208.146C324.623 208.57 324.778 208.914 325.088 209.179C325.398 209.443 325.808 209.575 326.318 209.575ZM327.911 213V210.327H326.421L324.473 213H323.427L325.498 210.177C324.947 210.063 324.514 209.828 324.199 209.473C323.885 209.117 323.728 208.68 323.728 208.16C323.728 207.463 323.96 206.911 324.425 206.506C324.894 206.096 325.523 205.891 326.312 205.891H328.807V213H327.911ZM336.005 209.268L339.45 213H338.268L335.109 209.534H335.068V213H334.173V209.534H334.139L330.98 213H329.818L333.243 209.281L329.928 205.891H331.062L334.139 209.083H334.173V205.891H335.068V209.083H335.109L338.186 205.891H339.307L336.005 209.268ZM342.314 209.274L346.047 213H344.857L341.398 209.534H341.357V213H340.462V205.891H341.357V209.083H341.398L344.769 205.891H345.91L342.314 209.274ZM349.157 212.337C349.782 212.337 350.308 212.143 350.736 211.756C351.165 211.368 351.379 210.892 351.379 210.327V209.541L349.273 209.685C348.713 209.721 348.282 209.858 347.981 210.095C347.681 210.327 347.53 210.639 347.53 211.031C347.53 211.419 347.681 211.733 347.981 211.975C348.282 212.216 348.674 212.337 349.157 212.337ZM348.973 213.116C348.271 213.116 347.701 212.925 347.264 212.542C346.831 212.155 346.614 211.651 346.614 211.031C346.614 210.421 346.833 209.938 347.271 209.582C347.713 209.227 348.344 209.021 349.164 208.967L351.379 208.83V208.215C351.379 207.7 351.224 207.299 350.914 207.012C350.604 206.72 350.174 206.574 349.622 206.574C349.103 206.574 348.679 206.695 348.351 206.937C348.027 207.178 347.826 207.515 347.749 207.948H346.874C346.924 207.301 347.198 206.777 347.694 206.376C348.196 205.975 348.845 205.774 349.643 205.774C350.454 205.774 351.096 205.986 351.57 206.41C352.044 206.834 352.281 207.408 352.281 208.133V213H351.42V211.646H351.399C351.203 212.089 350.882 212.444 350.436 212.713C349.989 212.982 349.501 213.116 348.973 213.116ZM360.519 213H356.95V203.136H360.498C361.346 203.136 362.032 203.359 362.556 203.806C363.08 204.252 363.342 204.84 363.342 205.569C363.342 206.116 363.171 206.599 362.829 207.019C362.492 207.438 362.061 207.695 361.537 207.791V207.839C362.23 207.921 362.788 208.183 363.212 208.625C363.64 209.062 363.854 209.618 363.854 210.293C363.854 211.136 363.558 211.799 362.966 212.282C362.373 212.761 361.558 213 360.519 213ZM357.88 203.963V207.518H360.026C360.774 207.518 361.355 207.356 361.77 207.032C362.189 206.709 362.398 206.255 362.398 205.672C362.398 205.134 362.212 204.715 361.838 204.414C361.469 204.113 360.956 203.963 360.3 203.963H357.88ZM357.88 212.173H360.389C361.191 212.173 361.808 212.007 362.241 211.674C362.679 211.337 362.897 210.86 362.897 210.245C362.897 209.63 362.67 209.156 362.214 208.823C361.763 208.491 361.113 208.324 360.266 208.324H357.88V212.173ZM369.569 209.438H365.085V208.591H369.569V209.438ZM374.45 213.157C373.42 213.157 372.577 212.891 371.921 212.357C371.265 211.824 370.937 211.145 370.937 210.32C370.937 209.701 371.139 209.158 371.545 208.693C371.951 208.229 372.481 207.925 373.138 207.784V207.764C372.577 207.609 372.133 207.335 371.805 206.943C371.477 206.547 371.312 206.084 371.312 205.556C371.312 204.808 371.609 204.193 372.201 203.71C372.794 203.222 373.543 202.979 374.45 202.979C375.362 202.979 376.111 203.222 376.699 203.71C377.287 204.193 377.581 204.808 377.581 205.556C377.581 206.075 377.417 206.533 377.089 206.93C376.761 207.326 376.319 207.604 375.763 207.764V207.784C376.419 207.925 376.95 208.229 377.355 208.693C377.761 209.158 377.964 209.701 377.964 210.32C377.964 211.15 377.636 211.831 376.979 212.364C376.328 212.893 375.485 213.157 374.45 213.157ZM372.598 211.756C373.076 212.143 373.694 212.337 374.45 212.337C375.207 212.337 375.822 212.143 376.296 211.756C376.774 211.364 377.014 210.867 377.014 210.266C377.014 209.673 376.774 209.188 376.296 208.81C375.822 208.431 375.207 208.242 374.45 208.242C373.698 208.242 373.083 208.431 372.604 208.81C372.126 209.188 371.887 209.673 371.887 210.266C371.887 210.867 372.124 211.364 372.598 211.756ZM374.45 207.408C375.093 207.408 375.619 207.242 376.029 206.909C376.444 206.576 376.651 206.15 376.651 205.631C376.651 205.098 376.446 204.658 376.036 204.312C375.631 203.965 375.102 203.792 374.45 203.792C373.799 203.792 373.268 203.965 372.857 204.312C372.447 204.658 372.242 205.098 372.242 205.631C372.242 206.15 372.447 206.576 372.857 206.909C373.272 207.242 373.803 207.408 374.45 207.408Z" fill="#FF9500"/>
<path d="M904.56 43H900.991V33.1357H904.539C905.387 33.1357 906.073 33.359 906.597 33.8057C907.121 34.2523 907.383 34.8402 907.383 35.5693C907.383 36.1162 907.212 36.5993 906.87 37.0186C906.533 37.4378 906.102 37.6953 905.578 37.791V37.8389C906.271 37.9209 906.829 38.1829 907.253 38.625C907.681 39.0625 907.896 39.6185 907.896 40.293C907.896 41.1361 907.599 41.7992 907.007 42.2822C906.414 42.7607 905.599 43 904.56 43ZM901.921 33.9629V37.5176H904.067C904.815 37.5176 905.396 37.3558 905.811 37.0322C906.23 36.7087 906.439 36.2552 906.439 35.6719C906.439 35.1341 906.253 34.7148 905.879 34.4141C905.51 34.1133 904.997 33.9629 904.341 33.9629H901.921ZM901.921 42.1729H904.43C905.232 42.1729 905.849 42.0065 906.282 41.6738C906.72 41.3366 906.938 40.8604 906.938 40.2451C906.938 39.6299 906.711 39.1559 906.255 38.8232C905.804 38.4906 905.154 38.3242 904.307 38.3242H901.921V42.1729ZM915.292 43V35.8906H916.188V43H915.292ZM911.648 39.0557H910.117V42.248H911.648C912.163 42.248 912.574 42.1022 912.879 41.8105C913.189 41.5189 913.344 41.1315 913.344 40.6484C913.344 40.1654 913.189 39.7803 912.879 39.4932C912.574 39.2015 912.163 39.0557 911.648 39.0557ZM909.222 43V35.8906H910.117V38.3037H911.662C912.446 38.3037 913.07 38.5156 913.535 38.9395C914.005 39.3587 914.239 39.9284 914.239 40.6484C914.239 41.3685 914.005 41.9404 913.535 42.3643C913.07 42.7881 912.446 43 911.662 43H909.222ZM923.037 35.8906V36.6426H920.617V43H919.722V36.6426H917.302V35.8906H923.037ZM926.318 39.5752H927.911V36.6426H926.318C925.799 36.6426 925.386 36.777 925.081 37.0459C924.776 37.3148 924.623 37.6816 924.623 38.1465C924.623 38.5703 924.778 38.9144 925.088 39.1787C925.398 39.443 925.808 39.5752 926.318 39.5752ZM927.911 43V40.3271H926.421L924.473 43H923.427L925.498 40.1768C924.947 40.0628 924.514 39.8281 924.199 39.4727C923.885 39.1172 923.728 38.6797 923.728 38.1602C923.728 37.4629 923.96 36.9115 924.425 36.5059C924.894 36.0957 925.523 35.8906 926.312 35.8906H928.807V43H927.911ZM936.005 39.2676L939.45 43H938.268L935.109 39.5342H935.068V43H934.173V39.5342H934.139L930.98 43H929.818L933.243 39.2812L929.928 35.8906H931.062L934.139 39.083H934.173V35.8906H935.068V39.083H935.109L938.186 35.8906H939.307L936.005 39.2676ZM942.314 39.2744L946.047 43H944.857L941.398 39.5342H941.357V43H940.462V35.8906H941.357V39.083H941.398L944.769 35.8906H945.91L942.314 39.2744ZM949.157 42.3369C949.782 42.3369 950.308 42.1432 950.736 41.7559C951.165 41.3685 951.379 40.8923 951.379 40.3271V39.541L949.273 39.6846C948.713 39.721 948.282 39.8577 947.981 40.0947C947.681 40.3271 947.53 40.6393 947.53 41.0312C947.53 41.4186 947.681 41.7331 947.981 41.9746C948.282 42.2161 948.674 42.3369 949.157 42.3369ZM948.973 43.1162C948.271 43.1162 947.701 42.9248 947.264 42.542C946.831 42.1546 946.614 41.651 946.614 41.0312C946.614 40.4206 946.833 39.9375 947.271 39.582C947.713 39.2266 948.344 39.0215 949.164 38.9668L951.379 38.8301V38.2148C951.379 37.6999 951.224 37.2988 950.914 37.0117C950.604 36.7201 950.174 36.5742 949.622 36.5742C949.103 36.5742 948.679 36.695 948.351 36.9365C948.027 37.1781 947.826 37.5153 947.749 37.9482H946.874C946.924 37.3011 947.198 36.777 947.694 36.376C948.196 35.9749 948.845 35.7744 949.643 35.7744C950.454 35.7744 951.096 35.9863 951.57 36.4102C952.044 36.834 952.281 37.4082 952.281 38.1328V43H951.42V41.6465H951.399C951.203 42.0885 950.882 42.444 950.436 42.7129C949.989 42.9818 949.501 43.1162 948.973 43.1162ZM960.519 43H956.95V33.1357H960.498C961.346 33.1357 962.032 33.359 962.556 33.8057C963.08 34.2523 963.342 34.8402 963.342 35.5693C963.342 36.1162 963.171 36.5993 962.829 37.0186C962.492 37.4378 962.061 37.6953 961.537 37.791V37.8389C962.23 37.9209 962.788 38.1829 963.212 38.625C963.64 39.0625 963.854 39.6185 963.854 40.293C963.854 41.1361 963.558 41.7992 962.966 42.2822C962.373 42.7607 961.558 43 960.519 43ZM957.88 33.9629V37.5176H960.026C960.774 37.5176 961.355 37.3558 961.77 37.0322C962.189 36.7087 962.398 36.2552 962.398 35.6719C962.398 35.1341 962.212 34.7148 961.838 34.4141C961.469 34.1133 960.956 33.9629 960.3 33.9629H957.88ZM957.88 42.1729H960.389C961.191 42.1729 961.808 42.0065 962.241 41.6738C962.679 41.3366 962.897 40.8604 962.897 40.2451C962.897 39.6299 962.67 39.1559 962.214 38.8232C961.763 38.4906 961.113 38.3242 960.266 38.3242H957.88V42.1729ZM969.569 39.4385H965.085V38.5908H969.569V39.4385ZM971.771 43L976.344 33.9971V33.9697H970.854V33.1357H977.28V34.0107L972.762 43H971.771Z" fill="#FF9500"/>
<path d="M604.56 43H600.991V33.1357H604.539C605.387 33.1357 606.073 33.359 606.597 33.8057C607.121 34.2523 607.383 34.8402 607.383 35.5693C607.383 36.1162 607.212 36.5993 606.87 37.0186C606.533 37.4378 606.102 37.6953 605.578 37.791V37.8389C606.271 37.9209 606.829 38.1829 607.253 38.625C607.681 39.0625 607.896 39.6185 607.896 40.293C607.896 41.1361 607.599 41.7992 607.007 42.2822C606.414 42.7607 605.599 43 604.56 43ZM601.921 33.9629V37.5176H604.067C604.815 37.5176 605.396 37.3558 605.811 37.0322C606.23 36.7087 606.439 36.2552 606.439 35.6719C606.439 35.1341 606.253 34.7148 605.879 34.4141C605.51 34.1133 604.997 33.9629 604.341 33.9629H601.921ZM601.921 42.1729H604.43C605.232 42.1729 605.849 42.0065 606.282 41.6738C606.72 41.3366 606.938 40.8604 606.938 40.2451C606.938 39.6299 606.711 39.1559 606.255 38.8232C605.804 38.4906 605.154 38.3242 604.307 38.3242H601.921V42.1729ZM615.292 43V35.8906H616.188V43H615.292ZM611.648 39.0557H610.117V42.248H611.648C612.163 42.248 612.574 42.1022 612.879 41.8105C613.189 41.5189 613.344 41.1315 613.344 40.6484C613.344 40.1654 613.189 39.7803 612.879 39.4932C612.574 39.2015 612.163 39.0557 611.648 39.0557ZM609.222 43V35.8906H610.117V38.3037H611.662C612.446 38.3037 613.07 38.5156 613.535 38.9395C614.005 39.3587 614.239 39.9284 614.239 40.6484C614.239 41.3685 614.005 41.9404 613.535 42.3643C613.07 42.7881 612.446 43 611.662 43H609.222ZM623.037 35.8906V36.6426H620.617V43H619.722V36.6426H617.302V35.8906H623.037ZM626.318 39.5752H627.911V36.6426H626.318C625.799 36.6426 625.386 36.777 625.081 37.0459C624.776 37.3148 624.623 37.6816 624.623 38.1465C624.623 38.5703 624.778 38.9144 625.088 39.1787C625.398 39.443 625.808 39.5752 626.318 39.5752ZM627.911 43V40.3271H626.421L624.473 43H623.427L625.498 40.1768C624.947 40.0628 624.514 39.8281 624.199 39.4727C623.885 39.1172 623.728 38.6797 623.728 38.1602C623.728 37.4629 623.96 36.9115 624.425 36.5059C624.894 36.0957 625.523 35.8906 626.312 35.8906H628.807V43H627.911ZM636.005 39.2676L639.45 43H638.268L635.109 39.5342H635.068V43H634.173V39.5342H634.139L630.98 43H629.818L633.243 39.2812L629.928 35.8906H631.062L634.139 39.083H634.173V35.8906H635.068V39.083H635.109L638.186 35.8906H639.307L636.005 39.2676ZM642.314 39.2744L646.047 43H644.857L641.398 39.5342H641.357V43H640.462V35.8906H641.357V39.083H641.398L644.769 35.8906H645.91L642.314 39.2744ZM649.157 42.3369C649.782 42.3369 650.308 42.1432 650.736 41.7559C651.165 41.3685 651.379 40.8923 651.379 40.3271V39.541L649.273 39.6846C648.713 39.721 648.282 39.8577 647.981 40.0947C647.681 40.3271 647.53 40.6393 647.53 41.0312C647.53 41.4186 647.681 41.7331 647.981 41.9746C648.282 42.2161 648.674 42.3369 649.157 42.3369ZM648.973 43.1162C648.271 43.1162 647.701 42.9248 647.264 42.542C646.831 42.1546 646.614 41.651 646.614 41.0312C646.614 40.4206 646.833 39.9375 647.271 39.582C647.713 39.2266 648.344 39.0215 649.164 38.9668L651.379 38.8301V38.2148C651.379 37.6999 651.224 37.2988 650.914 37.0117C650.604 36.7201 650.174 36.5742 649.622 36.5742C649.103 36.5742 648.679 36.695 648.351 36.9365C648.027 37.1781 647.826 37.5153 647.749 37.9482H646.874C646.924 37.3011 647.198 36.777 647.694 36.376C648.196 35.9749 648.845 35.7744 649.643 35.7744C650.454 35.7744 651.096 35.9863 651.57 36.4102C652.044 36.834 652.281 37.4082 652.281 38.1328V43H651.42V41.6465H651.399C651.203 42.0885 650.882 42.444 650.436 42.7129C649.989 42.9818 649.501 43.1162 648.973 43.1162ZM660.519 43H656.95V33.1357H660.498C661.346 33.1357 662.032 33.359 662.556 33.8057C663.08 34.2523 663.342 34.8402 663.342 35.5693C663.342 36.1162 663.171 36.5993 662.829 37.0186C662.492 37.4378 662.061 37.6953 661.537 37.791V37.8389C662.23 37.9209 662.788 38.1829 663.212 38.625C663.64 39.0625 663.854 39.6185 663.854 40.293C663.854 41.1361 663.558 41.7992 662.966 42.2822C662.373 42.7607 661.558 43 660.519 43ZM657.88 33.9629V37.5176H660.026C660.774 37.5176 661.355 37.3558 661.77 37.0322C662.189 36.7087 662.398 36.2552 662.398 35.6719C662.398 35.1341 662.212 34.7148 661.838 34.4141C661.469 34.1133 660.956 33.9629 660.3 33.9629H657.88ZM657.88 42.1729H660.389C661.191 42.1729 661.808 42.0065 662.241 41.6738C662.679 41.3366 662.897 40.8604 662.897 40.2451C662.897 39.6299 662.67 39.1559 662.214 38.8232C661.763 38.4906 661.113 38.3242 660.266 38.3242H657.88V42.1729ZM669.569 39.4385H665.085V38.5908H669.569V39.4385ZM674.614 43.1572C673.953 43.1572 673.361 42.9954 672.837 42.6719C672.317 42.3483 671.905 41.888 671.6 41.291C671.158 40.5208 670.937 39.516 670.937 38.2764C670.937 36.6221 671.267 35.3255 671.928 34.3867C672.593 33.4479 673.511 32.9785 674.683 32.9785C675.503 32.9785 676.202 33.2064 676.781 33.6621C677.36 34.1178 677.72 34.724 677.861 35.4805H676.918C676.795 34.9792 676.528 34.5758 676.118 34.2705C675.708 33.9606 675.227 33.8057 674.676 33.8057C673.773 33.8057 673.074 34.209 672.577 35.0156C672.085 35.8177 671.839 36.9502 671.839 38.4131H671.859C672.06 37.8571 672.427 37.4059 672.96 37.0596C673.498 36.7132 674.099 36.54 674.765 36.54C675.703 36.54 676.483 36.8499 677.103 37.4697C677.727 38.0895 678.039 38.8665 678.039 39.8008C678.039 40.7669 677.715 41.569 677.068 42.207C676.421 42.8405 675.603 43.1572 674.614 43.1572ZM674.607 42.3232C675.3 42.3232 675.886 42.0817 676.364 41.5986C676.847 41.1156 677.089 40.5254 677.089 39.8281C677.089 39.1217 676.854 38.5361 676.385 38.0713C675.92 37.6019 675.33 37.3672 674.614 37.3672C673.912 37.3672 673.318 37.5996 672.83 38.0645C672.347 38.5247 672.105 39.0898 672.105 39.7598C672.105 40.4798 672.345 41.0882 672.823 41.585C673.306 42.0771 673.901 42.3232 674.607 42.3232Z" fill="#FF9500"/>
<path d="M744.56 399H740.991V389.136H744.539C745.387 389.136 746.073 389.359 746.597 389.806C747.121 390.252 747.383 390.84 747.383 391.569C747.383 392.116 747.212 392.599 746.87 393.019C746.533 393.438 746.102 393.695 745.578 393.791V393.839C746.271 393.921 746.829 394.183 747.253 394.625C747.681 395.062 747.896 395.618 747.896 396.293C747.896 397.136 747.599 397.799 747.007 398.282C746.414 398.761 745.599 399 744.56 399ZM741.921 389.963V393.518H744.067C744.815 393.518 745.396 393.356 745.811 393.032C746.23 392.709 746.439 392.255 746.439 391.672C746.439 391.134 746.253 390.715 745.879 390.414C745.51 390.113 744.997 389.963 744.341 389.963H741.921ZM741.921 398.173H744.43C745.232 398.173 745.849 398.007 746.282 397.674C746.72 397.337 746.938 396.86 746.938 396.245C746.938 395.63 746.711 395.156 746.255 394.823C745.804 394.491 745.154 394.324 744.307 394.324H741.921V398.173ZM755.292 399V391.891H756.188V399H755.292ZM751.648 395.056H750.117V398.248H751.648C752.163 398.248 752.574 398.102 752.879 397.811C753.189 397.519 753.344 397.132 753.344 396.648C753.344 396.165 753.189 395.78 752.879 395.493C752.574 395.201 752.163 395.056 751.648 395.056ZM749.222 399V391.891H750.117V394.304H751.662C752.446 394.304 753.07 394.516 753.535 394.939C754.005 395.359 754.239 395.928 754.239 396.648C754.239 397.368 754.005 397.94 753.535 398.364C753.07 398.788 752.446 399 751.662 399H749.222ZM763.037 391.891V392.643H760.617V399H759.722V392.643H757.302V391.891H763.037ZM766.318 395.575H767.911V392.643H766.318C765.799 392.643 765.386 392.777 765.081 393.046C764.776 393.315 764.623 393.682 764.623 394.146C764.623 394.57 764.778 394.914 765.088 395.179C765.398 395.443 765.808 395.575 766.318 395.575ZM767.911 399V396.327H766.421L764.473 399H763.427L765.498 396.177C764.947 396.063 764.514 395.828 764.199 395.473C763.885 395.117 763.728 394.68 763.728 394.16C763.728 393.463 763.96 392.911 764.425 392.506C764.894 392.096 765.523 391.891 766.312 391.891H768.807V399H767.911ZM776.005 395.268L779.45 399H778.268L775.109 395.534H775.068V399H774.173V395.534H774.139L770.98 399H769.818L773.243 395.281L769.928 391.891H771.062L774.139 395.083H774.173V391.891H775.068V395.083H775.109L778.186 391.891H779.307L776.005 395.268ZM782.314 395.274L786.047 399H784.857L781.398 395.534H781.357V399H780.462V391.891H781.357V395.083H781.398L784.769 391.891H785.91L782.314 395.274ZM789.157 398.337C789.782 398.337 790.308 398.143 790.736 397.756C791.165 397.368 791.379 396.892 791.379 396.327V395.541L789.273 395.685C788.713 395.721 788.282 395.858 787.981 396.095C787.681 396.327 787.53 396.639 787.53 397.031C787.53 397.419 787.681 397.733 787.981 397.975C788.282 398.216 788.674 398.337 789.157 398.337ZM788.973 399.116C788.271 399.116 787.701 398.925 787.264 398.542C786.831 398.155 786.614 397.651 786.614 397.031C786.614 396.421 786.833 395.938 787.271 395.582C787.713 395.227 788.344 395.021 789.164 394.967L791.379 394.83V394.215C791.379 393.7 791.224 393.299 790.914 393.012C790.604 392.72 790.174 392.574 789.622 392.574C789.103 392.574 788.679 392.695 788.351 392.937C788.027 393.178 787.826 393.515 787.749 393.948H786.874C786.924 393.301 787.198 392.777 787.694 392.376C788.196 391.975 788.845 391.774 789.643 391.774C790.454 391.774 791.096 391.986 791.57 392.41C792.044 392.834 792.281 393.408 792.281 394.133V399H791.42V397.646H791.399C791.203 398.089 790.882 398.444 790.436 398.713C789.989 398.982 789.501 399.116 788.973 399.116ZM800.519 399H796.95V389.136H800.498C801.346 389.136 802.032 389.359 802.556 389.806C803.08 390.252 803.342 390.84 803.342 391.569C803.342 392.116 803.171 392.599 802.829 393.019C802.492 393.438 802.061 393.695 801.537 393.791V393.839C802.23 393.921 802.788 394.183 803.212 394.625C803.64 395.062 803.854 395.618 803.854 396.293C803.854 397.136 803.558 397.799 802.966 398.282C802.373 398.761 801.558 399 800.519 399ZM797.88 389.963V393.518H800.026C800.774 393.518 801.355 393.356 801.77 393.032C802.189 392.709 802.398 392.255 802.398 391.672C802.398 391.134 802.212 390.715 801.838 390.414C801.469 390.113 800.956 389.963 800.3 389.963H797.88ZM797.88 398.173H800.389C801.191 398.173 801.808 398.007 802.241 397.674C802.679 397.337 802.897 396.86 802.897 396.245C802.897 395.63 802.67 395.156 802.214 394.823C801.763 394.491 801.113 394.324 800.266 394.324H797.88V398.173ZM809.569 395.438H805.085V394.591H809.569V395.438ZM811.101 391.897C811.105 391.059 811.406 390.364 812.003 389.812C812.604 389.257 813.356 388.979 814.259 388.979C815.12 388.979 815.847 389.238 816.439 389.758C817.032 390.277 817.328 390.915 817.328 391.672C817.328 392.21 817.178 392.731 816.877 393.237C816.581 393.739 816.022 394.415 815.202 395.268L812.454 398.139V398.166H817.581V399H811.148V398.344L814.635 394.659C815.341 393.916 815.811 393.349 816.043 392.957C816.28 392.565 816.398 392.155 816.398 391.727C816.398 391.189 816.189 390.733 815.77 390.359C815.35 389.986 814.838 389.799 814.231 389.799C813.598 389.799 813.069 389.999 812.646 390.4C812.226 390.797 812.012 391.296 812.003 391.897V391.904H811.101V391.897Z" fill="#FF9500"/>
<path d="M434.56 399H430.991V389.136H434.539C435.387 389.136 436.073 389.359 436.597 389.806C437.121 390.252 437.383 390.84 437.383 391.569C437.383 392.116 437.212 392.599 436.87 393.019C436.533 393.438 436.102 393.695 435.578 393.791V393.839C436.271 393.921 436.829 394.183 437.253 394.625C437.681 395.062 437.896 395.618 437.896 396.293C437.896 397.136 437.599 397.799 437.007 398.282C436.414 398.761 435.599 399 434.56 399ZM431.921 389.963V393.518H434.067C434.815 393.518 435.396 393.356 435.811 393.032C436.23 392.709 436.439 392.255 436.439 391.672C436.439 391.134 436.253 390.715 435.879 390.414C435.51 390.113 434.997 389.963 434.341 389.963H431.921ZM431.921 398.173H434.43C435.232 398.173 435.849 398.007 436.282 397.674C436.72 397.337 436.938 396.86 436.938 396.245C436.938 395.63 436.711 395.156 436.255 394.823C435.804 394.491 435.154 394.324 434.307 394.324H431.921V398.173ZM445.292 399V391.891H446.188V399H445.292ZM441.648 395.056H440.117V398.248H441.648C442.163 398.248 442.574 398.102 442.879 397.811C443.189 397.519 443.344 397.132 443.344 396.648C443.344 396.165 443.189 395.78 442.879 395.493C442.574 395.201 442.163 395.056 441.648 395.056ZM439.222 399V391.891H440.117V394.304H441.662C442.446 394.304 443.07 394.516 443.535 394.939C444.005 395.359 444.239 395.928 444.239 396.648C444.239 397.368 444.005 397.94 443.535 398.364C443.07 398.788 442.446 399 441.662 399H439.222ZM453.037 391.891V392.643H450.617V399H449.722V392.643H447.302V391.891H453.037ZM456.318 395.575H457.911V392.643H456.318C455.799 392.643 455.386 392.777 455.081 393.046C454.776 393.315 454.623 393.682 454.623 394.146C454.623 394.57 454.778 394.914 455.088 395.179C455.398 395.443 455.808 395.575 456.318 395.575ZM457.911 399V396.327H456.421L454.473 399H453.427L455.498 396.177C454.947 396.063 454.514 395.828 454.199 395.473C453.885 395.117 453.728 394.68 453.728 394.16C453.728 393.463 453.96 392.911 454.425 392.506C454.894 392.096 455.523 391.891 456.312 391.891H458.807V399H457.911ZM466.005 395.268L469.45 399H468.268L465.109 395.534H465.068V399H464.173V395.534H464.139L460.98 399H459.818L463.243 395.281L459.928 391.891H461.062L464.139 395.083H464.173V391.891H465.068V395.083H465.109L468.186 391.891H469.307L466.005 395.268ZM472.314 395.274L476.047 399H474.857L471.398 395.534H471.357V399H470.462V391.891H471.357V395.083H471.398L474.769 391.891H475.91L472.314 395.274ZM479.157 398.337C479.782 398.337 480.308 398.143 480.736 397.756C481.165 397.368 481.379 396.892 481.379 396.327V395.541L479.273 395.685C478.713 395.721 478.282 395.858 477.981 396.095C477.681 396.327 477.53 396.639 477.53 397.031C477.53 397.419 477.681 397.733 477.981 397.975C478.282 398.216 478.674 398.337 479.157 398.337ZM478.973 399.116C478.271 399.116 477.701 398.925 477.264 398.542C476.831 398.155 476.614 397.651 476.614 397.031C476.614 396.421 476.833 395.938 477.271 395.582C477.713 395.227 478.344 395.021 479.164 394.967L481.379 394.83V394.215C481.379 393.7 481.224 393.299 480.914 393.012C480.604 392.72 480.174 392.574 479.622 392.574C479.103 392.574 478.679 392.695 478.351 392.937C478.027 393.178 477.826 393.515 477.749 393.948H476.874C476.924 393.301 477.198 392.777 477.694 392.376C478.196 391.975 478.845 391.774 479.643 391.774C480.454 391.774 481.096 391.986 481.57 392.41C482.044 392.834 482.281 393.408 482.281 394.133V399H481.42V397.646H481.399C481.203 398.089 480.882 398.444 480.436 398.713C479.989 398.982 479.501 399.116 478.973 399.116ZM490.519 399H486.95V389.136H490.498C491.346 389.136 492.032 389.359 492.556 389.806C493.08 390.252 493.342 390.84 493.342 391.569C493.342 392.116 493.171 392.599 492.829 393.019C492.492 393.438 492.061 393.695 491.537 393.791V393.839C492.23 393.921 492.788 394.183 493.212 394.625C493.64 395.062 493.854 395.618 493.854 396.293C493.854 397.136 493.558 397.799 492.966 398.282C492.373 398.761 491.558 399 490.519 399ZM487.88 389.963V393.518H490.026C490.774 393.518 491.355 393.356 491.77 393.032C492.189 392.709 492.398 392.255 492.398 391.672C492.398 391.134 492.212 390.715 491.838 390.414C491.469 390.113 490.956 389.963 490.3 389.963H487.88ZM487.88 398.173H490.389C491.191 398.173 491.808 398.007 492.241 397.674C492.679 397.337 492.897 396.86 492.897 396.245C492.897 395.63 492.67 395.156 492.214 394.823C491.763 394.491 491.113 394.324 490.266 394.324H487.88V398.173ZM499.569 395.438H495.085V394.591H499.569V395.438ZM503.042 394.304V393.511H504.19C504.833 393.511 505.357 393.333 505.763 392.978C506.168 392.622 506.371 392.169 506.371 391.617C506.371 391.075 506.177 390.637 505.79 390.305C505.407 389.967 504.888 389.799 504.231 389.799C503.621 389.799 503.115 389.967 502.714 390.305C502.313 390.642 502.087 391.084 502.037 391.631H501.135C501.194 390.838 501.508 390.198 502.078 389.71C502.652 389.222 503.384 388.979 504.272 388.979C505.143 388.979 505.868 389.218 506.446 389.696C507.025 390.17 507.314 390.772 507.314 391.501C507.314 392.116 507.13 392.633 506.761 393.053C506.392 393.472 505.89 393.739 505.257 393.853V393.88C506.013 393.925 506.615 394.167 507.062 394.604C507.513 395.037 507.738 395.603 507.738 396.3C507.738 396.847 507.588 397.339 507.287 397.776C506.986 398.214 506.576 398.553 506.057 398.795C505.537 399.036 504.961 399.157 504.327 399.157C503.343 399.157 502.538 398.904 501.914 398.398C501.29 397.893 500.962 397.241 500.93 396.443H501.832C501.868 396.999 502.115 397.455 502.57 397.811C503.031 398.161 503.614 398.337 504.32 398.337C505.036 398.337 505.626 398.148 506.091 397.77C506.556 397.391 506.788 396.91 506.788 396.327C506.788 395.698 506.56 395.204 506.104 394.844C505.649 394.484 505.024 394.304 504.231 394.304H503.042Z" fill="#FF9500"/>
<path d="M1054.56 399H1050.99V389.136H1054.54C1055.39 389.136 1056.07 389.359 1056.6 389.806C1057.12 390.252 1057.38 390.84 1057.38 391.569C1057.38 392.116 1057.21 392.599 1056.87 393.019C1056.53 393.438 1056.1 393.695 1055.58 393.791V393.839C1056.27 393.921 1056.83 394.183 1057.25 394.625C1057.68 395.062 1057.9 395.618 1057.9 396.293C1057.9 397.136 1057.6 397.799 1057.01 398.282C1056.41 398.761 1055.6 399 1054.56 399ZM1051.92 389.963V393.518H1054.07C1054.81 393.518 1055.4 393.356 1055.81 393.032C1056.23 392.709 1056.44 392.255 1056.44 391.672C1056.44 391.134 1056.25 390.715 1055.88 390.414C1055.51 390.113 1055 389.963 1054.34 389.963H1051.92ZM1051.92 398.173H1054.43C1055.23 398.173 1055.85 398.007 1056.28 397.674C1056.72 397.337 1056.94 396.86 1056.94 396.245C1056.94 395.63 1056.71 395.156 1056.25 394.823C1055.8 394.491 1055.15 394.324 1054.31 394.324H1051.92V398.173ZM1065.29 399V391.891H1066.19V399H1065.29ZM1061.65 395.056H1060.12V398.248H1061.65C1062.16 398.248 1062.57 398.102 1062.88 397.811C1063.19 397.519 1063.34 397.132 1063.34 396.648C1063.34 396.165 1063.19 395.78 1062.88 395.493C1062.57 395.201 1062.16 395.056 1061.65 395.056ZM1059.22 399V391.891H1060.12V394.304H1061.66C1062.45 394.304 1063.07 394.516 1063.54 394.939C1064 395.359 1064.24 395.928 1064.24 396.648C1064.24 397.368 1064 397.94 1063.54 398.364C1063.07 398.788 1062.45 399 1061.66 399H1059.22ZM1073.04 391.891V392.643H1070.62V399H1069.72V392.643H1067.3V391.891H1073.04ZM1076.32 395.575H1077.91V392.643H1076.32C1075.8 392.643 1075.39 392.777 1075.08 393.046C1074.78 393.315 1074.62 393.682 1074.62 394.146C1074.62 394.57 1074.78 394.914 1075.09 395.179C1075.4 395.443 1075.81 395.575 1076.32 395.575ZM1077.91 399V396.327H1076.42L1074.47 399H1073.43L1075.5 396.177C1074.95 396.063 1074.51 395.828 1074.2 395.473C1073.88 395.117 1073.73 394.68 1073.73 394.16C1073.73 393.463 1073.96 392.911 1074.42 392.506C1074.89 392.096 1075.52 391.891 1076.31 391.891H1078.81V399H1077.91ZM1086 395.268L1089.45 399H1088.27L1085.11 395.534H1085.07V399H1084.17V395.534H1084.14L1080.98 399H1079.82L1083.24 395.281L1079.93 391.891H1081.06L1084.14 395.083H1084.17V391.891H1085.07V395.083H1085.11L1088.19 391.891H1089.31L1086 395.268ZM1092.31 395.274L1096.05 399H1094.86L1091.4 395.534H1091.36V399H1090.46V391.891H1091.36V395.083H1091.4L1094.77 391.891H1095.91L1092.31 395.274ZM1099.16 398.337C1099.78 398.337 1100.31 398.143 1100.74 397.756C1101.16 397.368 1101.38 396.892 1101.38 396.327V395.541L1099.27 395.685C1098.71 395.721 1098.28 395.858 1097.98 396.095C1097.68 396.327 1097.53 396.639 1097.53 397.031C1097.53 397.419 1097.68 397.733 1097.98 397.975C1098.28 398.216 1098.67 398.337 1099.16 398.337ZM1098.97 399.116C1098.27 399.116 1097.7 398.925 1097.26 398.542C1096.83 398.155 1096.61 397.651 1096.61 397.031C1096.61 396.421 1096.83 395.938 1097.27 395.582C1097.71 395.227 1098.34 395.021 1099.16 394.967L1101.38 394.83V394.215C1101.38 393.7 1101.22 393.299 1100.91 393.012C1100.6 392.72 1100.17 392.574 1099.62 392.574C1099.1 392.574 1098.68 392.695 1098.35 392.937C1098.03 393.178 1097.83 393.515 1097.75 393.948H1096.87C1096.92 393.301 1097.2 392.777 1097.69 392.376C1098.2 391.975 1098.85 391.774 1099.64 391.774C1100.45 391.774 1101.1 391.986 1101.57 392.41C1102.04 392.834 1102.28 393.408 1102.28 394.133V399H1101.42V397.646H1101.4C1101.2 398.089 1100.88 398.444 1100.44 398.713C1099.99 398.982 1099.5 399.116 1098.97 399.116ZM1110.52 399H1106.95V389.136H1110.5C1111.35 389.136 1112.03 389.359 1112.56 389.806C1113.08 390.252 1113.34 390.84 1113.34 391.569C1113.34 392.116 1113.17 392.599 1112.83 393.019C1112.49 393.438 1112.06 393.695 1111.54 393.791V393.839C1112.23 393.921 1112.79 394.183 1113.21 394.625C1113.64 395.062 1113.85 395.618 1113.85 396.293C1113.85 397.136 1113.56 397.799 1112.97 398.282C1112.37 398.761 1111.56 399 1110.52 399ZM1107.88 389.963V393.518H1110.03C1110.77 393.518 1111.35 393.356 1111.77 393.032C1112.19 392.709 1112.4 392.255 1112.4 391.672C1112.4 391.134 1112.21 390.715 1111.84 390.414C1111.47 390.113 1110.96 389.963 1110.3 389.963H1107.88ZM1107.88 398.173H1110.39C1111.19 398.173 1111.81 398.007 1112.24 397.674C1112.68 397.337 1112.9 396.86 1112.9 396.245C1112.9 395.63 1112.67 395.156 1112.21 394.823C1111.76 394.491 1111.11 394.324 1110.27 394.324H1107.88V398.173ZM1119.57 395.438H1115.08V394.591H1119.57V395.438ZM1125.83 399V396.771H1120.83V395.917C1121.84 394.217 1123.35 391.952 1125.37 389.122H1126.74V395.944H1128.21V396.771H1126.74V399H1125.83ZM1121.77 395.917V395.944H1125.83V389.942H1125.82C1124.16 392.239 1122.81 394.231 1121.77 395.917Z" fill="#FF9500"/>
</svg>
