<svg width="1280" height="720" viewBox="0 0 1280 720" fill="none" xmlns="http://www.w3.org/2000/svg">
<path d="M161 364H160V365H161V364Z" fill="#C4C4C4"/>
<path d="M99.5596 143H95.9912V133.136H99.5391C100.387 133.136 101.073 133.359 101.597 133.806C102.121 134.252 102.383 134.84 102.383 135.569C102.383 136.116 102.212 136.599 101.87 137.019C101.533 137.438 101.102 137.695 100.578 137.791V137.839C101.271 137.921 101.829 138.183 102.253 138.625C102.681 139.062 102.896 139.618 102.896 140.293C102.896 141.136 102.599 141.799 102.007 142.282C101.414 142.761 100.599 143 99.5596 143ZM96.9209 133.963V137.518H99.0674C99.8148 137.518 100.396 137.356 100.811 137.032C101.23 136.709 101.439 136.255 101.439 135.672C101.439 135.134 101.253 134.715 100.879 134.414C100.51 134.113 99.9971 133.963 99.3408 133.963H96.9209ZM96.9209 142.173H99.4297C100.232 142.173 100.849 142.007 101.282 141.674C101.72 141.337 101.938 140.86 101.938 140.245C101.938 139.63 101.711 139.156 101.255 138.823C100.804 138.491 100.154 138.324 99.3066 138.324H96.9209V142.173ZM110.292 143V135.891H111.188V143H110.292ZM106.648 139.056H105.117V142.248H106.648C107.163 142.248 107.574 142.102 107.879 141.811C108.189 141.519 108.344 141.132 108.344 140.648C108.344 140.165 108.189 139.78 107.879 139.493C107.574 139.201 107.163 139.056 106.648 139.056ZM104.222 143V135.891H105.117V138.304H106.662C107.446 138.304 108.07 138.516 108.535 138.939C109.005 139.359 109.239 139.928 109.239 140.648C109.239 141.368 109.005 141.94 108.535 142.364C108.07 142.788 107.446 143 106.662 143H104.222ZM118.037 135.891V136.643H115.617V143H114.722V136.643H112.302V135.891H118.037ZM121.318 139.575H122.911V136.643H121.318C120.799 136.643 120.386 136.777 120.081 137.046C119.776 137.315 119.623 137.682 119.623 138.146C119.623 138.57 119.778 138.914 120.088 139.179C120.398 139.443 120.808 139.575 121.318 139.575ZM122.911 143V140.327H121.421L119.473 143H118.427L120.498 140.177C119.947 140.063 119.514 139.828 119.199 139.473C118.885 139.117 118.728 138.68 118.728 138.16C118.728 137.463 118.96 136.911 119.425 136.506C119.894 136.096 120.523 135.891 121.312 135.891H123.807V143H122.911ZM131.005 139.268L134.45 143H133.268L130.109 139.534H130.068V143H129.173V139.534H129.139L125.98 143H124.818L128.243 139.281L124.928 135.891H126.062L129.139 139.083H129.173V135.891H130.068V139.083H130.109L133.186 135.891H134.307L131.005 139.268ZM137.314 139.274L141.047 143H139.857L136.398 139.534H136.357V143H135.462V135.891H136.357V139.083H136.398L139.769 135.891H140.91L137.314 139.274ZM144.157 142.337C144.782 142.337 145.308 142.143 145.736 141.756C146.165 141.368 146.379 140.892 146.379 140.327V139.541L144.273 139.685C143.713 139.721 143.282 139.858 142.981 140.095C142.681 140.327 142.53 140.639 142.53 141.031C142.53 141.419 142.681 141.733 142.981 141.975C143.282 142.216 143.674 142.337 144.157 142.337ZM143.973 143.116C143.271 143.116 142.701 142.925 142.264 142.542C141.831 142.155 141.614 141.651 141.614 141.031C141.614 140.421 141.833 139.938 142.271 139.582C142.713 139.227 143.344 139.021 144.164 138.967L146.379 138.83V138.215C146.379 137.7 146.224 137.299 145.914 137.012C145.604 136.72 145.174 136.574 144.622 136.574C144.103 136.574 143.679 136.695 143.351 136.937C143.027 137.178 142.826 137.515 142.749 137.948H141.874C141.924 137.301 142.198 136.777 142.694 136.376C143.196 135.975 143.845 135.774 144.643 135.774C145.454 135.774 146.096 135.986 146.57 136.41C147.044 136.834 147.281 137.408 147.281 138.133V143H146.42V141.646H146.399C146.203 142.089 145.882 142.444 145.436 142.713C144.989 142.982 144.501 143.116 143.973 143.116ZM153.317 139.438H148.833V138.591H153.317V139.438ZM158.622 143H155.054V133.136H158.602C159.449 133.136 160.135 133.359 160.659 133.806C161.183 134.252 161.445 134.84 161.445 135.569C161.445 136.116 161.274 136.599 160.933 137.019C160.595 137.438 160.165 137.695 159.641 137.791V137.839C160.333 137.921 160.892 138.183 161.315 138.625C161.744 139.062 161.958 139.618 161.958 140.293C161.958 141.136 161.662 141.799 161.069 142.282C160.477 142.761 159.661 143 158.622 143ZM155.983 133.963V137.518H158.13C158.877 137.518 159.458 137.356 159.873 137.032C160.292 136.709 160.502 136.255 160.502 135.672C160.502 135.134 160.315 134.715 159.941 134.414C159.572 134.113 159.06 133.963 158.403 133.963H155.983ZM155.983 142.173H158.492C159.294 142.173 159.912 142.007 160.345 141.674C160.782 141.337 161.001 140.86 161.001 140.245C161.001 139.63 160.773 139.156 160.317 138.823C159.866 138.491 159.217 138.324 158.369 138.324H155.983V142.173ZM163.899 143L168.473 133.997V133.97H162.983V133.136H169.409V134.011L164.891 143H163.899Z" fill="#FF9500"/>
<path d="M99.5596 275H95.9912V265.136H99.5391C100.387 265.136 101.073 265.359 101.597 265.806C102.121 266.252 102.383 266.84 102.383 267.569C102.383 268.116 102.212 268.599 101.87 269.019C101.533 269.438 101.102 269.695 100.578 269.791V269.839C101.271 269.921 101.829 270.183 102.253 270.625C102.681 271.062 102.896 271.618 102.896 272.293C102.896 273.136 102.599 273.799 102.007 274.282C101.414 274.761 100.599 275 99.5596 275ZM96.9209 265.963V269.518H99.0674C99.8148 269.518 100.396 269.356 100.811 269.032C101.23 268.709 101.439 268.255 101.439 267.672C101.439 267.134 101.253 266.715 100.879 266.414C100.51 266.113 99.9971 265.963 99.3408 265.963H96.9209ZM96.9209 274.173H99.4297C100.232 274.173 100.849 274.007 101.282 273.674C101.72 273.337 101.938 272.86 101.938 272.245C101.938 271.63 101.711 271.156 101.255 270.823C100.804 270.491 100.154 270.324 99.3066 270.324H96.9209V274.173ZM110.292 275V267.891H111.188V275H110.292ZM106.648 271.056H105.117V274.248H106.648C107.163 274.248 107.574 274.102 107.879 273.811C108.189 273.519 108.344 273.132 108.344 272.648C108.344 272.165 108.189 271.78 107.879 271.493C107.574 271.201 107.163 271.056 106.648 271.056ZM104.222 275V267.891H105.117V270.304H106.662C107.446 270.304 108.07 270.516 108.535 270.939C109.005 271.359 109.239 271.928 109.239 272.648C109.239 273.368 109.005 273.94 108.535 274.364C108.07 274.788 107.446 275 106.662 275H104.222ZM118.037 267.891V268.643H115.617V275H114.722V268.643H112.302V267.891H118.037ZM121.318 271.575H122.911V268.643H121.318C120.799 268.643 120.386 268.777 120.081 269.046C119.776 269.315 119.623 269.682 119.623 270.146C119.623 270.57 119.778 270.914 120.088 271.179C120.398 271.443 120.808 271.575 121.318 271.575ZM122.911 275V272.327H121.421L119.473 275H118.427L120.498 272.177C119.947 272.063 119.514 271.828 119.199 271.473C118.885 271.117 118.728 270.68 118.728 270.16C118.728 269.463 118.96 268.911 119.425 268.506C119.894 268.096 120.523 267.891 121.312 267.891H123.807V275H122.911ZM131.005 271.268L134.45 275H133.268L130.109 271.534H130.068V275H129.173V271.534H129.139L125.98 275H124.818L128.243 271.281L124.928 267.891H126.062L129.139 271.083H129.173V267.891H130.068V271.083H130.109L133.186 267.891H134.307L131.005 271.268ZM137.314 271.274L141.047 275H139.857L136.398 271.534H136.357V275H135.462V267.891H136.357V271.083H136.398L139.769 267.891H140.91L137.314 271.274ZM144.157 274.337C144.782 274.337 145.308 274.143 145.736 273.756C146.165 273.368 146.379 272.892 146.379 272.327V271.541L144.273 271.685C143.713 271.721 143.282 271.858 142.981 272.095C142.681 272.327 142.53 272.639 142.53 273.031C142.53 273.419 142.681 273.733 142.981 273.975C143.282 274.216 143.674 274.337 144.157 274.337ZM143.973 275.116C143.271 275.116 142.701 274.925 142.264 274.542C141.831 274.155 141.614 273.651 141.614 273.031C141.614 272.421 141.833 271.938 142.271 271.582C142.713 271.227 143.344 271.021 144.164 270.967L146.379 270.83V270.215C146.379 269.7 146.224 269.299 145.914 269.012C145.604 268.72 145.174 268.574 144.622 268.574C144.103 268.574 143.679 268.695 143.351 268.937C143.027 269.178 142.826 269.515 142.749 269.948H141.874C141.924 269.301 142.198 268.777 142.694 268.376C143.196 267.975 143.845 267.774 144.643 267.774C145.454 267.774 146.096 267.986 146.57 268.41C147.044 268.834 147.281 269.408 147.281 270.133V275H146.42V273.646H146.399C146.203 274.089 145.882 274.444 145.436 274.713C144.989 274.982 144.501 275.116 143.973 275.116ZM156.188 271.438H151.704V270.591H156.188V271.438ZM161.493 275H157.925V265.136H161.473C162.32 265.136 163.006 265.359 163.53 265.806C164.054 266.252 164.316 266.84 164.316 267.569C164.316 268.116 164.146 268.599 163.804 269.019C163.466 269.438 163.036 269.695 162.512 269.791V269.839C163.204 269.921 163.763 270.183 164.187 270.625C164.615 271.062 164.829 271.618 164.829 272.293C164.829 273.136 164.533 273.799 163.94 274.282C163.348 274.761 162.532 275 161.493 275ZM158.854 265.963V269.518H161.001C161.748 269.518 162.329 269.356 162.744 269.032C163.163 268.709 163.373 268.255 163.373 267.672C163.373 267.134 163.186 266.715 162.812 266.414C162.443 266.113 161.931 265.963 161.274 265.963H158.854ZM158.854 274.173H161.363C162.165 274.173 162.783 274.007 163.216 273.674C163.653 273.337 163.872 272.86 163.872 272.245C163.872 271.63 163.644 271.156 163.188 270.823C162.737 270.491 162.088 270.324 161.24 270.324H158.854V274.173ZM168.63 275V266.141H168.603C168.539 266.182 168.108 266.48 167.311 267.036C166.513 267.588 166.062 267.895 165.957 267.959V266.961C166.039 266.911 166.477 266.61 167.27 266.059C168.062 265.507 168.511 265.2 168.616 265.136H169.532V275H168.63ZM173.921 270.304V269.511H175.069C175.712 269.511 176.236 269.333 176.642 268.978C177.047 268.622 177.25 268.169 177.25 267.617C177.25 267.075 177.056 266.637 176.669 266.305C176.286 265.967 175.767 265.799 175.11 265.799C174.5 265.799 173.994 265.967 173.593 266.305C173.192 266.642 172.966 267.084 172.916 267.631H172.014C172.073 266.838 172.387 266.198 172.957 265.71C173.531 265.222 174.263 264.979 175.151 264.979C176.022 264.979 176.746 265.218 177.325 265.696C177.904 266.17 178.193 266.772 178.193 267.501C178.193 268.116 178.009 268.633 177.64 269.053C177.271 269.472 176.769 269.739 176.136 269.853V269.88C176.892 269.925 177.494 270.167 177.94 270.604C178.392 271.037 178.617 271.603 178.617 272.3C178.617 272.847 178.467 273.339 178.166 273.776C177.865 274.214 177.455 274.553 176.936 274.795C176.416 275.036 175.84 275.157 175.206 275.157C174.222 275.157 173.417 274.904 172.793 274.398C172.169 273.893 171.84 273.241 171.809 272.443H172.711C172.747 272.999 172.993 273.455 173.449 273.811C173.91 274.161 174.493 274.337 175.199 274.337C175.915 274.337 176.505 274.148 176.97 273.77C177.435 273.391 177.667 272.91 177.667 272.327C177.667 271.698 177.439 271.204 176.983 270.844C176.528 270.484 175.903 270.304 175.11 270.304H173.921Z" fill="#FF9500"/>
<path d="M303.56 143H299.991V133.136H303.539C304.387 133.136 305.073 133.359 305.597 133.806C306.121 134.252 306.383 134.84 306.383 135.569C306.383 136.116 306.212 136.599 305.87 137.019C305.533 137.438 305.102 137.695 304.578 137.791V137.839C305.271 137.921 305.829 138.183 306.253 138.625C306.681 139.062 306.896 139.618 306.896 140.293C306.896 141.136 306.599 141.799 306.007 142.282C305.414 142.761 304.599 143 303.56 143ZM300.921 133.963V137.518H303.067C303.815 137.518 304.396 137.356 304.811 137.032C305.23 136.709 305.439 136.255 305.439 135.672C305.439 135.134 305.253 134.715 304.879 134.414C304.51 134.113 303.997 133.963 303.341 133.963H300.921ZM300.921 142.173H303.43C304.232 142.173 304.849 142.007 305.282 141.674C305.72 141.337 305.938 140.86 305.938 140.245C305.938 139.63 305.711 139.156 305.255 138.823C304.804 138.491 304.154 138.324 303.307 138.324H300.921V142.173ZM314.292 143V135.891H315.188V143H314.292ZM310.648 139.056H309.117V142.248H310.648C311.163 142.248 311.574 142.102 311.879 141.811C312.189 141.519 312.344 141.132 312.344 140.648C312.344 140.165 312.189 139.78 311.879 139.493C311.574 139.201 311.163 139.056 310.648 139.056ZM308.222 143V135.891H309.117V138.304H310.662C311.446 138.304 312.07 138.516 312.535 138.939C313.005 139.359 313.239 139.928 313.239 140.648C313.239 141.368 313.005 141.94 312.535 142.364C312.07 142.788 311.446 143 310.662 143H308.222ZM322.037 135.891V136.643H319.617V143H318.722V136.643H316.302V135.891H322.037ZM325.318 139.575H326.911V136.643H325.318C324.799 136.643 324.386 136.777 324.081 137.046C323.776 137.315 323.623 137.682 323.623 138.146C323.623 138.57 323.778 138.914 324.088 139.179C324.398 139.443 324.808 139.575 325.318 139.575ZM326.911 143V140.327H325.421L323.473 143H322.427L324.498 140.177C323.947 140.063 323.514 139.828 323.199 139.473C322.885 139.117 322.728 138.68 322.728 138.16C322.728 137.463 322.96 136.911 323.425 136.506C323.894 136.096 324.523 135.891 325.312 135.891H327.807V143H326.911ZM335.005 139.268L338.45 143H337.268L334.109 139.534H334.068V143H333.173V139.534H333.139L329.98 143H328.818L332.243 139.281L328.928 135.891H330.062L333.139 139.083H333.173V135.891H334.068V139.083H334.109L337.186 135.891H338.307L335.005 139.268ZM341.314 139.274L345.047 143H343.857L340.398 139.534H340.357V143H339.462V135.891H340.357V139.083H340.398L343.769 135.891H344.91L341.314 139.274ZM348.157 142.337C348.782 142.337 349.308 142.143 349.736 141.756C350.165 141.368 350.379 140.892 350.379 140.327V139.541L348.273 139.685C347.713 139.721 347.282 139.858 346.981 140.095C346.681 140.327 346.53 140.639 346.53 141.031C346.53 141.419 346.681 141.733 346.981 141.975C347.282 142.216 347.674 142.337 348.157 142.337ZM347.973 143.116C347.271 143.116 346.701 142.925 346.264 142.542C345.831 142.155 345.614 141.651 345.614 141.031C345.614 140.421 345.833 139.938 346.271 139.582C346.713 139.227 347.344 139.021 348.164 138.967L350.379 138.83V138.215C350.379 137.7 350.224 137.299 349.914 137.012C349.604 136.72 349.174 136.574 348.622 136.574C348.103 136.574 347.679 136.695 347.351 136.937C347.027 137.178 346.826 137.515 346.749 137.948H345.874C345.924 137.301 346.198 136.777 346.694 136.376C347.196 135.975 347.845 135.774 348.643 135.774C349.454 135.774 350.096 135.986 350.57 136.41C351.044 136.834 351.281 137.408 351.281 138.133V143H350.42V141.646H350.399C350.203 142.089 349.882 142.444 349.436 142.713C348.989 142.982 348.501 143.116 347.973 143.116ZM360.188 139.438H355.704V138.591H360.188V139.438ZM365.493 143H361.925V133.136H365.473C366.32 133.136 367.006 133.359 367.53 133.806C368.054 134.252 368.316 134.84 368.316 135.569C368.316 136.116 368.146 136.599 367.804 137.019C367.466 137.438 367.036 137.695 366.512 137.791V137.839C367.204 137.921 367.763 138.183 368.187 138.625C368.615 139.062 368.829 139.618 368.829 140.293C368.829 141.136 368.533 141.799 367.94 142.282C367.348 142.761 366.532 143 365.493 143ZM362.854 133.963V137.518H365.001C365.748 137.518 366.329 137.356 366.744 137.032C367.163 136.709 367.373 136.255 367.373 135.672C367.373 135.134 367.186 134.715 366.812 134.414C366.443 134.113 365.931 133.963 365.274 133.963H362.854ZM362.854 142.173H365.363C366.165 142.173 366.783 142.007 367.216 141.674C367.653 141.337 367.872 140.86 367.872 140.245C367.872 139.63 367.644 139.156 367.188 138.823C366.737 138.491 366.088 138.324 365.24 138.324H362.854V142.173ZM373.45 143.157C372.42 143.157 371.577 142.891 370.921 142.357C370.265 141.824 369.937 141.145 369.937 140.32C369.937 139.701 370.139 139.158 370.545 138.693C370.951 138.229 371.481 137.925 372.138 137.784V137.764C371.577 137.609 371.133 137.335 370.805 136.943C370.477 136.547 370.312 136.084 370.312 135.556C370.312 134.808 370.609 134.193 371.201 133.71C371.794 133.222 372.543 132.979 373.45 132.979C374.362 132.979 375.111 133.222 375.699 133.71C376.287 134.193 376.581 134.808 376.581 135.556C376.581 136.075 376.417 136.533 376.089 136.93C375.761 137.326 375.319 137.604 374.763 137.764V137.784C375.419 137.925 375.95 138.229 376.355 138.693C376.761 139.158 376.964 139.701 376.964 140.32C376.964 141.15 376.636 141.831 375.979 142.364C375.328 142.893 374.485 143.157 373.45 143.157ZM371.598 141.756C372.076 142.143 372.694 142.337 373.45 142.337C374.207 142.337 374.822 142.143 375.296 141.756C375.774 141.364 376.014 140.867 376.014 140.266C376.014 139.673 375.774 139.188 375.296 138.81C374.822 138.431 374.207 138.242 373.45 138.242C372.698 138.242 372.083 138.431 371.604 138.81C371.126 139.188 370.887 139.673 370.887 140.266C370.887 140.867 371.124 141.364 371.598 141.756ZM373.45 137.408C374.093 137.408 374.619 137.242 375.029 136.909C375.444 136.576 375.651 136.15 375.651 135.631C375.651 135.098 375.446 134.658 375.036 134.312C374.631 133.965 374.102 133.792 373.45 133.792C372.799 133.792 372.268 133.965 371.857 134.312C371.447 134.658 371.242 135.098 371.242 135.631C371.242 136.15 371.447 136.576 371.857 136.909C372.272 137.242 372.803 137.408 373.45 137.408Z" fill="#FF9500"/>
<path d="M1127.56 275H1123.99V265.136H1127.54C1128.39 265.136 1129.07 265.359 1129.6 265.806C1130.12 266.252 1130.38 266.84 1130.38 267.569C1130.38 268.116 1130.21 268.599 1129.87 269.019C1129.53 269.438 1129.1 269.695 1128.58 269.791V269.839C1129.27 269.921 1129.83 270.183 1130.25 270.625C1130.68 271.062 1130.9 271.618 1130.9 272.293C1130.9 273.136 1130.6 273.799 1130.01 274.282C1129.41 274.761 1128.6 275 1127.56 275ZM1124.92 265.963V269.518H1127.07C1127.81 269.518 1128.4 269.356 1128.81 269.032C1129.23 268.709 1129.44 268.255 1129.44 267.672C1129.44 267.134 1129.25 266.715 1128.88 266.414C1128.51 266.113 1128 265.963 1127.34 265.963H1124.92ZM1124.92 274.173H1127.43C1128.23 274.173 1128.85 274.007 1129.28 273.674C1129.72 273.337 1129.94 272.86 1129.94 272.245C1129.94 271.63 1129.71 271.156 1129.25 270.823C1128.8 270.491 1128.15 270.324 1127.31 270.324H1124.92V274.173ZM1138.29 275V267.891H1139.19V275H1138.29ZM1134.65 271.056H1133.12V274.248H1134.65C1135.16 274.248 1135.57 274.102 1135.88 273.811C1136.19 273.519 1136.34 273.132 1136.34 272.648C1136.34 272.165 1136.19 271.78 1135.88 271.493C1135.57 271.201 1135.16 271.056 1134.65 271.056ZM1132.22 275V267.891H1133.12V270.304H1134.66C1135.45 270.304 1136.07 270.516 1136.54 270.939C1137 271.359 1137.24 271.928 1137.24 272.648C1137.24 273.368 1137 273.94 1136.54 274.364C1136.07 274.788 1135.45 275 1134.66 275H1132.22ZM1146.04 267.891V268.643H1143.62V275H1142.72V268.643H1140.3V267.891H1146.04ZM1149.32 271.575H1150.91V268.643H1149.32C1148.8 268.643 1148.39 268.777 1148.08 269.046C1147.78 269.315 1147.62 269.682 1147.62 270.146C1147.62 270.57 1147.78 270.914 1148.09 271.179C1148.4 271.443 1148.81 271.575 1149.32 271.575ZM1150.91 275V272.327H1149.42L1147.47 275H1146.43L1148.5 272.177C1147.95 272.063 1147.51 271.828 1147.2 271.473C1146.88 271.117 1146.73 270.68 1146.73 270.16C1146.73 269.463 1146.96 268.911 1147.42 268.506C1147.89 268.096 1148.52 267.891 1149.31 267.891H1151.81V275H1150.91ZM1159 271.268L1162.45 275H1161.27L1158.11 271.534H1158.07V275H1157.17V271.534H1157.14L1153.98 275H1152.82L1156.24 271.281L1152.93 267.891H1154.06L1157.14 271.083H1157.17V267.891H1158.07V271.083H1158.11L1161.19 267.891H1162.31L1159 271.268ZM1165.31 271.274L1169.05 275H1167.86L1164.4 271.534H1164.36V275H1163.46V267.891H1164.36V271.083H1164.4L1167.77 267.891H1168.91L1165.31 271.274ZM1172.16 274.337C1172.78 274.337 1173.31 274.143 1173.74 273.756C1174.16 273.368 1174.38 272.892 1174.38 272.327V271.541L1172.27 271.685C1171.71 271.721 1171.28 271.858 1170.98 272.095C1170.68 272.327 1170.53 272.639 1170.53 273.031C1170.53 273.419 1170.68 273.733 1170.98 273.975C1171.28 274.216 1171.67 274.337 1172.16 274.337ZM1171.97 275.116C1171.27 275.116 1170.7 274.925 1170.26 274.542C1169.83 274.155 1169.61 273.651 1169.61 273.031C1169.61 272.421 1169.83 271.938 1170.27 271.582C1170.71 271.227 1171.34 271.021 1172.16 270.967L1174.38 270.83V270.215C1174.38 269.7 1174.22 269.299 1173.91 269.012C1173.6 268.72 1173.17 268.574 1172.62 268.574C1172.1 268.574 1171.68 268.695 1171.35 268.937C1171.03 269.178 1170.83 269.515 1170.75 269.948H1169.87C1169.92 269.301 1170.2 268.777 1170.69 268.376C1171.2 267.975 1171.85 267.774 1172.64 267.774C1173.45 267.774 1174.1 267.986 1174.57 268.41C1175.04 268.834 1175.28 269.408 1175.28 270.133V275H1174.42V273.646H1174.4C1174.2 274.089 1173.88 274.444 1173.44 274.713C1172.99 274.982 1172.5 275.116 1171.97 275.116ZM1184.19 271.438H1179.7V270.591H1184.19V271.438ZM1189.49 275H1185.92V265.136H1189.47C1190.32 265.136 1191.01 265.359 1191.53 265.806C1192.05 266.252 1192.32 266.84 1192.32 267.569C1192.32 268.116 1192.15 268.599 1191.8 269.019C1191.47 269.438 1191.04 269.695 1190.51 269.791V269.839C1191.2 269.921 1191.76 270.183 1192.19 270.625C1192.61 271.062 1192.83 271.618 1192.83 272.293C1192.83 273.136 1192.53 273.799 1191.94 274.282C1191.35 274.761 1190.53 275 1189.49 275ZM1186.85 265.963V269.518H1189C1189.75 269.518 1190.33 269.356 1190.74 269.032C1191.16 268.709 1191.37 268.255 1191.37 267.672C1191.37 267.134 1191.19 266.715 1190.81 266.414C1190.44 266.113 1189.93 265.963 1189.27 265.963H1186.85ZM1186.85 274.173H1189.36C1190.17 274.173 1190.78 274.007 1191.22 273.674C1191.65 273.337 1191.87 272.86 1191.87 272.245C1191.87 271.63 1191.64 271.156 1191.19 270.823C1190.74 270.491 1190.09 270.324 1189.24 270.324H1186.85V274.173ZM1196.63 275V266.141H1196.6C1196.54 266.182 1196.11 266.48 1195.31 267.036C1194.51 267.588 1194.06 267.895 1193.96 267.959V266.961C1194.04 266.911 1194.48 266.61 1195.27 266.059C1196.06 265.507 1196.51 265.2 1196.62 265.136H1197.53V275H1196.63ZM1203.29 275.157C1202.26 275.157 1201.42 274.891 1200.76 274.357C1200.1 273.824 1199.77 273.145 1199.77 272.32C1199.77 271.701 1199.98 271.158 1200.38 270.693C1200.79 270.229 1201.32 269.925 1201.98 269.784V269.764C1201.42 269.609 1200.97 269.335 1200.64 268.943C1200.31 268.547 1200.15 268.084 1200.15 267.556C1200.15 266.808 1200.45 266.193 1201.04 265.71C1201.63 265.222 1202.38 264.979 1203.29 264.979C1204.2 264.979 1204.95 265.222 1205.54 265.71C1206.12 266.193 1206.42 266.808 1206.42 267.556C1206.42 268.075 1206.25 268.533 1205.93 268.93C1205.6 269.326 1205.16 269.604 1204.6 269.764V269.784C1205.26 269.925 1205.79 270.229 1206.19 270.693C1206.6 271.158 1206.8 271.701 1206.8 272.32C1206.8 273.15 1206.47 273.831 1205.82 274.364C1205.17 274.893 1204.32 275.157 1203.29 275.157ZM1201.44 273.756C1201.91 274.143 1202.53 274.337 1203.29 274.337C1204.04 274.337 1204.66 274.143 1205.13 273.756C1205.61 273.364 1205.85 272.867 1205.85 272.266C1205.85 271.673 1205.61 271.188 1205.13 270.81C1204.66 270.431 1204.04 270.242 1203.29 270.242C1202.54 270.242 1201.92 270.431 1201.44 270.81C1200.96 271.188 1200.72 271.673 1200.72 272.266C1200.72 272.867 1200.96 273.364 1201.44 273.756ZM1203.29 269.408C1203.93 269.408 1204.46 269.242 1204.87 268.909C1205.28 268.576 1205.49 268.15 1205.49 267.631C1205.49 267.098 1205.28 266.658 1204.87 266.312C1204.47 265.965 1203.94 265.792 1203.29 265.792C1202.64 265.792 1202.11 265.965 1201.7 266.312C1201.29 266.658 1201.08 267.098 1201.08 267.631C1201.08 268.15 1201.29 268.576 1201.7 268.909C1202.11 269.242 1202.64 269.408 1203.29 269.408Z" fill="#FF9500"/>
<path d="M224.56 343H220.991V333.136H224.539C225.387 333.136 226.073 333.359 226.597 333.806C227.121 334.252 227.383 334.84 227.383 335.569C227.383 336.116 227.212 336.599 226.87 337.019C226.533 337.438 226.102 337.695 225.578 337.791V337.839C226.271 337.921 226.829 338.183 227.253 338.625C227.681 339.062 227.896 339.618 227.896 340.293C227.896 341.136 227.599 341.799 227.007 342.282C226.414 342.761 225.599 343 224.56 343ZM221.921 333.963V337.518H224.067C224.815 337.518 225.396 337.356 225.811 337.032C226.23 336.709 226.439 336.255 226.439 335.672C226.439 335.134 226.253 334.715 225.879 334.414C225.51 334.113 224.997 333.963 224.341 333.963H221.921ZM221.921 342.173H224.43C225.232 342.173 225.849 342.007 226.282 341.674C226.72 341.337 226.938 340.86 226.938 340.245C226.938 339.63 226.711 339.156 226.255 338.823C225.804 338.491 225.154 338.324 224.307 338.324H221.921V342.173ZM235.292 343V335.891H236.188V343H235.292ZM231.648 339.056H230.117V342.248H231.648C232.163 342.248 232.574 342.102 232.879 341.811C233.189 341.519 233.344 341.132 233.344 340.648C233.344 340.165 233.189 339.78 232.879 339.493C232.574 339.201 232.163 339.056 231.648 339.056ZM229.222 343V335.891H230.117V338.304H231.662C232.446 338.304 233.07 338.516 233.535 338.939C234.005 339.359 234.239 339.928 234.239 340.648C234.239 341.368 234.005 341.94 233.535 342.364C233.07 342.788 232.446 343 231.662 343H229.222ZM243.037 335.891V336.643H240.617V343H239.722V336.643H237.302V335.891H243.037ZM246.318 339.575H247.911V336.643H246.318C245.799 336.643 245.386 336.777 245.081 337.046C244.776 337.315 244.623 337.682 244.623 338.146C244.623 338.57 244.778 338.914 245.088 339.179C245.398 339.443 245.808 339.575 246.318 339.575ZM247.911 343V340.327H246.421L244.473 343H243.427L245.498 340.177C244.947 340.063 244.514 339.828 244.199 339.473C243.885 339.117 243.728 338.68 243.728 338.16C243.728 337.463 243.96 336.911 244.425 336.506C244.894 336.096 245.523 335.891 246.312 335.891H248.807V343H247.911ZM256.005 339.268L259.45 343H258.268L255.109 339.534H255.068V343H254.173V339.534H254.139L250.98 343H249.818L253.243 339.281L249.928 335.891H251.062L254.139 339.083H254.173V335.891H255.068V339.083H255.109L258.186 335.891H259.307L256.005 339.268ZM262.314 339.274L266.047 343H264.857L261.398 339.534H261.357V343H260.462V335.891H261.357V339.083H261.398L264.769 335.891H265.91L262.314 339.274ZM269.157 342.337C269.782 342.337 270.308 342.143 270.736 341.756C271.165 341.368 271.379 340.892 271.379 340.327V339.541L269.273 339.685C268.713 339.721 268.282 339.858 267.981 340.095C267.681 340.327 267.53 340.639 267.53 341.031C267.53 341.419 267.681 341.733 267.981 341.975C268.282 342.216 268.674 342.337 269.157 342.337ZM268.973 343.116C268.271 343.116 267.701 342.925 267.264 342.542C266.831 342.155 266.614 341.651 266.614 341.031C266.614 340.421 266.833 339.938 267.271 339.582C267.713 339.227 268.344 339.021 269.164 338.967L271.379 338.83V338.215C271.379 337.7 271.224 337.299 270.914 337.012C270.604 336.72 270.174 336.574 269.622 336.574C269.103 336.574 268.679 336.695 268.351 336.937C268.027 337.178 267.826 337.515 267.749 337.948H266.874C266.924 337.301 267.198 336.777 267.694 336.376C268.196 335.975 268.845 335.774 269.643 335.774C270.454 335.774 271.096 335.986 271.57 336.41C272.044 336.834 272.281 337.408 272.281 338.133V343H271.42V341.646H271.399C271.203 342.089 270.882 342.444 270.436 342.713C269.989 342.982 269.501 343.116 268.973 343.116ZM281.188 339.438H276.704V338.591H281.188V339.438ZM286.493 343H282.925V333.136H286.473C287.32 333.136 288.006 333.359 288.53 333.806C289.054 334.252 289.316 334.84 289.316 335.569C289.316 336.116 289.146 336.599 288.804 337.019C288.466 337.438 288.036 337.695 287.512 337.791V337.839C288.204 337.921 288.763 338.183 289.187 338.625C289.615 339.062 289.829 339.618 289.829 340.293C289.829 341.136 289.533 341.799 288.94 342.282C288.348 342.761 287.532 343 286.493 343ZM283.854 333.963V337.518H286.001C286.748 337.518 287.329 337.356 287.744 337.032C288.163 336.709 288.373 336.255 288.373 335.672C288.373 335.134 288.186 334.715 287.812 334.414C287.443 334.113 286.931 333.963 286.274 333.963H283.854ZM283.854 342.173H286.363C287.165 342.173 287.783 342.007 288.216 341.674C288.653 341.337 288.872 340.86 288.872 340.245C288.872 339.63 288.644 339.156 288.188 338.823C287.737 338.491 287.088 338.324 286.24 338.324H283.854V342.173ZM293.63 343V334.141H293.603C293.539 334.182 293.108 334.48 292.311 335.036C291.513 335.588 291.062 335.895 290.957 335.959V334.961C291.039 334.911 291.477 334.61 292.27 334.059C293.062 333.507 293.511 333.2 293.616 333.136H294.532V343H293.63Z" fill="#FF9500"/>
<path d="M923.56 275H919.991V265.136H923.539C924.387 265.136 925.073 265.359 925.597 265.806C926.121 266.252 926.383 266.84 926.383 267.569C926.383 268.116 926.212 268.599 925.87 269.019C925.533 269.438 925.102 269.695 924.578 269.791V269.839C925.271 269.921 925.829 270.183 926.253 270.625C926.681 271.062 926.896 271.618 926.896 272.293C926.896 273.136 926.599 273.799 926.007 274.282C925.414 274.761 924.599 275 923.56 275ZM920.921 265.963V269.518H923.067C923.815 269.518 924.396 269.356 924.811 269.032C925.23 268.709 925.439 268.255 925.439 267.672C925.439 267.134 925.253 266.715 924.879 266.414C924.51 266.113 923.997 265.963 923.341 265.963H920.921ZM920.921 274.173H923.43C924.232 274.173 924.849 274.007 925.282 273.674C925.72 273.337 925.938 272.86 925.938 272.245C925.938 271.63 925.711 271.156 925.255 270.823C924.804 270.491 924.154 270.324 923.307 270.324H920.921V274.173ZM934.292 275V267.891H935.188V275H934.292ZM930.648 271.056H929.117V274.248H930.648C931.163 274.248 931.574 274.102 931.879 273.811C932.189 273.519 932.344 273.132 932.344 272.648C932.344 272.165 932.189 271.78 931.879 271.493C931.574 271.201 931.163 271.056 930.648 271.056ZM928.222 275V267.891H929.117V270.304H930.662C931.446 270.304 932.07 270.516 932.535 270.939C933.005 271.359 933.239 271.928 933.239 272.648C933.239 273.368 933.005 273.94 932.535 274.364C932.07 274.788 931.446 275 930.662 275H928.222ZM942.037 267.891V268.643H939.617V275H938.722V268.643H936.302V267.891H942.037ZM945.318 271.575H946.911V268.643H945.318C944.799 268.643 944.386 268.777 944.081 269.046C943.776 269.315 943.623 269.682 943.623 270.146C943.623 270.57 943.778 270.914 944.088 271.179C944.398 271.443 944.808 271.575 945.318 271.575ZM946.911 275V272.327H945.421L943.473 275H942.427L944.498 272.177C943.947 272.063 943.514 271.828 943.199 271.473C942.885 271.117 942.728 270.68 942.728 270.16C942.728 269.463 942.96 268.911 943.425 268.506C943.894 268.096 944.523 267.891 945.312 267.891H947.807V275H946.911ZM955.005 271.268L958.45 275H957.268L954.109 271.534H954.068V275H953.173V271.534H953.139L949.98 275H948.818L952.243 271.281L948.928 267.891H950.062L953.139 271.083H953.173V267.891H954.068V271.083H954.109L957.186 267.891H958.307L955.005 271.268ZM961.314 271.274L965.047 275H963.857L960.398 271.534H960.357V275H959.462V267.891H960.357V271.083H960.398L963.769 267.891H964.91L961.314 271.274ZM968.157 274.337C968.782 274.337 969.308 274.143 969.736 273.756C970.165 273.368 970.379 272.892 970.379 272.327V271.541L968.273 271.685C967.713 271.721 967.282 271.858 966.981 272.095C966.681 272.327 966.53 272.639 966.53 273.031C966.53 273.419 966.681 273.733 966.981 273.975C967.282 274.216 967.674 274.337 968.157 274.337ZM967.973 275.116C967.271 275.116 966.701 274.925 966.264 274.542C965.831 274.155 965.614 273.651 965.614 273.031C965.614 272.421 965.833 271.938 966.271 271.582C966.713 271.227 967.344 271.021 968.164 270.967L970.379 270.83V270.215C970.379 269.7 970.224 269.299 969.914 269.012C969.604 268.72 969.174 268.574 968.622 268.574C968.103 268.574 967.679 268.695 967.351 268.937C967.027 269.178 966.826 269.515 966.749 269.948H965.874C965.924 269.301 966.198 268.777 966.694 268.376C967.196 267.975 967.845 267.774 968.643 267.774C969.454 267.774 970.096 267.986 970.57 268.41C971.044 268.834 971.281 269.408 971.281 270.133V275H970.42V273.646H970.399C970.203 274.089 969.882 274.444 969.436 274.713C968.989 274.982 968.501 275.116 967.973 275.116ZM980.188 271.438H975.704V270.591H980.188V271.438ZM985.493 275H981.925V265.136H985.473C986.32 265.136 987.006 265.359 987.53 265.806C988.054 266.252 988.316 266.84 988.316 267.569C988.316 268.116 988.146 268.599 987.804 269.019C987.466 269.438 987.036 269.695 986.512 269.791V269.839C987.204 269.921 987.763 270.183 988.187 270.625C988.615 271.062 988.829 271.618 988.829 272.293C988.829 273.136 988.533 273.799 987.94 274.282C987.348 274.761 986.532 275 985.493 275ZM982.854 265.963V269.518H985.001C985.748 269.518 986.329 269.356 986.744 269.032C987.163 268.709 987.373 268.255 987.373 267.672C987.373 267.134 987.186 266.715 986.812 266.414C986.443 266.113 985.931 265.963 985.274 265.963H982.854ZM982.854 274.173H985.363C986.165 274.173 986.783 274.007 987.216 273.674C987.653 273.337 987.872 272.86 987.872 272.245C987.872 271.63 987.644 271.156 987.188 270.823C986.737 270.491 986.088 270.324 985.24 270.324H982.854V274.173ZM992.63 275V266.141H992.603C992.539 266.182 992.108 266.48 991.311 267.036C990.513 267.588 990.062 267.895 989.957 267.959V266.961C990.039 266.911 990.477 266.61 991.27 266.059C992.062 265.507 992.511 265.2 992.616 265.136H993.532V275H992.63ZM996.677 275L1001.25 265.997V265.97H995.761V265.136H1002.19V266.011L997.668 275H996.677Z" fill="#FF9500"/>
<path d="M717.56 275H713.991V265.136H717.539C718.387 265.136 719.073 265.359 719.597 265.806C720.121 266.252 720.383 266.84 720.383 267.569C720.383 268.116 720.212 268.599 719.87 269.019C719.533 269.438 719.102 269.695 718.578 269.791V269.839C719.271 269.921 719.829 270.183 720.253 270.625C720.681 271.062 720.896 271.618 720.896 272.293C720.896 273.136 720.599 273.799 720.007 274.282C719.414 274.761 718.599 275 717.56 275ZM714.921 265.963V269.518H717.067C717.815 269.518 718.396 269.356 718.811 269.032C719.23 268.709 719.439 268.255 719.439 267.672C719.439 267.134 719.253 266.715 718.879 266.414C718.51 266.113 717.997 265.963 717.341 265.963H714.921ZM714.921 274.173H717.43C718.232 274.173 718.849 274.007 719.282 273.674C719.72 273.337 719.938 272.86 719.938 272.245C719.938 271.63 719.711 271.156 719.255 270.823C718.804 270.491 718.154 270.324 717.307 270.324H714.921V274.173ZM728.292 275V267.891H729.188V275H728.292ZM724.648 271.056H723.117V274.248H724.648C725.163 274.248 725.574 274.102 725.879 273.811C726.189 273.519 726.344 273.132 726.344 272.648C726.344 272.165 726.189 271.78 725.879 271.493C725.574 271.201 725.163 271.056 724.648 271.056ZM722.222 275V267.891H723.117V270.304H724.662C725.446 270.304 726.07 270.516 726.535 270.939C727.005 271.359 727.239 271.928 727.239 272.648C727.239 273.368 727.005 273.94 726.535 274.364C726.07 274.788 725.446 275 724.662 275H722.222ZM736.037 267.891V268.643H733.617V275H732.722V268.643H730.302V267.891H736.037ZM739.318 271.575H740.911V268.643H739.318C738.799 268.643 738.386 268.777 738.081 269.046C737.776 269.315 737.623 269.682 737.623 270.146C737.623 270.57 737.778 270.914 738.088 271.179C738.398 271.443 738.808 271.575 739.318 271.575ZM740.911 275V272.327H739.421L737.473 275H736.427L738.498 272.177C737.947 272.063 737.514 271.828 737.199 271.473C736.885 271.117 736.728 270.68 736.728 270.16C736.728 269.463 736.96 268.911 737.425 268.506C737.894 268.096 738.523 267.891 739.312 267.891H741.807V275H740.911ZM749.005 271.268L752.45 275H751.268L748.109 271.534H748.068V275H747.173V271.534H747.139L743.98 275H742.818L746.243 271.281L742.928 267.891H744.062L747.139 271.083H747.173V267.891H748.068V271.083H748.109L751.186 267.891H752.307L749.005 271.268ZM755.314 271.274L759.047 275H757.857L754.398 271.534H754.357V275H753.462V267.891H754.357V271.083H754.398L757.769 267.891H758.91L755.314 271.274ZM762.157 274.337C762.782 274.337 763.308 274.143 763.736 273.756C764.165 273.368 764.379 272.892 764.379 272.327V271.541L762.273 271.685C761.713 271.721 761.282 271.858 760.981 272.095C760.681 272.327 760.53 272.639 760.53 273.031C760.53 273.419 760.681 273.733 760.981 273.975C761.282 274.216 761.674 274.337 762.157 274.337ZM761.973 275.116C761.271 275.116 760.701 274.925 760.264 274.542C759.831 274.155 759.614 273.651 759.614 273.031C759.614 272.421 759.833 271.938 760.271 271.582C760.713 271.227 761.344 271.021 762.164 270.967L764.379 270.83V270.215C764.379 269.7 764.224 269.299 763.914 269.012C763.604 268.72 763.174 268.574 762.622 268.574C762.103 268.574 761.679 268.695 761.351 268.937C761.027 269.178 760.826 269.515 760.749 269.948H759.874C759.924 269.301 760.198 268.777 760.694 268.376C761.196 267.975 761.845 267.774 762.643 267.774C763.454 267.774 764.096 267.986 764.57 268.41C765.044 268.834 765.281 269.408 765.281 270.133V275H764.42V273.646H764.399C764.203 274.089 763.882 274.444 763.436 274.713C762.989 274.982 762.501 275.116 761.973 275.116ZM774.188 271.438H769.704V270.591H774.188V271.438ZM779.493 275H775.925V265.136H779.473C780.32 265.136 781.006 265.359 781.53 265.806C782.054 266.252 782.316 266.84 782.316 267.569C782.316 268.116 782.146 268.599 781.804 269.019C781.466 269.438 781.036 269.695 780.512 269.791V269.839C781.204 269.921 781.763 270.183 782.187 270.625C782.615 271.062 782.829 271.618 782.829 272.293C782.829 273.136 782.533 273.799 781.94 274.282C781.348 274.761 780.532 275 779.493 275ZM776.854 265.963V269.518H779.001C779.748 269.518 780.329 269.356 780.744 269.032C781.163 268.709 781.373 268.255 781.373 267.672C781.373 267.134 781.186 266.715 780.812 266.414C780.443 266.113 779.931 265.963 779.274 265.963H776.854ZM776.854 274.173H779.363C780.165 274.173 780.783 274.007 781.216 273.674C781.653 273.337 781.872 272.86 781.872 272.245C781.872 271.63 781.644 271.156 781.188 270.823C780.737 270.491 780.088 270.324 779.24 270.324H776.854V274.173ZM786.63 275V266.141H786.603C786.539 266.182 786.108 266.48 785.311 267.036C784.513 267.588 784.062 267.895 783.957 267.959V266.961C784.039 266.911 784.477 266.61 785.27 266.059C786.062 265.507 786.511 265.2 786.616 265.136H787.532V275H786.63ZM793.493 275.157C792.832 275.157 792.24 274.995 791.716 274.672C791.196 274.348 790.784 273.888 790.479 273.291C790.036 272.521 789.815 271.516 789.815 270.276C789.815 268.622 790.146 267.326 790.807 266.387C791.472 265.448 792.39 264.979 793.562 264.979C794.382 264.979 795.081 265.206 795.66 265.662C796.239 266.118 796.599 266.724 796.74 267.48H795.797C795.674 266.979 795.407 266.576 794.997 266.271C794.587 265.961 794.106 265.806 793.555 265.806C792.652 265.806 791.953 266.209 791.456 267.016C790.964 267.818 790.718 268.95 790.718 270.413H790.738C790.939 269.857 791.306 269.406 791.839 269.06C792.377 268.713 792.978 268.54 793.644 268.54C794.582 268.54 795.362 268.85 795.981 269.47C796.606 270.09 796.918 270.867 796.918 271.801C796.918 272.767 796.594 273.569 795.947 274.207C795.3 274.84 794.482 275.157 793.493 275.157ZM793.486 274.323C794.179 274.323 794.765 274.082 795.243 273.599C795.726 273.116 795.968 272.525 795.968 271.828C795.968 271.122 795.733 270.536 795.264 270.071C794.799 269.602 794.209 269.367 793.493 269.367C792.791 269.367 792.197 269.6 791.709 270.064C791.226 270.525 790.984 271.09 790.984 271.76C790.984 272.48 791.224 273.088 791.702 273.585C792.185 274.077 792.78 274.323 793.486 274.323Z" fill="#FF9500"/>
<path d="M509.56 275H505.991V265.136H509.539C510.387 265.136 511.073 265.359 511.597 265.806C512.121 266.252 512.383 266.84 512.383 267.569C512.383 268.116 512.212 268.599 511.87 269.019C511.533 269.438 511.102 269.695 510.578 269.791V269.839C511.271 269.921 511.829 270.183 512.253 270.625C512.681 271.062 512.896 271.618 512.896 272.293C512.896 273.136 512.599 273.799 512.007 274.282C511.414 274.761 510.599 275 509.56 275ZM506.921 265.963V269.518H509.067C509.815 269.518 510.396 269.356 510.811 269.032C511.23 268.709 511.439 268.255 511.439 267.672C511.439 267.134 511.253 266.715 510.879 266.414C510.51 266.113 509.997 265.963 509.341 265.963H506.921ZM506.921 274.173H509.43C510.232 274.173 510.849 274.007 511.282 273.674C511.72 273.337 511.938 272.86 511.938 272.245C511.938 271.63 511.711 271.156 511.255 270.823C510.804 270.491 510.154 270.324 509.307 270.324H506.921V274.173ZM520.292 275V267.891H521.188V275H520.292ZM516.648 271.056H515.117V274.248H516.648C517.163 274.248 517.574 274.102 517.879 273.811C518.189 273.519 518.344 273.132 518.344 272.648C518.344 272.165 518.189 271.78 517.879 271.493C517.574 271.201 517.163 271.056 516.648 271.056ZM514.222 275V267.891H515.117V270.304H516.662C517.446 270.304 518.07 270.516 518.535 270.939C519.005 271.359 519.239 271.928 519.239 272.648C519.239 273.368 519.005 273.94 518.535 274.364C518.07 274.788 517.446 275 516.662 275H514.222ZM528.037 267.891V268.643H525.617V275H524.722V268.643H522.302V267.891H528.037ZM531.318 271.575H532.911V268.643H531.318C530.799 268.643 530.386 268.777 530.081 269.046C529.776 269.315 529.623 269.682 529.623 270.146C529.623 270.57 529.778 270.914 530.088 271.179C530.398 271.443 530.808 271.575 531.318 271.575ZM532.911 275V272.327H531.421L529.473 275H528.427L530.498 272.177C529.947 272.063 529.514 271.828 529.199 271.473C528.885 271.117 528.728 270.68 528.728 270.16C528.728 269.463 528.96 268.911 529.425 268.506C529.894 268.096 530.523 267.891 531.312 267.891H533.807V275H532.911ZM541.005 271.268L544.45 275H543.268L540.109 271.534H540.068V275H539.173V271.534H539.139L535.98 275H534.818L538.243 271.281L534.928 267.891H536.062L539.139 271.083H539.173V267.891H540.068V271.083H540.109L543.186 267.891H544.307L541.005 271.268ZM547.314 271.274L551.047 275H549.857L546.398 271.534H546.357V275H545.462V267.891H546.357V271.083H546.398L549.769 267.891H550.91L547.314 271.274ZM554.157 274.337C554.782 274.337 555.308 274.143 555.736 273.756C556.165 273.368 556.379 272.892 556.379 272.327V271.541L554.273 271.685C553.713 271.721 553.282 271.858 552.981 272.095C552.681 272.327 552.53 272.639 552.53 273.031C552.53 273.419 552.681 273.733 552.981 273.975C553.282 274.216 553.674 274.337 554.157 274.337ZM553.973 275.116C553.271 275.116 552.701 274.925 552.264 274.542C551.831 274.155 551.614 273.651 551.614 273.031C551.614 272.421 551.833 271.938 552.271 271.582C552.713 271.227 553.344 271.021 554.164 270.967L556.379 270.83V270.215C556.379 269.7 556.224 269.299 555.914 269.012C555.604 268.72 555.174 268.574 554.622 268.574C554.103 268.574 553.679 268.695 553.351 268.937C553.027 269.178 552.826 269.515 552.749 269.948H551.874C551.924 269.301 552.198 268.777 552.694 268.376C553.196 267.975 553.845 267.774 554.643 267.774C555.454 267.774 556.096 267.986 556.57 268.41C557.044 268.834 557.281 269.408 557.281 270.133V275H556.42V273.646H556.399C556.203 274.089 555.882 274.444 555.436 274.713C554.989 274.982 554.501 275.116 553.973 275.116ZM566.188 271.438H561.704V270.591H566.188V271.438ZM571.493 275H567.925V265.136H571.473C572.32 265.136 573.006 265.359 573.53 265.806C574.054 266.252 574.316 266.84 574.316 267.569C574.316 268.116 574.146 268.599 573.804 269.019C573.466 269.438 573.036 269.695 572.512 269.791V269.839C573.204 269.921 573.763 270.183 574.187 270.625C574.615 271.062 574.829 271.618 574.829 272.293C574.829 273.136 574.533 273.799 573.94 274.282C573.348 274.761 572.532 275 571.493 275ZM568.854 265.963V269.518H571.001C571.748 269.518 572.329 269.356 572.744 269.032C573.163 268.709 573.373 268.255 573.373 267.672C573.373 267.134 573.186 266.715 572.812 266.414C572.443 266.113 571.931 265.963 571.274 265.963H568.854ZM568.854 274.173H571.363C572.165 274.173 572.783 274.007 573.216 273.674C573.653 273.337 573.872 272.86 573.872 272.245C573.872 271.63 573.644 271.156 573.188 270.823C572.737 270.491 572.088 270.324 571.24 270.324H568.854V274.173ZM578.63 275V266.141H578.603C578.539 266.182 578.108 266.48 577.311 267.036C576.513 267.588 576.062 267.895 575.957 267.959V266.961C576.039 266.911 576.477 266.61 577.27 266.059C578.062 265.507 578.511 265.2 578.616 265.136H579.532V275H578.63ZM585.274 275.157C584.682 275.157 584.14 275.041 583.647 274.809C583.16 274.576 582.768 274.253 582.472 273.838C582.175 273.423 582.007 272.954 581.966 272.43H582.882C582.946 272.981 583.203 273.437 583.654 273.797C584.105 274.152 584.65 274.33 585.288 274.33C586.022 274.33 586.623 274.098 587.093 273.633C587.567 273.163 587.804 272.566 587.804 271.842C587.804 271.122 587.569 270.525 587.1 270.051C586.635 269.577 586.045 269.34 585.329 269.34C584.832 269.34 584.379 269.451 583.969 269.675C583.559 269.898 583.24 270.206 583.012 270.598H582.116L582.677 265.136H588.146V265.97H583.449L583.08 269.613H583.107C583.349 269.276 583.679 269.012 584.099 268.82C584.522 268.624 584.983 268.526 585.479 268.526C586.418 268.526 587.195 268.839 587.811 269.463C588.43 270.087 588.74 270.873 588.74 271.821C588.74 272.797 588.414 273.596 587.763 274.221C587.111 274.845 586.282 275.157 585.274 275.157Z" fill="#FF9500"/>
<path d="M1131.56 343H1127.99V333.136H1131.54C1132.39 333.136 1133.07 333.359 1133.6 333.806C1134.12 334.252 1134.38 334.84 1134.38 335.569C1134.38 336.116 1134.21 336.599 1133.87 337.019C1133.53 337.438 1133.1 337.695 1132.58 337.791V337.839C1133.27 337.921 1133.83 338.183 1134.25 338.625C1134.68 339.062 1134.9 339.618 1134.9 340.293C1134.9 341.136 1134.6 341.799 1134.01 342.282C1133.41 342.761 1132.6 343 1131.56 343ZM1128.92 333.963V337.518H1131.07C1131.81 337.518 1132.4 337.356 1132.81 337.032C1133.23 336.709 1133.44 336.255 1133.44 335.672C1133.44 335.134 1133.25 334.715 1132.88 334.414C1132.51 334.113 1132 333.963 1131.34 333.963H1128.92ZM1128.92 342.173H1131.43C1132.23 342.173 1132.85 342.007 1133.28 341.674C1133.72 341.337 1133.94 340.86 1133.94 340.245C1133.94 339.63 1133.71 339.156 1133.25 338.823C1132.8 338.491 1132.15 338.324 1131.31 338.324H1128.92V342.173ZM1142.29 343V335.891H1143.19V343H1142.29ZM1138.65 339.056H1137.12V342.248H1138.65C1139.16 342.248 1139.57 342.102 1139.88 341.811C1140.19 341.519 1140.34 341.132 1140.34 340.648C1140.34 340.165 1140.19 339.78 1139.88 339.493C1139.57 339.201 1139.16 339.056 1138.65 339.056ZM1136.22 343V335.891H1137.12V338.304H1138.66C1139.45 338.304 1140.07 338.516 1140.54 338.939C1141 339.359 1141.24 339.928 1141.24 340.648C1141.24 341.368 1141 341.94 1140.54 342.364C1140.07 342.788 1139.45 343 1138.66 343H1136.22ZM1150.04 335.891V336.643H1147.62V343H1146.72V336.643H1144.3V335.891H1150.04ZM1153.32 339.575H1154.91V336.643H1153.32C1152.8 336.643 1152.39 336.777 1152.08 337.046C1151.78 337.315 1151.62 337.682 1151.62 338.146C1151.62 338.57 1151.78 338.914 1152.09 339.179C1152.4 339.443 1152.81 339.575 1153.32 339.575ZM1154.91 343V340.327H1153.42L1151.47 343H1150.43L1152.5 340.177C1151.95 340.063 1151.51 339.828 1151.2 339.473C1150.88 339.117 1150.73 338.68 1150.73 338.16C1150.73 337.463 1150.96 336.911 1151.42 336.506C1151.89 336.096 1152.52 335.891 1153.31 335.891H1155.81V343H1154.91ZM1163 339.268L1166.45 343H1165.27L1162.11 339.534H1162.07V343H1161.17V339.534H1161.14L1157.98 343H1156.82L1160.24 339.281L1156.93 335.891H1158.06L1161.14 339.083H1161.17V335.891H1162.07V339.083H1162.11L1165.19 335.891H1166.31L1163 339.268ZM1169.31 339.274L1173.05 343H1171.86L1168.4 339.534H1168.36V343H1167.46V335.891H1168.36V339.083H1168.4L1171.77 335.891H1172.91L1169.31 339.274ZM1176.16 342.337C1176.78 342.337 1177.31 342.143 1177.74 341.756C1178.16 341.368 1178.38 340.892 1178.38 340.327V339.541L1176.27 339.685C1175.71 339.721 1175.28 339.858 1174.98 340.095C1174.68 340.327 1174.53 340.639 1174.53 341.031C1174.53 341.419 1174.68 341.733 1174.98 341.975C1175.28 342.216 1175.67 342.337 1176.16 342.337ZM1175.97 343.116C1175.27 343.116 1174.7 342.925 1174.26 342.542C1173.83 342.155 1173.61 341.651 1173.61 341.031C1173.61 340.421 1173.83 339.938 1174.27 339.582C1174.71 339.227 1175.34 339.021 1176.16 338.967L1178.38 338.83V338.215C1178.38 337.7 1178.22 337.299 1177.91 337.012C1177.6 336.72 1177.17 336.574 1176.62 336.574C1176.1 336.574 1175.68 336.695 1175.35 336.937C1175.03 337.178 1174.83 337.515 1174.75 337.948H1173.87C1173.92 337.301 1174.2 336.777 1174.69 336.376C1175.2 335.975 1175.85 335.774 1176.64 335.774C1177.45 335.774 1178.1 335.986 1178.57 336.41C1179.04 336.834 1179.28 337.408 1179.28 338.133V343H1178.42V341.646H1178.4C1178.2 342.089 1177.88 342.444 1177.44 342.713C1176.99 342.982 1176.5 343.116 1175.97 343.116ZM1188.19 339.438H1183.7V338.591H1188.19V339.438ZM1193.49 343H1189.92V333.136H1193.47C1194.32 333.136 1195.01 333.359 1195.53 333.806C1196.05 334.252 1196.32 334.84 1196.32 335.569C1196.32 336.116 1196.15 336.599 1195.8 337.019C1195.47 337.438 1195.04 337.695 1194.51 337.791V337.839C1195.2 337.921 1195.76 338.183 1196.19 338.625C1196.61 339.062 1196.83 339.618 1196.83 340.293C1196.83 341.136 1196.53 341.799 1195.94 342.282C1195.35 342.761 1194.53 343 1193.49 343ZM1190.85 333.963V337.518H1193C1193.75 337.518 1194.33 337.356 1194.74 337.032C1195.16 336.709 1195.37 336.255 1195.37 335.672C1195.37 335.134 1195.19 334.715 1194.81 334.414C1194.44 334.113 1193.93 333.963 1193.27 333.963H1190.85ZM1190.85 342.173H1193.36C1194.17 342.173 1194.78 342.007 1195.22 341.674C1195.65 341.337 1195.87 340.86 1195.87 340.245C1195.87 339.63 1195.64 339.156 1195.19 338.823C1194.74 338.491 1194.09 338.324 1193.24 338.324H1190.85V342.173ZM1200.04 338.304V337.511H1201.19C1201.83 337.511 1202.36 337.333 1202.76 336.978C1203.17 336.622 1203.37 336.169 1203.37 335.617C1203.37 335.075 1203.18 334.637 1202.79 334.305C1202.41 333.967 1201.89 333.799 1201.23 333.799C1200.62 333.799 1200.11 333.967 1199.71 334.305C1199.31 334.642 1199.09 335.084 1199.04 335.631H1198.13C1198.19 334.838 1198.51 334.198 1199.08 333.71C1199.65 333.222 1200.38 332.979 1201.27 332.979C1202.14 332.979 1202.87 333.218 1203.45 333.696C1204.03 334.17 1204.31 334.772 1204.31 335.501C1204.31 336.116 1204.13 336.633 1203.76 337.053C1203.39 337.472 1202.89 337.739 1202.26 337.853V337.88C1203.01 337.925 1203.61 338.167 1204.06 338.604C1204.51 339.037 1204.74 339.603 1204.74 340.3C1204.74 340.847 1204.59 341.339 1204.29 341.776C1203.99 342.214 1203.58 342.553 1203.06 342.795C1202.54 343.036 1201.96 343.157 1201.33 343.157C1200.34 343.157 1199.54 342.904 1198.91 342.398C1198.29 341.893 1197.96 341.241 1197.93 340.443H1198.83C1198.87 340.999 1199.11 341.455 1199.57 341.811C1200.03 342.161 1200.61 342.337 1201.32 342.337C1202.04 342.337 1202.63 342.148 1203.09 341.77C1203.56 341.391 1203.79 340.91 1203.79 340.327C1203.79 339.698 1203.56 339.204 1203.1 338.844C1202.65 338.484 1202.02 338.304 1201.23 338.304H1200.04Z" fill="#FF9500"/>
<path d="M303.56 275H299.991V265.136H303.539C304.387 265.136 305.073 265.359 305.597 265.806C306.121 266.252 306.383 266.84 306.383 267.569C306.383 268.116 306.212 268.599 305.87 269.019C305.533 269.438 305.102 269.695 304.578 269.791V269.839C305.271 269.921 305.829 270.183 306.253 270.625C306.681 271.062 306.896 271.618 306.896 272.293C306.896 273.136 306.599 273.799 306.007 274.282C305.414 274.761 304.599 275 303.56 275ZM300.921 265.963V269.518H303.067C303.815 269.518 304.396 269.356 304.811 269.032C305.23 268.709 305.439 268.255 305.439 267.672C305.439 267.134 305.253 266.715 304.879 266.414C304.51 266.113 303.997 265.963 303.341 265.963H300.921ZM300.921 274.173H303.43C304.232 274.173 304.849 274.007 305.282 273.674C305.72 273.337 305.938 272.86 305.938 272.245C305.938 271.63 305.711 271.156 305.255 270.823C304.804 270.491 304.154 270.324 303.307 270.324H300.921V274.173ZM314.292 275V267.891H315.188V275H314.292ZM310.648 271.056H309.117V274.248H310.648C311.163 274.248 311.574 274.102 311.879 273.811C312.189 273.519 312.344 273.132 312.344 272.648C312.344 272.165 312.189 271.78 311.879 271.493C311.574 271.201 311.163 271.056 310.648 271.056ZM308.222 275V267.891H309.117V270.304H310.662C311.446 270.304 312.07 270.516 312.535 270.939C313.005 271.359 313.239 271.928 313.239 272.648C313.239 273.368 313.005 273.94 312.535 274.364C312.07 274.788 311.446 275 310.662 275H308.222ZM322.037 267.891V268.643H319.617V275H318.722V268.643H316.302V267.891H322.037ZM325.318 271.575H326.911V268.643H325.318C324.799 268.643 324.386 268.777 324.081 269.046C323.776 269.315 323.623 269.682 323.623 270.146C323.623 270.57 323.778 270.914 324.088 271.179C324.398 271.443 324.808 271.575 325.318 271.575ZM326.911 275V272.327H325.421L323.473 275H322.427L324.498 272.177C323.947 272.063 323.514 271.828 323.199 271.473C322.885 271.117 322.728 270.68 322.728 270.16C322.728 269.463 322.96 268.911 323.425 268.506C323.894 268.096 324.523 267.891 325.312 267.891H327.807V275H326.911ZM335.005 271.268L338.45 275H337.268L334.109 271.534H334.068V275H333.173V271.534H333.139L329.98 275H328.818L332.243 271.281L328.928 267.891H330.062L333.139 271.083H333.173V267.891H334.068V271.083H334.109L337.186 267.891H338.307L335.005 271.268ZM341.314 271.274L345.047 275H343.857L340.398 271.534H340.357V275H339.462V267.891H340.357V271.083H340.398L343.769 267.891H344.91L341.314 271.274ZM348.157 274.337C348.782 274.337 349.308 274.143 349.736 273.756C350.165 273.368 350.379 272.892 350.379 272.327V271.541L348.273 271.685C347.713 271.721 347.282 271.858 346.981 272.095C346.681 272.327 346.53 272.639 346.53 273.031C346.53 273.419 346.681 273.733 346.981 273.975C347.282 274.216 347.674 274.337 348.157 274.337ZM347.973 275.116C347.271 275.116 346.701 274.925 346.264 274.542C345.831 274.155 345.614 273.651 345.614 273.031C345.614 272.421 345.833 271.938 346.271 271.582C346.713 271.227 347.344 271.021 348.164 270.967L350.379 270.83V270.215C350.379 269.7 350.224 269.299 349.914 269.012C349.604 268.72 349.174 268.574 348.622 268.574C348.103 268.574 347.679 268.695 347.351 268.937C347.027 269.178 346.826 269.515 346.749 269.948H345.874C345.924 269.301 346.198 268.777 346.694 268.376C347.196 267.975 347.845 267.774 348.643 267.774C349.454 267.774 350.096 267.986 350.57 268.41C351.044 268.834 351.281 269.408 351.281 270.133V275H350.42V273.646H350.399C350.203 274.089 349.882 274.444 349.436 274.713C348.989 274.982 348.501 275.116 347.973 275.116ZM360.188 271.438H355.704V270.591H360.188V271.438ZM365.493 275H361.925V265.136H365.473C366.32 265.136 367.006 265.359 367.53 265.806C368.054 266.252 368.316 266.84 368.316 267.569C368.316 268.116 368.146 268.599 367.804 269.019C367.466 269.438 367.036 269.695 366.512 269.791V269.839C367.204 269.921 367.763 270.183 368.187 270.625C368.615 271.062 368.829 271.618 368.829 272.293C368.829 273.136 368.533 273.799 367.94 274.282C367.348 274.761 366.532 275 365.493 275ZM362.854 265.963V269.518H365.001C365.748 269.518 366.329 269.356 366.744 269.032C367.163 268.709 367.373 268.255 367.373 267.672C367.373 267.134 367.186 266.715 366.812 266.414C366.443 266.113 365.931 265.963 365.274 265.963H362.854ZM362.854 274.173H365.363C366.165 274.173 366.783 274.007 367.216 273.674C367.653 273.337 367.872 272.86 367.872 272.245C367.872 271.63 367.644 271.156 367.188 270.823C366.737 270.491 366.088 270.324 365.24 270.324H362.854V274.173ZM372.63 275V266.141H372.603C372.539 266.182 372.108 266.48 371.311 267.036C370.513 267.588 370.062 267.895 369.957 267.959V266.961C370.039 266.911 370.477 266.61 371.27 266.059C372.062 265.507 372.511 265.2 372.616 265.136H373.532V275H372.63ZM380.587 275V272.771H375.583V271.917C376.595 270.217 378.11 267.952 380.129 265.122H381.496V271.944H382.966V272.771H381.496V275H380.587ZM376.526 271.917V271.944H380.587V265.942H380.573C378.914 268.239 377.565 270.231 376.526 271.917Z" fill="#FF9500"/>
<path d="M677.56 343H673.991V333.136H677.539C678.387 333.136 679.073 333.359 679.597 333.806C680.121 334.252 680.383 334.84 680.383 335.569C680.383 336.116 680.212 336.599 679.87 337.019C679.533 337.438 679.102 337.695 678.578 337.791V337.839C679.271 337.921 679.829 338.183 680.253 338.625C680.681 339.062 680.896 339.618 680.896 340.293C680.896 341.136 680.599 341.799 680.007 342.282C679.414 342.761 678.599 343 677.56 343ZM674.921 333.963V337.518H677.067C677.815 337.518 678.396 337.356 678.811 337.032C679.23 336.709 679.439 336.255 679.439 335.672C679.439 335.134 679.253 334.715 678.879 334.414C678.51 334.113 677.997 333.963 677.341 333.963H674.921ZM674.921 342.173H677.43C678.232 342.173 678.849 342.007 679.282 341.674C679.72 341.337 679.938 340.86 679.938 340.245C679.938 339.63 679.711 339.156 679.255 338.823C678.804 338.491 678.154 338.324 677.307 338.324H674.921V342.173ZM688.292 343V335.891H689.188V343H688.292ZM684.648 339.056H683.117V342.248H684.648C685.163 342.248 685.574 342.102 685.879 341.811C686.189 341.519 686.344 341.132 686.344 340.648C686.344 340.165 686.189 339.78 685.879 339.493C685.574 339.201 685.163 339.056 684.648 339.056ZM682.222 343V335.891H683.117V338.304H684.662C685.446 338.304 686.07 338.516 686.535 338.939C687.005 339.359 687.239 339.928 687.239 340.648C687.239 341.368 687.005 341.94 686.535 342.364C686.07 342.788 685.446 343 684.662 343H682.222ZM696.037 335.891V336.643H693.617V343H692.722V336.643H690.302V335.891H696.037ZM699.318 339.575H700.911V336.643H699.318C698.799 336.643 698.386 336.777 698.081 337.046C697.776 337.315 697.623 337.682 697.623 338.146C697.623 338.57 697.778 338.914 698.088 339.179C698.398 339.443 698.808 339.575 699.318 339.575ZM700.911 343V340.327H699.421L697.473 343H696.427L698.498 340.177C697.947 340.063 697.514 339.828 697.199 339.473C696.885 339.117 696.728 338.68 696.728 338.16C696.728 337.463 696.96 336.911 697.425 336.506C697.894 336.096 698.523 335.891 699.312 335.891H701.807V343H700.911ZM709.005 339.268L712.45 343H711.268L708.109 339.534H708.068V343H707.173V339.534H707.139L703.98 343H702.818L706.243 339.281L702.928 335.891H704.062L707.139 339.083H707.173V335.891H708.068V339.083H708.109L711.186 335.891H712.307L709.005 339.268ZM715.314 339.274L719.047 343H717.857L714.398 339.534H714.357V343H713.462V335.891H714.357V339.083H714.398L717.769 335.891H718.91L715.314 339.274ZM722.157 342.337C722.782 342.337 723.308 342.143 723.736 341.756C724.165 341.368 724.379 340.892 724.379 340.327V339.541L722.273 339.685C721.713 339.721 721.282 339.858 720.981 340.095C720.681 340.327 720.53 340.639 720.53 341.031C720.53 341.419 720.681 341.733 720.981 341.975C721.282 342.216 721.674 342.337 722.157 342.337ZM721.973 343.116C721.271 343.116 720.701 342.925 720.264 342.542C719.831 342.155 719.614 341.651 719.614 341.031C719.614 340.421 719.833 339.938 720.271 339.582C720.713 339.227 721.344 339.021 722.164 338.967L724.379 338.83V338.215C724.379 337.7 724.224 337.299 723.914 337.012C723.604 336.72 723.174 336.574 722.622 336.574C722.103 336.574 721.679 336.695 721.351 336.937C721.027 337.178 720.826 337.515 720.749 337.948H719.874C719.924 337.301 720.198 336.777 720.694 336.376C721.196 335.975 721.845 335.774 722.643 335.774C723.454 335.774 724.096 335.986 724.57 336.41C725.044 336.834 725.281 337.408 725.281 338.133V343H724.42V341.646H724.399C724.203 342.089 723.882 342.444 723.436 342.713C722.989 342.982 722.501 343.116 721.973 343.116ZM734.188 339.438H729.704V338.591H734.188V339.438ZM739.493 343H735.925V333.136H739.473C740.32 333.136 741.006 333.359 741.53 333.806C742.054 334.252 742.316 334.84 742.316 335.569C742.316 336.116 742.146 336.599 741.804 337.019C741.466 337.438 741.036 337.695 740.512 337.791V337.839C741.204 337.921 741.763 338.183 742.187 338.625C742.615 339.062 742.829 339.618 742.829 340.293C742.829 341.136 742.533 341.799 741.94 342.282C741.348 342.761 740.532 343 739.493 343ZM736.854 333.963V337.518H739.001C739.748 337.518 740.329 337.356 740.744 337.032C741.163 336.709 741.373 336.255 741.373 335.672C741.373 335.134 741.186 334.715 740.812 334.414C740.443 334.113 739.931 333.963 739.274 333.963H736.854ZM736.854 342.173H739.363C740.165 342.173 740.783 342.007 741.216 341.674C741.653 341.337 741.872 340.86 741.872 340.245C741.872 339.63 741.644 339.156 741.188 338.823C740.737 338.491 740.088 338.324 739.24 338.324H736.854V342.173ZM744.101 335.897C744.105 335.059 744.406 334.364 745.003 333.812C745.604 333.257 746.356 332.979 747.259 332.979C748.12 332.979 748.847 333.238 749.439 333.758C750.032 334.277 750.328 334.915 750.328 335.672C750.328 336.21 750.178 336.731 749.877 337.237C749.581 337.739 749.022 338.415 748.202 339.268L745.454 342.139V342.166H750.581V343H744.148V342.344L747.635 338.659C748.341 337.916 748.811 337.349 749.043 336.957C749.28 336.565 749.398 336.155 749.398 335.727C749.398 335.189 749.189 334.733 748.77 334.359C748.35 333.986 747.838 333.799 747.231 333.799C746.598 333.799 746.069 333.999 745.646 334.4C745.226 334.797 745.012 335.296 745.003 335.897V335.904H744.101V335.897Z" fill="#FF9500"/>
<path d="M225.56 543H221.991V533.136H225.539C226.387 533.136 227.073 533.359 227.597 533.806C228.121 534.252 228.383 534.84 228.383 535.569C228.383 536.116 228.212 536.599 227.87 537.019C227.533 537.438 227.102 537.695 226.578 537.791V537.839C227.271 537.921 227.829 538.183 228.253 538.625C228.681 539.062 228.896 539.618 228.896 540.293C228.896 541.136 228.599 541.799 228.007 542.282C227.414 542.761 226.599 543 225.56 543ZM222.921 533.963V537.518H225.067C225.815 537.518 226.396 537.356 226.811 537.032C227.23 536.709 227.439 536.255 227.439 535.672C227.439 535.134 227.253 534.715 226.879 534.414C226.51 534.113 225.997 533.963 225.341 533.963H222.921ZM222.921 542.173H225.43C226.232 542.173 226.849 542.007 227.282 541.674C227.72 541.337 227.938 540.86 227.938 540.245C227.938 539.63 227.711 539.156 227.255 538.823C226.804 538.491 226.154 538.324 225.307 538.324H222.921V542.173ZM236.292 543V535.891H237.188V543H236.292ZM232.648 539.056H231.117V542.248H232.648C233.163 542.248 233.574 542.102 233.879 541.811C234.189 541.519 234.344 541.132 234.344 540.648C234.344 540.165 234.189 539.78 233.879 539.493C233.574 539.201 233.163 539.056 232.648 539.056ZM230.222 543V535.891H231.117V538.304H232.662C233.446 538.304 234.07 538.516 234.535 538.939C235.005 539.359 235.239 539.928 235.239 540.648C235.239 541.368 235.005 541.94 234.535 542.364C234.07 542.788 233.446 543 232.662 543H230.222ZM244.037 535.891V536.643H241.617V543H240.722V536.643H238.302V535.891H244.037ZM247.318 539.575H248.911V536.643H247.318C246.799 536.643 246.386 536.777 246.081 537.046C245.776 537.315 245.623 537.682 245.623 538.146C245.623 538.57 245.778 538.914 246.088 539.179C246.398 539.443 246.808 539.575 247.318 539.575ZM248.911 543V540.327H247.421L245.473 543H244.427L246.498 540.177C245.947 540.063 245.514 539.828 245.199 539.473C244.885 539.117 244.728 538.68 244.728 538.16C244.728 537.463 244.96 536.911 245.425 536.506C245.894 536.096 246.523 535.891 247.312 535.891H249.807V543H248.911ZM257.005 539.268L260.45 543H259.268L256.109 539.534H256.068V543H255.173V539.534H255.139L251.98 543H250.818L254.243 539.281L250.928 535.891H252.062L255.139 539.083H255.173V535.891H256.068V539.083H256.109L259.186 535.891H260.307L257.005 539.268ZM263.314 539.274L267.047 543H265.857L262.398 539.534H262.357V543H261.462V535.891H262.357V539.083H262.398L265.769 535.891H266.91L263.314 539.274ZM270.157 542.337C270.782 542.337 271.308 542.143 271.736 541.756C272.165 541.368 272.379 540.892 272.379 540.327V539.541L270.273 539.685C269.713 539.721 269.282 539.858 268.981 540.095C268.681 540.327 268.53 540.639 268.53 541.031C268.53 541.419 268.681 541.733 268.981 541.975C269.282 542.216 269.674 542.337 270.157 542.337ZM269.973 543.116C269.271 543.116 268.701 542.925 268.264 542.542C267.831 542.155 267.614 541.651 267.614 541.031C267.614 540.421 267.833 539.938 268.271 539.582C268.713 539.227 269.344 539.021 270.164 538.967L272.379 538.83V538.215C272.379 537.7 272.224 537.299 271.914 537.012C271.604 536.72 271.174 536.574 270.622 536.574C270.103 536.574 269.679 536.695 269.351 536.937C269.027 537.178 268.826 537.515 268.749 537.948H267.874C267.924 537.301 268.198 536.777 268.694 536.376C269.196 535.975 269.845 535.774 270.643 535.774C271.454 535.774 272.096 535.986 272.57 536.41C273.044 536.834 273.281 537.408 273.281 538.133V543H272.42V541.646H272.399C272.203 542.089 271.882 542.444 271.436 542.713C270.989 542.982 270.501 543.116 269.973 543.116ZM282.188 539.438H277.704V538.591H282.188V539.438ZM287.493 543H283.925V533.136H287.473C288.32 533.136 289.006 533.359 289.53 533.806C290.054 534.252 290.316 534.84 290.316 535.569C290.316 536.116 290.146 536.599 289.804 537.019C289.466 537.438 289.036 537.695 288.512 537.791V537.839C289.204 537.921 289.763 538.183 290.187 538.625C290.615 539.062 290.829 539.618 290.829 540.293C290.829 541.136 290.533 541.799 289.94 542.282C289.348 542.761 288.532 543 287.493 543ZM284.854 533.963V537.518H287.001C287.748 537.518 288.329 537.356 288.744 537.032C289.163 536.709 289.373 536.255 289.373 535.672C289.373 535.134 289.186 534.715 288.812 534.414C288.443 534.113 287.931 533.963 287.274 533.963H284.854ZM284.854 542.173H287.363C288.165 542.173 288.783 542.007 289.216 541.674C289.653 541.337 289.872 540.86 289.872 540.245C289.872 539.63 289.644 539.156 289.188 538.823C288.737 538.491 288.088 538.324 287.24 538.324H284.854V542.173ZM294.042 538.304V537.511H295.19C295.833 537.511 296.357 537.333 296.763 536.978C297.168 536.622 297.371 536.169 297.371 535.617C297.371 535.075 297.177 534.637 296.79 534.305C296.407 533.967 295.888 533.799 295.231 533.799C294.621 533.799 294.115 533.967 293.714 534.305C293.313 534.642 293.087 535.084 293.037 535.631H292.135C292.194 534.838 292.508 534.198 293.078 533.71C293.652 533.222 294.384 532.979 295.272 532.979C296.143 532.979 296.868 533.218 297.446 533.696C298.025 534.17 298.314 534.772 298.314 535.501C298.314 536.116 298.13 536.633 297.761 537.053C297.392 537.472 296.89 537.739 296.257 537.853V537.88C297.013 537.925 297.615 538.167 298.062 538.604C298.513 539.037 298.738 539.603 298.738 540.3C298.738 540.847 298.588 541.339 298.287 541.776C297.986 542.214 297.576 542.553 297.057 542.795C296.537 543.036 295.961 543.157 295.327 543.157C294.343 543.157 293.538 542.904 292.914 542.398C292.29 541.893 291.962 541.241 291.93 540.443H292.832C292.868 540.999 293.115 541.455 293.57 541.811C294.031 542.161 294.614 542.337 295.32 542.337C296.036 542.337 296.626 542.148 297.091 541.77C297.556 541.391 297.788 540.91 297.788 540.327C297.788 539.698 297.56 539.204 297.104 538.844C296.649 538.484 296.024 538.304 295.231 538.304H294.042ZM303.585 535.774C304.487 535.774 305.216 536.112 305.772 536.786C306.333 537.456 306.613 538.342 306.613 539.445C306.613 540.548 306.335 541.437 305.779 542.111C305.228 542.781 304.503 543.116 303.605 543.116C303.045 543.116 302.548 542.973 302.115 542.686C301.687 542.394 301.377 542.011 301.186 541.537H301.158V545.352H300.256V535.891H301.11V537.395H301.138C301.338 536.911 301.655 536.522 302.088 536.226C302.521 535.925 303.02 535.774 303.585 535.774ZM303.428 542.316C304.116 542.316 304.665 542.057 305.075 541.537C305.485 541.013 305.69 540.316 305.69 539.445C305.69 538.579 305.483 537.884 305.068 537.36C304.658 536.836 304.111 536.574 303.428 536.574C302.753 536.574 302.206 536.841 301.787 537.374C301.368 537.903 301.158 538.593 301.158 539.445C301.158 540.302 301.368 540.995 301.787 541.523C302.206 542.052 302.753 542.316 303.428 542.316Z" fill="#FF9500"/>
<path d="M1131.56 543H1127.99V533.136H1131.54C1132.39 533.136 1133.07 533.359 1133.6 533.806C1134.12 534.252 1134.38 534.84 1134.38 535.569C1134.38 536.116 1134.21 536.599 1133.87 537.019C1133.53 537.438 1133.1 537.695 1132.58 537.791V537.839C1133.27 537.921 1133.83 538.183 1134.25 538.625C1134.68 539.062 1134.9 539.618 1134.9 540.293C1134.9 541.136 1134.6 541.799 1134.01 542.282C1133.41 542.761 1132.6 543 1131.56 543ZM1128.92 533.963V537.518H1131.07C1131.81 537.518 1132.4 537.356 1132.81 537.032C1133.23 536.709 1133.44 536.255 1133.44 535.672C1133.44 535.134 1133.25 534.715 1132.88 534.414C1132.51 534.113 1132 533.963 1131.34 533.963H1128.92ZM1128.92 542.173H1131.43C1132.23 542.173 1132.85 542.007 1133.28 541.674C1133.72 541.337 1133.94 540.86 1133.94 540.245C1133.94 539.63 1133.71 539.156 1133.25 538.823C1132.8 538.491 1132.15 538.324 1131.31 538.324H1128.92V542.173ZM1142.29 543V535.891H1143.19V543H1142.29ZM1138.65 539.056H1137.12V542.248H1138.65C1139.16 542.248 1139.57 542.102 1139.88 541.811C1140.19 541.519 1140.34 541.132 1140.34 540.648C1140.34 540.165 1140.19 539.78 1139.88 539.493C1139.57 539.201 1139.16 539.056 1138.65 539.056ZM1136.22 543V535.891H1137.12V538.304H1138.66C1139.45 538.304 1140.07 538.516 1140.54 538.939C1141 539.359 1141.24 539.928 1141.24 540.648C1141.24 541.368 1141 541.94 1140.54 542.364C1140.07 542.788 1139.45 543 1138.66 543H1136.22ZM1150.04 535.891V536.643H1147.62V543H1146.72V536.643H1144.3V535.891H1150.04ZM1153.32 539.575H1154.91V536.643H1153.32C1152.8 536.643 1152.39 536.777 1152.08 537.046C1151.78 537.315 1151.62 537.682 1151.62 538.146C1151.62 538.57 1151.78 538.914 1152.09 539.179C1152.4 539.443 1152.81 539.575 1153.32 539.575ZM1154.91 543V540.327H1153.42L1151.47 543H1150.43L1152.5 540.177C1151.95 540.063 1151.51 539.828 1151.2 539.473C1150.88 539.117 1150.73 538.68 1150.73 538.16C1150.73 537.463 1150.96 536.911 1151.42 536.506C1151.89 536.096 1152.52 535.891 1153.31 535.891H1155.81V543H1154.91ZM1163 539.268L1166.45 543H1165.27L1162.11 539.534H1162.07V543H1161.17V539.534H1161.14L1157.98 543H1156.82L1160.24 539.281L1156.93 535.891H1158.06L1161.14 539.083H1161.17V535.891H1162.07V539.083H1162.11L1165.19 535.891H1166.31L1163 539.268ZM1169.31 539.274L1173.05 543H1171.86L1168.4 539.534H1168.36V543H1167.46V535.891H1168.36V539.083H1168.4L1171.77 535.891H1172.91L1169.31 539.274ZM1176.16 542.337C1176.78 542.337 1177.31 542.143 1177.74 541.756C1178.16 541.368 1178.38 540.892 1178.38 540.327V539.541L1176.27 539.685C1175.71 539.721 1175.28 539.858 1174.98 540.095C1174.68 540.327 1174.53 540.639 1174.53 541.031C1174.53 541.419 1174.68 541.733 1174.98 541.975C1175.28 542.216 1175.67 542.337 1176.16 542.337ZM1175.97 543.116C1175.27 543.116 1174.7 542.925 1174.26 542.542C1173.83 542.155 1173.61 541.651 1173.61 541.031C1173.61 540.421 1173.83 539.938 1174.27 539.582C1174.71 539.227 1175.34 539.021 1176.16 538.967L1178.38 538.83V538.215C1178.38 537.7 1178.22 537.299 1177.91 537.012C1177.6 536.72 1177.17 536.574 1176.62 536.574C1176.1 536.574 1175.68 536.695 1175.35 536.937C1175.03 537.178 1174.83 537.515 1174.75 537.948H1173.87C1173.92 537.301 1174.2 536.777 1174.69 536.376C1175.2 535.975 1175.85 535.774 1176.64 535.774C1177.45 535.774 1178.1 535.986 1178.57 536.41C1179.04 536.834 1179.28 537.408 1179.28 538.133V543H1178.42V541.646H1178.4C1178.2 542.089 1177.88 542.444 1177.44 542.713C1176.99 542.982 1176.5 543.116 1175.97 543.116ZM1188.19 539.438H1183.7V538.591H1188.19V539.438ZM1193.49 543H1189.92V533.136H1193.47C1194.32 533.136 1195.01 533.359 1195.53 533.806C1196.05 534.252 1196.32 534.84 1196.32 535.569C1196.32 536.116 1196.15 536.599 1195.8 537.019C1195.47 537.438 1195.04 537.695 1194.51 537.791V537.839C1195.2 537.921 1195.76 538.183 1196.19 538.625C1196.61 539.062 1196.83 539.618 1196.83 540.293C1196.83 541.136 1196.53 541.799 1195.94 542.282C1195.35 542.761 1194.53 543 1193.49 543ZM1190.85 533.963V537.518H1193C1193.75 537.518 1194.33 537.356 1194.74 537.032C1195.16 536.709 1195.37 536.255 1195.37 535.672C1195.37 535.134 1195.19 534.715 1194.81 534.414C1194.44 534.113 1193.93 533.963 1193.27 533.963H1190.85ZM1190.85 542.173H1193.36C1194.17 542.173 1194.78 542.007 1195.22 541.674C1195.65 541.337 1195.87 540.86 1195.87 540.245C1195.87 539.63 1195.64 539.156 1195.19 538.823C1194.74 538.491 1194.09 538.324 1193.24 538.324H1190.85V542.173ZM1201.61 543.157C1200.95 543.157 1200.36 542.995 1199.84 542.672C1199.32 542.348 1198.9 541.888 1198.6 541.291C1198.16 540.521 1197.94 539.516 1197.94 538.276C1197.94 536.622 1198.27 535.326 1198.93 534.387C1199.59 533.448 1200.51 532.979 1201.68 532.979C1202.5 532.979 1203.2 533.206 1203.78 533.662C1204.36 534.118 1204.72 534.724 1204.86 535.48H1203.92C1203.79 534.979 1203.53 534.576 1203.12 534.271C1202.71 533.961 1202.23 533.806 1201.68 533.806C1200.77 533.806 1200.07 534.209 1199.58 535.016C1199.08 535.818 1198.84 536.95 1198.84 538.413H1198.86C1199.06 537.857 1199.43 537.406 1199.96 537.06C1200.5 536.713 1201.1 536.54 1201.76 536.54C1202.7 536.54 1203.48 536.85 1204.1 537.47C1204.73 538.09 1205.04 538.867 1205.04 539.801C1205.04 540.767 1204.72 541.569 1204.07 542.207C1203.42 542.84 1202.6 543.157 1201.61 543.157ZM1201.61 542.323C1202.3 542.323 1202.89 542.082 1203.36 541.599C1203.85 541.116 1204.09 540.525 1204.09 539.828C1204.09 539.122 1203.85 538.536 1203.38 538.071C1202.92 537.602 1202.33 537.367 1201.61 537.367C1200.91 537.367 1200.32 537.6 1199.83 538.064C1199.35 538.525 1199.11 539.09 1199.11 539.76C1199.11 540.48 1199.34 541.088 1199.82 541.585C1200.31 542.077 1200.9 542.323 1201.61 542.323Z" fill="#FF9500"/>
<path d="M679.56 543H675.991V533.136H679.539C680.387 533.136 681.073 533.359 681.597 533.806C682.121 534.252 682.383 534.84 682.383 535.569C682.383 536.116 682.212 536.599 681.87 537.019C681.533 537.438 681.102 537.695 680.578 537.791V537.839C681.271 537.921 681.829 538.183 682.253 538.625C682.681 539.062 682.896 539.618 682.896 540.293C682.896 541.136 682.599 541.799 682.007 542.282C681.414 542.761 680.599 543 679.56 543ZM676.921 533.963V537.518H679.067C679.815 537.518 680.396 537.356 680.811 537.032C681.23 536.709 681.439 536.255 681.439 535.672C681.439 535.134 681.253 534.715 680.879 534.414C680.51 534.113 679.997 533.963 679.341 533.963H676.921ZM676.921 542.173H679.43C680.232 542.173 680.849 542.007 681.282 541.674C681.72 541.337 681.938 540.86 681.938 540.245C681.938 539.63 681.711 539.156 681.255 538.823C680.804 538.491 680.154 538.324 679.307 538.324H676.921V542.173ZM690.292 543V535.891H691.188V543H690.292ZM686.648 539.056H685.117V542.248H686.648C687.163 542.248 687.574 542.102 687.879 541.811C688.189 541.519 688.344 541.132 688.344 540.648C688.344 540.165 688.189 539.78 687.879 539.493C687.574 539.201 687.163 539.056 686.648 539.056ZM684.222 543V535.891H685.117V538.304H686.662C687.446 538.304 688.07 538.516 688.535 538.939C689.005 539.359 689.239 539.928 689.239 540.648C689.239 541.368 689.005 541.94 688.535 542.364C688.07 542.788 687.446 543 686.662 543H684.222ZM698.037 535.891V536.643H695.617V543H694.722V536.643H692.302V535.891H698.037ZM701.318 539.575H702.911V536.643H701.318C700.799 536.643 700.386 536.777 700.081 537.046C699.776 537.315 699.623 537.682 699.623 538.146C699.623 538.57 699.778 538.914 700.088 539.179C700.398 539.443 700.808 539.575 701.318 539.575ZM702.911 543V540.327H701.421L699.473 543H698.427L700.498 540.177C699.947 540.063 699.514 539.828 699.199 539.473C698.885 539.117 698.728 538.68 698.728 538.16C698.728 537.463 698.96 536.911 699.425 536.506C699.894 536.096 700.523 535.891 701.312 535.891H703.807V543H702.911ZM711.005 539.268L714.45 543H713.268L710.109 539.534H710.068V543H709.173V539.534H709.139L705.98 543H704.818L708.243 539.281L704.928 535.891H706.062L709.139 539.083H709.173V535.891H710.068V539.083H710.109L713.186 535.891H714.307L711.005 539.268ZM717.314 539.274L721.047 543H719.857L716.398 539.534H716.357V543H715.462V535.891H716.357V539.083H716.398L719.769 535.891H720.91L717.314 539.274ZM724.157 542.337C724.782 542.337 725.308 542.143 725.736 541.756C726.165 541.368 726.379 540.892 726.379 540.327V539.541L724.273 539.685C723.713 539.721 723.282 539.858 722.981 540.095C722.681 540.327 722.53 540.639 722.53 541.031C722.53 541.419 722.681 541.733 722.981 541.975C723.282 542.216 723.674 542.337 724.157 542.337ZM723.973 543.116C723.271 543.116 722.701 542.925 722.264 542.542C721.831 542.155 721.614 541.651 721.614 541.031C721.614 540.421 721.833 539.938 722.271 539.582C722.713 539.227 723.344 539.021 724.164 538.967L726.379 538.83V538.215C726.379 537.7 726.224 537.299 725.914 537.012C725.604 536.72 725.174 536.574 724.622 536.574C724.103 536.574 723.679 536.695 723.351 536.937C723.027 537.178 722.826 537.515 722.749 537.948H721.874C721.924 537.301 722.198 536.777 722.694 536.376C723.196 535.975 723.845 535.774 724.643 535.774C725.454 535.774 726.096 535.986 726.57 536.41C727.044 536.834 727.281 537.408 727.281 538.133V543H726.42V541.646H726.399C726.203 542.089 725.882 542.444 725.436 542.713C724.989 542.982 724.501 543.116 723.973 543.116ZM736.188 539.438H731.704V538.591H736.188V539.438ZM741.493 543H737.925V533.136H741.473C742.32 533.136 743.006 533.359 743.53 533.806C744.054 534.252 744.316 534.84 744.316 535.569C744.316 536.116 744.146 536.599 743.804 537.019C743.466 537.438 743.036 537.695 742.512 537.791V537.839C743.204 537.921 743.763 538.183 744.187 538.625C744.615 539.062 744.829 539.618 744.829 540.293C744.829 541.136 744.533 541.799 743.94 542.282C743.348 542.761 742.532 543 741.493 543ZM738.854 533.963V537.518H741.001C741.748 537.518 742.329 537.356 742.744 537.032C743.163 536.709 743.373 536.255 743.373 535.672C743.373 535.134 743.186 534.715 742.812 534.414C742.443 534.113 741.931 533.963 741.274 533.963H738.854ZM738.854 542.173H741.363C742.165 542.173 742.783 542.007 743.216 541.674C743.653 541.337 743.872 540.86 743.872 540.245C743.872 539.63 743.644 539.156 743.188 538.823C742.737 538.491 742.088 538.324 741.24 538.324H738.854V542.173ZM749.45 543.157C748.858 543.157 748.315 543.041 747.823 542.809C747.336 542.576 746.944 542.253 746.647 541.838C746.351 541.423 746.183 540.954 746.142 540.43H747.058C747.121 540.981 747.379 541.437 747.83 541.797C748.281 542.152 748.826 542.33 749.464 542.33C750.198 542.33 750.799 542.098 751.269 541.633C751.743 541.163 751.979 540.566 751.979 539.842C751.979 539.122 751.745 538.525 751.275 538.051C750.811 537.577 750.22 537.34 749.505 537.34C749.008 537.34 748.555 537.451 748.145 537.675C747.734 537.898 747.415 538.206 747.188 538.598H746.292L746.853 533.136H752.321V533.97H747.625L747.256 537.613H747.283C747.525 537.276 747.855 537.012 748.274 536.82C748.698 536.624 749.159 536.526 749.655 536.526C750.594 536.526 751.371 536.839 751.986 537.463C752.606 538.087 752.916 538.873 752.916 539.821C752.916 540.797 752.59 541.596 751.938 542.221C751.287 542.845 750.457 543.157 749.45 543.157Z" fill="#FF9500"/>
<path d="M1127.56 143H1123.99V133.136H1127.54C1128.39 133.136 1129.07 133.359 1129.6 133.806C1130.12 134.252 1130.38 134.84 1130.38 135.569C1130.38 136.116 1130.21 136.599 1129.87 137.019C1129.53 137.438 1129.1 137.695 1128.58 137.791V137.839C1129.27 137.921 1129.83 138.183 1130.25 138.625C1130.68 139.062 1130.9 139.618 1130.9 140.293C1130.9 141.136 1130.6 141.799 1130.01 142.282C1129.41 142.761 1128.6 143 1127.56 143ZM1124.92 133.963V137.518H1127.07C1127.81 137.518 1128.4 137.356 1128.81 137.032C1129.23 136.709 1129.44 136.255 1129.44 135.672C1129.44 135.134 1129.25 134.715 1128.88 134.414C1128.51 134.113 1128 133.963 1127.34 133.963H1124.92ZM1124.92 142.173H1127.43C1128.23 142.173 1128.85 142.007 1129.28 141.674C1129.72 141.337 1129.94 140.86 1129.94 140.245C1129.94 139.63 1129.71 139.156 1129.25 138.823C1128.8 138.491 1128.15 138.324 1127.31 138.324H1124.92V142.173ZM1138.29 143V135.891H1139.19V143H1138.29ZM1134.65 139.056H1133.12V142.248H1134.65C1135.16 142.248 1135.57 142.102 1135.88 141.811C1136.19 141.519 1136.34 141.132 1136.34 140.648C1136.34 140.165 1136.19 139.78 1135.88 139.493C1135.57 139.201 1135.16 139.056 1134.65 139.056ZM1132.22 143V135.891H1133.12V138.304H1134.66C1135.45 138.304 1136.07 138.516 1136.54 138.939C1137 139.359 1137.24 139.928 1137.24 140.648C1137.24 141.368 1137 141.94 1136.54 142.364C1136.07 142.788 1135.45 143 1134.66 143H1132.22ZM1146.04 135.891V136.643H1143.62V143H1142.72V136.643H1140.3V135.891H1146.04ZM1149.32 139.575H1150.91V136.643H1149.32C1148.8 136.643 1148.39 136.777 1148.08 137.046C1147.78 137.315 1147.62 137.682 1147.62 138.146C1147.62 138.57 1147.78 138.914 1148.09 139.179C1148.4 139.443 1148.81 139.575 1149.32 139.575ZM1150.91 143V140.327H1149.42L1147.47 143H1146.43L1148.5 140.177C1147.95 140.063 1147.51 139.828 1147.2 139.473C1146.88 139.117 1146.73 138.68 1146.73 138.16C1146.73 137.463 1146.96 136.911 1147.42 136.506C1147.89 136.096 1148.52 135.891 1149.31 135.891H1151.81V143H1150.91ZM1159 139.268L1162.45 143H1161.27L1158.11 139.534H1158.07V143H1157.17V139.534H1157.14L1153.98 143H1152.82L1156.24 139.281L1152.93 135.891H1154.06L1157.14 139.083H1157.17V135.891H1158.07V139.083H1158.11L1161.19 135.891H1162.31L1159 139.268ZM1165.31 139.274L1169.05 143H1167.86L1164.4 139.534H1164.36V143H1163.46V135.891H1164.36V139.083H1164.4L1167.77 135.891H1168.91L1165.31 139.274ZM1172.16 142.337C1172.78 142.337 1173.31 142.143 1173.74 141.756C1174.16 141.368 1174.38 140.892 1174.38 140.327V139.541L1172.27 139.685C1171.71 139.721 1171.28 139.858 1170.98 140.095C1170.68 140.327 1170.53 140.639 1170.53 141.031C1170.53 141.419 1170.68 141.733 1170.98 141.975C1171.28 142.216 1171.67 142.337 1172.16 142.337ZM1171.97 143.116C1171.27 143.116 1170.7 142.925 1170.26 142.542C1169.83 142.155 1169.61 141.651 1169.61 141.031C1169.61 140.421 1169.83 139.938 1170.27 139.582C1170.71 139.227 1171.34 139.021 1172.16 138.967L1174.38 138.83V138.215C1174.38 137.7 1174.22 137.299 1173.91 137.012C1173.6 136.72 1173.17 136.574 1172.62 136.574C1172.1 136.574 1171.68 136.695 1171.35 136.937C1171.03 137.178 1170.83 137.515 1170.75 137.948H1169.87C1169.92 137.301 1170.2 136.777 1170.69 136.376C1171.2 135.975 1171.85 135.774 1172.64 135.774C1173.45 135.774 1174.1 135.986 1174.57 136.41C1175.04 136.834 1175.28 137.408 1175.28 138.133V143H1174.42V141.646H1174.4C1174.2 142.089 1173.88 142.444 1173.44 142.713C1172.99 142.982 1172.5 143.116 1171.97 143.116ZM1184.19 139.438H1179.7V138.591H1184.19V139.438ZM1189.49 143H1185.92V133.136H1189.47C1190.32 133.136 1191.01 133.359 1191.53 133.806C1192.05 134.252 1192.32 134.84 1192.32 135.569C1192.32 136.116 1192.15 136.599 1191.8 137.019C1191.47 137.438 1191.04 137.695 1190.51 137.791V137.839C1191.2 137.921 1191.76 138.183 1192.19 138.625C1192.61 139.062 1192.83 139.618 1192.83 140.293C1192.83 141.136 1192.53 141.799 1191.94 142.282C1191.35 142.761 1190.53 143 1189.49 143ZM1186.85 133.963V137.518H1189C1189.75 137.518 1190.33 137.356 1190.74 137.032C1191.16 136.709 1191.37 136.255 1191.37 135.672C1191.37 135.134 1191.19 134.715 1190.81 134.414C1190.44 134.113 1189.93 133.963 1189.27 133.963H1186.85ZM1186.85 142.173H1189.36C1190.17 142.173 1190.78 142.007 1191.22 141.674C1191.65 141.337 1191.87 140.86 1191.87 140.245C1191.87 139.63 1191.64 139.156 1191.19 138.823C1190.74 138.491 1190.09 138.324 1189.24 138.324H1186.85V142.173ZM1196.63 143V134.141H1196.6C1196.54 134.182 1196.11 134.48 1195.31 135.036C1194.51 135.588 1194.06 135.895 1193.96 135.959V134.961C1194.04 134.911 1194.48 134.61 1195.27 134.059C1196.06 133.507 1196.51 133.2 1196.62 133.136H1197.53V143H1196.63ZM1199.92 135.897C1199.93 135.059 1200.23 134.364 1200.83 133.812C1201.43 133.257 1202.18 132.979 1203.08 132.979C1203.94 132.979 1204.67 133.238 1205.26 133.758C1205.86 134.277 1206.15 134.915 1206.15 135.672C1206.15 136.21 1206 136.731 1205.7 137.237C1205.4 137.739 1204.85 138.415 1204.03 139.268L1201.28 142.139V142.166H1206.41V143H1199.97V142.344L1203.46 138.659C1204.17 137.916 1204.63 137.349 1204.87 136.957C1205.1 136.565 1205.22 136.155 1205.22 135.727C1205.22 135.189 1205.01 134.733 1204.59 134.359C1204.17 133.986 1203.66 133.799 1203.06 133.799C1202.42 133.799 1201.89 133.999 1201.47 134.4C1201.05 134.797 1200.84 135.296 1200.83 135.897V135.904H1199.92V135.897Z" fill="#FF9500"/>
<path d="M923.56 143H919.991V133.136H923.539C924.387 133.136 925.073 133.359 925.597 133.806C926.121 134.252 926.383 134.84 926.383 135.569C926.383 136.116 926.212 136.599 925.87 137.019C925.533 137.438 925.102 137.695 924.578 137.791V137.839C925.271 137.921 925.829 138.183 926.253 138.625C926.681 139.062 926.896 139.618 926.896 140.293C926.896 141.136 926.599 141.799 926.007 142.282C925.414 142.761 924.599 143 923.56 143ZM920.921 133.963V137.518H923.067C923.815 137.518 924.396 137.356 924.811 137.032C925.23 136.709 925.439 136.255 925.439 135.672C925.439 135.134 925.253 134.715 924.879 134.414C924.51 134.113 923.997 133.963 923.341 133.963H920.921ZM920.921 142.173H923.43C924.232 142.173 924.849 142.007 925.282 141.674C925.72 141.337 925.938 140.86 925.938 140.245C925.938 139.63 925.711 139.156 925.255 138.823C924.804 138.491 924.154 138.324 923.307 138.324H920.921V142.173ZM934.292 143V135.891H935.188V143H934.292ZM930.648 139.056H929.117V142.248H930.648C931.163 142.248 931.574 142.102 931.879 141.811C932.189 141.519 932.344 141.132 932.344 140.648C932.344 140.165 932.189 139.78 931.879 139.493C931.574 139.201 931.163 139.056 930.648 139.056ZM928.222 143V135.891H929.117V138.304H930.662C931.446 138.304 932.07 138.516 932.535 138.939C933.005 139.359 933.239 139.928 933.239 140.648C933.239 141.368 933.005 141.94 932.535 142.364C932.07 142.788 931.446 143 930.662 143H928.222ZM942.037 135.891V136.643H939.617V143H938.722V136.643H936.302V135.891H942.037ZM945.318 139.575H946.911V136.643H945.318C944.799 136.643 944.386 136.777 944.081 137.046C943.776 137.315 943.623 137.682 943.623 138.146C943.623 138.57 943.778 138.914 944.088 139.179C944.398 139.443 944.808 139.575 945.318 139.575ZM946.911 143V140.327H945.421L943.473 143H942.427L944.498 140.177C943.947 140.063 943.514 139.828 943.199 139.473C942.885 139.117 942.728 138.68 942.728 138.16C942.728 137.463 942.96 136.911 943.425 136.506C943.894 136.096 944.523 135.891 945.312 135.891H947.807V143H946.911ZM955.005 139.268L958.45 143H957.268L954.109 139.534H954.068V143H953.173V139.534H953.139L949.98 143H948.818L952.243 139.281L948.928 135.891H950.062L953.139 139.083H953.173V135.891H954.068V139.083H954.109L957.186 135.891H958.307L955.005 139.268ZM961.314 139.274L965.047 143H963.857L960.398 139.534H960.357V143H959.462V135.891H960.357V139.083H960.398L963.769 135.891H964.91L961.314 139.274ZM968.157 142.337C968.782 142.337 969.308 142.143 969.736 141.756C970.165 141.368 970.379 140.892 970.379 140.327V139.541L968.273 139.685C967.713 139.721 967.282 139.858 966.981 140.095C966.681 140.327 966.53 140.639 966.53 141.031C966.53 141.419 966.681 141.733 966.981 141.975C967.282 142.216 967.674 142.337 968.157 142.337ZM967.973 143.116C967.271 143.116 966.701 142.925 966.264 142.542C965.831 142.155 965.614 141.651 965.614 141.031C965.614 140.421 965.833 139.938 966.271 139.582C966.713 139.227 967.344 139.021 968.164 138.967L970.379 138.83V138.215C970.379 137.7 970.224 137.299 969.914 137.012C969.604 136.72 969.174 136.574 968.622 136.574C968.103 136.574 967.679 136.695 967.351 136.937C967.027 137.178 966.826 137.515 966.749 137.948H965.874C965.924 137.301 966.198 136.777 966.694 136.376C967.196 135.975 967.845 135.774 968.643 135.774C969.454 135.774 970.096 135.986 970.57 136.41C971.044 136.834 971.281 137.408 971.281 138.133V143H970.42V141.646H970.399C970.203 142.089 969.882 142.444 969.436 142.713C968.989 142.982 968.501 143.116 967.973 143.116ZM980.188 139.438H975.704V138.591H980.188V139.438ZM985.493 143H981.925V133.136H985.473C986.32 133.136 987.006 133.359 987.53 133.806C988.054 134.252 988.316 134.84 988.316 135.569C988.316 136.116 988.146 136.599 987.804 137.019C987.466 137.438 987.036 137.695 986.512 137.791V137.839C987.204 137.921 987.763 138.183 988.187 138.625C988.615 139.062 988.829 139.618 988.829 140.293C988.829 141.136 988.533 141.799 987.94 142.282C987.348 142.761 986.532 143 985.493 143ZM982.854 133.963V137.518H985.001C985.748 137.518 986.329 137.356 986.744 137.032C987.163 136.709 987.373 136.255 987.373 135.672C987.373 135.134 987.186 134.715 986.812 134.414C986.443 134.113 985.931 133.963 985.274 133.963H982.854ZM982.854 142.173H985.363C986.165 142.173 986.783 142.007 987.216 141.674C987.653 141.337 987.872 140.86 987.872 140.245C987.872 139.63 987.644 139.156 987.188 138.823C986.737 138.491 986.088 138.324 985.24 138.324H982.854V142.173ZM992.63 143V134.141H992.603C992.539 134.182 992.108 134.48 991.311 135.036C990.513 135.588 990.062 135.895 989.957 135.959V134.961C990.039 134.911 990.477 134.61 991.27 134.059C992.062 133.507 992.511 133.2 992.616 133.136H993.532V143H992.63ZM998.536 143V134.141H998.509C998.445 134.182 998.014 134.48 997.217 135.036C996.419 135.588 995.968 135.895 995.863 135.959V134.961C995.945 134.911 996.383 134.61 997.176 134.059C997.969 133.507 998.418 133.2 998.522 133.136H999.438V143H998.536Z" fill="#FF9500"/>
<path d="M509.56 143H505.991V133.136H509.539C510.387 133.136 511.073 133.359 511.597 133.806C512.121 134.252 512.383 134.84 512.383 135.569C512.383 136.116 512.212 136.599 511.87 137.019C511.533 137.438 511.102 137.695 510.578 137.791V137.839C511.271 137.921 511.829 138.183 512.253 138.625C512.681 139.062 512.896 139.618 512.896 140.293C512.896 141.136 512.599 141.799 512.007 142.282C511.414 142.761 510.599 143 509.56 143ZM506.921 133.963V137.518H509.067C509.815 137.518 510.396 137.356 510.811 137.032C511.23 136.709 511.439 136.255 511.439 135.672C511.439 135.134 511.253 134.715 510.879 134.414C510.51 134.113 509.997 133.963 509.341 133.963H506.921ZM506.921 142.173H509.43C510.232 142.173 510.849 142.007 511.282 141.674C511.72 141.337 511.938 140.86 511.938 140.245C511.938 139.63 511.711 139.156 511.255 138.823C510.804 138.491 510.154 138.324 509.307 138.324H506.921V142.173ZM520.292 143V135.891H521.188V143H520.292ZM516.648 139.056H515.117V142.248H516.648C517.163 142.248 517.574 142.102 517.879 141.811C518.189 141.519 518.344 141.132 518.344 140.648C518.344 140.165 518.189 139.78 517.879 139.493C517.574 139.201 517.163 139.056 516.648 139.056ZM514.222 143V135.891H515.117V138.304H516.662C517.446 138.304 518.07 138.516 518.535 138.939C519.005 139.359 519.239 139.928 519.239 140.648C519.239 141.368 519.005 141.94 518.535 142.364C518.07 142.788 517.446 143 516.662 143H514.222ZM528.037 135.891V136.643H525.617V143H524.722V136.643H522.302V135.891H528.037ZM531.318 139.575H532.911V136.643H531.318C530.799 136.643 530.386 136.777 530.081 137.046C529.776 137.315 529.623 137.682 529.623 138.146C529.623 138.57 529.778 138.914 530.088 139.179C530.398 139.443 530.808 139.575 531.318 139.575ZM532.911 143V140.327H531.421L529.473 143H528.427L530.498 140.177C529.947 140.063 529.514 139.828 529.199 139.473C528.885 139.117 528.728 138.68 528.728 138.16C528.728 137.463 528.96 136.911 529.425 136.506C529.894 136.096 530.523 135.891 531.312 135.891H533.807V143H532.911ZM541.005 139.268L544.45 143H543.268L540.109 139.534H540.068V143H539.173V139.534H539.139L535.98 143H534.818L538.243 139.281L534.928 135.891H536.062L539.139 139.083H539.173V135.891H540.068V139.083H540.109L543.186 135.891H544.307L541.005 139.268ZM547.314 139.274L551.047 143H549.857L546.398 139.534H546.357V143H545.462V135.891H546.357V139.083H546.398L549.769 135.891H550.91L547.314 139.274ZM554.157 142.337C554.782 142.337 555.308 142.143 555.736 141.756C556.165 141.368 556.379 140.892 556.379 140.327V139.541L554.273 139.685C553.713 139.721 553.282 139.858 552.981 140.095C552.681 140.327 552.53 140.639 552.53 141.031C552.53 141.419 552.681 141.733 552.981 141.975C553.282 142.216 553.674 142.337 554.157 142.337ZM553.973 143.116C553.271 143.116 552.701 142.925 552.264 142.542C551.831 142.155 551.614 141.651 551.614 141.031C551.614 140.421 551.833 139.938 552.271 139.582C552.713 139.227 553.344 139.021 554.164 138.967L556.379 138.83V138.215C556.379 137.7 556.224 137.299 555.914 137.012C555.604 136.72 555.174 136.574 554.622 136.574C554.103 136.574 553.679 136.695 553.351 136.937C553.027 137.178 552.826 137.515 552.749 137.948H551.874C551.924 137.301 552.198 136.777 552.694 136.376C553.196 135.975 553.845 135.774 554.643 135.774C555.454 135.774 556.096 135.986 556.57 136.41C557.044 136.834 557.281 137.408 557.281 138.133V143H556.42V141.646H556.399C556.203 142.089 555.882 142.444 555.436 142.713C554.989 142.982 554.501 143.116 553.973 143.116ZM566.188 139.438H561.704V138.591H566.188V139.438ZM571.493 143H567.925V133.136H571.473C572.32 133.136 573.006 133.359 573.53 133.806C574.054 134.252 574.316 134.84 574.316 135.569C574.316 136.116 574.146 136.599 573.804 137.019C573.466 137.438 573.036 137.695 572.512 137.791V137.839C573.204 137.921 573.763 138.183 574.187 138.625C574.615 139.062 574.829 139.618 574.829 140.293C574.829 141.136 574.533 141.799 573.94 142.282C573.348 142.761 572.532 143 571.493 143ZM568.854 133.963V137.518H571.001C571.748 137.518 572.329 137.356 572.744 137.032C573.163 136.709 573.373 136.255 573.373 135.672C573.373 135.134 573.186 134.715 572.812 134.414C572.443 134.113 571.931 133.963 571.274 133.963H568.854ZM568.854 142.173H571.363C572.165 142.173 572.783 142.007 573.216 141.674C573.653 141.337 573.872 140.86 573.872 140.245C573.872 139.63 573.644 139.156 573.188 138.823C572.737 138.491 572.088 138.324 571.24 138.324H568.854V142.173ZM579.197 143.157C578.368 143.157 577.664 142.929 577.085 142.474C576.506 142.013 576.148 141.407 576.012 140.655H576.962C577.085 141.157 577.349 141.562 577.755 141.872C578.16 142.182 578.644 142.337 579.204 142.337C580.084 142.337 580.77 141.952 581.262 141.182C581.754 140.407 582.011 139.325 582.034 137.935C582.034 137.916 582.032 137.882 582.027 137.832C582.027 137.777 582.027 137.736 582.027 137.709H582.021H582.014C581.827 138.265 581.465 138.718 580.927 139.069C580.389 139.42 579.783 139.596 579.108 139.596C578.17 139.596 577.388 139.288 576.764 138.673C576.144 138.053 575.834 137.281 575.834 136.355C575.834 135.38 576.158 134.574 576.805 133.936C577.452 133.298 578.27 132.979 579.259 132.979C579.924 132.979 580.517 133.14 581.036 133.464C581.56 133.787 581.973 134.248 582.273 134.845C582.715 135.615 582.937 136.62 582.937 137.859C582.937 139.514 582.606 140.81 581.945 141.749C581.285 142.688 580.368 143.157 579.197 143.157ZM579.259 138.769C579.965 138.769 580.56 138.536 581.043 138.071C581.531 137.606 581.774 137.041 581.774 136.376C581.774 135.66 581.533 135.057 581.05 134.564C580.567 134.068 579.972 133.819 579.266 133.819C578.564 133.819 577.974 134.061 577.495 134.544C577.017 135.027 576.777 135.622 576.777 136.328C576.777 137.021 577.012 137.602 577.481 138.071C577.951 138.536 578.543 138.769 579.259 138.769Z" fill="#FF9500"/>
<path d="M717.56 143H713.991V133.136H717.539C718.387 133.136 719.073 133.359 719.597 133.806C720.121 134.252 720.383 134.84 720.383 135.569C720.383 136.116 720.212 136.599 719.87 137.019C719.533 137.438 719.102 137.695 718.578 137.791V137.839C719.271 137.921 719.829 138.183 720.253 138.625C720.681 139.062 720.896 139.618 720.896 140.293C720.896 141.136 720.599 141.799 720.007 142.282C719.414 142.761 718.599 143 717.56 143ZM714.921 133.963V137.518H717.067C717.815 137.518 718.396 137.356 718.811 137.032C719.23 136.709 719.439 136.255 719.439 135.672C719.439 135.134 719.253 134.715 718.879 134.414C718.51 134.113 717.997 133.963 717.341 133.963H714.921ZM714.921 142.173H717.43C718.232 142.173 718.849 142.007 719.282 141.674C719.72 141.337 719.938 140.86 719.938 140.245C719.938 139.63 719.711 139.156 719.255 138.823C718.804 138.491 718.154 138.324 717.307 138.324H714.921V142.173ZM728.292 143V135.891H729.188V143H728.292ZM724.648 139.056H723.117V142.248H724.648C725.163 142.248 725.574 142.102 725.879 141.811C726.189 141.519 726.344 141.132 726.344 140.648C726.344 140.165 726.189 139.78 725.879 139.493C725.574 139.201 725.163 139.056 724.648 139.056ZM722.222 143V135.891H723.117V138.304H724.662C725.446 138.304 726.07 138.516 726.535 138.939C727.005 139.359 727.239 139.928 727.239 140.648C727.239 141.368 727.005 141.94 726.535 142.364C726.07 142.788 725.446 143 724.662 143H722.222ZM736.037 135.891V136.643H733.617V143H732.722V136.643H730.302V135.891H736.037ZM739.318 139.575H740.911V136.643H739.318C738.799 136.643 738.386 136.777 738.081 137.046C737.776 137.315 737.623 137.682 737.623 138.146C737.623 138.57 737.778 138.914 738.088 139.179C738.398 139.443 738.808 139.575 739.318 139.575ZM740.911 143V140.327H739.421L737.473 143H736.427L738.498 140.177C737.947 140.063 737.514 139.828 737.199 139.473C736.885 139.117 736.728 138.68 736.728 138.16C736.728 137.463 736.96 136.911 737.425 136.506C737.894 136.096 738.523 135.891 739.312 135.891H741.807V143H740.911ZM749.005 139.268L752.45 143H751.268L748.109 139.534H748.068V143H747.173V139.534H747.139L743.98 143H742.818L746.243 139.281L742.928 135.891H744.062L747.139 139.083H747.173V135.891H748.068V139.083H748.109L751.186 135.891H752.307L749.005 139.268ZM755.314 139.274L759.047 143H757.857L754.398 139.534H754.357V143H753.462V135.891H754.357V139.083H754.398L757.769 135.891H758.91L755.314 139.274ZM762.157 142.337C762.782 142.337 763.308 142.143 763.736 141.756C764.165 141.368 764.379 140.892 764.379 140.327V139.541L762.273 139.685C761.713 139.721 761.282 139.858 760.981 140.095C760.681 140.327 760.53 140.639 760.53 141.031C760.53 141.419 760.681 141.733 760.981 141.975C761.282 142.216 761.674 142.337 762.157 142.337ZM761.973 143.116C761.271 143.116 760.701 142.925 760.264 142.542C759.831 142.155 759.614 141.651 759.614 141.031C759.614 140.421 759.833 139.938 760.271 139.582C760.713 139.227 761.344 139.021 762.164 138.967L764.379 138.83V138.215C764.379 137.7 764.224 137.299 763.914 137.012C763.604 136.72 763.174 136.574 762.622 136.574C762.103 136.574 761.679 136.695 761.351 136.937C761.027 137.178 760.826 137.515 760.749 137.948H759.874C759.924 137.301 760.198 136.777 760.694 136.376C761.196 135.975 761.845 135.774 762.643 135.774C763.454 135.774 764.096 135.986 764.57 136.41C765.044 136.834 765.281 137.408 765.281 138.133V143H764.42V141.646H764.399C764.203 142.089 763.882 142.444 763.436 142.713C762.989 142.982 762.501 143.116 761.973 143.116ZM774.188 139.438H769.704V138.591H774.188V139.438ZM779.493 143H775.925V133.136H779.473C780.32 133.136 781.006 133.359 781.53 133.806C782.054 134.252 782.316 134.84 782.316 135.569C782.316 136.116 782.146 136.599 781.804 137.019C781.466 137.438 781.036 137.695 780.512 137.791V137.839C781.204 137.921 781.763 138.183 782.187 138.625C782.615 139.062 782.829 139.618 782.829 140.293C782.829 141.136 782.533 141.799 781.94 142.282C781.348 142.761 780.532 143 779.493 143ZM776.854 133.963V137.518H779.001C779.748 137.518 780.329 137.356 780.744 137.032C781.163 136.709 781.373 136.255 781.373 135.672C781.373 135.134 781.186 134.715 780.812 134.414C780.443 134.113 779.931 133.963 779.274 133.963H776.854ZM776.854 142.173H779.363C780.165 142.173 780.783 142.007 781.216 141.674C781.653 141.337 781.872 140.86 781.872 140.245C781.872 139.63 781.644 139.156 781.188 138.823C780.737 138.491 780.088 138.324 779.24 138.324H776.854V142.173ZM786.63 143V134.141H786.603C786.539 134.182 786.108 134.48 785.311 135.036C784.513 135.588 784.062 135.895 783.957 135.959V134.961C784.039 134.911 784.477 134.61 785.27 134.059C786.062 133.507 786.511 133.2 786.616 133.136H787.532V143H786.63ZM793.37 143.157C792.254 143.157 791.379 142.701 790.745 141.79C790.112 140.874 789.795 139.632 789.795 138.064C789.795 136.506 790.114 135.269 790.752 134.353C791.39 133.437 792.263 132.979 793.37 132.979C794.482 132.979 795.355 133.437 795.988 134.353C796.622 135.264 796.938 136.499 796.938 138.058C796.938 139.625 796.622 140.867 795.988 141.783C795.355 142.699 794.482 143.157 793.37 143.157ZM791.436 141.188C791.9 141.954 792.545 142.337 793.37 142.337C794.195 142.337 794.84 141.954 795.305 141.188C795.77 140.423 796.002 139.382 796.002 138.064C796.002 136.757 795.767 135.72 795.298 134.954C794.833 134.188 794.19 133.806 793.37 133.806C792.554 133.806 791.912 134.191 791.442 134.961C790.973 135.731 790.738 136.763 790.738 138.058C790.738 139.379 790.971 140.423 791.436 141.188Z" fill="#FF9500"/>
</svg>
