<svg width="1280" height="758" viewBox="0 0 1280 758" fill="none" xmlns="http://www.w3.org/2000/svg">
<rect x="332" y="134" width="617" height="281" rx="20" fill="#FFF1BA"/>
<rect x="361" y="172" width="351" height="207" rx="11" fill="black"/>
<path d="M580.906 184.062H583.912L571.607 215H568.461L580.906 184.062ZM567.389 189.811C567.389 188.545 567.236 187.678 566.932 187.209C566.627 186.74 566.047 186.506 565.191 186.506C564.336 186.506 563.756 186.746 563.451 187.227C563.146 187.695 562.994 188.557 562.994 189.811V198.529C562.994 199.818 563.146 200.715 563.451 201.219C563.768 201.711 564.348 201.957 565.191 201.957C566.035 201.957 566.609 201.711 566.914 201.219C567.23 200.715 567.389 199.818 567.389 198.529V189.811ZM559.742 191.023C559.742 188.281 560.141 186.371 560.938 185.293C561.734 184.215 563.152 183.676 565.191 183.676C567.242 183.676 568.666 184.215 569.463 185.293C570.26 186.371 570.658 188.281 570.658 191.023V197.264C570.658 200.053 570.254 202.004 569.445 203.117C568.637 204.23 567.219 204.787 565.191 204.787C563.176 204.787 561.764 204.23 560.955 203.117C560.146 202.004 559.742 200.053 559.742 197.264V191.023ZM581.627 201.588C581.627 198.846 582.025 196.936 582.822 195.857C583.619 194.779 585.037 194.24 587.076 194.24C589.127 194.24 590.551 194.779 591.348 195.857C592.145 196.936 592.543 198.846 592.543 201.588V207.828C592.543 210.617 592.139 212.568 591.33 213.682C590.521 214.795 589.104 215.352 587.076 215.352C585.061 215.352 583.648 214.795 582.84 213.682C582.031 212.568 581.627 210.617 581.627 207.828V201.588ZM589.291 200.375C589.291 199.109 589.139 198.242 588.834 197.773C588.529 197.305 587.949 197.07 587.094 197.07C586.238 197.07 585.658 197.311 585.354 197.791C585.049 198.26 584.896 199.121 584.896 200.375V209.094C584.896 210.383 585.049 211.279 585.354 211.783C585.67 212.275 586.244 212.521 587.076 212.521C587.92 212.521 588.5 212.275 588.816 211.783C589.133 211.279 589.291 210.383 589.291 209.094V200.375Z" fill="#FF9500"/>
<path d="M580.906 234.062H583.912L571.607 265H568.461L580.906 234.062ZM567.389 239.811C567.389 238.545 567.236 237.678 566.932 237.209C566.627 236.74 566.047 236.506 565.191 236.506C564.336 236.506 563.756 236.746 563.451 237.227C563.146 237.695 562.994 238.557 562.994 239.811V248.529C562.994 249.818 563.146 250.715 563.451 251.219C563.768 251.711 564.348 251.957 565.191 251.957C566.035 251.957 566.609 251.711 566.914 251.219C567.23 250.715 567.389 249.818 567.389 248.529V239.811ZM559.742 241.023C559.742 238.281 560.141 236.371 560.938 235.293C561.734 234.215 563.152 233.676 565.191 233.676C567.242 233.676 568.666 234.215 569.463 235.293C570.26 236.371 570.658 238.281 570.658 241.023V247.264C570.658 250.053 570.254 252.004 569.445 253.117C568.637 254.23 567.219 254.787 565.191 254.787C563.176 254.787 561.764 254.23 560.955 253.117C560.146 252.004 559.742 250.053 559.742 247.264V241.023ZM581.627 251.588C581.627 248.846 582.025 246.936 582.822 245.857C583.619 244.779 585.037 244.24 587.076 244.24C589.127 244.24 590.551 244.779 591.348 245.857C592.145 246.936 592.543 248.846 592.543 251.588V257.828C592.543 260.617 592.139 262.568 591.33 263.682C590.521 264.795 589.104 265.352 587.076 265.352C585.061 265.352 583.648 264.795 582.84 263.682C582.031 262.568 581.627 260.617 581.627 257.828V251.588ZM589.291 250.375C589.291 249.109 589.139 248.242 588.834 247.773C588.529 247.305 587.949 247.07 587.094 247.07C586.238 247.07 585.658 247.311 585.354 247.791C585.049 248.26 584.896 249.121 584.896 250.375V259.094C584.896 260.383 585.049 261.279 585.354 261.783C585.67 262.275 586.244 262.521 587.076 262.521C587.92 262.521 588.5 262.275 588.816 261.783C589.133 261.279 589.291 260.383 589.291 259.094V250.375Z" fill="#FF9500"/>
<path d="M580.906 284.062H583.912L571.607 315H568.461L580.906 284.062ZM567.389 289.811C567.389 288.545 567.236 287.678 566.932 287.209C566.627 286.74 566.047 286.506 565.191 286.506C564.336 286.506 563.756 286.746 563.451 287.227C563.146 287.695 562.994 288.557 562.994 289.811V298.529C562.994 299.818 563.146 300.715 563.451 301.219C563.768 301.711 564.348 301.957 565.191 301.957C566.035 301.957 566.609 301.711 566.914 301.219C567.23 300.715 567.389 299.818 567.389 298.529V289.811ZM559.742 291.023C559.742 288.281 560.141 286.371 560.938 285.293C561.734 284.215 563.152 283.676 565.191 283.676C567.242 283.676 568.666 284.215 569.463 285.293C570.26 286.371 570.658 288.281 570.658 291.023V297.264C570.658 300.053 570.254 302.004 569.445 303.117C568.637 304.23 567.219 304.787 565.191 304.787C563.176 304.787 561.764 304.23 560.955 303.117C560.146 302.004 559.742 300.053 559.742 297.264V291.023ZM581.627 301.588C581.627 298.846 582.025 296.936 582.822 295.857C583.619 294.779 585.037 294.24 587.076 294.24C589.127 294.24 590.551 294.779 591.348 295.857C592.145 296.936 592.543 298.846 592.543 301.588V307.828C592.543 310.617 592.139 312.568 591.33 313.682C590.521 314.795 589.104 315.352 587.076 315.352C585.061 315.352 583.648 314.795 582.84 313.682C582.031 312.568 581.627 310.617 581.627 307.828V301.588ZM589.291 300.375C589.291 299.109 589.139 298.242 588.834 297.773C588.529 297.305 587.949 297.07 587.094 297.07C586.238 297.07 585.658 297.311 585.354 297.791C585.049 298.26 584.896 299.121 584.896 300.375V309.094C584.896 310.383 585.049 311.279 585.354 311.783C585.67 312.275 586.244 312.521 587.076 312.521C587.92 312.521 588.5 312.275 588.816 311.783C589.133 311.279 589.291 310.383 589.291 309.094V300.375Z" fill="#FF9500"/>
<path d="M580.906 334.062H583.912L571.607 365H568.461L580.906 334.062ZM567.389 339.811C567.389 338.545 567.236 337.678 566.932 337.209C566.627 336.74 566.047 336.506 565.191 336.506C564.336 336.506 563.756 336.746 563.451 337.227C563.146 337.695 562.994 338.557 562.994 339.811V348.529C562.994 349.818 563.146 350.715 563.451 351.219C563.768 351.711 564.348 351.957 565.191 351.957C566.035 351.957 566.609 351.711 566.914 351.219C567.23 350.715 567.389 349.818 567.389 348.529V339.811ZM559.742 341.023C559.742 338.281 560.141 336.371 560.938 335.293C561.734 334.215 563.152 333.676 565.191 333.676C567.242 333.676 568.666 334.215 569.463 335.293C570.26 336.371 570.658 338.281 570.658 341.023V347.264C570.658 350.053 570.254 352.004 569.445 353.117C568.637 354.23 567.219 354.787 565.191 354.787C563.176 354.787 561.764 354.23 560.955 353.117C560.146 352.004 559.742 350.053 559.742 347.264V341.023ZM581.627 351.588C581.627 348.846 582.025 346.936 582.822 345.857C583.619 344.779 585.037 344.24 587.076 344.24C589.127 344.24 590.551 344.779 591.348 345.857C592.145 346.936 592.543 348.846 592.543 351.588V357.828C592.543 360.617 592.139 362.568 591.33 363.682C590.521 364.795 589.104 365.352 587.076 365.352C585.061 365.352 583.648 364.795 582.84 363.682C582.031 362.568 581.627 360.617 581.627 357.828V351.588ZM589.291 350.375C589.291 349.109 589.139 348.242 588.834 347.773C588.529 347.305 587.949 347.07 587.094 347.07C586.238 347.07 585.658 347.311 585.354 347.791C585.049 348.26 584.896 349.121 584.896 350.375V359.094C584.896 360.383 585.049 361.279 585.354 361.783C585.67 362.275 586.244 362.521 587.076 362.521C587.92 362.521 588.5 362.275 588.816 361.783C589.133 361.279 589.291 360.383 589.291 359.094V350.375Z" fill="#FF9500"/>
<path d="M389.418 289.375H391.844V310H389.418V300.004H386.113V310H383.688V289.375H386.113V298.023H389.418V289.375ZM395.43 296.254C395.43 293.035 395.766 291.055 396.438 290.312C396.695 290.031 396.957 289.805 397.223 289.633C397.73 289.305 398.441 289.141 399.355 289.141C401.613 289.141 402.742 291.043 402.742 294.848C402.742 296.738 402.254 298.605 401.277 300.449C400.848 301.246 400.414 302.027 399.977 302.793C398.875 304.699 398.188 306.496 397.914 308.184H402.426V310H395.57V308.852C395.57 307.297 396.352 305.004 397.914 301.973C397.922 301.965 398.176 301.477 398.676 300.508C399.176 299.539 399.477 298.984 399.578 298.844C399.836 298.367 400.043 297.73 400.199 296.934C400.363 296.137 400.445 295.328 400.445 294.508C400.445 293.688 400.387 293.016 400.27 292.492C400.152 291.969 400.008 291.625 399.836 291.461C399.664 291.289 399.457 291.203 399.215 291.203C398.98 291.203 398.789 291.25 398.641 291.344C398.078 291.688 397.797 292.852 397.797 294.836V297.52H395.43V296.254Z" fill="#BEBEBE"/>
<path d="M382.688 339.375H388.852V341.391H385.113V348.445H388.652V350.461H385.113V357.984H388.898V360H382.688V339.375ZM390.551 342.422H392.672L394.523 348.035L396.164 342.422H398.344L395.508 351.023L398.461 360H396.223L394.301 354.023L392.531 360H390.352L393.305 350.941L390.551 342.422Z" fill="#BEBEBE"/>
<path d="M382.453 245.328C382.453 243.766 382.582 242.617 382.84 241.883C383.098 241.148 383.379 240.609 383.684 240.266C384.348 239.516 385.316 239.137 386.59 239.129C388.371 239.137 389.52 239.922 390.035 241.484C390.332 242.383 390.48 243.578 390.48 245.07V247.355H388.102V245.059C388.102 243.738 388.027 242.848 387.879 242.387C387.738 241.918 387.566 241.609 387.363 241.461C387.16 241.305 386.902 241.227 386.59 241.227C385.941 241.227 385.492 241.535 385.242 242.152C385 242.762 384.879 243.727 384.879 245.047V253.977C384.879 255.539 384.988 256.633 385.207 257.258C385.434 257.875 385.863 258.184 386.496 258.184C387.137 258.184 387.562 257.871 387.773 257.246C387.992 256.621 388.102 255.527 388.102 253.965V251.68H390.504V253.941C390.504 256.105 390.207 257.699 389.613 258.723C389.027 259.738 388 260.246 386.531 260.246C385.062 260.246 384.016 259.723 383.391 258.676C382.766 257.621 382.453 256.035 382.453 253.918V245.328ZM399.07 249.137C400.492 249.785 401.203 251.512 401.203 254.316C401.203 256.324 400.871 257.812 400.207 258.781C399.543 259.75 398.488 260.234 397.043 260.234C395.598 260.234 394.578 259.77 393.984 258.84C393.391 257.91 393.094 256.445 393.094 254.445V253.531H395.438V254.48C395.438 255.941 395.535 256.926 395.73 257.434C395.934 257.934 396.375 258.184 397.055 258.184C397.742 258.184 398.203 257.895 398.438 257.316C398.68 256.738 398.801 255.703 398.801 254.211C398.801 252.711 398.637 251.66 398.309 251.059C397.988 250.449 397.414 250.145 396.586 250.145H395.918V248.211H396.562C397.141 248.211 397.578 248.117 397.875 247.93C398.477 247.555 398.777 246.449 398.777 244.613C398.777 244.59 398.777 244.566 398.777 244.543C398.777 243.176 398.625 242.277 398.32 241.848C398.016 241.418 397.594 241.203 397.055 241.203C396.523 241.203 396.133 241.449 395.883 241.941C395.641 242.426 395.52 243.305 395.52 244.578V245.07H393.141V244.543C393.141 242.691 393.441 241.328 394.043 240.453C394.645 239.578 395.652 239.141 397.066 239.141C398.48 239.141 399.516 239.59 400.172 240.488C400.828 241.379 401.156 242.73 401.156 244.543C401.156 247.09 400.461 248.621 399.07 249.137ZM409.816 239.375H412.242V260H409.816V250.004H406.512V260H404.086V239.375H406.512V248.023H409.816V239.375ZM415.289 244.25C415.289 242.438 415.59 241.133 416.191 240.336C416.793 239.539 417.805 239.141 419.227 239.141C420.656 239.141 421.664 239.539 422.25 240.336C422.844 241.125 423.141 242.43 423.141 244.25C423.141 246.594 422.582 248.148 421.465 248.914C421.98 249.297 422.395 249.992 422.707 251C423.02 252 423.176 253.07 423.176 254.211V255.031C423.145 256.852 422.82 258.176 422.203 259.004C421.586 259.824 420.59 260.234 419.215 260.234C417.84 260.234 416.828 259.824 416.18 259.004C415.531 258.184 415.188 256.887 415.148 255.113C415.141 255.02 415.137 254.559 415.137 253.73C415.137 252.895 415.297 251.98 415.617 250.988C415.938 249.996 416.371 249.316 416.918 248.949C415.832 248.176 415.289 246.609 415.289 244.25ZM420.762 254.059C420.762 252.668 420.625 251.625 420.352 250.93C420.086 250.234 419.711 249.887 419.227 249.887C418.75 249.887 418.352 250.246 418.031 250.965C417.719 251.676 417.562 252.719 417.562 254.094V254.902C417.57 256.16 417.684 257.023 417.902 257.492C418.121 257.961 418.523 258.195 419.109 258.195C419.695 258.195 420.098 258.059 420.316 257.785C420.535 257.504 420.664 257.082 420.703 256.52C420.742 255.949 420.762 255.391 420.762 254.844V254.059ZM419.988 247.906C420.199 247.711 420.375 247.32 420.516 246.734C420.656 246.141 420.727 245.414 420.727 244.555C420.727 243.688 420.695 243.035 420.633 242.598C420.578 242.152 420.48 241.82 420.34 241.602C420.199 241.383 420.047 241.242 419.883 241.18C419.719 241.117 419.473 241.086 419.145 241.086C418.824 241.086 418.562 241.156 418.359 241.297C417.922 241.617 417.703 242.691 417.703 244.52C417.703 246.34 417.938 247.469 418.406 247.906C418.609 248.102 418.871 248.199 419.191 248.199C419.512 248.199 419.777 248.102 419.988 247.906Z" fill="#BEBEBE"/>
<path d="M382.453 195.328C382.453 193.766 382.582 192.617 382.84 191.883C383.098 191.148 383.379 190.609 383.684 190.266C384.348 189.516 385.316 189.137 386.59 189.129C388.371 189.137 389.52 189.922 390.035 191.484C390.332 192.383 390.48 193.578 390.48 195.07V197.355H388.102V195.059C388.102 193.738 388.027 192.848 387.879 192.387C387.738 191.918 387.566 191.609 387.363 191.461C387.16 191.305 386.902 191.227 386.59 191.227C385.941 191.227 385.492 191.535 385.242 192.152C385 192.762 384.879 193.727 384.879 195.047V203.977C384.879 205.539 384.988 206.633 385.207 207.258C385.434 207.875 385.863 208.184 386.496 208.184C387.137 208.184 387.562 207.871 387.773 207.246C387.992 206.621 388.102 205.527 388.102 203.965V201.68H390.504V203.941C390.504 206.105 390.207 207.699 389.613 208.723C389.027 209.738 388 210.246 386.531 210.246C385.062 210.246 384.016 209.723 383.391 208.676C382.766 207.621 382.453 206.035 382.453 203.918V195.328ZM399.176 189.375H401.602V210H399.176V200.004H395.871V210H393.445V189.375H395.871V198.023H399.176V189.375ZM408.996 189.363H411.492V204.188H413.191V206.109H411.492V210.012H409.289V206.109H404.414V204.41L408.996 189.363ZM409.289 204.188V193.453L406.406 204.188H409.289Z" fill="#BEBEBE"/>
<path d="M534 138.152V140.712H523.984V161H521.104V138.152H534ZM541.435 143.56C543.525 143.56 545.072 144.019 546.075 144.936C547.077 145.853 547.579 147.315 547.579 149.32V161H545.531L544.987 158.568H544.859C544.112 159.507 543.323 160.2 542.491 160.648C541.659 161.096 540.528 161.32 539.099 161.32C537.541 161.32 536.251 160.915 535.227 160.104C534.203 159.272 533.691 157.981 533.691 156.232C533.691 154.525 534.363 153.213 535.707 152.296C537.051 151.357 539.12 150.845 541.915 150.76L544.827 150.664V149.64C544.827 148.211 544.517 147.219 543.899 146.664C543.28 146.109 542.405 145.832 541.275 145.832C540.379 145.832 539.525 145.971 538.715 146.248C537.904 146.504 537.147 146.803 536.443 147.144L535.579 145.032C536.325 144.627 537.211 144.285 538.235 144.008C539.259 143.709 540.325 143.56 541.435 143.56ZM544.795 152.616L542.267 152.712C540.133 152.797 538.651 153.139 537.819 153.736C537.008 154.333 536.603 155.176 536.603 156.264C536.603 157.224 536.891 157.928 537.467 158.376C538.064 158.824 538.821 159.048 539.739 159.048C541.168 159.048 542.363 158.653 543.323 157.864C544.304 157.053 544.795 155.816 544.795 154.152V152.616ZM557.388 143.528C559.351 143.528 560.908 143.923 562.06 144.712C563.234 145.501 563.82 146.611 563.82 148.04C563.82 149.085 563.522 149.917 562.924 150.536C562.348 151.133 561.57 151.571 560.588 151.848V151.976C561.271 152.168 561.9 152.435 562.476 152.776C563.052 153.117 563.511 153.576 563.852 154.152C564.215 154.707 564.396 155.411 564.396 156.264C564.396 157.693 563.799 158.899 562.604 159.88C561.431 160.84 559.586 161.32 557.068 161.32C555.831 161.32 554.711 161.224 553.708 161.032C552.706 160.84 551.874 160.563 551.212 160.2V157.672C551.938 158.013 552.791 158.323 553.772 158.6C554.775 158.877 555.863 159.016 557.036 159.016C558.316 159.016 559.394 158.803 560.268 158.376C561.164 157.928 561.612 157.171 561.612 156.104C561.612 154.184 559.98 153.224 556.716 153.224H554.412V150.92H556.268C557.74 150.92 558.914 150.728 559.788 150.344C560.684 149.939 561.132 149.256 561.132 148.296C561.132 147.485 560.791 146.877 560.108 146.472C559.447 146.067 558.487 145.864 557.228 145.864C556.29 145.864 555.458 145.96 554.732 146.152C554.028 146.323 553.25 146.589 552.396 146.952L551.404 144.712C553.196 143.923 555.191 143.528 557.388 143.528ZM583.476 152.392C583.476 155.229 582.75 157.427 581.3 158.984C579.87 160.541 577.929 161.32 575.476 161.32C573.961 161.32 572.606 160.979 571.412 160.296C570.238 159.592 569.31 158.579 568.628 157.256C567.945 155.912 567.604 154.291 567.604 152.392C567.604 149.555 568.308 147.368 569.716 145.832C571.145 144.296 573.097 143.528 575.572 143.528C577.108 143.528 578.473 143.88 579.668 144.584C580.862 145.267 581.79 146.269 582.452 147.592C583.134 148.893 583.476 150.493 583.476 152.392ZM570.516 152.392C570.516 154.419 570.91 156.029 571.7 157.224C572.51 158.397 573.79 158.984 575.54 158.984C577.268 158.984 578.537 158.397 579.348 157.224C580.158 156.029 580.564 154.419 580.564 152.392C580.564 150.365 580.158 148.776 579.348 147.624C578.537 146.472 577.257 145.896 575.508 145.896C573.758 145.896 572.489 146.472 571.7 147.624C570.91 148.776 570.516 150.365 570.516 152.392ZM594.435 143.56C596.525 143.56 598.072 144.019 599.075 144.936C600.077 145.853 600.579 147.315 600.579 149.32V161H598.531L597.987 158.568H597.859C597.112 159.507 596.323 160.2 595.491 160.648C594.659 161.096 593.528 161.32 592.099 161.32C590.541 161.32 589.251 160.915 588.227 160.104C587.203 159.272 586.691 157.981 586.691 156.232C586.691 154.525 587.363 153.213 588.707 152.296C590.051 151.357 592.12 150.845 594.915 150.76L597.827 150.664V149.64C597.827 148.211 597.517 147.219 596.899 146.664C596.28 146.109 595.405 145.832 594.275 145.832C593.379 145.832 592.525 145.971 591.715 146.248C590.904 146.504 590.147 146.803 589.443 147.144L588.579 145.032C589.325 144.627 590.211 144.285 591.235 144.008C592.259 143.709 593.325 143.56 594.435 143.56ZM597.795 152.616L595.267 152.712C593.133 152.797 591.651 153.139 590.819 153.736C590.008 154.333 589.603 155.176 589.603 156.264C589.603 157.224 589.891 157.928 590.467 158.376C591.064 158.824 591.821 159.048 592.739 159.048C594.168 159.048 595.363 158.653 596.323 157.864C597.304 157.053 597.795 155.816 597.795 154.152V152.616ZM608.692 143.848V150.984H618.004V143.848H620.82V161H618.004V153.352H608.692V161H605.876V143.848H608.692ZM632.747 143.56C634.838 143.56 636.385 144.019 637.387 144.936C638.39 145.853 638.891 147.315 638.891 149.32V161H636.843L636.299 158.568H636.171C635.425 159.507 634.635 160.2 633.803 160.648C632.971 161.096 631.841 161.32 630.411 161.32C628.854 161.32 627.563 160.915 626.539 160.104C625.515 159.272 625.003 157.981 625.003 156.232C625.003 154.525 625.675 153.213 627.019 152.296C628.363 151.357 630.433 150.845 633.227 150.76L636.139 150.664V149.64C636.139 148.211 635.83 147.219 635.211 146.664C634.593 146.109 633.718 145.832 632.587 145.832C631.691 145.832 630.838 145.971 630.027 146.248C629.217 146.504 628.459 146.803 627.755 147.144L626.891 145.032C627.638 144.627 628.523 144.285 629.547 144.008C630.571 143.709 631.638 143.56 632.747 143.56ZM636.107 152.616L633.579 152.712C631.446 152.797 629.963 153.139 629.131 153.736C628.321 154.333 627.915 155.176 627.915 156.264C627.915 157.224 628.203 157.928 628.779 158.376C629.377 158.824 630.134 159.048 631.051 159.048C632.481 159.048 633.675 158.653 634.635 157.864C635.617 157.053 636.107 155.816 636.107 154.152V152.616ZM657.245 161H654.397V146.184H649.341C649.063 149.789 648.679 152.701 648.189 154.92C647.698 157.117 647.037 158.717 646.205 159.72C645.394 160.723 644.381 161.224 643.165 161.224C642.887 161.224 642.61 161.203 642.333 161.16C642.077 161.139 641.863 161.085 641.693 161V158.888C641.821 158.931 641.959 158.963 642.109 158.984C642.258 159.005 642.407 159.016 642.557 159.016C643.709 159.016 644.626 157.789 645.309 155.336C646.013 152.883 646.546 149.053 646.909 143.848H657.245V161ZM665.345 143.848V154.312C665.345 154.589 665.334 154.984 665.313 155.496C665.291 155.987 665.259 156.499 665.217 157.032C665.195 157.544 665.174 157.939 665.153 158.216L674.337 143.848H677.793V161H675.169V150.888C675.169 150.547 675.169 150.099 675.169 149.544C675.19 148.989 675.211 148.445 675.233 147.912C675.254 147.357 675.275 146.941 675.297 146.664L666.177 161H662.689V143.848H665.345ZM687.763 143.528C689.726 143.528 691.283 143.923 692.435 144.712C693.609 145.501 694.195 146.611 694.195 148.04C694.195 149.085 693.897 149.917 693.299 150.536C692.723 151.133 691.945 151.571 690.963 151.848V151.976C691.646 152.168 692.275 152.435 692.851 152.776C693.427 153.117 693.886 153.576 694.227 154.152C694.59 154.707 694.771 155.411 694.771 156.264C694.771 157.693 694.174 158.899 692.979 159.88C691.806 160.84 689.961 161.32 687.443 161.32C686.206 161.32 685.086 161.224 684.083 161.032C683.081 160.84 682.249 160.563 681.587 160.2V157.672C682.313 158.013 683.166 158.323 684.147 158.6C685.15 158.877 686.238 159.016 687.411 159.016C688.691 159.016 689.769 158.803 690.643 158.376C691.539 157.928 691.987 157.171 691.987 156.104C691.987 154.184 690.355 153.224 687.091 153.224H684.787V150.92H686.643C688.115 150.92 689.289 150.728 690.163 150.344C691.059 149.939 691.507 149.256 691.507 148.296C691.507 147.485 691.166 146.877 690.483 146.472C689.822 146.067 688.862 145.864 687.603 145.864C686.665 145.864 685.833 145.96 685.107 146.152C684.403 146.323 683.625 146.589 682.771 146.952L681.779 144.712C683.571 143.923 685.566 143.528 687.763 143.528ZM705.435 143.56C707.525 143.56 709.072 144.019 710.075 144.936C711.077 145.853 711.579 147.315 711.579 149.32V161H709.531L708.987 158.568H708.859C708.112 159.507 707.323 160.2 706.491 160.648C705.659 161.096 704.528 161.32 703.099 161.32C701.541 161.32 700.251 160.915 699.227 160.104C698.203 159.272 697.691 157.981 697.691 156.232C697.691 154.525 698.363 153.213 699.707 152.296C701.051 151.357 703.12 150.845 705.915 150.76L708.827 150.664V149.64C708.827 148.211 708.517 147.219 707.899 146.664C707.28 146.109 706.405 145.832 705.275 145.832C704.379 145.832 703.525 145.971 702.715 146.248C701.904 146.504 701.147 146.803 700.443 147.144L699.579 145.032C700.325 144.627 701.211 144.285 702.235 144.008C703.259 143.709 704.325 143.56 705.435 143.56ZM708.795 152.616L706.267 152.712C704.133 152.797 702.651 153.139 701.819 153.736C701.008 154.333 700.603 155.176 700.603 156.264C700.603 157.224 700.891 157.928 701.467 158.376C702.064 158.824 702.821 159.048 703.739 159.048C705.168 159.048 706.363 158.653 707.323 157.864C708.304 157.053 708.795 155.816 708.795 154.152V152.616ZM728.716 146.216H723.116V161H720.332V146.216H714.796V143.848H728.716V146.216ZM746.694 152.392C746.694 155.229 745.969 157.427 744.519 158.984C743.089 160.541 741.148 161.32 738.695 161.32C737.18 161.32 735.825 160.979 734.631 160.296C733.457 159.592 732.529 158.579 731.847 157.256C731.164 155.912 730.823 154.291 730.823 152.392C730.823 149.555 731.527 147.368 732.935 145.832C734.364 144.296 736.316 143.528 738.791 143.528C740.327 143.528 741.692 143.88 742.887 144.584C744.081 145.267 745.009 146.269 745.671 147.592C746.353 148.893 746.694 150.493 746.694 152.392ZM733.735 152.392C733.735 154.419 734.129 156.029 734.919 157.224C735.729 158.397 737.009 158.984 738.759 158.984C740.487 158.984 741.756 158.397 742.567 157.224C743.377 156.029 743.783 154.419 743.783 152.392C743.783 150.365 743.377 148.776 742.567 147.624C741.756 146.472 740.476 145.896 738.727 145.896C736.977 145.896 735.708 146.472 734.919 147.624C734.129 148.776 733.735 150.365 733.735 152.392ZM759.318 143.528C761.43 143.528 763.126 144.264 764.406 145.736C765.707 147.208 766.358 149.427 766.358 152.392C766.358 155.315 765.707 157.533 764.406 159.048C763.126 160.563 761.419 161.32 759.286 161.32C757.963 161.32 756.864 161.075 755.99 160.584C755.136 160.093 754.464 159.507 753.974 158.824H753.782C753.803 159.187 753.835 159.645 753.878 160.2C753.942 160.755 753.974 161.235 753.974 161.64V168.68H751.158V143.848H753.462L753.846 146.184H753.974C754.486 145.437 755.158 144.808 755.99 144.296C756.822 143.784 757.931 143.528 759.318 143.528ZM758.806 145.896C757.056 145.896 755.819 146.387 755.094 147.368C754.368 148.349 753.995 149.843 753.974 151.848V152.392C753.974 154.504 754.315 156.136 754.998 157.288C755.702 158.419 756.992 158.984 758.87 158.984C759.894 158.984 760.747 158.707 761.43 158.152C762.112 157.576 762.614 156.787 762.934 155.784C763.275 154.781 763.446 153.64 763.446 152.36C763.446 150.397 763.062 148.829 762.294 147.656C761.547 146.483 760.384 145.896 758.806 145.896Z" fill="black"/>
<!--<line x1="747" y1="154.5" x2="924" y2="154.5" stroke="black"/>
<line x1="747.5" y1="155" x2="747.5" y2="362" stroke="black"/>
<line x1="924.5" y1="154" x2="924.5" y2="362" stroke="black"/>
<line x1="747" y1="361.5" x2="924" y2="361.5" stroke="black"/>-->
</svg>
