<svg width="1280" height="758" viewBox="0 0 1280 758" fill="none" xmlns="http://www.w3.org/2000/svg">
<g filter="url(#filter0_d)">
<g filter="url(#filter1_i)">
<rect x="332" y="134" width="617" height="281" rx="20" fill="#D6EAC2"/>
<g filter="url(#filter2_i)">
<rect x="361" y="172" width="351" height="207" rx="11" fill="black"/>
</g>
<path d="M680.938 198.375H682.941L674.738 219H672.641L680.938 198.375ZM671.926 202.207C671.926 201.363 671.824 200.785 671.621 200.473C671.418 200.16 671.031 200.004 670.461 200.004C669.891 200.004 669.504 200.164 669.301 200.484C669.098 200.797 668.996 201.371 668.996 202.207V208.02C668.996 208.879 669.098 209.477 669.301 209.812C669.512 210.141 669.898 210.305 670.461 210.305C671.023 210.305 671.406 210.141 671.609 209.812C671.82 209.477 671.926 208.879 671.926 208.02V202.207ZM666.828 203.016C666.828 201.188 667.094 199.914 667.625 199.195C668.156 198.477 669.102 198.117 670.461 198.117C671.828 198.117 672.777 198.477 673.309 199.195C673.84 199.914 674.105 201.188 674.105 203.016V207.176C674.105 209.035 673.836 210.336 673.297 211.078C672.758 211.82 671.812 212.191 670.461 212.191C669.117 212.191 668.176 211.82 667.637 211.078C667.098 210.336 666.828 209.035 666.828 207.176V203.016ZM681.418 210.059C681.418 208.23 681.684 206.957 682.215 206.238C682.746 205.52 683.691 205.16 685.051 205.16C686.418 205.16 687.367 205.52 687.898 206.238C688.43 206.957 688.695 208.23 688.695 210.059V214.219C688.695 216.078 688.426 217.379 687.887 218.121C687.348 218.863 686.402 219.234 685.051 219.234C683.707 219.234 682.766 218.863 682.227 218.121C681.688 217.379 681.418 216.078 681.418 214.219V210.059ZM686.527 209.25C686.527 208.406 686.426 207.828 686.223 207.516C686.02 207.203 685.633 207.047 685.062 207.047C684.492 207.047 684.105 207.207 683.902 207.527C683.699 207.84 683.598 208.414 683.598 209.25V215.062C683.598 215.922 683.699 216.52 683.902 216.855C684.113 217.184 684.496 217.348 685.051 217.348C685.613 217.348 686 217.184 686.211 216.855C686.422 216.52 686.527 215.922 686.527 215.062V209.25Z" fill="#FF9500"/>
<path d="M680.938 248.375H682.941L674.738 269H672.641L680.938 248.375ZM671.926 252.207C671.926 251.363 671.824 250.785 671.621 250.473C671.418 250.16 671.031 250.004 670.461 250.004C669.891 250.004 669.504 250.164 669.301 250.484C669.098 250.797 668.996 251.371 668.996 252.207V258.02C668.996 258.879 669.098 259.477 669.301 259.812C669.512 260.141 669.898 260.305 670.461 260.305C671.023 260.305 671.406 260.141 671.609 259.812C671.82 259.477 671.926 258.879 671.926 258.02V252.207ZM666.828 253.016C666.828 251.188 667.094 249.914 667.625 249.195C668.156 248.477 669.102 248.117 670.461 248.117C671.828 248.117 672.777 248.477 673.309 249.195C673.84 249.914 674.105 251.188 674.105 253.016V257.176C674.105 259.035 673.836 260.336 673.297 261.078C672.758 261.82 671.812 262.191 670.461 262.191C669.117 262.191 668.176 261.82 667.637 261.078C667.098 260.336 666.828 259.035 666.828 257.176V253.016ZM681.418 260.059C681.418 258.23 681.684 256.957 682.215 256.238C682.746 255.52 683.691 255.16 685.051 255.16C686.418 255.16 687.367 255.52 687.898 256.238C688.43 256.957 688.695 258.23 688.695 260.059V264.219C688.695 266.078 688.426 267.379 687.887 268.121C687.348 268.863 686.402 269.234 685.051 269.234C683.707 269.234 682.766 268.863 682.227 268.121C681.688 267.379 681.418 266.078 681.418 264.219V260.059ZM686.527 259.25C686.527 258.406 686.426 257.828 686.223 257.516C686.02 257.203 685.633 257.047 685.062 257.047C684.492 257.047 684.105 257.207 683.902 257.527C683.699 257.84 683.598 258.414 683.598 259.25V265.062C683.598 265.922 683.699 266.52 683.902 266.855C684.113 267.184 684.496 267.348 685.051 267.348C685.613 267.348 686 267.184 686.211 266.855C686.422 266.52 686.527 265.922 686.527 265.062V259.25Z" fill="#FF9500"/>
<path d="M680.938 298.375H682.941L674.738 319H672.641L680.938 298.375ZM671.926 302.207C671.926 301.363 671.824 300.785 671.621 300.473C671.418 300.16 671.031 300.004 670.461 300.004C669.891 300.004 669.504 300.164 669.301 300.484C669.098 300.797 668.996 301.371 668.996 302.207V308.02C668.996 308.879 669.098 309.477 669.301 309.812C669.512 310.141 669.898 310.305 670.461 310.305C671.023 310.305 671.406 310.141 671.609 309.812C671.82 309.477 671.926 308.879 671.926 308.02V302.207ZM666.828 303.016C666.828 301.188 667.094 299.914 667.625 299.195C668.156 298.477 669.102 298.117 670.461 298.117C671.828 298.117 672.777 298.477 673.309 299.195C673.84 299.914 674.105 301.188 674.105 303.016V307.176C674.105 309.035 673.836 310.336 673.297 311.078C672.758 311.82 671.812 312.191 670.461 312.191C669.117 312.191 668.176 311.82 667.637 311.078C667.098 310.336 666.828 309.035 666.828 307.176V303.016ZM681.418 310.059C681.418 308.23 681.684 306.957 682.215 306.238C682.746 305.52 683.691 305.16 685.051 305.16C686.418 305.16 687.367 305.52 687.898 306.238C688.43 306.957 688.695 308.23 688.695 310.059V314.219C688.695 316.078 688.426 317.379 687.887 318.121C687.348 318.863 686.402 319.234 685.051 319.234C683.707 319.234 682.766 318.863 682.227 318.121C681.688 317.379 681.418 316.078 681.418 314.219V310.059ZM686.527 309.25C686.527 308.406 686.426 307.828 686.223 307.516C686.02 307.203 685.633 307.047 685.062 307.047C684.492 307.047 684.105 307.207 683.902 307.527C683.699 307.84 683.598 308.414 683.598 309.25V315.062C683.598 315.922 683.699 316.52 683.902 316.855C684.113 317.184 684.496 317.348 685.051 317.348C685.613 317.348 686 317.184 686.211 316.855C686.422 316.52 686.527 315.922 686.527 315.062V309.25Z" fill="#FF9500"/>
<path d="M680.938 348.375H682.941L674.738 369H672.641L680.938 348.375ZM671.926 352.207C671.926 351.363 671.824 350.785 671.621 350.473C671.418 350.16 671.031 350.004 670.461 350.004C669.891 350.004 669.504 350.164 669.301 350.484C669.098 350.797 668.996 351.371 668.996 352.207V358.02C668.996 358.879 669.098 359.477 669.301 359.812C669.512 360.141 669.898 360.305 670.461 360.305C671.023 360.305 671.406 360.141 671.609 359.812C671.82 359.477 671.926 358.879 671.926 358.02V352.207ZM666.828 353.016C666.828 351.188 667.094 349.914 667.625 349.195C668.156 348.477 669.102 348.117 670.461 348.117C671.828 348.117 672.777 348.477 673.309 349.195C673.84 349.914 674.105 351.188 674.105 353.016V357.176C674.105 359.035 673.836 360.336 673.297 361.078C672.758 361.82 671.812 362.191 670.461 362.191C669.117 362.191 668.176 361.82 667.637 361.078C667.098 360.336 666.828 359.035 666.828 357.176V353.016ZM681.418 360.059C681.418 358.23 681.684 356.957 682.215 356.238C682.746 355.52 683.691 355.16 685.051 355.16C686.418 355.16 687.367 355.52 687.898 356.238C688.43 356.957 688.695 358.23 688.695 360.059V364.219C688.695 366.078 688.426 367.379 687.887 368.121C687.348 368.863 686.402 369.234 685.051 369.234C683.707 369.234 682.766 368.863 682.227 368.121C681.688 367.379 681.418 366.078 681.418 364.219V360.059ZM686.527 359.25C686.527 358.406 686.426 357.828 686.223 357.516C686.02 357.203 685.633 357.047 685.062 357.047C684.492 357.047 684.105 357.207 683.902 357.527C683.699 357.84 683.598 358.414 683.598 359.25V365.062C683.598 365.922 683.699 366.52 683.902 366.855C684.113 367.184 684.496 367.348 685.051 367.348C685.613 367.348 686 367.184 686.211 366.855C686.422 366.52 686.527 365.922 686.527 365.062V359.25Z" fill="#FF9500"/>
<path d="M389.418 296.375H391.844V317H389.418V307.004H386.113V317H383.688V296.375H386.113V305.023H389.418V296.375ZM394.955 306.69C394.955 304.276 395.207 302.791 395.711 302.234C395.904 302.023 396.101 301.854 396.3 301.725C396.681 301.479 397.214 301.355 397.899 301.355C399.593 301.355 400.439 302.782 400.439 305.636C400.439 307.054 400.073 308.454 399.341 309.837C399.019 310.435 398.693 311.021 398.365 311.595C397.539 313.024 397.023 314.372 396.818 315.638H400.202V317H395.061V316.139C395.061 314.973 395.646 313.253 396.818 310.979C396.824 310.974 397.015 310.607 397.39 309.881C397.765 309.154 397.99 308.738 398.066 308.633C398.26 308.275 398.415 307.798 398.532 307.2C398.655 306.603 398.717 305.996 398.717 305.381C398.717 304.766 398.673 304.262 398.585 303.869C398.497 303.477 398.389 303.219 398.26 303.096C398.131 302.967 397.976 302.902 397.794 302.902C397.618 302.902 397.475 302.938 397.363 303.008C396.941 303.266 396.73 304.139 396.73 305.627V307.64H394.955V306.69Z" fill="#BEBEBE"/>
<path d="M382.453 352.328C382.453 350.766 382.582 349.617 382.84 348.883C383.098 348.148 383.379 347.609 383.684 347.266C384.348 346.516 385.316 346.137 386.59 346.129C388.371 346.137 389.52 346.922 390.035 348.484C390.332 349.383 390.48 350.578 390.48 352.07V354.355H388.102V352.059C388.102 350.738 388.027 349.848 387.879 349.387C387.738 348.918 387.566 348.609 387.363 348.461C387.16 348.305 386.902 348.227 386.59 348.227C385.941 348.227 385.492 348.535 385.242 349.152C385 349.762 384.879 350.727 384.879 352.047V360.977C384.879 362.539 384.988 363.633 385.207 364.258C385.434 364.875 385.863 365.184 386.496 365.184C387.137 365.184 387.562 364.871 387.773 364.246C387.992 363.621 388.102 362.527 388.102 360.965V358.68H390.504V360.941C390.504 363.105 390.207 364.699 389.613 365.723C389.027 366.738 388 367.246 386.531 367.246C385.062 367.246 384.016 366.723 383.391 365.676C382.766 364.621 382.453 363.035 382.453 360.918V352.328ZM393.211 351.977C393.211 349.633 393.633 348.023 394.477 347.148C395.141 346.461 396.105 346.117 397.371 346.117C399.215 346.117 400.395 346.875 400.91 348.391C401.215 349.289 401.367 350.484 401.367 351.977V361.07C401.367 363.219 401.066 364.785 400.465 365.77C399.863 366.746 398.809 367.234 397.301 367.234C395.801 367.234 394.742 366.742 394.125 365.758C393.516 364.773 393.211 363.211 393.211 361.07V351.977ZM398.941 351.836C398.941 350.516 398.836 349.582 398.625 349.035C398.414 348.48 397.988 348.203 397.348 348.203C396.707 348.203 396.262 348.484 396.012 349.047C395.762 349.609 395.637 350.535 395.637 351.824V361.094C395.637 362.664 395.746 363.734 395.965 364.305C396.184 364.867 396.625 365.148 397.289 365.148C397.953 365.148 398.395 364.863 398.613 364.293C398.832 363.715 398.941 362.648 398.941 361.094V351.836Z" fill="#BEBEBE"/>
<path d="M382.453 252.328C382.453 250.766 382.582 249.617 382.84 248.883C383.098 248.148 383.379 247.609 383.684 247.266C384.348 246.516 385.316 246.137 386.59 246.129C388.371 246.137 389.52 246.922 390.035 248.484C390.332 249.383 390.48 250.578 390.48 252.07V254.355H388.102V252.059C388.102 250.738 388.027 249.848 387.879 249.387C387.738 248.918 387.566 248.609 387.363 248.461C387.16 248.305 386.902 248.227 386.59 248.227C385.941 248.227 385.492 248.535 385.242 249.152C385 249.762 384.879 250.727 384.879 252.047V260.977C384.879 262.539 384.988 263.633 385.207 264.258C385.434 264.875 385.863 265.184 386.496 265.184C387.137 265.184 387.562 264.871 387.773 264.246C387.992 263.621 388.102 262.527 388.102 260.965V258.68H390.504V260.941C390.504 263.105 390.207 264.699 389.613 265.723C389.027 266.738 388 267.246 386.531 267.246C385.062 267.246 384.016 266.723 383.391 265.676C382.766 264.621 382.453 263.035 382.453 260.918V252.328ZM397.242 258.853C398.309 259.339 398.842 260.634 398.842 262.737C398.842 264.243 398.593 265.359 398.095 266.086C397.597 266.812 396.806 267.176 395.722 267.176C394.638 267.176 393.873 266.827 393.428 266.13C392.982 265.433 392.76 264.334 392.76 262.834V262.148H394.518V262.86C394.518 263.956 394.591 264.694 394.737 265.075C394.89 265.45 395.221 265.638 395.73 265.638C396.246 265.638 396.592 265.421 396.768 264.987C396.949 264.554 397.04 263.777 397.04 262.658C397.04 261.533 396.917 260.745 396.671 260.294C396.431 259.837 396 259.608 395.379 259.608H394.878V258.158H395.361C395.795 258.158 396.123 258.088 396.346 257.947C396.797 257.666 397.022 256.837 397.022 255.46C397.022 255.442 397.022 255.425 397.022 255.407C397.022 254.382 396.908 253.708 396.68 253.386C396.451 253.063 396.135 252.902 395.73 252.902C395.332 252.902 395.039 253.087 394.852 253.456C394.67 253.819 394.579 254.479 394.579 255.434V255.803H392.795V255.407C392.795 254.019 393.021 252.996 393.472 252.34C393.923 251.684 394.679 251.355 395.739 251.355C396.8 251.355 397.576 251.692 398.068 252.366C398.561 253.034 398.807 254.048 398.807 255.407C398.807 257.317 398.285 258.466 397.242 258.853ZM407.156 246.375H409.582V267H407.156V257.004H403.852V267H401.426V246.375H403.852V255.023H407.156V246.375ZM412.289 255.188C412.289 253.828 412.515 252.85 412.966 252.252C413.417 251.654 414.176 251.355 415.242 251.355C416.314 251.355 417.07 251.654 417.51 252.252C417.955 252.844 418.178 253.822 418.178 255.188C418.178 256.945 417.759 258.111 416.921 258.686C417.308 258.973 417.618 259.494 417.853 260.25C418.087 261 418.204 261.803 418.204 262.658V263.273C418.181 264.639 417.938 265.632 417.475 266.253C417.012 266.868 416.265 267.176 415.233 267.176C414.202 267.176 413.443 266.868 412.957 266.253C412.471 265.638 412.213 264.665 412.184 263.335C412.178 263.265 412.175 262.919 412.175 262.298C412.175 261.671 412.295 260.985 412.535 260.241C412.775 259.497 413.101 258.987 413.511 258.712C412.696 258.132 412.289 256.957 412.289 255.188ZM416.394 262.544C416.394 261.501 416.291 260.719 416.086 260.197C415.887 259.676 415.605 259.415 415.242 259.415C414.885 259.415 414.586 259.685 414.346 260.224C414.111 260.757 413.994 261.539 413.994 262.57V263.177C414 264.12 414.085 264.768 414.249 265.119C414.413 265.471 414.715 265.646 415.154 265.646C415.594 265.646 415.896 265.544 416.06 265.339C416.224 265.128 416.32 264.812 416.35 264.39C416.379 263.962 416.394 263.543 416.394 263.133V262.544ZM415.813 257.93C415.972 257.783 416.104 257.49 416.209 257.051C416.314 256.605 416.367 256.061 416.367 255.416C416.367 254.766 416.344 254.276 416.297 253.948C416.256 253.614 416.183 253.365 416.077 253.201C415.972 253.037 415.857 252.932 415.734 252.885C415.611 252.838 415.427 252.814 415.181 252.814C414.94 252.814 414.744 252.867 414.592 252.973C414.264 253.213 414.1 254.019 414.1 255.39C414.1 256.755 414.275 257.602 414.627 257.93C414.779 258.076 414.976 258.149 415.216 258.149C415.456 258.149 415.655 258.076 415.813 257.93Z" fill="#BEBEBE"/>
<path d="M382.453 202.328C382.453 200.766 382.582 199.617 382.84 198.883C383.098 198.148 383.379 197.609 383.684 197.266C384.348 196.516 385.316 196.137 386.59 196.129C388.371 196.137 389.52 196.922 390.035 198.484C390.332 199.383 390.48 200.578 390.48 202.07V204.355H388.102V202.059C388.102 200.738 388.027 199.848 387.879 199.387C387.738 198.918 387.566 198.609 387.363 198.461C387.16 198.305 386.902 198.227 386.59 198.227C385.941 198.227 385.492 198.535 385.242 199.152C385 199.762 384.879 200.727 384.879 202.047V210.977C384.879 212.539 384.988 213.633 385.207 214.258C385.434 214.875 385.863 215.184 386.496 215.184C387.137 215.184 387.562 214.871 387.773 214.246C387.992 213.621 388.102 212.527 388.102 210.965V208.68H390.504V210.941C390.504 213.105 390.207 214.699 389.613 215.723C389.027 216.738 388 217.246 386.531 217.246C385.062 217.246 384.016 216.723 383.391 215.676C382.766 214.621 382.453 213.035 382.453 210.918V202.328ZM399.176 196.375H401.602V217H399.176V207.004H395.871V217H393.445V196.375H395.871V205.023H399.176V196.375ZM407.569 201.522H409.441V212.641H410.716V214.082H409.441V217.009H407.789V214.082H404.133V212.808L407.569 201.522ZM407.789 212.641V204.59L405.627 212.641H407.789Z" fill="#BEBEBE"/>
<path d="M438.746 217V207.136H437.317L433.913 215.366H433.858L430.454 207.136H429.025V217H430.174V209.398H430.222L433.366 216.932H434.405L437.55 209.398H437.598V217H438.746ZM443.463 210.8C444.584 210.8 445.329 211.647 445.356 212.837H441.494C441.569 211.654 442.349 210.8 443.463 210.8ZM445.329 214.963C445.131 215.633 444.468 216.091 443.565 216.091C442.287 216.091 441.487 215.195 441.487 213.835V213.767H446.587V213.315C446.587 211.162 445.404 209.768 443.483 209.768C441.521 209.768 440.264 211.265 440.264 213.473C440.264 215.708 441.501 217.123 443.538 217.123C445.09 217.123 446.293 216.207 446.498 214.963H445.329ZM452.835 209.891H447.065V210.868H449.362V217H450.538V210.868H452.835V209.891ZM456.014 216.111C455.159 216.111 454.592 215.667 454.592 214.99C454.592 214.32 455.139 213.896 456.096 213.835L457.996 213.719V214.3C457.996 215.325 457.135 216.111 456.014 216.111ZM455.747 217.123C456.704 217.123 457.606 216.59 458.03 215.776H458.058V217H459.186V212.085C459.186 210.67 458.133 209.768 456.465 209.768C454.783 209.768 453.73 210.711 453.648 211.941H454.797C454.947 211.244 455.521 210.813 456.438 210.813C457.422 210.813 457.996 211.333 457.996 212.201V212.796L455.959 212.912C454.318 213.008 453.382 213.773 453.382 214.99C453.382 216.269 454.332 217.123 455.747 217.123ZM465.509 217H466.685V209.891H465.509V212.823H462.002V209.891H460.826V217H462.002V213.801H465.509V217Z" fill="#BEBEBE"/>
<path d="M436.757 267V257.136H429.025V267H430.263V258.257H435.54V267H436.757ZM442.082 259.768C441.05 259.768 440.223 260.294 439.785 261.094H439.758V259.891H438.63V269.372H439.819V265.845H439.847C440.271 266.624 441.091 267.123 442.109 267.123C443.9 267.123 445.124 265.674 445.124 263.445C445.124 261.217 443.894 259.768 442.082 259.768ZM441.85 266.077C440.633 266.077 439.812 265.031 439.812 263.445C439.812 261.866 440.633 260.813 441.85 260.813C443.114 260.813 443.907 261.839 443.907 263.445C443.907 265.059 443.114 266.077 441.85 266.077ZM449.396 267.123C451.358 267.123 452.685 265.708 452.685 263.445C452.685 261.176 451.358 259.768 449.396 259.768C447.428 259.768 446.102 261.176 446.102 263.445C446.102 265.708 447.428 267.123 449.396 267.123ZM449.396 266.077C448.139 266.077 447.312 265.12 447.312 263.445C447.312 261.771 448.139 260.813 449.396 260.813C450.654 260.813 451.475 261.771 451.475 263.445C451.475 265.12 450.654 266.077 449.396 266.077ZM458.618 267H459.801V259.891H454.004V267H455.18V260.868H458.618V267ZM463.82 266.111C462.966 266.111 462.398 265.667 462.398 264.99C462.398 264.32 462.945 263.896 463.902 263.835L465.803 263.719V264.3C465.803 265.325 464.941 266.111 463.82 266.111ZM463.554 267.123C464.511 267.123 465.413 266.59 465.837 265.776H465.864V267H466.992V262.085C466.992 260.67 465.939 259.768 464.271 259.768C462.59 259.768 461.537 260.711 461.455 261.941H462.604C462.754 261.244 463.328 260.813 464.244 260.813C465.229 260.813 465.803 261.333 465.803 262.201V262.796L463.766 262.912C462.125 263.008 461.188 263.773 461.188 264.99C461.188 266.269 462.139 267.123 463.554 267.123ZM473.315 267H474.491V259.891H473.315V262.823H469.809V259.891H468.633V267H469.809V263.801H473.315V267Z" fill="#BEBEBE"/>
<path d="M432.751 318C434.85 318 436.094 316.968 436.094 315.231C436.094 313.919 435.232 312.976 433.893 312.805V312.75C434.843 312.579 435.595 311.622 435.595 310.597C435.595 309.12 434.453 308.136 432.765 308.136H429.025V318H432.751ZM430.256 309.223H432.484C433.681 309.223 434.351 309.763 434.351 310.74C434.351 311.807 433.558 312.388 432.102 312.388H430.256V309.223ZM430.256 316.913V313.447H432.45C434.022 313.447 434.829 314.028 434.829 315.17C434.829 316.312 434.05 316.913 432.566 316.913H430.256ZM440.387 318.123C442.349 318.123 443.675 316.708 443.675 314.445C443.675 312.176 442.349 310.768 440.387 310.768C438.418 310.768 437.092 312.176 437.092 314.445C437.092 316.708 438.418 318.123 440.387 318.123ZM440.387 317.077C439.129 317.077 438.302 316.12 438.302 314.445C438.302 312.771 439.129 311.813 440.387 311.813C441.645 311.813 442.465 312.771 442.465 314.445C442.465 316.12 441.645 317.077 440.387 317.077ZM449.574 317.022H446.108V316.968C446.443 316.517 446.628 315.744 446.689 314.862L446.908 311.868H449.574V317.022ZM445.261 319.88V318H450.777V319.88H451.885V317.022H450.757V310.891H445.862L445.589 314.835C445.521 315.792 445.268 316.681 444.748 317.022H444.153V319.88H445.261ZM455.904 318.123C457.866 318.123 459.192 316.708 459.192 314.445C459.192 312.176 457.866 310.768 455.904 310.768C453.936 310.768 452.609 312.176 452.609 314.445C452.609 316.708 453.936 318.123 455.904 318.123ZM455.904 317.077C454.646 317.077 453.819 316.12 453.819 314.445C453.819 312.771 454.646 311.813 455.904 311.813C457.162 311.813 457.982 312.771 457.982 314.445C457.982 316.12 457.162 317.077 455.904 317.077ZM463.971 310.768C462.938 310.768 462.111 311.294 461.674 312.094H461.646V310.891H460.519V320.372H461.708V316.845H461.735C462.159 317.624 462.979 318.123 463.998 318.123C465.789 318.123 467.013 316.674 467.013 314.445C467.013 312.217 465.782 310.768 463.971 310.768ZM463.738 317.077C462.521 317.077 461.701 316.031 461.701 314.445C461.701 312.866 462.521 311.813 463.738 311.813C465.003 311.813 465.796 312.839 465.796 314.445C465.796 316.059 465.003 317.077 463.738 317.077ZM471.285 318.123C473.247 318.123 474.573 316.708 474.573 314.445C474.573 312.176 473.247 310.768 471.285 310.768C469.316 310.768 467.99 312.176 467.99 314.445C467.99 316.708 469.316 318.123 471.285 318.123ZM471.285 317.077C470.027 317.077 469.2 316.12 469.2 314.445C469.2 312.771 470.027 311.813 471.285 311.813C472.543 311.813 473.363 312.771 473.363 314.445C473.363 316.12 472.543 317.077 471.285 317.077ZM480.473 317.022H477.007V316.968C477.342 316.517 477.526 315.744 477.588 314.862L477.807 311.868H480.473V317.022ZM476.159 319.88V318H481.676V319.88H482.783V317.022H481.655V310.891H476.761L476.487 314.835C476.419 315.792 476.166 316.681 475.646 317.022H475.052V319.88H476.159Z" fill="#BEBEBE"/>
<path d="M429.996 365.068C431.445 365.068 432.211 364.364 433.147 362.177L436.169 355.136H434.891L432.307 361.527H432.197L429.552 355.136H428.239L431.609 362.895C431.22 363.619 430.734 363.927 429.996 363.927C429.784 363.927 429.586 363.906 429.449 363.872V364.979C429.559 365.034 429.771 365.068 429.996 365.068ZM441.337 358.868V357.891H436.764V365H437.939V358.868H441.337ZM444.639 364.111C443.784 364.111 443.217 363.667 443.217 362.99C443.217 362.32 443.764 361.896 444.721 361.835L446.621 361.719V362.3C446.621 363.325 445.76 364.111 444.639 364.111ZM444.372 365.123C445.329 365.123 446.231 364.59 446.655 363.776H446.683V365H447.811V360.085C447.811 358.67 446.758 357.768 445.09 357.768C443.408 357.768 442.355 358.711 442.273 359.941H443.422C443.572 359.244 444.146 358.813 445.062 358.813C446.047 358.813 446.621 359.333 446.621 360.201V360.796L444.584 360.912C442.943 361.008 442.007 361.773 442.007 362.99C442.007 364.269 442.957 365.123 444.372 365.123ZM452.91 357.768C451.878 357.768 451.051 358.294 450.613 359.094H450.586V357.891H449.458V367.372H450.647V363.845H450.675C451.099 364.624 451.919 365.123 452.938 365.123C454.729 365.123 455.952 363.674 455.952 361.445C455.952 359.217 454.722 357.768 452.91 357.768ZM452.678 364.077C451.461 364.077 450.641 363.031 450.641 361.445C450.641 359.866 451.461 358.813 452.678 358.813C453.942 358.813 454.735 359.839 454.735 361.445C454.735 363.059 453.942 364.077 452.678 364.077ZM457.805 365.068C458.242 365.068 458.584 364.727 458.584 364.289C458.584 363.852 458.242 363.51 457.805 363.51C457.367 363.51 457.025 363.852 457.025 364.289C457.025 364.727 457.367 365.068 457.805 365.068ZM464.989 358.868V357.891H460.416V365H461.592V358.868H464.989ZM468.291 364.111C467.437 364.111 466.869 363.667 466.869 362.99C466.869 362.32 467.416 361.896 468.373 361.835L470.273 361.719V362.3C470.273 363.325 469.412 364.111 468.291 364.111ZM468.024 365.123C468.981 365.123 469.884 364.59 470.308 363.776H470.335V365H471.463V360.085C471.463 358.67 470.41 357.768 468.742 357.768C467.061 357.768 466.008 358.711 465.926 359.941H467.074C467.225 359.244 467.799 358.813 468.715 358.813C469.699 358.813 470.273 359.333 470.273 360.201V360.796L468.236 360.912C466.596 361.008 465.659 361.773 465.659 362.99C465.659 364.269 466.609 365.123 468.024 365.123ZM475.476 365.123C477.144 365.123 478.251 364.228 478.251 362.901C478.251 362.081 477.766 361.479 476.829 361.274V361.22C477.54 361.056 478.005 360.413 478.005 359.688C478.005 358.547 477.123 357.768 475.503 357.768C473.999 357.768 472.974 358.513 472.823 359.688H473.979C474.074 359.121 474.662 358.759 475.503 358.759C476.419 358.759 476.843 359.189 476.843 359.784C476.843 360.481 476.378 360.823 475.476 360.823H474.409V361.794H475.476C476.549 361.794 477.082 362.156 477.082 362.956C477.082 363.646 476.508 364.139 475.476 364.139C474.594 364.139 474.006 363.776 473.869 363.154H472.666C472.789 364.357 473.917 365.123 475.476 365.123Z" fill="#BEBEBE"/>
<path d="M559 159V144.012H566.91V142.09H556.879V159H559ZM570.566 157.477C569.102 157.477 568.129 156.715 568.129 155.555C568.129 154.406 569.066 153.68 570.707 153.574L573.965 153.375V154.371C573.965 156.129 572.488 157.477 570.566 157.477ZM570.109 159.211C571.75 159.211 573.297 158.297 574.023 156.902H574.07V159H576.004V150.574C576.004 148.148 574.199 146.602 571.34 146.602C568.457 146.602 566.652 148.219 566.512 150.328H568.48C568.738 149.133 569.723 148.395 571.293 148.395C572.98 148.395 573.965 149.285 573.965 150.773V151.793L570.473 151.992C567.66 152.156 566.055 153.469 566.055 155.555C566.055 157.746 567.684 159.211 570.109 159.211ZM582.883 159.211C585.742 159.211 587.641 157.676 587.641 155.402C587.641 153.996 586.809 152.965 585.203 152.613V152.52C586.422 152.238 587.219 151.137 587.219 149.895C587.219 147.938 585.707 146.602 582.93 146.602C580.352 146.602 578.594 147.879 578.336 149.895H580.316C580.48 148.922 581.488 148.301 582.93 148.301C584.5 148.301 585.227 149.039 585.227 150.059C585.227 151.254 584.43 151.84 582.883 151.84H581.055V153.504H582.883C584.723 153.504 585.637 154.125 585.637 155.496C585.637 156.68 584.652 157.523 582.883 157.523C581.371 157.523 580.363 156.902 580.129 155.836H578.066C578.277 157.898 580.211 159.211 582.883 159.211ZM595.035 159.211C598.398 159.211 600.672 156.785 600.672 152.906C600.672 149.016 598.398 146.602 595.035 146.602C591.66 146.602 589.387 149.016 589.387 152.906C589.387 156.785 591.66 159.211 595.035 159.211ZM595.035 157.418C592.879 157.418 591.461 155.777 591.461 152.906C591.461 150.035 592.879 148.395 595.035 148.395C597.191 148.395 598.598 150.035 598.598 152.906C598.598 155.777 597.191 157.418 595.035 157.418ZM606.965 157.477C605.5 157.477 604.527 156.715 604.527 155.555C604.527 154.406 605.465 153.68 607.105 153.574L610.363 153.375V154.371C610.363 156.129 608.887 157.477 606.965 157.477ZM606.508 159.211C608.148 159.211 609.695 158.297 610.422 156.902H610.469V159H612.402V150.574C612.402 148.148 610.598 146.602 607.738 146.602C604.855 146.602 603.051 148.219 602.91 150.328H604.879C605.137 149.133 606.121 148.395 607.691 148.395C609.379 148.395 610.363 149.285 610.363 150.773V151.793L606.871 151.992C604.059 152.156 602.453 153.469 602.453 155.555C602.453 157.746 604.082 159.211 606.508 159.211ZM623.242 159H625.258V146.812H623.242V151.84H617.23V146.812H615.215V159H617.23V153.516H623.242V159ZM632.16 157.477C630.695 157.477 629.723 156.715 629.723 155.555C629.723 154.406 630.66 153.68 632.301 153.574L635.559 153.375V154.371C635.559 156.129 634.082 157.477 632.16 157.477ZM631.703 159.211C633.344 159.211 634.891 158.297 635.617 156.902H635.664V159H637.598V150.574C637.598 148.148 635.793 146.602 632.934 146.602C630.051 146.602 628.246 148.219 628.105 150.328H630.074C630.332 149.133 631.316 148.395 632.887 148.395C634.574 148.395 635.559 149.285 635.559 150.773V151.793L632.066 151.992C629.254 152.156 627.648 153.469 627.648 155.555C627.648 157.746 629.277 159.211 631.703 159.211ZM643.668 153.621L644.043 148.488H648.191V159H650.207V146.812H642.227L641.758 153.574C641.605 155.812 641.148 157.23 639.941 157.23C639.648 157.23 639.426 157.172 639.32 157.137V158.977C639.461 159.035 639.695 159.105 640.047 159.105C642.613 159.105 643.422 156.984 643.668 153.621ZM655.105 159L661.199 149.93H661.293V159H663.309V146.812H661.293L655.199 155.883H655.105V146.812H653.09V159H655.105ZM670.234 159.211C673.094 159.211 674.992 157.676 674.992 155.402C674.992 153.996 674.16 152.965 672.555 152.613V152.52C673.773 152.238 674.57 151.137 674.57 149.895C674.57 147.938 673.059 146.602 670.281 146.602C667.703 146.602 665.945 147.879 665.688 149.895H667.668C667.832 148.922 668.84 148.301 670.281 148.301C671.852 148.301 672.578 149.039 672.578 150.059C672.578 151.254 671.781 151.84 670.234 151.84H668.406V153.504H670.234C672.074 153.504 672.988 154.125 672.988 155.496C672.988 156.68 672.004 157.523 670.234 157.523C668.723 157.523 667.715 156.902 667.48 155.836H665.418C665.629 157.898 667.562 159.211 670.234 159.211ZM681.355 157.477C679.891 157.477 678.918 156.715 678.918 155.555C678.918 154.406 679.855 153.68 681.496 153.574L684.754 153.375V154.371C684.754 156.129 683.277 157.477 681.355 157.477ZM680.898 159.211C682.539 159.211 684.086 158.297 684.812 156.902H684.859V159H686.793V150.574C686.793 148.148 684.988 146.602 682.129 146.602C679.246 146.602 677.441 148.219 677.301 150.328H679.27C679.527 149.133 680.512 148.395 682.082 148.395C683.77 148.395 684.754 149.285 684.754 150.773V151.793L681.262 151.992C678.449 152.156 676.844 153.469 676.844 155.555C676.844 157.746 678.473 159.211 680.898 159.211ZM698.289 146.812H688.398V148.488H692.336V159H694.352V148.488H698.289V146.812ZM705.004 159.211C708.367 159.211 710.641 156.785 710.641 152.906C710.641 149.016 708.367 146.602 705.004 146.602C701.629 146.602 699.355 149.016 699.355 152.906C699.355 156.785 701.629 159.211 705.004 159.211ZM705.004 157.418C702.848 157.418 701.43 155.777 701.43 152.906C701.43 150.035 702.848 148.395 705.004 148.395C707.16 148.395 708.566 150.035 708.566 152.906C708.566 155.777 707.16 157.418 705.004 157.418ZM718.832 146.602C717.062 146.602 715.645 147.504 714.895 148.875H714.848V146.812H712.914V163.066H714.953V157.02H715C715.727 158.355 717.133 159.211 718.879 159.211C721.949 159.211 724.047 156.727 724.047 152.906C724.047 149.086 721.938 146.602 718.832 146.602ZM718.434 157.418C716.348 157.418 714.941 155.625 714.941 152.906C714.941 150.199 716.348 148.395 718.434 148.395C720.602 148.395 721.961 150.152 721.961 152.906C721.961 155.672 720.602 157.418 718.434 157.418Z" fill="#5F6263"/>
</g>
<line x1="741" y1="174.5" x2="918" y2="174.5" stroke="black"/>
<line x1="741" y1="253.5" x2="918" y2="253.5" stroke="black"/>
<line x1="741.5" y1="175" x2="741.5" y2="382" stroke="black"/>
<line x1="918.5" y1="174" x2="918.5" y2="382" stroke="black"/>
<line x1="741" y1="381.5" x2="918" y2="381.5" stroke="black"/>
</g>
<defs>
<filter id="filter0_d" x="332" y="134" width="628" height="292" filterUnits="userSpaceOnUse" color-interpolation-filters="sRGB">
<feFlood flood-opacity="0" result="BackgroundImageFix"/>
<feColorMatrix in="SourceAlpha" type="matrix" values="0 0 0 0 0 0 0 0 0 0 0 0 0 0 0 0 0 0 127 0"/>
<feOffset dx="8" dy="8"/>
<feGaussianBlur stdDeviation="1.5"/>
<feColorMatrix type="matrix" values="0 0 0 0 0.954167 0 0 0 0 0.931903 0 0 0 0 0.931903 0 0 0 0.25 0"/>
<feBlend mode="normal" in2="BackgroundImageFix" result="effect1_dropShadow"/>
<feBlend mode="normal" in="SourceGraphic" in2="effect1_dropShadow" result="shape"/>
</filter>
<filter id="filter1_i" x="332" y="134" width="621" height="285" filterUnits="userSpaceOnUse" color-interpolation-filters="sRGB">
<feFlood flood-opacity="0" result="BackgroundImageFix"/>
<feBlend mode="normal" in="SourceGraphic" in2="BackgroundImageFix" result="shape"/>
<feColorMatrix in="SourceAlpha" type="matrix" values="0 0 0 0 0 0 0 0 0 0 0 0 0 0 0 0 0 0 127 0" result="hardAlpha"/>
<feOffset dx="4" dy="4"/>
<feGaussianBlur stdDeviation="2"/>
<feComposite in2="hardAlpha" operator="arithmetic" k2="-1" k3="1"/>
<feColorMatrix type="matrix" values="0 0 0 0 0.782736 0 0 0 0 0.804167 0 0 0 0 0.72174 0 0 0 1 0"/>
<feBlend mode="normal" in2="shape" result="effect1_innerShadow"/>
</filter>
<filter id="filter2_i" x="361" y="172" width="355" height="211" filterUnits="userSpaceOnUse" color-interpolation-filters="sRGB">
<feFlood flood-opacity="0" result="BackgroundImageFix"/>
<feBlend mode="normal" in="SourceGraphic" in2="BackgroundImageFix" result="shape"/>
<feColorMatrix in="SourceAlpha" type="matrix" values="0 0 0 0 0 0 0 0 0 0 0 0 0 0 0 0 0 0 127 0" result="hardAlpha"/>
<feMorphology radius="3" operator="erode" in="SourceAlpha" result="effect1_innerShadow"/>
<feOffset dx="4" dy="4"/>
<feGaussianBlur stdDeviation="1.5"/>
<feComposite in2="hardAlpha" operator="arithmetic" k2="-1" k3="1"/>
<feColorMatrix type="matrix" values="0 0 0 0 0.4 0 0 0 0 0.4 0 0 0 0 0.4 0 0 0 1 0"/>
<feBlend mode="normal" in2="shape" result="effect1_innerShadow"/>
</filter>
</defs>
</svg>
