<svg width="1280" height="758" viewBox="0 0 1280 758" fill="none" xmlns="http://www.w3.org/2000/svg">
<g filter="url(#filter0_d)">
<g filter="url(#filter1_i)">
<rect x="332" y="134" width="617" height="281" rx="20" fill="#D6EAC2"/>
<g filter="url(#filter2_d)">
<rect x="361" y="172" width="351" height="207" rx="11" fill="black"/>
</g>
<path d="M580.906 184.062H583.912L571.607 215H568.461L580.906 184.062ZM567.389 189.811C567.389 188.545 567.236 187.678 566.932 187.209C566.627 186.74 566.047 186.506 565.191 186.506C564.336 186.506 563.756 186.746 563.451 187.227C563.146 187.695 562.994 188.557 562.994 189.811V198.529C562.994 199.818 563.146 200.715 563.451 201.219C563.768 201.711 564.348 201.957 565.191 201.957C566.035 201.957 566.609 201.711 566.914 201.219C567.23 200.715 567.389 199.818 567.389 198.529V189.811ZM559.742 191.023C559.742 188.281 560.141 186.371 560.938 185.293C561.734 184.215 563.152 183.676 565.191 183.676C567.242 183.676 568.666 184.215 569.463 185.293C570.26 186.371 570.658 188.281 570.658 191.023V197.264C570.658 200.053 570.254 202.004 569.445 203.117C568.637 204.23 567.219 204.787 565.191 204.787C563.176 204.787 561.764 204.23 560.955 203.117C560.146 202.004 559.742 200.053 559.742 197.264V191.023ZM581.627 201.588C581.627 198.846 582.025 196.936 582.822 195.857C583.619 194.779 585.037 194.24 587.076 194.24C589.127 194.24 590.551 194.779 591.348 195.857C592.145 196.936 592.543 198.846 592.543 201.588V207.828C592.543 210.617 592.139 212.568 591.33 213.682C590.521 214.795 589.104 215.352 587.076 215.352C585.061 215.352 583.648 214.795 582.84 213.682C582.031 212.568 581.627 210.617 581.627 207.828V201.588ZM589.291 200.375C589.291 199.109 589.139 198.242 588.834 197.773C588.529 197.305 587.949 197.07 587.094 197.07C586.238 197.07 585.658 197.311 585.354 197.791C585.049 198.26 584.896 199.121 584.896 200.375V209.094C584.896 210.383 585.049 211.279 585.354 211.783C585.67 212.275 586.244 212.521 587.076 212.521C587.92 212.521 588.5 212.275 588.816 211.783C589.133 211.279 589.291 210.383 589.291 209.094V200.375Z" fill="#FF9500"/>
<path d="M580.906 234.062H583.912L571.607 265H568.461L580.906 234.062ZM567.389 239.811C567.389 238.545 567.236 237.678 566.932 237.209C566.627 236.74 566.047 236.506 565.191 236.506C564.336 236.506 563.756 236.746 563.451 237.227C563.146 237.695 562.994 238.557 562.994 239.811V248.529C562.994 249.818 563.146 250.715 563.451 251.219C563.768 251.711 564.348 251.957 565.191 251.957C566.035 251.957 566.609 251.711 566.914 251.219C567.23 250.715 567.389 249.818 567.389 248.529V239.811ZM559.742 241.023C559.742 238.281 560.141 236.371 560.938 235.293C561.734 234.215 563.152 233.676 565.191 233.676C567.242 233.676 568.666 234.215 569.463 235.293C570.26 236.371 570.658 238.281 570.658 241.023V247.264C570.658 250.053 570.254 252.004 569.445 253.117C568.637 254.23 567.219 254.787 565.191 254.787C563.176 254.787 561.764 254.23 560.955 253.117C560.146 252.004 559.742 250.053 559.742 247.264V241.023ZM581.627 251.588C581.627 248.846 582.025 246.936 582.822 245.857C583.619 244.779 585.037 244.24 587.076 244.24C589.127 244.24 590.551 244.779 591.348 245.857C592.145 246.936 592.543 248.846 592.543 251.588V257.828C592.543 260.617 592.139 262.568 591.33 263.682C590.521 264.795 589.104 265.352 587.076 265.352C585.061 265.352 583.648 264.795 582.84 263.682C582.031 262.568 581.627 260.617 581.627 257.828V251.588ZM589.291 250.375C589.291 249.109 589.139 248.242 588.834 247.773C588.529 247.305 587.949 247.07 587.094 247.07C586.238 247.07 585.658 247.311 585.354 247.791C585.049 248.26 584.896 249.121 584.896 250.375V259.094C584.896 260.383 585.049 261.279 585.354 261.783C585.67 262.275 586.244 262.521 587.076 262.521C587.92 262.521 588.5 262.275 588.816 261.783C589.133 261.279 589.291 260.383 589.291 259.094V250.375Z" fill="#FF9500"/>
<path d="M580.906 284.062H583.912L571.607 315H568.461L580.906 284.062ZM567.389 289.811C567.389 288.545 567.236 287.678 566.932 287.209C566.627 286.74 566.047 286.506 565.191 286.506C564.336 286.506 563.756 286.746 563.451 287.227C563.146 287.695 562.994 288.557 562.994 289.811V298.529C562.994 299.818 563.146 300.715 563.451 301.219C563.768 301.711 564.348 301.957 565.191 301.957C566.035 301.957 566.609 301.711 566.914 301.219C567.23 300.715 567.389 299.818 567.389 298.529V289.811ZM559.742 291.023C559.742 288.281 560.141 286.371 560.938 285.293C561.734 284.215 563.152 283.676 565.191 283.676C567.242 283.676 568.666 284.215 569.463 285.293C570.26 286.371 570.658 288.281 570.658 291.023V297.264C570.658 300.053 570.254 302.004 569.445 303.117C568.637 304.23 567.219 304.787 565.191 304.787C563.176 304.787 561.764 304.23 560.955 303.117C560.146 302.004 559.742 300.053 559.742 297.264V291.023ZM581.627 301.588C581.627 298.846 582.025 296.936 582.822 295.857C583.619 294.779 585.037 294.24 587.076 294.24C589.127 294.24 590.551 294.779 591.348 295.857C592.145 296.936 592.543 298.846 592.543 301.588V307.828C592.543 310.617 592.139 312.568 591.33 313.682C590.521 314.795 589.104 315.352 587.076 315.352C585.061 315.352 583.648 314.795 582.84 313.682C582.031 312.568 581.627 310.617 581.627 307.828V301.588ZM589.291 300.375C589.291 299.109 589.139 298.242 588.834 297.773C588.529 297.305 587.949 297.07 587.094 297.07C586.238 297.07 585.658 297.311 585.354 297.791C585.049 298.26 584.896 299.121 584.896 300.375V309.094C584.896 310.383 585.049 311.279 585.354 311.783C585.67 312.275 586.244 312.521 587.076 312.521C587.92 312.521 588.5 312.275 588.816 311.783C589.133 311.279 589.291 310.383 589.291 309.094V300.375Z" fill="#FF9500"/>
<path d="M580.906 334.062H583.912L571.607 365H568.461L580.906 334.062ZM567.389 339.811C567.389 338.545 567.236 337.678 566.932 337.209C566.627 336.74 566.047 336.506 565.191 336.506C564.336 336.506 563.756 336.746 563.451 337.227C563.146 337.695 562.994 338.557 562.994 339.811V348.529C562.994 349.818 563.146 350.715 563.451 351.219C563.768 351.711 564.348 351.957 565.191 351.957C566.035 351.957 566.609 351.711 566.914 351.219C567.23 350.715 567.389 349.818 567.389 348.529V339.811ZM559.742 341.023C559.742 338.281 560.141 336.371 560.938 335.293C561.734 334.215 563.152 333.676 565.191 333.676C567.242 333.676 568.666 334.215 569.463 335.293C570.26 336.371 570.658 338.281 570.658 341.023V347.264C570.658 350.053 570.254 352.004 569.445 353.117C568.637 354.23 567.219 354.787 565.191 354.787C563.176 354.787 561.764 354.23 560.955 353.117C560.146 352.004 559.742 350.053 559.742 347.264V341.023ZM581.627 351.588C581.627 348.846 582.025 346.936 582.822 345.857C583.619 344.779 585.037 344.24 587.076 344.24C589.127 344.24 590.551 344.779 591.348 345.857C592.145 346.936 592.543 348.846 592.543 351.588V357.828C592.543 360.617 592.139 362.568 591.33 363.682C590.521 364.795 589.104 365.352 587.076 365.352C585.061 365.352 583.648 364.795 582.84 363.682C582.031 362.568 581.627 360.617 581.627 357.828V351.588ZM589.291 350.375C589.291 349.109 589.139 348.242 588.834 347.773C588.529 347.305 587.949 347.07 587.094 347.07C586.238 347.07 585.658 347.311 585.354 347.791C585.049 348.26 584.896 349.121 584.896 350.375V359.094C584.896 360.383 585.049 361.279 585.354 361.783C585.67 362.275 586.244 362.521 587.076 362.521C587.92 362.521 588.5 362.275 588.816 361.783C589.133 361.279 589.291 360.383 589.291 359.094V350.375Z" fill="#FF9500"/>
<path d="M389.418 289.375H391.844V310H389.418V300.004H386.113V310H383.688V289.375H386.113V298.023H389.418V289.375ZM395.43 296.254C395.43 293.035 395.766 291.055 396.438 290.312C396.695 290.031 396.957 289.805 397.223 289.633C397.73 289.305 398.441 289.141 399.355 289.141C401.613 289.141 402.742 291.043 402.742 294.848C402.742 296.738 402.254 298.605 401.277 300.449C400.848 301.246 400.414 302.027 399.977 302.793C398.875 304.699 398.188 306.496 397.914 308.184H402.426V310H395.57V308.852C395.57 307.297 396.352 305.004 397.914 301.973C397.922 301.965 398.176 301.477 398.676 300.508C399.176 299.539 399.477 298.984 399.578 298.844C399.836 298.367 400.043 297.73 400.199 296.934C400.363 296.137 400.445 295.328 400.445 294.508C400.445 293.688 400.387 293.016 400.27 292.492C400.152 291.969 400.008 291.625 399.836 291.461C399.664 291.289 399.457 291.203 399.215 291.203C398.98 291.203 398.789 291.25 398.641 291.344C398.078 291.688 397.797 292.852 397.797 294.836V297.52H395.43V296.254Z" fill="#BEBEBE"/>
<path d="M382.688 339.375H388.852V341.391H385.113V348.445H388.652V350.461H385.113V357.984H388.898V360H382.688V339.375ZM390.551 342.422H392.672L394.523 348.035L396.164 342.422H398.344L395.508 351.023L398.461 360H396.223L394.301 354.023L392.531 360H390.352L393.305 350.941L390.551 342.422Z" fill="#BEBEBE"/>
<path d="M382.453 245.328C382.453 243.766 382.582 242.617 382.84 241.883C383.098 241.148 383.379 240.609 383.684 240.266C384.348 239.516 385.316 239.137 386.59 239.129C388.371 239.137 389.52 239.922 390.035 241.484C390.332 242.383 390.48 243.578 390.48 245.07V247.355H388.102V245.059C388.102 243.738 388.027 242.848 387.879 242.387C387.738 241.918 387.566 241.609 387.363 241.461C387.16 241.305 386.902 241.227 386.59 241.227C385.941 241.227 385.492 241.535 385.242 242.152C385 242.762 384.879 243.727 384.879 245.047V253.977C384.879 255.539 384.988 256.633 385.207 257.258C385.434 257.875 385.863 258.184 386.496 258.184C387.137 258.184 387.562 257.871 387.773 257.246C387.992 256.621 388.102 255.527 388.102 253.965V251.68H390.504V253.941C390.504 256.105 390.207 257.699 389.613 258.723C389.027 259.738 388 260.246 386.531 260.246C385.062 260.246 384.016 259.723 383.391 258.676C382.766 257.621 382.453 256.035 382.453 253.918V245.328ZM399.07 249.137C400.492 249.785 401.203 251.512 401.203 254.316C401.203 256.324 400.871 257.812 400.207 258.781C399.543 259.75 398.488 260.234 397.043 260.234C395.598 260.234 394.578 259.77 393.984 258.84C393.391 257.91 393.094 256.445 393.094 254.445V253.531H395.438V254.48C395.438 255.941 395.535 256.926 395.73 257.434C395.934 257.934 396.375 258.184 397.055 258.184C397.742 258.184 398.203 257.895 398.438 257.316C398.68 256.738 398.801 255.703 398.801 254.211C398.801 252.711 398.637 251.66 398.309 251.059C397.988 250.449 397.414 250.145 396.586 250.145H395.918V248.211H396.562C397.141 248.211 397.578 248.117 397.875 247.93C398.477 247.555 398.777 246.449 398.777 244.613C398.777 244.59 398.777 244.566 398.777 244.543C398.777 243.176 398.625 242.277 398.32 241.848C398.016 241.418 397.594 241.203 397.055 241.203C396.523 241.203 396.133 241.449 395.883 241.941C395.641 242.426 395.52 243.305 395.52 244.578V245.07H393.141V244.543C393.141 242.691 393.441 241.328 394.043 240.453C394.645 239.578 395.652 239.141 397.066 239.141C398.48 239.141 399.516 239.59 400.172 240.488C400.828 241.379 401.156 242.73 401.156 244.543C401.156 247.09 400.461 248.621 399.07 249.137ZM409.816 239.375H412.242V260H409.816V250.004H406.512V260H404.086V239.375H406.512V248.023H409.816V239.375ZM415.289 244.25C415.289 242.438 415.59 241.133 416.191 240.336C416.793 239.539 417.805 239.141 419.227 239.141C420.656 239.141 421.664 239.539 422.25 240.336C422.844 241.125 423.141 242.43 423.141 244.25C423.141 246.594 422.582 248.148 421.465 248.914C421.98 249.297 422.395 249.992 422.707 251C423.02 252 423.176 253.07 423.176 254.211V255.031C423.145 256.852 422.82 258.176 422.203 259.004C421.586 259.824 420.59 260.234 419.215 260.234C417.84 260.234 416.828 259.824 416.18 259.004C415.531 258.184 415.188 256.887 415.148 255.113C415.141 255.02 415.137 254.559 415.137 253.73C415.137 252.895 415.297 251.98 415.617 250.988C415.938 249.996 416.371 249.316 416.918 248.949C415.832 248.176 415.289 246.609 415.289 244.25ZM420.762 254.059C420.762 252.668 420.625 251.625 420.352 250.93C420.086 250.234 419.711 249.887 419.227 249.887C418.75 249.887 418.352 250.246 418.031 250.965C417.719 251.676 417.562 252.719 417.562 254.094V254.902C417.57 256.16 417.684 257.023 417.902 257.492C418.121 257.961 418.523 258.195 419.109 258.195C419.695 258.195 420.098 258.059 420.316 257.785C420.535 257.504 420.664 257.082 420.703 256.52C420.742 255.949 420.762 255.391 420.762 254.844V254.059ZM419.988 247.906C420.199 247.711 420.375 247.32 420.516 246.734C420.656 246.141 420.727 245.414 420.727 244.555C420.727 243.688 420.695 243.035 420.633 242.598C420.578 242.152 420.48 241.82 420.34 241.602C420.199 241.383 420.047 241.242 419.883 241.18C419.719 241.117 419.473 241.086 419.145 241.086C418.824 241.086 418.562 241.156 418.359 241.297C417.922 241.617 417.703 242.691 417.703 244.52C417.703 246.34 417.938 247.469 418.406 247.906C418.609 248.102 418.871 248.199 419.191 248.199C419.512 248.199 419.777 248.102 419.988 247.906Z" fill="#BEBEBE"/>
<path d="M382.453 195.328C382.453 193.766 382.582 192.617 382.84 191.883C383.098 191.148 383.379 190.609 383.684 190.266C384.348 189.516 385.316 189.137 386.59 189.129C388.371 189.137 389.52 189.922 390.035 191.484C390.332 192.383 390.48 193.578 390.48 195.07V197.355H388.102V195.059C388.102 193.738 388.027 192.848 387.879 192.387C387.738 191.918 387.566 191.609 387.363 191.461C387.16 191.305 386.902 191.227 386.59 191.227C385.941 191.227 385.492 191.535 385.242 192.152C385 192.762 384.879 193.727 384.879 195.047V203.977C384.879 205.539 384.988 206.633 385.207 207.258C385.434 207.875 385.863 208.184 386.496 208.184C387.137 208.184 387.562 207.871 387.773 207.246C387.992 206.621 388.102 205.527 388.102 203.965V201.68H390.504V203.941C390.504 206.105 390.207 207.699 389.613 208.723C389.027 209.738 388 210.246 386.531 210.246C385.062 210.246 384.016 209.723 383.391 208.676C382.766 207.621 382.453 206.035 382.453 203.918V195.328ZM399.176 189.375H401.602V210H399.176V200.004H395.871V210H393.445V189.375H395.871V198.023H399.176V189.375ZM408.996 189.363H411.492V204.188H413.191V206.109H411.492V210.012H409.289V206.109H404.414V204.41L408.996 189.363ZM409.289 204.188V193.453L406.406 204.188H409.289Z" fill="#BEBEBE"/>
<path d="M470 139.152V141.712H459.984V162H457.104V139.152H470ZM477.435 144.56C479.525 144.56 481.072 145.019 482.075 145.936C483.077 146.853 483.579 148.315 483.579 150.32V162H481.531L480.987 159.568H480.859C480.112 160.507 479.323 161.2 478.491 161.648C477.659 162.096 476.528 162.32 475.099 162.32C473.541 162.32 472.251 161.915 471.227 161.104C470.203 160.272 469.691 158.981 469.691 157.232C469.691 155.525 470.363 154.213 471.707 153.296C473.051 152.357 475.12 151.845 477.915 151.76L480.827 151.664V150.64C480.827 149.211 480.517 148.219 479.899 147.664C479.28 147.109 478.405 146.832 477.275 146.832C476.379 146.832 475.525 146.971 474.715 147.248C473.904 147.504 473.147 147.803 472.443 148.144L471.579 146.032C472.325 145.627 473.211 145.285 474.235 145.008C475.259 144.709 476.325 144.56 477.435 144.56ZM480.795 153.616L478.267 153.712C476.133 153.797 474.651 154.139 473.819 154.736C473.008 155.333 472.603 156.176 472.603 157.264C472.603 158.224 472.891 158.928 473.467 159.376C474.064 159.824 474.821 160.048 475.739 160.048C477.168 160.048 478.363 159.653 479.323 158.864C480.304 158.053 480.795 156.816 480.795 155.152V153.616ZM493.388 144.528C495.351 144.528 496.908 144.923 498.06 145.712C499.234 146.501 499.82 147.611 499.82 149.04C499.82 150.085 499.522 150.917 498.924 151.536C498.348 152.133 497.57 152.571 496.588 152.848V152.976C497.271 153.168 497.9 153.435 498.476 153.776C499.052 154.117 499.511 154.576 499.852 155.152C500.215 155.707 500.396 156.411 500.396 157.264C500.396 158.693 499.799 159.899 498.604 160.88C497.431 161.84 495.586 162.32 493.068 162.32C491.831 162.32 490.711 162.224 489.708 162.032C488.706 161.84 487.874 161.563 487.212 161.2V158.672C487.938 159.013 488.791 159.323 489.772 159.6C490.775 159.877 491.863 160.016 493.036 160.016C494.316 160.016 495.394 159.803 496.268 159.376C497.164 158.928 497.612 158.171 497.612 157.104C497.612 155.184 495.98 154.224 492.716 154.224H490.412V151.92H492.268C493.74 151.92 494.914 151.728 495.788 151.344C496.684 150.939 497.132 150.256 497.132 149.296C497.132 148.485 496.791 147.877 496.108 147.472C495.447 147.067 494.487 146.864 493.228 146.864C492.29 146.864 491.458 146.96 490.732 147.152C490.028 147.323 489.25 147.589 488.396 147.952L487.404 145.712C489.196 144.923 491.191 144.528 493.388 144.528ZM519.476 153.392C519.476 156.229 518.75 158.427 517.3 159.984C515.87 161.541 513.929 162.32 511.476 162.32C509.961 162.32 508.606 161.979 507.412 161.296C506.238 160.592 505.31 159.579 504.628 158.256C503.945 156.912 503.604 155.291 503.604 153.392C503.604 150.555 504.308 148.368 505.716 146.832C507.145 145.296 509.097 144.528 511.572 144.528C513.108 144.528 514.473 144.88 515.668 145.584C516.862 146.267 517.79 147.269 518.452 148.592C519.134 149.893 519.476 151.493 519.476 153.392ZM506.516 153.392C506.516 155.419 506.91 157.029 507.7 158.224C508.51 159.397 509.79 159.984 511.54 159.984C513.268 159.984 514.537 159.397 515.348 158.224C516.158 157.029 516.564 155.419 516.564 153.392C516.564 151.365 516.158 149.776 515.348 148.624C514.537 147.472 513.257 146.896 511.508 146.896C509.758 146.896 508.489 147.472 507.7 148.624C506.91 149.776 506.516 151.365 506.516 153.392ZM530.435 144.56C532.525 144.56 534.072 145.019 535.075 145.936C536.077 146.853 536.579 148.315 536.579 150.32V162H534.531L533.987 159.568H533.859C533.112 160.507 532.323 161.2 531.491 161.648C530.659 162.096 529.528 162.32 528.099 162.32C526.541 162.32 525.251 161.915 524.227 161.104C523.203 160.272 522.691 158.981 522.691 157.232C522.691 155.525 523.363 154.213 524.707 153.296C526.051 152.357 528.12 151.845 530.915 151.76L533.827 151.664V150.64C533.827 149.211 533.517 148.219 532.899 147.664C532.28 147.109 531.405 146.832 530.275 146.832C529.379 146.832 528.525 146.971 527.715 147.248C526.904 147.504 526.147 147.803 525.443 148.144L524.579 146.032C525.325 145.627 526.211 145.285 527.235 145.008C528.259 144.709 529.325 144.56 530.435 144.56ZM533.795 153.616L531.267 153.712C529.133 153.797 527.651 154.139 526.819 154.736C526.008 155.333 525.603 156.176 525.603 157.264C525.603 158.224 525.891 158.928 526.467 159.376C527.064 159.824 527.821 160.048 528.739 160.048C530.168 160.048 531.363 159.653 532.323 158.864C533.304 158.053 533.795 156.816 533.795 155.152V153.616ZM544.692 144.848V151.984H554.004V144.848H556.82V162H554.004V154.352H544.692V162H541.876V144.848H544.692ZM568.747 144.56C570.838 144.56 572.385 145.019 573.387 145.936C574.39 146.853 574.891 148.315 574.891 150.32V162H572.843L572.299 159.568H572.171C571.425 160.507 570.635 161.2 569.803 161.648C568.971 162.096 567.841 162.32 566.411 162.32C564.854 162.32 563.563 161.915 562.539 161.104C561.515 160.272 561.003 158.981 561.003 157.232C561.003 155.525 561.675 154.213 563.019 153.296C564.363 152.357 566.433 151.845 569.227 151.76L572.139 151.664V150.64C572.139 149.211 571.83 148.219 571.211 147.664C570.593 147.109 569.718 146.832 568.587 146.832C567.691 146.832 566.838 146.971 566.027 147.248C565.217 147.504 564.459 147.803 563.755 148.144L562.891 146.032C563.638 145.627 564.523 145.285 565.547 145.008C566.571 144.709 567.638 144.56 568.747 144.56ZM572.107 153.616L569.579 153.712C567.446 153.797 565.963 154.139 565.131 154.736C564.321 155.333 563.915 156.176 563.915 157.264C563.915 158.224 564.203 158.928 564.779 159.376C565.377 159.824 566.134 160.048 567.051 160.048C568.481 160.048 569.675 159.653 570.635 158.864C571.617 158.053 572.107 156.816 572.107 155.152V153.616ZM593.245 162H590.397V147.184H585.341C585.063 150.789 584.679 153.701 584.189 155.92C583.698 158.117 583.037 159.717 582.205 160.72C581.394 161.723 580.381 162.224 579.165 162.224C578.887 162.224 578.61 162.203 578.333 162.16C578.077 162.139 577.863 162.085 577.693 162V159.888C577.821 159.931 577.959 159.963 578.109 159.984C578.258 160.005 578.407 160.016 578.557 160.016C579.709 160.016 580.626 158.789 581.309 156.336C582.013 153.883 582.546 150.053 582.909 144.848H593.245V162ZM601.345 144.848V155.312C601.345 155.589 601.334 155.984 601.313 156.496C601.291 156.987 601.259 157.499 601.217 158.032C601.195 158.544 601.174 158.939 601.153 159.216L610.337 144.848H613.793V162H611.169V151.888C611.169 151.547 611.169 151.099 611.169 150.544C611.19 149.989 611.211 149.445 611.233 148.912C611.254 148.357 611.275 147.941 611.297 147.664L602.177 162H598.689V144.848H601.345ZM623.763 144.528C625.726 144.528 627.283 144.923 628.435 145.712C629.609 146.501 630.195 147.611 630.195 149.04C630.195 150.085 629.897 150.917 629.299 151.536C628.723 152.133 627.945 152.571 626.963 152.848V152.976C627.646 153.168 628.275 153.435 628.851 153.776C629.427 154.117 629.886 154.576 630.227 155.152C630.59 155.707 630.771 156.411 630.771 157.264C630.771 158.693 630.174 159.899 628.979 160.88C627.806 161.84 625.961 162.32 623.443 162.32C622.206 162.32 621.086 162.224 620.083 162.032C619.081 161.84 618.249 161.563 617.587 161.2V158.672C618.313 159.013 619.166 159.323 620.147 159.6C621.15 159.877 622.238 160.016 623.411 160.016C624.691 160.016 625.769 159.803 626.643 159.376C627.539 158.928 627.987 158.171 627.987 157.104C627.987 155.184 626.355 154.224 623.091 154.224H620.787V151.92H622.643C624.115 151.92 625.289 151.728 626.163 151.344C627.059 150.939 627.507 150.256 627.507 149.296C627.507 148.485 627.166 147.877 626.483 147.472C625.822 147.067 624.862 146.864 623.603 146.864C622.665 146.864 621.833 146.96 621.107 147.152C620.403 147.323 619.625 147.589 618.771 147.952L617.779 145.712C619.571 144.923 621.566 144.528 623.763 144.528ZM641.435 144.56C643.525 144.56 645.072 145.019 646.075 145.936C647.077 146.853 647.579 148.315 647.579 150.32V162H645.531L644.987 159.568H644.859C644.112 160.507 643.323 161.2 642.491 161.648C641.659 162.096 640.528 162.32 639.099 162.32C637.541 162.32 636.251 161.915 635.227 161.104C634.203 160.272 633.691 158.981 633.691 157.232C633.691 155.525 634.363 154.213 635.707 153.296C637.051 152.357 639.12 151.845 641.915 151.76L644.827 151.664V150.64C644.827 149.211 644.517 148.219 643.899 147.664C643.28 147.109 642.405 146.832 641.275 146.832C640.379 146.832 639.525 146.971 638.715 147.248C637.904 147.504 637.147 147.803 636.443 148.144L635.579 146.032C636.325 145.627 637.211 145.285 638.235 145.008C639.259 144.709 640.325 144.56 641.435 144.56ZM644.795 153.616L642.267 153.712C640.133 153.797 638.651 154.139 637.819 154.736C637.008 155.333 636.603 156.176 636.603 157.264C636.603 158.224 636.891 158.928 637.467 159.376C638.064 159.824 638.821 160.048 639.739 160.048C641.168 160.048 642.363 159.653 643.323 158.864C644.304 158.053 644.795 156.816 644.795 155.152V153.616ZM664.716 147.216H659.116V162H656.332V147.216H650.796V144.848H664.716V147.216ZM682.694 153.392C682.694 156.229 681.969 158.427 680.519 159.984C679.089 161.541 677.148 162.32 674.695 162.32C673.18 162.32 671.825 161.979 670.631 161.296C669.457 160.592 668.529 159.579 667.847 158.256C667.164 156.912 666.823 155.291 666.823 153.392C666.823 150.555 667.527 148.368 668.935 146.832C670.364 145.296 672.316 144.528 674.791 144.528C676.327 144.528 677.692 144.88 678.887 145.584C680.081 146.267 681.009 147.269 681.671 148.592C682.353 149.893 682.694 151.493 682.694 153.392ZM669.735 153.392C669.735 155.419 670.129 157.029 670.919 158.224C671.729 159.397 673.009 159.984 674.759 159.984C676.487 159.984 677.756 159.397 678.567 158.224C679.377 157.029 679.783 155.419 679.783 153.392C679.783 151.365 679.377 149.776 678.567 148.624C677.756 147.472 676.476 146.896 674.727 146.896C672.977 146.896 671.708 147.472 670.919 148.624C670.129 149.776 669.735 151.365 669.735 153.392ZM695.318 144.528C697.43 144.528 699.126 145.264 700.406 146.736C701.707 148.208 702.358 150.427 702.358 153.392C702.358 156.315 701.707 158.533 700.406 160.048C699.126 161.563 697.419 162.32 695.286 162.32C693.963 162.32 692.864 162.075 691.99 161.584C691.136 161.093 690.464 160.507 689.974 159.824H689.782C689.803 160.187 689.835 160.645 689.878 161.2C689.942 161.755 689.974 162.235 689.974 162.64V169.68H687.158V144.848H689.462L689.846 147.184H689.974C690.486 146.437 691.158 145.808 691.99 145.296C692.822 144.784 693.931 144.528 695.318 144.528ZM694.806 146.896C693.056 146.896 691.819 147.387 691.094 148.368C690.368 149.349 689.995 150.843 689.974 152.848V153.392C689.974 155.504 690.315 157.136 690.998 158.288C691.702 159.419 692.992 159.984 694.87 159.984C695.894 159.984 696.747 159.707 697.43 159.152C698.112 158.576 698.614 157.787 698.934 156.784C699.275 155.781 699.446 154.64 699.446 153.36C699.446 151.397 699.062 149.829 698.294 148.656C697.547 147.483 696.384 146.896 694.806 146.896Z" fill="black"/>
</g>
<line x1="741" y1="174.5" x2="918" y2="174.5" stroke="black"/>
<line x1="741" y1="253.5" x2="918" y2="253.5" stroke="black"/>
<line x1="741.5" y1="175" x2="741.5" y2="382" stroke="black"/>
<line x1="918.5" y1="174" x2="918.5" y2="382" stroke="black"/>
<line x1="741" y1="381.5" x2="918" y2="381.5" stroke="black"/>
</g>
<defs>
<filter id="filter0_d" x="332" y="134" width="628" height="292" filterUnits="userSpaceOnUse" color-interpolation-filters="sRGB">
<feFlood flood-opacity="0" result="BackgroundImageFix"/>
<feColorMatrix in="SourceAlpha" type="matrix" values="0 0 0 0 0 0 0 0 0 0 0 0 0 0 0 0 0 0 127 0"/>
<feOffset dx="8" dy="8"/>
<feGaussianBlur stdDeviation="1.5"/>
<feColorMatrix type="matrix" values="0 0 0 0 0.954167 0 0 0 0 0.931903 0 0 0 0 0.931903 0 0 0 0.25 0"/>
<feBlend mode="normal" in2="BackgroundImageFix" result="effect1_dropShadow"/>
<feBlend mode="normal" in="SourceGraphic" in2="effect1_dropShadow" result="shape"/>
</filter>
<filter id="filter1_i" x="332" y="134" width="621" height="285" filterUnits="userSpaceOnUse" color-interpolation-filters="sRGB">
<feFlood flood-opacity="0" result="BackgroundImageFix"/>
<feBlend mode="normal" in="SourceGraphic" in2="BackgroundImageFix" result="shape"/>
<feColorMatrix in="SourceAlpha" type="matrix" values="0 0 0 0 0 0 0 0 0 0 0 0 0 0 0 0 0 0 127 0" result="hardAlpha"/>
<feOffset dx="4" dy="4"/>
<feGaussianBlur stdDeviation="2"/>
<feComposite in2="hardAlpha" operator="arithmetic" k2="-1" k3="1"/>
<feColorMatrix type="matrix" values="0 0 0 0 0.782736 0 0 0 0 0.804167 0 0 0 0 0.72174 0 0 0 1 0"/>
<feBlend mode="normal" in2="shape" result="effect1_innerShadow"/>
</filter>
<filter id="filter2_d" x="359" y="170" width="363" height="219" filterUnits="userSpaceOnUse" color-interpolation-filters="sRGB">
<feFlood flood-opacity="0" result="BackgroundImageFix"/>
<feColorMatrix in="SourceAlpha" type="matrix" values="0 0 0 0 0 0 0 0 0 0 0 0 0 0 0 0 0 0 127 0"/>
<feMorphology radius="3" operator="dilate" in="SourceAlpha" result="effect1_dropShadow"/>
<feOffset dx="4" dy="4"/>
<feGaussianBlur stdDeviation="1.5"/>
<feColorMatrix type="matrix" values="0 0 0 0 0.4 0 0 0 0 0.4 0 0 0 0 0.4 0 0 0 1 0"/>
<feBlend mode="normal" in2="BackgroundImageFix" result="effect1_dropShadow"/>
<feBlend mode="normal" in="SourceGraphic" in2="effect1_dropShadow" result="shape"/>
</filter>
</defs>
</svg>
