<svg width="1280" height="758" viewBox="0 0 1280 758" fill="none" xmlns="http://www.w3.org/2000/svg">
    <g>
<text transform="translate(170,44)" font-size="36px" font-family="SF-Pro-Display" text-anchor="left" fill="#FFFFFF">ТП Секция 10кВ</text>
</g>
<g filter="url(#filter0_d)">
<rect x="603" y="288" width="546" height="11" transform="rotate(-180 603 288)" fill="#640064"/>
</g>
<g filter="url(#filter1_d)">
<rect x="569" y="388" width="104" height="10" fill="#640064"/>
</g>
<g filter="url(#filter2_d)">
<rect x="467" y="387.001" width="109" height="10" transform="rotate(90 467 387.001)" fill="#640064"/>
</g>
<g filter="url(#filter3_d)">
<rect x="467" y="553.001" width="109" height="10" transform="rotate(90 467 553.001)" fill="#C4C4C4"/>
</g>
<g filter="url(#filter4_d)">
<rect x="772" y="553" width="109" height="10" transform="rotate(90 772 553)" fill="#C4C4C4"/>
</g>
<g filter="url(#filter5_d)">
<rect x="772" y="387.001" width="109" height="10" transform="rotate(90 772 387.001)" fill="#640064"/>
</g>
<g filter="url(#filter6_d)">
<rect x="1218" y="288" width="568" height="11" transform="rotate(-180 1218 288)" fill="#640064"/>
</g>
<g filter="url(#filter7_d)">
<path fill-rule="evenodd" clip-rule="evenodd" d="M766.687 558C777.56 558 786.375 549.186 786.375 538.313C786.375 527.44 777.56 518.625 766.687 518.625C755.814 518.625 747 527.44 747 538.313C747 549.186 755.814 558 766.687 558ZM766.687 552.75C774.661 552.75 781.125 546.287 781.125 538.313C781.125 530.34 774.661 523.876 766.687 523.876C758.714 523.876 752.25 530.34 752.25 538.313C752.25 546.287 758.714 552.75 766.687 552.75Z" fill="#BEBEBE"/>
<g filter="url(#filter8_d)">
<rect x="714" y="434" width="105" height="35" rx="3" fill="#640064"/>
</g>
<g filter="url(#filter9_i)">
<path d="M743.306 452.516C744.105 453.315 744.782 453.649 745.573 453.649C747.41 453.649 748.491 452.208 748.386 449.923H746.391C746.355 450.942 746.004 451.487 745.362 451.487C744.976 451.487 744.668 451.294 744.158 450.775C743.358 449.976 742.673 449.633 741.873 449.633C740.036 449.633 738.946 451.074 739.052 453.359H741.056C741.091 452.331 741.434 451.795 742.075 451.795C742.471 451.795 742.787 451.988 743.306 452.516ZM757.184 458H759.812V445.317H757.175L753.896 447.594V449.984L757.131 447.752H757.184V458ZM767.625 458.281C770.815 458.281 772.749 455.724 772.749 451.628C772.749 447.532 770.798 445.027 767.625 445.027C764.452 445.027 762.492 447.541 762.492 451.637C762.492 455.741 764.435 458.281 767.625 458.281ZM767.625 456.154C766.113 456.154 765.19 454.52 765.19 451.637C765.19 448.78 766.131 447.154 767.625 447.154C769.128 447.154 770.051 448.771 770.051 451.637C770.051 454.528 769.137 456.154 767.625 456.154ZM779.341 452.938L783.103 448.578H780.167L777.038 452.366H776.968V448.578H774.41V458H776.968V453.957H777.038L780.22 458H783.322L779.341 452.938ZM790.178 458C792.885 458 794.563 456.603 794.563 454.37C794.563 452.691 793.298 451.435 791.575 451.303V451.232C792.92 451.03 793.957 449.87 793.957 448.481C793.957 446.539 792.463 445.317 790.081 445.317H784.562V458H790.178ZM787.216 447.295H789.396C790.635 447.295 791.347 447.875 791.347 448.895C791.347 449.967 790.538 450.591 789.123 450.591H787.216V447.295ZM787.216 456.022V452.34H789.439C791.004 452.34 791.856 452.973 791.856 454.159C791.856 455.372 791.03 456.022 789.501 456.022H787.216Z" fill="#141414"/>
</g>
<g filter="url(#filter10_d)">
<path d="M762 466H772V499H762V466Z" fill="#640064"/>
</g>
<path fill-rule="evenodd" clip-rule="evenodd" d="M766.687 534.375C777.56 534.375 786.375 525.56 786.375 514.687C786.375 503.814 777.56 495 766.687 495C755.814 495 747 503.814 747 514.687C747 525.56 755.814 534.375 766.687 534.375ZM766.687 529.125C774.661 529.125 781.125 522.661 781.125 514.688C781.125 506.714 774.661 500.25 766.687 500.25C758.714 500.25 752.25 506.714 752.25 514.688C752.25 522.661 758.714 529.125 766.687 529.125Z" fill="#640064"/>
</g>
<g filter="url(#filter11_d)">
<path fill-rule="evenodd" clip-rule="evenodd" d="M461.687 558C472.56 558 481.375 549.186 481.375 538.313C481.375 527.44 472.56 518.625 461.687 518.625C450.814 518.625 442 527.44 442 538.313C442 549.186 450.814 558 461.687 558ZM461.687 552.75C469.661 552.75 476.125 546.287 476.125 538.313C476.125 530.34 469.661 523.876 461.687 523.876C453.714 523.876 447.25 530.34 447.25 538.313C447.25 546.287 453.714 552.75 461.687 552.75Z" fill="#BEBEBE"/>
<g filter="url(#filter12_d)">
<rect x="409" y="434" width="105" height="35" rx="3" fill="#640064"/>
</g>
<g filter="url(#filter13_i)">
<path d="M438.306 452.516C439.105 453.315 439.782 453.649 440.573 453.649C442.41 453.649 443.491 452.208 443.386 449.923H441.391C441.355 450.942 441.004 451.487 440.362 451.487C439.976 451.487 439.668 451.294 439.158 450.775C438.358 449.976 437.673 449.633 436.873 449.633C435.036 449.633 433.946 451.074 434.052 453.359H436.056C436.091 452.331 436.434 451.795 437.075 451.795C437.471 451.795 437.787 451.988 438.306 452.516ZM452.184 458H454.812V445.317H452.175L448.896 447.594V449.984L452.131 447.752H452.184V458ZM462.625 458.281C465.815 458.281 467.749 455.724 467.749 451.628C467.749 447.532 465.798 445.027 462.625 445.027C459.452 445.027 457.492 447.541 457.492 451.637C457.492 455.741 459.435 458.281 462.625 458.281ZM462.625 456.154C461.113 456.154 460.19 454.52 460.19 451.637C460.19 448.78 461.131 447.154 462.625 447.154C464.128 447.154 465.051 448.771 465.051 451.637C465.051 454.528 464.137 456.154 462.625 456.154ZM474.341 452.938L478.103 448.578H475.167L472.038 452.366H471.968V448.578H469.41V458H471.968V453.957H472.038L475.22 458H478.322L474.341 452.938ZM485.178 458C487.885 458 489.563 456.603 489.563 454.37C489.563 452.691 488.298 451.435 486.575 451.303V451.232C487.92 451.03 488.957 449.87 488.957 448.481C488.957 446.539 487.463 445.317 485.081 445.317H479.562V458H485.178ZM482.216 447.295H484.396C485.635 447.295 486.347 447.875 486.347 448.895C486.347 449.967 485.538 450.591 484.123 450.591H482.216V447.295ZM482.216 456.022V452.34H484.439C486.004 452.34 486.856 452.973 486.856 454.159C486.856 455.372 486.03 456.022 484.501 456.022H482.216Z" fill="#141414"/>
</g>
<g filter="url(#filter14_d)">
<path d="M457 466H467V499H457V466Z" fill="#640064"/>
</g>
<path fill-rule="evenodd" clip-rule="evenodd" d="M461.687 534.375C472.56 534.375 481.375 525.56 481.375 514.687C481.375 503.814 472.56 495 461.687 495C450.814 495 442 503.814 442 514.687C442 525.56 450.814 534.375 461.687 534.375ZM461.687 529.125C469.661 529.125 476.125 522.661 476.125 514.688C476.125 506.714 469.661 500.25 461.687 500.25C453.714 500.25 447.25 506.714 447.25 514.688C447.25 522.661 453.714 529.125 461.687 529.125Z" fill="#640064"/>
</g>
<defs>
<filter id="filter0_d" x="53" y="277" width="554" height="19" filterUnits="userSpaceOnUse" color-interpolation-filters="sRGB">
<feFlood flood-opacity="0" result="BackgroundImageFix"/>
<feColorMatrix in="SourceAlpha" type="matrix" values="0 0 0 0 0 0 0 0 0 0 0 0 0 0 0 0 0 0 127 0"/>
<feOffset dy="4"/>
<feGaussianBlur stdDeviation="2"/>
<feColorMatrix type="matrix" values="0 0 0 0 0 0 0 0 0 0 0 0 0 0 0 0 0 0 0.25 0"/>
<feBlend mode="normal" in2="BackgroundImageFix" result="effect1_dropShadow"/>
<feBlend mode="normal" in="SourceGraphic" in2="effect1_dropShadow" result="shape"/>
</filter>
<filter id="filter1_d" x="565" y="388" width="112" height="18" filterUnits="userSpaceOnUse" color-interpolation-filters="sRGB">
<feFlood flood-opacity="0" result="BackgroundImageFix"/>
<feColorMatrix in="SourceAlpha" type="matrix" values="0 0 0 0 0 0 0 0 0 0 0 0 0 0 0 0 0 0 127 0"/>
<feOffset dy="4"/>
<feGaussianBlur stdDeviation="2"/>
<feColorMatrix type="matrix" values="0 0 0 0 0 0 0 0 0 0 0 0 0 0 0 0 0 0 0.25 0"/>
<feBlend mode="normal" in2="BackgroundImageFix" result="effect1_dropShadow"/>
<feBlend mode="normal" in="SourceGraphic" in2="effect1_dropShadow" result="shape"/>
</filter>
<filter id="filter2_d" x="453" y="387.001" width="18" height="117" filterUnits="userSpaceOnUse" color-interpolation-filters="sRGB">
<feFlood flood-opacity="0" result="BackgroundImageFix"/>
<feColorMatrix in="SourceAlpha" type="matrix" values="0 0 0 0 0 0 0 0 0 0 0 0 0 0 0 0 0 0 127 0"/>
<feOffset dy="4"/>
<feGaussianBlur stdDeviation="2"/>
<feColorMatrix type="matrix" values="0 0 0 0 0 0 0 0 0 0 0 0 0 0 0 0 0 0 0.25 0"/>
<feBlend mode="normal" in2="BackgroundImageFix" result="effect1_dropShadow"/>
<feBlend mode="normal" in="SourceGraphic" in2="effect1_dropShadow" result="shape"/>
</filter>
<filter id="filter3_d" x="453" y="553.001" width="18" height="117" filterUnits="userSpaceOnUse" color-interpolation-filters="sRGB">
<feFlood flood-opacity="0" result="BackgroundImageFix"/>
<feColorMatrix in="SourceAlpha" type="matrix" values="0 0 0 0 0 0 0 0 0 0 0 0 0 0 0 0 0 0 127 0"/>
<feOffset dy="4"/>
<feGaussianBlur stdDeviation="2"/>
<feColorMatrix type="matrix" values="0 0 0 0 0 0 0 0 0 0 0 0 0 0 0 0 0 0 0.25 0"/>
<feBlend mode="normal" in2="BackgroundImageFix" result="effect1_dropShadow"/>
<feBlend mode="normal" in="SourceGraphic" in2="effect1_dropShadow" result="shape"/>
</filter>
<filter id="filter4_d" x="758" y="553" width="18" height="117" filterUnits="userSpaceOnUse" color-interpolation-filters="sRGB">
<feFlood flood-opacity="0" result="BackgroundImageFix"/>
<feColorMatrix in="SourceAlpha" type="matrix" values="0 0 0 0 0 0 0 0 0 0 0 0 0 0 0 0 0 0 127 0"/>
<feOffset dy="4"/>
<feGaussianBlur stdDeviation="2"/>
<feColorMatrix type="matrix" values="0 0 0 0 0 0 0 0 0 0 0 0 0 0 0 0 0 0 0.25 0"/>
<feBlend mode="normal" in2="BackgroundImageFix" result="effect1_dropShadow"/>
<feBlend mode="normal" in="SourceGraphic" in2="effect1_dropShadow" result="shape"/>
</filter>
<filter id="filter5_d" x="758" y="387.001" width="18" height="117" filterUnits="userSpaceOnUse" color-interpolation-filters="sRGB">
<feFlood flood-opacity="0" result="BackgroundImageFix"/>
<feColorMatrix in="SourceAlpha" type="matrix" values="0 0 0 0 0 0 0 0 0 0 0 0 0 0 0 0 0 0 127 0"/>
<feOffset dy="4"/>
<feGaussianBlur stdDeviation="2"/>
<feColorMatrix type="matrix" values="0 0 0 0 0 0 0 0 0 0 0 0 0 0 0 0 0 0 0.25 0"/>
<feBlend mode="normal" in2="BackgroundImageFix" result="effect1_dropShadow"/>
<feBlend mode="normal" in="SourceGraphic" in2="effect1_dropShadow" result="shape"/>
</filter>
<filter id="filter6_d" x="646" y="277" width="576" height="19" filterUnits="userSpaceOnUse" color-interpolation-filters="sRGB">
<feFlood flood-opacity="0" result="BackgroundImageFix"/>
<feColorMatrix in="SourceAlpha" type="matrix" values="0 0 0 0 0 0 0 0 0 0 0 0 0 0 0 0 0 0 127 0"/>
<feOffset dy="4"/>
<feGaussianBlur stdDeviation="2"/>
<feColorMatrix type="matrix" values="0 0 0 0 0 0 0 0 0 0 0 0 0 0 0 0 0 0 0.25 0"/>
<feBlend mode="normal" in2="BackgroundImageFix" result="effect1_dropShadow"/>
<feBlend mode="normal" in="SourceGraphic" in2="effect1_dropShadow" result="shape"/>
</filter>
<filter id="filter7_d" x="710" y="434" width="113" height="132" filterUnits="userSpaceOnUse" color-interpolation-filters="sRGB">
<feFlood flood-opacity="0" result="BackgroundImageFix"/>
<feColorMatrix in="SourceAlpha" type="matrix" values="0 0 0 0 0 0 0 0 0 0 0 0 0 0 0 0 0 0 127 0"/>
<feOffset dy="4"/>
<feGaussianBlur stdDeviation="2"/>
<feColorMatrix type="matrix" values="0 0 0 0 0 0 0 0 0 0 0 0 0 0 0 0 0 0 0.25 0"/>
<feBlend mode="normal" in2="BackgroundImageFix" result="effect1_dropShadow"/>
<feBlend mode="normal" in="SourceGraphic" in2="effect1_dropShadow" result="shape"/>
</filter>
<filter id="filter8_d" x="710" y="434" width="113" height="43" filterUnits="userSpaceOnUse" color-interpolation-filters="sRGB">
<feFlood flood-opacity="0" result="BackgroundImageFix"/>
<feColorMatrix in="SourceAlpha" type="matrix" values="0 0 0 0 0 0 0 0 0 0 0 0 0 0 0 0 0 0 127 0"/>
<feOffset dy="4"/>
<feGaussianBlur stdDeviation="2"/>
<feColorMatrix type="matrix" values="0 0 0 0 0 0 0 0 0 0 0 0 0 0 0 0 0 0 0.25 0"/>
<feBlend mode="normal" in2="BackgroundImageFix" result="effect1_dropShadow"/>
<feBlend mode="normal" in="SourceGraphic" in2="effect1_dropShadow" result="shape"/>
</filter>
<filter id="filter9_i" x="739.045" y="445.027" width="55.5187" height="17.2539" filterUnits="userSpaceOnUse" color-interpolation-filters="sRGB">
<feFlood flood-opacity="0" result="BackgroundImageFix"/>
<feBlend mode="normal" in="SourceGraphic" in2="BackgroundImageFix" result="shape"/>
<feColorMatrix in="SourceAlpha" type="matrix" values="0 0 0 0 0 0 0 0 0 0 0 0 0 0 0 0 0 0 127 0" result="hardAlpha"/>
<feOffset dy="4"/>
<feGaussianBlur stdDeviation="2"/>
<feComposite in2="hardAlpha" operator="arithmetic" k2="-1" k3="1"/>
<feColorMatrix type="matrix" values="0 0 0 0 0 0 0 0 0 0 0 0 0 0 0 0 0 0 0.25 0"/>
<feBlend mode="normal" in2="shape" result="effect1_innerShadow"/>
</filter>
<filter id="filter10_d" x="758" y="466" width="18" height="41" filterUnits="userSpaceOnUse" color-interpolation-filters="sRGB">
<feFlood flood-opacity="0" result="BackgroundImageFix"/>
<feColorMatrix in="SourceAlpha" type="matrix" values="0 0 0 0 0 0 0 0 0 0 0 0 0 0 0 0 0 0 127 0"/>
<feOffset dy="4"/>
<feGaussianBlur stdDeviation="2"/>
<feColorMatrix type="matrix" values="0 0 0 0 0 0 0 0 0 0 0 0 0 0 0 0 0 0 0.25 0"/>
<feBlend mode="normal" in2="BackgroundImageFix" result="effect1_dropShadow"/>
<feBlend mode="normal" in="SourceGraphic" in2="effect1_dropShadow" result="shape"/>
</filter>
<filter id="filter11_d" x="405" y="434" width="113" height="132" filterUnits="userSpaceOnUse" color-interpolation-filters="sRGB">
<feFlood flood-opacity="0" result="BackgroundImageFix"/>
<feColorMatrix in="SourceAlpha" type="matrix" values="0 0 0 0 0 0 0 0 0 0 0 0 0 0 0 0 0 0 127 0"/>
<feOffset dy="4"/>
<feGaussianBlur stdDeviation="2"/>
<feColorMatrix type="matrix" values="0 0 0 0 0 0 0 0 0 0 0 0 0 0 0 0 0 0 0.25 0"/>
<feBlend mode="normal" in2="BackgroundImageFix" result="effect1_dropShadow"/>
<feBlend mode="normal" in="SourceGraphic" in2="effect1_dropShadow" result="shape"/>
</filter>
<filter id="filter12_d" x="405" y="434" width="113" height="43" filterUnits="userSpaceOnUse" color-interpolation-filters="sRGB">
<feFlood flood-opacity="0" result="BackgroundImageFix"/>
<feColorMatrix in="SourceAlpha" type="matrix" values="0 0 0 0 0 0 0 0 0 0 0 0 0 0 0 0 0 0 127 0"/>
<feOffset dy="4"/>
<feGaussianBlur stdDeviation="2"/>
<feColorMatrix type="matrix" values="0 0 0 0 0 0 0 0 0 0 0 0 0 0 0 0 0 0 0.25 0"/>
<feBlend mode="normal" in2="BackgroundImageFix" result="effect1_dropShadow"/>
<feBlend mode="normal" in="SourceGraphic" in2="effect1_dropShadow" result="shape"/>
</filter>
<filter id="filter13_i" x="434.045" y="445.027" width="55.5187" height="17.2539" filterUnits="userSpaceOnUse" color-interpolation-filters="sRGB">
<feFlood flood-opacity="0" result="BackgroundImageFix"/>
<feBlend mode="normal" in="SourceGraphic" in2="BackgroundImageFix" result="shape"/>
<feColorMatrix in="SourceAlpha" type="matrix" values="0 0 0 0 0 0 0 0 0 0 0 0 0 0 0 0 0 0 127 0" result="hardAlpha"/>
<feOffset dy="4"/>
<feGaussianBlur stdDeviation="2"/>
<feComposite in2="hardAlpha" operator="arithmetic" k2="-1" k3="1"/>
<feColorMatrix type="matrix" values="0 0 0 0 0 0 0 0 0 0 0 0 0 0 0 0 0 0 0.25 0"/>
<feBlend mode="normal" in2="shape" result="effect1_innerShadow"/>
</filter>
<filter id="filter14_d" x="453" y="466" width="18" height="41" filterUnits="userSpaceOnUse" color-interpolation-filters="sRGB">
<feFlood flood-opacity="0" result="BackgroundImageFix"/>
<feColorMatrix in="SourceAlpha" type="matrix" values="0 0 0 0 0 0 0 0 0 0 0 0 0 0 0 0 0 0 127 0"/>
<feOffset dy="4"/>
<feGaussianBlur stdDeviation="2"/>
<feColorMatrix type="matrix" values="0 0 0 0 0 0 0 0 0 0 0 0 0 0 0 0 0 0 0.25 0"/>
<feBlend mode="normal" in2="BackgroundImageFix" result="effect1_dropShadow"/>
<feBlend mode="normal" in="SourceGraphic" in2="effect1_dropShadow" result="shape"/>
</filter>
</defs>
</svg>
