<svg width="1280" height="758" viewBox="0 0 1280 758" fill="none" xmlns="http://www.w3.org/2000/svg">
<path d="M585.414 591.516C585.15 591.252 584.928 591.067 584.746 590.962C584.564 590.851 584.377 590.795 584.184 590.795C583.539 590.795 583.199 591.316 583.164 592.359L581.16 592.359C581.107 591.217 581.333 590.312 581.837 589.644C582.347 588.97 583.062 588.633 583.981 588.633C584.38 588.633 584.761 588.724 585.124 588.905C585.487 589.087 585.868 589.377 586.267 589.775C586.524 590.039 586.741 590.224 586.917 590.329C587.093 590.435 587.277 590.487 587.471 590.487C588.121 590.487 588.464 589.966 588.499 588.923L590.494 588.923C590.547 590.065 590.321 590.974 589.817 591.647C589.313 592.315 588.602 592.649 587.682 592.649C587.283 592.649 586.905 592.562 586.548 592.386C586.19 592.204 585.812 591.914 585.414 591.516ZM604.838 595.497C603.93 596.687 602.679 597.281 601.085 597.281C599.491 597.281 598.237 596.689 597.323 595.506C596.409 594.316 595.952 592.693 595.952 590.637C595.952 588.592 596.409 586.98 597.323 585.803C598.243 584.619 599.497 584.027 601.085 584.027C602.673 584.027 603.924 584.616 604.838 585.794C605.752 586.972 606.209 588.583 606.209 590.628C606.209 592.679 605.752 594.302 604.838 595.497ZM599.292 593.968C599.726 594.759 600.323 595.154 601.085 595.154C601.847 595.154 602.441 594.762 602.869 593.977C603.297 593.186 603.511 592.072 603.511 590.637C603.511 589.213 603.294 588.111 602.86 587.332C602.433 586.547 601.841 586.154 601.085 586.154C600.329 586.154 599.734 586.547 599.301 587.332C598.867 588.117 598.65 589.219 598.65 590.637C598.65 592.066 598.864 593.177 599.292 593.968ZM610.015 596.692C609.739 596.968 609.405 597.105 609.013 597.105C608.62 597.105 608.286 596.968 608.011 596.692C607.735 596.417 607.598 596.083 607.598 595.69C607.598 595.298 607.735 594.964 608.011 594.688C608.286 594.413 608.62 594.275 609.013 594.275C609.405 594.275 609.739 594.413 610.015 594.688C610.29 594.964 610.428 595.298 610.428 595.69C610.428 596.083 610.29 596.417 610.015 596.692ZM618.637 597L618.637 594.741L612.326 594.741L612.326 592.482C613.357 590.514 615.054 587.792 617.415 584.317L621.159 584.317L621.159 592.614L622.812 592.614L622.812 594.741L621.159 594.741L621.159 597L618.637 597ZM614.655 592.623L614.655 592.693L618.689 592.693L618.689 586.198L618.637 586.198C617.658 587.628 616.873 588.82 616.281 589.775C615.689 590.725 615.147 591.674 614.655 592.623ZM629.219 591.938L633.2 597L630.098 597L626.916 592.957L626.846 592.957L626.846 597L624.288 597L624.288 587.578L626.846 587.578L626.846 591.366L626.916 591.366L630.045 587.578L632.98 587.578L629.219 591.938ZM640.056 597L634.439 597L634.439 584.317L639.959 584.317C641.148 584.317 642.092 584.602 642.789 585.17C643.486 585.738 643.835 586.509 643.835 587.481C643.835 588.173 643.606 588.779 643.149 589.301C642.698 589.822 642.133 590.133 641.453 590.232L641.453 590.303C642.32 590.367 643.035 590.687 643.598 591.261C644.16 591.835 644.441 592.538 644.441 593.37C644.441 594.489 644.049 595.374 643.264 596.024C642.479 596.675 641.409 597 640.056 597ZM637.094 586.295L637.094 589.591L639.001 589.591C639.71 589.591 640.258 589.444 640.645 589.151C641.031 588.853 641.225 588.434 641.225 587.895C641.225 587.385 641.055 586.992 640.715 586.717C640.375 586.436 639.895 586.295 639.273 586.295L637.094 586.295ZM637.094 595.022L639.379 595.022C640.146 595.022 640.729 594.864 641.128 594.548C641.532 594.226 641.734 593.763 641.734 593.159C641.734 592.567 641.526 592.116 641.11 591.806C640.7 591.495 640.103 591.34 639.317 591.34L637.094 591.34L637.094 595.022Z" fill="#BEBEBE"/>
<path d="M420.414 194.514C420.15 194.25 419.928 194.065 419.746 193.96C419.564 193.849 419.377 193.793 419.184 193.793C418.539 193.793 418.199 194.314 418.164 195.357L416.16 195.357C416.107 194.215 416.333 193.31 416.837 192.642C417.347 191.968 418.062 191.631 418.981 191.631C419.38 191.631 419.761 191.722 420.124 191.903C420.487 192.085 420.868 192.375 421.267 192.773C421.524 193.037 421.741 193.222 421.917 193.327C422.093 193.433 422.277 193.485 422.471 193.485C423.121 193.485 423.464 192.964 423.499 191.921L425.494 191.921C425.547 193.063 425.321 193.972 424.817 194.646C424.313 195.313 423.602 195.647 422.682 195.647C422.283 195.647 421.905 195.56 421.548 195.384C421.19 195.202 420.812 194.912 420.414 194.514ZM439.838 198.495C438.93 199.685 437.679 200.279 436.085 200.279C434.491 200.279 433.237 199.688 432.323 198.504C431.409 197.314 430.952 195.691 430.952 193.635C430.952 191.59 431.409 189.979 432.323 188.801C433.243 187.617 434.497 187.025 436.085 187.025C437.673 187.025 438.924 187.614 439.838 188.792C440.752 189.97 441.209 191.581 441.209 193.626C441.209 195.677 440.752 197.3 439.838 198.495ZM434.292 196.966C434.726 197.757 435.323 198.152 436.085 198.152C436.847 198.152 437.441 197.76 437.869 196.975C438.297 196.184 438.511 195.07 438.511 193.635C438.511 192.211 438.294 191.109 437.86 190.33C437.433 189.545 436.841 189.152 436.085 189.152C435.329 189.152 434.734 189.545 434.301 190.33C433.867 191.115 433.65 192.217 433.65 193.635C433.65 195.064 433.864 196.175 434.292 196.966ZM445.015 199.69C444.739 199.966 444.405 200.104 444.013 200.104C443.62 200.104 443.286 199.966 443.011 199.69C442.735 199.415 442.598 199.081 442.598 198.688C442.598 198.296 442.735 197.962 443.011 197.687C443.286 197.411 443.62 197.273 444.013 197.273C444.405 197.273 444.739 197.411 445.015 197.687C445.29 197.962 445.428 198.296 445.428 198.688C445.428 199.081 445.29 199.415 445.015 199.69ZM453.637 199.998L453.637 197.739L447.326 197.739L447.326 195.48C448.357 193.512 450.054 190.79 452.415 187.315L456.159 187.315L456.159 195.612L457.812 195.612L457.812 197.739L456.159 197.739L456.159 199.998L453.637 199.998ZM449.655 195.621L449.655 195.691L453.689 195.691L453.689 189.196L453.637 189.196C452.658 190.626 451.873 191.818 451.281 192.773C450.689 193.723 450.147 194.672 449.655 195.621ZM464.219 194.936L468.2 199.998L465.098 199.998L461.916 195.955L461.846 195.955L461.846 199.998L459.288 199.998L459.288 190.576L461.846 190.576L461.846 194.364L461.916 194.364L465.045 190.576L467.98 190.576L464.219 194.936ZM475.056 199.998L469.439 199.998L469.439 187.315L474.959 187.315C476.148 187.315 477.092 187.6 477.789 188.168C478.486 188.736 478.835 189.507 478.835 190.48C478.835 191.171 478.606 191.777 478.149 192.299C477.698 192.82 477.133 193.131 476.453 193.23L476.453 193.301C477.32 193.365 478.035 193.685 478.598 194.259C479.16 194.833 479.441 195.536 479.441 196.368C479.441 197.487 479.049 198.372 478.264 199.022C477.479 199.673 476.409 199.998 475.056 199.998ZM472.094 189.293L472.094 192.589L474.001 192.589C474.71 192.589 475.258 192.442 475.645 192.149C476.031 191.851 476.225 191.432 476.225 190.893C476.225 190.383 476.055 189.99 475.715 189.715C475.375 189.434 474.895 189.293 474.273 189.293L472.094 189.293ZM472.094 198.021L474.379 198.021C475.146 198.021 475.729 197.862 476.128 197.546C476.532 197.224 476.734 196.761 476.734 196.157C476.734 195.565 476.526 195.114 476.11 194.804C475.7 194.493 475.103 194.338 474.317 194.338L472.094 194.338L472.094 198.021Z" fill="#BEBEBE"/>
<path d="M659.414 191.514C659.15 191.25 658.928 191.065 658.746 190.96C658.564 190.849 658.377 190.793 658.184 190.793C657.539 190.793 657.199 191.314 657.164 192.357L655.16 192.357C655.107 191.215 655.333 190.31 655.837 189.642C656.347 188.968 657.062 188.631 657.981 188.631C658.38 188.631 658.761 188.722 659.124 188.903C659.487 189.085 659.868 189.375 660.267 189.773C660.524 190.037 660.741 190.222 660.917 190.327C661.093 190.433 661.277 190.485 661.471 190.485C662.121 190.485 662.464 189.964 662.499 188.921L664.494 188.921C664.547 190.063 664.321 190.972 663.817 191.646C663.313 192.313 662.602 192.647 661.682 192.647C661.283 192.647 660.905 192.56 660.548 192.384C660.19 192.202 659.812 191.912 659.414 191.514ZM678.838 195.495C677.93 196.685 676.679 197.279 675.085 197.279C673.491 197.279 672.237 196.688 671.323 195.504C670.409 194.314 669.952 192.691 669.952 190.635C669.952 188.59 670.409 186.979 671.323 185.801C672.243 184.617 673.497 184.025 675.085 184.025C676.673 184.025 677.924 184.614 678.838 185.792C679.752 186.97 680.209 188.581 680.209 190.626C680.209 192.677 679.752 194.3 678.838 195.495ZM673.292 193.966C673.726 194.757 674.323 195.152 675.085 195.152C675.847 195.152 676.441 194.76 676.869 193.975C677.297 193.184 677.511 192.07 677.511 190.635C677.511 189.211 677.294 188.109 676.86 187.33C676.433 186.545 675.841 186.152 675.085 186.152C674.329 186.152 673.734 186.545 673.301 187.33C672.867 188.115 672.65 189.217 672.65 190.635C672.65 192.064 672.864 193.175 673.292 193.966ZM684.015 196.69C683.739 196.966 683.405 197.104 683.013 197.104C682.62 197.104 682.286 196.966 682.011 196.69C681.735 196.415 681.598 196.081 681.598 195.688C681.598 195.296 681.735 194.962 682.011 194.687C682.286 194.411 682.62 194.273 683.013 194.273C683.405 194.273 683.739 194.411 684.015 194.687C684.29 194.962 684.428 195.296 684.428 195.688C684.428 196.081 684.29 196.415 684.015 196.69ZM692.637 196.998L692.637 194.739L686.326 194.739L686.326 192.48C687.357 190.512 689.054 187.79 691.415 184.315L695.159 184.315L695.159 192.612L696.812 192.612L696.812 194.739L695.159 194.739L695.159 196.998L692.637 196.998ZM688.655 192.621L688.655 192.691L692.689 192.691L692.689 186.196L692.637 186.196C691.658 187.626 690.873 188.818 690.281 189.773C689.689 190.723 689.147 191.672 688.655 192.621ZM703.219 191.936L707.2 196.998L704.098 196.998L700.916 192.955L700.846 192.955L700.846 196.998L698.288 196.998L698.288 187.576L700.846 187.576L700.846 191.364L700.916 191.364L704.045 187.576L706.98 187.576L703.219 191.936ZM714.056 196.998L708.439 196.998L708.439 184.315L713.959 184.315C715.148 184.315 716.092 184.6 716.789 185.168C717.486 185.736 717.835 186.507 717.835 187.48C717.835 188.171 717.606 188.777 717.149 189.299C716.698 189.82 716.133 190.131 715.453 190.23L715.453 190.301C716.32 190.365 717.035 190.685 717.598 191.259C718.16 191.833 718.441 192.536 718.441 193.368C718.441 194.487 718.049 195.372 717.264 196.022C716.479 196.673 715.409 196.998 714.056 196.998ZM711.094 186.293L711.094 189.589L713.001 189.589C713.71 189.589 714.258 189.442 714.645 189.149C715.031 188.851 715.225 188.432 715.225 187.893C715.225 187.383 715.055 186.99 714.715 186.715C714.375 186.434 713.895 186.293 713.273 186.293L711.094 186.293ZM711.094 195.021L713.379 195.021C714.146 195.021 714.729 194.862 715.128 194.546C715.532 194.224 715.734 193.761 715.734 193.157C715.734 192.565 715.526 192.114 715.11 191.804C714.7 191.493 714.103 191.338 713.317 191.338L711.094 191.338L711.094 195.021Z" fill="#BEBEBE"/>
<g filter="url(#filter0_d)">
<rect x="1235.11" y="534.998" width="10" height="228.7" transform="rotate(90.0037 1235.11 534.998)" fill="#BEBEBE"/>
</g>
<path d="M585.75 571.281C583.904 571.281 582.442 570.689 581.364 569.506C580.286 568.316 579.747 566.699 579.747 564.654C579.747 562.615 580.286 561.004 581.364 559.82C582.448 558.631 583.91 558.036 585.75 558.036C587.227 558.036 588.478 558.461 589.503 559.311C590.534 560.154 591.135 561.25 591.305 562.598L588.694 562.598C588.524 561.9 588.173 561.344 587.64 560.928C587.106 560.506 586.477 560.295 585.75 560.295C584.748 560.295 583.948 560.688 583.351 561.473C582.753 562.258 582.454 563.315 582.454 564.646C582.454 565.999 582.75 567.068 583.342 567.854C583.934 568.633 584.739 569.022 585.759 569.022C586.497 569.022 587.124 568.832 587.64 568.451C588.161 568.064 588.516 567.531 588.703 566.852L591.313 566.852C591.108 568.211 590.505 569.289 589.503 570.086C588.507 570.883 587.256 571.281 585.75 571.281ZM597.141 563.274C596.584 563.274 596.118 563.465 595.743 563.846C595.374 564.227 595.166 564.713 595.119 565.305L599.118 565.305C599.089 564.701 598.893 564.212 598.529 563.837C598.172 563.462 597.709 563.274 597.141 563.274ZM599.153 568.117L601.509 568.117C601.368 569.043 600.905 569.79 600.12 570.358C599.341 570.921 598.371 571.202 597.211 571.202C595.764 571.202 594.627 570.769 593.801 569.901C592.98 569.034 592.57 567.845 592.57 566.333C592.57 564.827 592.98 563.626 593.801 562.729C594.621 561.827 595.726 561.376 597.114 561.376C598.479 561.376 599.566 561.804 600.375 562.659C601.184 563.515 601.588 564.66 601.588 566.096L601.588 566.878L595.093 566.878L595.093 567.036C595.093 567.71 595.289 568.258 595.682 568.68C596.08 569.096 596.604 569.304 597.255 569.304C597.724 569.304 598.128 569.198 598.468 568.987C598.808 568.771 599.036 568.48 599.153 568.117ZM608.004 565.938L611.985 571L608.883 571L605.701 566.957L605.631 566.957L605.631 571L603.073 571L603.073 561.578L605.631 561.578L605.631 565.366L605.701 565.366L608.83 561.578L611.766 561.578L608.004 565.938ZM623.033 573.443L620.695 573.443L620.695 571L613.005 571L613.005 561.578L615.562 561.578L615.562 569.058L619.052 569.058L619.052 561.578L621.609 561.578L621.609 569.058L623.033 569.058L623.033 573.443ZM626.698 571L624.185 571L624.185 561.578L626.698 561.578L626.698 567.467L626.769 567.467L630.513 561.578L633.026 561.578L633.026 571L630.513 571L630.513 565.041L630.442 565.041L626.698 571ZM638.783 566.157L640.321 566.157L640.321 563.485L638.783 563.485C638.332 563.485 637.972 563.611 637.702 563.863C637.438 564.109 637.307 564.44 637.307 564.856C637.307 565.237 637.441 565.551 637.711 565.797C637.98 566.037 638.338 566.157 638.783 566.157ZM640.321 571L640.321 567.959L639.293 567.959L637.201 571L634.354 571L636.832 567.572C636.182 567.367 635.672 567.03 635.303 566.562C634.939 566.087 634.758 565.516 634.758 564.848C634.758 563.846 635.098 563.052 635.777 562.466C636.463 561.874 637.38 561.578 638.528 561.578L642.826 561.578L642.826 571L640.321 571ZM651.308 565.463L651.308 563.547L652.846 563.547C653.449 563.547 653.938 563.383 654.313 563.055C654.688 562.727 654.876 562.302 654.876 561.78C654.876 561.259 654.697 560.846 654.34 560.541C653.982 560.23 653.479 560.075 652.828 560.075C652.213 560.075 651.715 560.242 651.334 560.576C650.953 560.91 650.745 561.355 650.71 561.912L648.267 561.912C648.313 560.734 648.762 559.794 649.611 559.091C650.461 558.388 651.571 558.036 652.942 558.036C654.267 558.036 655.336 558.347 656.15 558.968C656.971 559.589 657.381 560.406 657.381 561.42C657.381 562.188 657.141 562.838 656.66 563.371C656.18 563.904 655.547 564.241 654.762 564.382L654.762 564.435C655.717 564.517 656.473 564.83 657.029 565.375C657.592 565.914 657.873 566.62 657.873 567.493C657.873 568.624 657.407 569.538 656.476 570.235C655.55 570.933 654.352 571.281 652.881 571.281C651.457 571.281 650.306 570.924 649.427 570.209C648.554 569.494 648.085 568.548 648.021 567.37L650.561 567.37C650.602 567.909 650.83 568.34 651.246 568.662C651.668 568.984 652.225 569.146 652.916 569.146C653.578 569.146 654.12 568.976 654.542 568.636C654.964 568.296 655.175 567.859 655.175 567.326C655.175 566.746 654.97 566.292 654.56 565.964C654.149 565.63 653.587 565.463 652.872 565.463L651.308 565.463Z" fill="#BEBEBE"/>
<g filter="url(#filter1_d)">
<rect x="285" y="545" width="240" height="10" transform="rotate(-180 285 545)" fill="#C4C4C4"/>
</g>
<g filter="url(#filter2_d)">
<rect x="906" y="545" width="521" height="9.99995" transform="rotate(-180 906 545)" fill="#C4C4C4"/>
</g>
<g filter="url(#filter3_d)">
<rect x="506" y="435" width="69" height="10" transform="rotate(-90 506 435)" fill="#C4C4C4"/>
</g>
<g filter="url(#filter4_d)">
<rect x="745" y="435" width="69" height="10" transform="rotate(-90 745 435)" fill="#C4C4C4"/>
</g>
<g filter="url(#filter5_d)">
<rect x="506" y="265.998" width="69" height="10" transform="rotate(-90 506 265.998)" fill="#C4C4C4"/>
</g>
<g filter="url(#filter6_d)">
<rect x="745" y="265.998" width="69" height="10" transform="rotate(-90 745 265.998)" fill="#C4C4C4"/>
</g>
<path d="M510.297 182.572C509.594 181.881 509.02 181.4 508.574 181.131C508.141 180.861 507.701 180.727 507.256 180.727C506.471 180.727 505.844 181.031 505.375 181.641C504.918 182.238 504.66 183.082 504.602 184.172H502.439C502.439 182.438 502.873 181.061 503.74 180.041C504.619 179.021 505.809 178.512 507.309 178.512C508.012 178.512 508.686 178.682 509.33 179.021C509.975 179.35 510.713 179.912 511.545 180.709C512.225 181.377 512.799 181.852 513.268 182.133C513.736 182.402 514.193 182.537 514.639 182.537C515.436 182.537 516.08 182.227 516.572 181.605C517.064 180.984 517.334 180.123 517.381 179.021H519.543C519.543 180.744 519.092 182.133 518.189 183.188C517.287 184.23 516.092 184.752 514.604 184.752C513.854 184.752 513.156 184.588 512.512 184.26C511.867 183.932 511.129 183.369 510.297 182.572Z" fill="#E646E6"/>
<circle cx="511" cy="171.998" r="24" stroke="#E646E6" stroke-width="2"/>
<path d="M511.136 167.818C511.136 169.494 510.67 170.807 509.738 171.756C508.806 172.699 507.517 173.171 505.871 173.171C504.154 173.171 502.774 172.567 501.731 171.36C500.694 170.153 500.176 168.551 500.176 166.553C500.176 164.59 500.691 163.022 501.722 161.851C502.76 160.673 504.142 160.084 505.871 160.084C507.201 160.084 508.338 160.45 509.281 161.183C510.224 161.915 510.816 162.888 511.056 164.101H509.808C509.551 163.198 509.07 162.489 508.367 161.974C507.67 161.458 506.838 161.2 505.871 161.2C504.494 161.2 503.404 161.681 502.601 162.642C501.804 163.597 501.406 164.9 501.406 166.553C501.406 168.229 501.81 169.564 502.619 170.561C503.427 171.557 504.511 172.055 505.871 172.055C507.095 172.055 508.08 171.694 508.824 170.974C509.568 170.253 509.94 169.295 509.94 168.1V167.651H506.003V166.597H511.136V167.818ZM512.463 169.523H513.667C513.731 170.285 514.092 170.903 514.748 171.378C515.404 171.847 516.227 172.081 517.218 172.081C518.167 172.081 518.946 171.85 519.555 171.387C520.171 170.924 520.478 170.335 520.478 169.62C520.478 169.028 520.264 168.548 519.837 168.179C519.409 167.804 518.723 167.496 517.78 167.256L516.207 166.852C515.029 166.553 514.168 166.143 513.623 165.621C513.084 165.1 512.814 164.423 512.814 163.591C512.814 162.571 513.224 161.733 514.045 161.077C514.865 160.415 515.902 160.084 517.156 160.084C518.386 160.084 519.409 160.412 520.223 161.068C521.044 161.719 521.471 162.548 521.507 163.556H520.302C520.244 162.841 519.925 162.267 519.344 161.833C518.764 161.394 518.023 161.174 517.121 161.174C516.236 161.174 515.504 161.396 514.924 161.842C514.349 162.281 514.062 162.85 514.062 163.547C514.062 164.092 514.27 164.537 514.686 164.883C515.102 165.223 515.779 165.513 516.717 165.753L518.088 166.104C519.365 166.427 520.288 166.852 520.856 167.379C521.425 167.906 521.709 168.609 521.709 169.488C521.709 170.602 521.293 171.495 520.461 172.169C519.629 172.837 518.512 173.171 517.112 173.171C515.788 173.171 514.698 172.837 513.843 172.169C512.987 171.495 512.527 170.613 512.463 169.523Z" fill="#E646E6"/>
<path d="M749.297 182.572C748.594 181.881 748.02 181.4 747.574 181.131C747.141 180.861 746.701 180.727 746.256 180.727C745.471 180.727 744.844 181.031 744.375 181.641C743.918 182.238 743.66 183.082 743.602 184.172H741.439C741.439 182.438 741.873 181.061 742.74 180.041C743.619 179.021 744.809 178.512 746.309 178.512C747.012 178.512 747.686 178.682 748.33 179.021C748.975 179.35 749.713 179.912 750.545 180.709C751.225 181.377 751.799 181.852 752.268 182.133C752.736 182.402 753.193 182.537 753.639 182.537C754.436 182.537 755.08 182.227 755.572 181.605C756.064 180.984 756.334 180.123 756.381 179.021H758.543C758.543 180.744 758.092 182.133 757.189 183.188C756.287 184.23 755.092 184.752 753.604 184.752C752.854 184.752 752.156 184.588 751.512 184.26C750.867 183.932 750.129 183.369 749.297 182.572Z" fill="#E646E6"/>
<circle cx="750" cy="171.998" r="24" stroke="#E646E6" stroke-width="2"/>
<path d="M750.136 167.818C750.136 169.494 749.67 170.807 748.738 171.756C747.806 172.699 746.517 173.171 744.871 173.171C743.154 173.171 741.774 172.567 740.731 171.36C739.694 170.153 739.176 168.551 739.176 166.553C739.176 164.59 739.691 163.022 740.722 161.851C741.76 160.673 743.142 160.084 744.871 160.084C746.201 160.084 747.338 160.45 748.281 161.183C749.224 161.915 749.816 162.888 750.056 164.101H748.808C748.551 163.198 748.07 162.489 747.367 161.974C746.67 161.458 745.838 161.2 744.871 161.2C743.494 161.2 742.404 161.681 741.601 162.642C740.804 163.597 740.406 164.9 740.406 166.553C740.406 168.229 740.81 169.564 741.619 170.561C742.427 171.557 743.511 172.055 744.871 172.055C746.095 172.055 747.08 171.694 747.824 170.974C748.568 170.253 748.94 169.295 748.94 168.1V167.651H745.003V166.597H750.136V167.818ZM751.463 169.523H752.667C752.731 170.285 753.092 170.903 753.748 171.378C754.404 171.847 755.227 172.081 756.218 172.081C757.167 172.081 757.946 171.85 758.555 171.387C759.171 170.924 759.478 170.335 759.478 169.62C759.478 169.028 759.264 168.548 758.837 168.179C758.409 167.804 757.723 167.496 756.78 167.256L755.207 166.852C754.029 166.553 753.168 166.143 752.623 165.621C752.084 165.1 751.814 164.423 751.814 163.591C751.814 162.571 752.224 161.733 753.045 161.077C753.865 160.415 754.902 160.084 756.156 160.084C757.386 160.084 758.409 160.412 759.223 161.068C760.044 161.719 760.471 162.548 760.507 163.556H759.302C759.244 162.841 758.925 162.267 758.344 161.833C757.764 161.394 757.023 161.174 756.121 161.174C755.236 161.174 754.504 161.396 753.924 161.842C753.349 162.281 753.062 162.85 753.062 163.547C753.062 164.092 753.27 164.537 753.686 164.883C754.102 165.223 754.779 165.513 755.717 165.753L757.088 166.104C758.365 166.427 759.288 166.852 759.856 167.379C760.425 167.906 760.709 168.609 760.709 169.488C760.709 170.602 760.293 171.495 759.461 172.169C758.629 172.837 757.512 173.171 756.112 173.171C754.788 173.171 753.698 172.837 752.843 172.169C751.987 171.495 751.527 170.613 751.463 169.523Z" fill="#E646E6"/>
<defs>
<filter id="filter0_d" x="1002.41" y="534.982" width="236.7" height="18.0149" filterUnits="userSpaceOnUse" color-interpolation-filters="sRGB">
<feFlood flood-opacity="0" result="BackgroundImageFix"/>
<feColorMatrix in="SourceAlpha" type="matrix" values="0 0 0 0 0 0 0 0 0 0 0 0 0 0 0 0 0 0 127 0"/>
<feOffset dy="4"/>
<feGaussianBlur stdDeviation="2"/>
<feColorMatrix type="matrix" values="0 0 0 0 0 0 0 0 0 0 0 0 0 0 0 0 0 0 0.25 0"/>
<feBlend mode="normal" in2="BackgroundImageFix" result="effect1_dropShadow"/>
<feBlend mode="normal" in="SourceGraphic" in2="effect1_dropShadow" result="shape"/>
</filter>
<filter id="filter1_d" x="41" y="535" width="248" height="18" filterUnits="userSpaceOnUse" color-interpolation-filters="sRGB">
<feFlood flood-opacity="0" result="BackgroundImageFix"/>
<feColorMatrix in="SourceAlpha" type="matrix" values="0 0 0 0 0 0 0 0 0 0 0 0 0 0 0 0 0 0 127 0"/>
<feOffset dy="4"/>
<feGaussianBlur stdDeviation="2"/>
<feColorMatrix type="matrix" values="0 0 0 0 0 0 0 0 0 0 0 0 0 0 0 0 0 0 0.25 0"/>
<feBlend mode="normal" in2="BackgroundImageFix" result="effect1_dropShadow"/>
<feBlend mode="normal" in="SourceGraphic" in2="effect1_dropShadow" result="shape"/>
</filter>
<filter id="filter2_d" x="381" y="535" width="529" height="18" filterUnits="userSpaceOnUse" color-interpolation-filters="sRGB">
<feFlood flood-opacity="0" result="BackgroundImageFix"/>
<feColorMatrix in="SourceAlpha" type="matrix" values="0 0 0 0 0 0 0 0 0 0 0 0 0 0 0 0 0 0 127 0"/>
<feOffset dy="4"/>
<feGaussianBlur stdDeviation="2"/>
<feColorMatrix type="matrix" values="0 0 0 0 0 0 0 0 0 0 0 0 0 0 0 0 0 0 0.25 0"/>
<feBlend mode="normal" in2="BackgroundImageFix" result="effect1_dropShadow"/>
<feBlend mode="normal" in="SourceGraphic" in2="effect1_dropShadow" result="shape"/>
</filter>
<filter id="filter3_d" x="502" y="366" width="18" height="77" filterUnits="userSpaceOnUse" color-interpolation-filters="sRGB">
<feFlood flood-opacity="0" result="BackgroundImageFix"/>
<feColorMatrix in="SourceAlpha" type="matrix" values="0 0 0 0 0 0 0 0 0 0 0 0 0 0 0 0 0 0 127 0"/>
<feOffset dy="4"/>
<feGaussianBlur stdDeviation="2"/>
<feColorMatrix type="matrix" values="0 0 0 0 0 0 0 0 0 0 0 0 0 0 0 0 0 0 0.25 0"/>
<feBlend mode="normal" in2="BackgroundImageFix" result="effect1_dropShadow"/>
<feBlend mode="normal" in="SourceGraphic" in2="effect1_dropShadow" result="shape"/>
</filter>
<filter id="filter4_d" x="741" y="366" width="18" height="77" filterUnits="userSpaceOnUse" color-interpolation-filters="sRGB">
<feFlood flood-opacity="0" result="BackgroundImageFix"/>
<feColorMatrix in="SourceAlpha" type="matrix" values="0 0 0 0 0 0 0 0 0 0 0 0 0 0 0 0 0 0 127 0"/>
<feOffset dy="4"/>
<feGaussianBlur stdDeviation="2"/>
<feColorMatrix type="matrix" values="0 0 0 0 0 0 0 0 0 0 0 0 0 0 0 0 0 0 0.25 0"/>
<feBlend mode="normal" in2="BackgroundImageFix" result="effect1_dropShadow"/>
<feBlend mode="normal" in="SourceGraphic" in2="effect1_dropShadow" result="shape"/>
</filter>
<filter id="filter5_d" x="502" y="196.998" width="18" height="77" filterUnits="userSpaceOnUse" color-interpolation-filters="sRGB">
<feFlood flood-opacity="0" result="BackgroundImageFix"/>
<feColorMatrix in="SourceAlpha" type="matrix" values="0 0 0 0 0 0 0 0 0 0 0 0 0 0 0 0 0 0 127 0"/>
<feOffset dy="4"/>
<feGaussianBlur stdDeviation="2"/>
<feColorMatrix type="matrix" values="0 0 0 0 0 0 0 0 0 0 0 0 0 0 0 0 0 0 0.25 0"/>
<feBlend mode="normal" in2="BackgroundImageFix" result="effect1_dropShadow"/>
<feBlend mode="normal" in="SourceGraphic" in2="effect1_dropShadow" result="shape"/>
</filter>
<filter id="filter6_d" x="741" y="196.998" width="18" height="77" filterUnits="userSpaceOnUse" color-interpolation-filters="sRGB">
<feFlood flood-opacity="0" result="BackgroundImageFix"/>
<feColorMatrix in="SourceAlpha" type="matrix" values="0 0 0 0 0 0 0 0 0 0 0 0 0 0 0 0 0 0 127 0"/>
<feOffset dy="4"/>
<feGaussianBlur stdDeviation="2"/>
<feColorMatrix type="matrix" values="0 0 0 0 0 0 0 0 0 0 0 0 0 0 0 0 0 0 0.25 0"/>
<feBlend mode="normal" in2="BackgroundImageFix" result="effect1_dropShadow"/>
<feBlend mode="normal" in="SourceGraphic" in2="effect1_dropShadow" result="shape"/>
</filter>
</defs>
</svg>
