<svg width="1280" height="758" viewBox="0 0 1280 758" fill="none" xmlns="http://www.w3.org/2000/svg">
    <g>
<text transform="translate(170,44)" font-size="36px" font-family="SF-Pro-Display" text-anchor="left" fill="#FFFFFF">ТП Секция № 1</text>
</g>
<path d="M718.414 423.516C719.214 424.315 719.891 424.649 720.682 424.649C722.519 424.649 723.6 423.208 723.494 420.923H721.499C721.464 421.942 721.112 422.487 720.471 422.487C720.084 422.487 719.776 422.294 719.267 421.775C718.467 420.976 717.781 420.633 716.981 420.633C715.145 420.633 714.055 422.074 714.16 424.359H716.164C716.199 423.331 716.542 422.795 717.184 422.795C717.579 422.795 717.896 422.988 718.414 423.516ZM734.085 429.281C737.275 429.281 739.209 426.724 739.209 422.628C739.209 418.532 737.258 416.027 734.085 416.027C730.912 416.027 728.952 418.541 728.952 422.637C728.952 426.741 730.895 429.281 734.085 429.281ZM734.085 427.154C732.573 427.154 731.65 425.52 731.65 422.637C731.65 419.78 732.591 418.154 734.085 418.154C735.588 418.154 736.511 419.771 736.511 422.637C736.511 425.528 735.597 427.154 734.085 427.154ZM742.013 429.105C742.795 429.105 743.428 428.473 743.428 427.69C743.428 426.899 742.795 426.275 742.013 426.275C741.222 426.275 740.598 426.899 740.598 427.69C740.598 428.473 741.222 429.105 742.013 429.105ZM751.637 429H754.159V426.741H755.812V424.614H754.159V416.317H750.415C747.813 420.149 746.434 422.373 745.326 424.482V426.741H751.637V429ZM747.655 424.623C748.684 422.637 749.791 420.905 751.637 418.198H751.689V424.693H747.655V424.623ZM762.219 423.938L765.98 419.578H763.045L759.916 423.366H759.846V419.578H757.288V429H759.846V424.957H759.916L763.098 429H766.2L762.219 423.938ZM773.056 429C775.763 429 777.441 427.603 777.441 425.37C777.441 423.691 776.176 422.435 774.453 422.303V422.232C775.798 422.03 776.835 420.87 776.835 419.481C776.835 417.539 775.341 416.317 772.959 416.317H767.439V429H773.056ZM770.094 418.295H772.273C773.513 418.295 774.225 418.875 774.225 419.895C774.225 420.967 773.416 421.591 772.001 421.591H770.094V418.295ZM770.094 427.022V423.34H772.317C773.882 423.34 774.734 423.973 774.734 425.159C774.734 426.372 773.908 427.022 772.379 427.022H770.094Z" fill="#BEBEBE"/>
<g filter="url(#filter0_d)">
<rect x="91" y="521" width="10" height="602" transform="rotate(-90 91 521)" fill="#BEBEBE"/>
</g>
<g filter="url(#filter1_d)">
<rect x="91" y="384" width="10" height="736" transform="rotate(-90 91 384)" fill="#BEBEBE"/>
</g>
<path d="M717.75 406.281C720.765 406.281 722.9 404.559 723.313 401.852H720.703C720.334 403.205 719.244 404.022 717.759 404.022C715.729 404.022 714.454 402.353 714.454 399.646C714.454 396.974 715.746 395.295 717.75 395.295C719.209 395.295 720.36 396.2 720.694 397.598H723.305C722.971 394.899 720.703 393.036 717.75 393.036C714.076 393.036 711.747 395.567 711.747 399.654C711.747 403.75 714.059 406.281 717.75 406.281ZM729.141 398.274C730.283 398.274 731.065 399.101 731.118 400.305H727.119C727.207 399.127 728.016 398.274 729.141 398.274ZM731.153 403.117C730.916 403.838 730.195 404.304 729.255 404.304C727.945 404.304 727.093 403.381 727.093 402.036V401.878H733.588V401.096C733.588 398.23 731.856 396.376 729.114 396.376C726.328 396.376 724.57 398.327 724.57 401.333C724.57 404.348 726.311 406.202 729.211 406.202C731.54 406.202 733.228 404.963 733.509 403.117H731.153ZM740.004 400.938L743.766 396.578H740.83L737.701 400.366H737.631V396.578H735.073V406H737.631V401.957H737.701L740.883 406H743.985L740.004 400.938ZM755.033 408.443V404.058H753.609V396.578H751.052V404.058H747.562V396.578H745.005V406H752.695V408.443H755.033ZM758.698 406L762.442 400.041H762.513V406H765.026V396.578H762.513L758.769 402.467H758.698V396.578H756.185V406H758.698ZM770.783 401.157C769.887 401.157 769.307 400.612 769.307 399.856C769.307 399.021 769.878 398.485 770.783 398.485H772.321V401.157H770.783ZM772.321 406H774.826V396.578H770.528C768.243 396.578 766.758 397.844 766.758 399.848C766.758 401.201 767.549 402.168 768.832 402.572L766.354 406H769.201L771.293 402.959H772.321V406ZM783.396 406H786.023V393.317H783.387L780.108 395.594V397.984L783.343 395.752H783.396V406Z" fill="#BEBEBE"/>
<g filter="url(#filter2_d)">
<rect x="927" y="374" width="74" height="10" fill="#C4C4C4"/>
</g>
<g filter="url(#filter3_d)">
<rect x="1106" y="374" width="15" height="10" fill="#C4C4C4"/>
</g>
<g filter="url(#filter4_d)">
<path fill-rule="evenodd" clip-rule="evenodd" d="M758.687 242C769.56 242 778.375 233.185 778.375 222.312C778.375 211.439 769.56 202.625 758.687 202.625C747.814 202.625 739 211.439 739 222.312C739 233.185 747.814 242 758.687 242ZM758.687 236.75C766.661 236.75 773.125 230.286 773.125 222.313C773.125 214.339 766.661 207.875 758.687 207.875C750.714 207.875 744.25 214.339 744.25 222.313C744.25 230.286 750.714 236.75 758.687 236.75Z" fill="#BEBEBE"/>
<g filter="url(#filter5_d)">
<rect x="706" y="118" width="105" height="35" rx="3" fill="#640064"/>
</g>
<g filter="url(#filter6_i)">
<path d="M735.306 136.516C736.105 137.315 736.782 137.649 737.573 137.649C739.41 137.649 740.491 136.208 740.386 133.923H738.391C738.355 134.942 738.004 135.487 737.362 135.487C736.976 135.487 736.668 135.294 736.158 134.775C735.358 133.976 734.673 133.633 733.873 133.633C732.036 133.633 730.946 135.074 731.052 137.359H733.056C733.091 136.331 733.434 135.795 734.075 135.795C734.471 135.795 734.787 135.988 735.306 136.516ZM749.184 142H751.812V129.317H749.175L745.896 131.594V133.984L749.131 131.752H749.184V142ZM759.625 142.281C762.815 142.281 764.749 139.724 764.749 135.628C764.749 131.532 762.798 129.027 759.625 129.027C756.452 129.027 754.492 131.541 754.492 135.637C754.492 139.741 756.435 142.281 759.625 142.281ZM759.625 140.154C758.113 140.154 757.19 138.52 757.19 135.637C757.19 132.78 758.131 131.154 759.625 131.154C761.128 131.154 762.051 132.771 762.051 135.637C762.051 138.528 761.137 140.154 759.625 140.154ZM771.341 136.938L775.103 132.578H772.167L769.038 136.366H768.968V132.578H766.41V142H768.968V137.957H769.038L772.22 142H775.322L771.341 136.938ZM782.178 142C784.885 142 786.563 140.603 786.563 138.37C786.563 136.691 785.298 135.435 783.575 135.303V135.232C784.92 135.03 785.957 133.87 785.957 132.481C785.957 130.539 784.463 129.317 782.081 129.317H776.562V142H782.178ZM779.216 131.295H781.396C782.635 131.295 783.347 131.875 783.347 132.895C783.347 133.967 782.538 134.591 781.123 134.591H779.216V131.295ZM779.216 140.022V136.34H781.439C783.004 136.34 783.856 136.973 783.856 138.159C783.856 139.372 783.03 140.022 781.501 140.022H779.216Z" fill="#141414"/>
</g>
<g filter="url(#filter7_d)">
<path d="M754 150H764V183H754V150Z" fill="#640064"/>
</g>
<path fill-rule="evenodd" clip-rule="evenodd" d="M758.687 218.375C769.56 218.375 778.375 209.56 778.375 198.687C778.375 187.814 769.56 179 758.687 179C747.814 179 739 187.814 739 198.687C739 209.56 747.814 218.375 758.687 218.375ZM758.687 213.125C766.661 213.125 773.125 206.661 773.125 198.688C773.125 190.714 766.661 184.25 758.687 184.25C750.714 184.25 744.25 190.714 744.25 198.688C744.25 206.661 750.714 213.125 758.687 213.125Z" fill="#640064"/>
</g>
<g filter="url(#filter8_d)">
<path d="M754 241H764V274H754V241Z" fill="#BEBEBE"/>
</g>
<g filter="url(#filter9_d)">
<rect x="1001" y="361" width="105" height="35" rx="3" fill="#C4C4C4"/>
<path d="M1019.75 385.281C1022.76 385.281 1024.9 383.559 1025.31 380.852H1022.7C1022.33 382.205 1021.24 383.022 1019.76 383.022C1017.73 383.022 1016.45 381.353 1016.45 378.646C1016.45 375.974 1017.75 374.295 1019.75 374.295C1021.21 374.295 1022.36 375.2 1022.69 376.598H1025.3C1024.97 373.899 1022.7 372.036 1019.75 372.036C1016.08 372.036 1013.75 374.567 1013.75 378.654C1013.75 382.75 1016.06 385.281 1019.75 385.281ZM1031.14 377.274C1032.28 377.274 1033.07 378.101 1033.12 379.305H1029.12C1029.21 378.127 1030.02 377.274 1031.14 377.274ZM1033.15 382.117C1032.92 382.838 1032.2 383.304 1031.25 383.304C1029.95 383.304 1029.09 382.381 1029.09 381.036V380.878H1035.59V380.096C1035.59 377.23 1033.86 375.376 1031.11 375.376C1028.33 375.376 1026.57 377.327 1026.57 380.333C1026.57 383.348 1028.31 385.202 1031.21 385.202C1033.54 385.202 1035.23 383.963 1035.51 382.117H1033.15ZM1042 379.938L1045.77 375.578H1042.83L1039.7 379.366H1039.63V375.578H1037.07V385H1039.63V380.957H1039.7L1042.88 385H1045.99L1042 379.938ZM1057.03 387.443V383.058H1055.61V375.578H1053.05V383.058H1049.56V375.578H1047V385H1054.7V387.443H1057.03ZM1060.7 385L1064.44 379.041H1064.51V385H1067.03V375.578H1064.51L1060.77 381.467H1060.7V375.578H1058.18V385H1060.7ZM1072.78 380.157C1071.89 380.157 1071.31 379.612 1071.31 378.856C1071.31 378.021 1071.88 377.485 1072.78 377.485H1074.32V380.157H1072.78ZM1074.32 385H1076.83V375.578H1072.53C1070.24 375.578 1068.76 376.844 1068.76 378.848C1068.76 380.201 1069.55 381.168 1070.83 381.572L1068.35 385H1071.2L1073.29 381.959H1074.32V385ZM1085.31 379.463H1086.87C1088.3 379.463 1089.17 380.166 1089.17 381.326C1089.17 382.398 1088.24 383.146 1086.92 383.146C1085.52 383.146 1084.64 382.442 1084.56 381.37H1082.02C1082.14 383.708 1084.02 385.281 1086.88 385.281C1089.81 385.281 1091.87 383.77 1091.87 381.493C1091.87 379.735 1090.65 378.593 1088.76 378.435V378.382C1090.32 378.101 1091.38 376.976 1091.38 375.42C1091.38 373.39 1089.58 372.036 1086.94 372.036C1084.19 372.036 1082.36 373.565 1082.27 375.912H1084.71C1084.78 374.805 1085.6 374.075 1086.83 374.075C1088.15 374.075 1088.88 374.752 1088.88 375.78C1088.88 376.826 1088.06 377.547 1086.85 377.547H1085.31V379.463Z" fill="#2F3235"/>
</g>
<path d="M1018.41 409.516C1019.21 410.315 1019.89 410.649 1020.68 410.649C1022.52 410.649 1023.6 409.208 1023.49 406.923H1021.5C1021.46 407.942 1021.11 408.487 1020.47 408.487C1020.08 408.487 1019.78 408.294 1019.27 407.775C1018.47 406.976 1017.78 406.633 1016.98 406.633C1015.14 406.633 1014.05 408.074 1014.16 410.359H1016.16C1016.2 409.331 1016.54 408.795 1017.18 408.795C1017.58 408.795 1017.9 408.988 1018.41 409.516ZM1034.08 415.281C1037.28 415.281 1039.21 412.724 1039.21 408.628C1039.21 404.532 1037.26 402.027 1034.08 402.027C1030.91 402.027 1028.95 404.541 1028.95 408.637C1028.95 412.741 1030.89 415.281 1034.08 415.281ZM1034.08 413.154C1032.57 413.154 1031.65 411.52 1031.65 408.637C1031.65 405.78 1032.59 404.154 1034.08 404.154C1035.59 404.154 1036.51 405.771 1036.51 408.637C1036.51 411.528 1035.6 413.154 1034.08 413.154ZM1042.01 415.105C1042.79 415.105 1043.43 414.473 1043.43 413.69C1043.43 412.899 1042.79 412.275 1042.01 412.275C1041.22 412.275 1040.6 412.899 1040.6 413.69C1040.6 414.473 1041.22 415.105 1042.01 415.105ZM1051.64 415H1054.16V412.741H1055.81V410.614H1054.16V402.317H1050.42C1047.81 406.149 1046.43 408.373 1045.33 410.482V412.741H1051.64V415ZM1047.66 410.623C1048.68 408.637 1049.79 406.905 1051.64 404.198H1051.69V410.693H1047.66V410.623ZM1062.22 409.938L1065.98 405.578H1063.04L1059.92 409.366H1059.85V405.578H1057.29V415H1059.85V410.957H1059.92L1063.1 415H1066.2L1062.22 409.938ZM1073.06 415C1075.76 415 1077.44 413.603 1077.44 411.37C1077.44 409.691 1076.18 408.435 1074.45 408.303V408.232C1075.8 408.03 1076.83 406.87 1076.83 405.481C1076.83 403.539 1075.34 402.317 1072.96 402.317H1067.44V415H1073.06ZM1070.09 404.295H1072.27C1073.51 404.295 1074.22 404.875 1074.22 405.895C1074.22 406.967 1073.42 407.591 1072 407.591H1070.09V404.295ZM1070.09 413.022V409.34H1072.32C1073.88 409.34 1074.73 409.973 1074.73 411.159C1074.73 412.372 1073.91 413.022 1072.38 413.022H1070.09Z" fill="#BEBEBE"/>
<g filter="url(#filter10_d)">
<rect x="1121" y="361" width="105" height="35" rx="3" fill="#C4C4C4"/>
<path d="M1139.75 385.281C1142.76 385.281 1144.9 383.559 1145.31 380.852H1142.7C1142.33 382.205 1141.24 383.022 1139.76 383.022C1137.73 383.022 1136.45 381.353 1136.45 378.646C1136.45 375.974 1137.75 374.295 1139.75 374.295C1141.21 374.295 1142.36 375.2 1142.69 376.598H1145.3C1144.97 373.899 1142.7 372.036 1139.75 372.036C1136.08 372.036 1133.75 374.567 1133.75 378.654C1133.75 382.75 1136.06 385.281 1139.75 385.281ZM1151.14 377.274C1152.28 377.274 1153.07 378.101 1153.12 379.305H1149.12C1149.21 378.127 1150.02 377.274 1151.14 377.274ZM1153.15 382.117C1152.92 382.838 1152.2 383.304 1151.25 383.304C1149.95 383.304 1149.09 382.381 1149.09 381.036V380.878H1155.59V380.096C1155.59 377.23 1153.86 375.376 1151.11 375.376C1148.33 375.376 1146.57 377.327 1146.57 380.333C1146.57 383.348 1148.31 385.202 1151.21 385.202C1153.54 385.202 1155.23 383.963 1155.51 382.117H1153.15ZM1162 379.938L1165.77 375.578H1162.83L1159.7 379.366H1159.63V375.578H1157.07V385H1159.63V380.957H1159.7L1162.88 385H1165.99L1162 379.938ZM1177.03 387.443V383.058H1175.61V375.578H1173.05V383.058H1169.56V375.578H1167V385H1174.7V387.443H1177.03ZM1180.7 385L1184.44 379.041H1184.51V385H1187.03V375.578H1184.51L1180.77 381.467H1180.7V375.578H1178.18V385H1180.7ZM1192.78 380.157C1191.89 380.157 1191.31 379.612 1191.31 378.856C1191.31 378.021 1191.88 377.485 1192.78 377.485H1194.32V380.157H1192.78ZM1194.32 385H1196.83V375.578H1192.53C1190.24 375.578 1188.76 376.844 1188.76 378.848C1188.76 380.201 1189.55 381.168 1190.83 381.572L1188.35 385H1191.2L1193.29 381.959H1194.32V385ZM1202.07 376.132V376.176H1204.53V376.132C1204.53 374.963 1205.44 374.102 1206.67 374.102C1207.85 374.102 1208.68 374.857 1208.68 375.807C1208.68 376.686 1208.29 377.327 1207 378.61L1202.22 383.216V385H1211.44V382.891H1205.72V382.838L1208.81 379.858C1210.21 378.47 1211.27 377.283 1211.27 375.701C1211.27 373.583 1209.43 372.036 1206.76 372.036C1203.99 372.036 1202.07 373.732 1202.07 376.132Z" fill="#2F3235"/>
</g>
<path d="M1138.41 409.516C1139.21 410.315 1139.89 410.649 1140.68 410.649C1142.52 410.649 1143.6 409.208 1143.49 406.923H1141.5C1141.46 407.942 1141.11 408.487 1140.47 408.487C1140.08 408.487 1139.78 408.294 1139.27 407.775C1138.47 406.976 1137.78 406.633 1136.98 406.633C1135.14 406.633 1134.05 408.074 1134.16 410.359H1136.16C1136.2 409.331 1136.54 408.795 1137.18 408.795C1137.58 408.795 1137.9 408.988 1138.41 409.516ZM1154.08 415.281C1157.28 415.281 1159.21 412.724 1159.21 408.628C1159.21 404.532 1157.26 402.027 1154.08 402.027C1150.91 402.027 1148.95 404.541 1148.95 408.637C1148.95 412.741 1150.89 415.281 1154.08 415.281ZM1154.08 413.154C1152.57 413.154 1151.65 411.52 1151.65 408.637C1151.65 405.78 1152.59 404.154 1154.08 404.154C1155.59 404.154 1156.51 405.771 1156.51 408.637C1156.51 411.528 1155.6 413.154 1154.08 413.154ZM1162.01 415.105C1162.79 415.105 1163.43 414.473 1163.43 413.69C1163.43 412.899 1162.79 412.275 1162.01 412.275C1161.22 412.275 1160.6 412.899 1160.6 413.69C1160.6 414.473 1161.22 415.105 1162.01 415.105ZM1171.64 415H1174.16V412.741H1175.81V410.614H1174.16V402.317H1170.42C1167.81 406.149 1166.43 408.373 1165.33 410.482V412.741H1171.64V415ZM1167.66 410.623C1168.68 408.637 1169.79 406.905 1171.64 404.198H1171.69V410.693H1167.66V410.623ZM1182.22 409.938L1185.98 405.578H1183.04L1179.92 409.366H1179.85V405.578H1177.29V415H1179.85V410.957H1179.92L1183.1 415H1186.2L1182.22 409.938ZM1193.06 415C1195.76 415 1197.44 413.603 1197.44 411.37C1197.44 409.691 1196.18 408.435 1194.45 408.303V408.232C1195.8 408.03 1196.83 406.87 1196.83 405.481C1196.83 403.539 1195.34 402.317 1192.96 402.317H1187.44V415H1193.06ZM1190.09 404.295H1192.27C1193.51 404.295 1194.22 404.875 1194.22 405.895C1194.22 406.967 1193.42 407.591 1192 407.591H1190.09V404.295ZM1190.09 413.022V409.34H1192.32C1193.88 409.34 1194.73 409.973 1194.73 411.159C1194.73 412.372 1193.91 413.022 1192.38 413.022H1190.09Z" fill="#BEBEBE"/>
<path d="M75.5137 475V466.545H74.2012V475H75.5137ZM77.4575 475H77.9922V471.477H77.4526L76.5249 472.136V472.673L77.4453 472.019H77.4575V475Z" fill="white"/>
<path d="M75.2085 488V479.545H73.896V488H75.2085ZM76.2319 485.51V485.515H76.7495V485.507C76.7495 485.141 77.04 484.863 77.4258 484.863C77.792 484.863 78.0752 485.112 78.0752 485.424C78.0752 485.7 77.9629 485.886 77.5332 486.333L76.2612 487.629V488H78.6709V487.539H76.9985V487.526L77.8799 486.64C78.395 486.113 78.6147 485.808 78.6147 485.397C78.6147 484.838 78.1143 484.411 77.4429 484.411C76.7422 484.411 76.2319 484.875 76.2319 485.51Z" fill="white"/>
<path d="M75.1426 501V492.545H73.8301V501H75.1426ZM76.9619 499.406H77.4014C77.8652 499.406 78.1533 499.64 78.1533 500.021C78.1533 500.365 77.8457 500.609 77.416 500.609C76.9717 500.609 76.6934 500.377 76.6592 500.041H76.1343C76.1685 500.648 76.6567 501.066 77.416 501.066C78.1509 501.066 78.71 500.644 78.71 500.028C78.71 499.535 78.3682 499.21 77.8384 499.174V499.164C78.2754 499.086 78.5635 498.771 78.5635 498.332C78.5635 497.79 78.0776 497.411 77.4111 497.411C76.7129 497.411 76.2466 497.809 76.2051 498.427H76.7202C76.752 498.08 77.0059 497.86 77.3867 497.86C77.8042 497.86 78.0288 498.078 78.0288 498.405C78.0288 498.737 77.7676 498.976 77.3867 498.976H76.9619V499.406Z" fill="white"/>
<path d="M75.5137 403V394.545H74.2012V403H75.5137ZM77.4575 403H77.9922V399.477H77.4526L76.5249 400.136V400.673L77.4453 400.019H77.4575V403Z" fill="white"/>
<path d="M75.2085 416V407.545H73.896V416H75.2085ZM76.2319 413.51V413.515H76.7495V413.507C76.7495 413.141 77.04 412.863 77.4258 412.863C77.792 412.863 78.0752 413.112 78.0752 413.424C78.0752 413.7 77.9629 413.886 77.5332 414.333L76.2612 415.629V416H78.6709V415.539H76.9985V415.526L77.8799 414.64C78.395 414.113 78.6147 413.808 78.6147 413.397C78.6147 412.838 78.1143 412.411 77.4429 412.411C76.7422 412.411 76.2319 412.875 76.2319 413.51Z" fill="white"/>
<path d="M75.1426 429V420.545H73.8301V429H75.1426ZM76.9619 427.406H77.4014C77.8652 427.406 78.1533 427.64 78.1533 428.021C78.1533 428.365 77.8457 428.609 77.416 428.609C76.9717 428.609 76.6934 428.377 76.6592 428.041H76.1343C76.1685 428.648 76.6567 429.066 77.416 429.066C78.1509 429.066 78.71 428.644 78.71 428.028C78.71 427.535 78.3682 427.21 77.8384 427.174V427.164C78.2754 427.086 78.5635 426.771 78.5635 426.332C78.5635 425.79 78.0776 425.411 77.4111 425.411C76.7129 425.411 76.2466 425.809 76.2051 426.427H76.7202C76.752 426.08 77.0059 425.86 77.3867 425.86C77.8042 425.86 78.0288 426.078 78.0288 426.405C78.0288 426.737 77.7676 426.976 77.3867 426.976H76.9619V427.406Z" fill="white"/>
<rect x="683" y="374" width="10" height="137" fill="#C4C4C4"/>
<defs>
<filter id="filter0_d" x="87" y="511" width="610" height="18" filterUnits="userSpaceOnUse" color-interpolation-filters="sRGB">
<feFlood flood-opacity="0" result="BackgroundImageFix"/>
<feColorMatrix in="SourceAlpha" type="matrix" values="0 0 0 0 0 0 0 0 0 0 0 0 0 0 0 0 0 0 127 0"/>
<feOffset dy="4"/>
<feGaussianBlur stdDeviation="2"/>
<feColorMatrix type="matrix" values="0 0 0 0 0 0 0 0 0 0 0 0 0 0 0 0 0 0 0.25 0"/>
<feBlend mode="normal" in2="BackgroundImageFix" result="effect1_dropShadow"/>
<feBlend mode="normal" in="SourceGraphic" in2="effect1_dropShadow" result="shape"/>
</filter>
<filter id="filter1_d" x="87" y="374" width="744" height="18" filterUnits="userSpaceOnUse" color-interpolation-filters="sRGB">
<feFlood flood-opacity="0" result="BackgroundImageFix"/>
<feColorMatrix in="SourceAlpha" type="matrix" values="0 0 0 0 0 0 0 0 0 0 0 0 0 0 0 0 0 0 127 0"/>
<feOffset dy="4"/>
<feGaussianBlur stdDeviation="2"/>
<feColorMatrix type="matrix" values="0 0 0 0 0 0 0 0 0 0 0 0 0 0 0 0 0 0 0.25 0"/>
<feBlend mode="normal" in2="BackgroundImageFix" result="effect1_dropShadow"/>
<feBlend mode="normal" in="SourceGraphic" in2="effect1_dropShadow" result="shape"/>
</filter>
<filter id="filter2_d" x="923" y="374" width="82" height="18" filterUnits="userSpaceOnUse" color-interpolation-filters="sRGB">
<feFlood flood-opacity="0" result="BackgroundImageFix"/>
<feColorMatrix in="SourceAlpha" type="matrix" values="0 0 0 0 0 0 0 0 0 0 0 0 0 0 0 0 0 0 127 0"/>
<feOffset dy="4"/>
<feGaussianBlur stdDeviation="2"/>
<feColorMatrix type="matrix" values="0 0 0 0 0 0 0 0 0 0 0 0 0 0 0 0 0 0 0.25 0"/>
<feBlend mode="normal" in2="BackgroundImageFix" result="effect1_dropShadow"/>
<feBlend mode="normal" in="SourceGraphic" in2="effect1_dropShadow" result="shape"/>
</filter>
<filter id="filter3_d" x="1102" y="374" width="23" height="18" filterUnits="userSpaceOnUse" color-interpolation-filters="sRGB">
<feFlood flood-opacity="0" result="BackgroundImageFix"/>
<feColorMatrix in="SourceAlpha" type="matrix" values="0 0 0 0 0 0 0 0 0 0 0 0 0 0 0 0 0 0 127 0"/>
<feOffset dy="4"/>
<feGaussianBlur stdDeviation="2"/>
<feColorMatrix type="matrix" values="0 0 0 0 0 0 0 0 0 0 0 0 0 0 0 0 0 0 0.25 0"/>
<feBlend mode="normal" in2="BackgroundImageFix" result="effect1_dropShadow"/>
<feBlend mode="normal" in="SourceGraphic" in2="effect1_dropShadow" result="shape"/>
</filter>
<filter id="filter4_d" x="702" y="118" width="113" height="132" filterUnits="userSpaceOnUse" color-interpolation-filters="sRGB">
<feFlood flood-opacity="0" result="BackgroundImageFix"/>
<feColorMatrix in="SourceAlpha" type="matrix" values="0 0 0 0 0 0 0 0 0 0 0 0 0 0 0 0 0 0 127 0"/>
<feOffset dy="4"/>
<feGaussianBlur stdDeviation="2"/>
<feColorMatrix type="matrix" values="0 0 0 0 0 0 0 0 0 0 0 0 0 0 0 0 0 0 0.25 0"/>
<feBlend mode="normal" in2="BackgroundImageFix" result="effect1_dropShadow"/>
<feBlend mode="normal" in="SourceGraphic" in2="effect1_dropShadow" result="shape"/>
</filter>
<filter id="filter5_d" x="702" y="118" width="113" height="43" filterUnits="userSpaceOnUse" color-interpolation-filters="sRGB">
<feFlood flood-opacity="0" result="BackgroundImageFix"/>
<feColorMatrix in="SourceAlpha" type="matrix" values="0 0 0 0 0 0 0 0 0 0 0 0 0 0 0 0 0 0 127 0"/>
<feOffset dy="4"/>
<feGaussianBlur stdDeviation="2"/>
<feColorMatrix type="matrix" values="0 0 0 0 0 0 0 0 0 0 0 0 0 0 0 0 0 0 0.25 0"/>
<feBlend mode="normal" in2="BackgroundImageFix" result="effect1_dropShadow"/>
<feBlend mode="normal" in="SourceGraphic" in2="effect1_dropShadow" result="shape"/>
</filter>
<filter id="filter6_i" x="731.045" y="129.027" width="55.5187" height="17.2539" filterUnits="userSpaceOnUse" color-interpolation-filters="sRGB">
<feFlood flood-opacity="0" result="BackgroundImageFix"/>
<feBlend mode="normal" in="SourceGraphic" in2="BackgroundImageFix" result="shape"/>
<feColorMatrix in="SourceAlpha" type="matrix" values="0 0 0 0 0 0 0 0 0 0 0 0 0 0 0 0 0 0 127 0" result="hardAlpha"/>
<feOffset dy="4"/>
<feGaussianBlur stdDeviation="2"/>
<feComposite in2="hardAlpha" operator="arithmetic" k2="-1" k3="1"/>
<feColorMatrix type="matrix" values="0 0 0 0 0 0 0 0 0 0 0 0 0 0 0 0 0 0 0.25 0"/>
<feBlend mode="normal" in2="shape" result="effect1_innerShadow"/>
</filter>
<filter id="filter7_d" x="750" y="150" width="18" height="41" filterUnits="userSpaceOnUse" color-interpolation-filters="sRGB">
<feFlood flood-opacity="0" result="BackgroundImageFix"/>
<feColorMatrix in="SourceAlpha" type="matrix" values="0 0 0 0 0 0 0 0 0 0 0 0 0 0 0 0 0 0 127 0"/>
<feOffset dy="4"/>
<feGaussianBlur stdDeviation="2"/>
<feColorMatrix type="matrix" values="0 0 0 0 0 0 0 0 0 0 0 0 0 0 0 0 0 0 0.25 0"/>
<feBlend mode="normal" in2="BackgroundImageFix" result="effect1_dropShadow"/>
<feBlend mode="normal" in="SourceGraphic" in2="effect1_dropShadow" result="shape"/>
</filter>
<filter id="filter8_d" x="750" y="241" width="18" height="41" filterUnits="userSpaceOnUse" color-interpolation-filters="sRGB">
<feFlood flood-opacity="0" result="BackgroundImageFix"/>
<feColorMatrix in="SourceAlpha" type="matrix" values="0 0 0 0 0 0 0 0 0 0 0 0 0 0 0 0 0 0 127 0"/>
<feOffset dy="4"/>
<feGaussianBlur stdDeviation="2"/>
<feColorMatrix type="matrix" values="0 0 0 0 0 0 0 0 0 0 0 0 0 0 0 0 0 0 0.25 0"/>
<feBlend mode="normal" in2="BackgroundImageFix" result="effect1_dropShadow"/>
<feBlend mode="normal" in="SourceGraphic" in2="effect1_dropShadow" result="shape"/>
</filter>
<filter id="filter9_d" x="997" y="361" width="113" height="43" filterUnits="userSpaceOnUse" color-interpolation-filters="sRGB">
<feFlood flood-opacity="0" result="BackgroundImageFix"/>
<feColorMatrix in="SourceAlpha" type="matrix" values="0 0 0 0 0 0 0 0 0 0 0 0 0 0 0 0 0 0 127 0"/>
<feOffset dy="4"/>
<feGaussianBlur stdDeviation="2"/>
<feColorMatrix type="matrix" values="0 0 0 0 0 0 0 0 0 0 0 0 0 0 0 0 0 0 0.25 0"/>
<feBlend mode="normal" in2="BackgroundImageFix" result="effect1_dropShadow"/>
<feBlend mode="normal" in="SourceGraphic" in2="effect1_dropShadow" result="shape"/>
</filter>
<filter id="filter10_d" x="1117" y="361" width="113" height="43" filterUnits="userSpaceOnUse" color-interpolation-filters="sRGB">
<feFlood flood-opacity="0" result="BackgroundImageFix"/>
<feColorMatrix in="SourceAlpha" type="matrix" values="0 0 0 0 0 0 0 0 0 0 0 0 0 0 0 0 0 0 127 0"/>
<feOffset dy="4"/>
<feGaussianBlur stdDeviation="2"/>
<feColorMatrix type="matrix" values="0 0 0 0 0 0 0 0 0 0 0 0 0 0 0 0 0 0 0.25 0"/>
<feBlend mode="normal" in2="BackgroundImageFix" result="effect1_dropShadow"/>
<feBlend mode="normal" in="SourceGraphic" in2="effect1_dropShadow" result="shape"/>
</filter>
</defs>
</svg>
