<svg width="1280" height="758" viewBox="0 0 1280 758" fill="none" xmlns="http://www.w3.org/2000/svg">
    <g>
<text transform="translate(170,44)" font-size="36px" font-family="SF-Pro-Display" text-anchor="left" fill="#FFFFFF">ТП Секция № 2</text>
</g>
<path d="M497.414 389.515C498.214 390.314 498.891 390.648 499.682 390.648C501.519 390.648 502.6 389.207 502.494 386.922L500.499 386.922C500.464 387.941 500.112 388.486 499.471 388.486C499.084 388.486 498.776 388.293 498.267 387.774C497.467 386.975 496.781 386.632 495.981 386.632C494.145 386.632 493.055 388.073 493.16 390.358L495.164 390.358C495.199 389.33 495.542 388.794 496.184 388.794C496.579 388.794 496.896 388.987 497.414 389.515ZM513.085 395.28C516.275 395.28 518.209 392.723 518.209 388.627C518.209 384.531 516.258 382.026 513.085 382.026C509.912 382.026 507.952 384.54 507.952 388.636C507.952 392.74 509.895 395.28 513.085 395.28ZM513.085 393.153C511.573 393.153 510.65 391.519 510.65 388.636C510.65 385.779 511.591 384.153 513.085 384.153C514.588 384.153 515.511 385.771 515.511 388.636C515.511 391.527 514.597 393.153 513.085 393.153ZM521.013 395.104C521.795 395.104 522.428 394.472 522.428 393.689C522.428 392.898 521.795 392.274 521.013 392.274C520.222 392.274 519.598 392.898 519.598 393.689C519.598 394.472 520.222 395.104 521.013 395.104ZM530.637 394.999L533.159 394.999L533.159 392.74L534.812 392.74L534.812 390.613L533.159 390.613L533.159 382.316L529.415 382.316C526.813 386.148 525.434 388.372 524.326 390.481L524.326 392.74L530.637 392.74L530.637 394.999ZM526.655 390.622C527.684 388.636 528.791 386.904 530.637 384.197L530.689 384.197L530.689 390.692L526.655 390.692L526.655 390.622ZM541.219 389.937L544.98 385.577L542.045 385.577L538.916 389.365L538.846 389.365L538.846 385.577L536.288 385.577L536.288 394.999L538.846 394.999L538.846 390.956L538.916 390.956L542.098 394.999L545.2 394.999L541.219 389.937ZM552.056 394.999C554.763 394.999 556.441 393.602 556.441 391.369C556.441 389.69 555.176 388.434 553.453 388.302L553.453 388.231C554.798 388.029 555.835 386.869 555.835 385.48C555.835 383.538 554.341 382.316 551.959 382.316L546.439 382.316L546.439 394.999L552.056 394.999ZM549.094 384.294L551.273 384.294C552.513 384.294 553.225 384.874 553.225 385.894C553.225 386.966 552.416 387.59 551.001 387.59L549.094 387.59L549.094 384.294ZM549.094 393.021L549.094 389.339L551.317 389.339C552.882 389.339 553.734 389.972 553.734 391.158C553.734 392.371 552.908 393.021 551.379 393.021L549.094 393.021Z" fill="#BEBEBE"/>
<g filter="url(#filter0_d)">
<rect x="1194" y="475.999" width="10" height="602" transform="rotate(90 1194 475.999)" fill="#BEBEBE"/>
</g>
<g filter="url(#filter1_d)">
<rect x="1194" y="339" width="10" height="736" transform="rotate(90 1194 339)" fill="#BEBEBE"/>
</g>
<path d="M496.75 373.28C499.765 373.28 501.9 371.558 502.313 368.851L499.703 368.851C499.334 370.204 498.244 371.021 496.759 371.021C494.729 371.021 493.454 369.352 493.454 366.645C493.454 363.973 494.746 362.294 496.75 362.294C498.209 362.294 499.36 363.199 499.694 364.597L502.305 364.597C501.971 361.898 499.703 360.035 496.75 360.035C493.076 360.035 490.747 362.566 490.747 366.653C490.747 370.749 493.059 373.28 496.75 373.28ZM508.141 365.273C509.283 365.273 510.065 366.1 510.118 367.304L506.119 367.304C506.207 366.126 507.016 365.273 508.141 365.273ZM510.153 370.116C509.916 370.837 509.195 371.303 508.255 371.303C506.945 371.303 506.093 370.38 506.093 369.035L506.093 368.877L512.588 368.877L512.588 368.095C512.588 365.229 510.856 363.375 508.114 363.375C505.328 363.375 503.57 365.326 503.57 368.332C503.57 371.347 505.311 373.201 508.211 373.201C510.54 373.201 512.228 371.962 512.509 370.116L510.153 370.116ZM519.004 367.937L522.766 363.577L519.83 363.577L516.701 367.365L516.631 367.365L516.631 363.577L514.073 363.577L514.073 372.999L516.631 372.999L516.631 368.956L516.701 368.956L519.883 372.999L522.985 372.999L519.004 367.937ZM534.033 375.442L534.033 371.057L532.609 371.057L532.609 363.577L530.052 363.577L530.052 371.057L526.562 371.057L526.562 363.577L524.005 363.577L524.005 372.999L531.695 372.999L531.695 375.442L534.033 375.442ZM537.698 372.999L541.442 367.04L541.513 367.04L541.513 372.999L544.026 372.999L544.026 363.577L541.513 363.577L537.769 369.466L537.698 369.466L537.698 363.577L535.185 363.577L535.185 372.999L537.698 372.999ZM549.783 368.156C548.887 368.156 548.307 367.611 548.307 366.855C548.307 366.021 548.878 365.484 549.783 365.484L551.321 365.484L551.321 368.156L549.783 368.156ZM551.321 372.999L553.826 372.999L553.826 363.577L549.528 363.577C547.243 363.577 545.758 364.843 545.758 366.847C545.758 368.2 546.549 369.167 547.832 369.571L545.354 372.999L548.201 372.999L550.293 369.958L551.321 369.958L551.321 372.999ZM562.396 372.999L565.023 372.999L565.023 360.316L562.387 360.316L559.108 362.593L559.108 364.983L562.343 362.751L562.396 362.751L562.396 372.999Z" fill="#BEBEBE"/>
<g filter="url(#filter2_d)">
<rect x="358" y="349" width="74" height="10" transform="rotate(-180 358 349)" fill="#C4C4C4"/>
</g>
<g filter="url(#filter3_d)">
<rect x="179" y="349" width="15" height="10" transform="rotate(-180 179 349)" fill="#C4C4C4"/>
</g>
<g filter="url(#filter4_d)">
<path fill-rule="evenodd" clip-rule="evenodd" d="M531.687 206.999C542.56 206.999 551.375 198.184 551.375 187.311C551.375 176.438 542.56 167.624 531.687 167.624C520.814 167.624 512 176.438 512 187.311C512 198.184 520.814 206.999 531.687 206.999ZM531.687 201.749C539.661 201.749 546.125 195.285 546.125 187.312C546.125 179.338 539.661 172.874 531.687 172.874C523.714 172.874 517.25 179.338 517.25 187.312C517.25 195.285 523.714 201.749 531.687 201.749Z" fill="#BEBEBE"/>
<g filter="url(#filter5_d)">
<rect x="479" y="82.999" width="105" height="35" rx="3" fill="#640064"/>
</g>
<g filter="url(#filter6_i)">
<path d="M508.306 101.515C509.105 102.314 509.782 102.648 510.573 102.648C512.41 102.648 513.491 101.207 513.386 98.9219H511.391C511.355 99.9414 511.004 100.486 510.362 100.486C509.976 100.486 509.668 100.293 509.158 99.7744C508.358 98.9746 507.673 98.6318 506.873 98.6318C505.036 98.6318 503.946 100.073 504.052 102.358H506.056C506.091 101.33 506.434 100.794 507.075 100.794C507.471 100.794 507.787 100.987 508.306 101.515ZM522.184 106.999H524.812V94.3164H522.175L518.896 96.5928V98.9834L522.131 96.751H522.184V106.999ZM532.625 107.28C535.815 107.28 537.749 104.723 537.749 100.627C537.749 96.5312 535.798 94.0264 532.625 94.0264C529.452 94.0264 527.492 96.54 527.492 100.636C527.492 104.74 529.435 107.28 532.625 107.28ZM532.625 105.153C531.113 105.153 530.19 103.519 530.19 100.636C530.19 97.7793 531.131 96.1533 532.625 96.1533C534.128 96.1533 535.051 97.7705 535.051 100.636C535.051 103.527 534.137 105.153 532.625 105.153ZM544.341 101.937L548.103 97.5771H545.167L542.038 101.365H541.968V97.5771H539.41V106.999H541.968V102.956H542.038L545.22 106.999H548.322L544.341 101.937ZM555.178 106.999C557.885 106.999 559.563 105.602 559.563 103.369C559.563 101.69 558.298 100.434 556.575 100.302V100.231C557.92 100.029 558.957 98.8691 558.957 97.4805C558.957 95.5381 557.463 94.3164 555.081 94.3164H549.562V106.999H555.178ZM552.216 96.2939H554.396C555.635 96.2939 556.347 96.874 556.347 97.8936C556.347 98.9658 555.538 99.5898 554.123 99.5898H552.216V96.2939ZM552.216 105.021V101.339H554.439C556.004 101.339 556.856 101.972 556.856 103.158C556.856 104.371 556.03 105.021 554.501 105.021H552.216Z" fill="#141414"/>
</g>
<g filter="url(#filter7_d)">
<path d="M527 114.999H537V147.999H527V114.999Z" fill="#640064"/>
</g>
<path fill-rule="evenodd" clip-rule="evenodd" d="M531.687 183.374C542.56 183.374 551.375 174.559 551.375 163.686C551.375 152.813 542.56 143.999 531.687 143.999C520.814 143.999 512 152.813 512 163.686C512 174.559 520.814 183.374 531.687 183.374ZM531.687 178.124C539.661 178.124 546.125 171.66 546.125 163.687C546.125 155.713 539.661 149.249 531.687 149.249C523.714 149.249 517.25 155.713 517.25 163.687C517.25 171.66 523.714 178.124 531.687 178.124Z" fill="#640064"/>
</g>
<g filter="url(#filter8_d)">
<path d="M537 238.999L527 238.999L527 205.999L537 205.999L537 238.999Z" fill="#BEBEBE"/>
</g>
<g filter="url(#filter9_d)">
<rect x="284" y="362" width="105" height="35" rx="3" transform="rotate(-180 284 362)" fill="#C4C4C4"/>
<path d="M197.75 351.281C200.765 351.281 202.9 349.559 203.313 346.852H200.703C200.334 348.205 199.244 349.022 197.759 349.022C195.729 349.022 194.454 347.353 194.454 344.646C194.454 341.974 195.746 340.295 197.75 340.295C199.209 340.295 200.36 341.2 200.694 342.598H203.305C202.971 339.899 200.703 338.036 197.75 338.036C194.076 338.036 191.747 340.567 191.747 344.654C191.747 348.75 194.059 351.281 197.75 351.281ZM209.141 343.274C210.283 343.274 211.065 344.101 211.118 345.305H207.119C207.207 344.127 208.016 343.274 209.141 343.274ZM211.153 348.117C210.916 348.838 210.195 349.304 209.255 349.304C207.945 349.304 207.093 348.381 207.093 347.036V346.878H213.588V346.096C213.588 343.23 211.856 341.376 209.114 341.376C206.328 341.376 204.57 343.327 204.57 346.333C204.57 349.348 206.311 351.202 209.211 351.202C211.54 351.202 213.228 349.963 213.509 348.117H211.153ZM220.004 345.938L223.766 341.578H220.83L217.701 345.366H217.631V341.578H215.073V351H217.631V346.957H217.701L220.883 351H223.985L220.004 345.938ZM235.033 353.443V349.058H233.609V341.578H231.052V349.058H227.562V341.578H225.005V351H232.695V353.443H235.033ZM238.698 351L242.442 345.041H242.513V351H245.026V341.578H242.513L238.769 347.467H238.698V341.578H236.185V351H238.698ZM250.783 346.157C249.887 346.157 249.307 345.612 249.307 344.856C249.307 344.021 249.878 343.485 250.783 343.485H252.321V346.157H250.783ZM252.321 351H254.826V341.578H250.528C248.243 341.578 246.758 342.844 246.758 344.848C246.758 346.201 247.549 347.168 248.832 347.572L246.354 351H249.201L251.293 347.959H252.321V351ZM263.308 345.463H264.872C266.305 345.463 267.175 346.166 267.175 347.326C267.175 348.398 266.243 349.146 264.916 349.146C263.519 349.146 262.64 348.442 262.561 347.37H260.021C260.144 349.708 262.016 351.281 264.881 351.281C267.808 351.281 269.873 349.77 269.873 347.493C269.873 345.735 268.651 344.593 266.762 344.435V344.382C268.317 344.101 269.381 342.976 269.381 341.42C269.381 339.39 267.579 338.036 264.942 338.036C262.191 338.036 260.363 339.565 260.267 341.912H262.71C262.78 340.805 263.598 340.075 264.828 340.075C266.146 340.075 266.876 340.752 266.876 341.78C266.876 342.826 266.059 343.547 264.846 343.547H263.308V345.463Z" fill="#2F3235"/>
</g>
<path d="M196.414 375.515C197.214 376.314 197.891 376.648 198.682 376.648C200.519 376.648 201.6 375.207 201.494 372.922H199.499C199.464 373.941 199.112 374.486 198.471 374.486C198.084 374.486 197.776 374.293 197.267 373.774C196.467 372.975 195.781 372.632 194.981 372.632C193.145 372.632 192.055 374.073 192.16 376.358H194.164C194.199 375.33 194.542 374.794 195.184 374.794C195.579 374.794 195.896 374.987 196.414 375.515ZM212.085 381.28C215.275 381.28 217.209 378.723 217.209 374.627C217.209 370.531 215.258 368.026 212.085 368.026C208.912 368.026 206.952 370.54 206.952 374.636C206.952 378.74 208.895 381.28 212.085 381.28ZM212.085 379.153C210.573 379.153 209.65 377.519 209.65 374.636C209.65 371.779 210.591 370.153 212.085 370.153C213.588 370.153 214.511 371.771 214.511 374.636C214.511 377.527 213.597 379.153 212.085 379.153ZM220.013 381.104C220.795 381.104 221.428 380.472 221.428 379.689C221.428 378.898 220.795 378.274 220.013 378.274C219.222 378.274 218.598 378.898 218.598 379.689C218.598 380.472 219.222 381.104 220.013 381.104ZM229.637 380.999H232.159V378.74H233.812V376.613H232.159V368.316H228.415C225.813 372.148 224.434 374.372 223.326 376.481V378.74H229.637V380.999ZM225.655 376.622C226.684 374.636 227.791 372.904 229.637 370.197H229.689V376.692H225.655V376.622ZM240.219 375.937L243.98 371.577H241.045L237.916 375.365H237.846V371.577H235.288V380.999H237.846V376.956H237.916L241.098 380.999H244.2L240.219 375.937ZM251.056 380.999C253.763 380.999 255.441 379.602 255.441 377.369C255.441 375.69 254.176 374.434 252.453 374.302V374.231C253.798 374.029 254.835 372.869 254.835 371.48C254.835 369.538 253.341 368.316 250.959 368.316H245.439V380.999H251.056ZM248.094 370.294H250.273C251.513 370.294 252.225 370.874 252.225 371.894C252.225 372.966 251.416 373.59 250.001 373.59H248.094V370.294ZM248.094 379.021V375.339H250.317C251.882 375.339 252.734 375.972 252.734 377.158C252.734 378.371 251.908 379.021 250.379 379.021H248.094Z" fill="#BEBEBE"/>
<g filter="url(#filter10_d)">
<rect x="164" y="362" width="105" height="35" rx="3" transform="rotate(-180 164 362)" fill="#C4C4C4"/>
<path d="M77.75 351.281C75.9043 351.281 74.4424 350.689 73.3643 349.506C72.2861 348.316 71.7471 346.699 71.7471 344.654C71.7471 342.615 72.2861 341.004 73.3643 339.82C74.4482 338.631 75.9102 338.036 77.75 338.036C79.2266 338.036 80.4775 338.461 81.5029 339.311C82.5342 340.154 83.1348 341.25 83.3047 342.598H80.6943C80.5244 341.9 80.1729 341.344 79.6396 340.928C79.1064 340.506 78.4766 340.295 77.75 340.295C76.748 340.295 75.9482 340.688 75.3506 341.473C74.7529 342.258 74.4541 343.315 74.4541 344.646C74.4541 345.999 74.75 347.068 75.3418 347.854C75.9336 348.633 76.7393 349.022 77.7588 349.022C78.4971 349.022 79.124 348.832 79.6396 348.451C80.1611 348.064 80.5156 347.531 80.7031 346.852H83.3135C83.1084 348.211 82.5049 349.289 81.5029 350.086C80.5068 350.883 79.2559 351.281 77.75 351.281ZM89.1406 343.274C88.584 343.274 88.1182 343.465 87.7432 343.846C87.374 344.227 87.166 344.713 87.1191 345.305H91.1182C91.0889 344.701 90.8926 344.212 90.5293 343.837C90.1719 343.462 89.709 343.274 89.1406 343.274ZM91.1533 348.117H93.5088C93.3682 349.043 92.9053 349.79 92.1201 350.358C91.3408 350.921 90.3711 351.202 89.2109 351.202C87.7637 351.202 86.627 350.769 85.8008 349.901C84.9805 349.034 84.5703 347.845 84.5703 346.333C84.5703 344.827 84.9805 343.626 85.8008 342.729C86.6211 341.827 87.7256 341.376 89.1143 341.376C90.4795 341.376 91.5664 341.804 92.375 342.659C93.1836 343.515 93.5879 344.66 93.5879 346.096V346.878H87.0928V347.036C87.0928 347.71 87.2891 348.258 87.6816 348.68C88.0801 349.096 88.6045 349.304 89.2549 349.304C89.7236 349.304 90.1279 349.198 90.4678 348.987C90.8076 348.771 91.0361 348.48 91.1533 348.117ZM100.004 345.938L103.985 351H100.883L97.7012 346.957H97.6309V351H95.0732V341.578H97.6309V345.366H97.7012L100.83 341.578H103.766L100.004 345.938ZM115.033 353.443H112.695V351H105.005V341.578H107.562V349.058H111.052V341.578H113.609V349.058H115.033V353.443ZM118.698 351H116.185V341.578H118.698V347.467H118.769L122.513 341.578H125.026V351H122.513V345.041H122.442L118.698 351ZM130.783 346.157H132.321V343.485H130.783C130.332 343.485 129.972 343.611 129.702 343.863C129.438 344.109 129.307 344.44 129.307 344.856C129.307 345.237 129.441 345.551 129.711 345.797C129.98 346.037 130.338 346.157 130.783 346.157ZM132.321 351V347.959H131.293L129.201 351H126.354L128.832 347.572C128.182 347.367 127.672 347.03 127.303 346.562C126.939 346.087 126.758 345.516 126.758 344.848C126.758 343.846 127.098 343.052 127.777 342.466C128.463 341.874 129.38 341.578 130.528 341.578H134.826V351H132.321ZM143.396 351V340.752H143.343L140.108 342.984V340.594L143.387 338.317H146.023V351H143.396Z" fill="#2F3235"/>
</g>
<path d="M77.4141 375.515C78.2139 376.314 78.8906 376.648 79.6816 376.648C81.5186 376.648 82.5996 375.207 82.4941 372.922H80.499C80.4639 373.941 80.1123 374.486 79.4707 374.486C79.084 374.486 78.7764 374.293 78.2666 373.774C77.4668 372.975 76.7812 372.632 75.9814 372.632C74.1445 372.632 73.0547 374.073 73.1602 376.358H75.1641C75.1992 375.33 75.542 374.794 76.1836 374.794C76.5791 374.794 76.8955 374.987 77.4141 375.515ZM93.085 381.28C96.2754 381.28 98.209 378.723 98.209 374.627C98.209 370.531 96.2578 368.026 93.085 368.026C89.9121 368.026 87.9521 370.54 87.9521 374.636C87.9521 378.74 89.8945 381.28 93.085 381.28ZM93.085 379.153C91.5732 379.153 90.6504 377.519 90.6504 374.636C90.6504 371.779 91.5908 370.153 93.085 370.153C94.5879 370.153 95.5107 371.771 95.5107 374.636C95.5107 377.527 94.5967 379.153 93.085 379.153ZM101.013 381.104C101.795 381.104 102.428 380.472 102.428 379.689C102.428 378.898 101.795 378.274 101.013 378.274C100.222 378.274 99.5977 378.898 99.5977 379.689C99.5977 380.472 100.222 381.104 101.013 381.104ZM110.637 380.999H113.159V378.74H114.812V376.613H113.159V368.316H109.415C106.813 372.148 105.434 374.372 104.326 376.481V378.74H110.637V380.999ZM106.655 376.622C107.684 374.636 108.791 372.904 110.637 370.197H110.689V376.692H106.655V376.622ZM121.219 375.937L124.98 371.577H122.045L118.916 375.365H118.846V371.577H116.288V380.999H118.846V376.956H118.916L122.098 380.999H125.2L121.219 375.937ZM132.056 380.999C134.763 380.999 136.441 379.602 136.441 377.369C136.441 375.69 135.176 374.434 133.453 374.302V374.231C134.798 374.029 135.835 372.869 135.835 371.48C135.835 369.538 134.341 368.316 131.959 368.316H126.439V380.999H132.056ZM129.094 370.294H131.273C132.513 370.294 133.225 370.874 133.225 371.894C133.225 372.966 132.416 373.59 131.001 373.59H129.094V370.294ZM129.094 379.021V375.339H131.317C132.882 375.339 133.734 375.972 133.734 377.158C133.734 378.371 132.908 379.021 131.379 379.021H129.094Z" fill="#BEBEBE"/>
<path d="M1212.51 364.999L1212.51 356.544L1211.2 356.544L1211.2 364.999L1212.51 364.999ZM1214.46 364.999L1214.99 364.999L1214.99 361.476L1214.45 361.476L1213.52 362.135L1213.52 362.672L1214.45 362.018L1214.46 362.018L1214.46 364.999Z" fill="white"/>
<path d="M1212.21 377.999L1212.21 369.544L1210.9 369.544L1210.9 377.999L1212.21 377.999ZM1213.23 375.509L1213.23 375.514L1213.75 375.514L1213.75 375.506C1213.75 375.14 1214.04 374.862 1214.43 374.862C1214.79 374.862 1215.08 375.111 1215.08 375.423C1215.08 375.699 1214.96 375.885 1214.53 376.332L1213.26 377.628L1213.26 377.999L1215.67 377.999L1215.67 377.538L1214 377.538L1214 377.525L1214.88 376.639C1215.4 376.112 1215.61 375.807 1215.61 375.396C1215.61 374.837 1215.11 374.41 1214.44 374.41C1213.74 374.41 1213.23 374.874 1213.23 375.509Z" fill="white"/>
<path d="M1212.14 390.999L1212.14 382.544L1210.83 382.544L1210.83 390.999L1212.14 390.999ZM1213.96 389.405L1214.4 389.405C1214.87 389.405 1215.15 389.639 1215.15 390.02C1215.15 390.364 1214.85 390.608 1214.42 390.608C1213.97 390.608 1213.69 390.376 1213.66 390.04L1213.13 390.04C1213.17 390.647 1213.66 391.065 1214.42 391.065C1215.15 391.065 1215.71 390.643 1215.71 390.027C1215.71 389.534 1215.37 389.209 1214.84 389.173L1214.84 389.163C1215.28 389.085 1215.56 388.77 1215.56 388.331C1215.56 387.789 1215.08 387.41 1214.41 387.41C1213.71 387.41 1213.25 387.808 1213.21 388.426L1213.72 388.426C1213.75 388.079 1214.01 387.859 1214.39 387.859C1214.8 387.859 1215.03 388.077 1215.03 388.404C1215.03 388.736 1214.77 388.975 1214.39 388.975L1213.96 388.975L1213.96 389.405Z" fill="white"/>
<path d="M1212.51 443.999L1212.51 435.544L1211.2 435.544L1211.2 443.999L1212.51 443.999ZM1214.46 443.999L1214.99 443.999L1214.99 440.476L1214.45 440.476L1213.52 441.135L1213.52 441.672L1214.45 441.018L1214.46 441.018L1214.46 443.999Z" fill="white"/>
<path d="M1212.21 456.999L1212.21 448.544L1210.9 448.544L1210.9 456.999L1212.21 456.999ZM1213.23 454.509L1213.23 454.514L1213.75 454.514L1213.75 454.506C1213.75 454.14 1214.04 453.862 1214.43 453.862C1214.79 453.862 1215.08 454.111 1215.08 454.423C1215.08 454.699 1214.96 454.885 1214.53 455.332L1213.26 456.628L1213.26 456.999L1215.67 456.999L1215.67 456.538L1214 456.538L1214 456.525L1214.88 455.639C1215.4 455.112 1215.61 454.807 1215.61 454.396C1215.61 453.837 1215.11 453.41 1214.44 453.41C1213.74 453.41 1213.23 453.874 1213.23 454.509Z" fill="white"/>
<path d="M1212.14 469.999L1212.14 461.544L1210.83 461.544L1210.83 469.999L1212.14 469.999ZM1213.96 468.405L1214.4 468.405C1214.87 468.405 1215.15 468.639 1215.15 469.02C1215.15 469.364 1214.85 469.608 1214.42 469.608C1213.97 469.608 1213.69 469.376 1213.66 469.04L1213.13 469.04C1213.17 469.647 1213.66 470.065 1214.42 470.065C1215.15 470.065 1215.71 469.643 1215.71 469.027C1215.71 468.534 1215.37 468.209 1214.84 468.173L1214.84 468.163C1215.28 468.085 1215.56 467.77 1215.56 467.331C1215.56 466.789 1215.08 466.41 1214.41 466.41C1213.71 466.41 1213.25 466.808 1213.21 467.426L1213.72 467.426C1213.75 467.079 1214.01 466.859 1214.39 466.859C1214.8 466.859 1215.03 467.077 1215.03 467.404C1215.03 467.736 1214.77 467.975 1214.39 467.975L1213.96 467.975L1213.96 468.405Z" fill="white"/>
<rect x="602" y="486" width="10" height="137" transform="rotate(-180 602 486)" fill="#C4C4C4"/>
<defs>
<filter id="filter0_d" x="588" y="475.999" width="610" height="18.0001" filterUnits="userSpaceOnUse" color-interpolation-filters="sRGB">
<feFlood flood-opacity="0" result="BackgroundImageFix"/>
<feColorMatrix in="SourceAlpha" type="matrix" values="0 0 0 0 0 0 0 0 0 0 0 0 0 0 0 0 0 0 127 0"/>
<feOffset dy="4"/>
<feGaussianBlur stdDeviation="2"/>
<feColorMatrix type="matrix" values="0 0 0 0 0 0 0 0 0 0 0 0 0 0 0 0 0 0 0.25 0"/>
<feBlend mode="normal" in2="BackgroundImageFix" result="effect1_dropShadow"/>
<feBlend mode="normal" in="SourceGraphic" in2="effect1_dropShadow" result="shape"/>
</filter>
<filter id="filter1_d" x="454" y="339" width="744" height="18.0001" filterUnits="userSpaceOnUse" color-interpolation-filters="sRGB">
<feFlood flood-opacity="0" result="BackgroundImageFix"/>
<feColorMatrix in="SourceAlpha" type="matrix" values="0 0 0 0 0 0 0 0 0 0 0 0 0 0 0 0 0 0 127 0"/>
<feOffset dy="4"/>
<feGaussianBlur stdDeviation="2"/>
<feColorMatrix type="matrix" values="0 0 0 0 0 0 0 0 0 0 0 0 0 0 0 0 0 0 0.25 0"/>
<feBlend mode="normal" in2="BackgroundImageFix" result="effect1_dropShadow"/>
<feBlend mode="normal" in="SourceGraphic" in2="effect1_dropShadow" result="shape"/>
</filter>
<filter id="filter2_d" x="280" y="339" width="82" height="18" filterUnits="userSpaceOnUse" color-interpolation-filters="sRGB">
<feFlood flood-opacity="0" result="BackgroundImageFix"/>
<feColorMatrix in="SourceAlpha" type="matrix" values="0 0 0 0 0 0 0 0 0 0 0 0 0 0 0 0 0 0 127 0"/>
<feOffset dy="4"/>
<feGaussianBlur stdDeviation="2"/>
<feColorMatrix type="matrix" values="0 0 0 0 0 0 0 0 0 0 0 0 0 0 0 0 0 0 0.25 0"/>
<feBlend mode="normal" in2="BackgroundImageFix" result="effect1_dropShadow"/>
<feBlend mode="normal" in="SourceGraphic" in2="effect1_dropShadow" result="shape"/>
</filter>
<filter id="filter3_d" x="160" y="339" width="23" height="18" filterUnits="userSpaceOnUse" color-interpolation-filters="sRGB">
<feFlood flood-opacity="0" result="BackgroundImageFix"/>
<feColorMatrix in="SourceAlpha" type="matrix" values="0 0 0 0 0 0 0 0 0 0 0 0 0 0 0 0 0 0 127 0"/>
<feOffset dy="4"/>
<feGaussianBlur stdDeviation="2"/>
<feColorMatrix type="matrix" values="0 0 0 0 0 0 0 0 0 0 0 0 0 0 0 0 0 0 0.25 0"/>
<feBlend mode="normal" in2="BackgroundImageFix" result="effect1_dropShadow"/>
<feBlend mode="normal" in="SourceGraphic" in2="effect1_dropShadow" result="shape"/>
</filter>
<filter id="filter4_d" x="475" y="82.999" width="113" height="132" filterUnits="userSpaceOnUse" color-interpolation-filters="sRGB">
<feFlood flood-opacity="0" result="BackgroundImageFix"/>
<feColorMatrix in="SourceAlpha" type="matrix" values="0 0 0 0 0 0 0 0 0 0 0 0 0 0 0 0 0 0 127 0"/>
<feOffset dy="4"/>
<feGaussianBlur stdDeviation="2"/>
<feColorMatrix type="matrix" values="0 0 0 0 0 0 0 0 0 0 0 0 0 0 0 0 0 0 0.25 0"/>
<feBlend mode="normal" in2="BackgroundImageFix" result="effect1_dropShadow"/>
<feBlend mode="normal" in="SourceGraphic" in2="effect1_dropShadow" result="shape"/>
</filter>
<filter id="filter5_d" x="475" y="82.999" width="113" height="43" filterUnits="userSpaceOnUse" color-interpolation-filters="sRGB">
<feFlood flood-opacity="0" result="BackgroundImageFix"/>
<feColorMatrix in="SourceAlpha" type="matrix" values="0 0 0 0 0 0 0 0 0 0 0 0 0 0 0 0 0 0 127 0"/>
<feOffset dy="4"/>
<feGaussianBlur stdDeviation="2"/>
<feColorMatrix type="matrix" values="0 0 0 0 0 0 0 0 0 0 0 0 0 0 0 0 0 0 0.25 0"/>
<feBlend mode="normal" in2="BackgroundImageFix" result="effect1_dropShadow"/>
<feBlend mode="normal" in="SourceGraphic" in2="effect1_dropShadow" result="shape"/>
</filter>
<filter id="filter6_i" x="504.045" y="94.0264" width="55.5187" height="17.2539" filterUnits="userSpaceOnUse" color-interpolation-filters="sRGB">
<feFlood flood-opacity="0" result="BackgroundImageFix"/>
<feBlend mode="normal" in="SourceGraphic" in2="BackgroundImageFix" result="shape"/>
<feColorMatrix in="SourceAlpha" type="matrix" values="0 0 0 0 0 0 0 0 0 0 0 0 0 0 0 0 0 0 127 0" result="hardAlpha"/>
<feOffset dy="4"/>
<feGaussianBlur stdDeviation="2"/>
<feComposite in2="hardAlpha" operator="arithmetic" k2="-1" k3="1"/>
<feColorMatrix type="matrix" values="0 0 0 0 0 0 0 0 0 0 0 0 0 0 0 0 0 0 0.25 0"/>
<feBlend mode="normal" in2="shape" result="effect1_innerShadow"/>
</filter>
<filter id="filter7_d" x="523" y="114.999" width="18" height="41" filterUnits="userSpaceOnUse" color-interpolation-filters="sRGB">
<feFlood flood-opacity="0" result="BackgroundImageFix"/>
<feColorMatrix in="SourceAlpha" type="matrix" values="0 0 0 0 0 0 0 0 0 0 0 0 0 0 0 0 0 0 127 0"/>
<feOffset dy="4"/>
<feGaussianBlur stdDeviation="2"/>
<feColorMatrix type="matrix" values="0 0 0 0 0 0 0 0 0 0 0 0 0 0 0 0 0 0 0.25 0"/>
<feBlend mode="normal" in2="BackgroundImageFix" result="effect1_dropShadow"/>
<feBlend mode="normal" in="SourceGraphic" in2="effect1_dropShadow" result="shape"/>
</filter>
<filter id="filter8_d" x="523" y="205.999" width="18" height="41" filterUnits="userSpaceOnUse" color-interpolation-filters="sRGB">
<feFlood flood-opacity="0" result="BackgroundImageFix"/>
<feColorMatrix in="SourceAlpha" type="matrix" values="0 0 0 0 0 0 0 0 0 0 0 0 0 0 0 0 0 0 127 0"/>
<feOffset dy="4"/>
<feGaussianBlur stdDeviation="2"/>
<feColorMatrix type="matrix" values="0 0 0 0 0 0 0 0 0 0 0 0 0 0 0 0 0 0 0.25 0"/>
<feBlend mode="normal" in2="BackgroundImageFix" result="effect1_dropShadow"/>
<feBlend mode="normal" in="SourceGraphic" in2="effect1_dropShadow" result="shape"/>
</filter>
<filter id="filter9_d" x="175" y="327" width="113" height="43" filterUnits="userSpaceOnUse" color-interpolation-filters="sRGB">
<feFlood flood-opacity="0" result="BackgroundImageFix"/>
<feColorMatrix in="SourceAlpha" type="matrix" values="0 0 0 0 0 0 0 0 0 0 0 0 0 0 0 0 0 0 127 0"/>
<feOffset dy="4"/>
<feGaussianBlur stdDeviation="2"/>
<feColorMatrix type="matrix" values="0 0 0 0 0 0 0 0 0 0 0 0 0 0 0 0 0 0 0.25 0"/>
<feBlend mode="normal" in2="BackgroundImageFix" result="effect1_dropShadow"/>
<feBlend mode="normal" in="SourceGraphic" in2="effect1_dropShadow" result="shape"/>
</filter>
<filter id="filter10_d" x="55" y="327" width="113" height="43" filterUnits="userSpaceOnUse" color-interpolation-filters="sRGB">
<feFlood flood-opacity="0" result="BackgroundImageFix"/>
<feColorMatrix in="SourceAlpha" type="matrix" values="0 0 0 0 0 0 0 0 0 0 0 0 0 0 0 0 0 0 127 0"/>
<feOffset dy="4"/>
<feGaussianBlur stdDeviation="2"/>
<feColorMatrix type="matrix" values="0 0 0 0 0 0 0 0 0 0 0 0 0 0 0 0 0 0 0.25 0"/>
<feBlend mode="normal" in2="BackgroundImageFix" result="effect1_dropShadow"/>
<feBlend mode="normal" in="SourceGraphic" in2="effect1_dropShadow" result="shape"/>
</filter>
</defs>
</svg>
