<svg width="1280" height="758" viewBox="0 0 1280 758" fill="none" xmlns="http://www.w3.org/2000/svg">
<path d="M325 157H65C62.2386 157 60 159.239 60 162V427C60 429.761 62.2386 432 65 432H325C327.761 432 330 429.761 330 427V162C330 159.239 327.761 157 325 157Z" fill="#3396FF"/>
<path d="M315 167H76C73.2386 167 71 169.239 71 172V361C71 363.761 73.2386 366 76 366H315C317.761 366 320 363.761 320 361V172C320 169.239 317.761 167 315 167Z" fill="#2F3235"/>
<path d="M305 180H109C106.239 180 104 182.239 104 185V349C104 351.761 106.239 354 109 354H305C307.761 354 310 351.761 310 349V185C310 182.239 307.761 180 305 180Z" fill="black"/>
<path d="M81.4941 380.203V388.904C81.4883 390.111 81.1074 391.099 80.3516 391.866C79.6016 392.634 78.582 393.064 77.293 393.158L76.8447 393.176C75.4443 393.176 74.3281 392.798 73.4961 392.042C72.6641 391.286 72.2422 390.246 72.2305 388.922V380.203H73.9004V388.869C73.9004 389.795 74.1553 390.516 74.665 391.031C75.1748 391.541 75.9014 391.796 76.8447 391.796C77.7998 391.796 78.5293 391.541 79.0332 391.031C79.543 390.521 79.7979 389.804 79.7979 388.878V380.203H81.4941ZM86.3369 380.203L90.5205 390.645L94.7041 380.203H96.8926V393H95.2051V388.017L95.3633 382.638L91.1621 393H89.8701L85.6777 382.664L85.8447 388.017V393H84.1572V380.203H86.3369ZM109.32 391.321C108.887 391.942 108.28 392.408 107.501 392.719C106.727 393.023 105.825 393.176 104.794 393.176C103.751 393.176 102.825 392.933 102.017 392.446C101.208 391.954 100.581 391.257 100.136 390.354C99.6963 389.452 99.4707 388.406 99.459 387.217V386.101C99.459 384.173 99.9072 382.679 100.804 381.618C101.706 380.558 102.972 380.027 104.601 380.027C105.936 380.027 107.012 380.37 107.826 381.056C108.641 381.735 109.139 382.702 109.32 383.956H107.633C107.316 382.263 106.309 381.416 104.609 381.416C103.478 381.416 102.62 381.814 102.034 382.611C101.454 383.402 101.161 384.551 101.155 386.057V387.103C101.155 388.538 101.483 389.681 102.14 390.53C102.796 391.374 103.684 391.796 104.803 391.796C105.435 391.796 105.989 391.726 106.464 391.585C106.938 391.444 107.331 391.207 107.642 390.873V387.999H104.68V386.628H109.32V391.321ZM122.416 387.375C122.076 387.779 121.669 388.104 121.194 388.351C120.726 388.597 120.21 388.72 119.647 388.72C118.909 388.72 118.265 388.538 117.714 388.175C117.169 387.812 116.747 387.302 116.448 386.646C116.149 385.983 116 385.254 116 384.457C116 383.602 116.161 382.831 116.483 382.146C116.811 381.46 117.274 380.936 117.872 380.572C118.47 380.209 119.167 380.027 119.964 380.027C121.229 380.027 122.226 380.502 122.952 381.451C123.685 382.395 124.051 383.684 124.051 385.318V385.793C124.051 388.283 123.559 390.103 122.574 391.251C121.59 392.394 120.104 392.979 118.118 393.009H117.802V391.638H118.144C119.486 391.614 120.518 391.266 121.238 390.592C121.959 389.912 122.352 388.84 122.416 387.375ZM119.911 387.375C120.456 387.375 120.957 387.208 121.414 386.874C121.877 386.54 122.214 386.127 122.425 385.635V384.984C122.425 383.918 122.193 383.051 121.73 382.383C121.268 381.715 120.682 381.381 119.973 381.381C119.258 381.381 118.684 381.656 118.25 382.207C117.816 382.752 117.6 383.473 117.6 384.369C117.6 385.242 117.808 385.963 118.224 386.531C118.645 387.094 119.208 387.375 119.911 387.375ZM132.673 380.194V381.574H132.374C131.108 381.598 130.101 381.973 129.351 382.699C128.601 383.426 128.167 384.448 128.05 385.767C128.724 384.993 129.644 384.606 130.81 384.606C131.923 384.606 132.81 384.999 133.473 385.784C134.141 386.569 134.475 387.583 134.475 388.825C134.475 390.144 134.114 391.198 133.394 391.989C132.679 392.78 131.718 393.176 130.511 393.176C129.286 393.176 128.293 392.707 127.531 391.77C126.769 390.826 126.389 389.613 126.389 388.131V387.507C126.389 385.151 126.89 383.353 127.892 382.11C128.899 380.862 130.396 380.224 132.383 380.194H132.673ZM130.537 385.96C129.98 385.96 129.468 386.127 128.999 386.461C128.53 386.795 128.205 387.214 128.023 387.718V388.315C128.023 389.37 128.261 390.22 128.735 390.864C129.21 391.509 129.802 391.831 130.511 391.831C131.243 391.831 131.817 391.562 132.233 391.022C132.655 390.483 132.866 389.777 132.866 388.904C132.866 388.025 132.652 387.316 132.225 386.777C131.803 386.232 131.24 385.96 130.537 385.96ZM145.979 387.823H142.974V393H141.277V380.203H145.514C146.955 380.203 148.062 380.531 148.836 381.188C149.615 381.844 150.005 382.799 150.005 384.053C150.005 384.85 149.788 385.544 149.354 386.136C148.927 386.728 148.329 387.17 147.561 387.463L150.567 392.895V393H148.757L145.979 387.823ZM142.974 386.443H145.566C146.404 386.443 147.069 386.227 147.561 385.793C148.06 385.359 148.309 384.779 148.309 384.053C148.309 383.262 148.071 382.655 147.597 382.233C147.128 381.812 146.448 381.598 145.558 381.592H142.974V386.443ZM154.558 380.203L158.741 390.645L162.925 380.203H165.113V393H163.426V388.017L163.584 382.638L159.383 393H158.091L153.898 382.664L154.065 388.017V393H152.378V380.203H154.558Z" fill="white"/>
<path d="M82.1816 219.62H88.2461V221H80.4854V208.203H82.1816V219.62ZM95.0928 221H93.458V210.163L90.1797 211.367V209.891L94.8379 208.142H95.0928V221Z" fill="#C4C4C4"/>
<path d="M82.1816 269.62H88.2461V271H80.4854V258.203H82.1816V269.62ZM98.1338 271H89.749V269.831L94.1787 264.909C94.835 264.165 95.2861 263.562 95.5322 263.099C95.7842 262.63 95.9102 262.146 95.9102 261.648C95.9102 260.98 95.708 260.433 95.3037 260.005C94.8994 259.577 94.3604 259.363 93.6865 259.363C92.8779 259.363 92.248 259.595 91.7969 260.058C91.3516 260.515 91.1289 261.153 91.1289 261.974H89.5029C89.5029 260.796 89.8809 259.844 90.6367 259.117C91.3984 258.391 92.415 258.027 93.6865 258.027C94.876 258.027 95.8164 258.341 96.5078 258.968C97.1992 259.589 97.5449 260.418 97.5449 261.455C97.5449 262.715 96.7422 264.215 95.1367 265.955L91.709 269.673H98.1338V271Z" fill="#C4C4C4"/>
<path d="M82.1816 319.62H88.2461V321H80.4854V308.203H82.1816V319.62ZM92.1133 313.811H93.335C94.1025 313.799 94.7061 313.597 95.1455 313.204C95.585 312.812 95.8047 312.281 95.8047 311.613C95.8047 310.113 95.0576 309.363 93.5635 309.363C92.8604 309.363 92.2979 309.565 91.876 309.97C91.46 310.368 91.252 310.898 91.252 311.561H89.626C89.626 310.547 89.9951 309.706 90.7334 309.038C91.4775 308.364 92.4209 308.027 93.5635 308.027C94.7705 308.027 95.7168 308.347 96.4023 308.985C97.0879 309.624 97.4307 310.512 97.4307 311.648C97.4307 312.205 97.249 312.744 96.8857 313.266C96.5283 313.787 96.0391 314.177 95.418 314.435C96.1211 314.657 96.6631 315.026 97.0439 315.542C97.4307 316.058 97.624 316.688 97.624 317.432C97.624 318.58 97.249 319.491 96.499 320.165C95.749 320.839 94.7734 321.176 93.5723 321.176C92.3711 321.176 91.3926 320.851 90.6367 320.2C89.8867 319.55 89.5117 318.691 89.5117 317.625H91.1465C91.1465 318.299 91.3662 318.838 91.8057 319.242C92.2451 319.646 92.834 319.849 93.5723 319.849C94.3574 319.849 94.958 319.644 95.374 319.233C95.79 318.823 95.998 318.234 95.998 317.467C95.998 316.723 95.7695 316.151 95.3125 315.753C94.8555 315.354 94.1963 315.149 93.335 315.138H92.1133V313.811Z" fill="#C4C4C4"/>
<path d="M238.52 420.994V424H236.762V415.469H240.09C240.73 415.469 241.293 415.586 241.777 415.82C242.266 416.055 242.641 416.389 242.902 416.822C243.164 417.252 243.295 417.742 243.295 418.293C243.295 419.129 243.008 419.789 242.434 420.273C241.863 420.754 241.072 420.994 240.061 420.994H238.52ZM238.52 419.57H240.09C240.555 419.57 240.908 419.461 241.15 419.242C241.396 419.023 241.52 418.711 241.52 418.305C241.52 417.887 241.396 417.549 241.15 417.291C240.904 417.033 240.564 416.9 240.131 416.893H238.52V419.57ZM244.051 420.771C244.051 420.143 244.172 419.582 244.414 419.09C244.656 418.598 245.004 418.217 245.457 417.947C245.914 417.678 246.443 417.543 247.045 417.543C247.9 417.543 248.598 417.805 249.137 418.328C249.68 418.852 249.982 419.562 250.045 420.461L250.057 420.895C250.057 421.867 249.785 422.648 249.242 423.238C248.699 423.824 247.971 424.117 247.057 424.117C246.143 424.117 245.412 423.824 244.865 423.238C244.322 422.652 244.051 421.855 244.051 420.848V420.771ZM245.744 420.895C245.744 421.496 245.857 421.957 246.084 422.277C246.311 422.594 246.635 422.752 247.057 422.752C247.467 422.752 247.787 422.596 248.018 422.283C248.248 421.967 248.363 421.463 248.363 420.771C248.363 420.182 248.248 419.725 248.018 419.4C247.787 419.076 247.463 418.914 247.045 418.914C246.631 418.914 246.311 419.076 246.084 419.4C245.857 419.721 245.744 420.219 245.744 420.895ZM256.613 421.697L257.445 417.66H259.08L257.463 424H256.045L254.844 420.01L253.643 424H252.23L250.613 417.66H252.248L253.074 421.691L254.234 417.66H255.459L256.613 421.697ZM262.842 424.117C261.912 424.117 261.154 423.832 260.568 423.262C259.986 422.691 259.695 421.932 259.695 420.982V420.818C259.695 420.182 259.818 419.613 260.064 419.113C260.311 418.609 260.658 418.223 261.107 417.953C261.561 417.68 262.076 417.543 262.654 417.543C263.521 417.543 264.203 417.816 264.699 418.363C265.199 418.91 265.449 419.686 265.449 420.689V421.381H261.412C261.467 421.795 261.631 422.127 261.904 422.377C262.182 422.627 262.531 422.752 262.953 422.752C263.605 422.752 264.115 422.516 264.482 422.043L265.314 422.975C265.061 423.334 264.717 423.615 264.283 423.818C263.85 424.018 263.369 424.117 262.842 424.117ZM262.648 418.914C262.312 418.914 262.039 419.027 261.828 419.254C261.621 419.48 261.488 419.805 261.43 420.227H263.785V420.092C263.777 419.717 263.676 419.428 263.48 419.225C263.285 419.018 263.008 418.914 262.648 418.914ZM269.979 419.248C269.748 419.217 269.545 419.201 269.369 419.201C268.729 419.201 268.309 419.418 268.109 419.852V424H266.416V417.66H268.016L268.062 418.416C268.402 417.834 268.873 417.543 269.475 417.543C269.662 417.543 269.838 417.568 270.002 417.619L269.979 419.248ZM278.715 422.242H275.633L275.047 424H273.178L276.354 415.469H277.982L281.176 424H279.307L278.715 422.242ZM276.107 420.818H278.24L277.168 417.625L276.107 420.818ZM283.139 417.66L283.191 418.393C283.645 417.826 284.252 417.543 285.014 417.543C285.686 417.543 286.186 417.74 286.514 418.135C286.842 418.529 287.01 419.119 287.018 419.904V424H285.324V419.945C285.324 419.586 285.246 419.326 285.09 419.166C284.934 419.002 284.674 418.92 284.311 418.92C283.834 418.92 283.477 419.123 283.238 419.529V424H281.545V417.66H283.139ZM291.98 424C291.902 423.848 291.846 423.658 291.811 423.432C291.4 423.889 290.867 424.117 290.211 424.117C289.59 424.117 289.074 423.938 288.664 423.578C288.258 423.219 288.055 422.766 288.055 422.219C288.055 421.547 288.303 421.031 288.799 420.672C289.299 420.312 290.02 420.131 290.961 420.127H291.74V419.764C291.74 419.471 291.664 419.236 291.512 419.061C291.363 418.885 291.127 418.797 290.803 418.797C290.518 418.797 290.293 418.865 290.129 419.002C289.969 419.139 289.889 419.326 289.889 419.564H288.195C288.195 419.197 288.309 418.857 288.535 418.545C288.762 418.232 289.082 417.988 289.496 417.812C289.91 417.633 290.375 417.543 290.891 417.543C291.672 417.543 292.291 417.74 292.748 418.135C293.209 418.525 293.439 419.076 293.439 419.787V422.535C293.443 423.137 293.527 423.592 293.691 423.9V424H291.98ZM290.58 422.822C290.83 422.822 291.061 422.768 291.271 422.658C291.482 422.545 291.639 422.395 291.74 422.207V421.117H291.107C290.26 421.117 289.809 421.41 289.754 421.996L289.748 422.096C289.748 422.307 289.822 422.48 289.971 422.617C290.119 422.754 290.322 422.822 290.58 422.822ZM296.527 424H294.828V415H296.527V424ZM300.295 421.604L301.467 417.66H303.283L300.734 424.984L300.594 425.318C300.215 426.146 299.59 426.561 298.719 426.561C298.473 426.561 298.223 426.523 297.969 426.449V425.166L298.227 425.172C298.547 425.172 298.785 425.123 298.941 425.025C299.102 424.928 299.227 424.766 299.316 424.539L299.516 424.018L297.295 417.66H299.117L300.295 421.604ZM307.385 422.248C307.385 422.041 307.281 421.879 307.074 421.762C306.871 421.641 306.543 421.533 306.09 421.439C304.582 421.123 303.828 420.482 303.828 419.518C303.828 418.955 304.061 418.486 304.525 418.111C304.994 417.732 305.605 417.543 306.359 417.543C307.164 417.543 307.807 417.732 308.287 418.111C308.771 418.49 309.014 418.982 309.014 419.588H307.32C307.32 419.346 307.242 419.146 307.086 418.99C306.93 418.83 306.686 418.75 306.354 418.75C306.068 418.75 305.848 418.814 305.691 418.943C305.535 419.072 305.457 419.236 305.457 419.436C305.457 419.623 305.545 419.775 305.721 419.893C305.9 420.006 306.201 420.105 306.623 420.191C307.045 420.273 307.4 420.367 307.689 420.473C308.584 420.801 309.031 421.369 309.031 422.178C309.031 422.756 308.783 423.225 308.287 423.584C307.791 423.939 307.15 424.117 306.365 424.117C305.834 424.117 305.361 424.023 304.947 423.836C304.537 423.645 304.215 423.385 303.98 423.057C303.746 422.725 303.629 422.367 303.629 421.984H305.234C305.25 422.285 305.361 422.516 305.568 422.676C305.775 422.836 306.053 422.916 306.4 422.916C306.725 422.916 306.969 422.855 307.133 422.734C307.301 422.609 307.385 422.447 307.385 422.248ZM313.045 424.117C312.115 424.117 311.357 423.832 310.771 423.262C310.189 422.691 309.898 421.932 309.898 420.982V420.818C309.898 420.182 310.021 419.613 310.268 419.113C310.514 418.609 310.861 418.223 311.311 417.953C311.764 417.68 312.279 417.543 312.857 417.543C313.725 417.543 314.406 417.816 314.902 418.363C315.402 418.91 315.652 419.686 315.652 420.689V421.381H311.615C311.67 421.795 311.834 422.127 312.107 422.377C312.385 422.627 312.734 422.752 313.156 422.752C313.809 422.752 314.318 422.516 314.686 422.043L315.518 422.975C315.264 423.334 314.92 423.615 314.486 423.818C314.053 424.018 313.572 424.117 313.045 424.117ZM312.852 418.914C312.516 418.914 312.242 419.027 312.031 419.254C311.824 419.48 311.691 419.805 311.633 420.227H313.988V420.092C313.98 419.717 313.879 419.428 313.684 419.225C313.488 419.018 313.211 418.914 312.852 418.914ZM320.182 419.248C319.951 419.217 319.748 419.201 319.572 419.201C318.932 419.201 318.512 419.418 318.312 419.852V424H316.619V417.66H318.219L318.266 418.416C318.605 417.834 319.076 417.543 319.678 417.543C319.865 417.543 320.041 417.568 320.205 417.619L320.182 419.248Z" fill="white"/>
<rect x="58" y="437" width="2" height="284" fill="#C4C4C4"/>
<rect x="332" y="157" width="2" height="280" fill="#C4C4C4"/>
<rect x="1240" y="157" width="2" height="564" fill="#C4C4C4"/>
<rect x="1242" y="721" width="2.00005" height="1184" transform="rotate(90 1242 721)" fill="#C4C4C4"/>
<rect x="334" y="435" width="2.00001" height="276" transform="rotate(90 334 435)" fill="#C4C4C4"/>
<rect x="1240" y="157" width="2.00004" height="908" transform="rotate(90 1240 157)" fill="#C4C4C4"/>
<path d="M299.309 242.188H303.498L297.762 280H292.584L286.289 242.188H290.521L293.035 258.193L295.184 272.266H295.27L297.139 258.193L299.309 242.188Z" fill="#FF9500"/>
</svg>
