<svg width="31" height="41" viewBox="0 0 31 41" fill="none" xmlns="http://www.w3.org/2000/svg">
<g class="fault inactive" reference="ON">
<g class="animation-display">
<path fill-rule="evenodd" clip-rule="evenodd" d="M9.03311 7.3417C7.71921 7.69637 7.71921 9.68253 8.90993 10.1436H8.29404C7.02119 10.1436 6.56954 11.4913 7.02119 12.378C6.48742 15.0735 5.05033 17.0952 3.57219 19.0813C1.76556 21.5995 0 24.0467 0 27.6289C0 31.3175 1.76556 34.6869 4.55762 37.0986C7.34967 39.5104 11.2093 41 15.4795 41C19.7907 41 23.6503 39.5104 26.4424 37.0986C29.2344 34.6869 31 31.3175 31 27.6289C31 23.7275 29.1934 21.3512 27.3457 18.9394C25.9497 17.0597 24.4715 15.109 23.9788 12.378C24.4305 11.4913 23.9788 10.1436 22.706 10.1436H22.0901C23.2808 9.68253 23.2808 7.69637 21.9669 7.3417C23.3219 6.98702 23.3219 4.859 21.9669 4.46886C23.445 4.07872 23.3219 1.56055 21.5563 1.56055H21.3099C21.3099 1.20588 20.5709 0.922145 19.4212 0.780277C18.7642 0.709343 17.9841 0.638408 17.0808 0.602941V0.567474C17.0808 0.24827 16.3828 0 15.4795 0C14.6172 0 13.9192 0.24827 13.9192 0.567474V0.602941C13.0159 0.638408 12.2358 0.709343 11.5788 0.780277C10.4291 0.922145 9.69007 1.20588 9.69007 1.56055H9.44371C7.67815 1.56055 7.55497 4.07872 9.03311 4.46886C7.67815 4.859 7.67815 6.98702 9.03311 7.3417ZM16.9166 14.045C18.4768 14.0805 20.0781 14.1514 21.9669 14.2578C22.5417 16.776 23.8967 18.5493 25.2106 20.3227C26.8119 22.4152 28.3311 24.4369 28.3311 27.6998C28.3311 30.75 26.894 33.5519 24.5536 35.5735C22.2132 37.5597 19.0106 38.8365 15.4384 38.8365C11.8662 38.8365 8.66358 37.5597 6.32318 35.5735C3.98278 33.5519 2.5457 30.75 2.5457 27.6998C2.5457 24.7206 4.0649 22.5926 5.62517 20.4291C6.98013 18.6202 8.29404 16.7405 8.90993 14.2578C10.7987 14.1514 12.4 14.0805 13.9603 14.045C13.8781 16.7405 13.6318 19.2587 13.1391 21.6704C12.6874 24.0467 11.4146 27.1678 11.1682 28.4446C10.8808 29.686 10.8808 29.4023 11.7841 28.6929C12.6874 27.9836 14.3298 25.891 15.4384 25.891C16.8344 25.891 18.2715 27.9481 19.0517 28.6574C19.7907 29.3668 19.955 29.8279 19.7907 28.4092C19.6265 27.026 18.2305 24.0467 17.7377 21.6704C17.2861 19.2587 16.9987 16.7405 16.9166 14.045Z" />
</g>
</g>

</svg>
