<svg width="153" height="69" viewBox="0 0 153 69" fill="none" xmlns="http://www.w3.org/2000/svg">
<g id="Screen Mirroring">
<g id="Background">
<path fill-rule="evenodd" clip-rule="evenodd" d="M0 28.8C0 18.7191 0 13.6786 1.96188 9.82817C3.6876 6.44125 6.44125 3.6876 9.82817 1.96188C13.6786 0 18.7191 0 28.8 0H124.2C134.281 0 139.321 0 143.172 1.96188C146.559 3.6876 149.312 6.44125 151.038 9.82817C153 13.6786 153 18.7191 153 28.8V40.2C153 50.2809 153 55.3214 151.038 59.1718C149.312 62.5587 146.559 65.3124 143.172 67.0381C139.321 69 134.281 69 124.2 69H28.8C18.7191 69 13.6786 69 9.82817 67.0381C6.44125 65.3124 3.6876 62.5587 1.96188 59.1718C0 55.3214 0 50.2809 0 40.2V28.8Z" fill="black" fill-opacity="0.6" style="mix-blend-mode:soft-light"/>
<path fill-rule="evenodd" clip-rule="evenodd" d="M0 28.8C0 18.7191 0 13.6786 1.96188 9.82817C3.6876 6.44125 6.44125 3.6876 9.82817 1.96188C13.6786 0 18.7191 0 28.8 0H124.2C134.281 0 139.321 0 143.172 1.96188C146.559 3.6876 149.312 6.44125 151.038 9.82817C153 13.6786 153 18.7191 153 28.8V40.2C153 50.2809 153 55.3214 151.038 59.1718C149.312 62.5587 146.559 65.3124 143.172 67.0381C139.321 69 134.281 69 124.2 69H28.8C18.7191 69 13.6786 69 9.82817 67.0381C6.44125 65.3124 3.6876 62.5587 1.96188 59.1718C0 55.3214 0 50.2809 0 40.2V28.8Z" fill="black" fill-opacity="0.305707"/>
</g>
<g id="VALUE" reference="VALUE">
<text id="Song Name" fill="white" xml:space="preserve" style="white-space: pre" font-family="Antonio" font-size="36" letter-spacing="-0.8px"><tspan x="57.2641" y="50.168">...</tspan></text>
</g>
<g id="&#194;&#176;C">
<text transform="translate(113 5)" fill="white" xml:space="preserve" style="white-space: pre" font-family="Antonio" font-size="24" letter-spacing="0em"><tspan x="12.2422" y="27.4453">C</tspan></text>
<text transform="translate(113 5)" fill="white" xml:space="preserve" style="white-space: pre" font-family="Antonio" font-size="18" letter-spacing="0em"><tspan x="4.19141" y="27.4453">&#xb0;</tspan></text>
</g>
<path id="Vector" fill-rule="evenodd" clip-rule="evenodd" d="M27.8064 40.7097H26.1613C26.0968 40.7097 26.0323 40.7097 26 40.6774C25.9677 40.6774 25.9677 40.6774 25.9677 40.6774C25.9677 40.6774 25.9677 40.6774 25.9355 40.6774C25.5806 40.5484 25.3226 40.1935 25.3226 39.7419C25.3226 39.3226 25.5161 39 25.8065 38.8387H25.8387C25.871 38.8065 25.871 38.8065 25.871 38.8065C25.9677 38.7742 26.0645 38.7419 26.1613 38.7419H27.8064C27.9355 38.7419 28.0645 38.7742 28.1613 38.8387C28.1935 38.8387 28.1935 38.871 28.1935 38.871H28.2258C28.4839 39.0645 28.6452 39.3548 28.6452 39.7419C28.6452 40.129 28.4194 40.4839 28.129 40.6129V40.6452C28.0968 40.6452 28.0968 40.6452 28.0968 40.6452H28.0645L28.0323 40.6774C27.9677 40.6774 27.9032 40.7097 27.8064 40.7097ZM27.8064 42.6452H22.8387C22.3871 42.6452 22 43.0968 22 43.6129C22 43.9032 22.0968 44.1613 22.2903 44.3548C22.3226 44.3871 22.3226 44.3871 22.3226 44.3871C22.3548 44.3871 22.3548 44.4194 22.3548 44.4194C22.3871 44.4194 22.3871 44.4194 22.3871 44.4516C22.4194 44.4516 22.4194 44.4839 22.4516 44.4839C22.4516 44.4839 22.4839 44.4839 22.4839 44.5161C22.5806 44.5484 22.7097 44.5806 22.8387 44.5806H27.8064C28.2581 44.5806 28.6452 44.1613 28.6452 43.6129C28.6452 43.0968 28.2581 42.6452 27.8064 42.6452ZM27.8064 36.8065H26.1613C26.0968 36.8065 26.0323 36.8065 26 36.7742C25.9677 36.7742 25.9677 36.7742 25.9677 36.7742C25.9677 36.7742 25.9677 36.7742 25.9355 36.7742C25.5806 36.6774 25.3226 36.2903 25.3226 35.8387C25.3226 35.4516 25.5161 35.0968 25.8065 34.9355H25.8387C25.871 34.9355 25.871 34.9355 25.871 34.9355C25.9677 34.871 26.0645 34.871 26.1613 34.871H27.8064C27.9355 34.871 28.0645 34.9032 28.1613 34.9677C28.1935 34.9677 28.1935 34.9677 28.1935 34.9677L28.2258 35C28.4839 35.1613 28.6452 35.4839 28.6452 35.8387C28.6452 36.2258 28.4194 36.5806 28.129 36.7419C28.0968 36.7419 28.0968 36.7419 28.0968 36.7419L28.0645 36.7742H28.0323C27.9677 36.8065 27.9032 36.8065 27.8064 36.8065ZM22.8387 32.9032H27.8064C28.2581 32.9032 28.6452 32.4839 28.6452 31.9355C28.6452 31.4194 28.2581 30.9677 27.8064 30.9677H22.8387C22.6452 30.9677 22.4839 31.0323 22.3226 31.1613C22.3226 31.1613 22.3226 31.1613 22.3226 31.1935C22.3226 31.1935 22.2903 31.1935 22.2903 31.2258C22.0968 31.3871 22 31.6452 22 31.9355C22 32.4839 22.3871 32.9032 22.8387 32.9032ZM25.9355 27.129C26 27.0968 26.0968 27.0968 26.1613 27.0968H27.8064C27.9032 27.0968 28 27.0968 28.0968 27.129C28.0968 27.129 28.0968 27.1613 28.129 27.1613H28.1613L28.1935 27.1935C28.4516 27.3548 28.6452 27.6774 28.6452 28.0645C28.6452 28.5806 28.2581 29.0323 27.8064 29.0323H26.1613C25.7097 29.0323 25.3226 28.5806 25.3226 28.0645C25.3226 27.6452 25.5484 27.2903 25.8387 27.1613C25.871 27.1613 25.871 27.129 25.871 27.129C25.9032 27.129 25.9032 27.129 25.9032 27.129H25.9355ZM27.8064 25.129H26.1613C26.129 25.129 26.0968 25.129 26.0323 25.129H26C25.9677 25.129 25.9677 25.129 25.9677 25.0968C25.6129 25 25.3226 24.6129 25.3226 24.1613C25.3226 23.6129 25.7097 23.1935 26.1613 23.1935H27.8064C28.2581 23.1935 28.6452 23.6129 28.6452 24.1613C28.6452 24.5806 28.4194 24.9677 28.0645 25.0968H28.0323C28 25.0968 28 25.0968 28 25.0968C28 25.129 28 25.129 27.9677 25.129C27.9032 25.129 27.871 25.129 27.8064 25.129ZM27.8064 21.2581H22.8387C22.5806 21.2581 22.3548 21.129 22.1935 20.9032V20.871C22.1613 20.871 22.1613 20.871 22.1613 20.871C22.0645 20.7097 22 20.4839 22 20.2903C22 20.0645 22.0645 19.8387 22.1613 19.6774C22.1613 19.6774 22.1613 19.6774 22.1935 19.6774V19.6452C22.3548 19.4194 22.5806 19.2903 22.8387 19.2903H27.8064C27.871 19.2903 27.9677 19.3226 28.0323 19.3226C28.0323 19.3548 28.0645 19.3548 28.0645 19.3548C28.0968 19.3548 28.0968 19.3548 28.0968 19.3548L28.129 19.3871H28.1613C28.4516 19.5484 28.6452 19.871 28.6452 20.2903C28.6452 20.6774 28.4516 21 28.1613 21.1613H28.129L28.0968 21.1935C28.0968 21.1935 28.0968 21.1935 28.0645 21.1935C28.0645 21.1935 28.0323 21.1935 28.0323 21.2258C27.9677 21.2258 27.871 21.2581 27.8064 21.2581ZM34.5161 44.5806V18.9355C34.5161 17.871 33.6774 17 32.6129 17C31.5806 17 30.7097 17.871 30.7097 18.9355V44.5806C26.5161 46.6129 27.9355 53 32.6129 53C37.2903 53 38.7097 46.6129 34.5161 44.5806ZM32.6129 30.5806C32.9677 30.5806 33.2581 30.871 33.2581 31.2258V47.1935C34.7097 47.9032 34.2258 50.0968 32.6129 50.0968C31 50.0968 30.5161 47.9032 31.9677 47.1935V31.2258C31.9677 30.871 32.2581 30.5806 32.6129 30.5806Z" fill="url(#paint0_linear)"/>
</g>
<defs>
<linearGradient id="paint0_linear" x1="29.503" y1="17" x2="29.503" y2="53" gradientUnits="userSpaceOnUse">
<stop stop-color="white"/>
<stop offset="1" stop-color="#D5D5D5"/>
</linearGradient>
</defs>
</svg>