<svg width="54" height="50" viewBox="0 0 54 50" fill="none" xmlns="http://www.w3.org/2000/svg">
<g class="fault inactive" reference="PRS-T">
<g class="animation-display">
<g id="onn">
<path id="ON" d="M19.4854 34.7324C19.4854 32.9746 19.8018 31.7676 20.4346 31.1113C20.9326 30.5957 21.6562 30.3379 22.6055 30.3379C23.9883 30.3379 24.873 30.9062 25.2598 32.043C25.4883 32.7168 25.6025 33.6133 25.6025 34.7324V41.5527C25.6025 43.1641 25.377 44.3389 24.9258 45.0771C24.4746 45.8096 23.6836 46.1758 22.5527 46.1758C21.4277 46.1758 20.6338 45.8066 20.1709 45.0684C19.7139 44.3301 19.4854 43.1582 19.4854 41.5527V34.7324ZM23.7832 34.627C23.7832 33.6367 23.7041 32.9365 23.5459 32.5264C23.3877 32.1104 23.0684 31.9023 22.5879 31.9023C22.1074 31.9023 21.7734 32.1133 21.5859 32.5352C21.3984 32.957 21.3047 33.6514 21.3047 34.6182V41.5703C21.3047 42.748 21.3867 43.5508 21.5508 43.9785C21.7148 44.4004 22.0459 44.6113 22.5439 44.6113C23.042 44.6113 23.373 44.3975 23.5371 43.9697C23.7012 43.5361 23.7832 42.7363 23.7832 41.5703V34.627ZM32.7305 30.5312H34.3389V46H33.0029L29.5312 35.3828L29.6367 39.2852V46H27.958V30.5312H29.3291L32.915 41.0605L32.7305 36.5869V30.5312Z"/>
</g>
</g>
<g class="animation-hide">
<g id="off">
<path id="OFF" d="M17.3848 34.7324C17.3848 32.9746 17.7012 31.7676 18.334 31.1113C18.832 30.5957 19.5557 30.3379 20.5049 30.3379C21.8877 30.3379 22.7725 30.9062 23.1592 32.043C23.3877 32.7168 23.502 33.6133 23.502 34.7324V41.5527C23.502 43.1641 23.2764 44.3389 22.8252 45.0771C22.374 45.8096 21.583 46.1758 20.4521 46.1758C19.3271 46.1758 18.5332 45.8066 18.0703 45.0684C17.6133 44.3301 17.3848 43.1582 17.3848 41.5527V34.7324ZM21.6826 34.627C21.6826 33.6367 21.6035 32.9365 21.4453 32.5264C21.2871 32.1104 20.9678 31.9023 20.4873 31.9023C20.0068 31.9023 19.6729 32.1133 19.4854 32.5352C19.2979 32.957 19.2041 33.6514 19.2041 34.6182V41.5703C19.2041 42.748 19.2861 43.5508 19.4502 43.9785C19.6143 44.4004 19.9453 44.6113 20.4434 44.6113C20.9414 44.6113 21.2725 44.3975 21.4365 43.9697C21.6006 43.5361 21.6826 42.7363 21.6826 41.5703V34.627ZM25.8486 30.5312H30.5068V32.0518H27.6592V36.9385H30.3311V38.4766H27.6592V46H25.8486V30.5312ZM32.4053 30.5312L37.0635 30.5312V32.0518H34.2158V36.9385H36.8877V38.4766H34.2158V46H32.4053V30.5312Z"/>
</g>
</g>
<g id="Group">
<path id="Vector" d="M18 10V8L36 8V10L18 10Z" fill="#2F80ED"/>
<path id="Subtract" fill-rule="evenodd" clip-rule="evenodd" d="M15 14L15 24C15 25.6569 16.3431 27 18 27L35 27C36.6569 27 38 25.6569 38 24V14C38 12.3431 36.6569 11 35 11L18 11C16.3431 11 15 12.3431 15 14ZM17 23C17 24.1046 17.8954 25 19 25L34 25C35.1046 25 36 24.1046 36 23V15C36 13.8954 35.1046 13 34 13L19 13C17.8954 13 17 13.8954 17 15L17 23Z" fill="#2F80ED"/>
<path id="Vector_2" d="M30 6V3L33 3V6L30 6Z" fill="url(#prs-t-paint0_linear)"/>
<path id="Vector_3" d="M29 8V5L34 5V8L29 8Z" fill="url(#prs-t-paint1_linear)"/>
<path id="Vector_4" d="M29 4V1.00962C30.7772 -0.408354 32.0848 -0.262756 34 1.00962V4L29 4Z" fill="url(#prs-t-paint2_linear)"/>
<path id="Vector_5" d="M15 24L15 14C15 12.3431 16.3431 11 18 11L35 11C36.6569 11 38 12.3431 38 14V24C38 25.6569 36.6569 27 35 27L18 27C16.3431 27 15 25.6569 15 24Z" fill="#2F80ED"/>
</g>
</g>
<defs>
<linearGradient id="prs-t-paint0_linear" x1="30" y1="4.5" x2="33" y2="4.5" gradientUnits="userSpaceOnUse">
<stop stop-color="#4F4F4F"/>
<stop offset="0.519337" stop-color="#BDBDBD"/>
<stop offset="1" stop-color="#4F4F4F"/>
</linearGradient>
<linearGradient id="prs-t-paint1_linear" x1="29" y1="6.5" x2="34" y2="6.5" gradientUnits="userSpaceOnUse">
<stop stop-color="#4F4F4F"/>
<stop offset="0.519337" stop-color="#BDBDBD"/>
<stop offset="1" stop-color="#4F4F4F"/>
</linearGradient>
<linearGradient id="prs-t-paint2_linear" x1="29" y1="2.50464" x2="34" y2="2.50464" gradientUnits="userSpaceOnUse">
<stop stop-color="#848484"/>
<stop offset="0.519337" stop-color="white"/>
<stop offset="1" stop-color="#848484"/>
</linearGradient>
</defs>
</svg>
