<svg width="70" height="24" viewBox="0 0 70 24" fill="none" xmlns="http://www.w3.org/2000/svg">
<g class="fault inactive" reference="PRS-L">
<g class="animation-hide">
<path id="Vector" d="M46 1.1365e-06L56 2.62268e-07C57.6569 1.17422e-07 59 1.34315 59 3L59 20C59 21.6569 57.6569 23 56 23L46 23C44.3431 23 43 21.6569 43 20L43 3C43 1.34315 44.3431 1.28134e-06 46 1.1365e-06Z" fill="#2F80ED"/>
<g id="onn">
<path id="ON" d="M19.4854 8.73242C19.4854 6.97461 19.8018 5.76758 20.4346 5.11133C20.9326 4.5957 21.6562 4.33789 22.6055 4.33789C23.9883 4.33789 24.873 4.90625 25.2598 6.04297C25.4883 6.7168 25.6025 7.61328 25.6025 8.73242V15.5527C25.6025 17.1641 25.377 18.3389 24.9258 19.0771C24.4746 19.8096 23.6836 20.1758 22.5527 20.1758C21.4277 20.1758 20.6338 19.8066 20.1709 19.0684C19.7139 18.3301 19.4854 17.1582 19.4854 15.5527V8.73242ZM23.7832 8.62695C23.7832 7.63672 23.7041 6.93652 23.5459 6.52637C23.3877 6.11035 23.0684 5.90234 22.5879 5.90234C22.1074 5.90234 21.7734 6.11328 21.5859 6.53516C21.3984 6.95703 21.3047 7.65137 21.3047 8.61816V15.5703C21.3047 16.748 21.3867 17.5508 21.5508 17.9785C21.7148 18.4004 22.0459 18.6113 22.5439 18.6113C23.042 18.6113 23.373 18.3975 23.5371 17.9697C23.7012 17.5361 23.7832 16.7363 23.7832 15.5703V8.62695ZM32.7305 4.53125H34.3389V20H33.0029L29.5312 9.38281L29.6367 13.2852V20L27.958 20V4.53125H29.3291L32.915 15.0605L32.7305 10.5869V4.53125Z"/>
</g>
</g>
<g class="animation-display">
<path id="Vector_2" d="M46 1.1365e-06L56 2.62268e-07C57.6569 1.17422e-07 59 1.34315 59 3L59 20C59 21.6569 57.6569 23 56 23L46 23C44.3431 23 43 21.6569 43 20L43 3C43 1.34315 44.3431 1.28134e-06 46 1.1365e-06Z" fill="#2F80ED"/>
<g id="off">
<path id="OFF" d="M17.3848 8.73242C17.3848 6.97461 17.7012 5.76758 18.334 5.11133C18.832 4.5957 19.5557 4.33789 20.5049 4.33789C21.8877 4.33789 22.7725 4.90625 23.1592 6.04297C23.3877 6.7168 23.502 7.61328 23.502 8.73242V15.5527C23.502 17.1641 23.2764 18.3389 22.8252 19.0771C22.374 19.8096 21.583 20.1758 20.4521 20.1758C19.3271 20.1758 18.5332 19.8066 18.0703 19.0684C17.6133 18.3301 17.3848 17.1582 17.3848 15.5527V8.73242ZM21.6826 8.62695C21.6826 7.63672 21.6035 6.93652 21.4453 6.52637C21.2871 6.11035 20.9678 5.90234 20.4873 5.90234C20.0068 5.90234 19.6729 6.11328 19.4854 6.53516C19.2979 6.95703 19.2041 7.65137 19.2041 8.61816V15.5703C19.2041 16.748 19.2861 17.5508 19.4502 17.9785C19.6143 18.4004 19.9453 18.6113 20.4434 18.6113C20.9414 18.6113 21.2725 18.3975 21.4365 17.9697C21.6006 17.5361 21.6826 16.7363 21.6826 15.5703V8.62695ZM25.8486 4.53125H30.5068V6.05176H27.6592V10.9385H30.3311V12.4766H27.6592V20H25.8486V4.53125ZM32.4053 4.53125L37.0635 4.53125V6.05176L34.2158 6.05176V10.9385H36.8877V12.4766H34.2158V20H32.4053V4.53125Z"/>
</g>
</g>
<g id="Group">
<path id="Vector_3" d="M60 3L62 3L62 21L60 21L60 3Z" fill="#2F80ED"/>
<path id="Subtract" fill-rule="evenodd" clip-rule="evenodd" d="M56 -1.1365e-06L46 -2.62268e-07C44.3431 -1.17421e-07 43 1.34315 43 3L43 20C43 21.6569 44.3431 23 46 23L56 23C57.6569 23 59 21.6569 59 20L59 3C59 1.34315 57.6569 -1.28134e-06 56 -1.1365e-06ZM47 2C45.8954 2 45 2.89543 45 4L45 19C45 20.1046 45.8954 21 47 21L55 21C56.1046 21 57 20.1046 57 19L57 4C57 2.89543 56.1046 2 55 2L47 2Z" fill="#2F80ED"/>
<path id="Vector_4" d="M64 15L67 15L67 18L64 18L64 15Z" fill="url(#prs-l-paint0_linear)"/>
<path id="Vector_5" d="M62 14L65 14L65 19L62 19L62 14Z" fill="url(#prs-l-paint1_linear)"/>
<path id="Vector_6" d="M66 14L68.9904 14C70.4084 15.7772 70.2628 17.0848 68.9904 19L66 19L66 14Z" fill="url(#prs-l-paint2_linear)"/>
</g>
</g>
<defs>
<linearGradient id="prs-l-paint0_linear" x1="65.5" y1="15" x2="65.5" y2="18" gradientUnits="userSpaceOnUse">
<stop stop-color="#4F4F4F"/>
<stop offset="0.519337" stop-color="#BDBDBD"/>
<stop offset="1" stop-color="#4F4F4F"/>
</linearGradient>
<linearGradient id="prs-l-paint1_linear" x1="63.5" y1="14" x2="63.5" y2="19" gradientUnits="userSpaceOnUse">
<stop stop-color="#4F4F4F"/>
<stop offset="0.519337" stop-color="#BDBDBD"/>
<stop offset="1" stop-color="#4F4F4F"/>
</linearGradient>
<linearGradient id="prs-l-paint2_linear" x1="67.4954" y1="14" x2="67.4954" y2="19" gradientUnits="userSpaceOnUse">
<stop stop-color="#848484"/>
<stop offset="0.519337" stop-color="white"/>
<stop offset="1" stop-color="#848484"/>
</linearGradient>
</defs>
</svg>
