<svg width="69" height="24" viewBox="0 0 69 24" fill="none" xmlns="http://www.w3.org/2000/svg">
<g class="fault inactive" reference="PRS-R">
<g class="animation-hide">
<path id="Vector" d="M24 1.1365e-06L14 2.62268e-07C12.3431 1.17422e-07 11 1.34315 11 3L11 20C11 21.6569 12.3431 23 14 23L24 23C25.6569 23 27 21.6569 27 20L27 3C27 1.34315 25.6569 1.28134e-06 24 1.1365e-06Z" fill="#2F80ED"/>
<g id="onn">
<path id="ON" d="M34.4854 8.73242C34.4854 6.97461 34.8018 5.76758 35.4346 5.11133C35.9326 4.5957 36.6562 4.33789 37.6055 4.33789C38.9883 4.33789 39.873 4.90625 40.2598 6.04297C40.4883 6.7168 40.6025 7.61328 40.6025 8.73242V15.5527C40.6025 17.1641 40.377 18.3389 39.9258 19.0771C39.4746 19.8096 38.6836 20.1758 37.5527 20.1758C36.4277 20.1758 35.6338 19.8066 35.1709 19.0684C34.7139 18.3301 34.4854 17.1582 34.4854 15.5527V8.73242ZM38.7832 8.62695C38.7832 7.63672 38.7041 6.93652 38.5459 6.52637C38.3877 6.11035 38.0684 5.90234 37.5879 5.90234C37.1074 5.90234 36.7734 6.11328 36.5859 6.53516C36.3984 6.95703 36.3047 7.65137 36.3047 8.61816V15.5703C36.3047 16.748 36.3867 17.5508 36.5508 17.9785C36.7148 18.4004 37.0459 18.6113 37.5439 18.6113C38.042 18.6113 38.373 18.3975 38.5371 17.9697C38.7012 17.5361 38.7832 16.7363 38.7832 15.5703V8.62695ZM47.7305 4.53125H49.3389V20H48.0029L44.5312 9.38281L44.6367 13.2852V20L42.958 20V4.53125H44.3291L47.915 15.0605L47.7305 10.5869V4.53125Z"/>
</g>
</g>
<g class="animation-display">
<path id="Vector_2" d="M24 1.1365e-06L14 2.62268e-07C12.3431 1.17422e-07 11 1.34315 11 3L11 20C11 21.6569 12.3431 23 14 23L24 23C25.6569 23 27 21.6569 27 20L27 3C27 1.34315 25.6569 1.28134e-06 24 1.1365e-06Z" fill="#2F80ED"/>
<g id="off">
<path id="OFF" d="M32.3848 8.73242C32.3848 6.97461 32.7012 5.76758 33.334 5.11133C33.832 4.5957 34.5557 4.33789 35.5049 4.33789C36.8877 4.33789 37.7725 4.90625 38.1592 6.04297C38.3877 6.7168 38.502 7.61328 38.502 8.73242V15.5527C38.502 17.1641 38.2764 18.3389 37.8252 19.0771C37.374 19.8096 36.583 20.1758 35.4521 20.1758C34.3271 20.1758 33.5332 19.8066 33.0703 19.0684C32.6133 18.3301 32.3848 17.1582 32.3848 15.5527V8.73242ZM36.6826 8.62695C36.6826 7.63672 36.6035 6.93652 36.4453 6.52637C36.2871 6.11035 35.9678 5.90234 35.4873 5.90234C35.0068 5.90234 34.6729 6.11328 34.4854 6.53516C34.2979 6.95703 34.2041 7.65137 34.2041 8.61816V15.5703C34.2041 16.748 34.2861 17.5508 34.4502 17.9785C34.6143 18.4004 34.9453 18.6113 35.4434 18.6113C35.9414 18.6113 36.2725 18.3975 36.4365 17.9697C36.6006 17.5361 36.6826 16.7363 36.6826 15.5703V8.62695ZM40.8486 4.53125H45.5068V6.05176H42.6592V10.9385H45.3311V12.4766H42.6592V20H40.8486V4.53125ZM47.4053 4.53125L52.0635 4.53125V6.05176L49.2158 6.05176V10.9385H51.8877V12.4766H49.2158V20H47.4053V4.53125Z"/>
</g>
</g>
<g id="Group">
<path id="Vector_3" d="M10 3L8 3L8 21L10 21L10 3Z" fill="#2F80ED"/>
<path id="Subtract" fill-rule="evenodd" clip-rule="evenodd" d="M14 -1.1365e-06L24 -2.62268e-07C25.6569 -1.17421e-07 27 1.34315 27 3L27 20C27 21.6569 25.6569 23 24 23L14 23C12.3431 23 11 21.6569 11 20L11 3C11 1.34315 12.3431 -1.28134e-06 14 -1.1365e-06ZM23 2C24.1046 2 25 2.89543 25 4L25 19C25 20.1046 24.1046 21 23 21L15 21C13.8954 21 13 20.1046 13 19L13 4C13 2.89543 13.8954 2 15 2L23 2Z" fill="#2F80ED"/>
<path id="Vector_4" d="M6 15L3 15L3 18L6 18L6 15Z" fill="url(#prs-r-paint0_linear)"/>
<path id="Vector_5" d="M8 14L5 14L5 19L8 19L8 14Z" fill="url(#prs-r-paint1_linear)"/>
<path id="Vector_6" d="M4 14L1.00962 14C-0.408354 15.7772 -0.262756 17.0848 1.00962 19L4 19L4 14Z" fill="url(#prs-r-paint2_linear)"/>
</g>
</g>
<defs>
<linearGradient id="prs-r-paint0_linear" x1="4.5" y1="15" x2="4.5" y2="18" gradientUnits="userSpaceOnUse">
<stop stop-color="#4F4F4F"/>
<stop offset="0.519337" stop-color="#BDBDBD"/>
<stop offset="1" stop-color="#4F4F4F"/>
</linearGradient>
<linearGradient id="prs-r-paint1_linear" x1="6.5" y1="14" x2="6.5" y2="19" gradientUnits="userSpaceOnUse">
<stop stop-color="#4F4F4F"/>
<stop offset="0.519337" stop-color="#BDBDBD"/>
<stop offset="1" stop-color="#4F4F4F"/>
</linearGradient>
<linearGradient id="prs-r-paint2_linear" x1="2.50464" y1="14" x2="2.50464" y2="19" gradientUnits="userSpaceOnUse">
<stop stop-color="#848484"/>
<stop offset="0.519337" stop-color="white"/>
<stop offset="1" stop-color="#848484"/>
</linearGradient>
</defs>
</svg>
