<svg width="54" height="50" viewBox="0 0 54 50" fill="none" xmlns="http://www.w3.org/2000/svg">
<g class="fault inactive" reference="PRS">
<g class="animation-hide">
<path id="Vector" d="M15 26L15 36C15 37.6569 16.3431 39 18 39L35 39C36.6569 39 38 37.6569 38 36V26C38 24.3431 36.6569 23 35 23L18 23C16.3431 23 15 24.3431 15 26Z" fill="#2F80ED"/>
<g id="onn">
<path id="ON" d="M19.4854 8.73242C19.4854 6.97461 19.8018 5.76758 20.4346 5.11133C20.9326 4.5957 21.6562 4.33789 22.6055 4.33789C23.9883 4.33789 24.873 4.90625 25.2598 6.04297C25.4883 6.7168 25.6025 7.61328 25.6025 8.73242V15.5527C25.6025 17.1641 25.377 18.3389 24.9258 19.0771C24.4746 19.8096 23.6836 20.1758 22.5527 20.1758C21.4277 20.1758 20.6338 19.8066 20.1709 19.0684C19.7139 18.3301 19.4854 17.1582 19.4854 15.5527V8.73242ZM23.7832 8.62695C23.7832 7.63672 23.7041 6.93652 23.5459 6.52637C23.3877 6.11035 23.0684 5.90234 22.5879 5.90234C22.1074 5.90234 21.7734 6.11328 21.5859 6.53516C21.3984 6.95703 21.3047 7.65137 21.3047 8.61816V15.5703C21.3047 16.748 21.3867 17.5508 21.5508 17.9785C21.7148 18.4004 22.0459 18.6113 22.5439 18.6113C23.042 18.6113 23.373 18.3975 23.5371 17.9697C23.7012 17.5361 23.7832 16.7363 23.7832 15.5703V8.62695ZM32.7305 4.53125H34.3389V20H33.0029L29.5312 9.38281L29.6367 13.2852V20L27.958 20V4.53125H29.3291L32.915 15.0605L32.7305 10.5869V4.53125Z"/>
</g>
</g>
<g class="animation-display">
<path id="Vector_2" d="M15 26L15 36C15 37.6569 16.3431 39 18 39L35 39C36.6569 39 38 37.6569 38 36V26C38 24.3431 36.6569 23 35 23L18 23C16.3431 23 15 24.3431 15 26Z" fill="#2F80ED"/>
<g id="off">
<path id="OFF" d="M17.3848 8.73242C17.3848 6.97461 17.7012 5.76758 18.334 5.11133C18.832 4.5957 19.5557 4.33789 20.5049 4.33789C21.8877 4.33789 22.7725 4.90625 23.1592 6.04297C23.3877 6.7168 23.502 7.61328 23.502 8.73242V15.5527C23.502 17.1641 23.2764 18.3389 22.8252 19.0771C22.374 19.8096 21.583 20.1758 20.4521 20.1758C19.3271 20.1758 18.5332 19.8066 18.0703 19.0684C17.6133 18.3301 17.3848 17.1582 17.3848 15.5527V8.73242ZM21.6826 8.62695C21.6826 7.63672 21.6035 6.93652 21.4453 6.52637C21.2871 6.11035 20.9678 5.90234 20.4873 5.90234C20.0068 5.90234 19.6729 6.11328 19.4854 6.53516C19.2979 6.95703 19.2041 7.65137 19.2041 8.61816V15.5703C19.2041 16.748 19.2861 17.5508 19.4502 17.9785C19.6143 18.4004 19.9453 18.6113 20.4434 18.6113C20.9414 18.6113 21.2725 18.3975 21.4365 17.9697C21.6006 17.5361 21.6826 16.7363 21.6826 15.5703V8.62695ZM25.8486 4.53125H30.5068V6.05176H27.6592V10.9385H30.3311V12.4766H27.6592V20H25.8486V4.53125ZM32.4053 4.53125L37.0635 4.53125V6.05176L34.2158 6.05176V10.9385H36.8877V12.4766H34.2158V20H32.4053V4.53125Z"/>
</g>
</g>
<g id="Group">
<path id="Vector_3" d="M18 40V42L36 42V40L18 40Z" fill="#2F80ED"/>
<path id="Subtract" fill-rule="evenodd" clip-rule="evenodd" d="M15 36L15 26C15 24.3431 16.3431 23 18 23L35 23C36.6569 23 38 24.3431 38 26V36C38 37.6569 36.6569 39 35 39L18 39C16.3431 39 15 37.6569 15 36ZM17 27C17 25.8954 17.8954 25 19 25L34 25C35.1046 25 36 25.8954 36 27V35C36 36.1046 35.1046 37 34 37L19 37C17.8954 37 17 36.1046 17 35L17 27Z" fill="#2F80ED"/>
<path id="Vector_4" d="M30 44V47H33V44H30Z" fill="url(#prs-paint0_linear)"/>
<path id="Vector_5" d="M29 42V45H34V42H29Z" fill="url(#prs-paint1_linear)"/>
<path id="Vector_6" d="M29 46V48.9904C30.7772 50.4084 32.0848 50.2628 34 48.9904V46H29Z" fill="url(#prs-paint2_linear)"/>
</g>
</g>
<defs>
<linearGradient id="prs-paint0_linear" x1="30" y1="45.5" x2="33" y2="45.5" gradientUnits="userSpaceOnUse">
<stop stop-color="#4F4F4F"/>
<stop offset="0.519337" stop-color="#BDBDBD"/>
<stop offset="1" stop-color="#4F4F4F"/>
</linearGradient>
<linearGradient id="prs-paint1_linear" x1="29" y1="43.5" x2="34" y2="43.5" gradientUnits="userSpaceOnUse">
<stop stop-color="#4F4F4F"/>
<stop offset="0.519337" stop-color="#BDBDBD"/>
<stop offset="1" stop-color="#4F4F4F"/>
</linearGradient>
<linearGradient id="prs-paint2_linear" x1="29" y1="47.4954" x2="34" y2="47.4954" gradientUnits="userSpaceOnUse">
<stop stop-color="#848484"/>
<stop offset="0.519337" stop-color="white"/>
<stop offset="1" stop-color="#848484"/>
</linearGradient>
</defs>
</svg>
