<svg width="45" height="82" viewBox="0 0 45 82" fill="none" xmlns="http://www.w3.org/2000/svg">
<g>
<g id="Group">
<rect id="Rectangle 2.1" y="3" width="45" height="77" fill="#848484"></rect>
<rect id="Rectangle 2" x="2" width="41" height="82" rx="3" fill="url(#SCHIT-paint0_linear)"></rect>
<path id="Temp" d="M14.9023 39H14.3672V33.8477H12.5078V33.3633H16.7656V33.8477H14.9023V39ZM17.9648 35.3242C17.6029 35.3242 17.3047 35.4505 17.0703 35.7031C16.8385 35.9531 16.7122 36.2799 16.6914 36.6836H19.1992C19.194 36.2799 19.0781 35.9531 18.8516 35.7031C18.625 35.4505 18.3294 35.3242 17.9648 35.3242ZM19.168 37.8477H19.6797C19.6172 38.2044 19.4323 38.4974 19.125 38.7266C18.8203 38.9531 18.4466 39.0664 18.0039 39.0664C17.4336 39.0664 16.9831 38.8802 16.6523 38.5078C16.3216 38.1328 16.1562 37.6237 16.1562 36.9805C16.1562 36.3477 16.3216 35.8385 16.6523 35.4531C16.9831 35.0651 17.4232 34.8711 17.9727 34.8711C18.5091 34.8711 18.9362 35.0534 19.2539 35.418C19.5716 35.7826 19.7305 36.2682 19.7305 36.875V37.0938H16.6875V37.125C16.6875 37.5833 16.8073 37.9466 17.0469 38.2148C17.2865 38.4805 17.6094 38.6133 18.0156 38.6133C18.3151 38.6133 18.5677 38.543 18.7734 38.4023C18.9792 38.2617 19.1107 38.0768 19.168 37.8477ZM20.4219 39V34.9375H20.9102V35.6875H20.9219C21.013 35.4401 21.1615 35.2422 21.3672 35.0938C21.5729 34.9453 21.819 34.8711 22.1055 34.8711C22.3971 34.8711 22.6458 34.9492 22.8516 35.1055C23.0599 35.2591 23.2031 35.4661 23.2812 35.7266H23.293C23.3919 35.4714 23.5547 35.2656 23.7812 35.1094C24.0104 34.9505 24.2747 34.8711 24.5742 34.8711C24.9701 34.8711 25.2878 34.9948 25.5273 35.2422C25.7669 35.487 25.8867 35.8138 25.8867 36.2227V39H25.3711V36.3398C25.3711 36.0247 25.2878 35.7786 25.1211 35.6016C24.9544 35.4219 24.724 35.332 24.4297 35.332C24.1302 35.332 23.8854 35.4362 23.6953 35.6445C23.5078 35.8503 23.4141 36.1159 23.4141 36.4414V39H22.8945V36.293C22.8945 36.0039 22.8086 35.7721 22.6367 35.5977C22.4674 35.4206 22.2435 35.332 21.9648 35.332C21.6654 35.332 21.4193 35.4414 21.2266 35.6602C21.0339 35.8789 20.9375 36.1602 20.9375 36.5039V39H20.4219ZM28.6602 34.8711C29.1758 34.8711 29.5924 35.0638 29.9102 35.4492C30.2305 35.832 30.3906 36.3385 30.3906 36.9688C30.3906 37.599 30.2318 38.1068 29.9141 38.4922C29.599 38.875 29.1849 39.0664 28.6719 39.0664C28.3516 39.0664 28.0677 38.9844 27.8203 38.8203C27.5755 38.6536 27.3984 38.4349 27.2891 38.1641H27.2734V40.3438H26.7578V34.9375H27.2461V35.7969H27.2617C27.3763 35.5208 27.5573 35.2982 27.8047 35.1289C28.0521 34.957 28.3372 34.8711 28.6602 34.8711ZM28.5703 38.6094C28.9635 38.6094 29.2773 38.4609 29.5117 38.1641C29.7461 37.8646 29.8633 37.4661 29.8633 36.9688C29.8633 36.474 29.7448 36.0768 29.5078 35.7773C29.2734 35.4779 28.9609 35.3281 28.5703 35.3281C28.1849 35.3281 27.8724 35.4805 27.6328 35.7852C27.3932 36.0872 27.2734 36.4818 27.2734 36.9688C27.2734 37.4583 27.3932 37.8542 27.6328 38.1562C27.8724 38.4583 28.1849 38.6094 28.5703 38.6094Z" fill="#5B5B5F"></path>
<path id="%" d="M22.0469 4.68359C22.0469 3.84375 21.6172 3.30469 20.9492 3.30469C20.2773 3.30469 19.8477 3.84375 19.8477 4.68359C19.8477 5.52734 20.2773 6.0625 20.9492 6.0625C21.6172 6.0625 22.0469 5.52734 22.0469 4.68359ZM20.9492 5.69141C20.5664 5.69141 20.3281 5.30859 20.3281 4.68359C20.3281 4.0625 20.5664 3.67578 20.9492 3.67578C21.3281 3.67578 21.5664 4.0625 21.5664 4.68359C21.5664 5.30859 21.3281 5.69141 20.9492 5.69141ZM20.6875 9L22.7148 6.25L24.8398 3.36328H24.3164L22.3281 6.0625L20.1602 9H20.6875ZM25.1562 7.67188C25.1562 6.83203 24.7227 6.29297 24.0547 6.29297C23.3867 6.29297 22.9531 6.83203 22.9531 7.67188C22.9531 8.51562 23.3867 9.05078 24.0547 9.05078C24.7227 9.05078 25.1562 8.51562 25.1562 7.67188ZM24.0547 8.67969C23.6719 8.67969 23.4336 8.29688 23.4336 7.67188C23.4336 7.05078 23.6719 6.66797 24.0547 6.66797C24.4375 6.66797 24.6758 7.05078 24.6758 7.67188C24.6758 8.29688 24.4375 8.67969 24.0547 8.67969Z" fill="#5B5B5F"></path>
<path id="Сurrent" d="M13.0352 62.0898C14.2383 62.0898 15.0938 61.4531 15.3086 60.3945H14.7656C14.5859 61.1367 13.918 61.5938 13.0391 61.5938C11.8398 61.5938 11.0703 60.6523 11.0703 59.168C11.0703 57.7031 11.8398 56.7695 13.0352 56.7695C13.8906 56.7695 14.5977 57.3125 14.7695 58.0859H15.3125C15.1406 57.0195 14.207 56.2734 13.0352 56.2734C11.5039 56.2734 10.5234 57.4023 10.5234 59.168C10.5234 60.9531 11.5 62.0898 13.0352 62.0898ZM19.3086 57.9375H18.793V60.3477C18.793 61.1094 18.3164 61.6055 17.6094 61.6055C16.9297 61.6055 16.5469 61.207 16.5469 60.4883V57.9375H16.0273V60.5781C16.0273 61.4922 16.5781 62.0664 17.4609 62.0664C18.1055 62.0664 18.5938 61.7461 18.8086 61.2461H18.8203V62H19.3086V57.9375ZM20.1992 62H20.7148V59.4688C20.7148 58.8125 21.082 58.3633 21.6602 58.3633C21.8359 58.3633 21.9805 58.3906 22.0469 58.4219V57.9141C21.9844 57.8984 21.8633 57.8711 21.7266 57.8711C21.2266 57.8711 20.8477 58.1641 20.6992 58.6602H20.6875V57.9375H20.1992V62ZM22.6055 62H23.1211V59.4688C23.1211 58.8125 23.4883 58.3633 24.0664 58.3633C24.2422 58.3633 24.3867 58.3906 24.4531 58.4219V57.9141C24.3906 57.8984 24.2695 57.8711 24.1328 57.8711C23.6328 57.8711 23.2539 58.1641 23.1055 58.6602H23.0938V57.9375H22.6055V62ZM26.3828 58.3242C27.1172 58.3242 27.6055 58.8828 27.6172 59.6836H25.1094C25.1523 58.8828 25.6562 58.3242 26.3828 58.3242ZM27.5859 60.8477C27.4727 61.293 27.0469 61.6133 26.4336 61.6133C25.625 61.6133 25.1055 61.043 25.1055 60.125V60.0938H28.1484V59.875C28.1484 58.6641 27.4688 57.8711 26.3906 57.8711C25.2891 57.8711 24.5742 58.7188 24.5742 59.9805C24.5742 61.2695 25.2812 62.0664 26.4219 62.0664C27.3164 62.0664 27.9766 61.5508 28.0977 60.8477H27.5859ZM28.8398 62H29.3555V59.5938C29.3555 58.8398 29.8281 58.332 30.5312 58.332C31.2109 58.332 31.6016 58.7383 31.6016 59.4492V62H32.1172V59.3672C32.1172 58.4453 31.5703 57.8711 30.6797 57.8711C30.0234 57.8711 29.5469 58.1953 29.3398 58.6875H29.3281V57.9375H28.8398V62ZM33.2109 56.9219V57.9375H32.6055V58.3672H33.2109V61C33.2109 61.7344 33.4844 62.0234 34.1641 62.0234C34.2734 62.0234 34.4922 62.0117 34.5469 62V61.5586C34.5156 61.5664 34.3203 61.5742 34.2656 61.5742C33.8906 61.5742 33.7266 61.3945 33.7266 60.9766V58.3672H34.5273V57.9375H33.7266V56.9219H33.2109Z" fill="#5B5B5F"></path>
<rect id="Rectangle" x="6" y="40" width="31" height="14" rx="4" fill="#5B5B5F"></rect>
<rect id="Rectangle_2" x="7" y="63" width="31" height="14" rx="4" fill="#5B5B5F"></rect>
<rect id="Rectangle_3" x="7" y="10" width="31" height="22" rx="4" fill="#5B5B5F"></rect>
</g>
<g id="temp">
<g class="fault" format="%.1f" reference="TEMP-AHU-STATUS">

		<text x="50%" y="52" font-size="12px" font-family="Antonio-Regular" text-anchor="middle">...</text>
	</g>
</g>
<g id="current">
<g class="fault" format="%.1f" reference="CURRENT-STATUS">

		<text x="50%" y="75" font-size="12px" font-family="Antonio-Regular" text-anchor="middle">...</text>
	</g>
</g>
<g id="percent">
	<g class="fault" format="%.1f" reference="PERCENT-STATUS">

		<text x="50%" y="28" font-size="18px" font-family="Antonio-Regular" text-anchor="middle">...</text>
	</g>
</g>
</g>
<g class="fault inactive" reference="ALARM">
<g  class="animation-fail">
<g id="Group 2">
<path id="path19629" d="M23.8838 24.3711C22.5601 23.6072 20.8675 24.0605 20.1032 25.3836L3.37125 54.3506C2.607 55.6737 3.06054 57.3655 4.38424 58.1294C4.80497 58.3722 5.28222 58.5 5.76803 58.5H39.232C39.7178 58.5 40.195 58.3722 40.6158 58.1294C41.9395 57.3655 42.393 55.6737 41.6288 54.3506L24.8968 25.3836C24.6539 24.9631 24.3045 24.6139 23.8838 24.3711Z" fill="black"/>
<path id="path19629_2" d="M23.6709 27.4101C22.5508 26.7488 21.1186 27.1412 20.4719 28.2866L6.31413 53.3625C5.66746 54.5079 6.05122 55.9724 7.17128 56.6337C7.52728 56.8439 7.93111 56.9545 8.34218 56.9545H36.6578C37.0689 56.9545 37.4727 56.8439 37.8287 56.6337C38.9488 55.9724 39.3325 54.5079 38.6859 53.3625L24.528 28.2866C24.3225 27.9226 24.0269 27.6203 23.6709 27.4101Z" fill="white"/>
<path id="path19631" d="M24.9334 50.5474C24.9335 50.8767 24.8706 51.2029 24.7484 51.5072C24.6261 51.8115 24.4469 52.088 24.2209 52.3209C23.9949 52.5539 23.7266 52.7386 23.4313 52.8647C23.136 52.9908 22.8195 53.0557 22.4999 53.0557C22.1803 53.0557 21.8638 52.9908 21.5685 52.8647C21.2732 52.7386 21.0049 52.5539 20.7789 52.3209C20.5529 52.088 20.3737 51.8115 20.2514 51.5072C20.1292 51.2029 20.0663 50.8767 20.0664 50.5474C20.0663 50.218 20.1292 49.8918 20.2514 49.5875C20.3737 49.2832 20.5529 49.0067 20.7789 48.7738C21.0049 48.5408 21.2732 48.3561 21.5685 48.23C21.8638 48.1039 22.1803 48.0391 22.4999 48.0391C22.8195 48.0391 23.136 48.1039 23.4313 48.23C23.7266 48.3561 23.9949 48.5408 24.2209 48.7738C24.4469 49.0067 24.6261 49.2832 24.7484 49.5875C24.8706 49.8918 24.9335 50.218 24.9334 50.5474Z" fill="black"/>
<path id="path19633" d="M20.0875 37.8352C19.9121 36.4621 20.8501 35.2025 22.1825 35.0217C23.515 34.841 24.7374 35.8075 24.9129 37.1806C24.9406 37.3978 24.9406 37.6179 24.9129 37.8352L23.7372 47.0367H21.2631L20.0875 37.8352Z" fill="black"/>
</g>
<g id="flags">
<path id="path4410" d="M22.4573 26.0601C21.7837 26.0752 21.134 26.4319 20.7725 27.059L5.26754 53.9582C4.71673 54.9138 5.0437 56.1358 5.99773 56.6875C6.30096 56.8629 6.64493 56.9551 6.99506 56.9551H38.0049C38.3551 56.9551 38.699 56.8629 39.0023 56.6875C39.9563 56.1358 40.2833 54.9138 39.7325 53.9582L24.2275 27.059C24.0525 26.7553 23.8006 26.503 23.4973 26.3277C23.1694 26.138 22.8101 26.0522 22.4573 26.0601ZM22.4608 29.4994C22.5703 29.4916 22.6827 29.517 22.785 29.5761C22.8716 29.6262 22.9433 29.6979 22.9933 29.7848L36.7601 53.6674C36.9174 53.9403 36.8243 54.2893 36.5517 54.447C36.465 54.497 36.3668 54.5237 36.2667 54.5237H8.73505C8.4203 54.5237 8.16515 54.2681 8.16515 53.9528C8.16515 53.8526 8.19001 53.754 8.23995 53.6674L22.0067 29.7848C22.105 29.6142 22.2783 29.5123 22.4608 29.4994Z"/>
</g>
</g>
</g>
<defs>
<linearGradient id="SCHIT-paint0_linear" x1="2" y1="38.4051" x2="43" y2="38.4051" gradientUnits="userSpaceOnUse">
<stop stop-color="#848484"></stop>
<stop offset="0.220994" stop-color="white"></stop>
<stop offset="0.767956" stop-color="white"></stop>
<stop offset="1" stop-color="#5B5B5F"></stop>
</linearGradient>
</defs>
</svg>