<svg width="54" height="38" viewBox="0 0 54 38" fill="none" xmlns="http://www.w3.org/2000/svg">
<g class="fault inactive" reference="SEN-R-STATUS">
<g id="Group">
<path id="Vector" d="M13 34L43 34V29L13 29V34Z" fill="url(#sen-r-status-paint0_linear)"/>
<path id="Vector_2" d="M17.0049 34V29C17.0049 26.7909 18.7957 25 21.0049 25H35.0049C37.214 25 39.0049 26.7909 39.0049 29V34C39.0049 36.2091 37.214 38 35.0049 38H21.0049C18.7957 38 17.0049 36.2091 17.0049 34Z" fill="#2F80ED"/>
<path id="Vector_3" d="M40 38H42V25H40V38Z" fill="#2F80ED"/>
<path id="Vector_4" d="M14 38H16V25H14L14 38Z" fill="#2F80ED"/>
<path id="Vector_5" fill-rule="evenodd" clip-rule="evenodd" d="M23.0049 34.5699V36.2633H24.2364H24.3024V37H24.8302H25.7979V36.2633H29.8884V37H30.856H31.3838V36.2633H32.6814V34.5699H31.3838V33.8331H29.8884V34.5699H29.2506V33.9651C30.834 33.3823 31.9556 31.8649 31.9556 30.0835C31.9556 27.8183 30.1083 25.96 27.8431 25.96C25.567 25.96 23.7196 27.8183 23.7196 30.0835C23.7196 31.8649 24.8412 33.3823 26.4246 33.9651V34.5699H25.7979V33.8331H24.3024V34.5699H24.2364H23.0049ZM28.316 32.9755H27.3593H27.3483C27.2274 32.9645 27.1284 32.8655 27.1284 32.7445C27.1284 32.6236 27.2273 32.5136 27.3593 32.5136H28.316C28.4479 32.5136 28.5469 32.6236 28.5469 32.7445C28.5469 32.8655 28.4479 32.9645 28.327 32.9755H28.316ZM28.3599 30.2924C28.25 30.5783 27.9201 30.7213 27.6342 30.6003C27.3373 30.4904 27.2054 30.1605 27.3153 29.8746C27.3813 29.7206 27.5132 29.5997 27.6672 29.5557C28.7888 27.3785 29.0087 27.4665 28.327 29.8196C28.4039 29.9625 28.4259 30.1385 28.3599 30.2924ZM26.1387 31.7879C26.2267 31.8759 26.2267 32.0188 26.1387 32.1068L25.6109 32.6346C25.523 32.7225 25.369 32.7225 25.2811 32.6346C23.8736 31.2271 23.8736 28.9399 25.2811 27.5324C26.6885 26.1249 28.9867 26.1249 30.3942 27.5324C31.8017 28.9399 31.8017 31.2271 30.3942 32.6346C30.3502 32.6786 30.2842 32.7006 30.2293 32.7006C30.1743 32.7006 30.1193 32.6786 30.0753 32.6346L29.5365 32.1068C29.4485 32.0188 29.4485 31.8759 29.5365 31.7879C29.6245 31.6999 29.7674 31.6999 29.8664 31.7879L30.2293 32.1508C30.6801 31.6229 30.933 30.9742 30.988 30.3144H30.4932C30.3722 30.3144 30.2732 30.2155 30.2732 30.0835C30.2732 29.9625 30.3722 29.8636 30.4932 29.8636H30.988C30.933 29.2038 30.6801 28.5551 30.2293 28.0163L29.8664 28.3791C29.8224 28.4231 29.7564 28.4451 29.7015 28.4451C29.6465 28.4451 29.5805 28.4231 29.5365 28.3791C29.4485 28.2912 29.4485 28.1482 29.5365 28.0602L29.8994 27.6974C29.3716 27.2355 28.7228 26.9826 28.063 26.9386V27.4335C28.063 27.5544 27.9641 27.6534 27.8431 27.6534C27.7112 27.6534 27.6122 27.5544 27.6122 27.4335V26.9386C26.9524 26.9826 26.3037 27.2355 25.7759 27.6974L26.1387 28.0602C26.2267 28.1482 26.2267 28.2912 26.1387 28.3791C26.0948 28.4231 26.0288 28.4451 25.9738 28.4451C25.9188 28.4451 25.8638 28.4231 25.8199 28.3791L25.457 28.0163C24.9952 28.5551 24.7423 29.2038 24.6873 29.8636H25.1821C25.303 29.8636 25.402 29.9625 25.402 30.0835C25.402 30.2155 25.303 30.3144 25.1821 30.3144H24.6873C24.7423 30.9742 24.9952 31.6229 25.457 32.1508L25.8199 31.7879C25.9078 31.6999 26.0508 31.6999 26.1387 31.7879Z" fill="white"/>
</g>
<g  class="animation-display">
<path id="ON" d="M19.4854 8.73242C19.4854 6.97461 19.8018 5.76758 20.4346 5.11133C20.9326 4.5957 21.6562 4.33789 22.6055 4.33789C23.9883 4.33789 24.873 4.90625 25.2598 6.04297C25.4883 6.7168 25.6025 7.61328 25.6025 8.73242V15.5527C25.6025 17.1641 25.377 18.3389 24.9258 19.0771C24.4746 19.8096 23.6836 20.1758 22.5527 20.1758C21.4277 20.1758 20.6338 19.8066 20.1709 19.0684C19.7139 18.3301 19.4854 17.1582 19.4854 15.5527V8.73242ZM23.7832 8.62695C23.7832 7.63672 23.7041 6.93652 23.5459 6.52637C23.3877 6.11035 23.0684 5.90234 22.5879 5.90234C22.1074 5.90234 21.7734 6.11328 21.5859 6.53516C21.3984 6.95703 21.3047 7.65137 21.3047 8.61816V15.5703C21.3047 16.748 21.3867 17.5508 21.5508 17.9785C21.7148 18.4004 22.0459 18.6113 22.5439 18.6113C23.042 18.6113 23.373 18.3975 23.5371 17.9697C23.7012 17.5361 23.7832 16.7363 23.7832 15.5703V8.62695ZM32.7305 4.53125H34.3389V20H33.0029L29.5312 9.38281L29.6367 13.2852V20H27.958V4.53125H29.3291L32.915 15.0605L32.7305 10.5869V4.53125Z"/>
</g>
<g  class="animation-hide">
<path id="OFF" d="M17.3848 8.73242C17.3848 6.97461 17.7012 5.76758 18.334 5.11133C18.832 4.5957 19.5557 4.33789 20.5049 4.33789C21.8877 4.33789 22.7725 4.90625 23.1592 6.04297C23.3877 6.7168 23.502 7.61328 23.502 8.73242V15.5527C23.502 17.1641 23.2764 18.3389 22.8252 19.0771C22.374 19.8096 21.583 20.1758 20.4521 20.1758C19.3271 20.1758 18.5332 19.8066 18.0703 19.0684C17.6133 18.3301 17.3848 17.1582 17.3848 15.5527V8.73242ZM21.6826 8.62695C21.6826 7.63672 21.6035 6.93652 21.4453 6.52637C21.2871 6.11035 20.9678 5.90234 20.4873 5.90234C20.0068 5.90234 19.6729 6.11328 19.4854 6.53516C19.2979 6.95703 19.2041 7.65137 19.2041 8.61816V15.5703C19.2041 16.748 19.2861 17.5508 19.4502 17.9785C19.6143 18.4004 19.9453 18.6113 20.4434 18.6113C20.9414 18.6113 21.2725 18.3975 21.4365 17.9697C21.6006 17.5361 21.6826 16.7363 21.6826 15.5703V8.62695ZM25.8486 4.53125H30.5068V6.05176H27.6592V10.9385H30.3311V12.4766H27.6592V20H25.8486V4.53125ZM32.4053 4.53125H37.0635V6.05176H34.2158V10.9385H36.8877V12.4766H34.2158V20H32.4053V4.53125Z"/>
</g>
</g>
<defs>
<linearGradient id="sen-r-status-paint0_linear" x1="28" y1="34" x2="28" y2="29" gradientUnits="userSpaceOnUse">
<stop stop-color="#4F4F4F"/>
<stop offset="0.519337" stop-color="#BDBDBD"/>
<stop offset="1" stop-color="#4F4F4F"/>
</linearGradient>
</defs>
</svg>
