<svg width="78" height="77" viewBox="0 0 78 77" fill="none" xmlns="http://www.w3.org/2000/svg">
<style>
        #senist
        {
        	font-family: "Antonio-Regular";
			font-style: normal;
			font-weight: normal;
			font-size: 18px;
			text-align: center;
        }
   	</style>
<g>
<g id="senist" class="fault" format="%.1f" reference="SEN-T-ITP">
<text x="50%" y="33" text-anchor="middle">...</text>
</g>
<path id="TEMP ITP" d="M13.2832 55.5312H17.6514V56.5508H16.2012V71H14.9004V56.5508H13.2832V55.5312ZM19.418 55.5312H23.5049V56.5508H20.7275V62.5977H23.3379V63.6611H20.7275V69.9629H23.4785V71H19.418V55.5312ZM31.9072 55.5312H33.375V71H32.1885V64.373L32.3906 58.1416L30.1846 70.666H28.9365L26.6514 58.1416L26.8535 64.373V71H25.6582V55.5312H27.126L29.5605 68.5215L31.9072 55.5312ZM40.248 60.1982V59.7852C40.248 58.6484 40.1602 57.8369 39.9844 57.3506C39.8145 56.8643 39.4688 56.6211 38.9473 56.6211H37.4971V63.8369H38.8857C39.4248 63.8369 39.7852 63.582 39.9668 63.0723C40.1543 62.5566 40.248 61.5986 40.248 60.1982ZM36.1875 55.5312H38.877C39.5098 55.5312 40.0078 55.6514 40.3711 55.8916C40.7402 56.126 40.9863 56.3896 41.1094 56.6826C41.3203 57.21 41.4463 57.7227 41.4873 58.2207C41.5342 58.7188 41.5576 59.3193 41.5576 60.0225V60.1807C41.5576 61.5225 41.4727 62.4688 41.3027 63.0195C41.1387 63.5703 40.9512 63.9658 40.7402 64.2061C40.3125 64.6982 39.665 64.9443 38.7979 64.9443H37.4971V71H36.1875V55.5312ZM49.7051 55.5312H51.0146V71H49.7051V55.5312ZM52.9219 55.5312H57.29V56.5508H55.8398V71H54.5391V56.5508H52.9219V55.5312ZM63.1172 60.1982V59.7852C63.1172 58.6484 63.0293 57.8369 62.8535 57.3506C62.6836 56.8643 62.3379 56.6211 61.8164 56.6211H60.3662V63.8369H61.7549C62.2939 63.8369 62.6543 63.582 62.8359 63.0723C63.0234 62.5566 63.1172 61.5986 63.1172 60.1982ZM59.0566 55.5312H61.7461C62.3789 55.5312 62.877 55.6514 63.2402 55.8916C63.6094 56.126 63.8555 56.3896 63.9785 56.6826C64.1895 57.21 64.3154 57.7227 64.3564 58.2207C64.4033 58.7188 64.4268 59.3193 64.4268 60.0225V60.1807C64.4268 61.5225 64.3418 62.4688 64.1719 63.0195C64.0078 63.5703 63.8203 63.9658 63.6094 64.2061C63.1816 64.6982 62.5342 64.9443 61.667 64.9443H60.3662V71H59.0566V55.5312Z" fill="white"/>
</g>
</svg>
