<svg width="78" height="77" viewBox="0 0 78 77" fill="none" xmlns="http://www.w3.org/2000/svg">
<style>
        #senout
        {
        	font-family: "Antonio-Regular";
			font-style: normal;
			font-weight: normal;
			font-size: 18px;
			text-align: center;
        }
   	</style>
<g>
<g id="senout" class="fault" format="%.1f" reference="SEN-T-OUT">
<text x="50%" y="33" text-anchor="middle">...</text>
</g>
<path id="TEMP OUT" d="M11.2969 55.5312H15.665V56.5508H14.2148V71H12.9141V56.5508H11.2969V55.5312ZM17.4316 55.5312H21.5186V56.5508H18.7412V62.5977H21.3516V63.6611H18.7412V69.9629H21.4922V71H17.4316V55.5312ZM29.9209 55.5312H31.3887V71H30.2021V64.373L30.4043 58.1416L28.1982 70.666H26.9502L24.665 58.1416L24.8672 64.373V71H23.6719V55.5312H25.1396L27.5742 68.5215L29.9209 55.5312ZM38.2617 60.1982V59.7852C38.2617 58.6484 38.1738 57.8369 37.998 57.3506C37.8281 56.8643 37.4824 56.6211 36.9609 56.6211H35.5107V63.8369H36.8994C37.4385 63.8369 37.7988 63.582 37.9805 63.0723C38.168 62.5566 38.2617 61.5986 38.2617 60.1982ZM34.2012 55.5312H36.8906C37.5234 55.5312 38.0215 55.6514 38.3848 55.8916C38.7539 56.126 39 56.3896 39.123 56.6826C39.334 57.21 39.46 57.7227 39.501 58.2207C39.5479 58.7188 39.5713 59.3193 39.5713 60.0225V60.1807C39.5713 61.5225 39.4863 62.4688 39.3164 63.0195C39.1523 63.5703 38.9648 63.9658 38.7539 64.2061C38.3262 64.6982 37.6787 64.9443 36.8115 64.9443H35.5107V71H34.2012V55.5312ZM51.4629 59.75C51.4629 58.5195 51.3721 57.6553 51.1904 57.1572C51.0146 56.6592 50.6514 56.4102 50.1006 56.4102C49.5498 56.4102 49.1689 56.668 48.958 57.1836C48.7471 57.6934 48.6416 58.5459 48.6416 59.7412V66.4385C48.6416 67.8623 48.7148 68.7734 48.8613 69.1719C49.0078 69.5703 49.1689 69.8252 49.3447 69.9365C49.5264 70.0479 49.7637 70.1035 50.0566 70.1035C50.3496 70.1035 50.584 70.0479 50.7598 69.9365C50.9355 69.8252 51.0967 69.5732 51.2432 69.1807C51.3896 68.7822 51.4629 67.8682 51.4629 66.4385V59.75ZM47.332 59.8555C47.332 57.9863 47.5664 56.7676 48.0352 56.1992C48.5039 55.625 49.2246 55.3379 50.1973 55.3379C51.1699 55.3379 51.8408 55.6543 52.21 56.2871C52.4561 56.7148 52.6113 57.2129 52.6758 57.7812C52.7402 58.3496 52.7725 59.041 52.7725 59.8555V66.4385C52.7725 67.7803 52.6904 68.7266 52.5264 69.2773C52.3682 69.8223 52.1895 70.2119 51.9902 70.4463C51.5684 70.9326 50.9268 71.1758 50.0654 71.1758C48.7822 71.1758 47.9795 70.6221 47.6572 69.5146C47.4404 68.7881 47.332 67.7627 47.332 66.4385V59.8555ZM59.373 55.5312H60.6826V67.0273C60.6826 68.4805 60.498 69.5381 60.1289 70.2002C59.7598 70.8564 59.042 71.1846 57.9756 71.1846C56.9092 71.1846 56.1855 70.8535 55.8047 70.1914C55.4297 69.5293 55.2422 68.4746 55.2422 67.0273V55.5312H56.5518V66.9834C56.5518 68.0557 56.5986 68.7705 56.6924 69.1279C56.8682 69.7783 57.2783 70.1035 57.9229 70.1035C58.4502 70.1035 58.8223 69.9541 59.0391 69.6553C59.2617 69.3506 59.373 68.4629 59.373 66.9922V55.5312ZM62.3262 55.5312H66.6943V56.5508H65.2441V71H63.9434V56.5508H62.3262V55.5312Z" fill="white"/>
</g>
</svg>
