<svg width="51" height="45" viewBox="0 0 51 45" fill="none" xmlns="http://www.w3.org/2000/svg">
	<style>
        #SEN
        {
        	font-family="Antonio-Regular";
			font-style: normal;
			font-weight: normal;
			font-size: 18px;
			text-align: center;
        }
   	</style>
<g>
<g id="PIPE2">
<path id="Vector" d="M35 25H37V43H35V25Z" fill="#2F80ED"/>
<path id="Vector_2" d="M25 23H30C32.2091 23 34 24.7909 34 27V41C34 43.2091 32.2091 45 30 45H25C22.7909 45 21 43.2091 21 41V27C21 24.7909 22.7909 23 25 23Z" fill="#2F80ED"/>
<path id="Vector_3" fill-rule="evenodd" clip-rule="evenodd" d="M26.9032 36.8548H26.0806C26.0484 36.8548 26.0161 36.8548 26 36.8387C25.9839 36.8387 25.9839 36.8387 25.9839 36.8387C25.9839 36.8387 25.9839 36.8387 25.9677 36.8387C25.7903 36.7742 25.6613 36.5968 25.6613 36.371C25.6613 36.1613 25.7581 36 25.9032 35.9194H25.9194C25.9355 35.9032 25.9355 35.9032 25.9355 35.9032C25.9839 35.8871 26.0323 35.871 26.0806 35.871H26.9032C26.9677 35.871 27.0323 35.8871 27.0806 35.9194C27.0968 35.9194 27.0968 35.9355 27.0968 35.9355H27.1129C27.2419 36.0323 27.3226 36.1774 27.3226 36.371C27.3226 36.5645 27.2097 36.7419 27.0645 36.8065V36.8226C27.0484 36.8226 27.0484 36.8226 27.0484 36.8226H27.0323L27.0161 36.8387C26.9839 36.8387 26.9516 36.8548 26.9032 36.8548ZM26.9032 37.8226H24.4194C24.1935 37.8226 24 38.0484 24 38.3065C24 38.4516 24.0484 38.5806 24.1452 38.6774C24.1613 38.6935 24.1613 38.6935 24.1613 38.6935C24.1774 38.6935 24.1774 38.7097 24.1774 38.7097C24.1935 38.7097 24.1935 38.7097 24.1935 38.7258C24.2097 38.7258 24.2097 38.7419 24.2258 38.7419C24.2258 38.7419 24.2419 38.7419 24.2419 38.7581C24.2903 38.7742 24.3548 38.7903 24.4194 38.7903H26.9032C27.129 38.7903 27.3226 38.5806 27.3226 38.3065C27.3226 38.0484 27.129 37.8226 26.9032 37.8226ZM26.9032 34.9032H26.0806C26.0484 34.9032 26.0161 34.9032 26 34.8871C25.9839 34.8871 25.9839 34.8871 25.9839 34.8871C25.9839 34.8871 25.9839 34.8871 25.9677 34.8871C25.7903 34.8387 25.6613 34.6452 25.6613 34.4194C25.6613 34.2258 25.7581 34.0484 25.9032 33.9677H25.9194C25.9355 33.9677 25.9355 33.9677 25.9355 33.9677C25.9839 33.9355 26.0323 33.9355 26.0806 33.9355H26.9032C26.9677 33.9355 27.0323 33.9516 27.0806 33.9839C27.0968 33.9839 27.0968 33.9839 27.0968 33.9839L27.1129 34C27.2419 34.0806 27.3226 34.2419 27.3226 34.4194C27.3226 34.6129 27.2097 34.7903 27.0645 34.871C27.0484 34.871 27.0484 34.871 27.0484 34.871L27.0323 34.8871H27.0161C26.9839 34.9032 26.9516 34.9032 26.9032 34.9032ZM24.4194 32.9516H26.9032C27.129 32.9516 27.3226 32.7419 27.3226 32.4677C27.3226 32.2097 27.129 31.9839 26.9032 31.9839H24.4194C24.3226 31.9839 24.2419 32.0161 24.1613 32.0806C24.1613 32.0806 24.1613 32.0806 24.1613 32.0968C24.1613 32.0968 24.1452 32.0968 24.1452 32.1129C24.0484 32.1935 24 32.3226 24 32.4677C24 32.7419 24.1935 32.9516 24.4194 32.9516ZM25.9677 30.0645C26 30.0484 26.0484 30.0484 26.0806 30.0484H26.9032C26.9516 30.0484 27 30.0484 27.0484 30.0645C27.0484 30.0645 27.0484 30.0806 27.0645 30.0806H27.0806L27.0968 30.0968C27.2258 30.1774 27.3226 30.3387 27.3226 30.5323C27.3226 30.7903 27.129 31.0161 26.9032 31.0161H26.0806C25.8548 31.0161 25.6613 30.7903 25.6613 30.5323C25.6613 30.3226 25.7742 30.1452 25.9194 30.0806C25.9355 30.0806 25.9355 30.0645 25.9355 30.0645C25.9516 30.0645 25.9516 30.0645 25.9516 30.0645H25.9677ZM26.9032 29.0645H26.0806C26.0645 29.0645 26.0484 29.0645 26.0161 29.0645H26C25.9839 29.0645 25.9839 29.0645 25.9839 29.0484C25.8065 29 25.6613 28.8065 25.6613 28.5806C25.6613 28.3065 25.8548 28.0968 26.0806 28.0968H26.9032C27.129 28.0968 27.3226 28.3065 27.3226 28.5806C27.3226 28.7903 27.2097 28.9839 27.0323 29.0484H27.0161C27 29.0484 27 29.0484 27 29.0484C27 29.0645 27 29.0645 26.9839 29.0645C26.9516 29.0645 26.9355 29.0645 26.9032 29.0645ZM26.9032 27.129H24.4194C24.2903 27.129 24.1774 27.0645 24.0968 26.9516V26.9355C24.0806 26.9355 24.0806 26.9355 24.0806 26.9355C24.0323 26.8548 24 26.7419 24 26.6452C24 26.5323 24.0323 26.4194 24.0806 26.3387C24.0806 26.3387 24.0806 26.3387 24.0968 26.3387V26.3226C24.1774 26.2097 24.2903 26.1452 24.4194 26.1452H26.9032C26.9355 26.1452 26.9839 26.1613 27.0161 26.1613C27.0161 26.1774 27.0323 26.1774 27.0323 26.1774C27.0484 26.1774 27.0484 26.1774 27.0484 26.1774L27.0645 26.1935H27.0806C27.2258 26.2742 27.3226 26.4355 27.3226 26.6452C27.3226 26.8387 27.2258 27 27.0806 27.0806H27.0645L27.0484 27.0968C27.0484 27.0968 27.0484 27.0968 27.0323 27.0968C27.0323 27.0968 27.0161 27.0968 27.0161 27.1129C26.9839 27.1129 26.9355 27.129 26.9032 27.129ZM30.2581 38.7903V25.9677C30.2581 25.4355 29.8387 25 29.3065 25C28.7903 25 28.3548 25.4355 28.3548 25.9677V38.7903C26.2581 39.8065 26.9677 43 29.3065 43C31.6452 43 32.3548 39.8065 30.2581 38.7903ZM29.3065 31.7903C29.4839 31.7903 29.629 31.9355 29.629 32.1129V40.0968C30.3548 40.4516 30.1129 41.5484 29.3065 41.5484C28.5 41.5484 28.2581 40.4516 28.9839 40.0968V32.1129C28.9839 31.9355 29.129 31.7903 29.3065 31.7903Z" fill="white"/>
<path id="Vector_4" d="M39 37H49V40H39V37Z" fill="url(#sen-tbc-paint0_linear)"/>
<path id="Vector_5" d="M37 36H45V41H37V36Z" fill="url(#sen-tbc-paint1_linear)"/>
<path id="Vector_6" d="M46 36H50V41H46V36Z" fill="url(#sen-tbc-paint2_linear)"/>
<path id="Vector_7" d="M47 36H49.9904C51.4084 37.7772 51.2628 39.0848 49.9904 41H47V36Z" fill="url(#sen-tbc-paint3_linear)"/>
</g>
<g>
	<g id="SEN" class="fault" format="%.1f °C" reference="SEN-TBC">

		<text x="2" y="21">...</text>
	</g>
</g>
<defs>
<linearGradient id="sen-tbc-paint0_linear" x1="44" y1="37" x2="44" y2="40" gradientUnits="userSpaceOnUse">
<stop stop-color="#4F4F4F"/>
<stop offset="0.519337" stop-color="#BDBDBD"/>
<stop offset="1" stop-color="#4F4F4F"/>
</linearGradient>
<linearGradient id="sen-tbc-paint1_linear" x1="41" y1="36" x2="41" y2="41" gradientUnits="userSpaceOnUse">
<stop stop-color="#4F4F4F"/>
<stop offset="0.519337" stop-color="#BDBDBD"/>
<stop offset="1" stop-color="#4F4F4F"/>
</linearGradient>
<linearGradient id="sen-tbc-paint2_linear" x1="48" y1="36" x2="48" y2="41" gradientUnits="userSpaceOnUse">
<stop stop-color="#848484"/>
<stop offset="0.519337" stop-color="white"/>
<stop offset="1" stop-color="#848484"/>
</linearGradient>
<linearGradient id="sen-tbc-paint3_linear" x1="48.4954" y1="36" x2="48.4954" y2="41" gradientUnits="userSpaceOnUse">
<stop stop-color="#848484"/>
<stop offset="0.519337" stop-color="white"/>
<stop offset="1" stop-color="#848484"/>
</linearGradient>
</defs>
</svg>
