<svg width="81" height="24" viewBox="0 0 81 24" fill="none" xmlns="http://www.w3.org/2000/svg">
		<style>
        #SEN
        {
        	font-family: "Antonio-Regular";
			font-style: normal;
			font-weight: normal;
			font-size: 18px;
			text-align: center;
        }
   </style>
<g id="sen-tr">
<g id="PIPE2">
<path id="Vector" d="M14.6278 19.5459H13.2969L13.2969 2.90882H14.6278L14.6278 19.5459Z" fill="#2F80ED"/>
<path id="Vector_2" d="M24.6032 22.874H19.959C17.7498 22.874 15.959 21.0832 15.959 18.874L15.959 4.9131C15.959 2.70396 17.7498 0.913095 19.959 0.913095H24.6032C26.8123 0.913095 28.6032 2.70395 28.6032 4.91309V18.874C28.6032 21.0832 26.8123 22.874 24.6032 22.874Z" fill="#2F80ED"/>
<path id="Vector_3" fill-rule="evenodd" clip-rule="evenodd" d="M22.1513 14.6068H21.3287C21.2964 14.6068 21.2642 14.6068 21.248 14.5907C21.2319 14.5907 21.2319 14.5907 21.2319 14.5907C21.2319 14.5907 21.2319 14.5907 21.2158 14.5907C21.0384 14.5261 20.9093 14.3487 20.9093 14.1229C20.9093 13.9132 21.0061 13.752 21.1513 13.6713H21.1674C21.1835 13.6552 21.1835 13.6552 21.1835 13.6552C21.2319 13.639 21.2803 13.6229 21.3287 13.6229H22.1513C22.2158 13.6229 22.2803 13.639 22.3287 13.6713C22.3448 13.6713 22.3448 13.6874 22.3448 13.6874H22.361C22.49 13.7842 22.5706 13.9294 22.5706 14.1229C22.5706 14.3165 22.4577 14.4939 22.3126 14.5584V14.5745C22.2964 14.5745 22.2964 14.5745 22.2964 14.5745H22.2803L22.2642 14.5907C22.2319 14.5907 22.1997 14.6068 22.1513 14.6068ZM22.1513 15.5745H19.6674C19.4416 15.5745 19.248 15.8003 19.248 16.0584C19.248 16.2036 19.2964 16.3326 19.3932 16.4294C19.4093 16.4455 19.4093 16.4455 19.4093 16.4455C19.4255 16.4455 19.4255 16.4616 19.4255 16.4616C19.4416 16.4616 19.4416 16.4616 19.4416 16.4778C19.4577 16.4778 19.4577 16.4939 19.4739 16.4939C19.4739 16.4939 19.49 16.4939 19.49 16.51C19.5384 16.5261 19.6029 16.5423 19.6674 16.5423H22.1513C22.3771 16.5423 22.5706 16.3326 22.5706 16.0584C22.5706 15.8003 22.3771 15.5745 22.1513 15.5745ZM22.1513 12.6552H21.3287C21.2964 12.6552 21.2642 12.6552 21.248 12.639C21.2319 12.639 21.2319 12.639 21.2319 12.639C21.2319 12.639 21.2319 12.639 21.2158 12.639C21.0384 12.5907 20.9093 12.3971 20.9093 12.1713C20.9093 11.9778 21.0061 11.8003 21.1513 11.7197H21.1674C21.1835 11.7197 21.1835 11.7197 21.1835 11.7197C21.2319 11.6874 21.2803 11.6874 21.3287 11.6874H22.1513C22.2158 11.6874 22.2803 11.7036 22.3287 11.7358C22.3448 11.7358 22.3448 11.7358 22.3448 11.7358L22.361 11.752C22.49 11.8326 22.5706 11.9939 22.5706 12.1713C22.5706 12.3649 22.4577 12.5423 22.3126 12.6229C22.2964 12.6229 22.2964 12.6229 22.2964 12.6229L22.2803 12.639H22.2642C22.2319 12.6552 22.1997 12.6552 22.1513 12.6552ZM19.6674 10.7036H22.1513C22.3771 10.7036 22.5706 10.4939 22.5706 10.2197C22.5706 9.96163 22.3771 9.73582 22.1513 9.73582H19.6674C19.5706 9.73582 19.49 9.76808 19.4093 9.8326C19.4093 9.8326 19.4093 9.8326 19.4093 9.84873C19.4093 9.84873 19.3932 9.84873 19.3932 9.86486C19.2964 9.9455 19.248 10.0745 19.248 10.2197C19.248 10.4939 19.4416 10.7036 19.6674 10.7036ZM21.2158 7.81647C21.248 7.80034 21.2964 7.80034 21.3287 7.80034H22.1513C22.1997 7.80034 22.248 7.80034 22.2964 7.81647C22.2964 7.81647 22.2964 7.8326 22.3126 7.8326H22.3287L22.3448 7.84873C22.4739 7.92937 22.5706 8.09066 22.5706 8.28421C22.5706 8.54228 22.3771 8.76808 22.1513 8.76808H21.3287C21.1029 8.76808 20.9093 8.54228 20.9093 8.28421C20.9093 8.07453 21.0222 7.89711 21.1674 7.8326C21.1835 7.8326 21.1835 7.81647 21.1835 7.81647C21.1997 7.81647 21.1997 7.81647 21.1997 7.81647H21.2158ZM22.1513 6.81647H21.3287C21.3126 6.81647 21.2964 6.81647 21.2642 6.81647H21.248C21.2319 6.81647 21.2319 6.81647 21.2319 6.80034C21.0545 6.75195 20.9093 6.5584 20.9093 6.3326C20.9093 6.0584 21.1029 5.84873 21.3287 5.84873H22.1513C22.3771 5.84873 22.5706 6.0584 22.5706 6.3326C22.5706 6.54228 22.4577 6.73582 22.2803 6.80034H22.2642C22.248 6.80034 22.248 6.80034 22.248 6.80034C22.248 6.81647 22.248 6.81647 22.2319 6.81647C22.1997 6.81647 22.1835 6.81647 22.1513 6.81647ZM22.1513 4.88099H19.6674C19.5384 4.88099 19.4255 4.81647 19.3448 4.70357V4.68744C19.3287 4.68744 19.3287 4.68744 19.3287 4.68744C19.2803 4.60679 19.248 4.49389 19.248 4.39711C19.248 4.28421 19.2803 4.17131 19.3287 4.09066C19.3287 4.09066 19.3287 4.09066 19.3448 4.09066V4.07453C19.4255 3.96163 19.5384 3.89711 19.6674 3.89711H22.1513C22.1835 3.89711 22.2319 3.91324 22.2642 3.91324C22.2642 3.92937 22.2803 3.92937 22.2803 3.92937C22.2964 3.92937 22.2964 3.92937 22.2964 3.92937L22.3126 3.9455H22.3287C22.4739 4.02615 22.5706 4.18744 22.5706 4.39711C22.5706 4.59066 22.4739 4.75195 22.3287 4.8326H22.3126L22.2964 4.84873C22.2964 4.84873 22.2964 4.84873 22.2803 4.84873C22.2803 4.84873 22.2642 4.84873 22.2642 4.86486C22.2319 4.86486 22.1835 4.88099 22.1513 4.88099ZM25.5061 16.5423V3.7197C25.5061 3.18744 25.0868 2.75195 24.5545 2.75195C24.0384 2.75195 23.6029 3.18744 23.6029 3.7197V16.5423C21.5061 17.5584 22.2158 20.752 24.5545 20.752C26.8932 20.752 27.6029 17.5584 25.5061 16.5423ZM24.5545 9.54228C24.7319 9.54228 24.8771 9.68744 24.8771 9.86486V17.8487C25.6029 18.2036 25.361 19.3003 24.5545 19.3003C23.748 19.3003 23.5061 18.2036 24.2319 17.8487V9.86486C24.2319 9.68744 24.3771 9.54228 24.5545 9.54228Z" fill="white"/>
<path id="Vector_4" d="M10.8896 8.5L0.889648 8.5L0.889648 5.5L10.8896 5.5V8.5Z" fill="url(#sen-tr-paint0_linear)"/>
<path id="Vector_5" d="M13.2972 9.56445L3.98047 9.56445L3.98047 4.90608L13.2972 4.90608V9.56445Z" fill="url(#sen-tr-paint1_linear)"/>
<path id="Vector_6" d="M3.88965 9.87695H0L0 4.59224L3.88965 4.59224L3.88965 9.87695Z" fill="url(#sen-tr-paint2_linear)"/>
</g>
<g id="Group">
<g id="SEN" class="fault" format="%.1f °C" reference="SEN-TR">

		<text x="65%" y="21" text-anchor="middle">...</text>
	</g>
</g>
</g>
<defs>
<linearGradient id="sen-tr-paint0_linear" x1="5.88965" y1="8.5" x2="5.88965" y2="5.5" gradientUnits="userSpaceOnUse">
<stop stop-color="#4F4F4F"/>
<stop offset="0.519337" stop-color="#BDBDBD"/>
<stop offset="1" stop-color="#4F4F4F"/>
</linearGradient>
<linearGradient id="sen-tr-paint1_linear" x1="8.63885" y1="9.56445" x2="8.63885" y2="4.90608" gradientUnits="userSpaceOnUse">
<stop stop-color="#4F4F4F"/>
<stop offset="0.519337" stop-color="#BDBDBD"/>
<stop offset="1" stop-color="#4F4F4F"/>
</linearGradient>
<linearGradient id="sen-tr-paint2_linear" x1="1.94482" y1="9.87695" x2="1.94482" y2="4.59224" gradientUnits="userSpaceOnUse">
<stop stop-color="#848484"/>
<stop offset="0.519337" stop-color="white"/>
<stop offset="1" stop-color="#848484"/>
</linearGradient>
</defs>
</svg>
