<svg width="60" height="54" viewBox="0 0 60 54" fill="none" xmlns="http://www.w3.org/2000/svg">
		<style>
        #SEN
        {
        	font-family: "Antonio-Regular";
			font-style: normal;
			font-weight: normal;
			font-size: 18px;
			text-align: center;
        }
   </style>
<g>
<g>
<path id="Vector" d="M16 38V40H34V38H16Z" fill="#2F80ED"/>
<path id="Vector_2" d="M14 28V33C14 35.2091 15.7909 37 18 37H32C34.2091 37 36 35.2091 36 33V28C36 25.7909 34.2091 24 32 24H18C15.7909 24 14 25.7909 14 28Z" fill="#2F80ED"/>
<path id="Vector_3" fill-rule="evenodd" clip-rule="evenodd" d="M22.1452 29.9032V29.0806C22.1452 29.0484 22.1452 29.0161 22.1613 29C22.1613 28.9839 22.1613 28.9839 22.1613 28.9839C22.1613 28.9839 22.1613 28.9839 22.1613 28.9677C22.2258 28.7903 22.4032 28.6613 22.629 28.6613C22.8387 28.6613 23 28.7581 23.0806 28.9032V28.9194C23.0968 28.9355 23.0968 28.9355 23.0968 28.9355C23.1129 28.9839 23.129 29.0323 23.129 29.0806V29.9032C23.129 29.9677 23.1129 30.0323 23.0806 30.0806C23.0806 30.0968 23.0645 30.0968 23.0645 30.0968V30.1129C22.9677 30.2419 22.8226 30.3226 22.629 30.3226C22.4355 30.3226 22.2581 30.2097 22.1935 30.0645H22.1774C22.1774 30.0484 22.1774 30.0484 22.1774 30.0484V30.0323L22.1613 30.0161C22.1613 29.9839 22.1452 29.9516 22.1452 29.9032ZM21.1774 29.9032V27.4194C21.1774 27.1935 20.9516 27 20.6935 27C20.5484 27 20.4194 27.0484 20.3226 27.1452C20.3065 27.1613 20.3065 27.1613 20.3065 27.1613C20.3065 27.1774 20.2903 27.1774 20.2903 27.1774C20.2903 27.1935 20.2903 27.1935 20.2742 27.1935C20.2742 27.2097 20.2581 27.2097 20.2581 27.2258C20.2581 27.2258 20.2581 27.2419 20.2419 27.2419C20.2258 27.2903 20.2097 27.3548 20.2097 27.4194V29.9032C20.2097 30.129 20.4194 30.3226 20.6935 30.3226C20.9516 30.3226 21.1774 30.129 21.1774 29.9032ZM24.0968 29.9032V29.0806C24.0968 29.0484 24.0968 29.0161 24.1129 29C24.1129 28.9839 24.1129 28.9839 24.1129 28.9839C24.1129 28.9839 24.1129 28.9839 24.1129 28.9677C24.1613 28.7903 24.3548 28.6613 24.5806 28.6613C24.7742 28.6613 24.9516 28.7581 25.0323 28.9032V28.9194C25.0323 28.9355 25.0323 28.9355 25.0323 28.9355C25.0645 28.9839 25.0645 29.0323 25.0645 29.0806V29.9032C25.0645 29.9677 25.0484 30.0323 25.0161 30.0806C25.0161 30.0968 25.0161 30.0968 25.0161 30.0968L25 30.1129C24.9194 30.2419 24.7581 30.3226 24.5806 30.3226C24.3871 30.3226 24.2097 30.2097 24.129 30.0645C24.129 30.0484 24.129 30.0484 24.129 30.0484L24.1129 30.0323V30.0161C24.0968 29.9839 24.0968 29.9516 24.0968 29.9032ZM26.0484 27.4194V29.9032C26.0484 30.129 26.2581 30.3226 26.5323 30.3226C26.7903 30.3226 27.0161 30.129 27.0161 29.9032V27.4194C27.0161 27.3226 26.9839 27.2419 26.9194 27.1613C26.9194 27.1613 26.9194 27.1613 26.9032 27.1613C26.9032 27.1613 26.9032 27.1452 26.8871 27.1452C26.8065 27.0484 26.6774 27 26.5323 27C26.2581 27 26.0484 27.1935 26.0484 27.4194ZM28.9355 28.9677C28.9516 29 28.9516 29.0484 28.9516 29.0806V29.9032C28.9516 29.9516 28.9516 30 28.9355 30.0484C28.9355 30.0484 28.9194 30.0484 28.9194 30.0645V30.0806L28.9032 30.0968C28.8226 30.2258 28.6613 30.3226 28.4677 30.3226C28.2097 30.3226 27.9839 30.129 27.9839 29.9032V29.0806C27.9839 28.8548 28.2097 28.6613 28.4677 28.6613C28.6774 28.6613 28.8548 28.7742 28.9194 28.9194C28.9194 28.9355 28.9355 28.9355 28.9355 28.9355C28.9355 28.9516 28.9355 28.9516 28.9355 28.9516V28.9677ZM29.9355 29.9032V29.0806C29.9355 29.0645 29.9355 29.0484 29.9355 29.0161V29C29.9355 28.9839 29.9355 28.9839 29.9516 28.9839C30 28.8065 30.1935 28.6613 30.4194 28.6613C30.6935 28.6613 30.9032 28.8548 30.9032 29.0806V29.9032C30.9032 30.129 30.6935 30.3226 30.4194 30.3226C30.2097 30.3226 30.0161 30.2097 29.9516 30.0323V30.0161C29.9516 30 29.9516 30 29.9516 30C29.9355 30 29.9355 30 29.9355 29.9839C29.9355 29.9516 29.9355 29.9355 29.9355 29.9032ZM31.871 29.9032V27.4194C31.871 27.2903 31.9355 27.1774 32.0484 27.0968H32.0645C32.0645 27.0806 32.0645 27.0806 32.0645 27.0806C32.1452 27.0323 32.2581 27 32.3548 27C32.4677 27 32.5806 27.0323 32.6613 27.0806C32.6613 27.0806 32.6613 27.0806 32.6613 27.0968H32.6774C32.7903 27.1774 32.8548 27.2903 32.8548 27.4194V29.9032C32.8548 29.9355 32.8387 29.9839 32.8387 30.0161C32.8226 30.0161 32.8226 30.0323 32.8226 30.0323C32.8226 30.0484 32.8226 30.0484 32.8226 30.0484L32.8065 30.0645V30.0806C32.7258 30.2258 32.5645 30.3226 32.3548 30.3226C32.1613 30.3226 32 30.2258 31.9194 30.0806V30.0645L31.9032 30.0484C31.9032 30.0484 31.9032 30.0484 31.9032 30.0323C31.9032 30.0323 31.9032 30.0161 31.8871 30.0161C31.8871 29.9839 31.871 29.9355 31.871 29.9032ZM20.2097 33.2581H33.0323C33.5645 33.2581 34 32.8387 34 32.3065C34 31.7903 33.5645 31.3548 33.0323 31.3548H20.2097C19.1935 29.2581 16 29.9677 16 32.3065C16 34.6452 19.1935 35.3548 20.2097 33.2581ZM27.2097 32.3065C27.2097 32.4839 27.0645 32.629 26.8871 32.629H18.9032C18.5484 33.3548 17.4516 33.1129 17.4516 32.3065C17.4516 31.5 18.5484 31.2581 18.9032 31.9839H26.8871C27.0645 31.9839 27.2097 32.129 27.2097 32.3065Z" fill="white"/>
<path id="Vector_4" d="M28 42V52H31V42H28Z" fill="url(#sen-t-paint0_linear)"/>
<path id="Vector_5" d="M27 40V48H32V40H27Z" fill="url(#sen-t-paint1_linear)"/>
<path id="Vector_6" d="M27 49V53H32V49H27Z" fill="url(#sen-t-paint2_linear)"/>
<path id="Vector_7" d="M27 50V52.9904C28.7772 54.4084 30.0848 54.2628 32 52.9904V50H27Z" fill="url(#sen-t-paint3_linear)"/>
</g>
<g id="Group">
<g>
	<g id="SEN" class="fault" format="%.1f °C" reference="SEN-T">

	<text x="50%" y="21" text-anchor="middle">...</text>
	</g>
</g>
</g>
<defs>
<linearGradient id="sen-t-paint0_linear" x1="28" y1="47" x2="31" y2="47" gradientUnits="userSpaceOnUse">
<stop stop-color="#4F4F4F"/>
<stop offset="0.519337" stop-color="#BDBDBD"/>
<stop offset="1" stop-color="#4F4F4F"/>
</linearGradient>
<linearGradient id="sen-t-paint1_linear" x1="27" y1="44" x2="32" y2="44" gradientUnits="userSpaceOnUse">
<stop stop-color="#4F4F4F"/>
<stop offset="0.519337" stop-color="#BDBDBD"/>
<stop offset="1" stop-color="#4F4F4F"/>
</linearGradient>
<linearGradient id="sen-t-paint2_linear" x1="27" y1="51" x2="32" y2="51" gradientUnits="userSpaceOnUse">
<stop stop-color="#848484"/>
<stop offset="0.519337" stop-color="white"/>
<stop offset="1" stop-color="#848484"/>
</linearGradient>
<linearGradient id="sen-t-paint3_linear" x1="27" y1="51.4954" x2="32" y2="51.4954" gradientUnits="userSpaceOnUse">
<stop stop-color="#848484"/>
<stop offset="0.519337" stop-color="white"/>
<stop offset="1" stop-color="#848484"/>
</linearGradient>
</defs>
</g>
</svg>
