<svg width="62" height="34" viewBox="0 0 62 34" fill="none" xmlns="http://www.w3.org/2000/svg">
	<style>
        #SEN
        {
        	font-family: "Antonio-Regular";
			font-style: normal;
			font-weight: normal;
			font-size: 18px;
			text-align: center;
        }
   	</style>
<g id="Group">
<g id="Group_2">
<path id="Vector" d="M16 30L46 30V25L16 25V30Z" fill="url(#sen-r-pump-paint0_linear)"/>
<path id="Vector_2" d="M20.0049 30V25C20.0049 22.7909 21.7957 21 24.0049 21H38.0049C40.214 21 42.0049 22.7909 42.0049 25V30C42.0049 32.2091 40.214 34 38.0049 34H24.0049C21.7957 34 20.0049 32.2091 20.0049 30Z" fill="#2F80ED"/>
<path id="Vector_3" d="M43 34H45V21H43V34Z" fill="#2F80ED"/>
<path id="Vector_4" d="M17 34H19V21H17V34Z" fill="#2F80ED"/>
<path id="Vector_5" fill-rule="evenodd" clip-rule="evenodd" d="M26.0049 30.5699V32.2633H27.2364H27.3024V33H27.8302H28.7979V32.2633H32.8884V33H33.856H34.3838V32.2633H35.6814V30.5699H34.3838V29.8331H32.8884V30.5699H32.2506V29.9651C33.834 29.3823 34.9556 27.8649 34.9556 26.0835C34.9556 23.8183 33.1083 21.96 30.8431 21.96C28.567 21.96 26.7196 23.8183 26.7196 26.0835C26.7196 27.8649 27.8412 29.3823 29.4246 29.9651V30.5699H28.7979V29.8331H27.3024V30.5699H27.2364H26.0049ZM31.316 28.9755H30.3593H30.3483C30.2274 28.9645 30.1284 28.8655 30.1284 28.7445C30.1284 28.6236 30.2273 28.5136 30.3593 28.5136H31.316C31.4479 28.5136 31.5469 28.6236 31.5469 28.7445C31.5469 28.8655 31.4479 28.9645 31.327 28.9755H31.316ZM31.3599 26.2924C31.25 26.5783 30.9201 26.7213 30.6342 26.6003C30.3373 26.4904 30.2054 26.1605 30.3153 25.8746C30.3813 25.7206 30.5132 25.5997 30.6672 25.5557C31.7888 23.3785 32.0087 23.4665 31.327 25.8196C31.4039 25.9625 31.4259 26.1385 31.3599 26.2924ZM29.1387 27.7879C29.2267 27.8759 29.2267 28.0188 29.1387 28.1068L28.6109 28.6346C28.523 28.7225 28.369 28.7225 28.2811 28.6346C26.8736 27.2271 26.8736 24.9399 28.2811 23.5324C29.6885 22.1249 31.9867 22.1249 33.3942 23.5324C34.8017 24.9399 34.8017 27.2271 33.3942 28.6346C33.3502 28.6786 33.2842 28.7006 33.2293 28.7006C33.1743 28.7006 33.1193 28.6786 33.0753 28.6346L32.5365 28.1068C32.4485 28.0188 32.4485 27.8759 32.5365 27.7879C32.6245 27.6999 32.7674 27.6999 32.8664 27.7879L33.2293 28.1508C33.6801 27.6229 33.933 26.9742 33.988 26.3144H33.4932C33.3722 26.3144 33.2732 26.2155 33.2732 26.0835C33.2732 25.9625 33.3722 25.8636 33.4932 25.8636H33.988C33.933 25.2038 33.6801 24.5551 33.2293 24.0163L32.8664 24.3791C32.8224 24.4231 32.7564 24.4451 32.7015 24.4451C32.6465 24.4451 32.5805 24.4231 32.5365 24.3791C32.4485 24.2912 32.4485 24.1482 32.5365 24.0602L32.8994 23.6974C32.3716 23.2355 31.7228 22.9826 31.063 22.9386V23.4335C31.063 23.5544 30.9641 23.6534 30.8431 23.6534C30.7112 23.6534 30.6122 23.5544 30.6122 23.4335V22.9386C29.9524 22.9826 29.3037 23.2355 28.7759 23.6974L29.1387 24.0602C29.2267 24.1482 29.2267 24.2912 29.1387 24.3791C29.0948 24.4231 29.0288 24.4451 28.9738 24.4451C28.9188 24.4451 28.8638 24.4231 28.8199 24.3791L28.457 24.0163C27.9952 24.5551 27.7423 25.2038 27.6873 25.8636H28.1821C28.303 25.8636 28.402 25.9625 28.402 26.0835C28.402 26.2155 28.303 26.3144 28.1821 26.3144H27.6873C27.7423 26.9742 27.9952 27.6229 28.457 28.1508L28.8199 27.7879C28.9078 27.6999 29.0508 27.6999 29.1387 27.7879Z" fill="white"/>
</g>
<g id="flage">
<g id="SEN" class="fault" format="%.1f bar" reference="SEN-R-PUMP">

		<text x="50%" y="19" text-anchor="middle">...</text>
	</g>
</g>
</g>
<defs>
<linearGradient id="sen-rl-pump-paint0_linear" x1="31" y1="30" x2="31" y2="25" gradientUnits="userSpaceOnUse">
<stop stop-color="#4F4F4F"/>
<stop offset="0.519337" stop-color="#BDBDBD"/>
<stop offset="1" stop-color="#4F4F4F"/>
</linearGradient>
</defs>
</svg>
