<svg width="78" height="77" viewBox="0 0 78 77" fill="none" xmlns="http://www.w3.org/2000/svg">
<style>
        #senroom
        {
        	font-family: "Antonio-Regular";
			font-style: normal;
			font-weight: normal;
			font-size: 18px;
			text-align: center;
        }
   	</style>
<g>
<g id="senroom" class="fault" format="%.1f" reference="T_ROOM">
<text x="50%" y="33" text-anchor="middle">...</text>
</g>
<path id="TEMP Retfan"  d="M10.2773 1.5918H6.16406V13H4.48535V1.5918H0.380859V0.203125H10.2773V1.5918ZM18.7764 14.3271H10.7256V13H18.7764V14.3271ZM24.9902 7.82324H21.9844V13H20.2881V0.203125H24.5244C25.9658 0.203125 27.0732 0.53125 27.8467 1.1875C28.626 1.84375 29.0156 2.79883 29.0156 4.05273C29.0156 4.84961 28.7988 5.54395 28.3652 6.13574C27.9375 6.72754 27.3398 7.16992 26.5723 7.46289L29.5781 12.8945V13H27.7676L24.9902 7.82324ZM21.9844 6.44336H24.5771C25.415 6.44336 26.0801 6.22656 26.5723 5.79297C27.0703 5.35938 27.3193 4.7793 27.3193 4.05273C27.3193 3.26172 27.082 2.65527 26.6074 2.2334C26.1387 1.81152 25.459 1.59766 24.5684 1.5918H21.9844V6.44336ZM38.6221 7.08496H33.0762V11.6201H39.5186V13H31.3887V0.203125H39.4307V1.5918H33.0762V5.70508H38.6221V7.08496ZM50.6367 1.5918H46.5234V13H44.8447V1.5918H40.7402V0.203125H50.6367V1.5918Z" fill="white"/>
</g>

</svg>
