<svg width="54" height="30" viewBox="0 0 54 30" fill="none" xmlns="http://www.w3.org/2000/svg">
<g class="fault inactive" reference="SEN-RL-STATUS">
<g id="Group">
<path id="Vector" d="M50 30L50 0L45 0L45 30L50 30Z" fill="url(#sen-rl-status-paint0_linear)"/>
<path id="Vector_2" d="M50 25.9951L45 25.9951C42.7909 25.9951 41 24.2043 41 21.9951L41 7.99512C41 5.78598 42.7909 3.99512 45 3.99512L50 3.99512C52.2091 3.99512 54 5.78598 54 7.99512L54 21.9951C54 24.2043 52.2091 25.9951 50 25.9951Z" fill="#2F80ED"/>
<path id="Vector_3" d="M54 3V1L41 1V3L54 3Z" fill="#2F80ED"/>
<path id="Vector_4" d="M54 29V27L41 27V29L54 29Z" fill="#2F80ED"/>
<path id="Vector_5" fill-rule="evenodd" clip-rule="evenodd" d="M50.5699 19.9951H52.2633V18.7636V18.6976H53V18.1698V17.2021H52.2633V13.1116H53L53 12.144V11.6162H52.2633V10.3186L50.5699 10.3186V11.6162H49.8331L49.8331 13.1116L50.5699 13.1116V13.7494L49.9651 13.7494C49.3823 12.166 47.8649 11.0444 46.0835 11.0444C43.8183 11.0444 41.96 12.8917 41.96 15.1569C41.96 17.433 43.8183 19.2804 46.0835 19.2804C47.8649 19.2804 49.3823 18.1588 49.9651 16.5754H50.5699V17.2021H49.8331V18.6976H50.5699V18.7636V19.9951ZM48.9755 14.684V15.6407V15.6517C48.9645 15.7726 48.8655 15.8716 48.7445 15.8716C48.6236 15.8716 48.5136 15.7727 48.5136 15.6407V14.684C48.5136 14.5521 48.6236 14.4531 48.7445 14.4531C48.8655 14.4531 48.9645 14.5521 48.9755 14.673V14.684ZM46.2924 14.6401C46.5783 14.75 46.7213 15.0799 46.6003 15.3658C46.4904 15.6627 46.1605 15.7946 45.8746 15.6847C45.7206 15.6187 45.5997 15.4868 45.5557 15.3328C43.3785 14.2112 43.4665 13.9913 45.8196 14.673C45.9625 14.5961 46.1385 14.5741 46.2924 14.6401ZM47.7879 16.8613C47.8759 16.7733 48.0188 16.7733 48.1068 16.8613L48.6346 17.3891C48.7225 17.477 48.7225 17.631 48.6346 17.7189C47.2271 19.1264 44.9399 19.1264 43.5324 17.7189C42.1249 16.3115 42.1249 14.0133 43.5324 12.6058C44.9399 11.1983 47.2271 11.1983 48.6346 12.6058C48.6786 12.6498 48.7006 12.7158 48.7006 12.7707C48.7006 12.8257 48.6786 12.8807 48.6346 12.9247L48.1068 13.4635C48.0188 13.5515 47.8759 13.5515 47.7879 13.4635C47.6999 13.3755 47.6999 13.2326 47.7879 13.1336L48.1508 12.7707C47.6229 12.3199 46.9742 12.067 46.3144 12.012L46.3144 12.5068C46.3144 12.6278 46.2155 12.7268 46.0835 12.7268C45.9625 12.7268 45.8636 12.6278 45.8636 12.5068L45.8636 12.012C45.2038 12.067 44.5551 12.3199 44.0163 12.7707L44.3791 13.1336C44.4231 13.1776 44.4451 13.2436 44.4451 13.2985C44.4451 13.3535 44.4231 13.4195 44.3791 13.4635C44.2912 13.5515 44.1482 13.5515 44.0602 13.4635L43.6974 13.1006C43.2355 13.6284 42.9826 14.2772 42.9386 14.937L43.4335 14.937C43.5544 14.937 43.6534 15.0359 43.6534 15.1569C43.6534 15.2888 43.5544 15.3878 43.4335 15.3878L42.9386 15.3878C42.9826 16.0476 43.2355 16.6963 43.6974 17.2241L44.0602 16.8613C44.1482 16.7733 44.2912 16.7733 44.3791 16.8613C44.4231 16.9052 44.4451 16.9712 44.4451 17.0262C44.4451 17.0812 44.4231 17.1362 44.3791 17.1801L44.0163 17.543C44.5551 18.0048 45.2038 18.2577 45.8636 18.3127V17.8179C45.8636 17.697 45.9625 17.598 46.0835 17.598C46.2155 17.598 46.3144 17.697 46.3144 17.8179V18.3127C46.9742 18.2577 47.6229 18.0048 48.1508 17.543L47.7879 17.1801C47.6999 17.0922 47.6999 16.9492 47.7879 16.8613Z" fill="white"/>
</g>
<g  class="animation-display">
<path id="ON" d="M19.4854 12.7324C19.4854 10.9746 19.8018 9.76758 20.4346 9.11133C20.9326 8.5957 21.6562 8.33789 22.6055 8.33789C23.9883 8.33789 24.873 8.90625 25.2598 10.043C25.4883 10.7168 25.6025 11.6133 25.6025 12.7324V19.5527C25.6025 21.1641 25.377 22.3389 24.9258 23.0771C24.4746 23.8096 23.6836 24.1758 22.5527 24.1758C21.4277 24.1758 20.6338 23.8066 20.1709 23.0684C19.7139 22.3301 19.4854 21.1582 19.4854 19.5527V12.7324ZM23.7832 12.627C23.7832 11.6367 23.7041 10.9365 23.5459 10.5264C23.3877 10.1104 23.0684 9.90234 22.5879 9.90234C22.1074 9.90234 21.7734 10.1133 21.5859 10.5352C21.3984 10.957 21.3047 11.6514 21.3047 12.6182V19.5703C21.3047 20.748 21.3867 21.5508 21.5508 21.9785C21.7148 22.4004 22.0459 22.6113 22.5439 22.6113C23.042 22.6113 23.373 22.3975 23.5371 21.9697C23.7012 21.5361 23.7832 20.7363 23.7832 19.5703V12.627ZM32.7305 8.53125H34.3389V24H33.0029L29.5312 13.3828L29.6367 17.2852V24H27.958V8.53125H29.3291L32.915 19.0605L32.7305 14.5869V8.53125Z"/>
</g>
<g  class="animation-hide">
<path id="OFF" d="M17.3848 12.7324C17.3848 10.9746 17.7012 9.76758 18.334 9.11133C18.832 8.5957 19.5557 8.33789 20.5049 8.33789C21.8877 8.33789 22.7725 8.90625 23.1592 10.043C23.3877 10.7168 23.502 11.6133 23.502 12.7324V19.5527C23.502 21.1641 23.2764 22.3389 22.8252 23.0771C22.374 23.8096 21.583 24.1758 20.4521 24.1758C19.3271 24.1758 18.5332 23.8066 18.0703 23.0684C17.6133 22.3301 17.3848 21.1582 17.3848 19.5527V12.7324ZM21.6826 12.627C21.6826 11.6367 21.6035 10.9365 21.4453 10.5264C21.2871 10.1104 20.9678 9.90234 20.4873 9.90234C20.0068 9.90234 19.6729 10.1133 19.4854 10.5352C19.2979 10.957 19.2041 11.6514 19.2041 12.6182V19.5703C19.2041 20.748 19.2861 21.5508 19.4502 21.9785C19.6143 22.4004 19.9453 22.6113 20.4434 22.6113C20.9414 22.6113 21.2725 22.3975 21.4365 21.9697C21.6006 21.5361 21.6826 20.7363 21.6826 19.5703V12.627ZM25.8486 8.53125H30.5068V10.0518H27.6592V14.9385H30.3311V16.4766H27.6592V24H25.8486V8.53125ZM32.4053 8.53125H37.0635V10.0518H34.2158V14.9385H36.8877V16.4766H34.2158V24H32.4053V8.53125Z"/>
</g>
</g>
<defs>
<linearGradient id="sen-rl-status-paint0_linear" x1="50" y1="15" x2="45" y2="15" gradientUnits="userSpaceOnUse">
<stop stop-color="#4F4F4F"/>
<stop offset="0.519337" stop-color="#BDBDBD"/>
<stop offset="1" stop-color="#4F4F4F"/>
</linearGradient>
</defs>
</svg>
