<svg width="110" height="25" viewBox="0 0 70 25" fill="none" xmlns="http://www.w3.org/2000/svg">
	<style>
        #SEN
        {
        	font-family: "Antonio-Regular";
			font-style: normal;
			font-weight: normal;
			font-size: 18px;
			text-align: center;
        }
   	</style>
<g>
<g id="PIPE2">
<path id="Vector" d="M68.5 3.5H70.5V21.5H68.5V3.5Z" fill="#2F80ED"></path>
<path id="Vector_2" d="M58.5 1.5L63.5 1.5C65.7091 1.5 67.5 3.29086 67.5 5.5V19.5C67.5 21.7091 65.7091 23.5 63.5 23.5H58.5C56.2909 23.5 54.5 21.7091 54.5 19.5V5.5C54.5 3.29086 56.2909 1.5 58.5 1.5Z" fill="#2F80ED"></path>
<path id="Vector_3" fill-rule="evenodd" clip-rule="evenodd" d="M64.1099 7.5H65.8033V8.73155V8.79753H66.54V9.32534V10.293H65.8033V14.3835H66.54V15.3512V15.879H65.8033V17.1765H64.1099V15.879H63.3732V14.3835H64.1099V13.7457H63.5051C62.9223 15.3292 61.4049 16.4508 59.6235 16.4508C57.3584 16.4508 55.5 14.6034 55.5 12.3382C55.5 10.0621 57.3584 8.21474 59.6235 8.21474C61.4049 8.21474 62.9223 9.33633 63.5051 10.9198H64.1099V10.293H63.3732V8.79753H64.1099V8.73155V7.5ZM62.5155 12.8111V11.8544V11.8434C62.5045 11.7225 62.4055 11.6235 62.2846 11.6235C62.1636 11.6235 62.0537 11.7225 62.0537 11.8544V12.8111C62.0537 12.943 62.1636 13.042 62.2846 13.042C62.4055 13.042 62.5045 12.943 62.5155 12.8221V12.8111ZM59.8325 12.8551C60.1184 12.7451 60.2613 12.4152 60.1404 12.1293C60.0304 11.8324 59.7005 11.7005 59.4146 11.8104C59.2607 11.8764 59.1397 12.0084 59.0957 12.1623C56.9185 13.2839 57.0065 13.5038 59.3596 12.8221C59.5026 12.899 59.6785 12.921 59.8325 12.8551ZM61.3279 10.6339C61.4159 10.7218 61.5588 10.7218 61.6468 10.6339L62.1746 10.1061C62.2626 10.0181 62.2626 9.86414 62.1746 9.77617C60.7671 8.36868 58.48 8.36868 57.0725 9.77617C55.665 11.1837 55.665 13.4818 57.0725 14.8893C58.48 16.2968 60.7671 16.2968 62.1746 14.8893C62.2186 14.8453 62.2406 14.7794 62.2406 14.7244C62.2406 14.6694 62.2186 14.6144 62.1746 14.5704L61.6468 14.0316C61.5588 13.9437 61.4159 13.9437 61.3279 14.0316C61.24 14.1196 61.24 14.2625 61.3279 14.3615L61.6908 14.7244C61.163 15.1752 60.5142 15.4281 59.8545 15.4831V14.9883C59.8545 14.8673 59.7555 14.7684 59.6235 14.7684C59.5026 14.7684 59.4036 14.8673 59.4036 14.9883V15.4831C58.7439 15.4281 58.0951 15.1752 57.5563 14.7244L57.9192 14.3615C57.9631 14.3175 57.9851 14.2515 57.9851 14.1966C57.9851 14.1416 57.9631 14.0756 57.9192 14.0316C57.8312 13.9437 57.6882 13.9437 57.6003 14.0316L57.2374 14.3945C56.7756 13.8667 56.5227 13.2179 56.4787 12.5582H56.9735C57.0945 12.5582 57.1934 12.4592 57.1934 12.3382C57.1934 12.2063 57.0945 12.1073 56.9735 12.1073H56.4787C56.5227 11.4476 56.7756 10.7988 57.2374 10.271L57.6003 10.6339C57.6882 10.7218 57.8312 10.7218 57.9192 10.6339C57.9631 10.5899 57.9851 10.5239 57.9851 10.4689C57.9851 10.4139 57.9631 10.359 57.9192 10.315L57.5563 9.95211C58.0951 9.49028 58.7439 9.23737 59.4036 9.18239V9.67721C59.4036 9.79817 59.5026 9.89713 59.6235 9.89713C59.7555 9.89713 59.8545 9.79817 59.8545 9.67721V9.18239C60.5142 9.23737 61.163 9.49028 61.6908 9.95211L61.3279 10.315C61.24 10.4029 61.24 10.5459 61.3279 10.6339Z" fill="white"></path>
<path id="Vector_4" d="M72.5 15.5H82.5V18.5H72.5V15.5Z" fill="url(#senrll-paint0_linear)"></path>
<path id="Vector_5" d="M70.5 14.5H78.5V19.5H70.5V14.5Z" fill="url(#senrll-paint1_linear)"></path>
<path id="Vector_6" d="M79.5 14.5H83.5V19.5H79.5V14.5Z" fill="url(#senrll-paint2_linear)"></path>
<path id="Vector_7" d="M80.5 14.5H83.4904C84.9084 16.2772 84.7628 17.5848 83.4904 19.5H80.5V14.5Z" fill="url(#senrll-paint3_linear)"></path>
</g>
<g id="SEN" class="fault" format="%.1f bar" reference="SEN-RLL">

	<text x="20%" y="21" text-anchor="middle">...</text>
	</g>
</g>
<defs>
<linearGradient id="senrll-paint0_linear" x1="77.5" y1="15.5" x2="77.5" y2="18.5" gradientUnits="userSpaceOnUse">
<stop stop-color="#4F4F4F"></stop>
<stop offset="0.519337" stop-color="#BDBDBD"></stop>
<stop offset="1" stop-color="#4F4F4F"></stop>
</linearGradient>
<linearGradient id="senrll-paint1_linear" x1="74.5" y1="14.5" x2="74.5" y2="19.5" gradientUnits="userSpaceOnUse">
<stop stop-color="#4F4F4F"></stop>
<stop offset="0.519337" stop-color="#BDBDBD"></stop>
<stop offset="1" stop-color="#4F4F4F"></stop>
</linearGradient>
<linearGradient id="senrll-paint2_linear" x1="81.5" y1="14.5" x2="81.5" y2="19.5" gradientUnits="userSpaceOnUse">
<stop stop-color="#848484"></stop>
<stop offset="0.519337" stop-color="white"></stop>
<stop offset="1" stop-color="#848484"></stop>
</linearGradient>
<linearGradient id="senrll-paint3_linear" x1="81.9954" y1="14.5" x2="81.9954" y2="19.5" gradientUnits="userSpaceOnUse">
<stop stop-color="#848484"></stop>
<stop offset="0.519337" stop-color="white"></stop>
<stop offset="1" stop-color="#848484"></stop>
</linearGradient>
</defs>
</svg>