<svg width="54" height="55" viewBox="0 0 54 55" fill="none" xmlns="http://www.w3.org/2000/svg">
	<style>
        #SENRB
        {
        	font-family: "Antonio-Regular";
			font-style: normal;
			font-weight: normal;
			font-size: 18px;
			text-align: center;
        }
   </style>
<g id="sen-rb">
<g id="PIPE2">
<path id="Vector" d="M37 16.001V14.001L19 14.001V16.001H37Z" fill="#2F80ED"/>
<path id="Vector_2" d="M39 26.001V21.001C39 18.7918 37.2091 17.001 35 17.001H21C18.7909 17.001 17 18.7918 17 21.001V26.001C17 28.2101 18.7909 30.001 21 30.001H35C37.2091 30.001 39 28.2101 39 26.001Z" fill="#2F80ED"/>
<path id="Vector_3" fill-rule="evenodd" clip-rule="evenodd" d="M33 20.3911V18.6977H31.7684H31.7025V17.9609H31.1747H30.207V18.6977H26.1165V17.9609H25.1488H24.621V18.6977H23.3235V20.3911H24.621V21.1278H26.1165V20.3911H26.7543V20.9958C25.1708 21.5786 24.0492 23.0961 24.0492 24.8774C24.0492 27.1426 25.8966 29.0009 28.1618 29.0009C30.4379 29.0009 32.2853 27.1426 32.2853 24.8774C32.2853 23.0961 31.1637 21.5786 29.5802 20.9958V20.3911H30.207V21.1278H31.7025V20.3911H31.7684H33ZM27.6889 21.9855H28.6456H28.6566C28.7775 21.9965 28.8765 22.0954 28.8765 22.2164C28.8765 22.3374 28.7775 22.4473 28.6456 22.4473H27.6889C27.557 22.4473 27.458 22.3374 27.458 22.2164C27.458 22.0954 27.557 21.9965 27.6779 21.9855H27.6889ZM27.6449 24.6685C27.7549 24.3826 28.0848 24.2397 28.3707 24.3606C28.6676 24.4706 28.7995 24.8005 28.6896 25.0864C28.6236 25.2403 28.4916 25.3613 28.3377 25.4052C27.2161 27.5825 26.9962 27.4945 27.6779 25.1413C27.601 24.9984 27.579 24.8225 27.6449 24.6685ZM29.8661 23.173C29.7782 23.0851 29.7782 22.9421 29.8661 22.8542L30.3939 22.3264C30.4819 22.2384 30.6359 22.2384 30.7238 22.3264C32.1313 23.7338 32.1313 26.021 30.7238 27.4285C29.3163 28.836 27.0182 28.836 25.6107 27.4285C24.2032 26.021 24.2032 23.7338 25.6107 22.3264C25.6547 22.2824 25.7206 22.2604 25.7756 22.2604C25.8306 22.2604 25.8856 22.2824 25.9296 22.3264L26.4684 22.8542C26.5563 22.9421 26.5563 23.0851 26.4684 23.173C26.3804 23.261 26.2375 23.261 26.1385 23.173L25.7756 22.8102C25.3248 23.338 25.0719 23.9868 25.0169 24.6465H25.5117C25.6327 24.6465 25.7316 24.7455 25.7316 24.8774C25.7316 24.9984 25.6327 25.0974 25.5117 25.0974H25.0169C25.0719 25.7571 25.3248 26.4059 25.7756 26.9447L26.1385 26.5818C26.1825 26.5378 26.2485 26.5158 26.3034 26.5158C26.3584 26.5158 26.4244 26.5378 26.4684 26.5818C26.5563 26.6698 26.5563 26.8127 26.4684 26.9007L26.1055 27.2636C26.6333 27.7254 27.2821 27.9783 27.9418 28.0223V27.5275C27.9418 27.4065 28.0408 27.3076 28.1618 27.3076C28.2937 27.3076 28.3927 27.4065 28.3927 27.5275V28.0223C29.0524 27.9783 29.7012 27.7254 30.229 27.2636L29.8661 26.9007C29.7782 26.8127 29.7782 26.6698 29.8661 26.5818C29.9101 26.5378 29.9761 26.5158 30.0311 26.5158C30.0861 26.5158 30.141 26.5378 30.185 26.5818L30.5479 26.9447C31.0097 26.4059 31.2626 25.7571 31.3176 25.0974H30.8228C30.7018 25.0974 30.6029 24.9984 30.6029 24.8774C30.6029 24.7455 30.7018 24.6465 30.8228 24.6465H31.3176C31.2626 23.9868 31.0097 23.338 30.5479 22.8102L30.185 23.173C30.0971 23.261 29.9541 23.261 29.8661 23.173Z" fill="white"/>
<path id="Vector_4" d="M25 12.001V2.00098L22 2.00098V12.001H25Z" fill="url(#sen-rb-paint0_linear)"/>
<path id="Vector_5" d="M26 14.001V6.00098H21V14.001H26Z" fill="url(#sen-rb-paint1_linear)"/>
<path id="Vector_6" d="M26 5.00098V1.00098L21 1.00098V5.00098H26Z" fill="url(#sen-rb-paint2_linear)"/>
<path id="Vector_7" d="M26 4.00098V1.01059C24.2228 -0.407377 22.9152 -0.26178 21 1.01059V4.00098L26 4.00098Z" fill="url(#sen-rb-paint3_linear)"/>
</g>
<g id="Group">
<g id="SENRB" class="fault" format="%.1f bar" reference="SEN-RB">

		<text x="50%" y="50" text-anchor="middle">...</text>
	</g>
</g>
</g>
<defs>
<linearGradient id="sen-rb-paint0_linear" x1="25" y1="7.00098" x2="22" y2="7.00098" gradientUnits="userSpaceOnUse">
<stop stop-color="#4F4F4F"/>
<stop offset="0.519337" stop-color="#BDBDBD"/>
<stop offset="1" stop-color="#4F4F4F"/>
</linearGradient>
<linearGradient id="sen-rb-paint1_linear" x1="26" y1="10.001" x2="21" y2="10.001" gradientUnits="userSpaceOnUse">
<stop stop-color="#4F4F4F"/>
<stop offset="0.519337" stop-color="#BDBDBD"/>
<stop offset="1" stop-color="#4F4F4F"/>
</linearGradient>
<linearGradient id="sen-rb-paint2_linear" x1="26" y1="3.00098" x2="21" y2="3.00098" gradientUnits="userSpaceOnUse">
<stop stop-color="#848484"/>
<stop offset="0.519337" stop-color="white"/>
<stop offset="1" stop-color="#848484"/>
</linearGradient>
<linearGradient id="sen-rb-paint3_linear" x1="26" y1="2.50562" x2="21" y2="2.50562" gradientUnits="userSpaceOnUse">
<stop stop-color="#848484"/>
<stop offset="0.519337" stop-color="white"/>
<stop offset="1" stop-color="#848484"/>
</linearGradient>
</defs>
</svg>
