<svg width="60" height="55" viewBox="0 0 60 55" fill="none" xmlns="http://www.w3.org/2000/svg">
	<style>
        #SEN
        {
        	font-family: "Antonio-Regular";
			font-style: normal;
			font-weight: normal;
			font-size: 18px;
			text-align: center;
        }
   </style>
<g>
<g id="PIPE2">
<path id="Vector" d="M14 16V14L32 14V16L14 16Z" fill="#2F80ED"/>
<path id="Vector_2" d="M12 26V21C12 18.7909 13.7909 17 16 17H30C32.2091 17 34 18.7909 34 21V26C34 28.2091 32.2091 30 30 30H16C13.7909 30 12 28.2091 12 26Z" fill="#2F80ED"/>
<path id="Vector_3" fill-rule="evenodd" clip-rule="evenodd" d="M20.1452 22.4003V21.5777C20.1452 21.5455 20.1452 21.5132 20.1613 21.4971C20.1613 21.4809 20.1613 21.4809 20.1613 21.4809C20.1613 21.4809 20.1613 21.4809 20.1613 21.4648C20.2258 21.2874 20.4032 21.1584 20.629 21.1584C20.8387 21.1584 21 21.2551 21.0806 21.4003V21.4164C21.0968 21.4326 21.0968 21.4326 21.0968 21.4326C21.1129 21.4809 21.129 21.5293 21.129 21.5777V22.4003C21.129 22.4648 21.1129 22.5293 21.0806 22.5777C21.0806 22.5938 21.0645 22.5938 21.0645 22.5938V22.61C20.9677 22.739 20.8226 22.8197 20.629 22.8197C20.4355 22.8197 20.2581 22.7067 20.1935 22.5616H20.1774C20.1774 22.5455 20.1774 22.5455 20.1774 22.5455V22.5293L20.1613 22.5132C20.1613 22.4809 20.1452 22.4487 20.1452 22.4003ZM19.1774 22.4003V19.9164C19.1774 19.6906 18.9516 19.4971 18.6935 19.4971C18.5484 19.4971 18.4194 19.5455 18.3226 19.6422C18.3065 19.6584 18.3065 19.6584 18.3065 19.6584C18.3065 19.6745 18.2903 19.6745 18.2903 19.6745C18.2903 19.6906 18.2903 19.6906 18.2742 19.6906C18.2742 19.7067 18.2581 19.7067 18.2581 19.7229C18.2581 19.7229 18.2581 19.739 18.2419 19.739C18.2258 19.7874 18.2097 19.8519 18.2097 19.9164V22.4003C18.2097 22.6261 18.4194 22.8197 18.6935 22.8197C18.9516 22.8197 19.1774 22.6261 19.1774 22.4003ZM22.0968 22.4003V21.5777C22.0968 21.5455 22.0968 21.5132 22.1129 21.4971C22.1129 21.4809 22.1129 21.4809 22.1129 21.4809C22.1129 21.4809 22.1129 21.4809 22.1129 21.4648C22.1613 21.2874 22.3548 21.1584 22.5806 21.1584C22.7742 21.1584 22.9516 21.2551 23.0323 21.4003V21.4164C23.0323 21.4326 23.0323 21.4326 23.0323 21.4326C23.0645 21.4809 23.0645 21.5293 23.0645 21.5777V22.4003C23.0645 22.4648 23.0484 22.5293 23.0161 22.5777C23.0161 22.5938 23.0161 22.5938 23.0161 22.5938L23 22.61C22.9194 22.739 22.7581 22.8197 22.5806 22.8197C22.3871 22.8197 22.2097 22.7067 22.129 22.5616C22.129 22.5455 22.129 22.5455 22.129 22.5455L22.1129 22.5293V22.5132C22.0968 22.4809 22.0968 22.4487 22.0968 22.4003ZM24.0484 19.9164V22.4003C24.0484 22.6261 24.2581 22.8197 24.5323 22.8197C24.7903 22.8197 25.0161 22.6261 25.0161 22.4003V19.9164C25.0161 19.8197 24.9839 19.739 24.9194 19.6584C24.9194 19.6584 24.9194 19.6584 24.9032 19.6584C24.9032 19.6584 24.9032 19.6422 24.8871 19.6422C24.8065 19.5455 24.6774 19.4971 24.5323 19.4971C24.2581 19.4971 24.0484 19.6906 24.0484 19.9164ZM26.9355 21.4648C26.9516 21.4971 26.9516 21.5455 26.9516 21.5777V22.4003C26.9516 22.4487 26.9516 22.4971 26.9355 22.5455C26.9355 22.5455 26.9194 22.5455 26.9194 22.5616V22.5777L26.9032 22.5938C26.8226 22.7229 26.6613 22.8197 26.4677 22.8197C26.2097 22.8197 25.9839 22.6261 25.9839 22.4003V21.5777C25.9839 21.3519 26.2097 21.1584 26.4677 21.1584C26.6774 21.1584 26.8548 21.2713 26.9194 21.4164C26.9194 21.4326 26.9355 21.4326 26.9355 21.4326C26.9355 21.4487 26.9355 21.4487 26.9355 21.4487V21.4648ZM27.9355 22.4003V21.5777C27.9355 21.5616 27.9355 21.5455 27.9355 21.5132V21.4971C27.9355 21.4809 27.9355 21.4809 27.9516 21.4809C28 21.3035 28.1935 21.1584 28.4194 21.1584C28.6935 21.1584 28.9032 21.3519 28.9032 21.5777V22.4003C28.9032 22.6261 28.6935 22.8197 28.4194 22.8197C28.2097 22.8197 28.0161 22.7067 27.9516 22.5293V22.5132C27.9516 22.4971 27.9516 22.4971 27.9516 22.4971C27.9355 22.4971 27.9355 22.4971 27.9355 22.4809C27.9355 22.4487 27.9355 22.4326 27.9355 22.4003ZM29.871 22.4003V19.9164C29.871 19.7874 29.9355 19.6745 30.0484 19.5938H30.0645C30.0645 19.5777 30.0645 19.5777 30.0645 19.5777C30.1452 19.5293 30.2581 19.4971 30.3548 19.4971C30.4677 19.4971 30.5806 19.5293 30.6613 19.5777C30.6613 19.5777 30.6613 19.5777 30.6613 19.5938H30.6774C30.7903 19.6745 30.8548 19.7874 30.8548 19.9164V22.4003C30.8548 22.4326 30.8387 22.4809 30.8387 22.5132C30.8226 22.5132 30.8226 22.5293 30.8226 22.5293C30.8226 22.5455 30.8226 22.5455 30.8226 22.5455L30.8065 22.5616V22.5777C30.7258 22.7229 30.5645 22.8197 30.3548 22.8197C30.1613 22.8197 30 22.7229 29.9194 22.5777V22.5616L29.9032 22.5455C29.9032 22.5455 29.9032 22.5455 29.9032 22.5293C29.9032 22.5293 29.9032 22.5132 29.8871 22.5132C29.8871 22.4809 29.871 22.4326 29.871 22.4003ZM18.2097 25.7551H31.0323C31.5645 25.7551 32 25.3358 32 24.8035C32 24.2874 31.5645 23.8519 31.0323 23.8519H18.2097C17.1935 21.7551 14 22.4648 14 24.8035C14 27.1422 17.1935 27.8519 18.2097 25.7551ZM25.2097 24.8035C25.2097 24.9809 25.0645 25.1261 24.8871 25.1261H16.9032C16.5484 25.8519 15.4516 25.61 15.4516 24.8035C15.4516 23.9971 16.5484 23.7551 16.9032 24.4809H24.8871C25.0645 24.4809 25.2097 24.6261 25.2097 24.8035Z" fill="white"/>
<path id="Vector_4" d="M26 12V2L29 2V12H26Z" fill="url(#sen-tb-paint0_linear)"/>
<path id="Vector_5" d="M25 14V6H30V14H25Z" fill="url(#sen-tb-paint1_linear)"/>
<path id="Vector_6" d="M25 5V1L30 1V5H25Z" fill="url(#sen-tb-paint2_linear)"/>
<path id="Vector_7" d="M25 4V1.00962C26.7772 -0.408354 28.0848 -0.262756 30 1.00962V4L25 4Z" fill="url(#sen-tb-paint3_linear)"/>
</g>
<g id="Group">
<g id="SEN" class="fault" format="%.1f °C" reference="SEN-TB">

		<text x="50%" y="50" text-anchor="middle">...</text>
	</g>
</g>
</g>
<defs>
<linearGradient id="sen-tb-paint0_linear" x1="26" y1="7" x2="29" y2="7" gradientUnits="userSpaceOnUse">
<stop stop-color="#4F4F4F"/>
<stop offset="0.519337" stop-color="#BDBDBD"/>
<stop offset="1" stop-color="#4F4F4F"/>
</linearGradient>
<linearGradient id="sen-tb-paint1_linear" x1="25" y1="10" x2="30" y2="10" gradientUnits="userSpaceOnUse">
<stop stop-color="#4F4F4F"/>
<stop offset="0.519337" stop-color="#BDBDBD"/>
<stop offset="1" stop-color="#4F4F4F"/>
</linearGradient>
<linearGradient id="sen-tb-paint2_linear" x1="25" y1="3" x2="30" y2="3" gradientUnits="userSpaceOnUse">
<stop stop-color="#848484"/>
<stop offset="0.519337" stop-color="white"/>
<stop offset="1" stop-color="#848484"/>
</linearGradient>
<linearGradient id="sen-tb-paint3_linear" x1="25" y1="2.50464" x2="30" y2="2.50464" gradientUnits="userSpaceOnUse">
<stop stop-color="#848484"/>
<stop offset="0.519337" stop-color="white"/>
<stop offset="1" stop-color="#848484"/>
</linearGradient>
</defs>
</svg>
