<svg width="65" height="51" viewBox="0 0 65 51" fill="none" xmlns="http://www.w3.org/2000/svg">
	<style>
        #SEN
        {
        	font-family: "Antonio-Regular";
			font-style: normal;
			font-weight: normal;
			font-size: 18px;
        }
   	</style>
<g id="Group">
<g id="Group_2">
<path id="Vector" d="M61 51L61 21L56 21L56 51H61Z" fill="url(#sen-rl-pump-paint0_linear)"/>
<path id="Vector_2" d="M61 46.9951L56 46.9951C53.7909 46.9951 52 45.2043 52 42.9951L52 28.9951C52 26.786 53.7909 24.9951 56 24.9951L61 24.9951C63.2091 24.9951 65 26.786 65 28.9951L65 42.9951C65 45.2043 63.2091 46.9951 61 46.9951Z" fill="#2F80ED"/>
<path id="Vector_3" d="M65 24V22L52 22V24L65 24Z" fill="#2F80ED"/>
<path id="Vector_4" d="M65 50V48L52 48V50L65 50Z" fill="#2F80ED"/>
<path id="Vector_5" fill-rule="evenodd" clip-rule="evenodd" d="M61.5699 40.9951H63.2633V39.7636V39.6976H64V39.1698V38.2021H63.2633L63.2633 34.1116H64V33.144V32.6162H63.2633V31.3186H61.5699V32.6162H60.8331V34.1116H61.5699V34.7494H60.9651C60.3823 33.166 58.8649 32.0444 57.0835 32.0444C54.8183 32.0444 52.96 33.8917 52.96 36.1569C52.96 38.433 54.8183 40.2804 57.0835 40.2804C58.8649 40.2804 60.3823 39.1588 60.9651 37.5754H61.5699V38.2021H60.8331V39.6976H61.5699V39.7636V40.9951ZM59.9755 35.684V36.6407V36.6517C59.9645 36.7726 59.8655 36.8716 59.7445 36.8716C59.6236 36.8716 59.5136 36.7727 59.5136 36.6407V35.684C59.5136 35.5521 59.6236 35.4531 59.7445 35.4531C59.8655 35.4531 59.9645 35.5521 59.9755 35.673V35.684ZM57.2924 35.6401C57.5783 35.75 57.7213 36.0799 57.6003 36.3658C57.4904 36.6627 57.1605 36.7946 56.8746 36.6847C56.7206 36.6187 56.5997 36.4868 56.5557 36.3328C54.3785 35.2112 54.4665 34.9913 56.8196 35.673C56.9625 35.5961 57.1385 35.5741 57.2924 35.6401ZM58.7879 37.8613C58.8759 37.7733 59.0188 37.7733 59.1068 37.8613L59.6346 38.3891C59.7225 38.477 59.7225 38.631 59.6346 38.7189C58.2271 40.1264 55.9399 40.1264 54.5324 38.7189C53.1249 37.3115 53.1249 35.0133 54.5324 33.6058C55.9399 32.1983 58.2271 32.1983 59.6346 33.6058C59.6786 33.6498 59.7006 33.7158 59.7006 33.7707C59.7006 33.8257 59.6786 33.8807 59.6346 33.9247L59.1068 34.4635C59.0188 34.5515 58.8759 34.5515 58.7879 34.4635C58.6999 34.3755 58.6999 34.2326 58.7879 34.1336L59.1508 33.7707C58.6229 33.3199 57.9742 33.067 57.3144 33.012V33.5068C57.3144 33.6278 57.2155 33.7268 57.0835 33.7268C56.9625 33.7268 56.8636 33.6278 56.8636 33.5068V33.012C56.2038 33.067 55.5551 33.3199 55.0163 33.7707L55.3791 34.1336C55.4231 34.1776 55.4451 34.2436 55.4451 34.2985C55.4451 34.3535 55.4231 34.4195 55.3791 34.4635C55.2912 34.5515 55.1482 34.5515 55.0602 34.4635L54.6974 34.1006C54.2355 34.6284 53.9826 35.2772 53.9386 35.937H54.4335C54.5544 35.937 54.6534 36.0359 54.6534 36.1569C54.6534 36.2888 54.5544 36.3878 54.4335 36.3878H53.9386C53.9826 37.0476 54.2355 37.6963 54.6974 38.2241L55.0602 37.8613C55.1482 37.7733 55.2912 37.7733 55.3791 37.8613C55.4231 37.9052 55.4451 37.9712 55.4451 38.0262C55.4451 38.0812 55.4231 38.1362 55.3791 38.1801L55.0163 38.543C55.5551 39.0048 56.2038 39.2577 56.8636 39.3127V38.8179C56.8636 38.697 56.9625 38.598 57.0835 38.598C57.2155 38.598 57.3144 38.697 57.3144 38.8179V39.3127C57.9742 39.2577 58.6229 39.0048 59.1508 38.543L58.7879 38.1801C58.6999 38.0922 58.6999 37.9492 58.7879 37.8613Z" fill="white"/>
</g>
<g>
<g id="SEN" class="fault" format="%.1f bar" reference="SEN-RL-PUMP">

		<text x="65%" y="21" text-anchor="middle">...</text>
	</g>
</g>
</g>
<defs>
<linearGradient id="sen-rl-pump-paint0_linear" x1="61" y1="36" x2="56" y2="36" gradientUnits="userSpaceOnUse">
<stop stop-color="#4F4F4F"/>
<stop offset="0.519337" stop-color="#BDBDBD"/>
<stop offset="1" stop-color="#4F4F4F"/>
</linearGradient>
</defs>
</svg>
