<svg width="78" height="77" viewBox="0 0 78 77" fill="none" xmlns="http://www.w3.org/2000/svg">
<style>
        #senroom
        {
        	font-family: "Antonio-Regular";
			font-style: normal;
			font-weight: normal;
			font-size: 22px;
			text-align: center;
        }
   	</style>
<g>
<g id="senroom" class="fault" format="%.1f" reference="T_ROOM">
<text x="50%" y="33" text-anchor="middle">...</text>
</g>
<path id="TEMP ROOM"  d="M10.6182 1.5918H6.50488V13H4.82617V1.5918H0.72168V0.203125H10.6182V1.5918ZM19.1172 14.3271H11.0664V13H19.1172V14.3271ZM25.3311 7.82324H22.3252V13H20.6289V0.203125H24.8652C26.3066 0.203125 27.4141 0.53125 28.1875 1.1875C28.9668 1.84375 29.3564 2.79883 29.3564 4.05273C29.3564 4.84961 29.1396 5.54395 28.7061 6.13574C28.2783 6.72754 27.6807 7.16992 26.9131 7.46289L29.9189 12.8945V13H28.1084L25.3311 7.82324ZM22.3252 6.44336H24.918C25.7559 6.44336 26.4209 6.22656 26.9131 5.79297C27.4111 5.35938 27.6602 4.7793 27.6602 4.05273C27.6602 3.26172 27.4229 2.65527 26.9482 2.2334C26.4795 1.81152 25.7998 1.59766 24.9092 1.5918H22.3252V6.44336ZM41.5732 7.01465C41.5732 8.26855 41.3623 9.36426 40.9404 10.3018C40.5186 11.2334 39.9209 11.9453 39.1475 12.4375C38.374 12.9297 37.4717 13.1758 36.4404 13.1758C35.4326 13.1758 34.5391 12.9297 33.7598 12.4375C32.9805 11.9395 32.374 11.2334 31.9404 10.3193C31.5127 9.39941 31.293 8.33594 31.2812 7.12891V6.20605C31.2812 4.97559 31.4951 3.88867 31.9229 2.94531C32.3506 2.00195 32.9541 1.28125 33.7334 0.783203C34.5186 0.279297 35.415 0.0273438 36.4229 0.0273438C37.4482 0.0273438 38.3506 0.276367 39.1299 0.774414C39.915 1.2666 40.5186 1.98438 40.9404 2.92773C41.3623 3.86523 41.5732 4.95801 41.5732 6.20605V7.01465ZM39.8945 6.18848C39.8945 4.6709 39.5898 3.50781 38.9805 2.69922C38.3711 1.88477 37.5186 1.47754 36.4229 1.47754C35.3564 1.47754 34.5156 1.88477 33.9004 2.69922C33.291 3.50781 32.9775 4.63281 32.96 6.07422V7.01465C32.96 8.48535 33.2676 9.64258 33.8828 10.4863C34.5039 11.3242 35.3564 11.7432 36.4404 11.7432C37.5303 11.7432 38.374 11.3477 38.9717 10.5566C39.5693 9.75977 39.877 8.62012 39.8945 7.1377V6.18848ZM53.9482 7.01465C53.9482 8.26855 53.7373 9.36426 53.3154 10.3018C52.8936 11.2334 52.2959 11.9453 51.5225 12.4375C50.749 12.9297 49.8467 13.1758 48.8154 13.1758C47.8076 13.1758 46.9141 12.9297 46.1348 12.4375C45.3555 11.9395 44.749 11.2334 44.3154 10.3193C43.8877 9.39941 43.668 8.33594 43.6562 7.12891V6.20605C43.6562 4.97559 43.8701 3.88867 44.2979 2.94531C44.7256 2.00195 45.3291 1.28125 46.1084 0.783203C46.8936 0.279297 47.79 0.0273438 48.7979 0.0273438C49.8232 0.0273438 50.7256 0.276367 51.5049 0.774414C52.29 1.2666 52.8936 1.98438 53.3154 2.92773C53.7373 3.86523 53.9482 4.95801 53.9482 6.20605V7.01465ZM52.2695 6.18848C52.2695 4.6709 51.9648 3.50781 51.3555 2.69922C50.7461 1.88477 49.8936 1.47754 48.7979 1.47754C47.7314 1.47754 46.8906 1.88477 46.2754 2.69922C45.666 3.50781 45.3525 4.63281 45.335 6.07422V7.01465C45.335 8.48535 45.6426 9.64258 46.2578 10.4863C46.8789 11.3242 47.7314 11.7432 48.8154 11.7432C49.9053 11.7432 50.749 11.3477 51.3467 10.5566C51.9443 9.75977 52.252 8.62012 52.2695 7.1377V6.18848ZM58.6592 0.203125L62.8428 10.6445L67.0264 0.203125H69.2148V13H67.5273V8.0166L67.6855 2.6377L63.4844 13H62.1924L58 2.66406L58.167 8.0166V13H56.4795V0.203125H58.6592Z" fill="white"/>
</g>

</svg>
