<svg width="100" height="55" viewBox="0 0 100 55" fill="none" xmlns="http://www.w3.org/2000/svg">
	<style>
        #SEN
        {
        	font-family: "Antonio-Regular";
			font-style: normal;
			font-weight: normal;
			font-size: 18px;
			text-align: center;
        }
   	</style>
<g>
<g id="PIPE2">
<path id="Vector" d="M18 39V41H36V39H18Z" fill="#2F80ED"/>
<path id="Vector_2" d="M16 29V34C16 36.2091 17.7909 38 20 38H34C36.2091 38 38 36.2091 38 34V29C38 26.7909 36.2091 25 34 25H20C17.7909 25 16 26.7909 16 29Z" fill="#2F80ED"/>
<path id="Vector_3" fill-rule="evenodd" clip-rule="evenodd" d="M22 34.6099V36.3033H23.2316H23.2975V37.04H23.8253H24.793V36.3033H28.8835V37.04H29.8512H30.379V36.3033H31.6765V34.6099H30.379V33.8732H28.8835V34.6099H28.2457V34.0051C29.8292 33.4223 30.9508 31.9049 30.9508 30.1235C30.9508 27.8584 29.1034 26 26.8382 26C24.5621 26 22.7147 27.8584 22.7147 30.1235C22.7147 31.9049 23.8363 33.4223 25.4198 34.0051V34.6099H24.793V33.8732H23.2975V34.6099H23.2316H22ZM27.3111 33.0155H26.3544H26.3434C26.2225 33.0045 26.1235 32.9055 26.1235 32.7846C26.1235 32.6636 26.2225 32.5537 26.3544 32.5537H27.3111C27.443 32.5537 27.542 32.6636 27.542 32.7846C27.542 32.9055 27.443 33.0045 27.3221 33.0155H27.3111ZM27.3551 30.3325C27.2451 30.6184 26.9152 30.7613 26.6293 30.6404C26.3324 30.5304 26.2005 30.2005 26.3104 29.9146C26.3764 29.7607 26.5084 29.6397 26.6623 29.5957C27.7839 27.4185 28.0038 27.5065 27.3221 29.8596C27.399 30.0026 27.421 30.1785 27.3551 30.3325ZM25.1339 31.8279C25.2218 31.9159 25.2218 32.0588 25.1339 32.1468L24.6061 32.6746C24.5181 32.7626 24.3641 32.7626 24.2762 32.6746C22.8687 31.2671 22.8687 28.98 24.2762 27.5725C25.6837 26.165 27.9818 26.165 29.3893 27.5725C30.7968 28.98 30.7968 31.2671 29.3893 32.6746C29.3453 32.7186 29.2794 32.7406 29.2244 32.7406C29.1694 32.7406 29.1144 32.7186 29.0704 32.6746L28.5316 32.1468C28.4437 32.0588 28.4437 31.9159 28.5316 31.8279C28.6196 31.74 28.7625 31.74 28.8615 31.8279L29.2244 32.1908C29.6752 31.663 29.9281 31.0142 29.9831 30.3545H29.4883C29.3673 30.3545 29.2684 30.2555 29.2684 30.1235C29.2684 30.0026 29.3673 29.9036 29.4883 29.9036H29.9831C29.9281 29.2439 29.6752 28.5951 29.2244 28.0563L28.8615 28.4192C28.8175 28.4631 28.7515 28.4851 28.6966 28.4851C28.6416 28.4851 28.5756 28.4631 28.5316 28.4192C28.4437 28.3312 28.4437 28.1882 28.5316 28.1003L28.8945 27.7374C28.3667 27.2756 27.7179 27.0227 27.0582 26.9787V27.4735C27.0582 27.5945 26.9592 27.6934 26.8382 27.6934C26.7063 27.6934 26.6073 27.5945 26.6073 27.4735V26.9787C25.9476 27.0227 25.2988 27.2756 24.771 27.7374L25.1339 28.1003C25.2218 28.1882 25.2218 28.3312 25.1339 28.4192C25.0899 28.4631 25.0239 28.4851 24.9689 28.4851C24.9139 28.4851 24.859 28.4631 24.815 28.4192L24.4521 28.0563C23.9903 28.5951 23.7374 29.2439 23.6824 29.9036H24.1772C24.2982 29.9036 24.3971 30.0026 24.3971 30.1235C24.3971 30.2555 24.2982 30.3545 24.1772 30.3545H23.6824C23.7374 31.0142 23.9903 31.663 24.4521 32.1908L24.815 31.8279C24.9029 31.74 25.0459 31.74 25.1339 31.8279Z" fill="white"/>
<path id="Vector_4" d="M30 43V53H33V43H30Z" fill="url(#sen-r-paint0_linear)"/>
<path id="Vector_5" d="M29 41V49H34V41H29Z" fill="url(#sen-r-paint1_linear)"/>
<path id="Vector_6" d="M29 50V54H34V50H29Z" fill="url(#sen-r-paint2_linear)"/>
<path id="Vector_7" d="M29 51V53.9904C30.7772 55.4084 32.0848 55.2628 34 53.9904V51H29Z" fill="url(#sen-r-paint3_linear)"/>
</g>
<g id="flage">
<g id="SEN" class="fault" format="%.1f bar" reference="SEN-R">

		<text x="35%" y="22" text-anchor="middle">...</text>
	</g>
</g>
<defs>
<linearGradient id="sen-r-paint0_linear" x1="30" y1="48" x2="33" y2="48" gradientUnits="userSpaceOnUse">
<stop stop-color="#4F4F4F"/>
<stop offset="0.519337" stop-color="#BDBDBD"/>
<stop offset="1" stop-color="#4F4F4F"/>
</linearGradient>
<linearGradient id="sen-r-paint1_linear" x1="29" y1="45" x2="34" y2="45" gradientUnits="userSpaceOnUse">
<stop stop-color="#4F4F4F"/>
<stop offset="0.519337" stop-color="#BDBDBD"/>
<stop offset="1" stop-color="#4F4F4F"/>
</linearGradient>
<linearGradient id="sen-r-paint2_linear" x1="29" y1="52" x2="34" y2="52" gradientUnits="userSpaceOnUse">
<stop stop-color="#848484"/>
<stop offset="0.519337" stop-color="white"/>
<stop offset="1" stop-color="#848484"/>
</linearGradient>
<linearGradient id="sen-r-paint3_linear" x1="29" y1="52.4954" x2="34" y2="52.4954" gradientUnits="userSpaceOnUse">
<stop stop-color="#848484"/>
<stop offset="0.519337" stop-color="white"/>
<stop offset="1" stop-color="#848484"/>
</linearGradient>
</defs>
</svg>
