<svg width="80" height="45" viewBox="0 0 80 45" fill="none" xmlns="http://www.w3.org/2000/svg">
	<style>
        #SEN
        {
        	font-family: "Antonio-Regular";
			font-style: normal;
			font-weight: normal;
			font-size: 18px;
			text-align: center;
        }
   	</style>
<g>
<g id="PIPE2">
<path id="Vector" d="M35 25H37V43H35V25Z" fill="#2F80ED"/>
<path id="Vector_2" d="M25 23H30C32.2091 23 34 24.7909 34 27V41C34 43.2091 32.2091 45 30 45H25C22.7909 45 21 43.2091 21 41V27C21 24.7909 22.7909 23 25 23Z" fill="#2F80ED"/>
<path id="Vector_3" fill-rule="evenodd" clip-rule="evenodd" d="M30.6099 29H32.3033V30.2316V30.2975H33.04V30.8253V31.793H32.3033V35.8835H33.04V36.8512V37.379H32.3033V38.6765H30.6099V37.379H29.8732V35.8835H30.6099V35.2457H30.0051C29.4223 36.8292 27.9049 37.9508 26.1235 37.9508C23.8584 37.9508 22 36.1034 22 33.8382C22 31.5621 23.8584 29.7147 26.1235 29.7147C27.9049 29.7147 29.4223 30.8363 30.0051 32.4198H30.6099V31.793H29.8732V30.2975H30.6099V30.2316V29ZM29.0155 34.3111V33.3544V33.3434C29.0045 33.2225 28.9055 33.1235 28.7846 33.1235C28.6636 33.1235 28.5537 33.2225 28.5537 33.3544V34.3111C28.5537 34.443 28.6636 34.542 28.7846 34.542C28.9055 34.542 29.0045 34.443 29.0155 34.3221V34.3111ZM26.3325 34.3551C26.6184 34.2451 26.7613 33.9152 26.6404 33.6293C26.5304 33.3324 26.2005 33.2005 25.9146 33.3104C25.7607 33.3764 25.6397 33.5084 25.5957 33.6623C23.4185 34.7839 23.5065 35.0038 25.8596 34.3221C26.0026 34.399 26.1785 34.421 26.3325 34.3551ZM27.8279 32.1339C27.9159 32.2218 28.0588 32.2218 28.1468 32.1339L28.6746 31.6061C28.7626 31.5181 28.7626 31.3641 28.6746 31.2762C27.2671 29.8687 24.98 29.8687 23.5725 31.2762C22.165 32.6837 22.165 34.9818 23.5725 36.3893C24.98 37.7968 27.2671 37.7968 28.6746 36.3893C28.7186 36.3453 28.7406 36.2794 28.7406 36.2244C28.7406 36.1694 28.7186 36.1144 28.6746 36.0704L28.1468 35.5316C28.0588 35.4437 27.9159 35.4437 27.8279 35.5316C27.74 35.6196 27.74 35.7625 27.8279 35.8615L28.1908 36.2244C27.663 36.6752 27.0142 36.9281 26.3545 36.9831V36.4883C26.3545 36.3673 26.2555 36.2684 26.1235 36.2684C26.0026 36.2684 25.9036 36.3673 25.9036 36.4883V36.9831C25.2439 36.9281 24.5951 36.6752 24.0563 36.2244L24.4192 35.8615C24.4631 35.8175 24.4851 35.7515 24.4851 35.6966C24.4851 35.6416 24.4631 35.5756 24.4192 35.5316C24.3312 35.4437 24.1882 35.4437 24.1003 35.5316L23.7374 35.8945C23.2756 35.3667 23.0227 34.7179 22.9787 34.0582H23.4735C23.5945 34.0582 23.6934 33.9592 23.6934 33.8382C23.6934 33.7063 23.5945 33.6073 23.4735 33.6073H22.9787C23.0227 32.9476 23.2756 32.2988 23.7374 31.771L24.1003 32.1339C24.1882 32.2218 24.3312 32.2218 24.4192 32.1339C24.4631 32.0899 24.4851 32.0239 24.4851 31.9689C24.4851 31.9139 24.4631 31.859 24.4192 31.815L24.0563 31.4521C24.5951 30.9903 25.2439 30.7374 25.9036 30.6824V31.1772C25.9036 31.2982 26.0026 31.3971 26.1235 31.3971C26.2555 31.3971 26.3545 31.2982 26.3545 31.1772V30.6824C27.0142 30.7374 27.663 30.9903 28.1908 31.4521L27.8279 31.815C27.74 31.9029 27.74 32.0459 27.8279 32.1339Z" fill="white"/>
<path id="Vector_4" d="M39 37H49V40H39V37Z" fill="url(#sen-rl-paint0_linear)"/>
<path id="Vector_5" d="M37 36H45V41H37V36Z" fill="url(#sen-rl-paint1_linear)"/>
<path id="Vector_6" d="M46 36H50V41H46V36Z" fill="url(#sen-rl-paint2_linear)"/>
<path id="Vector_7" d="M47 36H49.9904C51.4084 37.7772 51.2628 39.0848 49.9904 41H47V36Z" fill="url(#sen-rl-paint3_linear)"/>
</g>
<g>
<g id="SEN" class="fault" format="%.1f bar" reference="SEN-RL">

	<text x="40%" y="21" text-anchor="middle">...</text>
	</g>
</g>
</g>
<defs>
<linearGradient id="sen-rl-paint0_linear" x1="44" y1="37" x2="44" y2="40" gradientUnits="userSpaceOnUse">
<stop stop-color="#4F4F4F"/>
<stop offset="0.519337" stop-color="#BDBDBD"/>
<stop offset="1" stop-color="#4F4F4F"/>
</linearGradient>
<linearGradient id="sen-rl-paint1_linear" x1="41" y1="36" x2="41" y2="41" gradientUnits="userSpaceOnUse">
<stop stop-color="#4F4F4F"/>
<stop offset="0.519337" stop-color="#BDBDBD"/>
<stop offset="1" stop-color="#4F4F4F"/>
</linearGradient>
<linearGradient id="sen-rl-paint2_linear" x1="48" y1="36" x2="48" y2="41" gradientUnits="userSpaceOnUse">
<stop stop-color="#848484"/>
<stop offset="0.519337" stop-color="white"/>
<stop offset="1" stop-color="#848484"/>
</linearGradient>
<linearGradient id="sen-rl-paint3_linear" x1="48.4954" y1="36" x2="48.4954" y2="41" gradientUnits="userSpaceOnUse">
<stop stop-color="#848484"/>
<stop offset="0.519337" stop-color="white"/>
<stop offset="1" stop-color="#848484"/>
</linearGradient>
</defs>
</svg>
