<svg width="85" height="25" viewBox="0 0 85 25" fill="none" xmlns="http://www.w3.org/2000/svg">
	<style>
        #SEN
        {
        	ffont-family: "Antonio-Regular";
			font-style: normal;
			font-weight: normal;
			font-size: 18px;
			text-align: center;
        }
   </style>
<g>
<g id="PIPE2">
<path id="Vector" d="M16.5 3.5H14.5L14.5 21.5H16.5V3.5Z" fill="#2F80ED"/>
<path id="Vector_2" d="M26.5 1.5L21.5 1.5C19.2909 1.5 17.5 3.29086 17.5 5.5V19.5C17.5 21.7091 19.2909 23.5 21.5 23.5H26.5C28.7091 23.5 30.5 21.7091 30.5 19.5V5.5C30.5 3.29086 28.7091 1.5 26.5 1.5Z" fill="#2F80ED"/>
<path id="Vector_3" fill-rule="evenodd" clip-rule="evenodd" d="M20.8901 7.5H19.1967V8.73155V8.79753H18.46V9.32534V10.293H19.1967V14.3835H18.46V15.3512V15.879H19.1967V17.1765H20.8901V15.879H21.6268V14.3835H20.8901V13.7457H21.4949C22.0777 15.3292 23.5951 16.4508 25.3765 16.4508C27.6416 16.4508 29.5 14.6034 29.5 12.3382C29.5 10.0621 27.6416 8.21474 25.3765 8.21474C23.5951 8.21474 22.0777 9.33633 21.4949 10.9198H20.8901V10.293H21.6268V8.79753H20.8901V8.73155V7.5ZM22.4845 12.8111V11.8544V11.8434C22.4955 11.7225 22.5945 11.6235 22.7154 11.6235C22.8364 11.6235 22.9463 11.7225 22.9463 11.8544V12.8111C22.9463 12.943 22.8364 13.042 22.7154 13.042C22.5945 13.042 22.4955 12.943 22.4845 12.8221V12.8111ZM25.1675 12.8551C24.8816 12.7451 24.7387 12.4152 24.8596 12.1293C24.9696 11.8324 25.2995 11.7005 25.5854 11.8104C25.7393 11.8764 25.8603 12.0084 25.9043 12.1623C28.0815 13.2839 27.9935 13.5038 25.6404 12.8221C25.4974 12.899 25.3215 12.921 25.1675 12.8551ZM23.6721 10.6339C23.5841 10.7218 23.4412 10.7218 23.3532 10.6339L22.8254 10.1061C22.7374 10.0181 22.7374 9.86414 22.8254 9.77617C24.2329 8.36868 26.52 8.36868 27.9275 9.77617C29.335 11.1837 29.335 13.4818 27.9275 14.8893C26.52 16.2968 24.2329 16.2968 22.8254 14.8893C22.7814 14.8453 22.7594 14.7794 22.7594 14.7244C22.7594 14.6694 22.7814 14.6144 22.8254 14.5704L23.3532 14.0316C23.4412 13.9437 23.5841 13.9437 23.6721 14.0316C23.76 14.1196 23.76 14.2625 23.6721 14.3615L23.3092 14.7244C23.837 15.1752 24.4858 15.4281 25.1455 15.4831V14.9883C25.1455 14.8673 25.2445 14.7684 25.3765 14.7684C25.4974 14.7684 25.5964 14.8673 25.5964 14.9883V15.4831C26.2561 15.4281 26.9049 15.1752 27.4437 14.7244L27.0808 14.3615C27.0369 14.3175 27.0149 14.2515 27.0149 14.1966C27.0149 14.1416 27.0369 14.0756 27.0808 14.0316C27.1688 13.9437 27.3118 13.9437 27.3997 14.0316L27.7626 14.3945C28.2244 13.8667 28.4773 13.2179 28.5213 12.5582H28.0265C27.9055 12.5582 27.8066 12.4592 27.8066 12.3382C27.8066 12.2063 27.9055 12.1073 28.0265 12.1073H28.5213C28.4773 11.4476 28.2244 10.7988 27.7626 10.271L27.3997 10.6339C27.3118 10.7218 27.1688 10.7218 27.0808 10.6339C27.0369 10.5899 27.0149 10.5239 27.0149 10.4689C27.0149 10.4139 27.0369 10.359 27.0808 10.315L27.4437 9.95211C26.9049 9.49028 26.2561 9.23737 25.5964 9.18239V9.67721C25.5964 9.79817 25.4974 9.89713 25.3765 9.89713C25.2445 9.89713 25.1455 9.79817 25.1455 9.67721V9.18239C24.4858 9.23737 23.837 9.49028 23.3092 9.95211L23.6721 10.315C23.76 10.4029 23.76 10.5459 23.6721 10.6339Z" fill="white"/>
<path id="Vector_4" d="M12.5 15.5H2.5V18.5H12.5V15.5Z" fill="url(#sen-rr-paint0_linear)"/>
<path id="Vector_5" d="M14.5 14.5H6.5V19.5H14.5V14.5Z" fill="url(#sen-rr-paint1_linear)"/>
<path id="Vector_6" d="M5.5 14.5H1.5L1.5 19.5H5.5V14.5Z" fill="url(#sen-rr-paint2_linear)"/>
<path id="Vector_7" d="M4.5 14.5H1.50962C0.091646 16.2772 0.237244 17.5848 1.50962 19.5H4.5L4.5 14.5Z" fill="url(#sen-rr-paint3_linear)"/>
</g>
<g id="flage">
<g id="SEN" class="fault" format="%.1f bar" reference="SEN-RR">

		<text x="80%" y="21" text-anchor="middle">...</text>
</g>
</g>
<defs>
<linearGradient id="sen-rr-paint0_linear" x1="7.5" y1="15.5" x2="7.5" y2="18.5" gradientUnits="userSpaceOnUse">
<stop stop-color="#4F4F4F"/>
<stop offset="0.519337" stop-color="#BDBDBD"/>
<stop offset="1" stop-color="#4F4F4F"/>
</linearGradient>
<linearGradient id="sen-rr-paint1_linear" x1="10.5" y1="14.5" x2="10.5" y2="19.5" gradientUnits="userSpaceOnUse">
<stop stop-color="#4F4F4F"/>
<stop offset="0.519337" stop-color="#BDBDBD"/>
<stop offset="1" stop-color="#4F4F4F"/>
</linearGradient>
<linearGradient id="sen-rr-paint2_linear" x1="3.5" y1="14.5" x2="3.5" y2="19.5" gradientUnits="userSpaceOnUse">
<stop stop-color="#848484"/>
<stop offset="0.519337" stop-color="white"/>
<stop offset="1" stop-color="#848484"/>
</linearGradient>
<linearGradient id="sen-rr-paint3_linear" x1="3.00464" y1="14.5" x2="3.00464" y2="19.5" gradientUnits="userSpaceOnUse">
<stop stop-color="#848484"/>
<stop offset="0.519337" stop-color="white"/>
<stop offset="1" stop-color="#848484"/>
</linearGradient>
</defs>
</svg>
