<svg width="54" height="30" viewBox="0 0 54 30" fill="none" xmlns="http://www.w3.org/2000/svg">
<g class="fault inactive" reference="SEN-RR-STATUS">
<g id="Group">
<path id="Vector" d="M4 30L4 0L9 0L9 30L4 30Z" fill="url(#sen-rr-status-paint0_linear)"/>
<path id="Vector_2" d="M4 25.9951L9 25.9951C11.2091 25.9951 13 24.2043 13 21.9951L13 7.99512C13 5.78598 11.2091 3.99512 9 3.99512L4 3.99512C1.79086 3.99512 0 5.78598 0 7.99512L0 21.9951C0 24.2043 1.79086 25.9951 4 25.9951Z" fill="#2F80ED"/>
<path id="Vector_3" d="M0 3L0 1L13 1L13 3L0 3Z" fill="#2F80ED"/>
<path id="Vector_4" d="M0 29L0 27L13 27L13 29L0 29Z" fill="#2F80ED"/>
<path id="Vector_5" fill-rule="evenodd" clip-rule="evenodd" d="M3.43012 19.9951H1.73673L1.73673 18.7636V18.6976H1L1 18.1698L1 17.2021H1.73673L1.73673 13.1116H1L1 12.144L1 11.6162H1.73673L1.73673 10.3186L3.43012 10.3186L3.43012 11.6162H4.16685V13.1116L3.43012 13.1116L3.43012 13.7494L4.0349 13.7494C4.61769 12.166 6.13514 11.0444 7.91649 11.0444C10.1817 11.0444 12.04 12.8917 12.04 15.1569C12.04 17.433 10.1817 19.2804 7.91649 19.2804C6.13514 19.2804 4.61769 18.1588 4.0349 16.5754H3.43012L3.43012 17.2021H4.16685L4.16685 18.6976H3.43012V18.7636L3.43012 19.9951ZM5.02454 14.684L5.02454 15.6407V15.6517C5.03554 15.7726 5.1345 15.8716 5.25546 15.8716C5.37641 15.8716 5.48637 15.7727 5.48637 15.6407L5.48637 14.684C5.48637 14.5521 5.37641 14.4531 5.25546 14.4531C5.1345 14.4531 5.03554 14.5521 5.02454 14.673V14.684ZM7.70757 14.6401C7.42167 14.75 7.27872 15.0799 7.39968 15.3658C7.50964 15.6627 7.83952 15.7946 8.12542 15.6847C8.27936 15.6187 8.40032 15.4868 8.4443 15.3328C10.6215 14.2112 10.5335 13.9913 8.1804 14.673C8.03745 14.5961 7.86151 14.5741 7.70757 14.6401ZM6.21211 16.8613C6.12414 16.7733 5.9812 16.7733 5.89323 16.8613L5.36542 17.3891C5.27745 17.477 5.27745 17.631 5.36542 17.7189C6.77291 19.1264 9.06008 19.1264 10.4676 17.7189C11.8751 16.3115 11.8751 14.0133 10.4676 12.6058C9.06008 11.1983 6.77291 11.1983 5.36542 12.6058C5.32143 12.6498 5.29944 12.7158 5.29944 12.7707C5.29944 12.8257 5.32143 12.8807 5.36542 12.9247L5.89323 13.4635C5.9812 13.5515 6.12414 13.5515 6.21211 13.4635C6.30008 13.3755 6.30008 13.2326 6.21211 13.1336L5.84924 12.7707C6.37705 12.3199 7.02582 12.067 7.68558 12.012L7.68558 12.5068C7.68558 12.6278 7.78454 12.7268 7.91649 12.7268C8.03745 12.7268 8.13641 12.6278 8.13641 12.5068V12.012C8.79618 12.067 9.44494 12.3199 9.98375 12.7707L9.62088 13.1336C9.57689 13.1776 9.5549 13.2436 9.5549 13.2985C9.5549 13.3535 9.57689 13.4195 9.62088 13.4635C9.70884 13.5515 9.85179 13.5515 9.93976 13.4635L10.3026 13.1006C10.7645 13.6284 11.0174 14.2772 11.0614 14.937L10.5665 14.937C10.4456 14.937 10.3466 15.0359 10.3466 15.1569C10.3466 15.2888 10.4456 15.3878 10.5665 15.3878L11.0614 15.3878C11.0174 16.0476 10.7645 16.6963 10.3026 17.2241L9.93976 16.8613C9.85179 16.7733 9.70884 16.7733 9.62088 16.8613C9.57689 16.9052 9.5549 16.9712 9.5549 17.0262C9.5549 17.0812 9.57689 17.1362 9.62088 17.1801L9.98375 17.543C9.44494 18.0048 8.79618 18.2577 8.13641 18.3127V17.8179C8.13641 17.697 8.03745 17.598 7.91649 17.598C7.78454 17.598 7.68558 17.697 7.68558 17.8179V18.3127C7.02582 18.2577 6.37705 18.0048 5.84924 17.543L6.21211 17.1801C6.30008 17.0922 6.30008 16.9492 6.21211 16.8613Z" fill="white"/>
</g>
<g  class="animation-display">
<path id="ON" d="M19.4854 12.7324C19.4854 10.9746 19.8018 9.76758 20.4346 9.11133C20.9326 8.5957 21.6562 8.33789 22.6055 8.33789C23.9883 8.33789 24.873 8.90625 25.2598 10.043C25.4883 10.7168 25.6025 11.6133 25.6025 12.7324L25.6025 19.5527C25.6025 21.1641 25.377 22.3389 24.9258 23.0771C24.4746 23.8096 23.6836 24.1758 22.5527 24.1758C21.4277 24.1758 20.6338 23.8066 20.1709 23.0684C19.7139 22.3301 19.4854 21.1582 19.4854 19.5527L19.4854 12.7324ZM23.7832 12.627C23.7832 11.6367 23.7041 10.9365 23.5459 10.5264C23.3877 10.1104 23.0684 9.90234 22.5879 9.90234C22.1074 9.90234 21.7734 10.1133 21.5859 10.5352C21.3984 10.957 21.3047 11.6514 21.3047 12.6182L21.3047 19.5703C21.3047 20.748 21.3867 21.5508 21.5508 21.9785C21.7148 22.4004 22.0459 22.6113 22.5439 22.6113C23.042 22.6113 23.373 22.3975 23.5371 21.9697C23.7012 21.5361 23.7832 20.7363 23.7832 19.5703L23.7832 12.627ZM32.7305 8.53125H34.3389V24L33.0029 24L29.5312 13.3828L29.6367 17.2852V24H27.958L27.958 8.53125H29.3291L32.915 19.0605L32.7305 14.5869V8.53125Z"/>
</g>
<g  class="animation-hide">
<path id="OFF" d="M17.3848 12.7324C17.3848 10.9746 17.7012 9.76758 18.334 9.11133C18.832 8.5957 19.5557 8.33789 20.5049 8.33789C21.8877 8.33789 22.7725 8.90625 23.1592 10.043C23.3877 10.7168 23.502 11.6133 23.502 12.7324L23.502 19.5527C23.502 21.1641 23.2764 22.3389 22.8252 23.0771C22.374 23.8096 21.583 24.1758 20.4521 24.1758C19.3271 24.1758 18.5332 23.8066 18.0703 23.0684C17.6133 22.3301 17.3848 21.1582 17.3848 19.5527L17.3848 12.7324ZM21.6826 12.627C21.6826 11.6367 21.6035 10.9365 21.4453 10.5264C21.2871 10.1104 20.9678 9.90234 20.4873 9.90234C20.0068 9.90234 19.6729 10.1133 19.4854 10.5352C19.2979 10.957 19.2041 11.6514 19.2041 12.6182L19.2041 19.5703C19.2041 20.748 19.2861 21.5508 19.4502 21.9785C19.6143 22.4004 19.9453 22.6113 20.4434 22.6113C20.9414 22.6113 21.2725 22.3975 21.4365 21.9697C21.6006 21.5361 21.6826 20.7363 21.6826 19.5703L21.6826 12.627ZM25.8486 8.53125H30.5068V10.0518H27.6592V14.9385L30.3311 14.9385L30.3311 16.4766L27.6592 16.4766V24H25.8486L25.8486 8.53125ZM32.4053 8.53125L37.0635 8.53125V10.0518L34.2158 10.0518V14.9385H36.8877V16.4766H34.2158V24L32.4053 24V8.53125Z"/>
</g>
</g>
<defs>
<linearGradient id="sen-rr-status-paint0_linear" x1="4" y1="15" x2="9" y2="15" gradientUnits="userSpaceOnUse">
<stop stop-color="#4F4F4F"/>
<stop offset="0.519337" stop-color="#BDBDBD"/>
<stop offset="1" stop-color="#4F4F4F"/>
</linearGradient>
</defs>
</svg>
