<svg width="75" height="30" viewBox="0 0 75 30" fill="none" xmlns="http://www.w3.org/2000/svg">
	<style>
        #SEN
        {
        	font-family: "Antonio-Regular";
			font-style: normal;
			font-weight: normal;
			font-size: 18px;
			text-align: center;
        }
   	</style>
<g id="sen-rr-pump">
<g id="Group">
<path id="Vector" d="M9 30L9 0L4 0L4 30H9Z" fill="url(#sen-rr-paint0_linear)"/>
<path id="Vector_2" d="M9 25.9951H4C1.79086 25.9951 0 24.2043 0 21.9951L0 7.99512C0 5.78598 1.79086 3.99512 4 3.99512H9C11.2091 3.99512 13 5.78598 13 7.99512V21.9951C13 24.2043 11.2091 25.9951 9 25.9951Z" fill="#2F80ED"/>
<path id="Vector_3" d="M13 3V1L0 1V3L13 3Z" fill="#2F80ED"/>
<path id="Vector_4" d="M13 29V27L0 27V29L13 29Z" fill="#2F80ED"/>
<path id="Vector_5" fill-rule="evenodd" clip-rule="evenodd" d="M9.56988 19.9951H11.2633V18.7636V18.6976H12V18.1698V17.2021H11.2633V13.1116H12V12.144V11.6162H11.2633V10.3186H9.56988V11.6162H8.83315V13.1116H9.56988V13.7494H8.9651C8.38231 12.166 6.86486 11.0444 5.08351 11.0444C2.81833 11.0444 0.96 12.8917 0.96 15.1569C0.96 17.433 2.81833 19.2804 5.08351 19.2804C6.86486 19.2804 8.38231 18.1588 8.9651 16.5754H9.56988V17.2021H8.83315V18.6976H9.56988V18.7636V19.9951ZM7.97546 14.684V15.6407V15.6517C7.96446 15.7726 7.8655 15.8716 7.74454 15.8716C7.62359 15.8716 7.51363 15.7727 7.51363 15.6407V14.684C7.51363 14.5521 7.62359 14.4531 7.74454 14.4531C7.8655 14.4531 7.96446 14.5521 7.97546 14.673V14.684ZM5.29243 14.6401C5.57833 14.75 5.72128 15.0799 5.60032 15.3658C5.49036 15.6627 5.16048 15.7946 4.87458 15.6847C4.72064 15.6187 4.59968 15.4868 4.5557 15.3328C2.37849 14.2112 2.46645 13.9913 4.8196 14.673C4.96255 14.5961 5.13849 14.5741 5.29243 14.6401ZM6.78789 16.8613C6.87586 16.7733 7.0188 16.7733 7.10677 16.8613L7.63458 17.3891C7.72255 17.477 7.72255 17.631 7.63458 17.7189C6.22709 19.1264 3.93992 19.1264 2.53243 17.7189C1.12494 16.3115 1.12494 14.0133 2.53243 12.6058C3.93992 11.1983 6.22709 11.1983 7.63458 12.6058C7.67857 12.6498 7.70056 12.7158 7.70056 12.7707C7.70056 12.8257 7.67857 12.8807 7.63458 12.9247L7.10677 13.4635C7.0188 13.5515 6.87586 13.5515 6.78789 13.4635C6.69992 13.3755 6.69992 13.2326 6.78789 13.1336L7.15076 12.7707C6.62295 12.3199 5.97418 12.067 5.31442 12.012V12.5068C5.31442 12.6278 5.21546 12.7268 5.08351 12.7268C4.96255 12.7268 4.86359 12.6278 4.86359 12.5068V12.012C4.20382 12.067 3.55506 12.3199 3.01625 12.7707L3.37912 13.1336C3.42311 13.1776 3.4451 13.2436 3.4451 13.2985C3.4451 13.3535 3.42311 13.4195 3.37912 13.4635C3.29116 13.5515 3.14821 13.5515 3.06024 13.4635L2.69737 13.1006C2.23554 13.6284 1.98263 14.2772 1.93865 14.937H2.43347C2.55442 14.937 2.65339 15.0359 2.65339 15.1569C2.65339 15.2888 2.55442 15.3878 2.43347 15.3878H1.93865C1.98263 16.0476 2.23554 16.6963 2.69737 17.2241L3.06024 16.8613C3.14821 16.7733 3.29116 16.7733 3.37912 16.8613C3.42311 16.9052 3.4451 16.9712 3.4451 17.0262C3.4451 17.0812 3.42311 17.1362 3.37912 17.1801L3.01625 17.543C3.55506 18.0048 4.20382 18.2577 4.86359 18.3127V17.8179C4.86359 17.697 4.96255 17.598 5.08351 17.598C5.21546 17.598 5.31442 17.697 5.31442 17.8179V18.3127C5.97418 18.2577 6.62295 18.0048 7.15076 17.543L6.78789 17.1801C6.69992 17.0922 6.69992 16.9492 6.78789 16.8613Z" fill="white"/>
</g>
<g id="flage">
<g id="SEN" class="fault" format="%.1f bar" reference="SEN-RR-PUMP">

		<text x="50%" y="21" text-anchor="middle">...</text>
	</g>
</g>
</g>
<defs>
<linearGradient id="sen-rr-paint0_linear" x1="9" y1="15" x2="4" y2="15" gradientUnits="userSpaceOnUse">
<stop stop-color="#4F4F4F"/>
<stop offset="0.519337" stop-color="#BDBDBD"/>
<stop offset="1" stop-color="#4F4F4F"/>
</linearGradient>
</defs>
</svg>
