<svg width="78" height="77" viewBox="0 0 78 77" fill="none" xmlns="http://www.w3.org/2000/svg">
<style>
        #senmoist
        {
        	font-family: "Antonio-Regular";
			font-style: normal;
			font-weight: normal;
			font-size: 18px;
			text-align: center;
        }
   	</style>
<g>
<g id="senmoist" class="fault" format="%.0f %%" reference="SEN-MOIST-ITP">
<text x="50%" y="33" text-anchor="middle">...</text>
</g>
<path id="MOIST ITP" d="M19.2861 55.5312H20.7539V71H19.5674V64.373L19.7695 58.1416L17.5635 70.666H16.3154L14.0303 58.1416L14.2324 64.373V71H13.0371V55.5312H14.5049L16.9395 68.5215L19.2861 55.5312ZM27.4688 59.75C27.4688 58.5195 27.3779 57.6553 27.1963 57.1572C27.0205 56.6592 26.6572 56.4102 26.1064 56.4102C25.5557 56.4102 25.1748 56.668 24.9639 57.1836C24.7529 57.6934 24.6475 58.5459 24.6475 59.7412V66.4385C24.6475 67.8623 24.7207 68.7734 24.8672 69.1719C25.0137 69.5703 25.1748 69.8252 25.3506 69.9365C25.5322 70.0479 25.7695 70.1035 26.0625 70.1035C26.3555 70.1035 26.5898 70.0479 26.7656 69.9365C26.9414 69.8252 27.1025 69.5732 27.249 69.1807C27.3955 68.7822 27.4688 67.8682 27.4688 66.4385V59.75ZM23.3379 59.8555C23.3379 57.9863 23.5723 56.7676 24.041 56.1992C24.5098 55.625 25.2305 55.3379 26.2031 55.3379C27.1758 55.3379 27.8467 55.6543 28.2158 56.2871C28.4619 56.7148 28.6172 57.2129 28.6816 57.7812C28.7461 58.3496 28.7783 59.041 28.7783 59.8555V66.4385C28.7783 67.7803 28.6963 68.7266 28.5322 69.2773C28.374 69.8223 28.1953 70.2119 27.9961 70.4463C27.5742 70.9326 26.9326 71.1758 26.0713 71.1758C24.7881 71.1758 23.9854 70.6221 23.6631 69.5146C23.4463 68.7881 23.3379 67.7627 23.3379 66.4385V59.8555ZM31.5293 55.5312H32.8389V71H31.5293V55.5312ZM35.2559 57.9043C35.3438 57.0664 35.5898 56.4307 35.9941 55.9971C36.4043 55.5576 37.043 55.3379 37.9102 55.3379C38.7773 55.3379 39.3809 55.5547 39.7207 55.9883C39.9082 56.2227 40.0547 56.457 40.1602 56.6914C40.3828 57.166 40.4971 58.2969 40.5029 60.084V60.9541H39.1582V59.9873C39.1582 58.6279 39.1143 57.8047 39.0264 57.5176C38.9385 57.2305 38.8477 57.0137 38.7539 56.8672C38.584 56.5977 38.2793 56.4629 37.8398 56.4629C36.9492 56.4629 36.5039 57.292 36.5039 58.9502C36.5039 59.5303 36.5596 59.9258 36.6709 60.1367C36.7822 60.3418 36.8643 60.5029 36.917 60.6201C36.9756 60.7373 37.3506 61.1416 38.042 61.833L38.8857 62.6855C40.1338 63.9688 40.7578 65.4424 40.7578 67.1064C40.7578 68.7646 40.5176 69.8574 40.0371 70.3848C39.5625 70.9121 38.8564 71.1758 37.9189 71.1758C36.4775 71.1758 35.6484 70.3057 35.4316 68.5654C35.3555 67.9795 35.3174 67.2588 35.3174 66.4033V64.7949H36.6533V66.377C36.6533 67.7715 36.7441 68.7324 36.9258 69.2598C37.1133 69.7871 37.4912 70.0508 38.0596 70.0508C38.6279 70.0508 38.9883 69.8809 39.1406 69.541C39.2988 69.1953 39.3838 68.7793 39.3955 68.293C39.4131 67.8066 39.4219 67.2852 39.4219 66.7285C39.4219 65.5801 38.9678 64.5635 38.0596 63.6787L37.1631 62.8262C36.3779 62.0586 35.8535 61.4141 35.5898 60.8926C35.3262 60.3652 35.1943 59.832 35.1943 59.293C35.1943 58.748 35.2148 58.2852 35.2559 57.9043ZM41.7422 55.5312H46.1104V56.5508H44.6602V71H43.3594V56.5508H41.7422V55.5312ZM51.0059 55.5312H52.3154V71H51.0059V55.5312ZM54.2227 55.5312H58.5908V56.5508H57.1406V71H55.8398V56.5508H54.2227V55.5312ZM64.418 60.1982V59.7852C64.418 58.6484 64.3301 57.8369 64.1543 57.3506C63.9844 56.8643 63.6387 56.6211 63.1172 56.6211H61.667V63.8369H63.0557C63.5947 63.8369 63.9551 63.582 64.1367 63.0723C64.3242 62.5566 64.418 61.5986 64.418 60.1982ZM60.3574 55.5312H63.0469C63.6797 55.5312 64.1777 55.6514 64.541 55.8916C64.9102 56.126 65.1562 56.3896 65.2793 56.6826C65.4902 57.21 65.6162 57.7227 65.6572 58.2207C65.7041 58.7188 65.7275 59.3193 65.7275 60.0225V60.1807C65.7275 61.5225 65.6426 62.4688 65.4727 63.0195C65.3086 63.5703 65.1211 63.9658 64.9102 64.2061C64.4824 64.6982 63.835 64.9443 62.9678 64.9443H61.667V71H60.3574V55.5312Z" fill="white"/>
</g>
</svg>
