<svg width="29" height="35" viewBox="0 0 29 35" fill="none" xmlns="http://www.w3.org/2000/svg">
<g class="fault inactive" reference="TEXST-STATUS">

<g  class="animation-hide">
<path id="OFF" d="M1.48757 11.9766C1.48757 9.63281 1.90944 8.02344 2.75319 7.14844C3.41725 6.46094 4.3821 6.11719 5.64772 6.11719C7.49147 6.11719 8.67116 6.875 9.18678 8.39062C9.49147 9.28906 9.64382 10.4844 9.64382 11.9766V21.0703C9.64382 23.2188 9.34303 24.7852 8.74147 25.7695C8.13991 26.7461 7.08522 27.2344 5.57741 27.2344C4.07741 27.2344 3.01882 26.7422 2.40163 25.7578C1.79225 24.7734 1.48757 23.2109 1.48757 21.0703V11.9766ZM7.21803 11.8359C7.21803 10.5156 7.11257 9.58203 6.90163 9.03516C6.69069 8.48047 6.26491 8.20312 5.62428 8.20312C4.98366 8.20312 4.53835 8.48438 4.28835 9.04688C4.03835 9.60938 3.91335 10.5352 3.91335 11.8242V21.0938C3.91335 22.6641 4.02272 23.7344 4.24147 24.3047C4.46022 24.8672 4.90163 25.1484 5.56569 25.1484C6.22975 25.1484 6.67116 24.8633 6.88991 24.293C7.10866 23.7148 7.21803 22.6484 7.21803 21.0938V11.8359ZM12.7727 6.375H18.9837V8.40234H15.1868V14.918H18.7493V16.9688H15.1868V27H12.7727V6.375ZM21.5149 6.375H27.7258V8.40234H23.929V14.918H27.4915V16.9688H23.929V27H21.5149V6.375Z"/>
</g>
<g  class="animation-display">
<path id="ON" d="M4.28835 11.9766C4.28835 9.63281 4.71022 8.02344 5.55397 7.14844C6.21803 6.46094 7.18288 6.11719 8.4485 6.11719C10.2923 6.11719 11.4719 6.875 11.9876 8.39062C12.2923 9.28906 12.4446 10.4844 12.4446 11.9766V21.0703C12.4446 23.2188 12.1438 24.7852 11.5423 25.7695C10.9407 26.7461 9.886 27.2344 8.37819 27.2344C6.87819 27.2344 5.8196 26.7422 5.20241 25.7578C4.59303 24.7734 4.28835 23.2109 4.28835 21.0703V11.9766ZM10.0188 11.8359C10.0188 10.5156 9.91335 9.58203 9.70241 9.03516C9.49147 8.48047 9.06569 8.20312 8.42507 8.20312C7.78444 8.20312 7.33913 8.48438 7.08913 9.04688C6.83913 9.60938 6.71413 10.5352 6.71413 11.8242V21.0938C6.71413 22.6641 6.8235 23.7344 7.04225 24.3047C7.261 24.8672 7.70241 25.1484 8.36647 25.1484C9.03053 25.1484 9.47194 24.8633 9.69069 24.293C9.90944 23.7148 10.0188 22.6484 10.0188 21.0938V11.8359ZM21.9485 6.375H24.093V27H22.3118L17.6829 12.8438L17.8235 18.0469V27H15.5852V6.375H17.4133L22.1946 20.4141L21.9485 14.4492V6.375Z"/>
</g>
</g>
</svg>
