<svg width="44" height="44" viewBox="0 0 44 44" fill="none" xmlns="http://www.w3.org/2000/svg">
<g class="fault inactive" reference="ON">
<g class="animation-display">
<path d="M27.3778 16.1555C27.2 15.9555 26.8889 15.9555 26.7111 16.1555C26.5111 16.3332 26.5111 16.6443 26.7111 16.8221C29.7111 19.8443 29.7111 24.7332 26.7111 27.7332C26.5111 27.9332 26.5111 28.2221 26.7111 28.4221C26.8 28.511 26.9333 28.5555 27.0445 28.5555C27.1778 28.5555 27.2889 28.511 27.3778 28.4221C30.7778 25.0443 30.7778 19.5332 27.3778 16.1555ZM10.7111 18.4221H14.1778C14.6 18.4221 14.9333 18.7555 14.9333 19.1777V24.8888C14.9333 25.311 14.6 25.6443 14.1778 25.6443H10.7111C10.2889 25.6443 9.95557 25.311 9.95557 24.8888V19.1777C9.95557 18.7555 10.2889 18.4221 10.7111 18.4221ZM22.6889 31.3777V12.6888C22.6889 12.3999 22.5111 12.2666 22.4222 12.2221C22.3556 12.1777 22.1556 12.0888 21.9333 12.1999C21.0222 13.0443 15.6667 17.6221 15.6667 18.3777C15.6667 20.8221 15.6667 23.2888 15.6667 25.7555C15.6667 26.3777 21.0667 31.0666 21.9333 31.8666C22.1556 31.9777 22.3556 31.8888 22.4222 31.8443C22.5111 31.7999 22.6889 31.6666 22.6889 31.3777ZM28.8 13.7332C28.6222 13.5555 28.3111 13.5555 28.1111 13.7332C27.9333 13.9332 27.9333 14.2221 28.1111 14.4221C30.2222 16.511 31.3778 19.311 31.3778 22.2666C31.3778 25.2443 30.2222 28.0221 28.1111 30.1332C27.9333 30.311 27.9333 30.6221 28.1111 30.7999C28.2222 30.911 28.3333 30.9555 28.4667 30.9555C28.5778 30.9555 28.7111 30.911 28.8 30.7999C31.0889 28.5332 32.3333 25.4888 32.3333 22.2666C32.3333 19.0443 31.0889 16.0221 28.8 13.7332ZM25.6889 17.5999C25.4889 17.3999 25.1778 17.3999 25 17.5999C24.8 17.7777 24.8 18.0888 25 18.2666C27.0667 20.3555 27.0667 23.711 25 25.7999C24.8 25.9777 24.8 26.2888 25 26.4666C25.0889 26.5555 25.2222 26.5999 25.3333 26.5999C25.4667 26.5999 25.5778 26.5555 25.6889 26.4666C28.1333 24.0221 28.1333 20.0443 25.6889 17.5999Z" fill="#4CD964"/>
<path d="M22 42C33.0457 42 42 33.0457 42 22C42 10.9543 33.0457 2 22 2C10.9543 2 2 10.9543 2 22C2 33.0457 10.9543 42 22 42Z" stroke="#4CD964" stroke-width="2.5"/>
</g>
</g>
</svg>
