<svg width="51" height="127" viewBox="0 0 51 127" fill="none" xmlns="http://www.w3.org/2000/svg">
<!--  Корпус -->

<path d="M5.71114 34.8904L42.5111 34.8904C43.2222 34.8904 43.9334 35.2015 44.4222 35.6904C44.9111 36.1793 45.2223 36.8904 45.2223 37.6015L45.2223 74.4015C45.2223 75.1126 44.9111 75.8237 44.4222 76.3126C43.9334 76.8015 43.2222 77.1126 42.5111 77.1126H5.71114C5.00003 77.1126 4.28892 76.8015 3.80003 76.3126C3.31114 75.8237 3.00003 75.1126 3.00003 74.4015L3.00003 37.6015C3.00003 36.8904 3.31114 36.1793 3.80003 35.6904C4.28892 35.2015 5.00003 34.8904 5.71114 34.8904ZM29 48.5793H19.5778C19.2223 48.5793 18.9556 48.4459 18.7334 48.2237C18.5111 48.0015 18.3334 47.6904 18.3334 47.3793C18.3334 47.0237 18.5111 46.7126 18.7334 46.4904C18.9111 46.2682 19.2223 46.1348 19.5778 46.1348H29C29.3111 46.1348 29.6223 46.2682 29.8445 46.4904C30.0667 46.7126 30.2 47.0237 30.2 47.3793C30.2 47.6904 30.0667 48.0015 29.8445 48.2237C29.6223 48.4459 29.3111 48.5793 29 48.5793ZM30.7334 51.6459H17.8445C17.0445 51.6459 16.3778 51.3348 15.8445 50.8015C15.3556 50.3126 15.0445 49.6015 15.0445 48.8459V45.8682C15.0445 45.1126 15.3556 44.4015 15.8445 43.9126C16.3778 43.4237 17.0445 43.1126 17.8445 43.1126H30.7334C31.4889 43.1126 32.2 43.4237 32.7334 43.9126C33.2223 44.4015 33.5334 45.1126 33.5334 45.8682V48.8459C33.5334 49.6015 33.2223 50.3126 32.7334 50.8015C32.2 51.3348 31.4889 51.6459 30.7334 51.6459ZM17.8445 49.557H30.7334C30.9111 49.557 31.0889 49.4682 31.2223 49.3348C31.3556 49.2015 31.4445 49.0237 31.4445 48.8459V45.8682C31.4445 45.6904 31.3556 45.5126 31.2223 45.3793C31.0889 45.2459 30.9111 45.2015 30.7334 45.2015H17.8445C17.6223 45.2015 17.4445 45.2459 17.3556 45.3793C17.2223 45.5126 17.1334 45.6904 17.1334 45.8682V48.8459C17.1334 49.0237 17.2223 49.2015 17.3556 49.3348C17.4445 49.4682 17.6223 49.557 17.8445 49.557ZM32.3334 65.157H15.8889C15.5778 65.157 15.2667 65.0237 15.0445 64.8015C14.8223 64.5793 14.6889 64.2682 14.6889 63.957C14.6889 63.6015 14.8223 63.2904 15.0445 63.0682C15.2667 62.8459 15.5778 62.7126 15.8889 62.7126H32.3334C32.6445 62.7126 32.9556 62.8459 33.1778 63.0682C33.4 63.2904 33.5334 63.6015 33.5334 63.957C33.5334 64.2682 33.4 64.5793 33.1778 64.8015C32.9556 65.0237 32.6445 65.157 32.3334 65.157ZM28.8223 68.757H19.4C19.0445 68.757 18.7778 68.5793 18.5556 68.357C18.3334 68.1793 18.2 67.8682 18.2 67.5126C18.2 67.2015 18.3334 66.8904 18.5556 66.6682C18.7778 66.4459 19.0445 66.3126 19.4 66.3126H28.8223C29.1778 66.3126 29.4445 66.4459 29.6667 66.6682C29.8889 66.8904 30.0223 67.2015 30.0223 67.5126C30.0223 67.8682 29.8889 68.1348 29.6667 68.357C29.4445 68.5793 29.1778 68.757 28.8223 68.757ZM22.4223 58.5793H20.7778C20.5556 58.5793 20.3334 58.4904 20.1556 58.357C19.9778 58.1793 19.8889 57.957 19.8889 57.6904V54.3126C19.8889 54.0904 19.9778 53.8682 20.1556 53.6904C20.3334 53.5126 20.5556 53.4237 20.7778 53.4237H22.4223C22.6445 53.4237 22.8667 53.5126 23.0445 53.6904C23.1778 53.8682 23.3111 54.0904 23.3111 54.3126V57.6904C23.3111 57.957 23.1778 58.1793 23.0445 58.357C22.8667 58.4904 22.6445 58.5793 22.4223 58.5793ZM17.3111 58.5793H15.6667C15.4445 58.5793 15.2223 58.4904 15.0445 58.357C14.9111 58.1793 14.7778 57.957 14.7778 57.6904L14.7778 54.3126C14.7778 54.0904 14.9111 53.8682 15.0445 53.6904C15.2223 53.5126 15.4445 53.4237 15.6667 53.4237H17.3111C17.5334 53.4237 17.7556 53.5126 17.9334 53.6904C18.1111 53.8682 18.2 54.0904 18.2 54.3126L18.2 57.6904C18.2 57.957 18.1111 58.1793 17.9334 58.357C17.7556 58.4904 17.5334 58.5793 17.3111 58.5793ZM12.2 58.5793H10.6C10.3334 58.5793 10.1111 58.4904 9.93336 58.357C9.80003 58.1793 9.71114 57.957 9.71114 57.6904V54.3126C9.71114 54.0904 9.80003 53.8682 9.93336 53.6904H9.97781C10.1111 53.5126 10.3334 53.4237 10.6 53.4237H12.2C12.4667 53.4237 12.6889 53.5126 12.8223 53.6904C13 53.8682 13.0889 54.0904 13.0889 54.3126L13.0889 57.6904C13.0889 57.957 13 58.1793 12.8223 58.357C12.6445 58.4904 12.4223 58.5793 12.2 58.5793ZM37.7111 58.5793H36.1111C35.8445 58.5793 35.6223 58.4904 35.4445 58.357C35.3111 58.1793 35.2223 57.957 35.2223 57.6904V54.3126C35.2223 54.0904 35.3111 53.8682 35.4445 53.6904H35.4889C35.6223 53.5126 35.8445 53.4237 36.1111 53.4237H37.7111C37.9778 53.4237 38.2 53.5126 38.3334 53.6904C38.5111 53.8682 38.6 54.0904 38.6 54.3126V57.6904C38.6 57.957 38.5111 58.1793 38.3334 58.357C38.1556 58.4904 37.9334 58.5793 37.7111 58.5793ZM32.6 58.5793H31C30.7334 58.5793 30.5111 58.4904 30.3778 58.357C30.2 58.1793 30.1111 57.957 30.1111 57.6904V54.3126C30.1111 54.0904 30.2 53.8682 30.3334 53.6904H30.3778C30.5111 53.5126 30.7334 53.4237 31 53.4237H32.6C32.8667 53.4237 33.0889 53.5126 33.2223 53.6904C33.4 53.8682 33.4889 54.0904 33.4889 54.3126V57.6904C33.4889 57.957 33.4 58.1793 33.2223 58.357C33.0889 58.4904 32.8223 58.5793 32.6 58.5793ZM27.4889 58.5793H25.8889C25.6223 58.5793 25.4 58.4904 25.2667 58.357C25.0889 58.1793 25 57.957 25 57.6904V54.3126C25 54.0904 25.0889 53.8682 25.2667 53.6904C25.4445 53.5126 25.6667 53.4237 25.8889 53.4237H27.4889C27.7556 53.4237 27.9778 53.5126 28.1556 53.6904C28.2889 53.8682 28.3778 54.0904 28.3778 54.3126V57.6904C28.3778 57.957 28.2889 58.1793 28.1111 58.357C27.9778 58.4904 27.7556 58.5793 27.4889 58.5793ZM24.1111 73.957C19.1334 73.957 14.6445 71.957 11.4 68.7126C8.15559 65.4682 6.15559 60.9793 6.15559 56.0015C6.15559 51.0237 8.15559 46.5348 11.4 43.2904C14.6445 40.0459 19.1334 38.0459 24.1111 38.0459C29.0889 38.0459 33.5778 40.0459 36.8223 43.2904C40.0667 46.5348 42.0667 51.0237 42.0667 56.0015C42.0667 60.9793 40.0667 65.4682 36.8223 68.7126C33.5778 71.957 29.0889 73.957 24.1111 73.957ZM12.8667 67.2459C15.7556 70.0904 19.7111 71.8682 24.1111 71.8682C28.5111 71.8682 32.4667 70.0904 35.3556 67.2459C38.2 64.357 39.9778 60.4015 39.9778 56.0015C39.9778 51.6015 38.2 47.6459 35.3556 44.757C32.4667 41.9126 28.5111 40.1348 24.1111 40.1348C19.7111 40.1348 15.7556 41.9126 12.8667 44.757C10.0223 47.6459 8.24447 51.6015 8.24447 56.0015C8.24447 60.4015 10.0223 64.357 12.8667 67.2459ZM42.5111 36.9793L5.71114 36.9793C5.57781 36.9793 5.40003 37.0682 5.2667 37.157C5.17781 37.2904 5.08892 37.4682 5.08892 37.6015L5.08892 74.4015C5.08892 74.5348 5.17781 74.7126 5.2667 74.8459C5.40003 74.9348 5.57781 75.0237 5.71114 75.0237H42.5111C42.6445 75.0237 42.8223 74.9348 42.9556 74.8459C43.0445 74.7126 43.1334 74.5348 43.1334 74.4015L43.1334 37.6015C43.1334 37.4682 43.0445 37.2904 42.9556 37.157C42.8223 37.0682 42.6445 36.9793 42.5111 36.9793Z" fill="#BDBDBD"/>
<!--  Активная энергия -->

<g class="fault" format="%.1f" reference="A_ENERGY">
<text x="25" y="102" font-size="12px" font-family="Antonio-Regular" text-anchor="middle" >...</text>
</g>
<!--  реАктивная энергия -->

<g class="fault" format="%.1f" reference="R_ENERGY">
<text x="25" y="126" font-size="12px" font-family="Antonio-Regular" text-anchor="middle" >...</text>
</g>
<!--  СТАТИКА -->
<path d="M9.6463 87.0015H10.3494L7.71759 79.9556H7.05353L4.41681 87.0015H5.12482L5.90607 84.8433H8.86505L9.6463 87.0015ZM7.37091 80.7808H7.40021L8.66486 84.2671H6.10626L7.37091 80.7808ZM12.4393 84.3403L15.0076 81.9233H14.1922L11.785 84.2036H11.7557V81.9233H11.116V87.0015H11.7557V84.5259H11.785L14.2557 87.0015H15.1053L12.4393 84.3403ZM19.3826 81.9233H15.2859V82.4604H17.0145V87.0015H17.6541V82.4604H19.3826V81.9233ZM20.8182 87.0015L23.6502 82.9194H23.6795V87.0015H24.3192V81.9233H23.6795L20.8524 86.0054H20.8182V81.9233H20.1785V87.0015H20.8182ZM27.493 82.4556C28.1229 82.4556 28.4744 82.7485 28.4744 83.2563C28.4744 83.8081 28.0936 84.1108 27.4002 84.1108H26.16V82.4556H27.493ZM27.449 84.6382C28.2645 84.6382 28.7137 84.9409 28.7137 85.5464C28.7137 86.1519 28.3133 86.4692 27.5662 86.4692H26.16V84.6382H27.449ZM25.5203 87.0015H27.5955C28.6893 87.0015 29.3484 86.4692 29.3484 85.561C29.3484 84.8823 28.8699 84.4331 28.2156 84.3599V84.3257C28.7332 84.228 29.1043 83.7544 29.1043 83.1978C29.1043 82.4067 28.5233 81.9233 27.5711 81.9233H25.5203V87.0015ZM33.7479 87.0015H34.3875V81.9233H33.7479V84.1011H30.9549V81.9233H30.3152V87.0015H30.9549V84.6382H33.7479V87.0015ZM37.2391 86.5278C36.5506 86.5278 36.077 86.147 36.077 85.5952C36.077 85.0337 36.5213 84.687 37.3221 84.6333L38.826 84.5308V85.0923C38.826 85.8979 38.1277 86.5278 37.2391 86.5278ZM37.1072 87.0845C37.8641 87.0845 38.5574 86.6646 38.8406 86.0347H38.8553V87.0015H39.4705V83.5249C39.4705 82.4897 38.743 81.8403 37.5858 81.8403C36.4285 81.8403 35.6815 82.4849 35.6082 83.3931H36.2332C36.3455 82.7778 36.824 82.4116 37.5711 82.4116C38.3621 82.4116 38.826 82.8511 38.826 83.5835V84.0229L37.244 84.1206C36.0721 84.1987 35.4227 84.7261 35.4227 85.5952C35.4227 86.4839 36.1063 87.0845 37.1072 87.0845ZM42.3611 84.5552C41.6287 84.5552 41.1502 84.1401 41.1502 83.5347C41.1502 82.8706 41.6238 82.4604 42.3611 82.4604H43.4988V84.5552H42.3611ZM43.4988 87.0015H44.1385V81.9233H42.3563C41.2332 81.9233 40.5106 82.5435 40.5106 83.5444C40.5106 84.2915 40.9891 84.8237 41.7752 84.9849L40.2957 87.0015H41.0428L42.4344 85.0923H43.4988V87.0015Z" fill="#FF9500"/>
<path d="M1.19318 104.956L1.19318 112.001H1.85724L1.85724 109.345H3.58575C4.92853 109.345 5.85138 108.457 5.85138 107.148C5.85138 105.839 4.93829 104.956 3.59064 104.956H1.19318ZM1.85724 105.551H3.43439C4.52325 105.551 5.16779 106.147 5.16779 107.148C5.16779 108.149 4.51837 108.75 3.43439 108.75H1.85724L1.85724 105.551ZM8.67365 107.407C9.59161 107.407 10.202 108.105 10.2166 109.106H7.08185C7.13556 108.105 7.76544 107.407 8.67365 107.407ZM10.1776 110.561C10.0359 111.118 9.50372 111.518 8.73712 111.518C7.72638 111.518 7.07697 110.805 7.07697 109.658V109.619H10.8807V109.345C10.8807 107.832 10.0311 106.84 8.68341 106.84C7.30646 106.84 6.4129 107.9 6.4129 109.477C6.4129 111.088 7.29669 112.084 8.72247 112.084C9.84064 112.084 10.6658 111.44 10.8172 110.561H10.1776ZM13.4783 111.528C12.7899 111.528 12.3162 111.147 12.3162 110.595C12.3162 110.034 12.7606 109.687 13.5613 109.633L15.0652 109.531V110.092C15.0652 110.898 14.367 111.528 13.4783 111.528ZM13.3465 112.084C14.1033 112.084 14.7967 111.665 15.0799 111.035H15.0945V112.001H15.7098L15.7098 108.525C15.7098 107.49 14.9822 106.84 13.825 106.84C12.6678 106.84 11.9207 107.485 11.8475 108.393H12.4725C12.5848 107.778 13.0633 107.412 13.8104 107.412C14.6014 107.412 15.0652 107.851 15.0652 108.583V109.023L13.4832 109.121C12.3113 109.199 11.6619 109.726 11.6619 110.595C11.6619 111.484 12.3455 112.084 13.3465 112.084ZM18.2098 109.34L20.7781 106.923H19.9627L17.5555 109.204H17.5262V106.923H16.8865V112.001H17.5262V109.526H17.5555L20.0262 112.001H20.8758L18.2098 109.34ZM25.1531 106.923H21.0565V107.46H22.785V112.001H23.4246V107.46H25.1531V106.923ZM26.5887 112.001L29.4207 107.919H29.45V112.001H30.0897V106.923H29.45L26.6229 111.005H26.5887V106.923H25.949V112.001H26.5887ZM33.2635 107.456C33.8934 107.456 34.2449 107.749 34.2449 108.256C34.2449 108.808 33.8641 109.111 33.1707 109.111H31.9305V107.456H33.2635ZM33.2195 109.638C34.035 109.638 34.4842 109.941 34.4842 110.546C34.4842 111.152 34.0838 111.469 33.3367 111.469H31.9305V109.638H33.2195ZM31.2908 112.001H33.366C34.4598 112.001 35.119 111.469 35.119 110.561C35.119 109.882 34.6404 109.433 33.9861 109.36V109.326C34.5037 109.228 34.8748 108.754 34.8748 108.198C34.8748 107.407 34.2938 106.923 33.3416 106.923H31.2908V112.001ZM39.5184 112.001H40.158V106.923H39.5184V109.101H36.7254V106.923H36.0858V112.001H36.7254V109.638H39.5184V112.001ZM43.0096 111.528C42.3211 111.528 41.8475 111.147 41.8475 110.595C41.8475 110.034 42.2918 109.687 43.0926 109.633L44.5965 109.531V110.092C44.5965 110.898 43.8983 111.528 43.0096 111.528ZM42.8777 112.084C43.6346 112.084 44.3279 111.665 44.6111 111.035H44.6258V112.001H45.241V108.525C45.241 107.49 44.5135 106.84 43.3563 106.84C42.199 106.84 41.452 107.485 41.3787 108.393H42.0037C42.116 107.778 42.5945 107.412 43.3416 107.412C44.1326 107.412 44.5965 107.851 44.5965 108.583V109.023L43.0145 109.121C41.8426 109.199 41.1932 109.726 41.1932 110.595C41.1932 111.484 41.8768 112.084 42.8777 112.084ZM48.1317 109.555C47.3992 109.555 46.9207 109.14 46.9207 108.535C46.9207 107.871 47.3943 107.46 48.1317 107.46H49.2693V109.555H48.1317ZM49.2693 112.001H49.909V106.923H48.1268C47.0037 106.923 46.2811 107.543 46.2811 108.544C46.2811 109.292 46.7596 109.824 47.5457 109.985L46.0662 112.001H46.8133L48.2049 110.092H49.2693V112.001Z" fill="#FF9500"/>
<rect x="24" y="35" width="35" height="2" transform="rotate(-90 24 35)" fill="#640064"/>
</svg>
