<svg width="30" height="240" viewBox="0 0 30 240" fill="none" xmlns="http://www.w3.org/2000/svg">
<!--
<path d="M12 109.195H3.54492V110.508H7.11914V114.85H3.54492V116.162H12V114.85H8.25586V110.508H12V109.195ZM12.1582 103.957C12.1582 102.059 11.1738 100.752 9.49805 100.389V101.707C10.4414 102.006 10.9922 102.82 10.9922 103.951C10.9922 105.504 9.74414 106.488 7.76953 106.488C5.8125 106.488 4.55273 105.492 4.55273 103.957C4.55273 102.861 5.20312 101.982 6.20508 101.707L6.20508 100.389C4.51758 100.67 3.38672 102.094 3.38672 103.957C3.38672 106.318 5.0918 107.83 7.76953 107.83C10.4648 107.83 12.1582 106.33 12.1582 103.957ZM3.54492 96.6387H12V95.3262H9.11133V93.5098C9.11133 91.8516 7.97461 90.6855 6.32227 90.6855C4.67578 90.6855 3.54492 91.8281 3.54492 93.4688V96.6387ZM4.65234 95.3262V93.8145C4.65234 92.6777 5.26172 92.0273 6.32813 92.0273C7.39453 92.0273 8.00977 92.6777 8.00977 93.8203V95.3262H4.65234ZM12 82.541H3.54492V89.3965H12V88.0781H4.6875V83.8477H12V82.541ZM10.8633 75.498V79.5527H8.23828V75.7148H7.14844V79.5527H4.67578V75.498H3.54492L3.54492 80.8652H12V75.498H10.8633ZM26 112.33V111.064H19.8359V116.32H26V115.061H20.8379V112.33H26ZM26.1172 107.045C26.1172 105.281 24.9043 104.121 22.918 104.121C20.9375 104.121 19.7246 105.287 19.7246 107.045C19.7246 108.803 20.9375 109.969 22.918 109.969C24.9043 109.969 26.1172 108.809 26.1172 107.045ZM25.0742 107.045C25.0742 108.035 24.2891 108.68 22.918 108.68C21.5527 108.68 20.7676 108.035 20.7676 107.045C20.7676 106.055 21.5527 105.41 22.918 105.41C24.2891 105.41 25.0742 106.049 25.0742 107.045ZM22.7305 97.5352L19.8359 95.0098V96.5039L22.4727 98.7422V98.7891H19.8359V100.037H22.4727V100.078L19.8359 102.316V103.822L22.7539 101.279L26 103.893V102.346L23.1582 100.078V100.037H26V98.7891H23.1582V98.7422L26 96.4746V94.9043L22.7305 97.5352ZM26.0645 93.2168C26.0645 92.7891 25.7246 92.4492 25.2969 92.4492C24.8691 92.4492 24.5293 92.7891 24.5293 93.2168C24.5293 93.6445 24.8691 93.9844 25.2969 93.9844C25.7246 93.9844 26.0645 93.6445 26.0645 93.2168ZM19.7363 85.9395C19.7363 86.8301 20.1875 87.5391 20.8965 87.9023V87.9258H19.8359V89.1504H28.0391V87.8848H24.9863V87.8555C25.6719 87.5039 26.1055 86.8008 26.1055 85.916C26.1055 84.3691 24.8691 83.3438 22.918 83.3438C20.9668 83.3438 19.7363 84.375 19.7363 85.9395ZM25.0332 86.2734C25.0332 87.2461 24.2012 87.8906 22.918 87.8906C21.6465 87.8906 20.8027 87.2402 20.8027 86.2734C20.8027 85.2715 21.6289 84.6445 22.918 84.6445C24.2129 84.6445 25.0332 85.2715 25.0332 86.2734ZM20.7441 79.6699C20.7441 78.7852 21.4062 78.1875 22.3496 78.1582V81.2402C21.418 81.1758 20.7441 80.5547 20.7441 79.6699ZM24.1895 78.1641C24.7285 78.334 25.0918 78.8672 25.0918 79.5879C25.0918 80.6016 24.3828 81.2461 23.3105 81.2461H23.2344V76.8926H22.8008C20.9316 76.8926 19.7246 77.959 19.7246 79.6699C19.7246 81.4102 21.0137 82.5234 22.9473 82.5234C24.8926 82.5234 26.1172 81.4277 26.1172 79.6172C26.1172 78.2051 25.3145 77.1387 24.1895 76.9629V78.1641ZM22.7305 70.1484L19.8359 67.623V69.1172L22.4727 71.3555V71.4023H19.8359V72.6504H22.4727V72.6914L19.8359 74.9297V76.4355L22.7539 73.8926L26 76.5059V74.959L23.1582 72.6914V72.6504H26V71.4023H23.1582V71.3555L26 69.0879V67.5176L22.7305 70.1484ZM26.0645 65.8301C26.0645 65.4023 25.7246 65.0625 25.2969 65.0625C24.8691 65.0625 24.5293 65.4023 24.5293 65.8301C24.5293 66.2578 24.8691 66.5977 25.2969 66.5977C25.7246 66.5977 26.0645 66.2578 26.0645 65.8301ZM26 59.584V58.3184H19.8359V63.5742H26V62.3145H20.8379V59.584H26ZM26.1172 54.2988C26.1172 52.5352 24.9043 51.375 22.918 51.375C20.9375 51.375 19.7246 52.541 19.7246 54.2988C19.7246 56.0566 20.9375 57.2227 22.918 57.2227C24.9043 57.2227 26.1172 56.0625 26.1172 54.2988ZM25.0742 54.2988C25.0742 55.2891 24.2891 55.9336 22.918 55.9336C21.5527 55.9336 20.7676 55.2891 20.7676 54.2988C20.7676 53.3086 21.5527 52.6641 22.918 52.6641C24.2891 52.6641 25.0742 53.3027 25.0742 54.2988ZM22.7305 44.7891L19.8359 42.2637V43.7578L22.4727 45.9961V46.043H19.8359V47.291H22.4727V47.332L19.8359 49.5703V51.0762L22.7539 48.5332L26 51.1465V49.5996L23.1582 47.332V47.291H26V46.043H23.1582V45.9961L26 43.7285V42.1582L22.7305 44.7891ZM26.0645 40.4707C26.0645 40.043 25.7246 39.7031 25.2969 39.7031C24.8691 39.7031 24.5293 40.043 24.5293 40.4707C24.5293 40.8984 24.8691 41.2383 25.2969 41.2383C25.7246 41.2383 26.0645 40.8984 26.0645 40.4707Z" fill="#BEBEBE"/>
-->
<path d="M6 196H28V198H18V206.347V207H16V206.347V198H6V196Z" fill="#4CD964"/>
<path d="M28 170H6V168H16V159H15L17 156.5L19 159H18V168H28V170Z" fill="#4CD964"/>
<path d="M19 172L19 194H15V190H11L11 182H15V177L15 172H19Z" fill="#4CD964"/>
<path d="M6 196H28V198H18V206.347V207H16V206.347V198H6V196Z" fill="white"/>
<path d="M28 185H6V181H10V177H18V181H23H28V185Z" fill="white"/>
<path d="M28 170H6V168H16V159H15L17 156.5L19 159H18V168H28V170Z" fill="white"/>
<path d="M6 196H28V198H18V206.347V207H16V206.347V198H6V196Z" fill="#FF0000"/>
<path d="M26.2132 177.051L10.6569 192.607L7.82843 189.779L10.6569 186.95L7.82843 184.122L13.4853 178.465L16.3137 181.293L19.8492 177.758L23.3848 174.222L26.2132 177.051Z" fill="#FF0000"/>
<path d="M28 170H6V168H16V159H15L17 156.5L19 159H18V168H28V170Z" fill="#FF0000"/>
<path d="M6 196H28V198H18V206.347V207H16V206.347V198H6V196Z" fill="#BEBEBE"/>
<path d="M6 194H28L28 172H6L6 194Z" fill="white"/>
<path d="M11.7427 178.432H13.7466C13.8755 176.756 15.0005 175.713 16.77 175.713C18.5161 175.713 19.6411 176.779 19.6411 178.232C19.6411 179.486 19.1137 180.225 17.7544 181.057C16.1489 182.018 15.3989 183.072 15.4106 184.619V185.697H17.4614V184.936C17.4614 183.705 17.8833 183.049 19.3716 182.17C20.8716 181.268 21.8208 179.967 21.8208 178.127C21.8208 175.713 19.8052 173.885 16.852 173.885C13.5591 173.885 11.8716 175.9 11.7427 178.432ZM16.4419 191.041C17.2036 191.041 17.7778 190.455 17.7778 189.705C17.7778 188.943 17.2036 188.369 16.4419 188.369C15.6919 188.369 15.1059 188.943 15.1059 189.705C15.1059 190.455 15.6919 191.041 16.4419 191.041Z" fill="#BEBEBE"/>
<path d="M28 170H6V168H16L16 159L15 159L17 156.5L19 159L18 159L18 168H28V170Z" fill="#BEBEBE"/>
<path d="M19 232H15L15 207H17H19L19 232Z" fill="#640064"/>
<circle cx="17" cy="237" r="3" transform="rotate(-180 17 237)" fill="black"/>
<path d="M15 131H19V156H17H15V131Z" fill="#640064"/>
<circle cx="17" cy="126" r="3" fill="black"/>
<g filter="url(#filter0_d)">
<!--
<path d="M12 226.869V226.289H5.65869V226.877C5.77295 227.066 6.72217 228.411 6.83203 228.587H7.47363C7.35938 228.402 6.39258 227.027 6.30469 226.886V226.869H12ZM12.1011 221.986C12.1011 221.547 12.022 221.156 11.8726 220.804L12.7427 220.167V219.49L11.6089 220.316C11.0596 219.543 10.0884 219.104 8.83154 219.104C6.82324 219.104 5.55762 220.22 5.55762 221.986C5.55762 223.753 6.82324 224.865 8.83154 224.865C10.8398 224.865 12.1011 223.757 12.1011 221.986ZM11.543 221.986C11.543 223.371 10.4927 224.25 8.83154 224.25C7.16602 224.25 6.11572 223.375 6.11572 221.986C6.11572 220.598 7.16602 219.723 8.83154 219.723C9.86426 219.723 10.6729 220.062 11.1255 220.668L10.2642 221.296V221.973L11.3936 221.151C11.4902 221.402 11.543 221.683 11.543 221.986ZM12 217.57H9.12158V214.661H8.58545V217.57H6.20361V214.406H5.65869V218.167H12V217.57ZM12 211.962V211.382H5.65869V211.971C5.77295 212.16 6.72217 213.505 6.83203 213.681H7.47363C7.35937 213.496 6.39258 212.121 6.30469 211.98V211.962H12Z" fill="#FF9500"/>
</g>
-->
<defs>
<filter id="filter0_d" x="1.55762" y="211.382" width="15.1851" height="25.2046" filterUnits="userSpaceOnUse" color-interpolation-filters="sRGB">
<feFlood flood-opacity="0" result="BackgroundImageFix"/>
<feColorMatrix in="SourceAlpha" type="matrix" values="0 0 0 0 0 0 0 0 0 0 0 0 0 0 0 0 0 0 127 0"/>
<feOffset dy="4"/>
<feGaussianBlur stdDeviation="2"/>
<feColorMatrix type="matrix" values="0 0 0 0 0 0 0 0 0 0 0 0 0 0 0 0 0 0 0.25 0"/>
<feBlend mode="normal" in2="BackgroundImageFix" result="effect1_dropShadow"/>
<feBlend mode="normal" in="SourceGraphic" in2="effect1_dropShadow" result="shape"/>
</filter>
</defs>
</svg>
