<svg width="30" height="266" viewBox="0 0 30 266" fill="none" xmlns="http://www.w3.org/2000/svg">
<!--static-->
<rect y="119" width="30" height="11" fill="#BEBEBE"/>
<!--LINE_name-->
<text transform="translate(17,129)"   font-size="12px" font-family="SF Pro Display" text-anchor="middle" fill="#000000">LINE_NAME</text>
<!--EC_name-->
<text transform="translate(22,35) rotate(270,10,10)"   font-size="16px" font-family="SF Pro Display" text-anchor="middle" fill="#BEBEBE">EC_NAME</text>
<!--static-->
<path d="M17 207H13L13 182H15H17L17 207Z" fill="#BEBEBE"/>
<circle cx="14.6064" cy="212" r="3" transform="rotate(-180 14.6064 212)" fill="#505050"/>
<!--QF_name-->
<text transform="translate(9,190) rotate(270)"   font-size="10px" font-family="SF Pro Display" text-anchor="middle" fill="#FF9500">QF_NAME</text>
<!--CURR1-->
<g class="fault" format="%.1f" reference="CURRENT1">
<text x="62%" y="235" font-size="12px" font-family="Antonio-Regular" text-anchor="middle">...</text>
</g>
<!--CURR2-->
<g class="fault" format="%.1f" reference="CURRENT1">
<text x="62%" y="250" font-size="12px" font-family="Antonio-Regular" text-anchor="middle">...</text>
</g>
<!--CURR3-->
<g class="fault" format="%.1f" reference="CURRENT1">
<text x="62%" y="265" font-size="12px" font-family="Antonio-Regular" text-anchor="middle">...</text>
</g>

<!--OFF-->
<g class="fault inactive" reference="OFF">
<g class="animation-hide">
<path d="M4 170H26V172H16V180.347V181H14V180.347L14 172H4V170Z" fill="white"/>
<path d="M26 160H4V156H8V152H16V156H21H26V160Z" fill="white"/>
<path d="M26 145H4V142.926H14L14 133.593H13L15 131L17 133.593H16V142.926H26V145Z" fill="white"/>
</g>
</g>

<!--ON-->
<g class="fault inactive" reference="ON">
<g class="animation-display">
<path d="M4 170H26V172H16V180.347V181H14V180.347L14 172H4V170Z" fill="#4CD964"/>
<path d="M26 145H4V142.926H14L14 133.593H13L15 131L17 133.593H16V142.926H26V145Z" fill="#4CD964"/>
<path d="M17 146.5L17 168.5H13V164.5H9.00001L9.00001 156.5H13V151.5L13 146.5H17Z" fill="#4CD964"/>
</g>
</g>
<!--ALARM-->
<g class="fault inactive" reference="ALARM">
<g class="animation-display">
<path d="M4 170H26V172H16V180.347V181H14V180.347L14 172H4V170Z" fill="#FF0000"/>
<path d="M24.2136 151.551L8.65723 167.107L5.8288 164.279L8.65723 161.451L5.8288 158.622L11.4857 152.965L14.3141 155.794L17.8496 152.258L21.3851 148.723L24.2136 151.551Z" fill="#FF0000"/>
<path d="M26 145H4V143H14L14 133.593H13L15 131L17 133.593H16V143H26V145Z" fill="#FF0000"/>
</g>
</g>
<!--fault-->
<g class="fault" reference="ALARM">
<g class="animation-display">
<g transform="translate(0,134)">
<path fill-rule="evenodd" clip-rule="evenodd" d="M16 0H14V9H0V39H14V48V49H16V48V39H30V9H16V0ZM28 11.0001H1.99999V37.0001H28V11.0001Z" fill="#BEBEBE"/>
<path d="M26 37H4V37.3871H14V48.2258H13L15 49L17 48.2258H16V37.3871H26V37Z" fill="#BEBEBE"/>
<path d="M26 13H4V35H26V13Z" fill="white"/>
<path d="M9.78516 20.5078H11.7891C11.918 18.832 13.043 17.7891 14.8125 17.7891C16.5586 17.7891 17.6836 18.8555 17.6836 20.3086C17.6836 21.5625 17.1562 22.3008 15.7969 23.1328C14.1914 24.0938 13.4414 25.1484 13.4531 26.6953V27.7734H15.5039V27.0117C15.5039 25.7812 15.9258 25.125 17.4141 24.2461C18.9141 23.3438 19.8633 22.043 19.8633 20.2031C19.8633 17.7891 17.8477 15.9609 14.8945 15.9609C11.6016 15.9609 9.91406 17.9766 9.78516 20.5078ZM14.4844 33.1172C15.2461 33.1172 15.8203 32.5312 15.8203 31.7812C15.8203 31.0195 15.2461 30.4453 14.4844 30.4453C13.7344 30.4453 13.1484 31.0195 13.1484 31.7812C13.1484 32.5312 13.7344 33.1172 14.4844 33.1172Z" fill="#BEBEBE"/>
</g>
</g>
</g>
</svg>
