<svg width="185" height="103" viewBox="0 0 185 103" fill="none" xmlns="http://www.w3.org/2000/svg">

<!--OFF-->
<g class="fault inactive" reference="OFF">
<g class="animation-hide">
<path fill-rule="evenodd" clip-rule="evenodd" d="M103 87V89H112V103H142V89H151H152V87H151H142V73H112V87H103ZM114 75V101H140V75H114Z" fill="white"/>
</g>
</g>
<!--ON-->
<g class="fault inactive" reference="ON">
<g class="animation-display">
<path fill-rule="evenodd" clip-rule="evenodd" d="M103 87V86L100.5 88L103 90V89H112V103H142V89H151V90L153.5 88L151 86V87H142V73H112V87H103ZM114 75V101H140V75H114Z" fill="#4CD964"/>
<path d="M116 77V99H138V77H116Z" fill="#4CD964"/>
</g>
</g>



<!--ALARM-->
<g class="fault inactive" reference="ALARM">
<g class="animation-display">
<path fill-rule="evenodd" clip-rule="evenodd" d="M103 87V89H112V103H142V89H151H152V87H151H142V73H112V87H103ZM114 99L138 75H114V99ZM140 101V77L116 101H127H140Z" fill="#FF0000"/>
</g>
</g>
<!--fault-->
<g class="fault">
<g class="animation-display">
<g transform="translate(103,103) rotate(270)">
<path fill-rule="evenodd" clip-rule="evenodd" d="M16 0H14V9H0V39H14V48V49H16V48V39H30V9H16V0ZM28 11.0001H1.99999V37.0001H28V11.0001Z" fill="#BEBEBE"/>
<path d="M26 37H4V37.3871H14V48.2258H13L15 49L17 48.2258H16V37.3871H26V37Z" fill="#BEBEBE"/>
<path d="M26 13H4V35H26V13Z" fill="white"/>
<path d="M9.78516 20.5078H11.7891C11.918 18.832 13.043 17.7891 14.8125 17.7891C16.5586 17.7891 17.6836 18.8555 17.6836 20.3086C17.6836 21.5625 17.1562 22.3008 15.7969 23.1328C14.1914 24.0938 13.4414 25.1484 13.4531 26.6953V27.7734H15.5039V27.0117C15.5039 25.7812 15.9258 25.125 17.4141 24.2461C18.9141 23.3438 19.8633 22.043 19.8633 20.2031C19.8633 17.7891 17.8477 15.9609 14.8945 15.9609C11.6016 15.9609 9.91406 17.9766 9.78516 20.5078ZM14.4844 33.1172C15.2461 33.1172 15.8203 32.5312 15.8203 31.7812C15.8203 31.0195 15.2461 30.4453 14.4844 30.4453C13.7344 30.4453 13.1484 31.0195 13.1484 31.7812C13.1484 32.5312 13.7344 33.1172 14.4844 33.1172Z" fill="#BEBEBE"/>
</g>
</g>
</g>



<path d="M76.5156 90V86H97.5005L99.0005 85H102L100.5 86L98.0005 88L100.5 90L102 91H99.0005L97.5005 90H76.5156Z" fill="#BEBEBE"/>
<ellipse cx="71.8182" cy="88" rx="3" ry="2.81818" transform="rotate(-90 71.8182 88)" fill="#505050"/>
<path d="M177.484 86V90H156.5L155 91H152L153.5 90L156 88L153.5 86L152 85H155L156.5 86H177.484Z" fill="#BEBEBE"/>
<ellipse cx="182.182" cy="88" rx="3" ry="2.81818" transform="rotate(90 182.182 88)" fill="#505050"/>


<!--QF_NAME-->
<text transform="translate(167,80) rotate(0)"   font-size="10px" font-family="SF Pro Display" text-anchor="middle" fill="#FF9500">QF_NAME</text>
<!--CURR1-->
<g class="fault" format="%.1f" reference="CURRENT1">
<text x="15%" y="20" font-size="12px" font-family="Antonio-Regular" text-anchor="middle">...</text>
</g>
<!--CURR2-->
<g class="fault" format="%.1f" reference="CURRENT2">
<text x="15%" y="35" font-size="12px" font-family="Antonio-Regular" text-anchor="middle">...</text>
</g>
<!--CURR3-->
<g class="fault" format="%.1f" reference="CURRENT3">
<text x="15%" y="50" font-size="12px" font-family="Antonio-Regular" text-anchor="middle">...</text>
</g>
<path d="M11.5137 21V12.5449H10.2012V21H11.5137ZM13.4575 21H13.9922V17.4771H13.4526L12.5249 18.1362V18.6733L13.4453 18.019H13.4575V21Z" fill="white"/>
<path d="M11.2085 34V25.5449H9.896V34H11.2085ZM12.2319 31.5098V31.5146H12.7495V31.5073C12.7495 31.1411 13.04 30.8628 13.4258 30.8628C13.792 30.8628 14.0752 31.1118 14.0752 31.4243C14.0752 31.7002 13.9629 31.8857 13.5332 32.3325L12.2612 33.6289V34H14.6709V33.5386H12.9985V33.5264L13.8799 32.6401C14.395 32.1128 14.6147 31.8076 14.6147 31.3975C14.6147 30.8384 14.1143 30.4111 13.4429 30.4111C12.7422 30.4111 12.2319 30.875 12.2319 31.5098Z" fill="white"/>
<path d="M11.1426 47V38.5449H9.83008V47H11.1426ZM12.9619 45.4058H13.4014C13.8652 45.4058 14.1533 45.6401 14.1533 46.021C14.1533 46.3652 13.8457 46.6094 13.416 46.6094C12.9717 46.6094 12.6934 46.3774 12.6592 46.0405H12.1343C12.1685 46.6484 12.6567 47.0659 13.416 47.0659C14.1509 47.0659 14.71 46.6436 14.71 46.0283C14.71 45.5352 14.3682 45.2104 13.8384 45.1738V45.1641C14.2754 45.0859 14.5635 44.771 14.5635 44.3315C14.5635 43.7896 14.0776 43.4111 13.4111 43.4111C12.7129 43.4111 12.2466 43.8091 12.2051 44.4268H12.7202C12.752 44.0801 13.0059 43.8604 13.3867 43.8604C13.8042 43.8604 14.0288 44.0776 14.0288 44.4048C14.0288 44.7368 13.7676 44.9761 13.3867 44.9761H12.9619V45.4058Z" fill="white"/>
<!--VOLTAGE1-->
<g class="fault" format="%.1f" reference="VOLTAGE1">
<text x="45%" y="20" font-size="12px" font-family="Antonio-Regular" text-anchor="middle">...</text>
</g>
<!--VOLTAGE2-->
<g class="fault" format="%.1f" reference="VOLTAGE2">
<text x="45%" y="35" font-size="12px" font-family="Antonio-Regular" text-anchor="middle">...</text>
</g>
<!--VOLTAGE3-->
<g class="fault" format="%.1f" reference="VOLTAGE3">
<text x="45%" y="50" font-size="12px" font-family="Antonio-Regular" text-anchor="middle">...</text>
</g>

<path d="M57.748 12.5449H56.4355V18.0293C56.4355 19.8516 57.7363 21.1406 59.8574 21.1406C61.9785 21.1406 63.2793 19.8516 63.2793 18.0293V12.5449H61.9727V17.918C61.9727 19.125 61.2051 19.9746 59.8574 19.9746C58.5098 19.9746 57.748 19.125 57.748 17.918V12.5449ZM65.2231 21H65.7578V17.4771H65.2183L64.2905 18.1362V18.6733L65.2109 18.019H65.2231V21Z" fill="white"/>
<path d="M57.4429 25.5449H56.1304V31.0293C56.1304 32.8516 57.4312 34.1406 59.5522 34.1406C61.6733 34.1406 62.9741 32.8516 62.9741 31.0293V25.5449H61.6675V30.918C61.6675 32.125 60.8999 32.9746 59.5522 32.9746C58.2046 32.9746 57.4429 32.125 57.4429 30.918V25.5449ZM63.9976 31.5098V31.5146H64.5151V31.5073C64.5151 31.1411 64.8057 30.8628 65.1914 30.8628C65.5576 30.8628 65.8408 31.1118 65.8408 31.4243C65.8408 31.7002 65.7285 31.8857 65.2988 32.3325L64.0269 33.6289V34H66.4365V33.5386H64.7642V33.5264L65.6455 32.6401C66.1606 32.1128 66.3804 31.8076 66.3804 31.3975C66.3804 30.8384 65.8799 30.4111 65.2085 30.4111C64.5078 30.4111 63.9976 30.875 63.9976 31.5098Z" fill="white"/>
<path d="M57.377 38.5449H56.0645V44.0293C56.0645 45.8516 57.3652 47.1406 59.4863 47.1406C61.6074 47.1406 62.9082 45.8516 62.9082 44.0293V38.5449H61.6016V43.918C61.6016 45.125 60.834 45.9746 59.4863 45.9746C58.1387 45.9746 57.377 45.125 57.377 43.918V38.5449ZM64.7275 45.4058H65.167C65.6309 45.4058 65.9189 45.6401 65.9189 46.021C65.9189 46.3652 65.6113 46.6094 65.1816 46.6094C64.7373 46.6094 64.459 46.3774 64.4248 46.0405H63.8999C63.9341 46.6484 64.4224 47.0659 65.1816 47.0659C65.9165 47.0659 66.4756 46.6436 66.4756 46.0283C66.4756 45.5352 66.1338 45.2104 65.604 45.1738V45.1641C66.041 45.0859 66.3291 44.771 66.3291 44.3315C66.3291 43.7896 65.8433 43.4111 65.1768 43.4111C64.4785 43.4111 64.0122 43.8091 63.9707 44.4268H64.4858C64.5176 44.0801 64.7715 43.8604 65.1523 43.8604C65.5698 43.8604 65.7944 44.0776 65.7944 44.4048C65.7944 44.7368 65.5332 44.9761 65.1523 44.9761H64.7275V45.4058Z" fill="white"/>
<rect x="0.5" y="0.5" width="99" height="59" stroke="#BEBEBE"/>
<line x1="49.5" y1="85" x2="49.5" y2="60" stroke="#BEBEBE"/>
</svg>
