<svg width="197" height="105" viewBox="0 0 197 105" fill="none" xmlns="http://www.w3.org/2000/svg">
<g id="QF_3">
<!--OFF-->
<g class="fault inactive" reference="OFF">
<g class="animation-hide">
<path fill-rule="evenodd" clip-rule="evenodd" d="M34 89V91H43V105H73V91H82H83V89H82H73V75H43V89H34ZM45.0001 77V103H71.0001V77H45.0001Z" fill="white"/>
</g>
</g>
<!--ON-->
<g class="fault inactive" reference="ON">
<g class="animation-display">
<path fill-rule="evenodd" clip-rule="evenodd" d="M34 89V88L31.5 90L34 92V91H43V105H73V91H82V92L84.5 90L82 88V89H73V75H43V89H34ZM45.0001 77V103H71.0001V77H45.0001Z" fill="#4CD964"/>
<path d="M47 79V101H69V79H47Z" fill="#4CD964"/>
</g>
</g>


<!--ALARM-->
<g class="fault inactive" reference="ALARM">
<g class="animation-display">
<path fill-rule="evenodd" clip-rule="evenodd" d="M34 89V91H43V105H73V91H82H83V89H82H73V75H43V89H34ZM45.0001 101L69.0001 77H45.0001V101ZM71.0001 103V79L47.0001 103H58.0001H71.0001Z" fill="#FF0000"/>
</g>
</g>
<!--fault-->
<g class="fault inactive">
<g class="animation-display">
<g transform="translate(34,105) rotate(270)">
<path fill-rule="evenodd" clip-rule= "evenodd" d="M16 0H14V9H0V39H14V48V49H16V48V39H30V9H16V0ZM28 11.0001H1.99999V37.0001H28V11.0001Z" fill="#BEBEBE"/>
<path d="M26 37H4V37.3871H14V48.2258H13L15 49L17 48.2258H16V37.3871H26V37Z" fill="#BEBEBE"/>
<path d="M26 13H4V35H26V13Z" fill="white"/>
<path d="M9.78516 20.5078H11.7891C11.918 18.832 13.043 17.7891 14.8125 17.7891C16.5586 17.7891 17.6836 18.8555 17.6836 20.3086C17.6836 21.5625 17.1562 22.3008 15.7969 23.1328C14.1914 24.0938 13.4414 25.1484 13.4531 26.6953V27.7734H15.5039V27.0117C15.5039 25.7812 15.9258 25.125 17.4141 24.2461C18.9141 23.3438 19.8633 22.043 19.8633 20.2031C19.8633 17.7891 17.8477 15.9609 14.8945 15.9609C11.6016 15.9609 9.91406 17.9766 9.78516 20.5078ZM14.4844 33.1172C15.2461 33.1172 15.8203 32.5312 15.8203 31.7812C15.8203 31.0195 15.2461 30.4453 14.4844 30.4453C13.7344 30.4453 13.1484 31.0195 13.1484 31.7812C13.1484 32.5312 13.7344 33.1172 14.4844 33.1172Z" fill="#BEBEBE"/>
</g>
</g>
</g>



<!-- STATIC-->
<path d="M7.51562 92V88H28.5005L30.0005 87H33.0005L31.5005 88L29.0005 90L31.5005 92L33.0005 93H30.0005L28.5005 92H7.51562Z" fill="#BEBEBE"/>
<ellipse cx="2.81818" cy="90" rx="3" ry="2.81818" transform="rotate(-90 2.81818 90)" fill="#505050"/>
<path d="M108.484 88V92H87.4995L85.9995 93H82.9995L84.4995 92L86.9995 90L84.4995 88L82.9995 87H85.9995L87.4995 88H108.484Z" fill="#BEBEBE"/>
<ellipse cx="113.182" cy="90" rx="3" ry="2.81818" transform="rotate(90 113.182 90)" fill="#505050"/>
<!--QF_NAME-->
<text transform="translate(20,80) rotate(0)"   font-size="10px" font-family="SF Pro Display" text-anchor="middle" fill="#FF9500">QF_NAME</text>
<!--CURR1-->
<g class="fault" format="%.1f" reference="CURRENT1">
<text x="65%" y="20" font-size="12px" font-family="Antonio-Regular" text-anchor="middle">...</text>
</g>
<!--CURR2-->
<g class="fault" format="%.1f" reference="CURRENT2">
<text x="65%" y="35" font-size="12px" font-family="Antonio-Regular" text-anchor="middle">...</text>
</g>
<!--CURR3-->
<g class="fault" format="%.1f" reference="CURRENT3">
<text x="65%" y="50" font-size="12px" font-family="Antonio-Regular" text-anchor="middle">...</text>
</g>
<!-- STATIC-->
<path d="M108.514 21V12.5449H107.201V21H108.514ZM110.458 21H110.992V17.4771H110.453L109.525 18.1362V18.6733L110.445 18.019H110.458V21Z" fill="white"/>
<path d="M108.208 34V25.5449H106.896V34H108.208ZM109.232 31.5098V31.5146H109.75V31.5073C109.75 31.1411 110.04 30.8628 110.426 30.8628C110.792 30.8628 111.075 31.1118 111.075 31.4243C111.075 31.7002 110.963 31.8857 110.533 32.3325L109.261 33.6289V34H111.671V33.5386H109.999V33.5264L110.88 32.6401C111.395 32.1128 111.615 31.8076 111.615 31.3975C111.615 30.8384 111.114 30.4111 110.443 30.4111C109.742 30.4111 109.232 30.875 109.232 31.5098Z" fill="white"/>
<path d="M108.143 47V38.5449H106.83V47H108.143ZM109.962 45.4058H110.401C110.865 45.4058 111.153 45.6401 111.153 46.021C111.153 46.3652 110.846 46.6094 110.416 46.6094C109.972 46.6094 109.693 46.3774 109.659 46.0405H109.134C109.168 46.6484 109.657 47.0659 110.416 47.0659C111.151 47.0659 111.71 46.6436 111.71 46.0283C111.71 45.5352 111.368 45.2104 110.838 45.1738V45.1641C111.275 45.0859 111.563 44.771 111.563 44.3315C111.563 43.7896 111.078 43.4111 110.411 43.4111C109.713 43.4111 109.247 43.8091 109.205 44.4268H109.72C109.752 44.0801 110.006 43.8604 110.387 43.8604C110.804 43.8604 111.029 44.0776 111.029 44.4048C111.029 44.7368 110.768 44.9761 110.387 44.9761H109.962V45.4058Z" fill="white"/>
<!--VOLTAGE1-->
<g class="fault" format="%.1f" reference="VOLTAGE1">
<text x="90%" y="20" font-size="12px" font-family="Antonio-Regular" text-anchor="middle">...</text>
</g>
<!--VOLTAGE2-->
<g class="fault" format="%.1f" reference="VOLTAGE2">
<text x="90%" y="35" font-size="12px" font-family="Antonio-Regular" text-anchor="middle">...</text>
</g>
<!--VOLTAGE3-->
<g class="fault" format="%.1f" reference="VOLTAGE3">
<text x="90%" y="50" font-size="12px" font-family="Antonio-Regular" text-anchor="middle">...</text>
</g>
<!-- STATIC-->
<path d="M154.748 12.5449H153.436V18.0293C153.436 19.8516 154.736 21.1406 156.857 21.1406C158.979 21.1406 160.279 19.8516 160.279 18.0293V12.5449H158.973V17.918C158.973 19.125 158.205 19.9746 156.857 19.9746C155.51 19.9746 154.748 19.125 154.748 17.918V12.5449ZM162.223 21H162.758V17.4771H162.218L161.291 18.1362V18.6733L162.211 18.019H162.223V21Z" fill="white"/>
<path d="M154.443 25.5449H153.13V31.0293C153.13 32.8516 154.431 34.1406 156.552 34.1406C158.673 34.1406 159.974 32.8516 159.974 31.0293V25.5449H158.667V30.918C158.667 32.125 157.9 32.9746 156.552 32.9746C155.205 32.9746 154.443 32.125 154.443 30.918V25.5449ZM160.998 31.5098V31.5146H161.515V31.5073C161.515 31.1411 161.806 30.8628 162.191 30.8628C162.558 30.8628 162.841 31.1118 162.841 31.4243C162.841 31.7002 162.729 31.8857 162.299 32.3325L161.027 33.6289V34H163.437V33.5386H161.764V33.5264L162.646 32.6401C163.161 32.1128 163.38 31.8076 163.38 31.3975C163.38 30.8384 162.88 30.4111 162.208 30.4111C161.508 30.4111 160.998 30.875 160.998 31.5098Z" fill="white"/>
<path d="M154.377 38.5449H153.064V44.0293C153.064 45.8516 154.365 47.1406 156.486 47.1406C158.607 47.1406 159.908 45.8516 159.908 44.0293V38.5449H158.602V43.918C158.602 45.125 157.834 45.9746 156.486 45.9746C155.139 45.9746 154.377 45.125 154.377 43.918V38.5449ZM161.728 45.4058H162.167C162.631 45.4058 162.919 45.6401 162.919 46.021C162.919 46.3652 162.611 46.6094 162.182 46.6094C161.737 46.6094 161.459 46.3774 161.425 46.0405H160.9C160.934 46.6484 161.422 47.0659 162.182 47.0659C162.917 47.0659 163.476 46.6436 163.476 46.0283C163.476 45.5352 163.134 45.2104 162.604 45.1738V45.1641C163.041 45.0859 163.329 44.771 163.329 44.3315C163.329 43.7896 162.843 43.4111 162.177 43.4111C161.479 43.4111 161.012 43.8091 160.971 44.4268H161.486C161.518 44.0801 161.771 43.8604 162.152 43.8604C162.57 43.8604 162.794 44.0776 162.794 44.4048C162.794 44.7368 162.533 44.9761 162.152 44.9761H161.728V45.4058Z" fill="white"/>
<rect x="97.5" y="0.5" width="99" height="59" stroke="#BEBEBE"/>
<line x1="146.5" y1="85" x2="146.5" y2="60" stroke="#BEBEBE"/>
</g>
</svg>
