<svg width="142" height="126" viewBox="0 0 142 126" fill="none" xmlns="http://www.w3.org/2000/svg">
<g id="QF_!">

<!--OFF-->
<g class="fault inactive" reference="OFF">
<g class="animation-display">
<path fill-rule="evenodd" clip-rule="evenodd" d="M14 92H16V83H30L30 53H16V44V43H14V44V53L0 53L0 83H14L14 92ZM2 80.9999H28L28 54.9999H2L2 80.9999Z" fill="white"/>
</g>
</g>
<!--ON-->
<g class="fault inactive" reference="ON">
<g class="animation-display">
<path fill-rule="evenodd" clip-rule="evenodd" d="M14 92H13L15 94.5L17 92H16V83H30L30 53H16V44H17L15 41.5L13 44H14V53L0 53L0 83H14L14 92ZM2 80.9999H28L28 54.9999H2L2 80.9999Z" fill="#4CD964"/>
<path d="M4 79H26L26 57H4L4 79Z" fill="#4CD964"/>
</g>
</g>


<!--ALARM-->
<g class="fault inactive" reference="ALARM">
<g class="animation-fail">
<path fill-rule="evenodd" clip-rule="evenodd" d="M14 92H16V83H30L30 53H16V44V43H14V44V53L0 53L0 83H14L14 92ZM26 80.9999L2 56.9999L2 80.9999H26ZM28 54.9999H4L28 78.9999L28 67.9999V54.9999Z" fill="#FF0000"/>
</g>
</g>
<!--fault-->
<g class="fault inactive">
<g class="animation-display">
<g transform="translate(0,44)">
<path fill-rule="evenodd" clip-rule="evenodd" d="M16 0H14V9H0V39H14V48V49H16V48V39H30V9H16V0ZM28 11.0001H1.99999V37.0001H28V11.0001Z" fill="#BEBEBE"/>
<path d="M26 37H4V37.3871H14V48.2258H13L15 49L17 48.2258H16V37.3871H26V37Z" fill="#BEBEBE"/>
<path d="M26 13H4V35H26V13Z" fill="white"/>
<path d="M9.78516 20.5078H11.7891C11.918 18.832 13.043 17.7891 14.8125 17.7891C16.5586 17.7891 17.6836 18.8555 17.6836 20.3086C17.6836 21.5625 17.1562 22.3008 15.7969 23.1328C14.1914 24.0938 13.4414 25.1484 13.4531 26.6953V27.7734H15.5039V27.0117C15.5039 25.7812 15.9258 25.125 17.4141 24.2461C18.9141 23.3438 19.8633 22.043 19.8633 20.2031C19.8633 17.7891 17.8477 15.9609 14.8945 15.9609C11.6016 15.9609 9.91406 17.9766 9.78516 20.5078ZM14.4844 33.1172C15.2461 33.1172 15.8203 32.5312 15.8203 31.7812C15.8203 31.0195 15.2461 30.4453 14.4844 30.4453C13.7344 30.4453 13.1484 31.0195 13.1484 31.7812C13.1484 32.5312 13.7344 33.1172 14.4844 33.1172Z" fill="#BEBEBE"/>
</g>
</g>
</g>

<!--STATIC-->
<path d="M17 118.484H13L13 97.4995L12 95.9995V92.9995L13 94.4995L15 96.9995L17 94.4995L18 92.9995V95.9995L17 97.4995L17 118.484Z" fill="#BEBEBE"/>
<ellipse cx="15" cy="123.182" rx="3" ry="2.81818" transform="rotate(-180 15 123.182)" fill="#505050"/>
<path d="M13 17.5156H17V38.5005L18 40.0005V43.0005L17 41.5005L15 39.0005L13 41.5005L12 43.0005V40.0005L13 38.5005V17.5156Z" fill="#BEBEBE"/>
<ellipse cx="15" cy="12.8182" rx="3" ry="2.81818" fill="#505050"/>


<!--qf-name-->
<text transform="translate(10,105) rotate(270)"   font-size="10px" font-family="SF Pro Display" text-anchor="middle" fill="#FF9500">QF_NAME</text>
<g class="trendlog">
<!--CURR1-->
<g class="fault" format="%.1f" reference="CURRENT1">
<text x="52%" y="50" font-size="12px" font-family="Antonio-Regular" text-anchor="middle">...</text>
</g>
<!--CURR2-->
<g class="fault" format="%.1f" reference="CURRENT2">
<text x="52%" y="35" font-size="12px" font-family="Antonio-Regular" text-anchor="middle">...</text>
</g>
<!--CURR3-->
<g class="fault" format="%.1f" reference="CURRENT3">
<text x="52%" y="20" font-size="12px" font-family="Antonio-Regular" text-anchor="middle">...</text>
</g>
</g>
<!--STATIC-->
<path d="M53.5137 21V12.5449H52.2012V21H53.5137ZM55.4575 21H55.9922V17.4771H55.4526L54.5249 18.1362V18.6733L55.4453 18.019H55.4575V21Z" fill="white"/>
<path d="M53.2085 34V25.5449H51.896V34H53.2085ZM54.2319 31.5098V31.5146H54.7495V31.5073C54.7495 31.1411 55.04 30.8628 55.4258 30.8628C55.792 30.8628 56.0752 31.1118 56.0752 31.4243C56.0752 31.7002 55.9629 31.8857 55.5332 32.3325L54.2612 33.6289V34H56.6709V33.5386H54.9985V33.5264L55.8799 32.6401C56.395 32.1128 56.6147 31.8076 56.6147 31.3975C56.6147 30.8384 56.1143 30.4111 55.4429 30.4111C54.7422 30.4111 54.2319 30.875 54.2319 31.5098Z" fill="white"/>
<path d="M53.1426 47V38.5449H51.8301V47H53.1426ZM54.9619 45.4058H55.4014C55.8652 45.4058 56.1533 45.6401 56.1533 46.021C56.1533 46.3652 55.8457 46.6094 55.416 46.6094C54.9717 46.6094 54.6934 46.3774 54.6592 46.0405H54.1343C54.1685 46.6484 54.6567 47.0659 55.416 47.0659C56.1509 47.0659 56.71 46.6436 56.71 46.0283C56.71 45.5352 56.3682 45.2104 55.8384 45.1738V45.1641C56.2754 45.0859 56.5635 44.771 56.5635 44.3315C56.5635 43.7896 56.0776 43.4111 55.4111 43.4111C54.7129 43.4111 54.2466 43.8091 54.2051 44.4268H54.7202C54.752 44.0801 55.0059 43.8604 55.3867 43.8604C55.8042 43.8604 56.0288 44.0776 56.0288 44.4048C56.0288 44.7368 55.7676 44.9761 55.3867 44.9761H54.9619V45.4058Z" fill="white"/>
<g clas="trendlog">
<!--VOLTAGE1-->
<g class="fault" format="%.1f" reference="VOLTAGE1">
<text x="85%" y="50" font-size="12px" font-family="Antonio-Regular" text-anchor="middle">...</text>
</g>
<!--VOLTAGE2-->
<g class="fault" format="%.1f" reference="VOLTAGE2">
<text x="85%" y="35" font-size="12px" font-family="Antonio-Regular" text-anchor="middle">...</text>
</g>
<!--VOLTAGE3-->
<g class="fault" format="%.1f" reference="VOLTAGE3">
<text x="85%" y="20" font-size="12px" font-family="Antonio-Regular" text-anchor="middle">...</text>
</g>

</g>
<!--STATIC-->
<path d="M99.748 12.5449H98.4355V18.0293C98.4355 19.8516 99.7363 21.1406 101.857 21.1406C103.979 21.1406 105.279 19.8516 105.279 18.0293V12.5449H103.973V17.918C103.973 19.125 103.205 19.9746 101.857 19.9746C100.51 19.9746 99.748 19.125 99.748 17.918V12.5449ZM107.223 21H107.758V17.4771H107.218L106.291 18.1362V18.6733L107.211 18.019H107.223V21Z" fill="white"/>
<path d="M99.4429 25.5449H98.1304V31.0293C98.1304 32.8516 99.4312 34.1406 101.552 34.1406C103.673 34.1406 104.974 32.8516 104.974 31.0293V25.5449H103.667V30.918C103.667 32.125 102.9 32.9746 101.552 32.9746C100.205 32.9746 99.4429 32.125 99.4429 30.918V25.5449ZM105.998 31.5098V31.5146H106.515V31.5073C106.515 31.1411 106.806 30.8628 107.191 30.8628C107.558 30.8628 107.841 31.1118 107.841 31.4243C107.841 31.7002 107.729 31.8857 107.299 32.3325L106.027 33.6289V34H108.437V33.5386H106.764V33.5264L107.646 32.6401C108.161 32.1128 108.38 31.8076 108.38 31.3975C108.38 30.8384 107.88 30.4111 107.208 30.4111C106.508 30.4111 105.998 30.875 105.998 31.5098Z" fill="white"/>
<path d="M99.377 38.5449H98.0645V44.0293C98.0645 45.8516 99.3652 47.1406 101.486 47.1406C103.607 47.1406 104.908 45.8516 104.908 44.0293V38.5449H103.602V43.918C103.602 45.125 102.834 45.9746 101.486 45.9746C100.139 45.9746 99.377 45.125 99.377 43.918V38.5449ZM106.728 45.4058H107.167C107.631 45.4058 107.919 45.6401 107.919 46.021C107.919 46.3652 107.611 46.6094 107.182 46.6094C106.737 46.6094 106.459 46.3774 106.425 46.0405H105.9C105.934 46.6484 106.422 47.0659 107.182 47.0659C107.917 47.0659 108.476 46.6436 108.476 46.0283C108.476 45.5352 108.134 45.2104 107.604 45.1738V45.1641C108.041 45.0859 108.329 44.771 108.329 44.3315C108.329 43.7896 107.843 43.4111 107.177 43.4111C106.479 43.4111 106.012 43.8091 105.971 44.4268H106.486C106.518 44.0801 106.771 43.8604 107.152 43.8604C107.57 43.8604 107.794 44.0776 107.794 44.4048C107.794 44.7368 107.533 44.9761 107.152 44.9761H106.728V45.4058Z" fill="white"/>
<rect x="42.5" y="0.5" width="99" height="59" stroke="#BEBEBE"/>
<line x1="42" y1="29.5" x2="17" y2="29.5" stroke="#BEBEBE"/>
</g>
</svg>
