<svg width="87" height="240" viewBox="0 0 87 240" fill="none" xmlns="http://www.w3.org/2000/svg">

<g class = 'status'>
<g transform="translate(-17,72)">
<!-- ОТКЛЮЧЕН -->
<g class="fault inactive" reference="OFF">
<g class="animation-display">
<path fill-rule="evenodd" clip-rule="evenodd" d="M33 84H31V93H17V123H31V132H30L32 134.5L34 132H33V123H47V93H33V84ZM45 95.0001H19V121H45V95.0001Z" fill="white"/>
</g>
</g>
<!-- ВКЛЮЧЕН -->
<g class = "fault inactive" reference="ON">
<g class="animation-display" >
<path fill-rule="evenodd" clip-rule="evenodd" d="M33 84H31V93H17V123H31V132H30L32 134.5L34 132H33V123H47V93H33V84ZM45 95.0001H19V121H45V95.0001Z" fill="#4CD964"/>
<path d="M43 97H21V119H43V97Z" fill="#4CD964"/>
</g>
</g>

<!--  АВАРИЯ-->
<g class="fault inactive" reference="ALARM">
<g class="animation-fail">
<path fill-rule="evenodd" clip-rule="evenodd" d="M33 84H31V93H17V123H31V132H30L32 134.5L34 132H33V123H47V93H33V84ZM21 95.0001L45 119V95.0001H21ZM19 121H43L19 97.0001V108V121Z" fill="#FF0000"/>
</g>
</g>

<!--FAULT -->
<g class="fault" reference="ON">
<g class="qf-folt">
<g transform="translate(17,84)">
<path fill-rule="evenodd" clip-rule="evenodd" d="M16 0H14V9H0V39H14V48V49H16V48V39H30V9H16V0ZM28 11.0001H1.99999V37.0001H28V11.0001Z" fill="#BEBEBE"/>
<path d="M26 37H4V37.3871H14V48.2258H13L15 49L17 48.2258H16V37.3871H26V37Z" fill="#BEBEBE"/>
<path d="M26 13H4V35H26V13Z" fill="white"/>
<path d="M9.78516 20.5078H11.7891C11.918 18.832 13.043 17.7891 14.8125 17.7891C16.5586 17.7891 17.6836 18.8555 17.6836 20.3086C17.6836 21.5625 17.1562 22.3008 15.7969 23.1328C14.1914 24.0938 13.4414 25.1484 13.4531 26.6953V27.7734H15.5039V27.0117C15.5039 25.7812 15.9258 25.125 17.4141 24.2461C18.9141 23.3438 19.8633 22.043 19.8633 20.2031C19.8633 17.7891 17.8477 15.9609 14.8945 15.9609C11.6016 15.9609 9.91406 17.9766 9.78516 20.5078ZM14.4844 33.1172C15.2461 33.1172 15.8203 32.5312 15.8203 31.7812C15.8203 31.0195 15.2461 30.4453 14.4844 30.4453C13.7344 30.4453 13.1484 31.0195 13.1484 31.7812C13.1484 32.5312 13.7344 33.1172 14.4844 33.1172Z" fill="#BEBEBE"/>
</g>
</g>
</g>
</g>
</g>
<!--static-->
<path d="M17.0002 231.486H13.0002V210.501L12.0002 209.001V206.001L13.0002 207.501L15.0002 210.001L17.0002 207.501L18.0002 206.001V209.001L17.0002 210.501V231.486Z" fill="#640064"/>
<ellipse cx="15.0002" cy="236.183" rx="3" ry="2.81818" transform="rotate(-180 15.0002 236.183)" fill="black"/>
<path d="M13.0002 130.517H17.0002V151.501L18.0002 153.001V156.001L17.0002 154.501L15.0002 152.001L13.0002 154.501L12.0002 156.001V153.001L13.0002 151.501L13.0002 130.517Z" fill="#640064"/>
<ellipse cx="15.0002" cy="125.82" rx="3" ry="2.81818" fill="black"/>
<!-- надпись Потребитель-->
<text transform="translate(20,75) rotate(270)"   font-size="16px" font-family="SF Pro Display" text-anchor="middle" fill="#BEBEBE">EC_NAME</text>

<!-- надпись типа 1QF26 -->
<text transform="translate(10,215) rotate(270)"   font-size="10px" font-family="SF Pro Display" text-anchor="middle" fill="#FF9500">QF_NAME</text>

<g class="trendlog">
<!-- ток3-->

<g class="fault" format="%.1f" reference="CURRENT3">
<text x="73%" y="180" font-size="12px" font-family="Antonio-Regular" text-anchor="middle" >...</text>
</g>
<!-- ток2-->

<g class="fault" format="%.1f" reference="CURRENT2">
<text x="73%" y="168" font-size="12px" font-family="Antonio-Regular" text-anchor="middle" >...</text>
</g>
<!-- частота-->

<g class="fault" format="%.1f" reference="FREQUENCY">
<text x="73%" y="210" font-size="12px" font-family="Antonio-Regular" text-anchor="middle" >...</text>
</g>
<!-- ток1-->

<g class="fault" format="%.1f" reference="CURRENT1">
<text x="73%" y="155" font-size="12px" font-family="Antonio-Regular" text-anchor="middle" >...</text>
</g>
<path d="M45.5138 155.001V146.546H44.2013V155.001H45.5138ZM47.4576 155.001H47.9923V151.479H47.4528L46.525 152.138V152.675L47.4454 152.021H47.4576V155.001Z" fill="white"/>
<path d="M45.2086 168.001V159.546H43.8961V168.001H45.2086ZM46.2321 165.511V165.516H46.7496V165.509C46.7496 165.143 47.0402 164.864 47.4259 164.864C47.7921 164.864 48.0753 165.113 48.0753 165.426C48.0753 165.702 47.963 165.887 47.5333 166.334L46.2614 167.63V168.001H48.671V167.54H46.9987V167.528L47.88 166.642C48.3951 166.114 48.6149 165.809 48.6149 165.399C48.6149 164.84 48.1144 164.413 47.443 164.413C46.7423 164.413 46.2321 164.876 46.2321 165.511Z" fill="white"/>
<path d="M45.1427 181.001V172.546H43.8302V181.001H45.1427ZM46.962 179.407H47.4015C47.8654 179.407 48.1535 179.642 48.1535 180.022C48.1535 180.367 47.8458 180.611 47.4161 180.611C46.9718 180.611 46.6935 180.379 46.6593 180.042H46.1344C46.1686 180.65 46.6569 181.067 47.4161 181.067C48.151 181.067 48.7101 180.645 48.7101 180.03C48.7101 179.537 48.3683 179.212 47.8385 179.175V179.166C48.2755 179.087 48.5636 178.772 48.5636 178.333C48.5636 177.791 48.0778 177.413 47.4113 177.413C46.713 177.413 46.2467 177.811 46.2052 178.428H46.7203C46.7521 178.082 47.006 177.862 47.3868 177.862C47.8043 177.862 48.0289 178.079 48.0289 178.406C48.0289 178.738 47.7677 178.978 47.3868 178.978H46.962V179.407Z" fill="white"/>
<!-- напряжение-->

<g class="fault" format="%.1f" reference="VOLTAGE">
<text x="73%" y="195" font-size="12px" font-family="Antonio-Regular" text-anchor="middle" >...</text>
</g>
<path d="M43.7482 187.546H42.4357V193.031C42.4357 194.853 43.7365 196.142 45.8576 196.142C47.9786 196.142 49.2794 194.853 49.2794 193.031V187.546H47.9728V192.919C47.9728 194.126 47.2052 194.976 45.8576 194.976C44.5099 194.976 43.7482 194.126 43.7482 192.919V187.546ZM51.2233 196.001H51.7579V192.479H51.2184L50.2907 193.138V193.675L51.2111 193.021H51.2233V196.001Z" fill="white"/>
<path d="M46.422 206.234H42.8419V210.001H41.7169V201.47H47.0021V202.396H42.8419V205.314H46.422V206.234ZM51.0919 204.634C50.9279 204.607 50.7501 204.593 50.5587 204.593C49.8478 204.593 49.3654 204.896 49.1115 205.501V210.001H48.0275V203.662H49.0822L49.0997 204.394C49.4552 203.828 49.9591 203.544 50.6115 203.544C50.8224 203.544 50.9826 203.572 51.0919 203.626V204.634Z" fill="white"/>
<rect x="38.5001" y="137.501" width="48" height="88" stroke="#BEBEBE"/>
<line x1="38.0001" y1="143.501" x2="13.0001" y2="143.501" stroke="#BEBEBE"/>
</g>
</svg>
