<svg width="67" height="25" viewBox="0 0 47 25" fill="none" xmlns="http://www.w3.org/2000/svg">
<path fill-rule="evenodd" clip-rule="evenodd" d="M3.47475 14.7856H2.49024C2.45163 14.7856 2.41302 14.7856 2.39372 14.7655C2.37442 14.7655 2.37442 14.7655 2.37442 14.7655C2.37442 14.7655 2.37442 14.7655 2.35511 14.7655C2.14277 14.685 1.98833 14.4638 1.98833 14.1821C1.98833 13.9206 2.10416 13.7194 2.27789 13.6189H2.2972C2.3165 13.5987 2.3165 13.5987 2.3165 13.5987C2.37442 13.5786 2.43233 13.5585 2.49024 13.5585H3.47475C3.55197 13.5585 3.62919 13.5786 3.6871 13.6189C3.7064 13.6189 3.7064 13.639 3.7064 13.639H3.72571C3.88014 13.7597 3.97666 13.9407 3.97666 14.1821C3.97666 14.4235 3.84153 14.6448 3.6678 14.7253V14.7454C3.64849 14.7454 3.64849 14.7454 3.64849 14.7454H3.62919L3.60988 14.7655C3.57128 14.7655 3.53267 14.7856 3.47475 14.7856ZM3.47475 15.9926H0.501909C0.23165 15.9926 0 16.2742 0 16.5961C0 16.7772 0.0579126 16.9381 0.173738 17.0588C0.193042 17.0789 0.193042 17.0789 0.193042 17.0789C0.212346 17.0789 0.212346 17.099 0.212346 17.099C0.23165 17.099 0.23165 17.099 0.23165 17.1191C0.250954 17.1191 0.250954 17.1392 0.270259 17.1392C0.270259 17.1392 0.289563 17.1392 0.289563 17.1594C0.347475 17.1795 0.424692 17.1996 0.501909 17.1996H3.47475C3.74501 17.1996 3.97666 16.9381 3.97666 16.5961C3.97666 16.2742 3.74501 15.9926 3.47475 15.9926ZM3.47475 12.3515H2.49024C2.45163 12.3515 2.41302 12.3515 2.39372 12.3314C2.37442 12.3314 2.37442 12.3314 2.37442 12.3314C2.37442 12.3314 2.37442 12.3314 2.35511 12.3314C2.14277 12.2711 1.98833 12.0297 1.98833 11.748C1.98833 11.5066 2.10416 11.2853 2.27789 11.1848H2.2972C2.3165 11.1848 2.3165 11.1848 2.3165 11.1848C2.37442 11.1445 2.43233 11.1445 2.49024 11.1445H3.47475C3.55197 11.1445 3.62919 11.1647 3.6871 11.2049C3.7064 11.2049 3.7064 11.2049 3.7064 11.2049L3.72571 11.225C3.88014 11.3256 3.97666 11.5267 3.97666 11.748C3.97666 11.9894 3.84153 12.2107 3.6678 12.3113C3.64849 12.3113 3.64849 12.3113 3.64849 12.3113L3.62919 12.3314H3.60988C3.57128 12.3515 3.53267 12.3515 3.47475 12.3515ZM0.501909 9.91743H3.47475C3.74501 9.91743 3.97666 9.65591 3.97666 9.31393C3.97666 8.99207 3.74501 8.71044 3.47475 8.71044H0.501909C0.386084 8.71044 0.289563 8.75067 0.193042 8.83114C0.193042 8.83114 0.193042 8.83114 0.193042 8.85125C0.193042 8.85125 0.173738 8.85125 0.173738 8.87137C0.0579126 8.97195 0 9.13289 0 9.31393C0 9.65591 0.23165 9.91743 0.501909 9.91743ZM2.35511 6.31658C2.39372 6.29646 2.45163 6.29646 2.49024 6.29646H3.47475C3.53267 6.29646 3.59058 6.29646 3.64849 6.31658C3.64849 6.31658 3.64849 6.33669 3.6678 6.33669H3.6871L3.7064 6.35681C3.86084 6.45739 3.97666 6.65856 3.97666 6.89996C3.97666 7.22182 3.74501 7.50345 3.47475 7.50345H2.49024C2.21998 7.50345 1.98833 7.22182 1.98833 6.89996C1.98833 6.63844 2.12346 6.41716 2.2972 6.33669C2.3165 6.33669 2.3165 6.31658 2.3165 6.31658C2.33581 6.31658 2.33581 6.31658 2.33581 6.31658H2.35511ZM3.47475 5.06935H2.49024C2.47094 5.06935 2.45163 5.06935 2.41302 5.06935H2.39372C2.37442 5.06935 2.37442 5.06935 2.37442 5.04924C2.16207 4.98889 1.98833 4.74749 1.98833 4.46586C1.98833 4.12388 2.21998 3.86237 2.49024 3.86237H3.47475C3.74501 3.86237 3.97666 4.12388 3.97666 4.46586C3.97666 4.72737 3.84153 4.96877 3.62919 5.04924H3.60988C3.59058 5.04924 3.59058 5.04924 3.59058 5.04924C3.59058 5.06935 3.59058 5.06935 3.57128 5.06935C3.53267 5.06935 3.51336 5.06935 3.47475 5.06935ZM3.47475 2.65538H0.501909C0.347475 2.65538 0.212346 2.57491 0.115825 2.43409V2.41398C0.0965209 2.41398 0.0965209 2.41398 0.0965209 2.41398C0.0386084 2.3134 0 2.17258 0 2.05188C0 1.91107 0.0386084 1.77025 0.0965209 1.66967C0.0965209 1.66967 0.0965209 1.66967 0.115825 1.66967V1.64955C0.212346 1.50874 0.347475 1.42827 0.501909 1.42827H3.47475C3.51336 1.42827 3.57128 1.44839 3.60988 1.44839C3.60988 1.4685 3.62919 1.4685 3.62919 1.4685C3.64849 1.4685 3.64849 1.4685 3.64849 1.4685L3.6678 1.48862H3.6871C3.86084 1.5892 3.97666 1.79037 3.97666 2.05188C3.97666 2.29328 3.86084 2.49444 3.6871 2.59503H3.6678L3.64849 2.61514C3.64849 2.61514 3.64849 2.61514 3.62919 2.61514C3.62919 2.61514 3.60988 2.61514 3.60988 2.63526C3.57128 2.63526 3.51336 2.65538 3.47475 2.65538ZM7.49003 17.1996V1.20699C7.49003 0.543145 6.98812 0 6.35108 0C5.73334 0 5.21213 0.543145 5.21213 1.20699V17.1996C2.70259 18.4669 3.55197 22.45 6.35108 22.45C9.15019 22.45 9.99957 18.4669 7.49003 17.1996ZM6.35108 8.46904C6.56342 8.46904 6.73716 8.65009 6.73716 8.87137V18.829C7.60585 19.2716 7.31629 20.6395 6.35108 20.6395C5.38587 20.6395 5.09631 19.2716 5.96499 18.829V8.87137C5.96499 8.65009 6.13873 8.46904 6.35108 8.46904Z" fill="#4CD964"/>
<!--values-->
<g class="fault" format="%.1f" reference="TEMP">
<text x="80%" y="20" font-size="18px" font-family="SF Pro Diaplay" text-anchor="middle">...</text>
</g>
<!--<path d="M36.5527 16.0195C36.2044 15.7363 36.0303 15.3311 36.0303 14.8037C36.0303 14.2764 36.2028 13.8727 36.5479 13.5928C36.8962 13.3128 37.2982 13.1729 37.7539 13.1729C38.2129 13.1729 38.6149 13.3128 38.96 13.5928C39.3083 13.8727 39.4824 14.2764 39.4824 14.8037C39.4824 15.0641 39.432 15.3018 39.3311 15.5166C39.2334 15.7282 39.1032 15.8991 38.9404 16.0293C38.6051 16.3027 38.2096 16.4395 37.7539 16.4395C37.3014 16.4395 36.901 16.2995 36.5527 16.0195ZM38.5889 15.3799C38.6833 15.2236 38.7305 15.0462 38.7305 14.8477C38.7305 14.2715 38.4749 13.9167 37.9639 13.7832C37.8955 13.7637 37.8271 13.7539 37.7588 13.7539L37.5537 13.7832C37.0426 13.9167 36.7871 14.2633 36.7871 14.8232C36.7871 15.0316 36.8343 15.2155 36.9287 15.375C37.111 15.6875 37.3877 15.8438 37.7588 15.8438C37.762 15.8438 37.7653 15.8438 37.7686 15.8438C38.1331 15.8438 38.4066 15.6891 38.5889 15.3799ZM40.6006 14.8867C40.6006 14.2357 40.6543 13.7572 40.7617 13.4512C40.8691 13.1452 40.9863 12.9206 41.1133 12.7773C41.39 12.4648 41.7936 12.307 42.3242 12.3037C43.0664 12.307 43.5449 12.6341 43.7598 13.2852C43.8835 13.6595 43.9453 14.1576 43.9453 14.7793V15.7314H42.9541V14.7744C42.9541 14.2243 42.9232 13.8532 42.8613 13.6611C42.8027 13.4658 42.7311 13.3372 42.6465 13.2754C42.5618 13.2103 42.4544 13.1777 42.3242 13.1777C42.054 13.1777 41.8669 13.3063 41.7627 13.5635C41.6618 13.8174 41.6113 14.2194 41.6113 14.7695V18.4902C41.6113 19.1413 41.6569 19.597 41.748 19.8574C41.8424 20.1146 42.0215 20.2432 42.2852 20.2432C42.5521 20.2432 42.7295 20.113 42.8174 19.8525C42.9085 19.5921 42.9541 19.1364 42.9541 18.4854V17.5332H43.9551V18.4756C43.9551 19.3773 43.8314 20.0413 43.584 20.4678C43.3398 20.891 42.9118 21.1025 42.2998 21.1025C41.6878 21.1025 41.2516 20.8844 40.9912 20.4482C40.7308 20.0088 40.6006 19.348 40.6006 18.4658V14.8867Z" fill="#4CD964"/>
-->
</svg>
