<svg width="149" height="120" viewBox="0 0 149 120" fill="none" xmlns="http://www.w3.org/2000/svg">
<!--static-->
<path d="M20 8.61429H24V41.0454L25 43.3636V48L24 45.6818L22 41.8182L20 45.6818L19 48V43.3636L20 41.0454V8.61429Z" fill="#BEBEBE"/>
<circle cx="22" cy="3" r="3" fill="#505050"/>
<path d="M5.73779 97.2656H6.64307V103.014C6.64307 103.737 6.52881 104.265 6.30029 104.596C6.07471 104.927 5.68213 105.092 5.12256 105.092C4.56299 105.092 4.16748 104.927 3.93604 104.596C3.70459 104.265 3.58887 103.737 3.58887 103.014V97.2656H4.49854V102.992C4.49854 103.507 4.51904 103.816 4.56006 103.919C4.604 104.019 4.64941 104.098 4.69629 104.156C4.77832 104.268 4.92041 104.323 5.12256 104.323C5.32471 104.323 5.47412 104.262 5.5708 104.139C5.66748 104.016 5.71875 103.833 5.72461 103.589C5.7334 103.346 5.73779 103.148 5.73779 102.996V97.2656ZM11.1606 97.2656H12.2988V105H11.4902V101.897L11.5649 99.0059L10.5146 104.987H9.69287L8.59863 99.0059L8.67334 101.897V105H7.86914V97.2656H9.00293L10.1104 103.625L11.1606 97.2656ZM13.4766 99.4541C13.4766 98.3174 13.7461 97.6113 14.2852 97.3359C14.4961 97.2305 14.7275 97.1763 14.9795 97.1733C15.4512 97.1733 15.7925 97.2744 16.0034 97.4766C16.2144 97.6758 16.3506 97.9409 16.4121 98.272C16.4736 98.6001 16.5044 99 16.5044 99.4717V100.069H15.6255V99.063C15.6255 98.6675 15.5845 98.3848 15.5024 98.2148C15.4233 98.0449 15.2651 97.96 15.0278 97.96C14.7935 97.96 14.6279 98.0669 14.5312 98.2808C14.4346 98.4946 14.3862 98.8726 14.3862 99.4146V102.667C14.3862 103.285 14.4287 103.715 14.5137 103.958C14.5986 104.199 14.7656 104.319 15.0146 104.319C15.2666 104.319 15.438 104.194 15.5288 103.945C15.6226 103.696 15.6694 103.264 15.6694 102.649V101.643H15.041V100.939H16.5044V105H16.0254L15.9023 104.402C15.7295 104.851 15.3984 105.075 14.9092 105.075C14.4229 105.075 14.0625 104.886 13.8281 104.508C13.5938 104.127 13.4766 103.523 13.4766 102.697V99.4541ZM17.2822 105.202H20.1431V105.87H17.2822V105.202ZM20.6528 99.5068C20.6528 98.9062 20.6938 98.4697 20.7759 98.1973C20.8608 97.9219 20.9561 97.7212 21.0615 97.5952C21.2988 97.3169 21.6606 97.1777 22.147 97.1777C22.6362 97.1777 22.9878 97.3052 23.2017 97.5601C23.4185 97.8149 23.5488 98.2075 23.5928 98.7378C23.6104 98.9517 23.6191 99.2168 23.6191 99.5332V102.645C23.6191 103.693 23.4712 104.382 23.1753 104.71C22.9468 104.962 22.6011 105.088 22.1382 105.088C21.6782 105.088 21.3428 104.927 21.1318 104.604C20.9209 104.282 20.811 103.756 20.8022 103.027V102.746H21.6636V102.877C21.6636 103.589 21.7134 104.008 21.813 104.134C21.9126 104.257 22.0576 104.319 22.248 104.319C22.4385 104.319 22.563 104.24 22.6216 104.082C22.6831 103.92 22.7139 103.594 22.7139 103.102V101.897C22.5615 102.023 22.3403 102.086 22.0503 102.086C21.4995 102.086 21.1289 101.889 20.9385 101.493C20.748 101.098 20.6528 100.501 20.6528 99.7046V99.5068ZM22.7139 99.3794C22.7139 98.8901 22.686 98.5605 22.6304 98.3906C22.5747 98.2178 22.5088 98.1035 22.4326 98.0479C22.3564 97.9893 22.2568 97.96 22.1338 97.96C21.8906 97.96 21.7324 98.0757 21.6592 98.3071C21.5859 98.5386 21.5493 98.8975 21.5493 99.3838V99.8276C21.5493 100.419 21.5874 100.824 21.6636 101.041C21.7427 101.254 21.9185 101.361 22.1909 101.361C22.4663 101.361 22.6406 101.279 22.7139 101.115V99.3794ZM25.6538 100.535C25.8442 100.283 26.1636 100.157 26.6118 100.157C27.0601 100.157 27.3838 100.334 27.583 100.689C27.7852 101.043 27.8862 101.647 27.8862 102.5V102.97C27.8862 103.676 27.7778 104.206 27.561 104.561C27.3472 104.912 26.9414 105.088 26.3438 105.088C25.6172 105.088 25.147 104.78 24.9331 104.165C24.8101 103.808 24.7485 103.33 24.7485 102.732V99.4761C24.7485 98.6411 24.8657 98.0493 25.1001 97.7007C25.3374 97.3521 25.7314 97.1777 26.2822 97.1777C26.833 97.1777 27.2036 97.3374 27.394 97.6567C27.5874 97.9731 27.687 98.5034 27.6929 99.2476V99.5112H26.8184V99.3662C26.8184 98.6719 26.7744 98.2632 26.6865 98.1401C26.5986 98.0171 26.4448 97.9556 26.2251 97.9556C26.0054 97.9556 25.8545 98.0566 25.7725 98.2588C25.6934 98.4609 25.6538 98.8594 25.6538 99.4541V100.535ZM26.9941 102.482C26.9941 101.896 26.9517 101.492 26.8667 101.269C26.7817 101.043 26.6162 100.931 26.3701 100.931C26.2002 100.931 26.0479 100.966 25.9131 101.036C25.7783 101.106 25.6919 101.177 25.6538 101.247V102.882C25.6538 103.397 25.7021 103.764 25.7988 103.98C25.8955 104.197 26.0771 104.306 26.3438 104.306C26.5195 104.306 26.6514 104.271 26.7393 104.2C26.9092 104.068 26.9941 103.69 26.9941 103.066V102.482ZM28.8311 97.2656H30.4526C30.9126 97.2656 31.2437 97.3608 31.4458 97.5513C31.6479 97.7417 31.7695 98.0654 31.8105 98.5225C31.8281 98.71 31.8369 99.0029 31.8369 99.4014C31.8369 99.7969 31.7842 100.129 31.6787 100.399C31.5762 100.668 31.3931 100.843 31.1294 100.922C31.3228 100.954 31.4692 101.057 31.5688 101.229C31.6685 101.399 31.7388 101.672 31.7798 102.047C31.8208 102.419 31.8413 102.974 31.8413 103.712C31.8413 104.448 31.8647 104.877 31.9116 105H31.0063C30.9595 104.906 30.936 104.038 30.936 102.394C30.936 101.84 30.8818 101.52 30.7734 101.432C30.665 101.341 30.501 101.295 30.2812 101.295L29.7407 101.265V105H28.8311V97.2656ZM30.936 99.1597C30.936 98.5649 30.8818 98.2207 30.7734 98.127C30.668 98.0332 30.5142 97.9863 30.312 97.9863H29.7407V100.597H30.3208C30.4966 100.597 30.6255 100.563 30.7075 100.496C30.7896 100.428 30.8481 100.299 30.8833 100.109C30.9185 99.9185 30.936 99.6196 30.936 99.2124V99.1597ZM36.3149 97.2656H37.4531V105H36.6445V101.897L36.7192 99.0059L35.6689 104.987H34.8472L33.7529 99.0059L33.8276 101.897V105H33.0234V97.2656H34.1572L35.2646 103.625L36.3149 97.2656Z" fill="#FF9500"/>
<g class="trendlog">
<!-- TOK 3 -->
<g class="fault" format="%.1f" reference="CURR3">
<text x="52%" y="115" font-size="12px" font-family="Antonio-Regular" text-anchor="middle">...</text>
</g>
<!-- ТОК L2 -->
<g class="fault" format="%.1f" reference="CURR2">
<text x="52%" y="101" font-size="12px" font-family="Antonio-Regular" text-anchor="middle" >...</text>
</g>
<!-- ТОК L1 -->
<g class="fault" format="%.1f" reference="CURR1">
<text x="52%" y="87" font-size="12px" font-family="Antonio-Regular" text-anchor="middle" >...</text>
</g>
</g>
<!--static-->
<path d="M54.4443 77.6875H55.6572V88H54.4443V77.6875ZM57.5527 82.8408H57.9805V88H57.377V83.6553C57.3105 83.7354 57.2168 83.7979 57.0957 83.8428C56.9746 83.8857 56.8555 83.9072 56.7383 83.9072V83.4854C56.9043 83.4619 57.0615 83.3945 57.21 83.2832C57.3604 83.1719 57.4746 83.0244 57.5527 82.8408Z" fill="white"/>
<path d="M54.084 90.6875H55.2969V101H54.084V90.6875ZM56.7148 97.5635C56.7148 96.7588 56.7988 96.2637 56.9668 96.0781C57.0312 96.0078 57.0967 95.9512 57.1631 95.9082C57.29 95.8262 57.4678 95.7852 57.6963 95.7852C58.2607 95.7852 58.543 96.2607 58.543 97.2119C58.543 97.6846 58.4209 98.1514 58.1768 98.6123C58.0693 98.8115 57.9609 99.0068 57.8516 99.1982C57.5762 99.6748 57.4043 100.124 57.3359 100.546H58.4639V101H56.75V100.713C56.75 100.324 56.9453 99.751 57.3359 98.9932C57.3379 98.9912 57.4014 98.8691 57.5264 98.627C57.6514 98.3848 57.7266 98.2461 57.752 98.2109C57.8164 98.0918 57.8682 97.9326 57.9072 97.7334C57.9482 97.5342 57.9688 97.332 57.9688 97.127C57.9688 96.9219 57.9541 96.7539 57.9248 96.623C57.8955 96.4922 57.8594 96.4062 57.8164 96.3652C57.7734 96.3223 57.7217 96.3008 57.6611 96.3008C57.6025 96.3008 57.5547 96.3125 57.5176 96.3359C57.377 96.4219 57.3066 96.7129 57.3066 97.209V97.8799H56.7148V97.5635Z" fill="white"/>
<path d="M54.0605 103.688H55.2734V114H54.0605V103.688ZM58.0449 111.284C58.4004 111.446 58.5781 111.878 58.5781 112.579C58.5781 113.081 58.4951 113.453 58.3291 113.695C58.1631 113.938 57.8994 114.059 57.5381 114.059C57.1768 114.059 56.9219 113.942 56.7734 113.71C56.625 113.478 56.5508 113.111 56.5508 112.611V112.383H57.1367V112.62C57.1367 112.985 57.1611 113.231 57.21 113.358C57.2607 113.483 57.3711 113.546 57.541 113.546C57.7129 113.546 57.8281 113.474 57.8867 113.329C57.9473 113.185 57.9775 112.926 57.9775 112.553C57.9775 112.178 57.9365 111.915 57.8545 111.765C57.7744 111.612 57.6309 111.536 57.4238 111.536H57.2568V111.053H57.418C57.5625 111.053 57.6719 111.029 57.7461 110.982C57.8965 110.889 57.9717 110.612 57.9717 110.153C57.9717 110.147 57.9717 110.142 57.9717 110.136C57.9717 109.794 57.9336 109.569 57.8574 109.462C57.7812 109.354 57.6758 109.301 57.541 109.301C57.4082 109.301 57.3105 109.362 57.248 109.485C57.1875 109.606 57.1572 109.826 57.1572 110.145V110.268H56.5625V110.136C56.5625 109.673 56.6377 109.332 56.7881 109.113C56.9385 108.895 57.1904 108.785 57.5439 108.785C57.8975 108.785 58.1562 108.897 58.3203 109.122C58.4844 109.345 58.5664 109.683 58.5664 110.136C58.5664 110.772 58.3926 111.155 58.0449 111.284Z" fill="white"/>
<g class="trendlog">
<!-- volt 3 -->
<g class="fault" format="%.1f" reference="V3">
<text x="52%" y="67" font-size="12px" font-family="Antonio-Regular" text-anchor="middle" >...</text>
</g>
<!-- volt L2 -->
<g class="fault" format="%.1f" reference="V2">
<text x="52%" y="52" font-size="12px" font-family="Antonio-Regular" text-anchor="middle" >...</text>
</g>
<!-- volt L1 -->
<g class="fault" format="%.1f" reference="V1">
<text x="52%" y="38" font-size="12px" font-family="Antonio-Regular" text-anchor="middle" >...</text>
</g>
</g>
<!--static-->
<path d="M58.8799 26.6875H60.0869V34.3516C60.0869 35.3164 59.9346 36.0195 59.6299 36.4609C59.3291 36.9023 58.8057 37.123 58.0596 37.123C57.3135 37.123 56.7861 36.9023 56.4775 36.4609C56.1689 36.0195 56.0146 35.3164 56.0146 34.3516V26.6875H57.2275V34.3223C57.2275 35.0098 57.2549 35.4219 57.3096 35.5586C57.3682 35.6914 57.4287 35.7969 57.4912 35.875C57.6006 36.0234 57.79 36.0977 58.0596 36.0977C58.3291 36.0977 58.5283 36.0156 58.6572 35.8516C58.7861 35.6875 58.8545 35.4434 58.8623 35.1191C58.874 34.7949 58.8799 34.5312 58.8799 34.3281V26.6875ZM61.8301 31.8408H62.2578V37H61.6543V32.6553C61.5879 32.7354 61.4941 32.7979 61.373 32.8428C61.252 32.8857 61.1328 32.9072 61.0156 32.9072V32.4854C61.1816 32.4619 61.3389 32.3945 61.4873 32.2832C61.6377 32.1719 61.752 32.0244 61.8301 31.8408Z" fill="white"/>
<path d="M58.5195 39.6875H59.7266V47.3516C59.7266 48.3164 59.5742 49.0195 59.2695 49.4609C58.9688 49.9023 58.4453 50.123 57.6992 50.123C56.9531 50.123 56.4258 49.9023 56.1172 49.4609C55.8086 49.0195 55.6543 48.3164 55.6543 47.3516V39.6875H56.8672V47.3223C56.8672 48.0098 56.8945 48.4219 56.9492 48.5586C57.0078 48.6914 57.0684 48.7969 57.1309 48.875C57.2402 49.0234 57.4297 49.0977 57.6992 49.0977C57.9688 49.0977 58.168 49.0156 58.2969 48.8516C58.4258 48.6875 58.4941 48.4434 58.502 48.1191C58.5137 47.7949 58.5195 47.5312 58.5195 47.3281V39.6875ZM60.9922 46.5635C60.9922 45.7588 61.0762 45.2637 61.2441 45.0781C61.3086 45.0078 61.374 44.9512 61.4404 44.9082C61.5674 44.8262 61.7451 44.7852 61.9736 44.7852C62.5381 44.7852 62.8203 45.2607 62.8203 46.2119C62.8203 46.6846 62.6982 47.1514 62.4541 47.6123C62.3467 47.8115 62.2383 48.0068 62.1289 48.1982C61.8535 48.6748 61.6816 49.124 61.6133 49.5459H62.7412V50H61.0273V49.7129C61.0273 49.3242 61.2227 48.751 61.6133 47.9932C61.6152 47.9912 61.6787 47.8691 61.8037 47.627C61.9287 47.3848 62.0039 47.2461 62.0293 47.2109C62.0938 47.0918 62.1455 46.9326 62.1846 46.7334C62.2256 46.5342 62.2461 46.332 62.2461 46.127C62.2461 45.9219 62.2314 45.7539 62.2021 45.623C62.1729 45.4922 62.1367 45.4062 62.0938 45.3652C62.0508 45.3223 61.999 45.3008 61.9385 45.3008C61.8799 45.3008 61.832 45.3125 61.7949 45.3359C61.6543 45.4219 61.584 45.7129 61.584 46.209V46.8799H60.9922V46.5635Z" fill="white"/>
<path d="M58.4961 52.6875H59.7031V60.3516C59.7031 61.3164 59.5508 62.0195 59.2461 62.4609C58.9453 62.9023 58.4219 63.123 57.6758 63.123C56.9297 63.123 56.4023 62.9023 56.0938 62.4609C55.7852 62.0195 55.6309 61.3164 55.6309 60.3516V52.6875H56.8438V60.3223C56.8438 61.0098 56.8711 61.4219 56.9258 61.5586C56.9844 61.6914 57.0449 61.7969 57.1074 61.875C57.2168 62.0234 57.4062 62.0977 57.6758 62.0977C57.9453 62.0977 58.1445 62.0156 58.2734 61.8516C58.4023 61.6875 58.4707 61.4434 58.4785 61.1191C58.4902 60.7949 58.4961 60.5312 58.4961 60.3281V52.6875ZM62.3223 60.2842C62.6777 60.4463 62.8555 60.8779 62.8555 61.5791C62.8555 62.0811 62.7725 62.4531 62.6064 62.6953C62.4404 62.9375 62.1768 63.0586 61.8154 63.0586C61.4541 63.0586 61.1992 62.9424 61.0508 62.71C60.9023 62.4775 60.8281 62.1113 60.8281 61.6113V61.3828H61.4141V61.6201C61.4141 61.9854 61.4385 62.2314 61.4873 62.3584C61.5381 62.4834 61.6484 62.5459 61.8184 62.5459C61.9902 62.5459 62.1055 62.4736 62.1641 62.3291C62.2246 62.1846 62.2549 61.9258 62.2549 61.5527C62.2549 61.1777 62.2139 60.915 62.1318 60.7646C62.0518 60.6123 61.9082 60.5361 61.7012 60.5361H61.5342V60.0527H61.6953C61.8398 60.0527 61.9492 60.0293 62.0234 59.9824C62.1738 59.8887 62.249 59.6123 62.249 59.1533C62.249 59.1475 62.249 59.1416 62.249 59.1357C62.249 58.7939 62.2109 58.5693 62.1348 58.4619C62.0586 58.3545 61.9531 58.3008 61.8184 58.3008C61.6855 58.3008 61.5879 58.3623 61.5254 58.4854C61.4648 58.6064 61.4346 58.8262 61.4346 59.1445V59.2676H60.8398V59.1357C60.8398 58.6729 60.915 58.332 61.0654 58.1133C61.2158 57.8945 61.4678 57.7852 61.8213 57.7852C62.1748 57.7852 62.4336 57.8975 62.5977 58.1221C62.7617 58.3447 62.8438 58.6826 62.8438 59.1357C62.8438 59.7725 62.6699 60.1553 62.3223 60.2842Z" fill="white"/>
<g class="trendlog">
<!-- P 3 -->
<g class="fault" format="%.1f" reference="P3">
<text x="88%" y="65" font-size="12px" font-family="Antonio-Regular" text-anchor="middle" >...</text>
</g>
<!-- P L2 -->
<g class="fault" format="%.1f" reference="P2">
<text x="88%" y="52" font-size="12px" font-family="Antonio-Regular" text-anchor="middle" >...</text>
</g>
<!-- P L1 -->
<g class="fault" format="%.1f" reference="P1">
<text x="88%" y="40" font-size="12px" font-family="Antonio-Regular" text-anchor="middle" >...</text>
</g>
</g>
<!--static-->
<path d="M97.0176 37V26.6875H99.3848C100.186 26.6875 100.732 26.9316 101.025 27.4199C101.322 27.9043 101.479 28.6289 101.494 29.5938V29.8105C101.494 30.834 101.348 31.6113 101.055 32.1426C100.766 32.6699 100.227 32.9336 99.4375 32.9336H98.5879V37H97.0176ZM98.5879 31.6387H99.127C99.459 31.6387 99.6738 31.5117 99.7715 31.2578C99.873 31 99.9238 30.5117 99.9238 29.793V29.5938C99.9199 28.9844 99.8652 28.5488 99.7598 28.2871C99.6582 28.0254 99.4512 27.8945 99.1387 27.8945H98.5879V31.6387ZM102.531 37V32.8164C102.465 32.8965 102.371 32.959 102.25 33.0039C102.129 33.0469 102.01 33.0684 101.893 33.0684V32.4854C102.059 32.4619 102.216 32.3945 102.364 32.2832C102.515 32.1719 102.629 32.0244 102.707 31.8408H103.316V37H102.531Z" fill="white"/>
<path d="M96.9297 39.6875H99.0039C99.918 39.6875 100.492 40.0664 100.727 40.8242C100.875 41.3008 100.949 41.8574 100.949 42.4941C100.949 43.1309 100.932 43.6094 100.896 43.9297C100.818 44.6328 100.633 45.1465 100.34 45.4707C100.047 45.791 99.6016 45.9512 99.0039 45.9512H98.1426V50H96.9297V39.6875ZM99.7363 42.5996C99.7363 41.8926 99.6797 41.3906 99.5664 41.0938C99.457 40.7969 99.2383 40.6484 98.9102 40.6484H98.1426V44.9434H98.8809C99.2246 44.9434 99.4531 44.793 99.5664 44.4922C99.6797 44.1914 99.7363 43.627 99.7363 42.7988V42.5996ZM101.775 46.5635C101.775 45.7588 101.859 45.2637 102.027 45.0781C102.092 45.0078 102.157 44.9512 102.224 44.9082C102.351 44.8262 102.528 44.7852 102.757 44.7852C103.321 44.7852 103.604 45.2607 103.604 46.2119C103.604 46.6846 103.481 47.1514 103.237 47.6123C103.13 47.8115 103.021 48.0068 102.912 48.1982C102.637 48.6748 102.465 49.124 102.396 49.5459H103.524V50H101.811V49.7129C101.811 49.3242 102.006 48.751 102.396 47.9932C102.398 47.9912 102.462 47.8691 102.587 47.627C102.712 47.3848 102.787 47.2461 102.812 47.2109C102.877 47.0918 102.929 46.9326 102.968 46.7334C103.009 46.5342 103.029 46.332 103.029 46.127C103.029 45.9219 103.015 45.7539 102.985 45.623C102.956 45.4922 102.92 45.4062 102.877 45.3652C102.834 45.3223 102.782 45.3008 102.722 45.3008C102.663 45.3008 102.615 45.3125 102.578 45.3359C102.438 45.4219 102.367 45.7129 102.367 46.209V46.8799H101.775V46.5635Z" fill="white"/>
<path d="M96.9062 52.6875H98.9805C99.8945 52.6875 100.469 53.0664 100.703 53.8242C100.852 54.3008 100.926 54.8574 100.926 55.4941C100.926 56.1309 100.908 56.6094 100.873 56.9297C100.795 57.6328 100.609 58.1465 100.316 58.4707C100.023 58.791 99.5781 58.9512 98.9805 58.9512H98.1191V63H96.9062V52.6875ZM99.7129 55.5996C99.7129 54.8926 99.6562 54.3906 99.543 54.0938C99.4336 53.7969 99.2148 53.6484 98.8867 53.6484H98.1191V57.9434H98.8574C99.2012 57.9434 99.4297 57.793 99.543 57.4922C99.6562 57.1914 99.7129 56.627 99.7129 55.7988V55.5996ZM103.105 60.2842C103.461 60.4463 103.639 60.8779 103.639 61.5791C103.639 62.0811 103.556 62.4531 103.39 62.6953C103.224 62.9375 102.96 63.0586 102.599 63.0586C102.237 63.0586 101.982 62.9424 101.834 62.71C101.686 62.4775 101.611 62.1113 101.611 61.6113V61.3828H102.197V61.6201C102.197 61.9854 102.222 62.2314 102.271 62.3584C102.321 62.4834 102.432 62.5459 102.602 62.5459C102.773 62.5459 102.889 62.4736 102.947 62.3291C103.008 62.1846 103.038 61.9258 103.038 61.5527C103.038 61.1777 102.997 60.915 102.915 60.7646C102.835 60.6123 102.691 60.5361 102.484 60.5361H102.317V60.0527H102.479C102.623 60.0527 102.732 60.0293 102.807 59.9824C102.957 59.8887 103.032 59.6123 103.032 59.1533C103.032 59.1475 103.032 59.1416 103.032 59.1357C103.032 58.7939 102.994 58.5693 102.918 58.4619C102.842 58.3545 102.736 58.3008 102.602 58.3008C102.469 58.3008 102.371 58.3623 102.309 58.4854C102.248 58.6064 102.218 58.8262 102.218 59.1445V59.2676H101.623V59.1357C101.623 58.6729 101.698 58.332 101.849 58.1133C101.999 57.8945 102.251 57.7852 102.604 57.7852C102.958 57.7852 103.217 57.8975 103.381 58.1221C103.545 58.3447 103.627 58.6826 103.627 59.1357C103.627 59.7725 103.453 60.1553 103.105 60.2842Z" fill="white"/>
<g class="trendlog">
<!-- S 3 -->
<g class="fault" format="%.1f" reference="S3">
<text x="88%" y="115" font-size="12px" font-family="Antonio-Regular" text-anchor="middle" >...</text>
</g>
<!-- S L2 -->
<g class="fault" format="%.1f" reference="S2">
<text x="88%" y="101" font-size="12px" font-family="Antonio-Regular" text-anchor="middle" >...</text>
</g>
<!-- S L1 -->
<g class="fault" format="%.1f" reference="S1">
<text x="88%" y="87" font-size="12px" font-family="Antonio-Regular" text-anchor="middle" >...</text>
</g>
</g>
<!--static-->
<path d="M97.2256 81.8809C97.1553 81.6348 97.1201 81.3398 97.1201 80.9961C97.1201 80.25 97.2568 79.6582 97.5303 79.2207C97.8076 78.7793 98.335 78.5586 99.1123 78.5586C100.112 78.5586 100.702 79.0391 100.882 80C100.96 80.4141 100.999 80.9355 100.999 81.5645V82.1738H99.8389V81.4824C99.8389 80.8262 99.8057 80.3848 99.7393 80.1582C99.6729 79.9316 99.5908 79.7812 99.4932 79.707C99.3955 79.6328 99.2686 79.5957 99.1123 79.5957C98.8193 79.5957 98.6084 79.7031 98.4795 79.918C98.3506 80.1328 98.2861 80.4512 98.2861 80.873C98.2861 81.2949 98.3447 81.6035 98.4619 81.7988C98.5791 81.9941 98.7236 82.1816 98.8955 82.3613C99.0674 82.5371 99.1631 82.6367 99.1826 82.6602L99.8857 83.4043C100.729 84.2871 101.151 85.2754 101.151 86.3691C101.151 87.2598 101.013 87.9414 100.735 88.4141C100.462 88.8828 99.9385 89.1172 99.165 89.1172C98.2314 89.1172 97.6396 88.707 97.3896 87.8867C97.2451 87.4258 97.1729 86.8223 97.1729 86.0762C97.1729 86.0566 97.1729 86.0371 97.1729 86.0176V85.0156H98.3506V86.0645C98.3506 86.8184 98.4053 87.3438 98.5146 87.6406C98.624 87.9336 98.8271 88.0801 99.124 88.0801C99.4209 88.0801 99.626 88.0117 99.7393 87.875C99.8525 87.7344 99.917 87.5215 99.9326 87.2363C99.9521 86.9512 99.9619 86.6309 99.9619 86.2754C99.9619 85.5605 99.6475 84.8887 99.0186 84.2598L98.3447 83.5859C97.7432 82.9688 97.3701 82.4004 97.2256 81.8809ZM102.561 83.8408H102.988V89H102.385V84.6553C102.318 84.7354 102.225 84.7979 102.104 84.8428C101.982 84.8857 101.863 84.9072 101.746 84.9072V84.4854C101.912 84.4619 102.069 84.3945 102.218 84.2832C102.368 84.1719 102.482 84.0244 102.561 83.8408Z" fill="white"/>
<path d="M96.8652 94.8809C96.7949 94.6348 96.7598 94.3398 96.7598 93.9961C96.7598 93.25 96.8965 92.6582 97.1699 92.2207C97.4473 91.7793 97.9746 91.5586 98.752 91.5586C99.752 91.5586 100.342 92.0391 100.521 93C100.6 93.4141 100.639 93.9355 100.639 94.5645V95.1738H99.4785V94.4824C99.4785 93.8262 99.4453 93.3848 99.3789 93.1582C99.3125 92.9316 99.2305 92.7812 99.1328 92.707C99.0352 92.6328 98.9082 92.5957 98.752 92.5957C98.459 92.5957 98.248 92.7031 98.1191 92.918C97.9902 93.1328 97.9258 93.4512 97.9258 93.873C97.9258 94.2949 97.9844 94.6035 98.1016 94.7988C98.2188 94.9941 98.3633 95.1816 98.5352 95.3613C98.707 95.5371 98.8027 95.6367 98.8223 95.6602L99.5254 96.4043C100.369 97.2871 100.791 98.2754 100.791 99.3691C100.791 100.26 100.652 100.941 100.375 101.414C100.102 101.883 99.5781 102.117 98.8047 102.117C97.8711 102.117 97.2793 101.707 97.0293 100.887C96.8848 100.426 96.8125 99.8223 96.8125 99.0762C96.8125 99.0566 96.8125 99.0371 96.8125 99.0176V98.0156H97.9902V99.0645C97.9902 99.8184 98.0449 100.344 98.1543 100.641C98.2637 100.934 98.4668 101.08 98.7637 101.08C99.0605 101.08 99.2656 101.012 99.3789 100.875C99.4922 100.734 99.5566 100.521 99.5723 100.236C99.5918 99.9512 99.6016 99.6309 99.6016 99.2754C99.6016 98.5605 99.2871 97.8887 98.6582 97.2598L97.9844 96.5859C97.3828 95.9688 97.0098 95.4004 96.8652 94.8809ZM101.723 98.5635C101.723 97.7588 101.807 97.2637 101.975 97.0781C102.039 97.0078 102.104 96.9512 102.171 96.9082C102.298 96.8262 102.476 96.7852 102.704 96.7852C103.269 96.7852 103.551 97.2607 103.551 98.2119C103.551 98.6846 103.429 99.1514 103.185 99.6123C103.077 99.8115 102.969 100.007 102.859 100.198C102.584 100.675 102.412 101.124 102.344 101.546H103.472V102H101.758V101.713C101.758 101.324 101.953 100.751 102.344 99.9932C102.346 99.9912 102.409 99.8691 102.534 99.627C102.659 99.3848 102.734 99.2461 102.76 99.2109C102.824 99.0918 102.876 98.9326 102.915 98.7334C102.956 98.5342 102.977 98.332 102.977 98.127C102.977 97.9219 102.962 97.7539 102.933 97.623C102.903 97.4922 102.867 97.4062 102.824 97.3652C102.781 97.3223 102.729 97.3008 102.669 97.3008C102.61 97.3008 102.562 97.3125 102.525 97.3359C102.385 97.4219 102.314 97.7129 102.314 98.209V98.8799H101.723V98.5635Z" fill="white"/>
<path d="M96.8418 107.881C96.7715 107.635 96.7363 107.34 96.7363 106.996C96.7363 106.25 96.873 105.658 97.1465 105.221C97.4238 104.779 97.9512 104.559 98.7285 104.559C99.7285 104.559 100.318 105.039 100.498 106C100.576 106.414 100.615 106.936 100.615 107.564V108.174H99.4551V107.482C99.4551 106.826 99.4219 106.385 99.3555 106.158C99.2891 105.932 99.207 105.781 99.1094 105.707C99.0117 105.633 98.8848 105.596 98.7285 105.596C98.4355 105.596 98.2246 105.703 98.0957 105.918C97.9668 106.133 97.9023 106.451 97.9023 106.873C97.9023 107.295 97.9609 107.604 98.0781 107.799C98.1953 107.994 98.3398 108.182 98.5117 108.361C98.6836 108.537 98.7793 108.637 98.7988 108.66L99.502 109.404C100.346 110.287 100.768 111.275 100.768 112.369C100.768 113.26 100.629 113.941 100.352 114.414C100.078 114.883 99.5547 115.117 98.7812 115.117C97.8477 115.117 97.2559 114.707 97.0059 113.887C96.8613 113.426 96.7891 112.822 96.7891 112.076C96.7891 112.057 96.7891 112.037 96.7891 112.018V111.016H97.9668V112.064C97.9668 112.818 98.0215 113.344 98.1309 113.641C98.2402 113.934 98.4434 114.08 98.7402 114.08C99.0371 114.08 99.2422 114.012 99.3555 113.875C99.4688 113.734 99.5332 113.521 99.5488 113.236C99.5684 112.951 99.5781 112.631 99.5781 112.275C99.5781 111.561 99.2637 110.889 98.6348 110.26L97.9609 109.586C97.3594 108.969 96.9863 108.4 96.8418 107.881ZM103.053 112.284C103.408 112.446 103.586 112.878 103.586 113.579C103.586 114.081 103.503 114.453 103.337 114.695C103.171 114.938 102.907 115.059 102.546 115.059C102.185 115.059 101.93 114.942 101.781 114.71C101.633 114.478 101.559 114.111 101.559 113.611V113.383H102.145V113.62C102.145 113.985 102.169 114.231 102.218 114.358C102.269 114.483 102.379 114.546 102.549 114.546C102.721 114.546 102.836 114.474 102.895 114.329C102.955 114.185 102.985 113.926 102.985 113.553C102.985 113.178 102.944 112.915 102.862 112.765C102.782 112.612 102.639 112.536 102.432 112.536H102.265V112.053H102.426C102.57 112.053 102.68 112.029 102.754 111.982C102.904 111.889 102.979 111.612 102.979 111.153C102.979 111.147 102.979 111.142 102.979 111.136C102.979 110.794 102.941 110.569 102.865 110.462C102.789 110.354 102.684 110.301 102.549 110.301C102.416 110.301 102.318 110.362 102.256 110.485C102.195 110.606 102.165 110.826 102.165 111.145V111.268H101.57V111.136C101.57 110.673 101.646 110.332 101.796 110.113C101.946 109.895 102.198 109.785 102.552 109.785C102.905 109.785 103.164 109.897 103.328 110.122C103.492 110.345 103.574 110.683 103.574 111.136C103.574 111.772 103.4 112.155 103.053 112.284Z" fill="white"/>
<rect x="49.5" y="23.5" width="99" height="96" stroke="#BEBEBE"/>
<line x1="49" y1="31.5" x2="24" y2="31.5" stroke="#BEBEBE"/>
</svg>
