<svg width="164" height="99" viewBox="0 0 164 99" fill="none" xmlns="http://www.w3.org/2000/svg">
<rect width="164" height="90" rx="10" fill="#303235"/>
<path d="M30.1928 17V7.13574H28.7641L25.3598 15.3662H25.3051L21.9008 7.13574H20.4721V17H21.6205V9.39844H21.6684L24.8129 16.9316H25.852L28.9965 9.39844H29.0444V17H30.1928ZM34.5838 16.1113C33.7293 16.1113 33.1619 15.667 33.1619 14.9902C33.1619 14.3203 33.7088 13.8965 34.6658 13.835L36.5662 13.7188V14.2998C36.5662 15.3252 35.7048 16.1113 34.5838 16.1113ZM34.3172 17.123C35.2742 17.123 36.1765 16.5898 36.6004 15.7764H36.6277V17H37.7556V12.085C37.7556 10.6699 36.7029 9.76758 35.0349 9.76758C33.3533 9.76758 32.3005 10.7109 32.2185 11.9414H33.367C33.5173 11.2441 34.0916 10.8135 35.0076 10.8135C35.992 10.8135 36.5662 11.333 36.5662 12.2012V12.7959L34.5291 12.9121C32.8884 13.0078 31.9519 13.7734 31.9519 14.9902C31.9519 16.2686 32.9021 17.123 34.3172 17.123ZM43.0352 9.76758C42.003 9.76758 41.1759 10.2939 40.7384 11.0938H40.711V9.89062H39.5831V19.3721H40.7725V15.8447H40.7999C41.2237 16.624 42.044 17.123 43.0626 17.123C44.8536 17.123 46.0772 15.6738 46.0772 13.4453C46.0772 11.2168 44.8468 9.76758 43.0352 9.76758ZM42.8028 16.0771C41.586 16.0771 40.7657 15.0312 40.7657 13.4453C40.7657 11.8662 41.586 10.8135 42.8028 10.8135C44.0675 10.8135 44.8604 11.8389 44.8604 13.4453C44.8604 15.0586 44.0675 16.0771 42.8028 16.0771ZM48.7523 17L52.307 11.709H52.3617V17H53.5375V9.89062H52.3617L48.807 15.1816H48.7523V9.89062H47.5766V17H48.7523ZM60.0681 17H61.2439V9.89062H60.0681V12.8232H56.5613V9.89062H55.3855V17H56.5613V13.8008H60.0681V17ZM65.4502 16.1113C64.5957 16.1113 64.0284 15.667 64.0284 14.9902C64.0284 14.3203 64.5752 13.8965 65.5323 13.835L67.4327 13.7188V14.2998C67.4327 15.3252 66.5713 16.1113 65.4502 16.1113ZM65.1836 17.123C66.1407 17.123 67.043 16.5898 67.4668 15.7764H67.4942V17H68.6221V12.085C68.6221 10.6699 67.5694 9.76758 65.9014 9.76758C64.2198 9.76758 63.167 10.7109 63.085 11.9414H64.2334C64.3838 11.2441 64.958 10.8135 65.8741 10.8135C66.8584 10.8135 67.4327 11.333 67.4327 12.2012V12.7959L65.3955 12.9121C63.7549 13.0078 62.8184 13.7734 62.8184 14.9902C62.8184 16.2686 63.7686 17.123 65.1836 17.123ZM81.3141 11.8594L85.5251 7.13574H84.0007L80.0358 11.6816H79.9811V7.13574H78.7507V11.6816H78.696L74.7448 7.13574H73.1862L77.4108 11.873L72.7966 17H74.3825L78.696 12.208H78.7507V17H79.9811V12.208H80.0358L84.3151 17H85.9694L81.3141 11.8594ZM87.1748 19.6592C88.46 19.6592 89.0479 19.1602 89.6562 17.499L92.4521 9.89062H91.2012L89.2324 15.8105H89.2119L87.2432 9.89062H85.9717L88.5967 17.0068L88.4326 17.5059C88.1592 18.333 87.79 18.6543 87.127 18.6543C86.9766 18.6543 86.792 18.6475 86.6621 18.6201V19.6182C86.792 19.6455 87.0312 19.6592 87.1748 19.6592ZM97.1507 9.76758C96.1185 9.76758 95.2913 10.2939 94.8538 11.0938H94.8265V9.89062H93.6986V19.3721H94.888V15.8447H94.9154C95.3392 16.624 96.1595 17.123 97.1781 17.123C98.9691 17.123 100.193 15.6738 100.193 13.4453C100.193 11.2168 98.9622 9.76758 97.1507 9.76758ZM96.9183 16.0771C95.7015 16.0771 94.8812 15.0312 94.8812 13.4453C94.8812 11.8662 95.7015 10.8135 96.9183 10.8135C98.1829 10.8135 98.9759 11.8389 98.9759 13.4453C98.9759 15.0586 98.1829 16.0771 96.9183 16.0771ZM104.044 16.1113C103.189 16.1113 102.622 15.667 102.622 14.9902C102.622 14.3203 103.169 13.8965 104.126 13.835L106.026 13.7188V14.2998C106.026 15.3252 105.165 16.1113 104.044 16.1113ZM103.777 17.123C104.734 17.123 105.636 16.5898 106.06 15.7764H106.088V17H107.215V12.085C107.215 10.6699 106.163 9.76758 104.495 9.76758C102.813 9.76758 101.76 10.7109 101.678 11.9414H102.827C102.977 11.2441 103.551 10.8135 104.467 10.8135C105.452 10.8135 106.026 11.333 106.026 12.2012V12.7959L103.989 12.9121C102.348 13.0078 101.412 13.7734 101.412 14.9902C101.412 16.2686 102.362 17.123 103.777 17.123ZM111.914 10.8545C112.659 10.8545 113.062 11.2031 113.062 11.832C113.062 12.5156 112.632 12.8438 111.736 12.8438H110.212V10.8545H111.914ZM111.832 13.8008C112.871 13.8008 113.37 14.1699 113.37 14.9287C113.37 15.6465 112.905 16.0361 112.044 16.0361H110.212V13.8008H111.832ZM109.036 17H112.099C113.609 17 114.539 16.2139 114.539 14.9561C114.539 14.0674 113.951 13.418 113.056 13.2949V13.2402C113.712 13.1035 114.225 12.4336 114.225 11.709C114.225 10.5811 113.411 9.89062 112.078 9.89062H109.036V17ZM117.843 13.8623L118.062 10.8682H120.482V17H121.658V9.89062H117.002L116.729 13.835C116.64 15.1406 116.373 15.9678 115.669 15.9678C115.498 15.9678 115.368 15.9336 115.307 15.9131V16.9863C115.389 17.0205 115.526 17.0615 115.731 17.0615C117.228 17.0615 117.699 15.8242 117.843 13.8623ZM126.377 10.7998C127.498 10.7998 128.243 11.6475 128.27 12.8369H124.408C124.483 11.6543 125.262 10.7998 126.377 10.7998ZM128.243 14.9629C128.045 15.6328 127.381 16.0908 126.479 16.0908C125.201 16.0908 124.401 15.1953 124.401 13.835V13.7666H129.501V13.3154C129.501 11.1621 128.318 9.76758 126.397 9.76758C124.435 9.76758 123.177 11.2646 123.177 13.4727C123.177 15.708 124.415 17.123 126.452 17.123C128.004 17.123 129.207 16.207 129.412 14.9629H128.243ZM133.878 10.8545C134.623 10.8545 135.026 11.2031 135.026 11.832C135.026 12.5156 134.596 12.8438 133.7 12.8438H132.176V10.8545H133.878ZM133.796 13.8008C134.835 13.8008 135.334 14.1699 135.334 14.9287C135.334 15.6465 134.869 16.0361 134.008 16.0361H132.176V13.8008H133.796ZM131 17H134.062C135.573 17 136.503 16.2139 136.503 14.9561C136.503 14.0674 135.915 13.418 135.019 13.2949V13.2402C135.676 13.1035 136.188 12.4336 136.188 11.709C136.188 10.5811 135.375 9.89062 134.042 9.89062H131V17ZM140.395 16.1113C139.54 16.1113 138.973 15.667 138.973 14.9902C138.973 14.3203 139.52 13.8965 140.477 13.835L142.377 13.7188V14.2998C142.377 15.3252 141.516 16.1113 140.395 16.1113ZM140.128 17.123C141.085 17.123 141.988 16.5898 142.411 15.7764H142.439V17H143.567V12.085C143.567 10.6699 142.514 9.76758 140.846 9.76758C139.164 9.76758 138.112 10.7109 138.03 11.9414H139.178C139.328 11.2441 139.903 10.8135 140.819 10.8135C141.803 10.8135 142.377 11.333 142.377 12.2012V12.7959L140.34 12.9121C138.699 13.0078 137.763 13.7734 137.763 14.9902C137.763 16.2686 138.713 17.123 140.128 17.123Z" fill="#DADADA"/>
<path d="M60.8565 27.4629C60.8565 25.9629 59.7256 24.9141 58.1377 24.9141H56.128V22.4941H60.0127V21.5449H55.0733V30H58.1495C59.7374 30 60.8565 28.957 60.8565 27.4629ZM56.128 29.0508V25.8633H57.8741C59.0811 25.8633 59.7725 26.4375 59.7725 27.4629C59.7725 28.4824 59.087 29.0508 57.8741 29.0508H56.128ZM62.6514 32.2793C63.753 32.2793 64.2569 31.8516 64.7784 30.4277L67.1748 23.9062H66.1026L64.4151 28.9805H64.3975L62.71 23.9062H61.6202L63.8702 30.0059L63.7295 30.4336C63.4952 31.1426 63.1787 31.418 62.6104 31.418C62.4815 31.418 62.3233 31.4121 62.212 31.3887V32.2441C62.3233 32.2676 62.5284 32.2793 62.6514 32.2793ZM70.3994 27.6797L71.8584 30H72.9893L70.9619 26.9121L73.0186 23.9062H71.8819L70.4346 26.1914H70.4112L68.9463 23.9062H67.8096L69.8487 26.9531L67.7744 30H68.9053L70.376 27.6797H70.3994ZM78.0537 24.7441V23.9062H74.1338V30H75.1416V24.7441H78.0537ZM81.0381 29.2383C80.3057 29.2383 79.8193 28.8574 79.8193 28.2773C79.8193 27.7031 80.2881 27.3398 81.1084 27.2871L82.7373 27.1875V27.6855C82.7373 28.5645 81.999 29.2383 81.0381 29.2383ZM80.8096 30.1055C81.6299 30.1055 82.4033 29.6484 82.7666 28.9512H82.79V30H83.7568V25.7871C83.7568 24.5742 82.8545 23.8008 81.4248 23.8008C79.9834 23.8008 79.0811 24.6094 79.0107 25.6641H79.9951C80.124 25.0664 80.6162 24.6973 81.4014 24.6973C82.2451 24.6973 82.7373 25.1426 82.7373 25.8867V26.3965L80.9912 26.4961C79.585 26.5781 78.7822 27.2344 78.7822 28.2773C78.7822 29.373 79.5967 30.1055 80.8096 30.1055ZM86.9463 27.3105L87.1338 24.7441H89.208V30H90.2158V23.9062H86.2256L85.9912 27.2871C85.915 28.4062 85.6865 29.1152 85.083 29.1152C84.9365 29.1152 84.8252 29.0859 84.7725 29.0684V29.9883C84.8428 30.0176 84.96 30.0527 85.1357 30.0527C86.4189 30.0527 86.8232 28.9922 86.9463 27.3105ZM96.2705 23.9062H91.3252V24.7441H93.2939V30H94.3017V24.7441H96.2705V23.9062ZM99.7002 24.6855C100.661 24.6855 101.3 25.4121 101.323 26.4316H98.0127C98.0771 25.418 98.7451 24.6855 99.7002 24.6855ZM101.3 28.2539C101.13 28.8281 100.561 29.2207 99.7881 29.2207C98.6924 29.2207 98.0068 28.4531 98.0068 27.2871V27.2285H102.378V26.8418C102.378 24.9961 101.364 23.8008 99.7177 23.8008C98.0361 23.8008 96.958 25.084 96.958 26.9766C96.958 28.8926 98.0185 30.1055 99.7646 30.1055C101.095 30.1055 102.126 29.3203 102.302 28.2539H101.3ZM106.628 23.8008C105.743 23.8008 105.034 24.252 104.659 24.9375H104.636V23.9062H103.669V32.0332H104.688V29.0098H104.712C105.075 29.6777 105.778 30.1055 106.651 30.1055C108.186 30.1055 109.235 28.8633 109.235 26.9531C109.235 25.043 108.181 23.8008 106.628 23.8008ZM106.429 29.209C105.386 29.209 104.683 28.3125 104.683 26.9531C104.683 25.5996 105.386 24.6973 106.429 24.6973C107.513 24.6973 108.192 25.5762 108.192 26.9531C108.192 28.3359 107.513 29.209 106.429 29.209Z" fill="#979797"/>
<path d="M13.915 84V77.6587H13.124V80.4009H9.64355V77.6587H8.85254V84H9.64355V81.1128H13.124V84H13.915ZM17.0397 83.4199C16.4904 83.4199 16.0817 83.1387 16.0817 82.6553C16.0817 82.1807 16.3981 81.9302 17.1188 81.8818L18.3932 81.7983V82.2334C18.3932 82.9102 17.8175 83.4199 17.0397 83.4199ZM16.8991 84.0835C17.5319 84.0835 18.0504 83.8066 18.3581 83.3013H18.4284V84H19.1491V80.7568C19.1491 79.7725 18.5031 79.1792 17.3473 79.1792C16.3366 79.1792 15.5895 79.6802 15.4884 80.4404H16.2531C16.3585 80.0669 16.7541 79.8516 17.3209 79.8516C18.0285 79.8516 18.3932 80.1724 18.3932 80.7568V81.1875L17.0265 81.271C15.9235 81.3369 15.2995 81.8247 15.2995 82.6729C15.2995 83.5386 15.9806 84.0835 16.8991 84.0835ZM23.7635 84H24.5193V79.2627H20.6873V84H21.4432V79.8955H23.7635V84ZM26.8354 84L29.1953 80.4668H29.2656V84H30.0214V79.2627H29.2656L26.9057 82.7959H26.8354V79.2627H26.0795V84H26.8354ZM35.5103 80.7129C35.3785 79.8691 34.6754 79.1792 33.524 79.1792C32.1969 79.1792 31.3531 80.1372 31.3531 81.6138C31.3531 83.1211 32.2013 84.0835 33.5284 84.0835C34.6666 84.0835 35.3741 83.4419 35.5103 82.5718H34.7457C34.6051 83.1079 34.1612 83.4023 33.524 83.4023C32.6803 83.4023 32.1353 82.708 32.1353 81.6138C32.1353 80.5415 32.6715 79.8604 33.524 79.8604C34.2052 79.8604 34.6226 80.2427 34.7457 80.7129H35.5103ZM38.2307 83.4199C37.6814 83.4199 37.2727 83.1387 37.2727 82.6553C37.2727 82.1807 37.5891 81.9302 38.3098 81.8818L39.5842 81.7983V82.2334C39.5842 82.9102 39.0085 83.4199 38.2307 83.4199ZM38.0901 84.0835C38.7229 84.0835 39.2414 83.8066 39.5491 83.3013H39.6194V84H40.3401V80.7568C40.3401 79.7725 39.6941 79.1792 38.5383 79.1792C37.5276 79.1792 36.7805 79.6802 36.6794 80.4404H37.4441C37.5495 80.0669 37.9451 79.8516 38.5119 79.8516C39.2195 79.8516 39.5842 80.1724 39.5842 80.7568V81.1875L38.2175 81.271C37.1145 81.3369 36.4905 81.8247 36.4905 82.6729C36.4905 83.5386 37.1716 84.0835 38.0901 84.0835ZM45.3104 79.2627H41.4784V79.8955H43.0165V84H43.7723V79.8955H45.3104V79.2627ZM48.1626 81.416C48.7823 81.416 49.1866 81.7983 49.1866 82.3916C49.1866 82.9805 48.7867 83.3672 48.1626 83.3672H47.2266V81.416H48.1626ZM46.4707 84H48.1626C49.2481 84 49.9424 83.376 49.9424 82.3916C49.9424 81.4072 49.2481 80.7832 48.1626 80.7832H47.2266V79.2627H46.4707V84Z" fill="#979797"/>
<path fill-rule="evenodd" clip-rule="evenodd" d="M29.5 75C39.7173 75 48 66.7173 48 56.5C48 46.2827 39.7173 38 29.5 38C19.2827 38 11 46.2827 11 56.5C11 66.7173 19.2827 75 29.5 75Z" fill="#007AFF"/>
<path fill-rule="evenodd" clip-rule="evenodd" d="M29.5 50C34.1941 50 38 53.1138 38 56.9546C38 60.7955 34.1941 63.9092 29.5 63.9092C28.7276 63.9092 27.1689 63.6012 27.1604 63.615C26.6408 64.4564 23.8008 64.9665 23.5298 64.9972C23.2599 65.029 23.0411 64.7803 23.2769 64.6353C23.5117 64.4903 24.3904 63.7092 24.6051 63.2234C24.8197 62.7376 24.5456 62.4116 24.3522 62.2031C22.3143 60.9331 21 59.2121 21 56.9546C21 53.1138 24.8059 50 29.5 50Z" fill="#DADADA"/>
<path d="M65.8228 84V77.6587H60.8525V84H61.6479V78.3794H65.0405V84H65.8228ZM69.3251 84.0835C70.6742 84.0835 71.5091 83.1519 71.5091 81.6313C71.5091 80.1064 70.6742 79.1792 69.3251 79.1792C67.9759 79.1792 67.141 80.1064 67.141 81.6313C67.141 83.1519 67.9759 84.0835 69.3251 84.0835ZM69.3251 83.4023C68.4286 83.4023 67.9232 82.752 67.9232 81.6313C67.9232 80.5063 68.4286 79.8604 69.3251 79.8604C70.2215 79.8604 70.7269 80.5063 70.7269 81.6313C70.7269 82.752 70.2215 83.4023 69.3251 83.4023ZM74.2907 84.0791C75.3938 84.0791 76.154 83.4814 76.154 82.6025C76.154 82.0576 75.8288 81.6621 75.2004 81.5259V81.4556C75.6662 81.3501 75.9694 80.9282 75.9694 80.458C75.9694 79.7021 75.3586 79.1792 74.2907 79.1792C73.2976 79.1792 72.5944 79.6714 72.4934 80.4492H73.2404C73.302 80.0669 73.7238 79.8208 74.2907 79.8208C74.9104 79.8208 75.2224 80.1152 75.2224 80.5151C75.2224 80.9897 74.8884 81.2227 74.2907 81.2227H73.5524V81.8555H74.2907C75.0158 81.8555 75.4025 82.1016 75.4025 82.6421C75.4025 83.1123 74.9895 83.4419 74.2907 83.4419C73.6975 83.4419 73.28 83.2002 73.1877 82.7871H72.4099C72.4934 83.5737 73.2624 84.0791 74.2907 84.0791ZM79.2784 79.8955C79.8101 79.8955 80.0474 80.1592 80.0474 80.5547C80.0474 80.9985 79.7706 81.2314 79.1553 81.2314H78.1226V79.8955H79.2784ZM79.2212 81.8643C79.9024 81.8643 80.254 82.0972 80.254 82.6245C80.254 83.1035 79.9463 83.3672 79.3663 83.3672H78.1226V81.8643H79.2212ZM77.3668 84H79.3838C80.4034 84 81.0054 83.4639 81.0054 82.6377C81.0054 82.0664 80.6231 81.627 80.0211 81.5435V81.4731C80.4649 81.3809 80.7945 80.9414 80.7945 80.4756C80.7945 79.7417 80.2715 79.2627 79.3751 79.2627H77.3668V84ZM84.1474 84.0835C85.4965 84.0835 86.3315 83.1519 86.3315 81.6313C86.3315 80.1064 85.4965 79.1792 84.1474 79.1792C82.7983 79.1792 81.9633 80.1064 81.9633 81.6313C81.9633 83.1519 82.7983 84.0835 84.1474 84.0835ZM84.1474 83.4023C83.2509 83.4023 82.7455 82.752 82.7455 81.6313C82.7455 80.5063 83.2509 79.8604 84.1474 79.8604C85.0439 79.8604 85.5492 80.5063 85.5492 81.6313C85.5492 82.752 85.0439 83.4023 84.1474 83.4023ZM90.6643 84H91.4202V79.2627H90.6643V81.2227H88.3001V79.2627H87.5442V84H88.3001V81.8555H90.6643V84ZM93.6217 84L95.9816 80.4668H96.0519V84H96.8077V79.2627H96.0519L93.692 82.7959H93.6217V79.2627H92.8658V84H93.6217ZM101.69 79.2627H97.8579V79.8955H99.396V84H100.152V79.8955H101.69V79.2627ZM104.428 81.416C105.047 81.416 105.451 81.7983 105.451 82.3916C105.451 82.9805 105.052 83.3672 104.428 83.3672H103.492V81.416H104.428ZM102.736 84H104.428C105.513 84 106.207 83.376 106.207 82.3916C106.207 81.4072 105.513 80.7832 104.428 80.7832H103.492V79.2627H102.736V84Z" fill="#979797"/>
<path fill-rule="evenodd" clip-rule="evenodd" d="M83.5 75C93.7173 75 102 66.7173 102 56.5C102 46.2827 93.7173 38 83.5 38C73.2827 38 65 46.2827 65 56.5C65 66.7173 73.2827 75 83.5 75Z" fill="#4CD964"/>
<path fill-rule="evenodd" clip-rule="evenodd" d="M80.6548 60.0478C80.6548 60.0478 87.1914 66.0142 90.8753 64.1333C90.8753 64.1333 91.8934 63.2992 91.9921 62.4799C92.0907 61.6605 91.2448 61.1109 90.9179 60.9241C90.1353 60.475 89.3304 60.0565 88.5319 59.6303C88.2795 59.4953 88.0059 59.343 87.7078 59.4177C87.5353 59.4618 87.3575 59.5097 87.1999 59.5844C86.6377 59.8487 86.1767 60.0977 85.5677 60.3457C85.5677 60.3457 84.9461 60.1639 82.6271 58.0523C80.1633 55.8085 80.4963 54.9742 80.4963 54.9742C80.8168 54.5652 81.1085 54.1372 81.3513 53.6861C81.4556 53.4917 81.5993 53.304 81.66 53.0923C81.7218 52.8797 81.5951 52.7275 81.4886 52.5407C81.2522 52.1232 80.9999 51.7133 80.738 51.3082C80.2865 50.6081 79.8255 49.8784 79.2495 49.253C79.1888 49.1879 79.0472 48.9926 78.9311 49.0002C77.6503 49.0778 76.3886 50.2299 76.3886 50.2299C74.4061 53.4898 80.6548 60.0478 80.6548 60.0478Z" fill="#DADADA"/>
<path d="M124.327 84C125.676 84 126.476 83.3364 126.476 82.2202C126.476 81.3809 125.926 80.7876 125.061 80.6777V80.6074C125.671 80.4976 126.155 79.8999 126.155 79.2407C126.155 78.2695 125.443 77.6587 124.278 77.6587H121.853V84H124.327ZM122.644 78.3574H124.111C124.898 78.3574 125.355 78.731 125.355 79.377C125.355 80.0493 124.867 80.3921 123.909 80.3921H122.644V78.3574ZM122.644 83.3013V81.0732H124.133C125.144 81.0732 125.663 81.4468 125.663 82.1807C125.663 82.9146 125.162 83.3013 124.208 83.3013H122.644ZM128.568 84L130.927 80.4668H130.998V84H131.754V79.2627H130.998L128.638 82.7959H128.568V79.2627H127.812V84H128.568ZM136.333 83.3672H133.995V83.2969C134.219 83.0024 134.342 82.4971 134.386 81.9214L134.535 79.8955H136.333V83.3672ZM133.428 85.2524V84H137.133V85.2524H137.845V83.3672H137.089V79.2627H133.859L133.674 81.9038C133.63 82.541 133.459 83.1387 133.112 83.3672H132.716V85.2524H133.428ZM140.789 79.8472C141.54 79.8472 142.041 80.4009 142.059 81.2402H139.449C139.506 80.4009 140.033 79.8472 140.789 79.8472ZM142.037 82.7739C141.839 83.1914 141.426 83.4155 140.815 83.4155C140.011 83.4155 139.488 82.8223 139.449 81.8862V81.8511H142.854V81.561C142.854 80.0889 142.077 79.1792 140.798 79.1792C139.497 79.1792 138.662 80.146 138.662 81.6357C138.662 83.1343 139.484 84.0835 140.798 84.0835C141.835 84.0835 142.564 83.5869 142.793 82.7739H142.037ZM146.133 84.0835C147.482 84.0835 148.317 83.1519 148.317 81.6313C148.317 80.1064 147.482 79.1792 146.133 79.1792C144.784 79.1792 143.949 80.1064 143.949 81.6313C143.949 83.1519 144.784 84.0835 146.133 84.0835ZM146.133 83.4023C145.236 83.4023 144.731 82.752 144.731 81.6313C144.731 80.5063 145.236 79.8604 146.133 79.8604C147.029 79.8604 147.535 80.5063 147.535 81.6313C147.535 82.752 147.029 83.4023 146.133 83.4023Z" fill="#979797"/>
<path fill-rule="evenodd" clip-rule="evenodd" d="M135.5 75C145.717 75 154 66.7173 154 56.5C154 46.2827 145.717 38 135.5 38C125.283 38 117 46.2827 117 56.5C117 66.7173 125.283 75 135.5 75Z" fill="#FF9500"/>
<path fill-rule="evenodd" clip-rule="evenodd" d="M129.343 51.1094H138.093C139.387 51.1094 140.436 52.1722 140.436 53.4844V60.0156C140.436 61.3278 139.387 62.3906 138.093 62.3906H129.343C128.048 62.3906 127 61.3278 127 60.0156V53.4844C127 52.1722 128.048 51.1094 129.343 51.1094ZM141.314 54.9509L145.83 52.6116H146V60.9241H145.823L141.314 58.5491V54.9509Z" fill="#DADADA"/>
<path d="M81.5 99L72.4067 89.25H90.5933L81.5 99Z" fill="#303235"/>
</svg>
