<svg width="164" height="99" viewBox="0 0 164 99" fill="none" xmlns="http://www.w3.org/2000/svg">
<!--ФОН-->
<rect width="164" height="90" rx="10" fill="#303235"/>
<!-- TEXT-->
<g>
<text transform="translate(80,14)" font-size="12px" font-family="SF-Pro-Display" text-anchor="middle" fill="#BEBEBE">TEXT</text>
</g>
<g>
<text transform="translate(80,28)" font-size="12px" font-family="SF-Pro-Display" text-anchor="middle" fill="#BEBEBE">NAME</text>
</g>

<!-- CHAT-->
<g reference = "CHAT" id="g_user_char_btn">
<path d="M13.915 84V77.6587H13.124V80.4009H9.64355V77.6587H8.85254V84H9.64355V81.1128H13.124V84H13.915ZM17.0397 83.4199C16.4904 83.4199 16.0817 83.1387 16.0817 82.6553C16.0817 82.1807 16.3981 81.9302 17.1188 81.8818L18.3932 81.7983V82.2334C18.3932 82.9102 17.8175 83.4199 17.0397 83.4199ZM16.8991 84.0835C17.5319 84.0835 18.0504 83.8066 18.3581 83.3013H18.4284V84H19.1491V80.7568C19.1491 79.7725 18.5031 79.1792 17.3473 79.1792C16.3366 79.1792 15.5895 79.6802 15.4884 80.4404H16.2531C16.3585 80.0669 16.7541 79.8516 17.3209 79.8516C18.0285 79.8516 18.3932 80.1724 18.3932 80.7568V81.1875L17.0265 81.271C15.9235 81.3369 15.2995 81.8247 15.2995 82.6729C15.2995 83.5386 15.9806 84.0835 16.8991 84.0835ZM23.7635 84H24.5193V79.2627H20.6873V84H21.4432V79.8955H23.7635V84ZM26.8354 84L29.1953 80.4668H29.2656V84H30.0214V79.2627H29.2656L26.9057 82.7959H26.8354V79.2627H26.0795V84H26.8354ZM35.5103 80.7129C35.3785 79.8691 34.6754 79.1792 33.524 79.1792C32.1969 79.1792 31.3531 80.1372 31.3531 81.6138C31.3531 83.1211 32.2013 84.0835 33.5284 84.0835C34.6666 84.0835 35.3741 83.4419 35.5103 82.5718H34.7457C34.6051 83.1079 34.1612 83.4023 33.524 83.4023C32.6803 83.4023 32.1353 82.708 32.1353 81.6138C32.1353 80.5415 32.6715 79.8604 33.524 79.8604C34.2052 79.8604 34.6226 80.2427 34.7457 80.7129H35.5103ZM38.2307 83.4199C37.6814 83.4199 37.2727 83.1387 37.2727 82.6553C37.2727 82.1807 37.5891 81.9302 38.3098 81.8818L39.5842 81.7983V82.2334C39.5842 82.9102 39.0085 83.4199 38.2307 83.4199ZM38.0901 84.0835C38.7229 84.0835 39.2414 83.8066 39.5491 83.3013H39.6194V84H40.3401V80.7568C40.3401 79.7725 39.6941 79.1792 38.5383 79.1792C37.5276 79.1792 36.7805 79.6802 36.6794 80.4404H37.4441C37.5495 80.0669 37.9451 79.8516 38.5119 79.8516C39.2195 79.8516 39.5842 80.1724 39.5842 80.7568V81.1875L38.2175 81.271C37.1145 81.3369 36.4905 81.8247 36.4905 82.6729C36.4905 83.5386 37.1716 84.0835 38.0901 84.0835ZM45.3104 79.2627H41.4784V79.8955H43.0165V84H43.7723V79.8955H45.3104V79.2627ZM48.1626 81.416C48.7823 81.416 49.1866 81.7983 49.1866 82.3916C49.1866 82.9805 48.7867 83.3672 48.1626 83.3672H47.2266V81.416H48.1626ZM46.4707 84H48.1626C49.2481 84 49.9424 83.376 49.9424 82.3916C49.9424 81.4072 49.2481 80.7832 48.1626 80.7832H47.2266V79.2627H46.4707V84Z" fill="#979797"/>

<path fill-rule="evenodd" clip-rule="evenodd" d="M29.5 75C39.7173 75 48 66.7173 48 56.5C48 46.2827 39.7173 38 29.5 38C19.2827 38 11 46.2827 11 56.5C11 66.7173 19.2827 75 29.5 75Z" fill="#007AFF"/>

<path fill-rule="evenodd" clip-rule="evenodd" d="M29.5 50C34.1941 50 38 53.1138 38 56.9546C38 60.7955 34.1941 63.9092 29.5 63.9092C28.7276 63.9092 27.1689 63.6012 27.1604 63.615C26.6408 64.4564 23.8008 64.9665 23.5298 64.9972C23.2599 65.029 23.0411 64.7803 23.2769 64.6353C23.5117 64.4903 24.3904 63.7092 24.6051 63.2234C24.8197 62.7376 24.5456 62.4116 24.3522 62.2031C22.3143 60.9331 21 59.2121 21 56.9546C21 53.1138 24.8059 50 29.5 50Z" fill="#DADADA"/>
</g>
<!--CALL -->
<g reference = "CALL" id="g_user_call_btn">
<path d="M65.8228 84V77.6587H60.8525V84H61.6479V78.3794H65.0405V84H65.8228ZM69.3251 84.0835C70.6742 84.0835 71.5091 83.1519 71.5091 81.6313C71.5091 80.1064 70.6742 79.1792 69.3251 79.1792C67.9759 79.1792 67.141 80.1064 67.141 81.6313C67.141 83.1519 67.9759 84.0835 69.3251 84.0835ZM69.3251 83.4023C68.4286 83.4023 67.9232 82.752 67.9232 81.6313C67.9232 80.5063 68.4286 79.8604 69.3251 79.8604C70.2215 79.8604 70.7269 80.5063 70.7269 81.6313C70.7269 82.752 70.2215 83.4023 69.3251 83.4023ZM74.2907 84.0791C75.3938 84.0791 76.154 83.4814 76.154 82.6025C76.154 82.0576 75.8288 81.6621 75.2004 81.5259V81.4556C75.6662 81.3501 75.9694 80.9282 75.9694 80.458C75.9694 79.7021 75.3586 79.1792 74.2907 79.1792C73.2976 79.1792 72.5944 79.6714 72.4934 80.4492H73.2404C73.302 80.0669 73.7238 79.8208 74.2907 79.8208C74.9104 79.8208 75.2224 80.1152 75.2224 80.5151C75.2224 80.9897 74.8884 81.2227 74.2907 81.2227H73.5524V81.8555H74.2907C75.0158 81.8555 75.4025 82.1016 75.4025 82.6421C75.4025 83.1123 74.9895 83.4419 74.2907 83.4419C73.6975 83.4419 73.28 83.2002 73.1877 82.7871H72.4099C72.4934 83.5737 73.2624 84.0791 74.2907 84.0791ZM79.2784 79.8955C79.8101 79.8955 80.0474 80.1592 80.0474 80.5547C80.0474 80.9985 79.7706 81.2314 79.1553 81.2314H78.1226V79.8955H79.2784ZM79.2212 81.8643C79.9024 81.8643 80.254 82.0972 80.254 82.6245C80.254 83.1035 79.9463 83.3672 79.3663 83.3672H78.1226V81.8643H79.2212ZM77.3668 84H79.3838C80.4034 84 81.0054 83.4639 81.0054 82.6377C81.0054 82.0664 80.6231 81.627 80.0211 81.5435V81.4731C80.4649 81.3809 80.7945 80.9414 80.7945 80.4756C80.7945 79.7417 80.2715 79.2627 79.3751 79.2627H77.3668V84ZM84.1474 84.0835C85.4965 84.0835 86.3315 83.1519 86.3315 81.6313C86.3315 80.1064 85.4965 79.1792 84.1474 79.1792C82.7983 79.1792 81.9633 80.1064 81.9633 81.6313C81.9633 83.1519 82.7983 84.0835 84.1474 84.0835ZM84.1474 83.4023C83.2509 83.4023 82.7455 82.752 82.7455 81.6313C82.7455 80.5063 83.2509 79.8604 84.1474 79.8604C85.0439 79.8604 85.5492 80.5063 85.5492 81.6313C85.5492 82.752 85.0439 83.4023 84.1474 83.4023ZM90.6643 84H91.4202V79.2627H90.6643V81.2227H88.3001V79.2627H87.5442V84H88.3001V81.8555H90.6643V84ZM93.6217 84L95.9816 80.4668H96.0519V84H96.8077V79.2627H96.0519L93.692 82.7959H93.6217V79.2627H92.8658V84H93.6217ZM101.69 79.2627H97.8579V79.8955H99.396V84H100.152V79.8955H101.69V79.2627ZM104.428 81.416C105.047 81.416 105.451 81.7983 105.451 82.3916C105.451 82.9805 105.052 83.3672 104.428 83.3672H103.492V81.416H104.428ZM102.736 84H104.428C105.513 84 106.207 83.376 106.207 82.3916C106.207 81.4072 105.513 80.7832 104.428 80.7832H103.492V79.2627H102.736V84Z" fill="#979797"/>

<path fill-rule="evenodd" clip-rule="evenodd" d="M83.5 75C93.7173 75 102 66.7173 102 56.5C102 46.2827 93.7173 38 83.5 38C73.2827 38 65 46.2827 65 56.5C65 66.7173 73.2827 75 83.5 75Z" fill="#4CD964"/>

<path fill-rule="evenodd" clip-rule="evenodd" d="M80.6548 60.0478C80.6548 60.0478 87.1914 66.0142 90.8753 64.1333C90.8753 64.1333 91.8934 63.2992 91.9921 62.4799C92.0907 61.6605 91.2448 61.1109 90.9179 60.9241C90.1353 60.475 89.3304 60.0565 88.5319 59.6303C88.2795 59.4953 88.0059 59.343 87.7078 59.4177C87.5353 59.4618 87.3575 59.5097 87.1999 59.5844C86.6377 59.8487 86.1767 60.0977 85.5677 60.3457C85.5677 60.3457 84.9461 60.1639 82.6271 58.0523C80.1633 55.8085 80.4963 54.9742 80.4963 54.9742C80.8168 54.5652 81.1085 54.1372 81.3513 53.6861C81.4556 53.4917 81.5993 53.304 81.66 53.0923C81.7218 52.8797 81.5951 52.7275 81.4886 52.5407C81.2522 52.1232 80.9999 51.7133 80.738 51.3082C80.2865 50.6081 79.8255 49.8784 79.2495 49.253C79.1888 49.1879 79.0472 48.9926 78.9311 49.0002C77.6503 49.0778 76.3886 50.2299 76.3886 50.2299C74.4061 53.4898 80.6548 60.0478 80.6548 60.0478Z" fill="#DADADA"/>
</g>
<!--VIDEO -->
<g reference = "VIDEO" id="g_user_video_btn">
<path d="M124.327 84C125.676 84 126.476 83.3364 126.476 82.2202C126.476 81.3809 125.926 80.7876 125.061 80.6777V80.6074C125.671 80.4976 126.155 79.8999 126.155 79.2407C126.155 78.2695 125.443 77.6587 124.278 77.6587H121.853V84H124.327ZM122.644 78.3574H124.111C124.898 78.3574 125.355 78.731 125.355 79.377C125.355 80.0493 124.867 80.3921 123.909 80.3921H122.644V78.3574ZM122.644 83.3013V81.0732H124.133C125.144 81.0732 125.663 81.4468 125.663 82.1807C125.663 82.9146 125.162 83.3013 124.208 83.3013H122.644ZM128.568 84L130.927 80.4668H130.998V84H131.754V79.2627H130.998L128.638 82.7959H128.568V79.2627H127.812V84H128.568ZM136.333 83.3672H133.995V83.2969C134.219 83.0024 134.342 82.4971 134.386 81.9214L134.535 79.8955H136.333V83.3672ZM133.428 85.2524V84H137.133V85.2524H137.845V83.3672H137.089V79.2627H133.859L133.674 81.9038C133.63 82.541 133.459 83.1387 133.112 83.3672H132.716V85.2524H133.428ZM140.789 79.8472C141.54 79.8472 142.041 80.4009 142.059 81.2402H139.449C139.506 80.4009 140.033 79.8472 140.789 79.8472ZM142.037 82.7739C141.839 83.1914 141.426 83.4155 140.815 83.4155C140.011 83.4155 139.488 82.8223 139.449 81.8862V81.8511H142.854V81.561C142.854 80.0889 142.077 79.1792 140.798 79.1792C139.497 79.1792 138.662 80.146 138.662 81.6357C138.662 83.1343 139.484 84.0835 140.798 84.0835C141.835 84.0835 142.564 83.5869 142.793 82.7739H142.037ZM146.133 84.0835C147.482 84.0835 148.317 83.1519 148.317 81.6313C148.317 80.1064 147.482 79.1792 146.133 79.1792C144.784 79.1792 143.949 80.1064 143.949 81.6313C143.949 83.1519 144.784 84.0835 146.133 84.0835ZM146.133 83.4023C145.236 83.4023 144.731 82.752 144.731 81.6313C144.731 80.5063 145.236 79.8604 146.133 79.8604C147.029 79.8604 147.535 80.5063 147.535 81.6313C147.535 82.752 147.029 83.4023 146.133 83.4023Z" fill="#979797"/>

<path fill-rule="evenodd" clip-rule="evenodd" d="M135.5 75C145.717 75 154 66.7173 154 56.5C154 46.2827 145.717 38 135.5 38C125.283 38 117 46.2827 117 56.5C117 66.7173 125.283 75 135.5 75Z" fill="#FF9500"/>

<path fill-rule="evenodd" clip-rule="evenodd" d="M129.343 51.1094H138.093C139.387 51.1094 140.436 52.1722 140.436 53.4844V60.0156C140.436 61.3278 139.387 62.3906 138.093 62.3906H129.343C128.048 62.3906 127 61.3278 127 60.0156V53.4844C127 52.1722 128.048 51.1094 129.343 51.1094ZM141.314 54.9509L145.83 52.6116H146V60.9241H145.823L141.314 58.5491V54.9509Z" fill="#DADADA"/>
</g>
<!--ФОН-->
<path d="M81.5 99L72.4067 89.25H90.5933L81.5 99Z" fill="#303235"/>
</svg>
